<svg width="150" height="50" viewBox="0 0 150 50" fill="none" xmlns="http://www.w3.org/2000/svg">
<path d="M131.137 30.7537C131.197 30.8151 131.197 30.8151 131.137 30.7537C131.197 30.8151 131.197 30.7537 131.137 30.7537C131.197 30.7537 131.197 30.7537 131.137 30.7537ZM136.72 39.4099C136.842 39.4099 136.842 39.3485 136.842 39.2872L136.78 39.2258C136.72 39.2258 136.658 39.2258 136.72 39.4099ZM135.431 41.6201C135.615 41.4972 135.738 41.4359 135.677 41.1903C135.553 41.2517 135.431 41.3745 135.431 41.6201ZM135.984 41.6815C135.86 41.8043 135.615 41.927 135.86 42.1726C135.86 41.9884 135.922 41.8043 135.984 41.6815ZM62.912 39.2872C62.728 39.2258 62.5439 39.0416 62.2372 39.1644C62.4826 39.2872 62.6666 39.3485 62.912 39.2872ZM137.824 34.4371C137.395 34.253 137.088 34.4986 136.72 34.7442L137.824 34.4371ZM81.9314 42.4796C81.4406 42.2954 80.9498 42.1113 80.3976 42.1726C80.8884 42.2954 81.4406 42.3568 81.9314 42.4796ZM82.729 42.6023C83.3425 42.6637 84.0174 42.7866 84.6309 42.848C84.0174 42.6023 83.3425 42.5409 82.729 42.6023ZM88.3122 43.2776C87.7599 43.1549 87.2078 43.0321 86.6556 43.0935C87.2078 43.2163 87.7599 43.339 88.3122 43.2776ZM138.622 36.9542C138.376 37.4454 138.253 37.9979 138.008 38.4891C138.498 37.9365 138.622 37.5068 138.622 36.9542ZM137.333 40.6992C136.965 41.4972 136.413 42.1726 135.922 42.848C136.658 42.2954 137.211 41.6201 137.333 40.6992ZM116.902 42.2954C116.902 42.3568 116.902 42.3568 116.902 42.4182C118.62 42.1113 120.277 41.8043 121.995 41.4972C121.872 41.4359 121.811 41.4359 121.688 41.4359C120.093 41.7429 118.498 41.9884 116.902 42.2954ZM91.0116 42.7251C91.5639 42.848 92.116 42.9093 92.7909 42.7866C92.116 42.7251 91.5639 42.6637 91.0116 42.6023C86.6556 42.0498 82.2382 41.4972 77.8821 41.1903C78.0662 41.2517 78.2503 41.3131 78.373 41.3745C80.7657 41.8043 83.1585 41.927 85.5512 42.234C87.3918 42.4182 89.171 42.5409 91.0116 42.7251ZM112.056 42.9093C111.933 42.9093 111.872 42.848 111.748 42.848C110.706 42.9093 109.724 43.0321 108.681 43.0321C107.086 43.0935 105.552 43.2163 103.957 43.2776C106.657 43.2776 109.356 43.2163 112.056 42.9093C113.221 42.848 114.326 42.6637 115.553 42.5409C115.062 42.2954 114.755 42.5409 114.388 42.6023C113.59 42.7251 112.792 42.848 112.056 42.9093ZM135.493 42.848C135.677 42.7251 135.738 42.5409 135.738 42.3568C135.615 42.4796 135.493 42.6023 135.493 42.848C135.431 42.848 135.431 42.848 135.431 42.9093L135.493 42.848ZM129.725 27.6227C129.786 27.6841 129.848 27.6841 129.91 27.6227C129.848 27.5613 129.848 27.5613 129.786 27.4999C129.725 27.4384 129.603 27.2543 129.541 27.377C129.479 27.4999 129.603 27.5613 129.725 27.6227ZM132.424 30.2625C132.486 30.3239 132.486 30.3239 132.424 30.2625C132.364 30.2011 132.302 30.1398 132.241 30.0784C131.75 29.4031 131.014 29.1574 130.277 28.9733C131.014 29.2188 131.566 29.7714 132.241 30.0784C132.241 30.2011 132.302 30.2625 132.424 30.2625ZM135.984 44.3213C135.922 44.3827 135.86 44.3827 135.922 44.4441C135.984 44.5055 136.044 44.4441 136.044 44.3827C136.044 44.3213 136.106 44.3213 136.044 44.26L135.984 44.3213ZM134.204 31.8587C134.204 31.9202 134.204 31.9202 134.266 31.9815C134.633 32.2271 134.94 32.5341 135.37 32.6568C135.063 32.4112 134.817 31.9815 134.266 31.9815C134.326 31.8587 134.266 31.8587 134.204 31.8587C134.204 31.8587 134.204 31.7359 134.142 31.8587H134.204ZM135.002 30.2625C135.738 30.6308 136.475 31.1834 137.271 31.3676C138.192 31.5518 138.989 32.0429 139.909 32.2271C140.278 32.2885 140.278 32.3498 140.155 32.6568C140.094 32.7182 140.155 32.7796 140.216 32.841C140.278 32.9024 140.34 32.9638 140.462 32.9024C140.585 32.7182 141.076 32.7182 140.646 32.3498C141.014 32.3498 141.014 32.7182 141.26 32.7182C141.321 32.9638 140.891 32.7182 141.014 32.9638C141.076 33.1479 141.321 33.0865 141.382 33.1479C141.567 33.3322 141.934 33.2708 141.934 33.6391C141.934 33.7004 141.934 33.8847 142.118 33.8233C142.548 33.6391 142.425 33.8847 142.364 34.0688C142.058 34.7442 141.934 35.5422 141.505 36.0948C140.707 37.1385 140.4 38.4277 139.542 39.4099C139.48 39.5327 139.418 39.6556 139.174 39.6556C139.358 39.103 140.033 38.7346 139.787 37.9979C139.726 38.3663 139.542 38.6732 139.296 38.9803C139.051 39.3485 138.622 39.5942 138.867 40.208C138.989 40.4536 138.744 40.7605 138.56 41.0062C138.56 40.9448 138.56 40.8834 138.56 40.8834C138.376 40.8219 138.376 41.0062 138.315 41.0676C138.253 41.1289 138.253 41.2517 138.315 41.2517C138.622 41.1903 138.438 41.3745 138.376 41.4359C138.315 41.6815 138.192 41.927 138.008 42.1113C137.578 42.4796 137.271 42.9707 136.965 43.4619C136.965 43.2776 136.904 43.1549 136.72 43.2163C136.475 43.2776 136.351 43.5233 136.351 43.7688C136.351 43.8916 136.535 43.8302 136.658 43.7688C136.475 44.26 136.167 44.6896 135.553 44.7511C135.553 44.5669 135.615 44.3827 135.738 44.26C135.984 44.0758 135.984 43.8302 135.799 43.7074C135.553 43.4619 135.493 43.8302 135.37 43.9529C135.124 44.0758 135.063 44.3827 134.757 44.4441C134.757 44.1372 135.186 43.9529 135.002 43.5847C134.572 44.1986 134.02 44.5669 133.529 45.058C133.346 45.2422 133.222 45.4264 133.039 44.9353C132.793 44.3213 132.977 44.0758 133.346 43.7688C133.775 43.4004 134.204 42.9707 134.633 42.6023C134.695 42.5409 134.879 42.4796 134.757 42.3568C134.633 42.234 134.572 42.3568 134.511 42.4182C134.388 42.4796 134.326 42.6023 134.142 42.5409C134.633 41.927 135.002 41.2517 135.493 40.7606L135.553 40.8219V40.8834C135.677 40.8219 135.738 40.8219 135.677 40.6378C135.799 40.6992 135.799 40.515 135.922 40.515C135.984 40.6992 135.738 40.8219 135.86 41.0062C136.044 40.6992 136.229 40.3923 136.351 40.0852H136.413V40.0239L136.351 40.0852C136.229 40.0852 136.29 39.9625 136.229 39.9011C136.29 39.9011 136.351 39.8397 136.351 39.7783H136.29C136.229 39.7783 136.167 39.8397 136.229 39.9625C136.167 39.9625 136.044 39.9625 135.984 39.9011C136.106 39.6556 136.229 39.4713 136.351 39.2872C136.413 39.2258 136.413 39.0416 136.597 39.1644C136.72 39.2872 136.842 39.2872 136.965 39.1644C137.026 39.0416 137.088 38.8574 136.965 38.7346C136.78 38.5505 136.904 38.4891 137.026 38.3663C137.517 37.691 138.008 37.0156 138.438 36.3403C138.498 36.2789 138.498 36.2175 138.438 36.2175C138.438 36.2175 138.376 36.2175 138.315 36.2175C137.456 36.7087 136.535 37.1385 135.738 37.7524C135.553 37.8752 135.308 37.9979 135.124 38.0593C130.094 40.1466 124.878 41.4972 119.54 42.5409C115.859 43.2776 112.179 43.8302 108.497 44.1986C105.798 44.4441 103.159 44.6284 100.46 44.6897C99.7238 44.6897 99.0489 44.4441 98.3739 44.3827C96.1653 44.1986 93.8953 44.1372 91.6866 44.0143C89.6006 43.8916 87.5759 43.646 85.5512 43.4005C83.3425 43.1549 81.1338 42.848 78.9251 42.6023C78.2503 42.5409 77.5753 42.4182 76.9619 42.3568C76.5937 42.2954 76.2256 42.1727 75.7348 42.2954C76.2256 42.3568 76.5937 42.4182 76.9619 42.5409C77.698 42.6637 78.4343 42.7866 79.1706 42.9093C79.1706 42.9707 79.1706 42.9707 79.1706 43.0321C76.9619 42.7866 74.7532 42.5409 72.6058 42.234C70.8265 41.927 69.1087 41.4972 67.3294 41.0676C64.2617 40.3309 61.1942 39.7169 58.1265 38.8574C57.9425 38.796 57.6357 38.8574 57.6971 38.5505C57.7584 38.3048 58.0652 38.4891 58.1878 38.4891C58.6174 38.5505 58.9855 38.6732 59.4149 38.796C59.5989 38.6732 59.7831 38.7346 60.0285 38.796C60.7033 39.0416 61.4396 39.2258 62.1758 39.2258C61.2555 38.9803 60.2739 38.7346 59.3536 38.4891C59.2309 38.4277 59.0468 38.4277 58.9855 38.3048C59.7217 38.3663 60.4579 38.6119 61.1942 38.796C64.8753 39.7169 68.5565 40.4536 72.1764 41.2517C74.7532 41.8043 77.3913 41.9884 80.0295 42.2954C80.0908 42.2954 80.2136 42.2954 80.3363 42.234C76.3483 41.3131 72.2991 40.8219 68.4338 39.4713C70.5811 39.8397 72.7285 40.2695 74.9372 40.515C74.3851 39.9625 73.6488 39.7169 72.9125 39.5327C73.0352 39.6556 73.1579 39.5942 73.3421 39.5942C73.4648 39.6556 73.5875 39.6556 73.8942 39.5942C73.6488 39.5327 73.5875 39.5327 73.4648 39.4713C72.9125 39.3485 72.3604 39.2258 71.8695 39.103V39.0416C72.6672 39.1644 73.4034 39.2872 74.2009 39.4099C75.2439 39.5942 76.3483 39.7783 77.3913 39.9625C77.4527 39.9625 77.5753 39.9625 77.6367 40.0852C77.3913 40.0852 77.1459 40.0852 76.9005 40.0852C76.7777 39.9625 76.655 40.0239 76.5323 40.0239C76.655 40.0239 76.7777 40.0239 76.9005 40.0852C76.7777 40.3309 76.5323 40.0852 76.4096 40.2695C77.33 40.4536 78.2503 40.5764 79.2319 40.7606C79.416 40.7606 79.6 40.8219 79.7841 40.6992C79.7841 40.6992 79.7841 40.6378 79.8454 40.6378C80.0294 40.6378 80.2136 40.6992 80.459 40.6378C80.3363 40.515 80.1521 40.6378 80.0908 40.4536C80.9498 40.4536 81.8087 40.6992 82.729 40.7606C84.2628 40.9448 85.7353 41.0676 87.2691 41.3131C88.987 41.6201 90.6436 41.5587 92.3614 41.8043C93.8953 41.9884 95.3677 42.0498 96.9015 41.9884C97.8832 41.927 98.9262 41.9884 99.8465 42.1726C100.583 42.3568 101.319 42.4796 102.055 42.4182C103.773 42.3568 105.43 42.1727 107.147 42.0498C108.681 41.927 110.215 41.7429 111.81 41.8043C111.872 41.8043 111.933 41.8043 111.994 41.6815C108.804 41.4972 105.675 42.0498 102.485 42.1113C102.485 42.0498 102.485 41.9884 102.546 41.927C105.491 41.7429 108.436 41.5587 111.381 41.1903C113.957 40.8834 116.535 40.515 119.111 40.1466C121.136 39.8397 123.038 39.103 125.001 38.6119C128.437 37.7524 131.75 36.7087 135.063 35.3581C135.86 35.0511 136.658 34.6828 137.578 34.253C136.229 33.5777 134.817 33.1479 133.468 32.6568C133.529 32.2884 133.222 31.7973 132.793 31.6745C132.548 31.6131 132.732 31.8587 132.609 31.8587L132.855 32.2271L132.793 32.2884C132.486 32.1657 132.119 31.9815 131.934 31.6745C132.119 31.6745 132.119 31.6745 132.179 31.5518C132.302 31.2447 131.934 31.3062 131.873 31.1834C131.812 31.122 131.811 31.122 131.75 31.1834L131.811 31.2447C131.811 31.4904 131.628 31.5518 131.382 31.4904C130.891 31.3062 130.401 30.9992 129.97 30.7537C129.725 30.5694 129.419 30.3853 129.173 30.2011C129.97 30.2625 130.646 30.6308 131.382 30.8764C130.891 30.4467 130.339 30.2011 129.725 30.017C129.05 29.8327 128.376 29.5258 127.761 29.2188C127.578 29.1574 127.332 29.0347 127.394 28.7278C127.456 28.6049 127.456 28.4207 127.456 28.298C127.394 27.991 127.456 27.9296 127.761 27.991C128.376 28.2366 129.05 28.4821 129.603 28.7891C129.603 28.8505 129.603 28.8505 129.664 28.8505L129.603 28.7891C129.664 28.4207 129.173 28.4821 129.112 28.1138C129.419 28.1752 129.603 28.3594 129.848 28.4207C129.97 28.4821 130.155 28.6663 130.216 28.4207C130.277 28.2366 130.277 28.0525 130.094 27.9296C129.91 27.8682 129.786 27.7454 129.664 27.5613C129.91 27.3157 130.155 27.3157 130.401 27.4999C130.584 27.6227 130.768 27.7454 131.014 27.8682C130.891 27.9296 130.83 28.0523 130.707 28.1138C130.83 28.2366 130.952 28.298 131.075 28.298C131.075 28.298 131.075 28.298 131.075 28.3594C131.075 28.3594 131.075 28.3594 131.014 28.298C131.137 28.0523 131.259 27.991 131.504 28.1752C131.812 28.4207 132.241 28.6049 132.609 28.7278C132.915 28.8505 133.222 28.9119 133.346 29.2802C133.284 29.2802 133.222 29.2802 133.222 29.2802C133.161 29.3417 133.284 29.3417 133.284 29.4031C133.345 29.5258 133.529 29.6486 133.652 29.5872C134.081 29.4644 134.204 29.8941 134.204 30.017C134.266 30.4467 134.511 30.5081 134.817 30.5081C135.186 30.7537 135.677 30.8151 135.984 31.122L136.044 31.1834C136.044 31.1834 136.044 31.1834 136.044 31.122H135.984C135.922 30.5694 135.431 30.5694 135.063 30.3853C134.879 30.2625 134.633 30.2625 134.45 30.017C134.511 30.017 134.757 30.2625 135.002 30.2625Z" fill="currentColor"/>
<path d="M84.5696 44.5669C81.8701 44.3827 79.1706 44.0143 76.471 43.5846C74.3236 43.2163 72.1764 42.9093 70.0904 42.3568C69.9677 42.3568 69.9063 42.2954 69.7835 42.2954C75.5507 43.2163 81.318 43.7688 87.0851 44.4441C86.6556 44.5669 86.2261 44.3213 85.7966 44.5055C85.6126 44.3213 85.3672 44.4441 85.1218 44.4441C84.4469 44.3213 83.7721 44.26 83.0971 44.3213C83.2198 44.3827 83.3425 44.3213 83.4652 44.3827C83.8947 44.4441 84.2628 44.3213 84.5696 44.5669Z" fill="currentColor"/>
<path d="M91.6252 44.7511C92.116 44.6896 92.6068 44.8125 93.0977 44.8739C92.8523 44.8739 92.5455 44.8739 92.3001 44.9353C92.8523 44.9966 93.4044 45.058 93.9566 45.1808C91.9933 45.2422 90.03 45.058 88.128 44.8739C88.128 44.8739 88.128 44.8739 88.128 44.8125C88.6189 44.7511 89.0483 44.8125 89.5392 44.8125C90.2141 44.9353 90.889 44.8739 91.5639 44.8739C91.6252 44.8739 91.6866 44.8739 91.6252 44.7511Z" fill="currentColor"/>
<path d="M56.47 39.1644C58.0038 39.5942 59.5376 40.0239 61.0714 40.515C59.5376 40.1466 57.9424 39.8397 56.47 39.1644Z" fill="currentColor"/>
<path d="M90.8276 44.6896C90.5822 44.9353 90.3367 44.8125 90.0913 44.8125C89.9073 44.8125 89.7232 44.8125 89.5392 44.7511C89.2938 44.7511 89.1097 44.7511 88.8643 44.6896C89.5392 44.5669 90.1527 44.6283 90.8276 44.6896Z" fill="currentColor"/>
<path d="M96.8402 45.3037H98.9262V45.365L96.8402 45.3037Z" fill="currentColor"/>
<path d="M79.784 40.3309C79.6614 40.3309 79.416 40.3922 79.3546 40.208C79.4773 40.2695 79.6614 40.1466 79.784 40.3309Z" fill="currentColor"/>
<path d="M61.4396 40.6378C61.4396 40.6992 61.3782 40.6992 61.4396 40.6378C61.5009 40.6992 61.5009 40.6992 61.5009 40.6992C61.5009 40.6378 61.4396 40.6378 61.4396 40.6378Z" fill="currentColor"/>
<path d="M135.553 40.5764C135.615 40.515 135.615 40.515 135.677 40.4536C135.677 40.515 135.677 40.5764 135.677 40.6378L135.553 40.5764Z" fill="currentColor"/>
<path d="M135.493 40.6378C135.493 40.5764 135.553 40.5764 135.553 40.515L135.615 40.5764C135.615 40.6378 135.553 40.6378 135.553 40.6992C135.553 40.6992 135.493 40.6992 135.493 40.6378Z" fill="currentColor"/>
<path d="M136.658 43.7688C136.658 43.7074 136.72 43.7074 136.78 43.646C136.72 43.7074 136.72 43.8302 136.658 43.7688Z" fill="currentColor"/>
<path d="M132.425 32.0429C132.486 32.0429 132.486 32.0429 132.486 32.1043C132.486 32.1043 132.425 32.1043 132.425 32.0429Z" fill="currentColor"/>
<path d="M79.5387 40.515C79.416 40.515 79.3546 40.4536 79.2319 40.4536C79.3546 40.3923 79.4773 40.3923 79.5387 40.515Z" fill="currentColor"/>
<path d="M107.147 25.2897C107.147 23.5093 107.147 21.7289 107.147 19.9486C107.147 18.5365 106.104 17.4929 104.632 17.3088C103.037 17.1245 101.687 17.9227 101.319 19.2733C101.196 19.6416 101.196 20.0714 101.196 20.5012C101.196 23.8777 101.196 27.3157 101.196 30.6923C101.196 31.0606 101.135 31.2447 100.705 31.2447C99.5396 31.1834 98.3126 31.2447 97.1469 31.2447C96.8401 31.2447 96.7175 31.1834 96.7175 30.8764C96.7175 27.3157 96.6561 23.755 96.7788 20.1942C96.8401 18.4752 97.2082 16.7562 98.6808 15.5898C99.7238 14.7303 101.012 14.2392 102.362 13.9321C104.141 13.5025 105.859 13.6866 107.577 14.1778C108.19 14.3619 108.804 14.6688 109.295 15.0986C109.479 15.2214 109.602 15.2214 109.786 15.0986C111.565 13.8708 113.59 13.6252 115.675 13.748C116.657 13.8094 117.639 14.1164 118.559 14.4847C120.584 15.2828 121.627 16.8176 121.995 18.9049C122.118 19.7644 122.178 20.6853 122.178 21.6062C122.178 24.6144 122.178 27.6841 122.178 30.6923C122.178 31.0606 122.056 31.1834 121.688 31.1834C120.952 31.122 120.216 31.2447 119.48 31.122C118.375 30.8764 117.7 30.1398 117.7 28.9733C117.7 26.0878 117.7 23.2024 117.7 20.3169C117.7 18.8436 117.209 18.0455 115.921 17.4929C114.755 17.0018 113.16 17.3088 112.363 18.2296C111.81 18.8436 111.688 19.5802 111.688 20.3169C111.688 23.755 111.688 27.1315 111.688 30.5694C111.688 31.1834 111.688 31.1834 111.074 31.1834C109.97 31.1834 108.804 31.1834 107.7 31.1834C107.332 31.1834 107.27 31.0606 107.27 30.7537C107.147 28.9119 107.147 27.1315 107.147 25.2897Z" fill="currentColor"/>
<path d="M68.9247 22.6499C68.8633 23.448 68.986 24.3075 69.2314 25.1056C69.7835 27.0701 71.6855 28.1138 73.6488 27.5613C74.8145 27.2543 75.428 26.3334 75.8575 25.2897C76.3483 24.0619 76.287 22.7113 76.2256 21.422C76.1643 20.3783 75.8575 19.3347 75.0599 18.5365C74.1396 17.5543 72.9739 17.3088 71.6855 17.6157C70.3358 17.9227 69.5995 18.8436 69.2314 20.0714C68.986 20.8695 68.8633 21.729 68.9247 22.6499ZM68.9247 29.1574C68.9247 31.1834 68.9247 33.2094 68.9247 35.2353C68.9247 36.5246 68.0044 37.4454 66.716 37.4454C66.2251 37.4454 65.7956 37.4454 65.3049 37.4454C64.5072 37.4454 64.5073 37.4454 64.5073 36.6473C64.5073 31.2447 64.5073 25.9037 64.5073 20.5626C64.5073 18.7822 64.998 17.0632 66.4091 15.8353C67.4521 14.9145 68.802 14.3619 70.1517 14.055C72.2991 13.5025 74.3851 13.6252 76.4097 14.4847C78.1276 15.16 79.1706 16.4492 79.7841 18.1069C80.9498 21.2993 80.9498 24.4917 79.5387 27.6227C78.557 29.7714 76.9619 31.1834 74.6305 31.4904C72.4218 31.7359 70.3358 31.2447 68.9247 29.1574Z" fill="currentColor"/>
<path d="M17.8791 23.448C17.8791 23.3252 17.8791 23.141 17.8791 23.0183C17.9404 22.5885 17.7564 22.5271 17.3883 22.7113C16.836 22.9568 16.2839 23.0797 15.7317 23.2638C14.8114 23.5093 13.8912 23.6322 13.0322 24.0005C12.48 24.246 12.1119 24.6144 11.8665 25.1056C11.4983 26.1492 11.8665 27.3157 12.7255 27.7454C14.0139 28.3594 16.1611 27.8068 17.0814 26.7017C17.8177 25.7195 17.8177 24.6144 17.8791 23.448ZM22.0511 21.2379C22.0511 22.7726 22.1124 24.1233 21.9897 25.4739C21.8056 27.7454 20.824 29.5872 18.6767 30.5694C16.1611 31.7359 13.4616 31.9202 10.8235 31.0606C8.73748 30.3853 7.63312 28.7891 7.57178 26.579C7.57178 25.7809 7.57178 25.0442 7.81718 24.246C8.24666 22.6499 9.41236 21.9132 10.8235 21.2993C12.2346 20.6853 13.7684 20.624 15.2409 20.3783C16.0384 20.2556 16.836 20.1328 17.4496 19.5189C18.0631 18.9049 17.9404 17.9841 17.1428 17.6157C15.9157 17.1245 14.6887 17.0018 13.4003 17.4316C13.0322 17.5543 12.664 17.7999 12.48 18.1682C12.3573 18.3524 12.2346 18.4138 12.0505 18.4138C10.8848 18.4138 9.65777 18.4138 8.49207 18.4138C8.1853 18.4138 8.06259 18.3524 8.12394 17.9841C8.55341 16.0809 9.71913 14.7303 11.5598 14.1778C14.3819 13.2568 17.1428 13.3796 19.8424 14.6688C21.1921 15.3441 21.9284 16.5106 22.0511 18.0455C22.1124 19.212 22.0511 20.3169 22.0511 21.2379Z" fill="currentColor"/>
<path d="M59.5376 22.7113C59.5376 21.0536 59.3535 20.01 58.8628 19.212C58.0651 17.7999 57.0835 17.3702 55.9178 17.4316C54.1386 17.5543 53.1569 18.4752 52.7274 20.1942C52.298 22.036 52.4207 23.8777 52.9729 25.7195C53.5864 27.5613 55.4883 28.1137 56.7767 27.7454C58.0038 27.377 58.6787 26.4562 59.0468 25.2897C59.4149 24.3689 59.5376 23.3866 59.5376 22.7113ZM48.1259 22.834C48.1259 20.7467 48.3714 18.9663 49.2303 17.3702C50.396 15.2214 52.1753 14.055 54.568 13.748C55.9791 13.5639 57.329 13.6252 58.6787 13.9935C60.3352 14.4847 61.6236 15.467 62.4826 16.9404C63.771 19.0891 64.0163 21.422 63.8323 23.8777C63.7096 25.2897 63.3415 26.6403 62.6666 27.9296C61.6849 29.71 60.1512 30.7537 58.1265 31.2447C55.7951 31.7359 53.5864 31.4904 51.5004 30.2625C49.8439 29.2802 48.9236 27.7454 48.5555 25.9037C48.3101 24.7986 48.1259 23.6322 48.1259 22.834Z" fill="currentColor"/>
<path d="M130.584 20.8695C131.566 20.8695 132.486 20.8695 133.468 20.8695C133.59 20.8695 133.835 20.9922 133.835 20.6853C133.713 19.703 133.529 18.7208 132.67 18.0455C131.566 17.2474 130.401 17.1859 129.173 17.6771C128.007 18.1682 127.456 19.2119 127.332 20.4398C127.271 20.8081 127.394 20.8695 127.701 20.8695C128.621 20.8695 129.603 20.8695 130.584 20.8695ZM129.173 28.6049C128.559 28.298 127.946 28.0523 127.332 27.8068C127.026 27.6841 126.965 27.7454 127.026 28.1137C127.026 28.2366 127.026 28.4207 126.965 28.5435C126.903 28.8505 127.148 28.9119 127.332 29.0347C128.007 29.3416 128.621 29.6486 129.296 29.8327C129.91 30.017 130.461 30.2011 130.952 30.6923C130.216 30.4467 129.541 30.0784 128.743 30.017C128.989 30.2011 129.296 30.3853 129.541 30.5694C130.032 30.8764 130.461 31.122 130.952 31.3062C131.197 31.3676 131.321 31.3676 131.382 31.0606L131.443 30.9992C131.504 31.122 131.873 31.0606 131.75 31.3676C131.688 31.4904 131.75 31.4904 131.504 31.4904H131.443C129.603 31.6131 127.823 31.429 126.228 30.4467C124.387 29.2802 123.405 27.4999 122.976 25.4125C122.547 23.2638 122.609 21.1151 123.16 19.0277C123.958 16.1423 126.228 14.1778 129.173 13.8094C130.83 13.6252 132.486 13.748 134.02 14.4233C136.475 15.467 137.64 17.4316 138.193 19.9486C138.438 20.9922 138.498 22.0973 138.498 23.2024C138.498 23.8777 138.498 23.8777 137.885 23.8777C134.572 23.8777 131.197 23.8777 127.885 23.8777C127.456 23.8777 127.332 24.0005 127.332 24.4303C127.456 25.6581 127.823 26.7017 128.866 27.4384C128.989 27.4999 129.112 27.6227 129.296 27.6227C129.419 27.7454 129.541 27.9296 129.725 27.991C129.97 28.0523 129.91 28.298 129.848 28.4821C129.786 28.7278 129.603 28.4821 129.479 28.4821C129.234 28.4207 128.989 28.1752 128.743 28.1752C128.743 28.1752 128.743 28.1752 128.683 28.1752C128.683 28.1752 128.683 28.1752 128.743 28.1752C128.743 28.2366 129.234 28.2366 129.173 28.6049Z" fill="currentColor"/>
<path d="M45.3651 19.2733C45.1197 19.2733 44.8743 19.2733 44.6902 19.2733C43.8313 19.3347 43.1564 19.2733 42.5429 18.4138C41.6226 17.0018 38.1868 16.879 37.2665 19.212C36.4076 21.422 36.3462 23.6322 37.2665 25.8423C38.1868 28.0525 41.2544 28.4821 42.911 26.7631C43.4631 26.1492 44.0767 25.9037 44.8743 25.9037C45.7332 25.965 46.5308 25.9037 47.3898 25.9037C47.6965 25.9037 47.8192 25.965 47.6965 26.3334C46.8375 29.0347 44.997 30.6923 42.2974 31.3062C40.7023 31.6745 39.107 31.6745 37.5733 31.1834C35.3032 30.5081 33.8308 28.9733 32.9718 26.7631C32.2355 24.86 32.1743 22.8954 32.3583 20.9309C32.5424 19.1506 33.0331 17.5543 34.1375 16.2037C35.3032 14.7917 36.8371 14.055 38.6163 13.8094C40.2727 13.5639 41.9293 13.748 43.5245 14.3619C45.7332 15.2214 46.8989 16.879 47.5738 19.0277C47.6351 19.2733 47.5738 19.3347 47.3284 19.3347C46.7148 19.2733 46.04 19.2733 45.3651 19.2733Z" fill="currentColor"/>
<path d="M22.6645 26.5176C22.6645 25.167 22.6645 23.8163 22.6645 22.4657C22.7259 20.9309 22.9713 19.4575 23.7076 18.0455C24.7506 16.0196 26.4685 14.9758 28.5544 14.4233C29.6588 14.1164 30.8245 13.9935 31.9288 14.055C32.2357 14.055 32.297 14.1778 32.297 14.4847C32.297 15.7125 32.297 17.0018 32.297 18.2296C32.297 18.598 32.1742 18.6594 31.8675 18.6594C31.1926 18.6594 30.4564 18.6594 29.7815 18.7822C28.125 19.0891 27.2047 20.1328 27.2047 21.9132C27.2047 24.8599 27.2047 27.7454 27.2047 30.6923C27.2047 31.122 27.082 31.2447 26.6525 31.2447C25.4868 31.1834 24.3211 31.2447 23.0941 31.2447C22.7259 31.2447 22.6032 31.122 22.6032 30.7537C22.6645 29.3416 22.6645 27.9296 22.6645 26.5176Z" fill="currentColor"/>
<path d="M81.2566 26.579C81.2566 25.2284 81.2566 23.8777 81.2566 22.5885C81.3179 20.8695 81.5633 19.212 82.4836 17.7385C83.6493 15.7739 85.4285 14.8531 87.5759 14.3619C88.5575 14.1164 89.5392 14.055 90.5209 14.055C90.8276 14.055 90.9503 14.1164 90.9503 14.4233C90.9503 15.7125 90.9503 16.9404 90.9503 18.2296C90.9503 18.5366 90.8276 18.598 90.5209 18.598C89.7846 18.598 89.1097 18.5365 88.3735 18.7208C86.7169 19.0277 85.7966 20.1328 85.7966 21.9746C85.7966 24.8601 85.7966 27.7454 85.7966 30.6308C85.7966 31.0606 85.6739 31.1834 85.2445 31.1834C84.0788 31.122 82.9131 31.1834 81.686 31.1834C81.3178 31.1834 81.1951 31.0606 81.1951 30.6923C81.2565 29.3416 81.2566 27.9296 81.2566 26.579Z" fill="currentColor"/>
<path d="M91.5639 22.6499C91.5639 19.9486 91.5639 17.2474 91.5639 14.5461C91.5639 14.1778 91.6866 14.055 92.0547 14.055C92.8523 14.1164 93.5884 13.9935 94.3861 14.1164C95.4291 14.3619 96.1039 15.16 96.1039 16.2037C96.1039 21.0536 96.1039 25.9037 96.1039 30.7537C96.1039 31.122 96.0427 31.1834 95.6745 31.1834C94.5088 31.1834 93.2817 31.1834 92.116 31.1834C91.7479 31.1834 91.6252 31.0606 91.6252 30.6923C91.5639 28.0525 91.5639 25.3511 91.5639 22.6499Z" fill="currentColor"/>
<path d="M135.002 30.2625C134.695 30.2625 134.45 29.9555 134.142 30.0784C134.326 30.2625 134.572 30.3239 134.757 30.4467C134.695 30.4467 134.572 30.508 134.511 30.508C134.204 30.4467 133.959 30.4467 133.897 30.017C133.897 29.8941 133.775 29.4644 133.345 29.5872C133.222 29.5872 133.039 29.5258 132.977 29.4031L133.039 29.3416C133.039 29.3416 133.039 29.3416 133.099 29.3416L133.039 29.2802C132.915 28.9119 132.608 28.8505 132.302 28.7278C131.873 28.5435 131.504 28.4207 131.197 28.1752C130.952 27.991 130.83 28.0523 130.707 28.298C130.523 28.298 130.461 28.1752 130.339 28.1137C130.461 28.0523 130.584 27.9296 130.646 27.8682C131.812 27.8682 132.793 27.6227 133.529 26.579C133.835 26.1492 134.326 25.965 134.817 25.965C135.86 25.965 136.842 25.965 137.885 25.965C138.008 25.965 138.253 25.9037 138.192 26.2107C137.702 27.9296 136.78 29.4031 135.186 30.3239C135.063 30.2625 135.063 30.2625 135.002 30.2625Z" fill="currentColor"/>
<path d="M93.7726 13.1955C93.159 13.1955 92.5454 13.1955 91.932 13.1955C91.6866 13.1955 91.5639 13.1341 91.5639 12.8272C91.5639 11.9062 91.5639 10.924 91.5639 10.0031C91.5639 9.69618 91.6866 9.63477 91.932 9.63477C92.6068 9.63477 93.2817 9.63477 93.9566 9.63477C95.061 9.63477 95.9812 10.617 95.9812 11.7221C95.9812 12.0904 95.9812 12.4588 95.9812 12.7658C95.9812 13.1341 95.8585 13.1955 95.5518 13.1955C94.9995 13.1955 94.3861 13.1955 93.7726 13.1955Z" fill="currentColor"/>
</svg>
