<svg width="150" height="50" viewBox="0 0 150 50" fill="none" xmlns="http://www.w3.org/2000/svg">
<path d="M96.0635 32.9442V25.8102L93.9395 29.4521L91.5815 29.3262L89.4575 25.8102V32.9442H85.7735V17.9381H89.3915L92.7575 24.5442L96.1235 17.9381H99.7415V32.9442H96.0635Z" fill="currentColor"/>
<path d="M61.0355 32.8122H54.6095V18.0581H60.7235C63.7895 18.0581 65.4275 19.7801 65.4275 22.3241C65.4275 24.0041 64.2695 24.9341 63.8135 25.2461C64.4135 25.6181 65.6375 26.3861 65.6375 28.4561C65.6375 31.2821 63.6695 32.8122 61.0355 32.8122ZM60.5015 21.3102H58.2455V23.7161H60.5015C61.4975 23.7161 61.8095 23.0921 61.8095 22.5161C61.8095 21.9401 61.4915 21.3102 60.5015 21.3102ZM60.6875 26.9681H58.2395V29.5602H60.6875C61.6835 29.5602 62.0135 28.8761 62.0135 28.2521C62.0135 27.6341 61.6775 26.9681 60.6875 26.9681Z" fill="currentColor"/>
<path d="M70.4555 28.3361C70.4555 29.2481 71.1575 30.0762 72.4235 30.0762C73.6055 30.0762 74.1215 29.7461 74.7215 29.1461L76.7555 31.1741C75.6155 32.3141 74.4995 32.9381 72.4235 32.9381C69.9575 32.9381 67.1195 32.0441 67.1195 27.2381C67.1195 23.5901 69.1895 21.5381 72.1115 21.5381C75.3455 21.5381 77.1275 23.9021 77.1275 26.8241V28.3361H70.4555ZM73.5875 25.2102C73.3835 24.7362 72.9275 24.3401 72.1175 24.3401C71.3075 24.3401 70.8515 24.7362 70.6475 25.2102C70.5035 25.4982 70.4615 25.8101 70.4615 26.0801H73.7795C73.7735 25.8101 73.7315 25.4982 73.5875 25.2102Z" fill="currentColor"/>
<path d="M82.5875 32.8122C80.1215 32.8122 79.1255 31.0481 79.1255 29.5181V24.7121H78.1115V22.1021H79.1255V18.9101H82.5215V22.1021H84.2855V24.7121H82.5215V29.2721C82.5215 29.7101 82.7495 29.9561 83.2055 29.9561H84.2855V32.8181H82.5875V32.8122Z" fill="currentColor"/>
<path d="M104.097 28.3361C104.097 29.2481 104.799 30.0762 106.065 30.0762C107.247 30.0762 107.763 29.7461 108.363 29.1461L110.397 31.1741C109.257 32.3141 108.141 32.9381 106.065 32.9381C103.599 32.9381 100.761 32.0441 100.761 27.2381C100.761 23.5901 102.831 21.5381 105.753 21.5381C108.987 21.5381 110.769 23.9021 110.769 26.8241V28.3361H104.097ZM107.229 25.2102C107.025 24.7362 106.569 24.3401 105.759 24.3401C104.949 24.3401 104.493 24.7362 104.289 25.2102C104.145 25.4982 104.103 25.8101 104.103 26.0801H107.421C107.415 25.8101 107.373 25.4982 107.229 25.2102Z" fill="currentColor"/>
<path d="M115.197 28.3361C115.197 29.2481 115.899 30.0762 117.165 30.0762C118.347 30.0762 118.863 29.7461 119.463 29.1461L121.497 31.1741C120.357 32.3141 119.241 32.9381 117.165 32.9381C114.699 32.9381 111.861 32.0441 111.861 27.2381C111.861 23.5901 113.931 21.5381 116.853 21.5381C120.087 21.5381 121.869 23.9021 121.869 26.8241V28.3361H115.197ZM118.329 25.2102C118.125 24.7362 117.669 24.3401 116.859 24.3401C116.049 24.3401 115.593 24.7362 115.389 25.2102C115.245 25.4982 115.203 25.8101 115.203 26.0801H118.521C118.515 25.8101 118.473 25.4982 118.329 25.2102Z" fill="currentColor"/>
<path d="M127.329 32.8122C124.863 32.8122 123.867 31.0481 123.867 29.5181V24.7121H122.853V22.1021H123.867V18.9101H127.263V22.1021H129.027V24.7121H127.263V29.2721C127.263 29.7101 127.491 29.9561 127.947 29.9561H129.027V32.8181H127.329V32.8122Z" fill="currentColor"/>
<path d="M29.8474 32.6622L32.3555 33.2922C34.7015 33.8802 37.0895 32.4521 37.6775 30.1061L39.3875 23.3021C39.9755 20.9561 38.5475 18.5681 36.2015 17.9801L33.6935 17.3501C31.3475 16.7621 28.9595 18.1901 28.3715 20.5361L26.6615 27.3401C26.0735 29.6861 27.5014 32.0742 29.8474 32.6622ZM29.9615 32.1942C29.5235 32.0862 29.1215 31.9001 28.7675 31.6661L29.1155 30.2801C29.2775 29.6321 29.9315 29.2362 30.5675 29.3922L33.2735 30.0701C33.9095 30.2321 34.2935 30.8861 34.1315 31.5341L33.7835 32.9142C33.3515 32.9562 32.9135 32.9262 32.4695 32.8122L29.9615 32.1942ZM36.0815 18.4541C36.5255 18.5621 36.9275 18.7481 37.2875 18.9881L36.9395 20.3681C36.7775 21.0161 36.1235 21.4121 35.4875 21.2561L32.7815 20.5781C32.1455 20.4161 31.7615 19.7621 31.9235 19.1141L32.2715 17.7341C32.6975 17.6921 33.1355 17.7221 33.5735 17.8361L36.0815 18.4541ZM31.7495 17.8061L31.4555 18.9821C31.2275 19.8881 31.7735 20.8121 32.6675 21.0341L35.3735 21.7121C36.2675 21.9401 37.1855 21.3821 37.4135 20.4761L37.7075 19.3001C38.7695 20.2361 39.2855 21.7181 38.9135 23.1761L38.1155 26.3441L35.5235 25.6901C35.7575 24.2981 34.9715 22.9601 33.6935 22.6361C32.4155 22.3121 31.0895 23.1221 30.6335 24.4601L28.0415 23.8061L28.8395 20.6381C29.2115 19.1921 30.3695 18.1301 31.7495 17.8061ZM31.1075 24.5921C31.4915 23.5121 32.5535 22.8641 33.5735 23.1221C34.5995 23.3801 35.2235 24.4541 35.0555 25.5881L31.1075 24.5921ZM34.9355 26.0561C34.5515 27.1361 33.4895 27.7842 32.4695 27.5261C31.4435 27.2682 30.8195 26.1941 30.9935 25.0601L34.9355 26.0561ZM27.9275 24.2921L30.5195 24.9461C30.2855 26.3381 31.0715 27.6761 32.3495 28.0001C33.6335 28.3241 34.9535 27.5141 35.4095 26.1761L38.0015 26.8301L37.2035 29.9981C36.8375 31.4621 35.6795 32.5182 34.3055 32.8422L34.5995 31.6661C34.8275 30.7601 34.2815 29.8361 33.3875 29.6141L30.6815 28.9361C29.7875 28.7081 28.8695 29.2661 28.6415 30.1721L28.3415 31.3541C27.2795 30.4181 26.7575 28.9361 27.1295 27.4721L27.9275 24.2921Z" fill="currentColor"/>
<path d="M25.8275 25.3841C25.4375 25.2881 25.0355 25.5582 24.9275 25.9962C24.8195 26.4282 25.0415 26.8601 25.4315 26.9561C25.8215 27.0521 26.2235 26.7822 26.3315 26.3442C26.4395 25.9122 26.2175 25.4802 25.8275 25.3841Z" fill="currentColor"/>
<path d="M27.7784 20.5997C27.8874 20.1659 27.6606 19.7349 27.2718 19.6372C26.8829 19.5394 26.4793 19.8119 26.3702 20.2457C26.2611 20.6795 26.488 21.1105 26.8768 21.2082C27.2657 21.306 27.6693 21.0335 27.7784 20.5997Z" fill="currentColor"/>
<path d="M39.1475 30.4061C39.5375 30.5021 39.9395 30.2322 40.0475 29.7942C40.1555 29.3622 39.9335 28.9302 39.5435 28.8342C39.1535 28.7381 38.7515 29.0082 38.6435 29.4462C38.5355 29.8782 38.7575 30.3041 39.1475 30.4061Z" fill="currentColor"/>
<path d="M41.492 24.0437C41.6011 23.6099 41.3743 23.1789 40.9854 23.0812C40.5966 22.9834 40.1929 23.2559 40.0839 23.6897C39.9748 24.1235 40.2016 24.5545 40.5905 24.6522C40.9793 24.75 41.383 24.4775 41.492 24.0437Z" fill="currentColor"/>
<path d="M37.4015 12.5981C37.2035 12.5501 37.0055 12.5021 36.8015 12.4661C36.6335 12.4121 36.4595 12.3641 36.2915 12.3221C29.9135 10.7201 23.2535 15.2501 21.4535 22.4201C19.6535 29.5901 23.3735 36.7302 29.7575 38.3322C29.9315 38.3742 30.1054 38.4102 30.2794 38.4462C30.4714 38.5062 30.6695 38.5601 30.8675 38.6081C37.8575 40.3661 45.0155 35.9622 46.8155 28.7922C48.6155 21.6222 44.3975 14.3561 37.4015 12.5981ZM38.9135 35.9622L38.0675 34.3841C39.7895 33.1421 41.2055 31.3481 42.0515 29.1701L42.1415 28.9361L41.9015 28.8581C41.3555 28.6781 41.0555 28.0302 41.2175 27.3942C41.3795 26.7522 41.9495 26.3261 42.5135 26.4221L42.7655 26.4641L42.7955 26.2122C43.0835 23.8962 42.6815 21.6461 41.7515 19.7381L43.2395 18.7481C44.5595 21.4721 44.9555 24.7902 44.1215 28.1262C43.2875 31.4502 41.3675 34.1862 38.9135 35.9622ZM23.7035 24.7301C24.4235 24.7241 25.0954 24.1721 25.2934 23.3801C25.4914 22.5881 25.1615 21.7901 24.5315 21.4361C26.2235 17.3021 30.0875 14.6501 34.0595 14.8901C34.0235 15.6821 34.4975 16.4021 35.2235 16.5821C35.9435 16.7621 36.6994 16.3601 37.0474 15.6401C40.6594 17.3081 42.8075 21.4721 42.3455 25.9122C41.6255 25.9182 40.9535 26.4702 40.7555 27.2622C40.5575 28.0542 40.8875 28.8521 41.5175 29.2061C39.8255 33.3401 35.9615 35.9921 31.9895 35.7521C32.0255 34.9601 31.5514 34.2402 30.8254 34.0602C30.1054 33.8802 29.3495 34.2821 29.0015 35.0021C25.3955 33.3401 23.2415 29.1761 23.7035 24.7301ZM46.7315 24.8501L45.0455 24.4241C45.0335 23.3441 44.9014 22.2941 44.6614 21.2861L46.1855 21.6701C46.4975 22.6901 46.6835 23.7581 46.7315 24.8501ZM43.1915 31.8041L44.8775 32.2302C44.3195 33.1662 43.6475 34.0181 42.8915 34.7741L41.3675 34.3901C42.0575 33.6101 42.6695 32.7461 43.1915 31.8041ZM43.4254 31.3602C43.9174 30.3882 44.3135 29.3441 44.5955 28.2341C44.8775 27.1241 45.0215 26.0141 45.0455 24.9221L46.7434 25.3481C46.7494 26.4401 46.6235 27.5561 46.3415 28.6721C46.0595 29.7821 45.6455 30.8261 45.1235 31.7861L43.4254 31.3602ZM46.0114 21.1241L44.5235 20.7521C43.7795 18.1061 42.2735 15.7961 40.2035 14.2181C42.9395 15.7181 44.9854 18.2081 46.0114 21.1241ZM36.1775 12.7901C39.1895 13.5461 41.5775 15.5981 43.0235 18.3041L41.5294 19.3001C40.5034 17.4281 38.9495 15.9281 37.0055 15.1001L36.7595 14.9981L36.6815 15.2501C36.4835 15.8741 35.8895 16.2581 35.3375 16.1201C34.7855 15.9821 34.4435 15.3641 34.5635 14.7221L34.6114 14.4581L34.3474 14.4341C32.2474 14.2421 30.1655 14.8301 28.3775 15.9941L27.5315 14.4101C30.0875 12.7061 33.1655 12.0341 36.1775 12.7901ZM27.1355 14.6861L27.9815 16.2641C26.2595 17.5061 24.8434 19.3001 23.9974 21.4782L23.9075 21.7121L24.1474 21.7901C24.6934 21.9701 24.9935 22.6181 24.8315 23.2541C24.6695 23.8961 24.0995 24.3162 23.5355 24.2262L23.2835 24.1841L23.2535 24.4361C22.9655 26.7521 23.3674 29.0022 24.2974 30.9102L22.8095 31.9002C21.4895 29.1761 21.0935 25.8581 21.9275 22.5221C22.7615 19.1981 24.6815 16.4621 27.1355 14.6861ZM23.0254 32.3501L24.5195 31.3541C25.5455 33.2261 27.0994 34.7261 29.0434 35.5541L29.2895 35.6561L29.3675 35.4041C29.5655 34.7801 30.1594 34.3962 30.7114 34.5341C31.2634 34.6721 31.6055 35.2902 31.4855 35.9322L31.4375 36.1962L31.7015 36.2201C33.8015 36.4121 35.8835 35.8242 37.6715 34.6602L38.5175 36.2442C35.9615 37.9482 32.8895 38.6202 29.8775 37.8642C26.8595 37.1022 24.4714 35.0562 23.0254 32.3501ZM34.0955 38.5122C36.6635 38.0982 39.0815 36.7782 40.9895 34.7922L42.4775 35.1642C40.1975 37.2522 37.2215 38.4822 34.0955 38.5122Z" fill="currentColor"/>
</svg>
