<svg width="150" height="50" viewBox="0 0 150 50" fill="none" xmlns="http://www.w3.org/2000/svg">
<path d="M14.6776 28.9832C14.0879 29.2324 13.4496 29.3479 12.8114 29.3236C10.2948 29.3236 9 27.6155 9 25.3542C9 22.637 10.7689 21.0991 12.9755 21.0991C13.5895 21.0748 14.2034 21.1963 14.7627 21.4516L14.4283 22.8801C13.9967 22.6856 13.5226 22.5823 13.0484 22.5884C11.7415 22.5884 10.7264 23.4455 10.7264 25.2144C10.7264 26.807 11.5895 27.81 13.0606 27.81C13.5287 27.81 13.9907 27.7188 14.4283 27.5486L14.6776 28.9832Z" fill="currentColor"/>
<path d="M18.3917 29.2081L18.2944 28.6306C17.9357 29.0987 17.3704 29.3601 16.7808 29.3358C15.8447 29.3419 15.0787 28.5881 15.0727 27.652C15.0727 27.6216 15.0727 27.5912 15.0727 27.5669C15.0727 26.0715 16.2884 25.3542 18.1728 25.3603V25.2812C18.1728 24.9712 18.0209 24.5396 17.2124 24.5396C16.6957 24.5457 16.1911 24.6977 15.7535 24.9712L15.4556 23.8163C16.0817 23.4698 16.7869 23.2996 17.5042 23.3117C19.2609 23.3117 19.8262 24.4424 19.8262 25.7979V27.8039C19.8141 28.272 19.8384 28.7401 19.8992 29.2081H18.3917ZM18.1971 26.4848C17.334 26.4848 16.6653 26.6976 16.6653 27.3906C16.6227 27.7249 16.8537 28.0288 17.1881 28.0714C17.2306 28.0775 17.2671 28.0775 17.3096 28.0775C17.7108 28.0714 18.0573 27.7978 18.1667 27.4149C18.185 27.3115 18.1971 27.2082 18.1971 27.1049V26.4848Z" fill="currentColor"/>
<path d="M20.8839 25.342C20.8839 24.491 20.8839 23.9378 20.8413 23.4394H22.2577L22.3124 24.5032H22.3732C22.5252 23.8284 23.1026 23.336 23.7956 23.2874C23.9111 23.2752 24.0266 23.2752 24.1421 23.2874V24.9712C23.9962 24.9408 23.8503 24.9226 23.6984 24.9226C23.1452 24.8922 22.6589 25.2873 22.5738 25.8344C22.5556 25.9681 22.5434 26.1019 22.5434 26.2356V29.1595H20.9021L20.8839 25.342Z" fill="currentColor"/>
<path d="M29.8136 20.8377V27.4878C29.8136 28.1322 29.8136 28.8191 29.8562 29.2081H28.3973L28.3243 28.3571C27.9961 28.9832 27.3335 29.3661 26.6284 29.3358C25.3762 29.3358 24.3732 28.1686 24.3732 26.3754C24.3732 24.4302 25.4734 23.336 26.7378 23.336C27.2849 23.2935 27.8137 23.5366 28.1298 23.9865V20.8377H29.8136ZM28.1724 25.883C28.1785 25.7736 28.1785 25.6703 28.1724 25.5608C28.1055 25.0745 27.7043 24.7037 27.2119 24.6794C26.4703 24.6794 26.0813 25.4089 26.0813 26.3207C26.0813 27.2325 26.525 27.9072 27.1998 27.9072C27.6861 27.8951 28.0934 27.5304 28.1541 27.0501C28.1845 26.9164 28.1967 26.7766 28.1967 26.6368L28.1724 25.883Z" fill="currentColor"/>
<path d="M32.6159 21.8407C32.6342 22.3148 32.2694 22.716 31.7953 22.7343C31.7771 22.7343 31.7527 22.7343 31.7345 22.7343C31.2664 22.7403 30.8835 22.3635 30.8835 21.8954C30.8835 21.8772 30.8835 21.8589 30.8835 21.8407C30.8835 21.3605 31.2725 20.9714 31.7527 20.9714C32.233 20.9714 32.622 21.3605 32.622 21.8407H32.6159ZM30.926 29.2081V23.4394H32.5673V29.2081H30.926Z" fill="currentColor"/>
<path d="M38.8891 26.2599C38.8891 28.3693 37.5214 29.3358 36.1051 29.3358C34.5611 29.3358 33.3757 28.2294 33.3757 26.3633C33.3757 24.4971 34.4942 23.3239 36.1902 23.3239C37.8861 23.3239 38.8891 24.5275 38.8891 26.2599ZM35.0656 26.3207C35.0656 27.3055 35.4486 28.0532 36.1476 28.0532C36.8467 28.0532 37.1932 27.3541 37.1932 26.3207C37.1932 25.4575 36.8953 24.5822 36.1476 24.5822C35.3999 24.5822 35.0656 25.4697 35.0656 26.3207Z" fill="currentColor"/>
<path d="M39.7523 21.3666C40.4757 21.2511 41.2112 21.1964 41.9468 21.2024C42.7795 21.1173 43.6123 21.3301 44.2992 21.8103C44.7612 22.2358 45.0044 22.8437 44.9679 23.4698C44.9801 24.3208 44.4694 25.0989 43.6853 25.4272V25.4636C44.2202 25.7797 44.5789 26.3268 44.6518 26.9468C44.8828 27.8465 45.1077 28.8799 45.2597 29.1899H43.5637C43.3327 28.5942 43.1625 27.9802 43.0409 27.3541C42.8464 26.3633 42.5303 26.0958 41.8617 26.0837H41.3632V29.2081H39.7523V21.3666ZM41.3814 24.7828H42.0319C42.8525 24.7828 43.3388 24.3391 43.3388 23.64C43.3388 22.941 42.8829 22.5458 42.123 22.5337C41.8738 22.5276 41.6246 22.5519 41.3754 22.5945L41.3814 24.7828Z" fill="currentColor"/>
<path d="M47.6972 21.8407C47.7155 22.3148 47.3447 22.716 46.8645 22.7342C46.8462 22.7342 46.828 22.7342 46.8097 22.7342C46.3478 22.7403 45.9648 22.3756 45.9587 21.9075C45.9587 21.8832 45.9587 21.8589 45.9587 21.8407C45.9162 21.3787 46.2566 20.9714 46.7186 20.9289C46.755 20.9289 46.7854 20.9228 46.8219 20.9289C47.296 20.9228 47.6912 21.2997 47.6972 21.7799C47.6972 21.7981 47.6972 21.8164 47.6972 21.8407ZM46.0013 29.2081V23.4394H47.6425V29.2081H46.0013Z" fill="currentColor"/>
<path d="M50.5908 21.792V23.4394H51.7701V24.7645H50.5908V26.8496C50.5908 27.5425 50.7428 27.8647 51.2412 27.8647C51.4054 27.8647 51.5695 27.8465 51.7276 27.8161V29.1777C51.3811 29.2932 51.0224 29.3418 50.6577 29.3297C50.2018 29.3418 49.758 29.1656 49.4419 28.8373C49.0894 28.3388 48.9252 27.731 48.986 27.1231V24.7645H48.2809V23.4394H48.98V22.2236L50.5908 21.792Z" fill="currentColor"/>
<path d="M52.5117 25.2813C52.5117 24.564 52.5117 23.95 52.4691 23.4576H53.849L53.928 24.2357C54.2563 23.6704 54.8702 23.3239 55.5267 23.33C56.1893 23.2874 56.7972 23.6886 57.0221 24.3147C57.1984 24.0412 57.4294 23.8041 57.7029 23.6218C58.0008 23.4272 58.3534 23.3239 58.712 23.3361C59.7211 23.3361 60.4931 24.1141 60.4931 25.8344V29.2324H58.8944V26.0715C58.8944 25.2326 58.6451 24.7524 58.1163 24.7524C57.7576 24.7646 57.4537 25.0138 57.3625 25.3603C57.3139 25.5122 57.2957 25.6642 57.2957 25.8223V29.196H55.6969V25.9742C55.6969 25.2448 55.4599 24.7585 54.9432 24.7585C54.5724 24.7828 54.2684 25.0442 54.1773 25.4028C54.1286 25.5487 54.1043 25.7007 54.1104 25.8527V29.2142H52.5117V25.2813Z" fill="currentColor"/>
<path d="M66.8028 26.2599C66.8028 28.3693 65.4351 29.3358 64.0187 29.3358C62.493 29.3358 61.2772 28.2294 61.2772 26.3633C61.2772 24.4971 62.3957 23.3239 64.0917 23.3239C65.7876 23.3239 66.8028 24.5275 66.8028 26.2599ZM62.9853 26.3207C62.9853 27.3055 63.3622 28.0532 64.0613 28.0532C64.7603 28.0532 65.1068 27.3541 65.1068 26.3207C65.1068 25.4575 64.809 24.5822 64.0613 24.5822C63.3136 24.5822 62.9853 25.4697 62.9853 26.3207Z" fill="currentColor"/>
<path d="M66.6083 30.6123C66.9547 29.5182 67.2161 28.3997 67.3863 27.2629L69.058 27.1414C68.7297 28.3085 68.2738 29.4331 67.7024 30.5029L66.6083 30.6123Z" fill="currentColor"/>
<path d="M73.8116 29.0622C73.3436 29.2506 72.8451 29.3418 72.3406 29.3236C70.6385 29.3236 69.5443 28.1929 69.5443 26.3754C69.4532 24.7889 70.6628 23.4272 72.2433 23.336C72.3588 23.33 72.4682 23.33 72.5837 23.336C73.0092 23.336 73.4347 23.409 73.8359 23.5609L73.5746 24.8922C73.2889 24.7645 72.9728 24.7037 72.6567 24.7159C71.8603 24.722 71.2221 25.3724 71.2282 26.1687C71.2282 26.2234 71.2342 26.2781 71.2403 26.3328C71.1491 27.1231 71.7084 27.8404 72.4986 27.9316C72.5594 27.9376 72.6202 27.9437 72.6871 27.9437C73.0092 27.9498 73.3314 27.889 73.6293 27.7674L73.8116 29.0622Z" fill="currentColor"/>
<path d="M74.3162 28.2537C74.2615 27.7005 74.6627 27.2142 75.2159 27.1595C75.2402 27.1595 75.2645 27.1535 75.2888 27.1535C75.8298 27.1656 76.2675 27.6094 76.2553 28.1564C76.2553 28.1868 76.2553 28.2233 76.2493 28.2537C76.3101 28.7886 75.9271 29.2689 75.3922 29.3296C74.8572 29.3904 74.377 29.0075 74.3162 28.4725C74.3101 28.3996 74.3101 28.3267 74.3162 28.2537Z" fill="currentColor"/>
<path d="M80.0362 29.2081L79.939 28.6306C79.5803 29.0987 79.015 29.3601 78.4254 29.3358C77.4892 29.3419 76.7233 28.582 76.7233 27.6459C76.7233 27.6216 76.7233 27.5912 76.7233 27.5669C76.7233 26.0715 77.939 25.3542 79.8174 25.3603V25.2812C79.8174 24.9712 79.6715 24.5396 78.8569 24.5396C78.3402 24.5457 77.8418 24.6977 77.4041 24.9712L77.1002 23.8163C77.7263 23.4698 78.4314 23.2996 79.1487 23.3117C80.9116 23.3117 81.4708 24.4424 81.4708 25.7979V27.8039C81.4647 28.272 81.489 28.7401 81.5498 29.2081H80.0362ZM79.8417 26.4848C78.9785 26.4848 78.3099 26.6976 78.3099 27.3906C78.2673 27.7249 78.4983 28.0288 78.8326 28.0714C78.8752 28.0775 78.9177 28.0775 78.9603 28.0775C79.3554 28.0653 79.7019 27.7978 79.8113 27.4149C79.8356 27.3115 79.8417 27.2082 79.8417 27.1049V26.4848Z" fill="currentColor"/>
<path d="M9.77207 33.366C10.2645 33.287 10.769 33.2444 11.2674 33.2505C11.8388 33.1897 12.4163 33.3477 12.8783 33.6882C13.4923 34.29 13.4983 35.2747 12.8905 35.8887C12.7628 36.0163 12.6169 36.1197 12.4589 36.1987C12.8297 36.4236 13.0728 36.8065 13.1275 37.2321C13.237 37.7548 13.3707 38.2776 13.5348 38.7882H12.3799C12.2279 38.381 12.1124 37.9615 12.0394 37.5299C11.9057 36.8369 11.6869 36.6485 11.231 36.6424H10.8845V38.8125H9.77207V33.366ZM10.8845 35.7428H11.3282C11.7598 35.8036 12.1549 35.5057 12.2157 35.0741C12.2218 35.0316 12.2218 34.989 12.2218 34.9465C12.2218 34.4419 11.9118 34.1866 11.3951 34.1805C11.2249 34.1805 11.0547 34.1927 10.8845 34.217V35.7428Z" fill="currentColor"/>
<path d="M13.8934 38.1499C13.8509 37.7731 14.1244 37.4327 14.5013 37.3962C14.5195 37.3962 14.5378 37.3901 14.5621 37.3901C14.9815 37.457 15.2672 37.846 15.2003 38.2654C15.1517 38.5937 14.8903 38.8551 14.5621 38.9037C14.1852 38.8976 13.8813 38.5815 13.8873 38.2047C13.8934 38.1803 13.8934 38.1682 13.8934 38.1499Z" fill="currentColor"/>
<path d="M16.9024 33.293V38.8125H15.7961V33.293H16.9024Z" fill="currentColor"/>
<path d="M17.6439 38.1499C17.6014 37.7731 17.8749 37.4327 18.2518 37.3962C18.2701 37.3962 18.2883 37.3901 18.3065 37.3901C18.726 37.457 19.0117 37.846 18.9448 38.2654C18.8962 38.5937 18.6348 38.8551 18.3065 38.9037C17.9297 38.8915 17.6318 38.5755 17.6439 38.1986C17.6439 38.1803 17.6439 38.1621 17.6439 38.1499Z" fill="currentColor"/>
<path d="M19.5405 33.293H22.5799V34.3143H20.6712V35.5786H22.4644V36.5938H20.6712V38.8125H19.5405V33.293Z" fill="currentColor"/>
<path d="M22.5131 38.1499C22.4705 37.7731 22.7441 37.4327 23.1209 37.3962C23.1392 37.3962 23.1574 37.3901 23.1817 37.3901C23.6012 37.457 23.8869 37.846 23.82 38.2654C23.7714 38.5937 23.51 38.8551 23.1817 38.9037C22.8048 38.8976 22.5009 38.5815 22.507 38.2047C22.5131 38.1803 22.5131 38.1682 22.5131 38.1499Z" fill="currentColor"/>
<path d="M24.2941 35.5118C24.3367 35.1471 24.671 34.8857 25.0357 34.9282C25.4005 34.9708 25.6618 35.3051 25.6193 35.6698C25.5767 36.0042 25.291 36.2595 24.9567 36.2595C24.5798 36.2534 24.282 35.9373 24.288 35.5665C24.2941 35.5422 24.2941 35.53 24.2941 35.5118ZM24.2941 38.156C24.3367 37.7913 24.671 37.5299 25.0357 37.5725C25.4005 37.615 25.6618 37.9494 25.6193 38.3141C25.5767 38.6484 25.291 38.9037 24.9567 38.9037C24.5798 38.8916 24.282 38.5755 24.2941 38.1986C24.2941 38.1804 24.2941 38.1682 24.2941 38.156Z" fill="currentColor"/>
<path d="M28.5249 33.293H29.6677V36.7822C29.6677 38.3566 28.9686 38.9037 27.8745 38.9037C27.5948 38.9037 27.3152 38.8612 27.0538 38.77L27.1815 37.767C27.3639 37.8339 27.5584 37.8643 27.7529 37.8643C28.227 37.8643 28.5249 37.6272 28.5249 36.764V33.293Z" fill="currentColor"/>
<path d="M32.0992 36.2473V37.0801H30.1783V36.2473H32.0992Z" fill="currentColor"/>
<path d="M32.7071 37.5907C33.0475 37.7852 33.4304 37.9007 33.8256 37.919C34.4334 37.919 34.707 37.609 34.707 37.2078C34.707 36.685 34.2328 36.4479 33.7344 36.4479H33.2785V35.5543H33.7162C34.093 35.5543 34.5733 35.3902 34.5733 34.9465C34.5733 34.6243 34.3362 34.3872 33.862 34.3872C33.5034 34.4055 33.1569 34.5149 32.859 34.7094L32.6281 33.8097C33.0718 33.5362 33.5885 33.3964 34.1113 33.4025C35.1386 33.4025 35.71 34.0103 35.71 34.7337C35.7161 35.2869 35.3574 35.7853 34.8286 35.9495C35.4486 36.065 35.8923 36.612 35.8741 37.2442C35.8741 38.2168 35.1386 38.9037 33.9228 38.9037C33.4244 38.9159 32.9259 38.7882 32.5004 38.5268L32.7071 37.5907Z" fill="currentColor"/>
<path d="M40.0016 36.1258C40.0016 37.7731 39.3937 38.9037 38.178 38.9037C36.9622 38.9037 36.3543 37.688 36.3543 36.1622C36.3543 34.6365 36.9622 33.3964 38.178 33.3964C39.3937 33.3964 40.0016 34.6486 40.0016 36.1258ZM37.5093 36.1622C37.5093 37.378 37.7707 37.9859 38.2084 37.9859C38.646 37.9859 38.877 37.378 38.877 36.1622C38.877 34.9465 38.6521 34.3386 38.1962 34.3386C37.7403 34.3386 37.5215 34.9222 37.5275 36.1622H37.5093Z" fill="currentColor"/>
<path d="M43.8799 33.4875V34.2778L41.8982 38.8125H40.6825L42.6641 34.527H40.4879V33.4875H43.8799Z" fill="currentColor"/>
<path d="M47.4664 34.375C47.3205 34.3629 47.1746 34.3629 47.0287 34.375C46.2628 34.369 45.6063 34.916 45.4725 35.6698C45.7339 35.3841 46.1169 35.2261 46.5059 35.2565C47.3083 35.2565 47.9892 35.8643 47.9892 36.9889C48.0378 37.9919 47.2658 38.849 46.2567 38.9037C46.2445 38.9037 46.2263 38.9037 46.2142 38.9037C44.9376 38.9037 44.3115 37.846 44.3115 36.5756C44.275 35.7063 44.579 34.8613 45.1565 34.2109C45.6549 33.7185 46.3175 33.445 47.0166 33.4328C47.1685 33.4207 47.3144 33.4207 47.4664 33.4328V34.375ZM46.8585 37.0436C46.8585 36.5512 46.6214 36.1257 46.1412 36.1257C45.8433 36.1379 45.582 36.3202 45.4725 36.5999C45.4422 36.7032 45.4239 36.8065 45.43 36.916C45.43 37.4813 45.6975 37.9858 46.2081 37.9858C46.6032 37.9858 46.8524 37.5846 46.8585 37.0436Z" fill="currentColor"/>
<path d="M51.8065 33.4875V34.2778L49.8249 38.8125H48.6091L50.5908 34.527H48.4146V33.4875H51.8065Z" fill="currentColor"/>
<path d="M53.7578 34.5939L52.846 35.0802L52.6576 34.1441L53.928 33.4875H54.8642V38.8125H53.7578V34.5939Z" fill="currentColor"/>
<path d="M58.2743 38.8125V37.5421H56.1468V36.7336L57.9704 33.4875H59.3442V36.612H59.9521V37.5421H59.3442V38.8125H58.2743ZM58.2743 36.612V35.4327C58.2743 35.1106 58.2743 34.7823 58.3108 34.4419H58.2804C58.1284 34.7823 58.0008 35.0923 57.8367 35.4327L57.1923 36.5938L58.2743 36.612Z" fill="currentColor"/>
<path d="M60.4445 37.5907C60.7849 37.7852 61.1678 37.9007 61.5629 37.9189C62.1708 37.9189 62.4444 37.6089 62.4444 37.2077C62.4444 36.685 61.9702 36.4479 61.4718 36.4479H61.0159V35.5543H61.4535C61.8304 35.5543 62.3106 35.3902 62.3106 34.9464C62.3106 34.6243 62.0736 34.3872 61.5994 34.3872C61.2408 34.4054 60.8943 34.5148 60.5964 34.7094L60.3654 33.8097C60.8213 33.5301 61.3502 33.3842 61.8851 33.3964C62.9124 33.3964 63.4777 34.0042 63.4777 34.7276C63.4899 35.2808 63.1313 35.7792 62.6024 35.9433C63.2164 36.0649 63.6601 36.612 63.6419 37.2381C63.6419 38.1803 62.8942 38.8672 61.6724 38.8672C61.1739 38.8794 60.6754 38.7517 60.2499 38.4903L60.4445 37.5907Z" fill="currentColor"/>
<path d="M66.0612 36.2473V37.0801H64.122V36.2473H66.0612Z" fill="currentColor"/>
<path d="M66.4503 38.8125V38.0588L67.0581 37.4509C68.1098 36.4114 68.6204 35.8096 68.6325 35.1896C68.669 34.7945 68.3772 34.448 67.9821 34.4115C67.9335 34.4054 67.8909 34.4054 67.8423 34.4115C67.4593 34.4358 67.0946 34.5939 66.815 34.8553L66.4989 33.9617C66.9426 33.603 67.5019 33.4085 68.0733 33.4085C68.9304 33.3234 69.6963 33.9495 69.7814 34.8066C69.7875 34.8917 69.7936 34.9829 69.7875 35.068C69.7875 35.9616 69.1796 36.6728 68.511 37.3658L68.0672 37.7731H69.8908V38.7943L66.4503 38.8125Z" fill="currentColor"/>
<path d="M122.083 37.2503L121.974 18.9775L119.773 31.7125H116.819V28.4361L115.111 31.7125H113.828V28.4422L112.12 31.7308H109.549L107.543 37.2503L107.433 18.9775L105.233 31.7125H102.278V28.4361L100.57 31.7125H99.2877V28.4361L97.5856 31.7064L95.0143 31.7247L93.0023 37.2503L92.8928 18.9775L90.6923 31.7125H87.7381V28.4361L86.0299 31.7125H9.27966V31.0499H85.6348L88.4006 25.7432V31.0499H90.1392L93.5129 11.5493L93.6405 33.5605L94.5462 31.0682L97.1844 31.0499L99.9503 25.7432V31.0499H100.175L102.941 25.7432V31.0499H104.68L108.047 11.5493L108.181 33.5605L109.087 31.0682H111.725L114.491 25.7371V31.0499H114.709L117.475 25.7432V31.0499H119.214L122.588 11.5493L122.721 33.5605L123.627 31.0682H126.259L129.031 25.7371V31.0499H129.25L132.016 25.7432V31.0499H133.754L137.128 11.5493L137.262 33.5605L138.167 31.0682H141V31.7308H138.629L136.623 37.2503L136.514 18.9775L134.313 31.7125H131.359V28.4361L129.651 31.7125H128.368V28.4422L126.66 31.7308H124.089L122.083 37.2503Z" fill="currentColor"/>
</svg>
