<svg width="150" height="50" viewBox="0 0 150 50" fill="none" xmlns="http://www.w3.org/2000/svg">
<path d="M39.7954 9.1416V23.2987C39.8327 24.3866 39.7582 25.4745 39.5794 26.5474C39.4452 27.2404 39.2143 27.9035 38.8939 28.5294C37.575 31.2863 34.7659 33.0075 31.711 32.933C29.5278 33.0224 27.4192 32.173 25.8991 30.6083C24.394 28.9988 23.5893 26.8529 23.6638 24.6474C23.6563 23.5893 23.8426 22.5387 24.2077 21.5403C24.5654 20.5567 25.1167 19.6626 25.832 18.9026C26.5474 18.0978 27.4341 17.4645 28.4251 17.0323C29.431 16.6002 30.5113 16.3766 31.6067 16.3766C32.389 16.3692 33.164 16.4661 33.9165 16.6672C34.6467 16.8535 35.3471 17.1292 36.0103 17.4943V20.5493C35.3919 20.0873 34.7063 19.7073 33.9836 19.4316C33.3279 19.1783 32.6275 19.059 31.9271 19.0665C30.4815 19.0367 29.0882 19.6104 28.0972 20.661C27.0541 21.7414 26.5176 23.2019 26.607 24.6995C26.5474 26.1749 27.0615 27.6129 28.0525 28.7082C29.0137 29.7365 30.3698 30.3028 31.7781 30.2581C33.1863 30.2953 34.535 29.729 35.5036 28.7082C36.4797 27.5831 36.9864 26.1301 36.9119 24.6474V9.1416H39.7954Z" fill="currentColor"/>
<path d="M41.673 11.9803C41.6656 11.5184 41.8518 11.0788 42.1797 10.7584C42.8354 10.0729 43.9233 10.0431 44.6162 10.7062C44.6386 10.7211 44.6535 10.7435 44.6684 10.7584C44.9664 11.0639 45.1453 11.4588 45.1751 11.8835V11.9803C45.1751 12.4498 44.9962 12.9043 44.6684 13.247C43.9903 13.9176 42.895 13.9176 42.2169 13.247H42.1797C41.8518 12.9043 41.6656 12.4498 41.673 11.9803ZM42.0009 32.7019V16.5404H44.8845V32.6423H42.0009V32.7019Z" fill="currentColor"/>
<path d="M58.17 20.2959V9H58.9971C60.1967 9 61.3963 9.11921 62.5736 9.35765C63.6093 9.56628 64.6077 9.90903 65.554 10.371C67.4988 11.3471 69.138 12.8448 70.2781 14.7001C72.2302 17.9339 72.5283 21.8979 71.0902 25.3925C70.4718 26.8529 69.5627 28.1643 68.4153 29.2521C63.654 34.006 55.9421 33.9985 51.1883 29.2372C50.0706 28.1121 49.1765 26.7858 48.5655 25.3179C47.947 23.7905 47.6341 22.1661 47.6266 20.5194C47.6117 18.828 47.9694 17.1441 48.6773 15.6091C49.4671 13.9699 50.5624 12.4871 51.8887 11.2353L54.0197 13.3291C52.9318 14.3499 52.0377 15.5644 51.382 16.9056C50.8083 18.0829 50.5177 19.3794 50.5177 20.6908C50.5177 21.5477 50.622 22.3971 50.8381 23.2242C51.0542 23.9916 51.382 24.7219 51.8142 25.3925C52.6338 26.7188 53.7962 27.7992 55.1746 28.5294C58.8108 30.4816 63.2963 29.8855 66.2917 27.0392C67.1262 26.2344 67.7968 25.2807 68.2737 24.2226C68.7282 23.1795 68.9592 22.0544 68.9592 20.9218C69.0039 18.7982 68.229 16.7417 66.7909 15.1844C65.2709 13.5973 63.2367 12.5989 61.0536 12.3679V20.2959H58.17Z" fill="currentColor"/>
<path d="M74.1525 11.9804C74.1525 11.5185 74.3313 11.0788 74.6592 10.7584C75.3447 10.0655 76.4548 10.0655 77.1478 10.751L77.1553 10.7584C77.4682 11.0565 77.6545 11.4738 77.6545 11.9134V11.9804C77.6545 12.4498 77.4757 12.9044 77.1553 13.2471C76.507 13.9252 75.4341 13.955 74.756 13.3067C74.7337 13.2918 74.7188 13.2695 74.6964 13.2471C74.3313 12.9267 74.1301 12.4647 74.1525 11.9804ZM74.4803 32.702V16.5405H77.3714V32.6424H74.4803V32.702Z" fill="currentColor"/>
<path d="M80.0389 12.2859H82.9299V16.5405H87.7955V19.2527H82.9299V26.1375C82.8405 27.1658 83.1758 28.1866 83.8613 28.954C84.7107 29.6097 85.7688 29.9376 86.8418 29.8556H87.7434V32.5976H86.7896C84.5543 32.5976 82.8181 32.091 81.6632 31.1074C80.5083 30.1239 79.9644 28.6187 79.9644 26.5995L80.0389 12.271V12.2859Z" fill="currentColor"/>
<path d="M102.057 32.6795V24.6472C102.131 23.142 101.61 21.6667 100.611 20.5341C99.6801 19.491 98.3315 18.9247 96.9307 18.9843C95.5224 18.9396 94.1663 19.5059 93.2051 20.5341C92.2141 21.6295 91.7 23.0675 91.7596 24.5428C91.6925 26.048 92.229 27.5084 93.2498 28.6186C94.2408 29.6692 95.6267 30.2504 97.0722 30.2057C97.7726 30.2132 98.473 30.0865 99.1287 29.848C99.8365 29.5723 100.507 29.1923 101.118 28.7304V31.83C100.462 32.21 99.7621 32.4857 99.0244 32.6646C98.2942 32.8434 97.5416 32.9403 96.7891 32.9552C96.0291 32.9552 95.2765 32.8359 94.5537 32.5901C93.8161 32.374 93.1231 32.0312 92.4972 31.5767C91.3796 30.8167 90.4631 29.7884 89.8223 28.5963C89.2038 27.3519 88.8834 25.9809 88.8834 24.595C88.794 22.3895 89.5987 20.2361 91.1187 18.6341C92.6313 17.0768 94.7251 16.2349 96.8934 16.2945C98.3761 16.2796 99.8366 16.667 101.118 17.4121C103.011 18.5596 104.337 20.4522 104.762 22.6279C104.911 23.7083 104.978 24.7887 104.978 25.8766V32.6273L102.094 32.6646L102.057 32.6795Z" fill="currentColor"/>
<path d="M106.46 32.6797V9.1416H109.314V32.6797H106.46Z" fill="currentColor"/>
<path d="M111.55 32.6797V9.1416H114.433V32.6797H111.55Z" fill="currentColor"/>
<path d="M91.4838 34.52H92.6015V35.6004H91.4838V34.52ZM91.4838 36.3977H92.6015V40.7268H91.4838V36.3977Z" fill="currentColor"/>
<path d="M95.9543 37.3142C95.8053 37.2471 95.6489 37.195 95.485 37.1652C95.3061 37.1354 95.1273 37.1205 94.9485 37.1279C94.8739 37.1205 94.7994 37.1354 94.7324 37.1652C94.6504 37.1726 94.5759 37.195 94.5089 37.2397C94.4567 37.2769 94.4045 37.3291 94.3673 37.3813C94.33 37.4483 94.3002 37.5228 94.2928 37.5973C94.2928 37.7017 94.3524 37.7985 94.4418 37.8507C94.5461 37.9326 94.6728 37.9997 94.7994 38.037L95.2688 38.1785C95.4402 38.2083 95.6042 38.2828 95.7383 38.3946C95.8798 38.5064 95.9991 38.6405 96.1034 38.7895C96.2002 38.9832 96.2524 39.1919 96.2449 39.408C96.2449 39.6315 96.2002 39.855 96.1034 40.0562C95.9991 40.2276 95.8575 40.3692 95.701 40.4884C95.5296 40.6076 95.3359 40.6896 95.1273 40.7417C94.9037 40.7864 94.6728 40.8088 94.4418 40.8088C94.2257 40.8237 94.0096 40.8237 93.7935 40.8088C93.57 40.779 93.3539 40.7268 93.1378 40.6598L93.2123 39.7209L93.7563 39.937C93.9426 39.9817 94.1363 40.0041 94.33 40.0115C94.4045 40.019 94.479 40.0041 94.5461 39.9743C94.6355 39.9668 94.7175 39.9444 94.7994 39.9072C94.8665 39.8699 94.9261 39.8178 94.9782 39.7582C95.0229 39.6762 95.0453 39.5942 95.0528 39.5048C95.0602 39.3782 95.0081 39.2589 94.9112 39.1844C94.7994 39.1025 94.6802 39.0354 94.5461 38.9982C94.4045 38.9982 94.263 38.8938 94.0767 38.8566C93.9053 38.8193 93.7414 38.7448 93.6073 38.6405C93.4731 38.5362 93.3539 38.417 93.2496 38.2829C93.1453 38.0966 93.1006 37.8805 93.108 37.6644C93.1006 37.4483 93.1453 37.2397 93.2496 37.0534C93.3316 36.882 93.4508 36.733 93.6073 36.6213C93.7786 36.5244 93.9649 36.435 94.1512 36.3679C94.3673 36.3232 94.5833 36.3009 94.7994 36.2934C95.0304 36.2785 95.254 36.2785 95.485 36.2934L96.0289 36.4052L95.9543 37.3142Z" fill="currentColor"/>
<path d="M98.6294 36.3608H99.7098V36.9718C99.829 36.7632 100.008 36.5843 100.216 36.4651C100.47 36.3235 100.753 36.249 101.044 36.249C101.342 36.2565 101.632 36.3161 101.908 36.4278C102.146 36.5396 102.34 36.7184 102.489 36.9345C102.638 37.1655 102.742 37.4188 102.817 37.6796C102.958 38.2534 102.958 38.842 102.817 39.4157C102.742 39.6765 102.631 39.9299 102.489 40.1609C102.161 40.6228 101.61 40.8836 101.044 40.8464C100.813 40.8464 100.582 40.8166 100.358 40.742C100.12 40.6377 99.911 40.4738 99.747 40.2726V42.5303H98.6294V36.3608ZM100.284 37.2624C100.149 37.3443 100.045 37.4486 99.9631 37.5828C99.8886 37.7243 99.829 37.8734 99.7843 38.0224C99.7694 38.1789 99.7694 38.3279 99.7843 38.4844C99.7843 38.6334 99.7843 38.8122 99.7843 38.9538C99.8066 39.1177 99.8737 39.2816 99.9631 39.4232C100.038 39.5648 100.149 39.6914 100.284 39.7883C100.418 39.8852 100.582 39.9373 100.753 39.9299C100.924 39.9373 101.088 39.8852 101.222 39.7883C101.342 39.684 101.438 39.5573 101.513 39.4232C101.587 39.2742 101.64 39.1177 101.662 38.9538C101.677 38.7973 101.677 38.6408 101.662 38.4844C101.677 38.3279 101.677 38.1789 101.662 38.0224C101.632 37.8659 101.587 37.7243 101.513 37.5828C101.446 37.4486 101.349 37.3443 101.222 37.2624C101.088 37.1581 100.924 37.1059 100.753 37.1133C100.589 37.1431 100.433 37.1953 100.284 37.2624Z" fill="currentColor"/>
<path d="M103.249 37.6197C103.346 37.3366 103.503 37.0832 103.719 36.8746C103.942 36.6883 104.196 36.5244 104.464 36.4052C104.747 36.2859 105.06 36.2338 105.365 36.2636C105.671 36.2561 105.976 36.3083 106.267 36.4052C106.543 36.5095 106.796 36.6734 107.012 36.8746C107.221 37.0832 107.385 37.3366 107.482 37.6197C107.593 37.9326 107.653 38.2605 107.66 38.5958C107.668 38.8938 107.616 39.1844 107.511 39.4601C107.31 40.0115 106.878 40.4437 106.327 40.6523C105.708 40.8684 105.03 40.8684 104.412 40.6523C103.868 40.4437 103.45 40.0115 103.257 39.4601C103.152 39.1844 103.1 38.8938 103.108 38.5958C103.07 38.2605 103.123 37.9252 103.249 37.6197ZM104.292 38.9907C104.352 39.3186 104.531 39.6166 104.799 39.8252C104.963 39.9221 105.149 39.9742 105.343 39.9668C105.529 39.9668 105.716 39.9221 105.88 39.8252C106.029 39.7433 106.14 39.6166 106.207 39.4601C106.282 39.3111 106.341 39.1546 106.386 38.9907C106.416 38.8119 106.431 38.633 106.423 38.4542C106.423 38.2977 106.394 38.1338 106.349 37.9848C106.312 37.8358 106.237 37.6942 106.133 37.5824C106.029 37.4707 105.909 37.3738 105.775 37.2993C105.626 37.2248 105.47 37.1875 105.306 37.1875C105.142 37.1875 104.985 37.2322 104.844 37.3142C104.71 37.3813 104.598 37.4781 104.516 37.5973C104.419 37.7315 104.345 37.8805 104.3 38.037C104.255 38.186 104.233 38.3425 104.225 38.4989C104.233 38.6629 104.255 38.8268 104.292 38.9907Z" fill="currentColor"/>
<path d="M110.685 37.3145C110.536 37.2474 110.38 37.2027 110.216 37.1654C110.037 37.1356 109.851 37.1207 109.672 37.1282C109.597 37.1207 109.523 37.1356 109.456 37.1654C109.381 37.1729 109.307 37.1952 109.24 37.2399C109.18 37.2772 109.128 37.3219 109.091 37.3815C109.053 37.4486 109.031 37.5231 109.024 37.5976C109.009 37.7019 109.068 37.8062 109.165 37.8509C109.277 37.9329 109.396 38 109.53 38.0372L109.963 38.1788C110.134 38.216 110.298 38.2906 110.432 38.3949C110.574 38.5141 110.7 38.6482 110.805 38.8047C110.909 38.991 110.954 39.207 110.946 39.4231C110.954 39.6467 110.901 39.8702 110.805 40.0714C110.7 40.2353 110.566 40.3843 110.41 40.5035C110.231 40.6228 110.037 40.7047 109.828 40.7569C109.605 40.8016 109.374 40.8239 109.143 40.8239C108.927 40.8165 108.711 40.7941 108.495 40.7569C108.279 40.7271 108.055 40.6749 107.846 40.6079L107.921 39.669L108.457 39.8926C108.651 39.9298 108.845 39.9522 109.039 39.9596C109.113 39.9745 109.18 39.9745 109.255 39.9596C109.344 39.9522 109.426 39.9298 109.508 39.8926C109.575 39.8478 109.635 39.8031 109.687 39.7435C109.732 39.669 109.754 39.5796 109.761 39.4902C109.769 39.3635 109.709 39.2443 109.612 39.1698C109.508 39.0878 109.389 39.0282 109.255 38.991C109.106 38.991 108.964 38.8792 108.785 38.8419C108.614 38.8121 108.45 38.7376 108.316 38.6259C108.174 38.529 108.055 38.4023 107.951 38.2682C107.854 38.0745 107.802 37.8658 107.809 37.6498C107.802 37.4337 107.854 37.225 107.951 37.0388C108.033 36.8599 108.159 36.7109 108.316 36.6066C108.487 36.5097 108.666 36.4203 108.852 36.3533C109.068 36.3086 109.284 36.2862 109.508 36.2788C109.739 36.2639 109.963 36.2639 110.194 36.2788L110.73 36.3905L110.685 37.3145Z" fill="currentColor"/>
<path d="M113.964 37.3142C113.815 37.2471 113.658 37.195 113.494 37.1652C113.316 37.1354 113.137 37.1205 112.958 37.1279C112.883 37.1205 112.809 37.1354 112.742 37.1652C112.667 37.1726 112.593 37.195 112.526 37.2397C112.466 37.2769 112.414 37.3217 112.377 37.3813C112.34 37.4483 112.317 37.5228 112.31 37.5973C112.295 37.7017 112.347 37.8134 112.451 37.8507C112.556 37.9326 112.682 37.9997 112.809 38.037L113.278 38.1785C113.45 38.2083 113.614 38.2828 113.748 38.3946C113.889 38.5064 114.009 38.6405 114.113 38.7895C114.21 38.9832 114.262 39.1919 114.254 39.408C114.254 39.6315 114.21 39.855 114.113 40.0562C114.009 40.2276 113.867 40.3692 113.711 40.4884C113.539 40.6076 113.345 40.6896 113.137 40.7417C112.913 40.7864 112.682 40.8088 112.451 40.8088C112.235 40.8237 112.019 40.8237 111.803 40.8088C111.587 40.779 111.363 40.7268 111.155 40.6598L111.222 39.7209L111.766 39.937C111.952 39.9817 112.146 40.0041 112.34 40.0115C112.414 40.019 112.489 40.0041 112.556 39.9743C112.645 39.9668 112.727 39.9444 112.809 39.9072C112.876 39.8699 112.943 39.8178 112.995 39.7582C113.032 39.6762 113.055 39.5942 113.062 39.5048C113.07 39.3782 113.018 39.2589 112.921 39.1844C112.809 39.1025 112.69 39.0354 112.556 38.9982C112.414 38.9982 112.272 38.8938 112.086 38.8566C111.915 38.8193 111.751 38.7448 111.617 38.6405C111.483 38.5362 111.363 38.417 111.259 38.2829C111.162 38.0891 111.11 37.8805 111.118 37.6644C111.11 37.4483 111.162 37.2397 111.259 37.0534C111.341 36.882 111.46 36.733 111.617 36.6213C111.788 36.5244 111.974 36.435 112.161 36.3679C112.377 36.3232 112.593 36.3009 112.809 36.2934C113.04 36.2785 113.263 36.2785 113.494 36.2934L114.038 36.4052L113.964 37.3142Z" fill="currentColor"/>
<path d="M114.761 34.52H115.879V35.6004H114.761V34.52ZM114.761 36.3977H115.879V40.7268H114.761V36.3977Z" fill="currentColor"/>
<path d="M116.639 34.3711H117.756V36.897C117.905 36.7033 118.092 36.5468 118.3 36.4276C118.531 36.3158 118.785 36.2562 119.045 36.2488C119.343 36.2562 119.641 36.3158 119.917 36.4276C120.148 36.5468 120.342 36.7182 120.491 36.9343C120.64 37.1653 120.744 37.4186 120.819 37.6794C120.96 38.2531 120.96 38.8418 120.819 39.4155C120.744 39.6763 120.632 39.9296 120.491 40.1606C120.357 40.3841 120.156 40.563 119.917 40.6673C119.656 40.8238 119.351 40.8834 119.045 40.8461C118.792 40.861 118.531 40.8089 118.3 40.7045C118.047 40.6077 117.831 40.4288 117.689 40.1979V40.7418H116.609V34.3711H116.639ZM117.831 39.028C117.853 39.1994 117.913 39.3559 118.01 39.4975C118.092 39.639 118.196 39.7657 118.33 39.8626C118.464 39.9594 118.628 40.0116 118.799 40.0041C118.971 40.0116 119.135 39.9594 119.269 39.8626C119.381 39.7582 119.485 39.6316 119.559 39.4975C119.634 39.3484 119.679 39.192 119.708 39.028C119.723 38.8716 119.723 38.7151 119.708 38.5586C119.723 38.4021 119.723 38.2457 119.708 38.0892C119.679 37.9402 119.627 37.7912 119.559 37.657C119.492 37.5229 119.388 37.4112 119.269 37.3292C119.135 37.2323 118.971 37.1802 118.799 37.1876C118.628 37.1802 118.464 37.2323 118.33 37.3292C118.203 37.4112 118.092 37.5229 118.01 37.657C117.928 37.7912 117.868 37.9402 117.831 38.0892C117.801 38.2457 117.786 38.4021 117.794 38.5586C117.786 38.7151 117.794 38.8716 117.831 39.028Z" fill="currentColor"/>
<path d="M121.4 34.3711H122.518V40.6896H121.4V34.3711Z" fill="currentColor"/>
<path d="M126.78 40.4734C126.564 40.5926 126.333 40.682 126.094 40.7267C125.819 40.7937 125.543 40.831 125.26 40.831C124.641 40.8608 124.038 40.6596 123.568 40.2573C123.136 39.8176 122.92 39.2067 122.987 38.5957C122.98 38.2902 123.032 37.9847 123.136 37.6941C123.196 37.4258 123.323 37.165 123.494 36.949C123.665 36.7403 123.866 36.569 124.105 36.4423C124.388 36.3082 124.701 36.2486 125.014 36.2635C125.364 36.2635 125.707 36.338 126.02 36.4796C126.273 36.6062 126.497 36.7925 126.668 37.0235C126.847 37.2694 126.959 37.5525 126.996 37.8506C127.07 38.1933 127.108 38.551 127.108 38.9012H124.127C124.135 39.2141 124.269 39.5122 124.492 39.7282C124.746 39.9145 125.044 40.0114 125.357 40.0188C125.61 40.0188 125.863 39.9741 126.102 39.8698C126.34 39.7879 126.564 39.6984 126.787 39.5867V40.451L126.78 40.4734ZM126.035 38.1262C126.027 37.9921 126.005 37.858 125.968 37.7313C125.923 37.6121 125.856 37.5078 125.781 37.4035C125.714 37.3066 125.61 37.2247 125.498 37.1874C125.372 37.1278 125.237 37.098 125.096 37.1129C124.813 37.0756 124.53 37.18 124.351 37.4035C124.187 37.6196 124.083 37.8804 124.068 38.1486L126.035 38.1262Z" fill="currentColor"/>
</svg>
