<svg width="150" height="50" viewBox="0 0 150 50" fill="none" xmlns="http://www.w3.org/2000/svg">
<path d="M57.1019 41.6157C57.1021 41.6845 57.0881 41.7526 57.0606 41.8156C57.0332 41.8787 56.993 41.9354 56.9426 41.9821C56.8922 42.0288 56.8326 42.0646 56.7676 42.0872C56.7027 42.1097 56.6338 42.1186 56.5652 42.1131C56.4679 42.1061 56.3748 42.0708 56.2972 42.0116C56.2197 41.9523 56.1612 41.8717 56.1288 41.7797C56.0965 41.6876 56.0918 41.5881 56.1152 41.4934C56.1387 41.3987 56.1893 41.3129 56.2609 41.2466C56.3325 41.1802 56.4218 41.1363 56.5181 41.12C56.6143 41.1038 56.7131 41.1161 56.8025 41.1553C56.8918 41.1945 56.9677 41.259 57.0209 41.3408C57.0741 41.4226 57.1023 41.5182 57.1019 41.6157ZM56.0744 45.7094V42.4927H57.0724V45.6996L56.0744 45.7094Z" fill="currentColor"/>
<path d="M57.8709 43.5268C57.8709 43.1276 57.8709 42.7905 57.8447 42.5025H58.6857L58.7282 42.9378H58.7479C58.8534 42.7753 58.9994 42.6431 59.1715 42.5541C59.3437 42.4652 59.536 42.4226 59.7296 42.4306C59.9145 42.4213 60.0978 42.469 60.2546 42.5673C60.4115 42.6657 60.5344 42.8098 60.6066 42.9803C60.7154 42.8221 60.8572 42.6892 61.0222 42.5909C61.2059 42.4813 61.4169 42.4258 61.6308 42.4306C62.2427 42.4306 62.7107 42.8658 62.7107 43.8213V45.7094H61.729V43.9686C61.729 43.5039 61.5817 43.2356 61.2578 43.2356C61.1546 43.2379 61.0549 43.2727 60.9726 43.3349C60.8904 43.3972 60.8299 43.4838 60.7996 43.5824C60.776 43.6643 60.7639 43.7491 60.7636 43.8344V45.7094H59.7819V43.9129C59.7819 43.5072 59.638 43.2356 59.3205 43.2356C59.2155 43.2404 59.1145 43.2771 59.0309 43.3408C58.9473 43.4046 58.8851 43.4923 58.8526 43.5922C58.8261 43.6735 58.8139 43.7588 58.8166 43.8442V45.7094H57.8349L57.8709 43.5268Z" fill="currentColor"/>
<path d="M63.5026 43.5824C63.5026 43.1603 63.5026 42.8036 63.4764 42.5026H64.3403L64.3861 42.9509C64.5068 42.7816 64.668 42.6453 64.8549 42.5544C65.0418 42.4635 65.2486 42.4209 65.4562 42.4306C66.1565 42.4306 66.7848 43.0425 66.7848 44.0667C66.7848 45.235 66.0419 45.7847 65.3286 45.7847C65.1707 45.7951 65.0128 45.7672 64.868 45.7034C64.7233 45.6396 64.5962 45.5417 64.4974 45.4182V47.0086H63.5157L63.5026 43.5824ZM64.4843 44.3383C64.4839 44.4075 64.4904 44.4766 64.5039 44.5445C64.5334 44.6776 64.607 44.7969 64.7127 44.883C64.8184 44.9691 64.9501 45.017 65.0864 45.019C65.5184 45.019 65.7736 44.6558 65.7736 44.1093C65.7736 43.5628 65.5478 43.2127 65.1028 43.2127C64.9611 43.2167 64.8249 43.2687 64.7167 43.3603C64.6085 43.4519 64.5346 43.5775 64.5072 43.7166C64.493 43.7744 64.4853 43.8337 64.4843 43.8933V44.3383Z" fill="currentColor"/>
<path d="M67.4163 41.0594H68.4144V45.7094H67.4163V41.0594Z" fill="currentColor"/>
<path d="M69.9851 44.4267C70.0178 44.839 70.4236 45.0353 70.8883 45.0353C71.1883 45.0412 71.4871 44.9958 71.7718 44.9012L71.906 45.5753C71.5352 45.7162 71.1409 45.785 70.7443 45.7782C69.6612 45.7782 69.0361 45.1466 69.0361 44.142C69.0361 43.3272 69.5434 42.4273 70.6527 42.4273C71.69 42.4273 72.0827 43.2356 72.0827 44.0275C72.0837 44.1603 72.0716 44.2929 72.0467 44.4234L69.9851 44.4267ZM71.1566 43.7428C71.1672 43.6623 71.1607 43.5804 71.1376 43.5026C71.1145 43.4248 71.0753 43.3526 71.0226 43.2909C70.9698 43.2292 70.9047 43.1793 70.8314 43.1444C70.758 43.1095 70.6782 43.0904 70.597 43.0883C70.4298 43.0975 70.2724 43.1705 70.1574 43.2923C70.0423 43.414 69.9783 43.5753 69.9786 43.7428H71.1566Z" fill="currentColor"/>
<path d="M72.6783 43.5268C72.6783 43.1276 72.6783 42.7905 72.6521 42.5025H73.5029L73.5454 42.9378H73.5651C73.6706 42.7753 73.8166 42.6431 73.9887 42.5541C74.1609 42.4652 74.3532 42.4226 74.5468 42.4306C74.7317 42.4213 74.915 42.469 75.0718 42.5673C75.2287 42.6657 75.3515 42.8098 75.4237 42.9803C75.532 42.8216 75.6739 42.6886 75.8393 42.5909C76.0231 42.4813 76.2341 42.4258 76.448 42.4306C77.0599 42.4306 77.5279 42.8658 77.5279 43.8213V45.7094H76.5462V43.9686C76.5462 43.5039 76.3989 43.2356 76.0749 43.2356C75.9718 43.2379 75.8721 43.2727 75.7898 43.3349C75.7076 43.3972 75.647 43.4838 75.6168 43.5824C75.5932 43.6643 75.5811 43.7491 75.5808 43.8344V45.7094H74.5991V43.9129C74.5991 43.5072 74.4551 43.2356 74.1377 43.2356C74.0326 43.2399 73.9313 43.2765 73.8476 43.3403C73.7639 43.4041 73.7019 43.492 73.6698 43.5922C73.6432 43.6735 73.6311 43.7588 73.6338 43.8442V45.7094H72.6521L72.6783 43.5268Z" fill="currentColor"/>
<path d="M79.0659 44.4267C79.0953 44.839 79.5044 45.0353 79.969 45.0353C80.269 45.0409 80.5678 44.9956 80.8526 44.9012L80.9867 45.5753C80.6159 45.7159 80.2216 45.7847 79.8251 45.7782C78.7386 45.7782 78.1169 45.1466 78.1169 44.142C78.1169 43.3272 78.6241 42.4273 79.7302 42.4273C80.7708 42.4273 81.1634 43.2356 81.1634 44.0275C81.1644 44.1603 81.1524 44.2929 81.1274 44.4234L79.0659 44.4267ZM80.2374 43.7428C80.2479 43.6623 80.2415 43.5804 80.2184 43.5026C80.1953 43.4248 80.1561 43.3526 80.1033 43.2909C80.0506 43.2292 79.9854 43.1793 79.9121 43.1444C79.8388 43.1095 79.759 43.0904 79.6778 43.0883C79.5105 43.0975 79.3532 43.1705 79.2381 43.2923C79.1231 43.414 79.0591 43.5753 79.0593 43.7428H80.2374Z" fill="currentColor"/>
<path d="M81.7656 43.5268C81.7656 43.1276 81.7656 42.7905 81.7394 42.5026H82.6033L82.6491 42.9476H82.6655C82.7728 42.7862 82.9189 42.6542 83.0904 42.5639C83.2619 42.4736 83.4533 42.4277 83.6472 42.4306C84.3016 42.4306 84.7958 42.8691 84.7958 43.8115V45.7094H83.8108V43.9326C83.8108 43.5202 83.6635 43.2356 83.3036 43.2356C83.1907 43.2373 83.0812 43.2746 82.9907 43.3422C82.9002 43.4097 82.8333 43.5041 82.7996 43.6119C82.7727 43.6919 82.7605 43.7762 82.7636 43.8606V45.7094H81.7656V43.5268Z" fill="currentColor"/>
<path d="M86.6773 41.5896V42.4927H87.394V43.229H86.6773V44.3907C86.6773 44.7768 86.7722 44.9535 87.07 44.9535C87.169 44.9549 87.2678 44.945 87.3645 44.9241V45.6833C87.1521 45.7452 86.9313 45.7739 86.7101 45.7683C86.573 45.7738 86.4362 45.7521 86.3075 45.7043C86.1789 45.6566 86.061 45.5838 85.9607 45.4902C85.7478 45.2211 85.6491 44.8791 85.6858 44.5379V43.229H85.2833V42.4927H85.7087V41.8055L86.6773 41.5896Z" fill="currentColor"/>
<path d="M91.095 44.0733C91.1102 44.2998 91.0771 44.527 90.9979 44.7398C90.9186 44.9526 90.7951 45.1462 90.6355 45.3077C90.4759 45.4692 90.2837 45.5949 90.0719 45.6766C89.86 45.7582 89.6332 45.794 89.4065 45.7814C89.1864 45.7932 88.9662 45.7586 88.7604 45.6797C88.5546 45.6008 88.3676 45.4795 88.2117 45.3236C88.0559 45.1678 87.9346 44.9808 87.8557 44.775C87.7768 44.5692 87.7421 44.349 87.7539 44.1289C87.7393 43.901 87.7737 43.6725 87.8547 43.459C87.9358 43.2454 88.0616 43.0517 88.2237 42.8908C88.3858 42.7299 88.5805 42.6056 88.7947 42.5262C89.0089 42.4468 89.2376 42.4142 89.4654 42.4306C89.6833 42.4201 89.9009 42.4556 90.1042 42.5346C90.3075 42.6137 90.492 42.7345 90.6456 42.8894C90.7992 43.0443 90.9186 43.2297 90.996 43.4336C91.0735 43.6376 91.1072 43.8555 91.095 44.0733ZM88.7782 44.106C88.7782 44.6525 89.0105 45.0681 89.4327 45.0681C89.8548 45.0681 90.0675 44.6787 90.0675 44.1027C90.0675 43.6282 89.8842 43.1439 89.4327 43.1439C88.9811 43.1439 88.7782 43.6315 88.7782 44.106Z" fill="currentColor"/>
<path d="M91.7102 44.839C91.9719 44.9853 92.2647 45.0672 92.5643 45.0779C92.8654 45.0779 92.993 44.9764 92.993 44.8128C92.993 44.6492 92.8915 44.5674 92.525 44.443C91.8706 44.2238 91.6055 43.8606 91.6088 43.4842C91.6088 42.8854 92.1193 42.4306 92.9177 42.4306C93.2277 42.426 93.5349 42.4897 93.8176 42.6171L93.6442 43.3043C93.4291 43.1937 93.1921 43.1323 92.9504 43.1243C92.7083 43.1243 92.5676 43.2192 92.5676 43.3828C92.5676 43.5464 92.6952 43.6151 93.0879 43.7526C93.6965 43.9587 93.9518 44.2696 93.955 44.7343C93.955 45.3331 93.4904 45.7749 92.5708 45.7749C92.2121 45.7819 91.8568 45.7046 91.5335 45.5491L91.7102 44.839Z" fill="currentColor"/>
<path d="M56.935 30.7123L60.6098 11.3727H66.3037L62.6223 30.7123H56.935ZM60.5935 7.08923C60.5885 6.54511 60.693 6.00555 60.9006 5.50258C61.1082 4.99962 61.4148 4.54351 61.8022 4.16135C62.1895 3.77919 62.6497 3.47877 63.1555 3.27793C63.6612 3.0771 64.2021 2.97995 64.7461 2.99225C66.8731 2.99225 68.3817 4.39281 68.3817 6.55256C68.3653 9.1279 66.4183 10.6299 64.1047 10.6299C62.066 10.6234 60.5837 9.22934 60.5935 7.08268V7.08923Z" fill="currentColor"/>
<path d="M64.4876 30.7123L66.8044 17.672C67.2527 15.2243 67.5407 13.1071 67.7861 11.3727H72.495L72.1678 14.524H72.1939C73.9021 12.0239 76.1764 10.9244 78.5652 10.9244C81.5299 10.9244 82.8193 12.8878 82.9731 14.5862C84.6452 12.0861 86.9882 10.9375 89.3934 10.9244C92.2698 10.9244 93.9387 12.8486 93.9387 16.1209C93.9058 17.2353 93.7965 18.3462 93.6114 19.4456L91.612 30.7123H86.3043L88.1794 20.1492C88.3285 19.3754 88.4128 18.5906 88.4313 17.8029C88.4313 16.4547 87.8718 15.5122 86.5923 15.5122C84.7663 15.5122 82.9403 18.0581 82.2466 21.9555L80.6661 30.7123H75.3878L77.3053 20.087C77.4491 19.3589 77.5312 18.62 77.5508 17.8781C77.5508 16.5692 77.1417 15.5122 75.787 15.5122C73.9381 15.5122 71.9911 18.2087 71.3268 22.0144L69.7953 30.7123H64.4876Z" fill="currentColor"/>
<path d="M62.426 32.2994H67.0858L66.6277 32.9538H63.712L63.3848 33.4512H66.091L65.6525 34.1057H62.9496L62.5274 34.7242H65.5282L65.0439 35.4343H60.299L62.426 32.2994Z" fill="currentColor"/>
<path d="M68.097 32.2994H70.9865C71.618 32.2994 72.0303 32.3845 72.2299 32.5513C72.4296 32.7182 72.423 32.9538 72.2136 33.2647C71.9572 33.6094 71.6024 33.8684 71.1959 34.0075C70.634 34.2001 70.0421 34.2898 69.4484 34.2726H68.4962L67.7043 35.4376H65.9569L68.097 32.2994ZM68.9314 33.6378H69.3568C69.6179 33.6482 69.8789 33.615 70.1291 33.5396C70.2763 33.4975 70.4067 33.4106 70.5021 33.2909C70.5188 33.2747 70.532 33.2554 70.541 33.234C70.55 33.2127 70.5547 33.1897 70.5547 33.1665C70.5547 33.1434 70.55 33.1204 70.541 33.099C70.532 33.0777 70.5188 33.0584 70.5021 33.0422C70.3187 32.9481 70.1111 32.9116 69.9066 32.9375H69.4125L68.9314 33.6378Z" fill="currentColor"/>
<path d="M73.2149 32.2994H75.1391L75.5481 33.3596L77.4068 32.2994H79.3277L75.895 34.1221L74.9983 35.431H73.2575L74.1541 34.1221L73.2149 32.2994Z" fill="currentColor"/>
<path d="M77.8191 34.4002L79.5142 34.3413C79.4798 34.3914 79.4601 34.4501 79.4572 34.5108C79.4543 34.5715 79.4684 34.6318 79.4978 34.6849C79.5894 34.8125 79.8021 34.8747 80.1359 34.8747C80.3582 34.8818 80.5799 34.8485 80.7904 34.7765C80.929 34.7382 81.0532 34.6597 81.1471 34.5508C81.1608 34.5346 81.1706 34.5156 81.176 34.4951C81.1813 34.4747 81.1819 34.4533 81.1779 34.4325C81.1738 34.4118 81.1651 34.3922 81.1524 34.3753C81.1397 34.3583 81.1233 34.3445 81.1045 34.3348C80.863 34.2264 80.6033 34.1643 80.3388 34.1515C79.8602 34.1224 79.3931 33.9931 78.9677 33.7719C78.9174 33.7417 78.8745 33.7005 78.8424 33.6513C78.8102 33.6022 78.7896 33.5465 78.7821 33.4882C78.7745 33.43 78.7802 33.3708 78.7988 33.3151C78.8173 33.2594 78.8482 33.2086 78.8892 33.1665C79.0383 32.9718 79.2311 32.8149 79.452 32.7084C79.7619 32.553 80.0925 32.4429 80.4337 32.3812C80.917 32.2907 81.4081 32.249 81.8997 32.2568C82.4074 32.221 82.9168 32.2969 83.3919 32.4794C83.6668 32.6299 83.7191 32.8655 83.5784 33.1927L81.903 33.2451C81.933 33.1953 81.9432 33.1361 81.9317 33.0792C81.9202 33.0223 81.8878 32.9717 81.8408 32.9375C81.6826 32.8595 81.506 32.8267 81.3303 32.8426C81.1587 32.8381 80.9874 32.8613 80.8231 32.9113C80.7167 32.9412 80.622 33.0029 80.5515 33.088C80.5155 33.1371 80.5286 33.1829 80.5842 33.2222C80.7449 33.2909 80.9168 33.3297 81.0915 33.3367C81.5799 33.3855 82.0629 33.4786 82.5346 33.6149C82.7996 33.7098 82.96 33.8243 83.0123 33.9617C83.0384 34.0405 83.0437 34.1247 83.0277 34.2061C83.0116 34.2875 82.9748 34.3634 82.9207 34.4264C82.7412 34.662 82.5093 34.8524 82.2433 34.9827C81.8959 35.1631 81.5246 35.2931 81.1405 35.3688C80.6653 35.4623 80.1817 35.5061 79.6974 35.4997C78.7419 35.4997 78.1496 35.3972 77.9205 35.1921C77.806 35.0979 77.7317 34.9635 77.7128 34.8163C77.694 34.6691 77.732 34.5203 77.8191 34.4002Z" fill="currentColor"/>
<path d="M86.8999 34.9205H84.9365L84.3016 35.4376H82.5247L86.7788 32.2994H88.6735L88.6473 35.4376H86.8246L86.8999 34.9205ZM87.0046 34.2431L87.1518 33.1142L85.7676 34.2431H87.0046Z" fill="currentColor"/>
<path d="M69.3634 6.55256C69.3634 6.77181 69.3437 6.98124 69.3208 7.20703H88.0157C88.8127 7.2076 89.5779 7.51908 90.1487 8.0752C90.7195 8.63133 91.0508 9.38822 91.0721 10.1849C91.6607 10.3419 92.2153 10.6059 92.7083 10.9637V10.2667C92.7065 9.0218 92.2113 7.82841 91.331 6.94814C90.4507 6.06788 89.2573 5.57259 88.0125 5.57086H69.2685C69.3296 5.89456 69.3614 6.22314 69.3634 6.55256Z" fill="currentColor"/>
<path d="M57.6844 21.5072V10.2503C57.685 9.63589 57.8703 9.03583 58.2164 8.52813C58.5624 8.02042 59.0532 7.62853 59.6249 7.40337C59.6249 7.29539 59.6249 7.19067 59.6249 7.07614C59.6259 6.59106 59.6953 6.10855 59.831 5.64285C58.7681 5.85793 57.8122 6.43376 57.1253 7.27282C56.4383 8.11189 56.0624 9.16261 56.0613 10.247V30.1167L57.6844 21.5072Z" fill="currentColor"/>
<path d="M92.5774 30.8792L92.4334 31.6874H91.0754V33.7196C91.0758 34.1215 90.997 34.5196 90.8434 34.891C90.6897 35.2624 90.4644 35.5998 90.1802 35.884C89.896 36.1682 89.5585 36.3936 89.1871 36.5472C88.8157 36.7008 88.4177 36.7796 88.0157 36.7792H60.7407C60.3388 36.7796 59.9408 36.7008 59.5694 36.5472C59.1979 36.3936 58.8605 36.1682 58.5763 35.884C58.2921 35.5998 58.0667 35.2624 57.9131 34.891C57.7595 34.5196 57.6807 34.1215 57.6811 33.7196V31.694H56.0449V33.7261C56.0484 34.9699 56.5444 36.1616 57.4245 37.0404C58.3046 37.9193 59.497 38.4137 60.7407 38.4154H88.0125C89.2573 38.4137 90.4507 37.9184 91.331 37.0381C92.2113 36.1578 92.7065 34.9644 92.7083 33.7196V30.12L92.5774 30.8792Z" fill="currentColor"/>
</svg>
