<svg width="150" height="50" viewBox="0 0 150 50" fill="none" xmlns="http://www.w3.org/2000/svg">
<path d="M72.4762 29.1837H71.0655C70.9681 29.1837 70.8717 29.1646 70.7817 29.1273C70.6918 29.09 70.61 29.0354 70.5412 28.9665C70.4723 28.8977 70.4177 28.8159 70.3804 28.726C70.3431 28.636 70.324 28.5396 70.324 28.4422V16.6614C70.324 16.4647 70.4021 16.2761 70.5412 16.137C70.6802 15.9979 70.8688 15.9198 71.0655 15.9198H72.4762V29.1837Z" fill="currentColor"/>
<path d="M78.71 22.0362C79.2002 21.517 79.5274 20.8655 79.6511 20.1622C79.7748 19.459 79.6895 18.7349 79.4059 18.0796C79.1223 17.4243 78.6528 16.8665 78.0554 16.4754C77.4581 16.0842 76.7591 15.8767 76.0451 15.8787H73.615V18.031H76.0451C76.4436 18.031 76.8259 18.1893 77.1077 18.4711C77.3895 18.7529 77.5478 19.1352 77.5478 19.5337C77.5478 19.9322 77.3895 20.3144 77.1077 20.5962C76.8259 20.8781 76.4436 21.0364 76.0451 21.0364H73.615V23.1887H76.0549C76.564 23.1887 77.0522 23.3909 77.4121 23.7508C77.7721 24.1108 77.9743 24.599 77.9743 25.1081C77.9743 25.6172 77.7721 26.1054 77.4121 26.4654C77.0522 26.8253 76.564 27.0275 76.0549 27.0275H73.615V29.1798H76.0549C76.8861 29.1813 77.6978 28.9281 78.3806 28.4541C79.0635 27.9802 79.5847 27.3084 79.874 26.5291C80.1633 25.7499 80.2068 24.9007 79.9987 24.096C79.7906 23.2913 79.3408 22.5697 78.71 22.0284V22.0362Z" fill="currentColor"/>
<path d="M12.0167 15.91H6.1077C5.73805 15.9098 5.37197 15.9824 5.03038 16.1236C4.68879 16.2649 4.37839 16.4721 4.11691 16.7334C3.85543 16.9947 3.64801 17.305 3.50649 17.6465C3.36497 17.988 3.29213 18.354 3.29213 18.7237V23.3139H4.51306V23.3295H11.3241C11.3519 23.331 11.3798 23.3265 11.4058 23.3164C11.4318 23.3062 11.4553 23.2906 11.4748 23.2705C11.4942 23.2505 11.5092 23.2266 11.5186 23.2003C11.5281 23.174 11.5318 23.146 11.5295 23.1182V21.3768C11.5309 21.3495 11.5266 21.3221 11.5167 21.2966C11.5069 21.271 11.4918 21.2478 11.4724 21.2284C11.4531 21.2091 11.4299 21.194 11.4043 21.1842C11.3787 21.1743 11.3514 21.17 11.3241 21.1714H5.45419V18.7237C5.45471 18.5481 5.52482 18.3799 5.64916 18.2559C5.77349 18.1319 5.94191 18.0623 6.11749 18.0623H12.0167C12.0686 18.0623 12.1184 18.0417 12.155 18.005C12.1917 17.9683 12.2124 17.9185 12.2124 17.8667V16.1233C12.2148 16.0962 12.2116 16.0688 12.2028 16.043C12.1941 16.0172 12.1801 15.9935 12.1617 15.9734C12.1432 15.9533 12.1208 15.9373 12.0959 15.9264C12.0709 15.9155 12.0439 15.9099 12.0167 15.91Z" fill="currentColor"/>
<path d="M3.29213 28.9C3.29072 28.9274 3.29507 28.9547 3.3049 28.9803C3.31473 29.0058 3.32981 29.0291 3.34918 29.0484C3.36854 29.0678 3.39176 29.0829 3.41732 29.0927C3.44288 29.1025 3.47022 29.1069 3.49757 29.1055H5.24092C5.26746 29.1055 5.29373 29.1001 5.31813 29.0897C5.34253 29.0793 5.36455 29.064 5.38285 29.0447C5.40116 29.0255 5.41536 29.0028 5.42459 28.9779C5.43383 28.953 5.43791 28.9265 5.43658 28.9V24.3998H3.2843L3.29213 28.9Z" fill="currentColor"/>
<path d="M23.3514 18.6963L24.9304 23.3139H27.2059L24.8462 16.4148C24.7964 16.2687 24.7021 16.1418 24.5764 16.0519C24.4508 15.9621 24.3002 15.9138 24.1458 15.9139H22.5335C22.377 15.9141 22.2246 15.9638 22.0981 16.0559C21.9716 16.148 21.8774 16.2777 21.8291 16.4266L19.5869 23.3139H21.8507L23.3514 18.6963Z" fill="currentColor"/>
<path d="M29.1215 28.9157L27.5796 24.4057H19.2307L17.7633 28.9196C17.7509 28.9504 17.7466 28.9838 17.7507 29.0168C17.7548 29.0497 17.7673 29.081 17.7868 29.1079C17.8064 29.1347 17.8325 29.156 17.8626 29.17C17.8927 29.184 17.9258 29.19 17.9589 29.1876H19.7923C19.8358 29.1873 19.878 29.1734 19.9132 29.1478C19.9483 29.1221 19.9744 29.0861 19.988 29.0448L20.796 26.558H26.0417L26.887 29.0487C26.8996 29.0903 26.9256 29.1266 26.961 29.1517C26.9965 29.1769 27.0393 29.1895 27.0827 29.1876H28.9238C28.9576 29.1907 28.9916 29.185 29.0224 29.171C29.0533 29.157 29.08 29.1352 29.0999 29.1078C29.1199 29.0804 29.1323 29.0483 29.1361 29.0146C29.1399 28.9809 29.1348 28.9468 29.1215 28.9157Z" fill="currentColor"/>
<path d="M57.0718 18.6963L58.6508 23.3139H60.9322L58.5725 16.4148C58.522 16.2687 58.4273 16.1419 58.3014 16.0521C58.1755 15.9623 58.0247 15.914 57.8701 15.9139H56.2598C56.103 15.914 55.9503 15.9637 55.8235 16.0557C55.6966 16.1478 55.6021 16.2776 55.5534 16.4266L53.3014 23.3139H55.5652L57.0718 18.6963Z" fill="currentColor"/>
<path d="M62.8438 28.9157L61.3 24.4057H52.9531L51.4856 28.9196C51.4733 28.9504 51.4689 28.9838 51.473 29.0168C51.4772 29.0497 51.4896 29.081 51.5092 29.1079C51.5287 29.1347 51.5548 29.156 51.5849 29.17C51.615 29.184 51.6482 29.19 51.6813 29.1876H53.5146C53.5582 29.1876 53.6006 29.1738 53.6358 29.1481C53.6709 29.1225 53.697 29.0863 53.7103 29.0448L54.5203 26.558H59.7582L60.6093 29.0487C60.6238 29.0891 60.6503 29.1242 60.6853 29.149C60.7203 29.1739 60.7621 29.1873 60.805 29.1876H62.6481C62.6809 29.1879 62.7133 29.1802 62.7426 29.1653C62.7718 29.1505 62.797 29.1288 62.8162 29.1022C62.8354 29.0756 62.8479 29.0447 62.8527 29.0123C62.8575 28.9798 62.8544 28.9467 62.8438 28.9157Z" fill="currentColor"/>
<path d="M140.932 18.6963L142.511 23.3139H144.785L142.437 16.4148C142.387 16.2687 142.292 16.1419 142.166 16.0521C142.04 15.9623 141.889 15.914 141.735 15.9139H140.124C139.968 15.914 139.815 15.9637 139.688 16.0557C139.561 16.1478 139.467 16.2776 139.418 16.4266L137.17 23.3139H139.432L140.932 18.6963Z" fill="currentColor"/>
<path d="M146.705 28.9157L145.161 24.4057H136.814L135.344 28.9196C135.335 28.9504 135.332 28.9831 135.337 29.015C135.342 29.0469 135.355 29.0772 135.374 29.1033C135.393 29.1295 135.418 29.1507 135.447 29.1654C135.476 29.18 135.508 29.1876 135.54 29.1876H137.373C137.417 29.1876 137.459 29.1738 137.495 29.1481C137.53 29.1225 137.556 29.0863 137.569 29.0448L138.379 26.558H143.625L144.48 29.0487C144.494 29.0893 144.52 29.1245 144.556 29.1494C144.591 29.1742 144.633 29.1876 144.675 29.1876H146.519C146.551 29.1863 146.582 29.1776 146.61 29.1621C146.638 29.1465 146.662 29.1247 146.68 29.0983C146.698 29.0719 146.709 29.0416 146.714 29.0099C146.718 28.9782 146.715 28.9459 146.705 28.9157Z" fill="currentColor"/>
<path d="M38.5289 23.2689V16.1155C38.5289 16.0889 38.5236 16.0627 38.5131 16.0383C38.5027 16.0139 38.4874 15.9918 38.4682 15.9735C38.4489 15.9552 38.4262 15.941 38.4013 15.9318C38.3764 15.9226 38.3499 15.9185 38.3234 15.9198H36.5821C36.5555 15.9185 36.529 15.9226 36.5042 15.9318C36.4793 15.941 36.4565 15.9552 36.4373 15.9735C36.4181 15.9918 36.4028 16.0139 36.3924 16.0383C36.3819 16.0627 36.3766 16.0889 36.3766 16.1155V23.2689H38.5289Z" fill="currentColor"/>
<path d="M38.5289 26.331V24.4057H36.3766V26.331C36.3764 26.7006 36.4489 27.0667 36.5902 27.4083C36.7315 27.7499 36.9387 28.0603 37.2 28.3218C37.4613 28.5833 37.7716 28.7907 38.113 28.9322C38.4545 29.0737 38.8206 29.1466 39.1902 29.1466H45.0953C45.1227 29.148 45.15 29.1436 45.1756 29.1338C45.2011 29.124 45.2243 29.1089 45.2437 29.0895C45.2631 29.0701 45.2781 29.0469 45.288 29.0214C45.2978 28.9958 45.3022 28.9685 45.3007 28.9411V27.1978C45.3008 27.1712 45.2954 27.145 45.285 27.1206C45.2745 27.0962 45.2592 27.0741 45.24 27.0558C45.2208 27.0375 45.1981 27.0233 45.1732 27.0141C45.1483 27.0049 45.1218 27.0008 45.0953 27.0021H39.1902C39.1026 27.0021 39.0157 26.9847 38.9349 26.9508C38.854 26.917 38.7806 26.8674 38.7191 26.805C38.6576 26.7425 38.609 26.6684 38.5764 26.5871C38.5437 26.5057 38.5276 26.4187 38.5289 26.331Z" fill="currentColor"/>
<path d="M107.081 23.2689V16.1155C107.081 16.0636 107.06 16.0138 107.024 15.9771C106.987 15.9404 106.937 15.9198 106.885 15.9198H105.142C105.09 15.9198 105.04 15.9404 105.004 15.9771C104.967 16.0138 104.946 16.0636 104.946 16.1155V23.2689H107.081Z" fill="currentColor"/>
<path d="M107.081 26.331V24.4057H104.929V26.331C104.928 26.7006 105.001 27.0667 105.142 27.4083C105.284 27.7499 105.491 28.0603 105.752 28.3218C106.013 28.5833 106.324 28.7907 106.665 28.9322C107.007 29.0737 107.373 29.1466 107.742 29.1466H113.649C113.676 29.1466 113.702 29.1412 113.727 29.1308C113.751 29.1204 113.773 29.1051 113.791 29.0858C113.81 29.0666 113.824 29.0439 113.833 29.019C113.842 28.9941 113.846 28.9676 113.845 28.9411V27.1978C113.845 27.1459 113.824 27.0961 113.788 27.0594C113.751 27.0227 113.701 27.0021 113.649 27.0021H107.742C107.655 27.0019 107.568 26.9843 107.487 26.9503C107.407 26.9164 107.333 26.8668 107.272 26.8044C107.21 26.742 107.162 26.668 107.129 26.5868C107.096 26.5055 107.08 26.4186 107.081 26.331Z" fill="currentColor"/>
<path d="M123.276 23.2689V16.1155C123.276 16.0636 123.255 16.0138 123.219 15.9771C123.182 15.9404 123.132 15.9198 123.08 15.9198H121.337C121.285 15.9198 121.235 15.9404 121.199 15.9771C121.162 16.0138 121.141 16.0636 121.141 16.1155V23.2689H123.276Z" fill="currentColor"/>
<path d="M123.276 26.331V24.4057H121.124V26.331C121.124 27.077 121.42 27.7926 121.947 28.3205C122.474 28.8484 123.189 29.1455 123.935 29.1466H129.844C129.871 29.1466 129.897 29.1412 129.922 29.1308C129.946 29.1204 129.968 29.1051 129.986 29.0858C130.005 29.0666 130.019 29.0439 130.028 29.019C130.037 28.9941 130.041 28.9676 130.04 28.9411V27.1978C130.04 27.1459 130.019 27.0961 129.983 27.0594C129.946 27.0227 129.896 27.0021 129.844 27.0021H123.935C123.848 27.0016 123.761 26.9838 123.681 26.9498C123.6 26.9157 123.527 26.8661 123.466 26.8037C123.405 26.7413 123.356 26.6674 123.324 26.5863C123.291 26.5052 123.275 26.4184 123.276 26.331Z" fill="currentColor"/>
<path d="M95.9283 23.3139C95.9548 23.3139 95.9811 23.3085 96.0055 23.2981C96.0299 23.2877 96.0519 23.2724 96.0702 23.2532C96.0885 23.2339 96.1027 23.2112 96.1119 23.1863C96.1212 23.1614 96.1253 23.1349 96.1239 23.1084V21.3573C96.1239 21.3054 96.1033 21.2556 96.0666 21.2189C96.0299 21.1822 95.9802 21.1616 95.9283 21.1616H90.2208V18.6591C90.2208 18.4837 90.2905 18.3155 90.4145 18.1914C90.5385 18.0674 90.7068 17.9977 90.8822 17.9977H96.5935C96.6201 17.9978 96.6463 17.9924 96.6707 17.982C96.6951 17.9715 96.7172 17.9562 96.7355 17.937C96.7538 17.9178 96.768 17.8951 96.7772 17.8702C96.7864 17.8453 96.7905 17.8188 96.7892 17.7923V16.0509C96.7905 16.0244 96.7864 15.9979 96.7772 15.973C96.768 15.9481 96.7538 15.9254 96.7355 15.9062C96.7172 15.887 96.6951 15.8717 96.6707 15.8612C96.6463 15.8508 96.6201 15.8454 96.5935 15.8455H90.8822C90.1359 15.8455 89.4203 16.1419 88.8926 16.6696C88.365 17.1972 88.0685 17.9129 88.0685 18.6591V23.3139H95.9283Z" fill="currentColor"/>
<path d="M96.7872 26.9943H90.8822C90.7951 26.9943 90.709 26.9771 90.6286 26.9438C90.5483 26.9104 90.4753 26.8615 90.4138 26.7999C90.3524 26.7383 90.3037 26.6651 90.2706 26.5847C90.2375 26.5042 90.2206 26.418 90.2208 26.331V24.4057H88.0685V26.331C88.0683 26.7006 88.1409 27.0667 88.2821 27.4083C88.4234 27.7499 88.6306 28.0603 88.8919 28.3218C89.1532 28.5833 89.4635 28.7907 89.805 28.9322C90.1465 29.0737 90.5125 29.1466 90.8822 29.1466H96.7872C96.8138 29.1466 96.84 29.1412 96.8644 29.1308C96.8888 29.1204 96.9109 29.1051 96.9292 29.0858C96.9475 29.0666 96.9617 29.0439 96.9709 29.019C96.9801 28.9941 96.9842 28.9676 96.9829 28.9411V27.1978C96.984 27.1714 96.9797 27.1451 96.9703 27.1205C96.9609 27.0958 96.9467 27.0733 96.9284 27.0543C96.9102 27.0353 96.8882 27.0202 96.864 27.0099C96.8397 26.9996 96.8136 26.9943 96.7872 26.9943Z" fill="currentColor"/>
<path d="M107.447 38.4229C108.642 38.4229 109.611 37.454 109.611 36.2589C109.611 35.0637 108.642 34.0949 107.447 34.0949C106.252 34.0949 105.283 35.0637 105.283 36.2589C105.283 37.454 106.252 38.4229 107.447 38.4229Z" fill="currentColor"/>
<path d="M119.815 38.4229C121.01 38.4229 121.979 37.454 121.979 36.2589C121.979 35.0637 121.01 34.0949 119.815 34.0949C118.62 34.0949 117.651 35.0637 117.651 36.2589C117.651 37.454 118.62 38.4229 119.815 38.4229Z" fill="currentColor"/>
<path d="M132.182 38.4229C133.378 38.4229 134.346 37.454 134.346 36.2589C134.346 35.0637 133.378 34.0949 132.182 34.0949C130.987 34.0949 130.018 35.0637 130.018 36.2589C130.018 37.454 130.987 38.4229 132.182 38.4229Z" fill="currentColor"/>
<path d="M144.55 38.4229C145.745 38.4229 146.714 37.454 146.714 36.2589C146.714 35.0637 145.745 34.0949 144.55 34.0949C143.355 34.0949 142.386 35.0637 142.386 36.2589C142.386 37.454 143.355 38.4229 144.55 38.4229Z" fill="currentColor"/>
</svg>
