<svg width="150" height="50" viewBox="0 0 150 50" fill="none" xmlns="http://www.w3.org/2000/svg">
<path d="M43.0443 20.8825H41.6343V13.7591C41.5809 12.8169 41.8682 11.888 42.4496 11.1396C43.1379 10.3711 44.1335 9.9568 45.1626 10.0036C46.0447 9.97016 46.9001 10.2642 47.575 10.8322C48.1898 11.3467 48.5439 12.1085 48.5239 12.9104C48.5506 13.8927 47.9893 14.8015 47.1005 15.2158C47.4146 15.3161 47.7086 15.4631 47.9826 15.6502C48.6976 16.1848 49.1052 17.0401 49.0585 17.9289C49.0852 18.7508 48.7444 19.5394 48.1229 20.0739C47.4146 20.6353 46.5325 20.9226 45.6304 20.8825H43.5856V19.6596H45.303C45.9244 19.7131 46.5526 19.5394 47.0537 19.1651C47.4346 18.831 47.6485 18.3365 47.6284 17.8287C47.6552 17 47.1206 16.2583 46.3321 16.0177C45.891 15.9175 45.4433 15.8707 44.9956 15.8908H43.5856V14.8015H44.6815C45.2562 14.8483 45.8309 14.728 46.3321 14.4474C46.7998 14.1199 47.0671 13.5853 47.0537 13.0173C47.0604 12.5496 46.86 12.1018 46.5058 11.7945C46.1249 11.4603 45.6371 11.2866 45.1292 11.3C44.4476 11.2599 43.7994 11.5806 43.4252 12.1553C43.1312 12.73 42.9975 13.3715 43.0443 14.013V20.8825Z" fill="currentColor"/>
<path d="M51.2035 10.5785C51.4574 10.5718 51.698 10.672 51.8717 10.8524C52.0455 11.0329 52.139 11.2734 52.1323 11.5207C52.1457 11.7746 52.0455 12.0152 51.865 12.1889C51.6913 12.3693 51.4507 12.4696 51.1968 12.4629C50.9429 12.4696 50.7023 12.3693 50.5286 12.1889C50.3481 12.0152 50.2479 11.7746 50.2546 11.5207C50.2479 11.2667 50.3481 11.0262 50.5286 10.8524C50.7023 10.6653 50.9496 10.5718 51.2035 10.5785ZM51.8717 20.8827H50.5954V13.6323H51.8784L51.8717 20.8827Z" fill="currentColor"/>
<path d="M57.1976 13.4719C58.2133 13.4519 59.2023 13.8528 59.9107 14.5812C60.639 15.2962 61.04 16.2785 61.0199 17.3009C61.0333 18.2966 60.6257 19.2455 59.904 19.9271C58.4205 21.3906 56.0415 21.3906 54.5581 19.9271C53.8297 19.2321 53.422 18.2632 53.4354 17.2541C53.422 16.2451 53.823 15.2828 54.5514 14.5812C55.2463 13.8662 56.2019 13.4652 57.1976 13.4719ZM57.1976 14.7215C56.536 14.7148 55.9012 14.9821 55.4468 15.4566C54.4712 16.4523 54.4712 18.036 55.4468 19.0317C55.9079 19.5128 56.5427 19.7801 57.211 19.7734C57.8592 19.7801 58.4806 19.5195 58.9217 19.045C59.3894 18.5839 59.65 17.9558 59.6433 17.3009C59.6567 16.626 59.4028 15.9644 58.935 15.4766C58.494 14.9955 57.8725 14.7215 57.2177 14.7215H57.1976Z" fill="currentColor"/>
<path d="M72.6072 20.8826H71.3242V16.5323C71.3576 16.0512 71.2106 15.5767 70.9099 15.1958C70.6225 14.8751 70.2015 14.7013 69.7738 14.7214C69.1457 14.688 68.571 15.0755 68.3639 15.6703C68.2436 16.0244 68.1968 16.3987 68.2169 16.7729V20.8826H66.9205V16.6459C66.9539 16.1715 66.8269 15.7037 66.5663 15.3094C66.2656 14.9352 65.8112 14.7214 65.3301 14.7347C64.8155 14.7147 64.3277 14.9686 64.047 15.403C63.8332 15.7972 63.733 16.2383 63.7597 16.686V20.8558H62.49V16.5189C62.4299 15.7304 62.6705 14.9419 63.1583 14.3204C63.6929 13.7457 64.448 13.4384 65.2298 13.4718C66.1988 13.4317 67.1076 13.9529 67.5687 14.8082C68.0097 13.9663 68.8918 13.445 69.8474 13.4718C70.6893 13.4317 71.4979 13.7925 72.0258 14.4474C72.4334 15.0087 72.6406 15.697 72.6005 16.392L72.6072 20.8826Z" fill="currentColor"/>
<path d="M80.7732 17.5279L81.6686 18.0224C81.4815 18.7574 81.1139 19.4323 80.5927 19.9803C79.0825 21.3903 76.7303 21.3702 75.2468 19.9268C74.5184 19.2319 74.1108 18.2629 74.1309 17.2539C74.1108 16.2515 74.5051 15.2826 75.2201 14.5809C75.9217 13.8592 76.8907 13.465 77.893 13.485C79.3297 13.4984 80.6328 14.3404 81.2342 15.6501L76.6167 18.6906L76.0554 17.7551L79.5971 15.3494C79.1761 14.8349 78.5279 14.5609 77.8663 14.6077C77.2114 14.601 76.5833 14.8683 76.1422 15.3494C75.6945 15.8305 75.454 16.472 75.474 17.1336C75.4606 17.8553 75.7346 18.5503 76.2358 19.0648C76.7036 19.5794 77.3718 19.8734 78.0735 19.8667C78.9088 19.8934 79.6973 19.4992 80.1851 18.8243C80.4591 18.43 80.6596 17.989 80.7732 17.5279ZM80.2252 10.0703L77.726 12.4559H76.6635L79.1293 10.0703H80.2252Z" fill="currentColor"/>
<path d="M90.1486 10.2109V16.9535C90.1886 17.9892 89.8345 19.005 89.1529 19.7935C87.7429 21.3505 85.3372 21.4708 83.7802 20.0608C82.9717 19.3324 82.5172 18.29 82.5306 17.2074C82.5172 16.2184 82.9115 15.2695 83.6198 14.5745C84.2948 13.8595 85.237 13.4586 86.2193 13.4719C86.9878 13.4719 87.7362 13.7526 88.3176 14.2538V15.637C87.7897 15.0891 87.0746 14.755 86.3128 14.7216C85.6513 14.7082 85.0165 14.9688 84.5554 15.4433C84.0809 15.9177 83.827 16.5726 83.8404 17.2408C83.827 17.9024 84.0876 18.5439 84.5554 19.0183C85.0031 19.4995 85.6379 19.7734 86.2928 19.7601C87.1014 19.7668 87.8498 19.3658 88.2975 18.6976C88.665 18.0962 88.8321 17.3945 88.792 16.6929V10.2109H90.1486Z" fill="currentColor"/>
<path d="M92.621 10.5784C92.8749 10.5718 93.1155 10.672 93.2892 10.8524C93.463 11.0262 93.5632 11.2734 93.5565 11.5207C93.5632 11.7746 93.463 12.0152 93.2825 12.1889C93.1088 12.3693 92.8682 12.4696 92.6143 12.4629C92.3604 12.4696 92.1198 12.3693 91.9461 12.1889C91.7656 12.0152 91.6721 11.7679 91.6788 11.5207C91.6721 11.2734 91.7656 11.0262 91.9461 10.8524C92.1265 10.672 92.3671 10.5718 92.621 10.5784ZM93.2892 20.8827H92.0129V13.6323H93.2892V20.8827Z" fill="currentColor"/>
<path d="M99.7512 19.7599V20.8826H98.809C97.7532 20.9561 96.7107 20.5952 95.9222 19.8869C95.2139 19.2053 94.8196 18.2564 94.833 17.2741C94.8129 16.1915 95.2874 15.1558 96.116 14.4608C96.8511 13.8727 97.7732 13.5787 98.7088 13.6322H99.7512V14.7548H99.0028C98.2544 14.708 97.5126 14.9486 96.9313 15.4231C96.4167 15.8908 96.1294 16.5657 96.1628 17.2674C96.1294 18.0091 96.4568 18.7242 97.0448 19.1786C97.6062 19.5795 98.2811 19.7733 98.9694 19.7399L99.7512 19.7599Z" fill="currentColor"/>
<path d="M108.365 20.8827H107.082V17.7018C107.128 16.92 106.888 16.1448 106.413 15.5234C105.966 14.9888 105.291 14.6881 104.589 14.7215C103.928 14.7081 103.286 14.9821 102.838 15.4699C102.364 15.9444 102.103 16.5859 102.117 17.2541C102.103 17.9224 102.364 18.5639 102.838 19.0316C103.299 19.5061 103.928 19.7667 104.589 19.76C105.344 19.7333 106.059 19.4192 106.594 18.8913V20.2278C106.013 20.729 105.264 21.0096 104.496 21.0163C103.5 21.0497 102.538 20.6488 101.849 19.9271C101.141 19.2188 100.753 18.2565 100.774 17.2541C100.787 15.1559 102.491 13.4652 104.589 13.4719C105.605 13.4518 106.574 13.8661 107.262 14.6079C107.977 15.3764 108.365 16.3988 108.338 17.4479L108.365 20.8827Z" fill="currentColor"/>
<path d="M32.6733 29.2222H40.6921C40.7456 30.5587 40.5719 31.8951 40.1843 33.1782C39.663 34.6282 38.6941 35.8778 37.4111 36.7332C36.1013 37.622 34.5577 38.0897 32.974 38.0697C30.849 38.1098 28.8041 37.2678 27.3207 35.7509C25.8104 34.2674 24.9685 32.2359 25.0019 30.1176C24.9551 28.006 25.7904 25.9745 27.3006 24.4977C28.7908 22.9875 30.8356 22.1656 32.9539 22.2123C35.2059 22.1722 37.3777 23.0476 38.9681 24.6447L37.518 25.9812C36.3352 24.7717 34.7114 24.0834 33.0207 24.07C31.437 24.03 29.9134 24.6514 28.8108 25.7874C27.6882 26.9167 27.0801 28.4604 27.1135 30.0508C27.0667 31.688 27.6748 33.2784 28.8041 34.4612C29.8934 35.6306 31.4236 36.2721 33.0207 36.232C34.0365 36.2454 35.0388 35.9781 35.9209 35.4635C36.7762 34.9757 37.4712 34.254 37.939 33.392C38.3333 32.6502 38.5605 31.835 38.6072 30.9997H32.6733V29.2222Z" fill="currentColor"/>
<path d="M44.4677 37.7957H42.63V22.5063H44.4677V37.7957Z" fill="currentColor"/>
<path d="M51.8049 27.1771C53.2617 27.1437 54.6717 27.7251 55.6874 28.7742C56.7298 29.8033 57.3045 31.2066 57.2778 32.6701C57.2912 34.0934 56.7098 35.4566 55.6807 36.4323C53.549 38.5439 50.1209 38.5439 47.9892 36.4323C45.8776 34.3674 45.8375 30.9861 47.9024 28.8745C47.9291 28.8477 47.9558 28.8143 47.9892 28.7876C48.9849 27.7452 50.3682 27.1638 51.8049 27.1771ZM51.8049 28.968C50.8627 28.968 49.9672 29.3623 49.3257 30.0506C47.9291 31.4739 47.9291 33.7459 49.3257 35.1693C49.9873 35.8643 50.9028 36.2518 51.8584 36.2385C52.7872 36.2452 53.676 35.8643 54.3108 35.1893C54.9857 34.5345 55.3599 33.6323 55.3466 32.6968C55.38 31.7145 55.0191 30.7656 54.3442 30.0506C53.7027 29.3489 52.7872 28.9547 51.8316 28.968H51.8049Z" fill="currentColor"/>
<path d="M59.189 22.5063H61.0266V31.7949C60.9465 32.9042 61.2605 34.0068 61.9221 34.9022C62.577 35.7509 63.586 36.2454 64.6552 36.2387C65.5974 36.252 66.5062 35.8711 67.1477 35.1829C68.5109 33.7461 68.5109 31.4875 67.1477 30.0508C66.4928 29.3759 65.5774 29.0016 64.6351 29.0217C63.5593 29.0818 62.5436 29.5362 61.7884 30.3047V28.3C62.6237 27.5783 63.6929 27.1773 64.7955 27.1773C66.2055 27.164 67.5487 27.7387 68.5176 28.7611C69.5333 29.7501 70.0947 31.1133 70.0813 32.5299C70.1214 35.517 67.7291 37.9627 64.7421 38.0028C64.702 38.0028 64.6552 38.0028 64.6151 38.0028C62.9378 38.0362 61.3407 37.2611 60.3384 35.9112C59.5365 34.8354 59.1288 33.5056 59.189 32.1624V22.5063Z" fill="currentColor"/>
<path d="M82.2433 37.7955H80.4056V33.2447C80.4724 32.1221 80.125 31.0061 79.4367 30.1174C78.7885 29.3489 77.8195 28.9212 76.8172 28.968C75.8683 28.9546 74.9595 29.3489 74.3179 30.0506C73.6363 30.7322 73.2688 31.6543 73.2822 32.6166C73.2621 33.5722 73.6363 34.4877 74.3179 35.1559C74.9661 35.8375 75.8749 36.2184 76.8172 36.205C77.8863 36.1583 78.9021 35.7105 79.6705 34.9621V36.8933C78.8286 37.6083 77.7594 38.0026 76.6568 38.0026C75.2468 38.0293 73.8836 37.4613 72.9146 36.4322C71.8989 35.4165 71.3443 34.0333 71.3777 32.6032C71.3576 31.1598 71.939 29.7699 72.9815 28.7742C73.9972 27.7318 75.3938 27.1571 76.8439 27.1771C78.3073 27.1437 79.7106 27.7318 80.7063 28.8076C81.7354 29.9102 82.29 31.3737 82.2433 32.8772V37.7955Z" fill="currentColor"/>
<path d="M86.1725 37.7957H84.3348V22.5063H86.1725V37.7957Z" fill="currentColor"/>
<path d="M89.0794 40.0743L90.0216 35.9111H92.0263L90.6899 40.0743H89.0794Z" fill="currentColor"/>
<path d="M107.296 36.1921V37.7959H105.959C104.442 37.9028 102.952 37.3883 101.823 36.3726C99.7512 34.301 99.7445 30.9398 101.816 28.8682C101.91 28.7747 102.003 28.6878 102.103 28.6009C103.146 27.7523 104.462 27.3179 105.805 27.3781H107.296V28.9885H106.22C105.144 28.9284 104.081 29.2825 103.253 29.9775C102.504 30.6591 102.097 31.6414 102.15 32.6505C102.097 33.7197 102.571 34.7421 103.413 35.3969C104.215 35.9716 105.191 36.2523 106.173 36.2055L107.296 36.1921Z" fill="currentColor"/>
<path d="M110.864 35.3364C111.599 35.3364 112.201 35.9378 112.194 36.6796C112.194 37.0338 112.053 37.3679 111.806 37.6151C111.552 37.8691 111.205 38.0094 110.844 38.0027C110.497 38.0027 110.156 37.8624 109.922 37.6018C109.407 37.0738 109.421 36.2252 109.955 35.7106C110.196 35.4768 110.523 35.3431 110.864 35.3364Z" fill="currentColor"/>
<path d="M124.997 37.7955H123.16V33.2448C123.22 32.1222 122.872 31.0129 122.191 30.1174C121.542 29.349 120.573 28.9213 119.571 28.9681C118.622 28.9547 117.713 29.3423 117.065 30.0373C116.39 30.7189 116.023 31.6477 116.036 32.6033C116.016 33.5522 116.39 34.4744 117.065 35.1426C117.72 35.8242 118.629 36.2051 119.571 36.1918C120.64 36.145 121.656 35.6973 122.418 34.9488V36.88C121.583 37.5951 120.513 37.996 119.411 38.0027C118.001 38.0294 116.638 37.4614 115.669 36.4323C114.653 35.4166 114.098 34.0333 114.125 32.6033C114.105 31.1599 114.686 29.77 115.735 28.7743C116.744 27.7318 118.148 27.1505 119.598 27.1772C121.055 27.1371 122.465 27.7318 123.454 28.8077C124.489 29.9036 125.044 31.3671 124.997 32.8773V37.7955Z" fill="currentColor"/>
</svg>
