<svg width="150" height="50" viewBox="0 0 150 50" fill="none" xmlns="http://www.w3.org/2000/svg">
<path d="M68.8617 19.6335V19.7208C68.8268 19.8779 68.8035 20.0466 68.7802 20.2095V20.3317C68.7802 20.5353 68.7802 20.739 68.7802 20.9542C68.7337 22.5135 69.4202 24.003 70.6304 24.9805C71.7592 25.8474 73.1614 26.2838 74.581 26.2198C76.1519 26.3128 77.6938 25.7776 78.8632 24.7245C79.8989 23.7237 80.4632 22.3332 80.4167 20.8961C80.4167 20.739 80.4167 20.5877 80.4167 20.4422C80.3585 19.3135 79.928 18.2429 79.1832 17.3935C78.1476 16.2298 76.6174 15.648 74.5868 15.648C73.0334 15.5666 71.5148 16.1077 70.3628 17.1549C69.7926 17.696 69.3562 18.3651 69.1002 19.1099V19.1506C69.013 19.3077 68.9315 19.4706 68.8617 19.6335ZM74.5636 18.3011C75.0872 18.2953 75.5817 18.5339 75.9076 18.9411C75.9483 18.9993 75.989 19.0575 76.0239 19.1215C76.0938 19.232 76.1519 19.3426 76.2043 19.4648V19.4939C76.2509 19.6161 76.2916 19.7382 76.3265 19.8662C76.3265 19.9128 76.3265 19.9593 76.3265 20.0059C76.3498 20.1164 76.373 20.227 76.3847 20.3375C76.3847 20.5179 76.3847 20.7041 76.3847 20.9193C76.4428 21.6466 76.2567 22.3681 75.8494 22.9732C75.2094 23.7354 74.0806 23.8343 73.3185 23.2001C73.237 23.1303 73.1614 23.0546 73.0915 22.9732C72.6785 22.3914 72.4864 21.6815 72.5446 20.9717C72.4981 20.2619 72.7017 19.5579 73.1264 18.9819C73.4697 18.5397 74.005 18.2837 74.5636 18.3011Z" fill="currentColor"/>
<path d="M99.2619 22.2634C99.2619 22.6881 99.2619 23.0547 99.3143 23.3863C99.3143 23.4794 99.3143 23.5667 99.3434 23.6481C99.3725 23.7296 99.3434 23.7179 99.3434 23.7528C99.3434 23.9274 99.4015 24.0845 99.4306 24.2299C99.4306 24.2648 99.4306 24.2998 99.4597 24.3288C99.4888 24.4627 99.5295 24.5907 99.5877 24.7187C99.7797 25.1958 100.129 25.5972 100.583 25.8474C101.258 26.1383 101.991 26.2663 102.724 26.2198C103.626 26.214 104.527 26.1034 105.412 25.9056L105.127 23.2234C104.737 23.363 104.335 23.4503 103.922 23.4736C103.655 23.4968 103.399 23.3747 103.253 23.1477C103.224 23.0896 103.207 23.0314 103.189 22.9674C103.148 22.7463 103.125 22.5194 103.131 22.2925V17.6728H105.266V15.8575H103.131V12.8145H99.2386V15.8575H97.8073V17.6728H99.2386L99.2619 22.2634Z" fill="currentColor"/>
<path d="M110.072 12H106.192V14.6415H110.072V12Z" fill="currentColor"/>
<path d="M9.15505 31.2002C9.09104 31.2816 9.02122 31.3514 8.93395 31.4096C8.8874 31.4329 8.83504 31.4445 8.78268 31.4445C8.68377 31.4387 8.59067 31.4096 8.49758 31.3747C8.23576 31.27 7.95649 31.206 7.67721 31.2002C7.13612 31.206 6.60666 31.3631 6.1412 31.6423C5.1521 32.2242 4.52954 33.2773 4.50627 34.4235C4.50627 34.7726 4.58773 35.11 4.75064 35.4184C4.91355 35.7209 5.16373 35.9711 5.46628 36.1398C5.79792 36.3144 6.17029 36.4017 6.54848 36.3958C6.95575 36.4017 7.35721 36.2969 7.71212 36.0933C8.09613 35.8547 8.41613 35.5289 8.65468 35.1449H8.48013C8.28231 35.4358 8.01467 35.6802 7.71212 35.8547C7.43285 36.006 7.12448 36.0875 6.80448 36.0817C6.39138 36.0991 5.99574 35.942 5.70483 35.6511C5.4081 35.3369 5.25683 34.918 5.2801 34.4875C5.2801 34.0045 5.38483 33.5275 5.57683 33.0853C5.78047 32.5674 6.11792 32.1194 6.56011 31.782C6.89757 31.5376 7.30485 31.4096 7.72376 31.4212C7.87503 31.4212 8.02631 31.4445 8.17176 31.4969C8.29394 31.5376 8.41031 31.6016 8.50341 31.6947C8.59068 31.7762 8.6605 31.8751 8.70122 31.9914C8.74777 32.1194 8.77686 32.2533 8.78849 32.3871V32.7885H8.92232L9.29469 31.2002H9.15505Z" fill="currentColor"/>
<path d="M12.5587 33.0445H11.9769L11.8955 33.3238C11.7907 33.7253 11.6394 34.1151 11.4474 34.4875C11.2904 34.7609 11.1158 35.0227 10.9296 35.2729C10.7842 35.4766 10.6096 35.6628 10.4118 35.814C10.3187 35.8839 10.214 35.9188 10.0976 35.9304C10.0511 35.9362 10.0103 35.9188 9.97543 35.8897C9.94052 35.8606 9.92306 35.8198 9.92888 35.7791C9.95797 35.5813 10.0045 35.3835 10.0685 35.1973L10.4176 34.0046C10.4932 33.7776 10.5456 33.5391 10.5631 33.3006C10.5689 33.2133 10.534 33.1318 10.4758 33.0736C10.4176 33.0155 10.3362 32.9864 10.2547 32.9922C10.0976 32.998 9.94634 33.0562 9.82416 33.1493C9.58561 33.318 9.38779 33.5275 9.24233 33.7776L9.3587 33.8591C9.46343 33.7136 9.57979 33.574 9.70779 33.446C9.75433 33.4111 9.8067 33.3936 9.85907 33.3936C9.88234 33.3878 9.90561 33.3878 9.92888 33.3936C9.94634 33.4169 9.95798 33.4402 9.95798 33.4693C9.9347 33.6438 9.89398 33.8126 9.84161 33.9755L9.52161 35.1391C9.43433 35.4126 9.38197 35.6977 9.3587 35.9828C9.35288 36.0933 9.39942 36.2039 9.48088 36.2795C9.55651 36.3609 9.66124 36.4017 9.76597 36.3959C10.0685 36.3668 10.342 36.2271 10.5456 36.006C10.9471 35.5697 11.2845 35.0868 11.5638 34.5631C11.3776 35.1449 11.2671 35.5638 11.2263 35.7268C11.1973 35.8315 11.1856 35.942 11.1798 36.0526C11.174 36.1282 11.2031 36.2097 11.2613 36.262C11.3194 36.3202 11.4009 36.3493 11.4824 36.3435C11.622 36.3377 11.7616 36.2911 11.8722 36.2039C12.1049 36.0177 12.3027 35.7908 12.454 35.5289L12.3434 35.4475C12.2329 35.6104 12.1049 35.7617 11.9653 35.9013C11.9245 35.9362 11.878 35.9537 11.8256 35.9537C11.8024 35.9537 11.7791 35.942 11.7616 35.9246C11.7558 35.8897 11.7558 35.8606 11.7616 35.8257C11.7907 35.6162 11.8373 35.4126 11.9071 35.2089L12.5587 33.0445Z" fill="currentColor"/>
<path d="M15.5901 35.4475L16.3057 32.9457L15.7239 33.033L15.5901 33.4519C15.5551 33.3006 15.4795 33.1668 15.3631 33.062C15.2584 32.9806 15.1246 32.9399 14.9908 32.9457C14.6999 32.9573 14.4206 33.0679 14.1937 33.254C13.8213 33.5275 13.5188 33.8882 13.3093 34.3013C13.094 34.6795 12.9719 35.0984 12.9602 35.5348C12.9544 35.7443 13.0242 35.9537 13.1522 36.1166C13.2628 36.2563 13.4373 36.3377 13.6177 36.3377C13.8271 36.3377 14.0249 36.2737 14.1995 36.1573C14.5311 35.9246 14.822 35.6395 15.0548 35.3079L14.9791 35.5872C14.9326 35.7384 14.9035 35.8955 14.8977 36.0584C14.8919 36.1457 14.9151 36.2272 14.9733 36.2912C15.0373 36.3493 15.1246 36.3726 15.2119 36.3668C15.3922 36.3552 15.5668 36.2853 15.7064 36.169C15.9159 36.0061 16.0904 35.8083 16.2301 35.5872L16.1021 35.4999C15.9973 35.6628 15.8693 35.8083 15.7239 35.9363C15.689 35.9712 15.6424 35.9944 15.5959 36.0003C15.5668 36.0003 15.5435 35.9886 15.5261 35.9653C15.5028 35.9363 15.4853 35.9013 15.4853 35.8606C15.4853 35.8315 15.4853 35.8083 15.4853 35.7792L15.5901 35.4475ZM14.822 35.3486C14.5079 35.7443 14.2402 35.9304 13.9551 35.9304C13.8388 35.9304 13.734 35.8781 13.6642 35.785C13.5769 35.6744 13.5304 35.529 13.542 35.3893C13.5595 34.9995 13.6584 34.6213 13.8329 34.2781C13.99 33.929 14.2169 33.609 14.502 33.353C14.6359 33.225 14.8162 33.1435 15.0024 33.1319C15.1246 33.126 15.2468 33.1784 15.3282 33.2715C15.4213 33.4053 15.4621 33.5624 15.4504 33.7253C15.4388 34.3246 15.2177 34.9006 14.822 35.3486Z" fill="currentColor"/>
<path d="M19.4532 35.9246C19.4241 35.9537 19.3892 35.9711 19.3485 35.977C19.3252 35.977 19.3019 35.9653 19.2844 35.9421C19.267 35.9188 19.2554 35.8839 19.2554 35.8548C19.2728 35.7442 19.2961 35.6337 19.331 35.529L19.779 33.9813C19.843 33.7951 19.8779 33.5973 19.8895 33.3995C19.8954 33.2831 19.8488 33.1667 19.7674 33.0795C19.6859 32.998 19.5754 32.9573 19.4648 32.9631C19.1972 32.9806 18.947 33.0911 18.7608 33.2831C18.3594 33.6904 18.0103 34.1442 17.7077 34.6329L18.1964 32.9457L16.9281 33.1726V33.3006H17.219C17.2772 33.3006 17.3353 33.3238 17.3819 33.3587C17.4226 33.3995 17.4459 33.4518 17.4459 33.5042C17.4226 33.6729 17.3819 33.8417 17.3295 34.0046L16.6837 36.2795H17.2306L17.4168 35.6977C17.4866 35.4591 17.5855 35.2264 17.7019 35.0111C17.8881 34.6737 18.0975 34.3479 18.3244 34.0395C18.4815 33.8242 18.6794 33.6438 18.9063 33.4984C18.9761 33.446 19.0634 33.4111 19.1506 33.4053C19.1972 33.4053 19.2379 33.4228 19.2728 33.4518C19.3019 33.4868 19.3194 33.5275 19.3194 33.574C19.3077 33.7195 19.2844 33.8649 19.2379 34.0046L18.8132 35.4824C18.7492 35.6686 18.7026 35.8664 18.6852 36.0642C18.6794 36.1457 18.7084 36.2271 18.7666 36.2853C18.8248 36.3435 18.9004 36.3726 18.9819 36.3668C19.1215 36.361 19.2554 36.3086 19.3659 36.2271C19.6219 36.0351 19.8372 35.7966 20.0117 35.529L19.8954 35.4591C19.7732 35.6337 19.6277 35.7908 19.4532 35.9246Z" fill="currentColor"/>
<path d="M23.2001 35.9072C23.1652 35.9363 23.1245 35.9537 23.0838 35.9595C23.0605 35.9537 23.0372 35.9421 23.0198 35.9246C23.0023 35.9072 22.9907 35.8781 22.9907 35.8548C23.0081 35.6977 23.0431 35.5406 23.0954 35.3893L24.3638 31.0548L23.1012 31.2642V31.398C23.1943 31.3922 23.2874 31.3922 23.3805 31.398C23.4503 31.3922 23.526 31.4155 23.5783 31.462C23.6132 31.4969 23.6307 31.5435 23.6307 31.59C23.6307 31.6715 23.6132 31.7529 23.59 31.8286L23.5201 32.0497L23.1594 33.3239C23.0838 33.2191 22.9907 33.126 22.8801 33.0562C22.7754 33.0039 22.6532 32.9748 22.5369 32.9806C22.2343 32.998 21.9434 33.1028 21.7049 33.289C21.3267 33.5508 21.0125 33.8999 20.7856 34.3013C20.5703 34.6504 20.4481 35.0519 20.4365 35.465C20.4248 35.7093 20.5005 35.9479 20.6459 36.1399C20.7623 36.2912 20.9368 36.3843 21.1288 36.3843C21.3383 36.3784 21.5478 36.3028 21.7107 36.169C22.1063 35.8432 22.4321 35.4475 22.6823 35.0053L22.5427 35.465C22.4729 35.6512 22.438 35.849 22.4321 36.0468C22.4263 36.1341 22.4496 36.2272 22.5078 36.297C22.5601 36.3552 22.6358 36.3843 22.7172 36.3843C22.9092 36.3726 23.0838 36.2912 23.2234 36.1574C23.4212 35.9886 23.6016 35.7908 23.7529 35.5755L23.6307 35.4999C23.5027 35.6512 23.3572 35.785 23.2001 35.9072ZM22.4205 35.1101C22.0365 35.657 21.7165 35.9363 21.4605 35.9363C21.3441 35.9363 21.2394 35.8839 21.1696 35.7908C21.0823 35.6686 21.0358 35.5173 21.0474 35.3661C21.0707 34.8424 21.2452 34.3362 21.5478 33.9057C21.8852 33.3995 22.2052 33.1435 22.5136 33.1435C22.6416 33.1377 22.7696 33.1901 22.8569 33.2831C22.95 33.3879 23.0023 33.5217 22.9965 33.6613C22.9558 34.1908 22.758 34.6912 22.4321 35.1101H22.4205Z" fill="currentColor"/>
<path d="M26.4236 32.9456C26.0687 32.9573 25.7196 33.062 25.4228 33.2598C25.0737 33.4635 24.7886 33.7602 24.5908 34.1093C24.393 34.4351 24.2883 34.8075 24.2825 35.1915C24.2708 35.4998 24.3872 35.7966 24.5966 36.0235C24.8119 36.2388 25.1086 36.3551 25.417 36.3435C25.7777 36.3318 26.1327 36.2271 26.4352 36.0293C26.7843 35.8315 27.0752 35.5464 27.273 35.1973C27.4534 34.8656 27.5465 34.4875 27.5407 34.1093C27.5523 33.8009 27.4359 33.5042 27.2265 33.2773C27.017 33.062 26.7261 32.9398 26.4236 32.9456ZM26.4759 35.4009C26.1734 35.9188 25.8476 36.1748 25.5043 36.1748C25.3356 36.1806 25.1726 36.1049 25.0621 35.9828C24.9341 35.8373 24.8701 35.6453 24.8817 35.4475C24.8934 34.9006 25.0505 34.3711 25.3356 33.9056C25.6381 33.3936 25.9697 33.1318 26.3305 33.1318C26.4934 33.1318 26.6505 33.1958 26.761 33.318C26.8832 33.4635 26.9414 33.6496 26.9298 33.8416C26.9239 34.3944 26.7668 34.9413 26.4759 35.4126V35.4009Z" fill="currentColor"/>
<path d="M31.9274 31.0548L30.6707 31.2642V31.398C30.7579 31.3922 30.8394 31.3922 30.9267 31.398C31.0023 31.3922 31.0779 31.4097 31.1419 31.4562C31.1885 31.4911 31.2176 31.5435 31.2118 31.6017C31.1827 31.7646 31.1419 31.9275 31.0954 32.0846L30.1121 35.5057C30.0539 35.6803 30.0132 35.8664 29.9899 36.0526C29.9899 36.1341 30.0248 36.2155 30.083 36.2737C30.147 36.3377 30.2285 36.3668 30.3157 36.3668C30.4612 36.361 30.6067 36.3144 30.7288 36.2272C30.9848 36.041 31.2059 35.8083 31.3747 35.5406L31.2641 35.4301C31.1536 35.6046 31.0197 35.7617 30.8627 35.8955C30.8219 35.9304 30.7696 35.9537 30.7114 35.9595C30.6532 35.9595 30.6008 35.913 30.5892 35.8548C30.6066 35.721 30.6357 35.5872 30.6823 35.4592L31.9274 31.0548Z" fill="currentColor"/>
<path d="M34.6038 35.4475L35.3194 32.9457L34.7376 33.033L34.6038 33.4519C34.5689 33.3006 34.4932 33.1668 34.3769 33.062C34.2721 32.9806 34.1383 32.9399 34.0045 32.9457C33.7136 32.9573 33.4343 33.0679 33.2074 33.254C32.835 33.5275 32.5325 33.8824 32.3172 34.2897C32.1019 34.6679 31.9798 35.0868 31.9681 35.5232C31.9623 35.7326 32.0321 35.9421 32.1601 36.105C32.2707 36.2446 32.4452 36.3261 32.6256 36.3261C32.835 36.3261 33.0329 36.2621 33.2074 36.1457C33.5507 35.9072 33.8532 35.6104 34.0918 35.2672L34.0161 35.5464C33.9696 35.6977 33.9405 35.8548 33.9347 36.0177C33.9289 36.105 33.9521 36.1864 34.0103 36.2504C34.0743 36.3086 34.1616 36.3319 34.2489 36.3261C34.4292 36.3144 34.6038 36.2446 34.7434 36.1283C34.9529 35.9653 35.1274 35.7675 35.2671 35.5464L35.1391 35.4592C35.0343 35.6221 34.9063 35.7675 34.7609 35.8955C34.726 35.9304 34.6794 35.9537 34.6329 35.9595C34.6038 35.9595 34.5805 35.9479 34.5631 35.9246C34.534 35.8955 34.5223 35.8606 34.5223 35.8199C34.5223 35.7908 34.5223 35.7675 34.5223 35.7384L34.6038 35.4475ZM33.8358 35.3486C33.5216 35.7443 33.254 35.9304 32.9689 35.9304C32.8525 35.9304 32.7478 35.8781 32.6779 35.785C32.5907 35.6744 32.5441 35.529 32.5558 35.3893C32.5732 34.9995 32.6721 34.6213 32.8467 34.2781C33.0038 33.929 33.2307 33.609 33.5158 33.353C33.6496 33.225 33.83 33.1435 34.0161 33.1319C34.1383 33.126 34.2605 33.1784 34.342 33.2715C34.4351 33.4053 34.4758 33.5624 34.4641 33.7253C34.4525 34.3246 34.2314 34.9006 33.8358 35.3486Z" fill="currentColor"/>
<path d="M40.3698 32.9457C40.2883 32.9457 40.2068 32.9747 40.1487 33.0329C40.0905 33.0853 40.0556 33.1609 40.0556 33.2424C40.0614 33.3587 40.1254 33.4635 40.2243 33.5217C40.3407 33.6089 40.3988 33.6788 40.3988 33.7428C40.3988 33.8126 40.3814 33.8824 40.3581 33.9522C40.3174 34.0744 40.2592 34.1908 40.1894 34.2955L39.6076 35.0693C39.5494 35.1508 39.3632 35.3544 39.0607 35.6977C39.0257 35.0751 38.9967 34.6737 38.9792 34.4817C38.9501 34.1617 38.9036 33.8417 38.8396 33.5275C38.793 33.3413 38.729 33.1551 38.6534 32.9747L37.5945 33.2017V33.3297C37.6817 33.3122 37.769 33.3006 37.8563 33.2947C37.9901 33.2889 38.1123 33.3587 38.1646 33.4809C38.4323 34.4235 38.5603 35.4068 38.5312 36.3901H38.665L39.4912 35.5173C39.7937 35.174 40.0788 34.8133 40.3348 34.4351C40.4803 34.2257 40.5967 33.9929 40.6898 33.7544C40.7305 33.638 40.7479 33.5158 40.7479 33.3937C40.7479 33.2773 40.7072 33.1667 40.6316 33.0795C40.5676 32.998 40.4745 32.9515 40.3698 32.9457Z" fill="currentColor"/>
<path d="M42.4526 31.4969C42.2548 31.4911 42.0919 31.654 42.0861 31.8518C42.0861 31.8577 42.0861 31.8577 42.0861 31.8635C42.0919 32.0613 42.2548 32.2242 42.4526 32.23C42.5515 32.23 42.6446 32.1893 42.7144 32.1195C42.7842 32.0497 42.8191 31.9624 42.8191 31.8635C42.825 31.6657 42.6621 31.5027 42.4642 31.4969C42.4642 31.4969 42.4584 31.4969 42.4526 31.4969Z" fill="currentColor"/>
<path d="M42.4993 32.9457L41.2368 33.1609V33.3006L41.5684 33.2657C41.6266 33.2657 41.679 33.2831 41.7255 33.3122C41.7604 33.3471 41.7837 33.3937 41.7837 33.446C41.7604 33.6206 41.7197 33.7893 41.6615 33.9522L41.1844 35.5988C41.1379 35.7442 41.1088 35.8955 41.0971 36.0526C41.0913 36.1399 41.1262 36.2213 41.1902 36.2795C41.2601 36.3377 41.3473 36.3726 41.4346 36.3668C41.6091 36.361 41.7779 36.2911 41.9117 36.1748C42.1444 35.9944 42.3364 35.7791 42.4935 35.529L42.4004 35.4475C42.2841 35.622 42.1444 35.785 41.9815 35.9188C41.9408 35.9479 41.8942 35.9711 41.8477 35.977C41.8128 35.977 41.7837 35.9653 41.7662 35.9362C41.7313 35.9188 41.7081 35.8897 41.7022 35.8548C41.7197 35.75 41.743 35.6453 41.7721 35.5406L42.4993 32.9457Z" fill="currentColor"/>
<path d="M45.7751 35.9072C45.7402 35.9363 45.6995 35.9537 45.6587 35.9595C45.6355 35.9595 45.6122 35.9479 45.5947 35.9246C45.5889 35.9013 45.5889 35.8781 45.5947 35.8548C45.6122 35.6977 45.6471 35.5406 45.6936 35.3893L46.962 31.0548L45.6936 31.2642V31.398C45.7867 31.3922 45.8798 31.3922 45.9729 31.398C46.0427 31.3922 46.1184 31.4155 46.1707 31.462C46.2114 31.4911 46.2289 31.5377 46.2289 31.59C46.2231 31.6715 46.2115 31.7529 46.1824 31.8286C46.1824 31.8868 46.1475 31.9566 46.1184 32.0497L45.7576 33.3239C45.682 33.2191 45.5889 33.126 45.4784 33.0562C45.3736 33.0039 45.2514 32.9748 45.1351 32.9806C44.8325 32.998 44.5416 33.1028 44.3031 33.289C43.9249 33.5508 43.6107 33.8999 43.3838 34.3013C43.1685 34.6504 43.0463 35.0519 43.0347 35.465C43.0231 35.7093 43.0929 35.9479 43.2383 36.1399C43.3547 36.2912 43.5351 36.3843 43.7271 36.3843C43.9365 36.3784 44.146 36.3028 44.3089 36.169C44.6987 35.8432 45.0303 35.4475 45.2805 35.0053L45.1351 35.465C45.0711 35.6512 45.0362 35.849 45.0245 36.0468C45.0187 36.1399 45.0478 36.2272 45.106 36.297C45.1584 36.3552 45.234 36.3901 45.3155 36.3843C45.5016 36.3668 45.682 36.2912 45.8158 36.1574C46.0195 35.9886 46.1998 35.7908 46.3511 35.5755L46.2289 35.4999C46.0951 35.6512 45.9438 35.785 45.7751 35.9072ZM44.9896 35.1101C44.6056 35.657 44.2856 35.9363 44.0354 35.9363C43.9191 35.9363 43.8143 35.8839 43.7445 35.7908C43.6572 35.6686 43.6107 35.5173 43.6223 35.3661C43.6514 34.8366 43.8318 34.3304 44.146 33.9057C44.4776 33.3995 44.8034 33.1435 45.1118 33.1435C45.2398 33.1377 45.3678 33.1901 45.4551 33.2831C45.5482 33.3879 45.5947 33.5217 45.5889 33.6613C45.5424 34.1908 45.3329 34.697 44.9896 35.1101Z" fill="currentColor"/>
<path d="M49.4345 35.4475L50.1502 32.9457L49.5683 33.033L49.4345 33.4519C49.3996 33.3006 49.324 33.1668 49.2076 33.062C49.1029 32.9806 48.969 32.9399 48.8352 32.9457C48.5443 32.9573 48.265 33.0679 48.0381 33.254C47.6658 33.5275 47.3632 33.8824 47.1479 34.2897C46.9327 34.6679 46.8105 35.0868 46.7988 35.5232C46.793 35.7326 46.8628 35.9421 46.9908 36.105C47.1014 36.2446 47.2759 36.3261 47.4563 36.3261C47.6658 36.3261 47.8636 36.2621 48.0381 36.1457C48.3814 35.9072 48.684 35.6104 48.9225 35.2672L48.8469 35.5464C48.8003 35.6977 48.7712 35.8548 48.7654 36.0177C48.7596 36.105 48.7829 36.1864 48.841 36.2504C48.905 36.3086 48.9923 36.3319 49.0796 36.3261C49.26 36.3144 49.4345 36.2446 49.5741 36.1283C49.7836 35.9653 49.9581 35.7675 50.0978 35.5464L49.964 35.4999C49.8592 35.6628 49.7312 35.8083 49.5858 35.9363C49.5509 35.9712 49.5043 35.9944 49.4578 36.0003C49.4287 36.0003 49.4054 35.9886 49.388 35.9653C49.3589 35.9363 49.3472 35.9013 49.3472 35.8606C49.3472 35.8315 49.3472 35.8083 49.3472 35.7792L49.4345 35.4475ZM48.6665 35.3486C48.3523 35.7384 48.0614 35.9304 47.7938 35.9304C47.6832 35.9246 47.5785 35.8723 47.5087 35.785C47.4214 35.6744 47.3749 35.529 47.3865 35.3893C47.4389 34.6155 47.7821 33.8882 48.3465 33.353C48.4803 33.225 48.6549 33.1435 48.841 33.1319C48.9691 33.126 49.0912 33.1784 49.1727 33.2715C49.2658 33.4053 49.3065 33.5624 49.2949 33.7253C49.2832 34.3246 49.0621 34.9006 48.6665 35.3486Z" fill="currentColor"/>
<path d="M59.8204 33.609C59.7447 33.609 59.6691 33.6381 59.6167 33.6963C59.5644 33.7544 59.5353 33.8359 59.5353 33.9173C59.5353 33.993 59.5586 34.0628 59.5993 34.121C59.6458 34.1733 59.704 34.2141 59.768 34.2373C59.8146 34.249 59.8553 34.2664 59.8902 34.2955C59.896 34.313 59.896 34.3363 59.8902 34.3537C59.896 34.3886 59.896 34.4293 59.8902 34.4643C59.8378 34.5981 59.768 34.7261 59.6866 34.8483C59.5004 35.145 59.3491 35.3777 59.2269 35.5465C58.9651 35.9014 58.7673 36.1574 58.6451 36.3203L58.4938 34.6504C58.4822 34.4235 58.4531 34.2024 58.4065 33.9813C58.3716 33.8533 58.3193 33.7253 58.2495 33.609L57.2545 33.8533V33.9813H57.5105C57.6269 33.9697 57.7491 34.0104 57.8305 34.0977C57.9236 34.3013 57.976 34.5224 57.9702 34.7494L58.1622 36.8963C58.0167 37.0883 57.8538 37.2745 57.6793 37.4432C57.5513 37.5828 57.4058 37.705 57.2487 37.8097C57.2254 37.8272 57.2022 37.8388 57.1731 37.8447C57.1614 37.8505 57.144 37.8505 57.1324 37.8447C57.1091 37.8097 57.0858 37.7748 57.0742 37.7341C57.0625 37.6992 57.0451 37.6643 57.016 37.641C56.9869 37.6177 56.9462 37.6061 56.9054 37.6061C56.8124 37.6119 56.7309 37.6468 56.6669 37.7167C56.5971 37.7748 56.5563 37.8621 56.5563 37.9552C56.5563 38.025 56.5796 38.0948 56.632 38.1414C56.6785 38.1938 56.7483 38.2228 56.8182 38.2228C56.9694 38.2112 57.1149 38.1588 57.2429 38.0716C57.528 37.8621 57.784 37.6119 58.0051 37.3385C58.4996 36.7566 58.9186 36.2621 59.2676 35.785C59.5353 35.4359 59.7797 35.0694 59.9949 34.6912C60.1055 34.505 60.1695 34.2897 60.1811 34.0744C60.1869 33.9523 60.152 33.8359 60.0764 33.737C60.0182 33.6555 59.9251 33.609 59.8204 33.609Z" fill="currentColor"/>
<path d="M64.1026 33.7718C64.0211 33.7602 63.9455 33.7369 63.8698 33.702L63.6429 33.6264C63.5789 33.6206 63.5149 33.6206 63.4509 33.6264C63.224 33.6147 63.0029 33.6962 62.8342 33.8533C62.6713 33.9987 62.584 34.214 62.5956 34.4351C62.5956 34.5631 62.6247 34.6853 62.6829 34.7958C62.7935 34.9878 62.9215 35.174 63.0727 35.3369C63.224 35.5173 63.3578 35.7093 63.4684 35.9188C63.5033 36.0002 63.5207 36.0875 63.5207 36.1748C63.5266 36.3086 63.4684 36.4366 63.3753 36.5297C63.2589 36.6286 63.1135 36.681 62.9622 36.6693C62.7644 36.681 62.5724 36.6053 62.4327 36.4599C62.2814 36.2446 62.2116 35.9886 62.2233 35.7268H62.0953L61.8916 36.8264H62.0138C62.0545 36.7333 62.1418 36.6693 62.2465 36.6693C62.3047 36.6751 62.3629 36.6868 62.4153 36.71C62.6015 36.7857 62.7993 36.8264 62.9971 36.8264C63.2706 36.838 63.5382 36.7391 63.7418 36.553C63.9222 36.3959 64.0269 36.1689 64.0327 35.9304C64.0269 35.7675 63.9862 35.6046 63.9047 35.4649C63.7476 35.1857 63.5615 34.9297 63.3462 34.6911C63.2647 34.6038 63.1891 34.5107 63.1309 34.406C63.096 34.342 63.0786 34.2664 63.0786 34.1907C63.0786 34.086 63.1251 33.9813 63.2066 33.9115C63.2996 33.83 63.416 33.7893 63.5382 33.7951C63.7069 33.7951 63.8698 33.8707 63.9746 34.0046C64.1142 34.1966 64.1782 34.4293 64.1724 34.662H64.2946L64.504 33.6206H64.3702C64.3237 33.7195 64.2189 33.7835 64.1026 33.7718Z" fill="currentColor"/>
<path d="M67.2561 35.913L67.9135 33.5857L67.3782 33.6671L67.2561 34.0569C67.2211 33.9173 67.1513 33.7951 67.0466 33.6962C66.9477 33.6264 66.8255 33.5857 66.7033 33.5857C66.4357 33.6031 66.1739 33.702 65.9644 33.8708C65.6211 34.1268 65.3418 34.4526 65.144 34.8308C64.9404 35.1857 64.824 35.5871 64.8182 35.9944C64.8008 36.2039 64.8648 36.4133 64.9986 36.5762C65.1033 36.6984 65.2604 36.7741 65.4233 36.7799C65.6095 36.7741 65.7957 36.7217 65.9528 36.617C66.2669 36.3959 66.5462 36.1166 66.7673 35.8024L66.6975 36.0584C66.651 36.1981 66.6277 36.3493 66.6219 36.4948C66.616 36.5762 66.6451 36.6519 66.6975 36.7101C66.7557 36.7624 66.8371 36.7857 66.9128 36.7799C67.0815 36.7741 67.2444 36.7042 67.3724 36.5937C67.5644 36.4424 67.7273 36.2621 67.8553 36.0584L67.739 35.977C67.6401 36.1282 67.5179 36.2679 67.3841 36.3842C67.3491 36.4133 67.3084 36.4308 67.2677 36.4366C67.2502 36.4482 67.2211 36.4482 67.2037 36.4366C67.1804 36.4133 67.1688 36.3784 67.1688 36.3435C67.1688 36.3202 67.1688 36.2912 67.1688 36.2679L67.2561 35.913ZM66.5462 35.8548C66.2553 36.2155 65.9644 36.4017 65.7433 36.4017C65.6386 36.4017 65.5397 36.3493 65.4757 36.2621C65.3942 36.1573 65.3535 36.0293 65.3593 35.9013C65.3709 35.5464 65.464 35.1915 65.6328 34.8773C65.7666 34.5573 65.9644 34.2664 66.2146 34.022C66.3426 33.8999 66.5055 33.83 66.68 33.8184C66.7964 33.8126 66.907 33.8591 66.9826 33.9464C67.0699 34.0686 67.1048 34.2199 67.0931 34.3653C67.0873 34.9122 66.8953 35.4359 66.5462 35.8548Z" fill="currentColor"/>
<path d="M70.194 31.8576L69.0304 32.0496V32.1777C69.106 32.1718 69.1875 32.1718 69.2631 32.1777C69.3329 32.1718 69.4086 32.1893 69.4668 32.23C69.5075 32.2591 69.5308 32.3115 69.5308 32.3638C69.5017 32.5151 69.4668 32.6664 69.4202 32.8118L68.5009 35.9944C68.4427 36.1573 68.4078 36.3261 68.3904 36.4948C68.3904 36.5704 68.4195 36.6461 68.4777 36.6984C68.5358 36.7566 68.6115 36.7857 68.6929 36.7857C68.8267 36.7799 68.9606 36.7392 69.0711 36.6577C69.298 36.4832 69.4958 36.2679 69.6529 36.0235L69.554 35.9188C69.4493 36.0759 69.3271 36.2213 69.1817 36.3493C69.1467 36.3842 69.0944 36.4075 69.042 36.4075C69.0129 36.4075 68.9838 36.3959 68.9664 36.3726C68.9431 36.3493 68.9315 36.3202 68.9315 36.2853C68.9489 36.1631 68.978 36.041 69.0187 35.9188L70.194 31.8576Z" fill="currentColor"/>
<path d="M73.3243 33.6904H72.8123L72.7367 33.9522C72.6378 34.3246 72.4981 34.6795 72.3236 35.0228C72.1723 35.273 72.0094 35.5173 71.829 35.7501C71.6952 35.9363 71.5323 36.105 71.3461 36.2446C71.2589 36.3086 71.16 36.3435 71.0552 36.3552C71.0145 36.3552 70.9738 36.3435 70.9389 36.3203C70.9156 36.2912 70.8981 36.2563 70.8981 36.2155C70.9214 36.0177 70.9679 35.8199 71.032 35.6337L71.352 34.5399C71.4218 34.3246 71.4683 34.1035 71.4858 33.8824C71.4916 33.7253 71.3694 33.6031 71.2123 33.5973C71.2065 33.5973 71.2065 33.5973 71.2007 33.5973C71.0552 33.609 70.9156 33.6555 70.7992 33.7428C70.5839 33.8999 70.4036 34.0977 70.2639 34.3246L70.3687 34.4002C70.4618 34.2664 70.5723 34.1384 70.6887 34.0221C70.7294 33.993 70.7759 33.9755 70.8283 33.9755C70.8516 33.9697 70.869 33.9697 70.8923 33.9755C70.9039 33.9988 70.9039 34.0221 70.8923 34.0453C70.8749 34.2082 70.8399 34.3653 70.7876 34.5166L70.4909 35.5639C70.4094 35.8141 70.357 36.0759 70.3396 36.3435C70.3338 36.4483 70.3745 36.5472 70.4501 36.6228C70.5199 36.6926 70.613 36.7275 70.7119 36.7275C70.9912 36.7043 71.2472 36.5763 71.4334 36.3668C71.8116 35.977 72.1316 35.5348 72.3992 35.0635C72.2305 35.6453 72.1258 35.9886 72.0909 36.1573C72.0618 36.2563 72.0501 36.3552 72.0443 36.4599C72.0443 36.5297 72.0676 36.5995 72.12 36.6519C72.1781 36.7043 72.2538 36.7334 72.3294 36.7275C72.4574 36.7217 72.5854 36.681 72.6901 36.5995C72.9112 36.425 73.0916 36.2155 73.2371 35.977L73.1323 35.8955C73.0276 36.0468 72.9112 36.1864 72.7832 36.3144C72.7483 36.3435 72.7018 36.3668 72.6552 36.3668C72.6378 36.3784 72.6145 36.3784 72.5971 36.3668C72.5912 36.3377 72.5912 36.3086 72.5971 36.2795C72.6203 36.0817 72.6669 35.8839 72.7309 35.6977L73.3243 33.6904Z" fill="currentColor"/>
<path d="M77.3098 31.8576L76.1462 32.0496V32.1777C76.2335 32.1718 76.3149 32.1718 76.4022 32.1777C76.4662 32.1718 76.5302 32.1951 76.5826 32.23C76.6175 32.2591 76.6349 32.3057 76.6349 32.3522C76.6349 32.4278 76.6175 32.5035 76.5942 32.5733C76.5942 32.6257 76.5593 32.6897 76.536 32.7769L76.2044 33.9406C76.1346 33.8417 76.0473 33.7544 75.9426 33.6904C75.8436 33.638 75.7389 33.6148 75.6284 33.6148C75.3491 33.6322 75.0815 33.7311 74.8604 33.9057C74.5054 34.1442 74.2145 34.4642 74.0051 34.8366C73.8073 35.1624 73.7025 35.5348 73.6851 35.9188C73.6734 36.1399 73.7432 36.361 73.8771 36.5413C73.9818 36.681 74.1505 36.7624 74.3251 36.7682C74.5171 36.7624 74.7091 36.6926 74.8604 36.5704C75.2153 36.2737 75.5178 35.9188 75.7564 35.5173L75.6225 35.9362C75.5644 36.105 75.5294 36.2795 75.5178 36.4599C75.512 36.5413 75.5411 36.6228 75.5935 36.6868C75.64 36.7392 75.7098 36.7682 75.7855 36.7682C75.96 36.7566 76.1229 36.681 76.2509 36.5588C76.4371 36.3959 76.6058 36.2155 76.7455 36.0119L76.6291 35.9362C76.5185 36.0875 76.3905 36.2213 76.2451 36.3435C76.216 36.3726 76.1753 36.3842 76.1345 36.3901C76.1171 36.3959 76.0938 36.3959 76.0764 36.3901C76.0705 36.3668 76.0705 36.3493 76.0764 36.3261C76.0822 36.169 76.1055 36.0061 76.1462 35.8548L77.3098 31.8576ZM75.5178 35.5988C75.1629 36.1108 74.872 36.361 74.6334 36.361C74.5287 36.361 74.4298 36.3144 74.3658 36.2271C74.2843 36.1166 74.2436 35.9828 74.2553 35.8431C74.2727 35.3544 74.4356 34.8831 74.7207 34.4875C75.0291 34.022 75.3025 33.7835 75.6109 33.7835C75.7273 33.7835 75.8436 33.83 75.9251 33.9173C76.0124 34.0104 76.0589 34.1384 76.0531 34.2664C76.0065 34.7551 75.8087 35.2206 75.4945 35.5988H75.5178Z" fill="currentColor"/>
<path d="M81.4291 36.3377C81.4001 36.3609 81.3651 36.3784 81.3244 36.3842C81.307 36.39 81.2837 36.39 81.2662 36.3842C81.2488 36.3668 81.2371 36.3435 81.2371 36.3202C81.2488 36.1748 81.2837 36.0293 81.3302 35.8897L82.4939 31.8867L81.3302 32.0787V32.2067C81.4175 32.2009 81.499 32.2009 81.5862 32.2067C81.6502 32.2009 81.7201 32.2242 81.7724 32.2591C81.8015 32.294 81.819 32.3347 81.819 32.3813C81.819 32.4569 81.8015 32.5325 81.7782 32.6024C81.7782 32.6547 81.7433 32.7187 81.7201 32.806L81.3884 33.9696C81.3186 33.8707 81.2313 33.7835 81.1266 33.7195C81.0277 33.6671 80.923 33.6438 80.8124 33.6438C80.5331 33.6613 80.2655 33.7602 80.0444 33.9347C79.6895 34.1733 79.3986 34.4933 79.1949 34.8657C78.9971 35.1915 78.8808 35.5638 78.8691 35.9478C78.8575 36.1689 78.9273 36.39 79.0611 36.5704C79.1717 36.71 79.3346 36.7973 79.5149 36.7973C79.7069 36.7915 79.8931 36.7217 80.0444 36.5995C80.3993 36.3028 80.7019 35.9478 80.9404 35.5464L80.8066 35.9653C80.7484 36.134 80.7193 36.3086 80.7077 36.4889C80.7019 36.5704 80.731 36.6519 80.7833 36.7159C80.8299 36.7682 80.8997 36.8031 80.9695 36.7973C81.1441 36.7857 81.307 36.71 81.435 36.5879C81.6211 36.4249 81.7899 36.2446 81.9295 36.0409L81.8131 35.9653C81.7026 36.1049 81.5746 36.2271 81.4291 36.3377ZM80.7077 35.5988C80.3528 36.1108 80.056 36.3609 79.8233 36.3609C79.7186 36.3609 79.6197 36.3144 79.5557 36.2271C79.4742 36.1166 79.4335 35.9828 79.4393 35.8431C79.4568 35.3544 79.6197 34.8831 79.9048 34.4875C80.2131 34.022 80.4866 33.7835 80.795 33.7835C80.9171 33.7835 81.0335 33.83 81.115 33.9173C81.2022 34.0104 81.243 34.1384 81.2371 34.2664C81.2022 34.7551 81.016 35.2206 80.7077 35.5988Z" fill="currentColor"/>
<path d="M84.8736 35.8548C84.67 36.0293 84.443 36.1748 84.2045 36.2969C84.059 36.3668 83.902 36.4017 83.739 36.4017C83.5412 36.4017 83.355 36.326 83.2154 36.1864C83.0758 36.0526 83.0001 35.8664 83.0059 35.6744C83.0001 35.5813 83.0001 35.4824 83.0059 35.3893C83.3667 35.3602 83.7274 35.2846 84.0707 35.174C84.4023 35.0693 84.6991 34.8831 84.9434 34.6329C85.0772 34.4875 85.1587 34.2955 85.1645 34.0918C85.1645 33.9522 85.1005 33.8242 84.99 33.7427C84.8329 33.638 84.6467 33.5856 84.4605 33.5973C84.1172 33.6031 83.7798 33.702 83.4889 33.894C83.163 34.0976 82.8954 34.3827 82.7034 34.7144C82.5114 35.0286 82.4067 35.3835 82.395 35.75C82.395 36.0002 82.4823 36.2504 82.6452 36.4424C82.8314 36.6577 83.1049 36.7682 83.3899 36.7508C83.9892 36.6984 84.542 36.4133 84.926 35.9537L84.8736 35.8548ZM83.6227 34.1093C83.8089 33.8998 84.0765 33.766 84.3558 33.7427C84.4489 33.7369 84.542 33.766 84.6118 33.83C84.67 33.8882 84.7049 33.9696 84.7049 34.0569C84.6932 34.2431 84.6176 34.4176 84.4954 34.5515C84.3267 34.7493 84.1114 34.9006 83.8671 34.9995C83.6052 35.1042 83.3318 35.1682 83.0525 35.1973C83.1456 34.8017 83.3434 34.4351 83.6343 34.15L83.6227 34.1093Z" fill="currentColor"/>
<path d="M87.8465 33.609C87.6429 33.6148 87.4393 33.673 87.2647 33.7835C87.0203 33.9523 86.7993 34.1617 86.6189 34.3944L86.8516 33.609L85.688 33.7835V33.9173C85.7811 33.9115 85.8741 33.9115 85.9672 33.9173C86.0254 33.9115 86.0836 33.9348 86.1243 33.9697C86.1593 34.0046 86.1825 34.057 86.1767 34.1093C86.1651 34.2257 86.136 34.3421 86.1011 34.4584L85.24 37.4316C85.205 37.6236 85.1294 37.7981 85.0131 37.9552C84.8851 38.0367 84.7338 38.0774 84.5825 38.0658L84.5534 38.1938H86.1476V38.0658C86.0313 38.0774 85.9149 38.0774 85.7985 38.0658C85.7462 38.0541 85.7054 38.025 85.6705 37.9843C85.6473 37.9436 85.6356 37.9028 85.6356 37.8563C85.6472 37.7457 85.6705 37.6294 85.7113 37.5247L85.9556 36.6461C86.0487 36.7043 86.1476 36.7508 86.2523 36.7799C86.3513 36.8032 86.4502 36.8148 86.5491 36.8148C87.1193 36.8032 87.6429 36.5181 87.9629 36.0468C88.3236 35.6221 88.5273 35.0868 88.5447 34.5283C88.5564 34.3013 88.4807 34.0744 88.3353 33.8999C88.2247 33.737 88.0444 33.6323 87.8465 33.609ZM87.8873 35.145C87.8233 35.3486 87.736 35.5406 87.6371 35.7268C87.5498 35.8897 87.4451 36.041 87.3229 36.1748C87.224 36.2912 87.1018 36.3901 86.968 36.4657C86.8574 36.5297 86.7353 36.5646 86.6073 36.5646C86.3862 36.5821 86.1651 36.489 86.0254 36.3145L86.3163 35.3021C86.4211 34.9414 86.5956 34.6039 86.84 34.313C87.0087 34.0744 87.2764 33.9173 87.5673 33.8941C87.6836 33.8941 87.7884 33.9464 87.8582 34.0395C87.9454 34.1559 87.992 34.3072 87.9804 34.4526C87.9862 34.6854 87.9571 34.9181 87.8873 35.145Z" fill="currentColor"/>
<path d="M91.0468 33.6089C90.7035 33.6147 90.3661 33.7136 90.081 33.9056C89.7552 34.1093 89.4875 34.3944 89.2955 34.726C89.0977 35.0344 88.993 35.3951 88.9814 35.7616C88.9872 36.0118 89.0803 36.2446 89.2374 36.4366C89.4235 36.6518 89.697 36.7624 89.9821 36.7449C90.5756 36.6926 91.1283 36.4075 91.5123 35.9478L91.4425 35.8489C91.2388 36.0235 91.0119 36.1689 90.7734 36.2911C90.6279 36.3609 90.465 36.3958 90.3021 36.3958C89.9006 36.3958 89.5748 36.07 89.569 35.6686C89.569 35.5929 89.569 35.4998 89.569 35.3835C89.9355 35.3544 90.2904 35.2787 90.6395 35.1682C90.9712 35.0635 91.2679 34.8773 91.5065 34.6271C91.6461 34.4816 91.7275 34.2896 91.7334 34.086C91.7334 33.9464 91.6694 33.8183 91.5588 33.7369C91.4076 33.638 91.2272 33.5973 91.0468 33.6089ZM91.0468 34.5922C90.8781 34.79 90.6686 34.9471 90.4243 35.0402C90.1624 35.1449 89.8832 35.2147 89.6039 35.238C89.6912 34.8249 89.889 34.4467 90.1857 34.15C90.3719 33.9405 90.6337 33.8067 90.9188 33.7834C91.0119 33.7776 91.105 33.8067 91.1748 33.8707C91.2388 33.9347 91.2796 34.022 91.2737 34.1093C91.2563 34.2896 91.1806 34.4584 91.0584 34.5922H91.0468Z" fill="currentColor"/>
<path d="M94.5433 36.3552C94.5142 36.3785 94.4793 36.3959 94.4444 36.4017C94.4211 36.4017 94.3979 36.3901 94.3862 36.3668C94.3746 36.3436 94.3746 36.3145 94.3862 36.2912C94.3979 36.1865 94.4211 36.0875 94.4561 35.9886L94.875 34.5574C94.9273 34.3828 94.9622 34.2024 94.968 34.0163C94.9739 33.9115 94.939 33.8068 94.8633 33.7253C94.7877 33.6497 94.683 33.609 94.5782 33.609C94.3339 33.6264 94.1011 33.737 93.9324 33.9115C93.56 34.2897 93.2342 34.7086 92.9608 35.1566L93.4088 33.609L92.2451 33.8243V33.9464H92.3731C92.4197 33.9406 92.472 33.9406 92.5186 33.9464C92.5709 33.9464 92.6233 33.9639 92.664 33.9988C92.7048 34.0337 92.7222 34.0803 92.7222 34.1326C92.6989 34.2897 92.664 34.441 92.6175 34.5923L92.0008 36.7159H92.5069L92.6757 36.1341C92.7397 35.913 92.8328 35.7035 92.9433 35.4999C93.112 35.1857 93.3099 34.889 93.5251 34.6039C93.6648 34.4061 93.8451 34.2373 94.0488 34.1035C94.1128 34.057 94.1942 34.0279 94.2757 34.0221C94.3164 34.0221 94.3571 34.0337 94.3862 34.0628C94.4153 34.0919 94.4269 34.1326 94.4269 34.1733C94.4211 34.3072 94.3979 34.441 94.3513 34.569L93.9615 35.9363C93.8975 36.1225 93.8626 36.3203 93.8451 36.5181C93.8393 36.5937 93.8684 36.6694 93.9208 36.7217C93.9731 36.7741 94.0429 36.8032 94.1186 36.7974C94.2466 36.7916 94.3746 36.745 94.4735 36.6636C94.7004 36.4832 94.8982 36.2679 95.0553 36.0235L94.9506 35.9595C94.8342 36.1108 94.6946 36.2388 94.5433 36.3552Z" fill="currentColor"/>
<path d="M98.0112 36.3377C97.9821 36.3609 97.9472 36.3784 97.9065 36.3842C97.889 36.39 97.8657 36.39 97.8483 36.3842C97.8308 36.3668 97.8192 36.3435 97.8192 36.3202C97.8308 36.1748 97.8657 36.0293 97.9123 35.8897L99.0759 31.8867L97.9123 32.0787V32.2067C97.9995 32.2009 98.081 32.2009 98.1683 32.2067C98.2323 32.2009 98.3021 32.2242 98.3545 32.2591C98.3894 32.2882 98.4068 32.3347 98.4068 32.3813C98.401 32.4569 98.3894 32.5325 98.3661 32.6024C98.3661 32.6547 98.3254 32.7187 98.3021 32.806L97.9705 33.9696C97.9007 33.8707 97.8134 33.7835 97.7087 33.7195C97.6097 33.6671 97.505 33.6438 97.3945 33.6438C97.1152 33.6613 96.8475 33.7602 96.6264 33.9347C96.2774 34.1733 95.9865 34.4933 95.777 34.8657C95.5792 35.1915 95.4628 35.5638 95.4512 35.9478C95.4395 36.1689 95.5093 36.39 95.6432 36.5704C95.7537 36.71 95.9166 36.7973 96.097 36.7973C96.289 36.7915 96.4752 36.7217 96.6264 36.5995C96.9814 36.3028 97.2839 35.9478 97.5225 35.5464L97.3886 35.9653C97.3305 36.134 97.3014 36.3086 97.2897 36.4889C97.2839 36.5704 97.313 36.6519 97.3654 36.7159C97.4119 36.7682 97.4817 36.8031 97.5516 36.7973C97.7261 36.7857 97.889 36.71 98.017 36.5879C98.2032 36.4249 98.3719 36.2446 98.5116 36.0409L98.3952 35.9653C98.2847 36.1049 98.1567 36.2271 98.0112 36.3377ZM97.2897 35.5988C96.9348 36.1108 96.6381 36.3609 96.4054 36.3609C96.3006 36.3609 96.2017 36.3144 96.1377 36.2271C96.0563 36.1166 96.0155 35.9828 96.0213 35.8431C96.0388 35.3544 96.2017 34.8831 96.4868 34.4875C96.7952 34.022 97.0686 33.7835 97.377 33.7835C97.4992 33.7835 97.6156 33.83 97.697 33.9173C97.7843 34.0104 97.825 34.1384 97.8192 34.2664C97.7843 34.7551 97.5981 35.2206 97.2897 35.5988Z" fill="currentColor"/>
<path d="M101.077 33.6089C100.734 33.6148 100.396 33.7137 100.106 33.9057C99.7798 34.1093 99.5121 34.3944 99.3201 34.726C99.1281 35.0402 99.0234 35.3951 99.0117 35.7617C99.0117 36.0119 99.099 36.2621 99.2619 36.4541C99.4481 36.6693 99.7216 36.7799 100.007 36.7624C100.606 36.7101 101.159 36.425 101.543 35.9653L101.467 35.8664C101.263 36.041 101.036 36.1922 100.798 36.3086C100.652 36.3784 100.495 36.4133 100.332 36.4133C100.135 36.4133 99.9485 36.3377 99.8088 36.1981C99.6692 36.0642 99.5936 35.8781 99.5994 35.6861C99.5936 35.593 99.5936 35.4941 99.5994 35.401C99.9601 35.3719 100.321 35.2962 100.664 35.1857C100.996 35.081 101.292 34.8948 101.537 34.6446C101.671 34.4991 101.752 34.3071 101.758 34.1035C101.758 33.9639 101.694 33.8358 101.583 33.7544C101.438 33.6497 101.258 33.6031 101.077 33.6089ZM101.077 34.5922C100.908 34.79 100.693 34.9413 100.449 35.0402C100.187 35.145 99.9136 35.209 99.6343 35.238C99.7216 34.825 99.9252 34.4526 100.216 34.15C100.408 33.9406 100.67 33.8068 100.949 33.7835C101.042 33.7777 101.135 33.8068 101.205 33.8708C101.269 33.9289 101.304 34.0104 101.298 34.0977C101.287 34.2839 101.211 34.4584 101.089 34.5922H101.077Z" fill="currentColor"/>
<path d="M104.568 36.3552C104.539 36.3785 104.504 36.3959 104.469 36.4017C104.446 36.4017 104.423 36.3843 104.411 36.3668C104.399 36.3436 104.399 36.3145 104.411 36.2912C104.423 36.1865 104.446 36.0875 104.481 35.9886L104.894 34.5574C104.952 34.3828 104.981 34.2024 104.993 34.0163C104.999 33.9057 104.958 33.801 104.882 33.7253C104.807 33.6497 104.708 33.609 104.603 33.609C104.353 33.6264 104.126 33.7312 103.951 33.9115C103.585 34.2897 103.259 34.7086 102.98 35.1566L103.434 33.609L102.27 33.8243V33.9464H102.398C102.445 33.9406 102.491 33.9406 102.538 33.9464C102.59 33.9464 102.648 33.9639 102.689 33.9988C102.724 34.0337 102.747 34.0803 102.747 34.1326C102.724 34.2897 102.689 34.441 102.637 34.5923L102.02 36.7159H102.532L102.701 36.1341C102.77 35.913 102.858 35.7035 102.962 35.4999C103.137 35.1857 103.329 34.889 103.544 34.6039C103.69 34.4061 103.87 34.2432 104.074 34.1093C104.138 34.0628 104.219 34.0337 104.301 34.0279C104.341 34.0279 104.382 34.0395 104.411 34.0686C104.44 34.0977 104.458 34.1384 104.458 34.1792C104.446 34.313 104.423 34.4468 104.382 34.5748L103.986 35.9421C103.922 36.1283 103.887 36.3261 103.87 36.5239C103.87 36.5996 103.893 36.6694 103.946 36.7276C103.998 36.7799 104.074 36.809 104.149 36.8032C104.277 36.7974 104.399 36.7508 104.498 36.6694C104.731 36.489 104.923 36.2737 105.08 36.0294L104.975 35.9654C104.859 36.1108 104.719 36.2446 104.568 36.3552Z" fill="currentColor"/>
<path d="M109.776 36.3377C109.746 36.3609 109.712 36.3784 109.671 36.3842C109.653 36.39 109.63 36.39 109.613 36.3842C109.595 36.3668 109.584 36.3435 109.584 36.3202C109.595 36.1748 109.63 36.0293 109.677 35.8897L110.84 31.8867L109.677 32.0787V32.2067C109.764 32.2009 109.845 32.2009 109.933 32.2067C109.997 32.2009 110.066 32.2242 110.119 32.2591C110.148 32.294 110.165 32.3347 110.165 32.3813C110.165 32.4569 110.148 32.5325 110.125 32.6024C110.125 32.6547 110.09 32.7187 110.066 32.806L109.735 33.9696C109.665 33.8707 109.578 33.7835 109.473 33.7195C109.374 33.6671 109.269 33.6438 109.159 33.6438C108.88 33.6613 108.612 33.7602 108.391 33.9347C108.036 34.1733 107.745 34.4933 107.541 34.8657C107.344 35.1915 107.227 35.5638 107.216 35.9478C107.204 36.1689 107.274 36.39 107.408 36.5704C107.518 36.71 107.681 36.7973 107.861 36.7973C108.053 36.7915 108.24 36.7217 108.391 36.5995C108.757 36.2969 109.072 35.9246 109.31 35.5115L109.176 35.9304C109.118 36.0991 109.089 36.2737 109.077 36.454C109.072 36.5355 109.101 36.6169 109.153 36.6809C109.2 36.7333 109.269 36.7682 109.339 36.7624C109.514 36.7508 109.677 36.6751 109.805 36.5529C109.991 36.39 110.16 36.2097 110.299 36.006L110.183 35.9304C110.067 36.0817 109.927 36.2155 109.776 36.3377ZM109.054 35.5988C108.699 36.1108 108.402 36.3609 108.17 36.3609C108.065 36.3609 107.966 36.3144 107.902 36.2271C107.821 36.1166 107.78 35.9828 107.786 35.8431C107.803 35.3544 107.966 34.8831 108.251 34.4875C108.56 34.022 108.833 33.7835 109.141 33.7835C109.264 33.7835 109.38 33.83 109.461 33.9173C109.549 34.0104 109.589 34.1384 109.584 34.2664C109.549 34.7551 109.362 35.2206 109.054 35.5988Z" fill="currentColor"/>
<path d="M112.842 33.6089C112.499 33.6147 112.161 33.7137 111.87 33.9057C111.544 34.1093 111.277 34.3944 111.085 34.726C110.893 35.0402 110.788 35.3951 110.776 35.7617C110.788 36.0119 110.887 36.2504 111.056 36.4366C111.242 36.6519 111.515 36.7624 111.8 36.745C112.4 36.6926 112.952 36.4075 113.336 35.9479L113.261 35.8489C113.057 36.0235 112.83 36.169 112.592 36.2911C112.446 36.361 112.289 36.3959 112.126 36.3959C111.928 36.3959 111.742 36.3202 111.603 36.1806C111.463 36.0468 111.387 35.8606 111.393 35.6686C111.387 35.5755 111.387 35.4766 111.393 35.3835C111.754 35.3544 112.115 35.2788 112.458 35.1682C112.79 35.0635 113.086 34.8773 113.325 34.6271C113.464 34.4817 113.546 34.2897 113.552 34.086C113.552 33.9464 113.488 33.8184 113.377 33.7369C113.22 33.6322 113.034 33.5915 112.842 33.6089ZM112.842 34.5922C112.673 34.79 112.458 34.9413 112.214 35.0402C111.952 35.1449 111.678 35.2089 111.399 35.238C111.486 34.8249 111.684 34.4468 111.981 34.15C112.167 33.9406 112.435 33.8067 112.714 33.7835C112.807 33.7777 112.9 33.8067 112.97 33.8707C113.028 33.9289 113.063 34.0104 113.063 34.0977C113.051 34.2838 112.976 34.4584 112.854 34.5922H112.842Z" fill="currentColor"/>
<path d="M117.182 32.7711H117.031C116.874 33.0329 116.682 33.2715 116.449 33.4693C116.269 33.6148 116.053 33.7195 115.826 33.7719L115.797 33.9057H116.309L115.728 35.8722C115.669 36.0584 115.634 36.2562 115.623 36.4541C115.617 36.5413 115.652 36.6286 115.716 36.6926C115.78 36.7566 115.867 36.7915 115.96 36.7857C116.1 36.7857 116.234 36.7392 116.344 36.6577C116.577 36.4832 116.775 36.2621 116.926 36.0177L116.816 35.9304C116.705 36.0759 116.583 36.2155 116.455 36.3493C116.397 36.4133 116.315 36.4541 116.228 36.4657C116.21 36.4773 116.181 36.4773 116.164 36.4657C116.141 36.4424 116.135 36.4075 116.135 36.3784C116.152 36.233 116.187 36.0933 116.234 35.9595L116.816 33.958H117.345L117.403 33.7428H116.868L117.182 32.7711Z" fill="currentColor"/>
<path d="M119.591 33.6089C119.248 33.6147 118.91 33.7136 118.619 33.9056C118.294 34.1093 118.026 34.3944 117.834 34.726C117.636 35.0344 117.531 35.3951 117.526 35.7616C117.526 36.0118 117.613 36.262 117.776 36.454C117.962 36.6693 118.235 36.7798 118.521 36.7624C119.114 36.71 119.667 36.4249 120.051 35.9653L119.981 35.8664C119.777 36.0409 119.55 36.1864 119.312 36.3086C119.166 36.3784 119.003 36.4133 118.841 36.4133C118.649 36.4133 118.457 36.3377 118.323 36.198C118.183 36.0642 118.107 35.878 118.107 35.686C118.102 35.5929 118.102 35.494 118.107 35.4009C118.468 35.3718 118.829 35.2962 119.172 35.1856C119.504 35.0809 119.801 34.8947 120.039 34.6445C120.179 34.4991 120.26 34.3071 120.266 34.1034C120.266 33.9638 120.202 33.8358 120.091 33.7543C119.946 33.6554 119.771 33.6031 119.591 33.6089ZM119.591 34.5922C119.422 34.79 119.207 34.9413 118.963 35.0402C118.701 35.1449 118.427 35.2089 118.148 35.238C118.235 34.8249 118.433 34.4467 118.73 34.15C118.916 33.9405 119.178 33.8067 119.463 33.7834C119.556 33.7776 119.649 33.8067 119.719 33.8707C119.771 33.9405 119.795 34.022 119.783 34.1093C119.777 34.2838 119.713 34.4584 119.603 34.5922H119.591Z" fill="currentColor"/>
<path d="M122.611 33.6089C122.267 33.6148 121.93 33.7253 121.651 33.9231C121.325 34.1268 121.057 34.4119 120.871 34.7435C120.685 35.0519 120.58 35.401 120.58 35.7617C120.568 36.0293 120.662 36.297 120.848 36.4948C121.051 36.681 121.325 36.7799 121.598 36.7624C121.866 36.7624 122.128 36.6984 122.36 36.5646C122.634 36.4017 122.872 36.1922 123.07 35.9421L122.971 35.8548C122.808 36.0468 122.611 36.2039 122.39 36.3261C122.232 36.4133 122.058 36.4599 121.878 36.4599C121.68 36.4715 121.482 36.3959 121.342 36.2562C121.203 36.1108 121.133 35.913 121.144 35.7093C121.15 35.3428 121.243 34.982 121.424 34.662C121.558 34.4002 121.744 34.1733 121.976 33.9988C122.163 33.8533 122.395 33.7718 122.634 33.766C122.733 33.7602 122.832 33.7777 122.913 33.83C122.954 33.8591 122.977 33.9057 122.977 33.9522C122.983 33.9755 122.983 33.9988 122.977 34.022C122.948 34.0628 122.919 34.1035 122.878 34.1326C122.838 34.1675 122.803 34.214 122.774 34.2606C122.768 34.3013 122.768 34.342 122.774 34.3828C122.774 34.4468 122.797 34.5049 122.843 34.5515C122.89 34.598 122.954 34.6213 123.018 34.6213C123.111 34.6213 123.192 34.5748 123.251 34.5049C123.338 34.406 123.384 34.278 123.379 34.1442C123.379 33.9988 123.315 33.8591 123.198 33.766C123.03 33.6438 122.82 33.5857 122.611 33.6089Z" fill="currentColor"/>
<path d="M126.183 36.3552C126.154 36.3785 126.119 36.3959 126.084 36.4017C126.061 36.4017 126.037 36.3901 126.026 36.3668C126.014 36.3436 126.014 36.3145 126.026 36.2912C126.037 36.1865 126.061 36.0875 126.096 35.9886L126.515 34.5574C126.567 34.3828 126.602 34.2024 126.608 34.0163C126.613 33.9115 126.579 33.8068 126.503 33.7253C126.427 33.6497 126.323 33.609 126.218 33.609C125.973 33.6264 125.741 33.737 125.572 33.9115C125.2 34.2897 124.874 34.7086 124.6 35.1566L125.048 33.609L123.885 33.8243V33.9464H124.013C124.059 33.9406 124.112 33.9406 124.158 33.9464C124.211 33.9464 124.263 33.9639 124.304 33.9988C124.344 34.0337 124.362 34.0803 124.362 34.1326C124.339 34.2897 124.304 34.441 124.257 34.5923L123.64 36.7159H124.147L124.315 36.1341C124.379 35.913 124.472 35.7035 124.583 35.4999C124.752 35.1857 124.949 34.889 125.165 34.6039C125.304 34.4061 125.485 34.2373 125.688 34.1035C125.752 34.057 125.834 34.0279 125.915 34.0221C125.956 34.0221 125.997 34.0337 126.026 34.0628C126.055 34.0919 126.067 34.1326 126.067 34.1733C126.061 34.3072 126.037 34.441 125.991 34.569L125.601 35.9363C125.537 36.1225 125.502 36.3203 125.485 36.5181C125.479 36.5937 125.508 36.6694 125.56 36.7217C125.613 36.7741 125.683 36.8032 125.758 36.7974C125.886 36.7916 126.014 36.745 126.113 36.6636C126.34 36.4832 126.538 36.2679 126.695 36.0235L126.59 35.9595C126.474 36.1108 126.334 36.2388 126.183 36.3552Z" fill="currentColor"/>
<path d="M129.127 33.609C128.796 33.6206 128.476 33.7195 128.202 33.8999C127.882 34.0919 127.62 34.3653 127.434 34.6912C127.254 34.9937 127.155 35.337 127.149 35.6919C127.137 35.977 127.242 36.2563 127.44 36.4599C127.638 36.6577 127.911 36.7683 128.196 36.7566C128.528 36.745 128.854 36.6461 129.133 36.4657C129.453 36.2737 129.709 36.0003 129.884 35.6744C130.058 35.3661 130.151 35.0228 130.157 34.6679C130.169 34.3828 130.064 34.1035 129.866 33.8999C129.674 33.702 129.406 33.5973 129.127 33.609ZM129.174 35.8839C128.894 36.3552 128.592 36.5937 128.278 36.5937C128.121 36.5995 127.969 36.5355 127.865 36.4192C127.748 36.2795 127.69 36.105 127.702 35.9246C127.713 35.4184 127.853 34.9297 128.121 34.4991C128.4 34.0279 128.702 33.7893 129.04 33.7893C129.191 33.7835 129.337 33.8417 129.436 33.9581C129.546 34.0919 129.604 34.2664 129.593 34.441C129.587 34.953 129.441 35.4475 129.174 35.8839Z" fill="currentColor"/>
<path d="M132.484 31.8576L131.321 32.0496V32.1777C131.402 32.1718 131.478 32.1718 131.559 32.1777C131.629 32.1718 131.699 32.1893 131.757 32.23C131.798 32.2591 131.827 32.3115 131.821 32.3638C131.798 32.5151 131.757 32.6664 131.71 32.8118L130.791 35.9944C130.739 36.1573 130.704 36.3261 130.686 36.4948C130.692 36.6577 130.826 36.7915 130.989 36.7857C131.123 36.7799 131.257 36.7392 131.367 36.6577C131.594 36.4832 131.792 36.2679 131.949 36.0235L131.844 35.9188C131.745 36.0817 131.623 36.2271 131.478 36.3493C131.437 36.3842 131.39 36.4017 131.338 36.4075C131.309 36.4075 131.28 36.3959 131.257 36.3726C131.233 36.3493 131.227 36.3144 131.227 36.2853C131.245 36.1631 131.274 36.041 131.309 35.9188L132.484 31.8576Z" fill="currentColor"/>
<path d="M134.532 33.609C134.201 33.6206 133.881 33.7195 133.601 33.8999C133.281 34.0919 133.019 34.3653 132.833 34.6912C132.653 34.9937 132.554 35.337 132.548 35.6919C132.537 35.977 132.647 36.2563 132.845 36.4599C133.043 36.6577 133.316 36.7683 133.601 36.7566C133.933 36.745 134.259 36.6461 134.538 36.4657C134.858 36.2737 135.114 36.0003 135.289 35.6744C135.463 35.3661 135.556 35.0228 135.556 34.6679C135.568 34.3828 135.463 34.1035 135.265 33.8999C135.073 33.702 134.806 33.5973 134.532 33.609ZM134.573 35.8839C134.294 36.3552 133.991 36.5937 133.677 36.5937C133.52 36.5995 133.374 36.5355 133.27 36.4192C133.153 36.2795 133.095 36.105 133.107 35.9246C133.118 35.4184 133.258 34.9297 133.526 34.4991C133.805 34.0279 134.107 33.7893 134.439 33.7893C134.59 33.7835 134.736 33.8475 134.841 33.9581C134.951 34.0919 135.003 34.2664 134.992 34.441C134.986 34.953 134.841 35.4475 134.573 35.8839Z" fill="currentColor"/>
<path d="M138.203 33.6613C138.07 33.6206 137.93 33.6031 137.79 33.6089C137.377 33.5857 136.976 33.7253 136.662 33.9929C136.406 34.2082 136.254 34.5224 136.243 34.854C136.243 35.0519 136.324 35.2497 136.464 35.3893C136.621 35.5522 136.824 35.6628 137.046 35.7035C136.83 35.7792 136.632 35.8897 136.464 36.0352C136.388 36.1108 136.342 36.2155 136.33 36.3261C136.336 36.4366 136.394 36.5355 136.481 36.5937C136.202 36.7566 136.027 36.8555 135.963 36.9021C135.864 36.9719 135.783 37.0592 135.725 37.1581C135.667 37.2453 135.632 37.3501 135.626 37.4606C135.632 37.5944 135.684 37.7166 135.777 37.8097C135.911 37.9435 136.086 38.0424 136.272 38.0832C136.807 38.2344 137.377 38.2344 137.912 38.0832C138.134 38.0134 138.337 37.8854 138.494 37.7166C138.622 37.577 138.698 37.3966 138.698 37.2104C138.698 37.0533 138.634 36.9079 138.523 36.7973C138.326 36.617 138.081 36.4948 137.819 36.4366L137.162 36.2853C137.051 36.2679 136.947 36.2272 136.854 36.1748C136.819 36.1399 136.795 36.0933 136.795 36.0468C136.795 36.0002 136.819 35.9595 136.859 35.9362C137.022 35.8141 137.203 35.7326 137.4 35.6802C137.785 35.6744 138.157 35.5348 138.454 35.2904C138.686 35.0926 138.826 34.8017 138.832 34.4933C138.826 34.377 138.808 34.2606 138.768 34.15H139.35L139.449 33.8009H138.535C138.436 33.7369 138.326 33.6904 138.203 33.6613ZM137.691 36.937C137.866 36.9603 138.04 37.0301 138.186 37.129C138.262 37.193 138.302 37.2803 138.308 37.3792C138.308 37.5537 138.198 37.6992 137.965 37.8097C137.703 37.9203 137.424 37.9784 137.139 37.9726C136.836 37.9959 136.539 37.9203 136.283 37.7632C136.155 37.6817 136.08 37.5421 136.08 37.3908C136.086 37.2512 136.132 37.1173 136.219 37.0068C136.33 36.8613 136.47 36.7508 136.638 36.681C137.203 36.8264 137.558 36.9079 137.691 36.937ZM138.192 34.7435C138.157 34.9006 138.093 35.046 138.011 35.1799C137.936 35.2904 137.843 35.3835 137.726 35.4533C137.622 35.5173 137.499 35.5522 137.377 35.5522C137.232 35.5522 137.092 35.4941 136.993 35.3835C136.883 35.2671 136.824 35.1159 136.83 34.9588C136.836 34.6737 136.923 34.3944 137.08 34.1559C137.208 33.9231 137.447 33.7777 137.715 33.7719C137.86 33.766 138.006 33.8242 138.11 33.9289C138.215 34.0453 138.267 34.1966 138.262 34.3537C138.256 34.4875 138.232 34.6155 138.192 34.7435Z" fill="currentColor"/>
<path d="M140.886 33.609L139.722 33.801V33.9348C139.821 33.9115 139.926 33.8999 140.031 33.8941C140.083 33.8883 140.135 33.9115 140.176 33.9464C140.211 33.9755 140.228 34.0163 140.228 34.0628C140.211 34.2257 140.176 34.3828 140.124 34.5341L139.681 36.0526C139.635 36.1865 139.606 36.3261 139.594 36.4716C139.594 36.553 139.623 36.6286 139.681 36.681C139.745 36.7334 139.827 36.7625 139.908 36.7625C140.071 36.7566 140.228 36.6926 140.351 36.5821C140.566 36.425 140.746 36.2272 140.892 36.0003L140.775 35.9246C140.665 36.0875 140.537 36.233 140.385 36.3552C140.351 36.3901 140.31 36.4076 140.263 36.4134C140.234 36.4134 140.205 36.4017 140.188 36.3785C140.164 36.3552 140.153 36.3261 140.153 36.2912C140.17 36.1923 140.193 36.0934 140.223 36.0003L140.886 33.609Z" fill="currentColor"/>
<path d="M140.845 31.9217L140.496 33.0911H140.612L141.613 31.9217H140.845Z" fill="currentColor"/>
<path d="M143.818 35.913L144.482 33.5857L143.941 33.6671L143.818 34.0569C143.789 33.9173 143.714 33.7893 143.609 33.6962C143.51 33.6264 143.388 33.5857 143.266 33.5857C142.998 33.6031 142.742 33.702 142.533 33.8708C142.189 34.1268 141.904 34.4526 141.706 34.8308C141.503 35.1857 141.392 35.5871 141.386 35.9944C141.369 36.2039 141.433 36.4133 141.561 36.5762C141.671 36.7042 141.823 36.7741 141.991 36.7799C142.178 36.7741 142.358 36.7217 142.515 36.617C142.835 36.3959 143.114 36.1224 143.335 35.8024L143.26 36.0584C143.219 36.1981 143.196 36.3493 143.19 36.4948C143.184 36.5704 143.207 36.6519 143.26 36.7101C143.324 36.7624 143.399 36.7857 143.481 36.7799C143.65 36.7682 143.807 36.7042 143.935 36.5937C144.127 36.4424 144.29 36.2621 144.418 36.0584L144.301 35.977C144.202 36.1282 144.086 36.2621 143.952 36.3842C143.917 36.4133 143.877 36.4308 143.836 36.4366C143.813 36.4482 143.789 36.4482 143.766 36.4366C143.743 36.4133 143.731 36.3784 143.731 36.3435C143.731 36.3202 143.731 36.2912 143.731 36.2679L143.818 35.913ZM143.109 35.8548C142.818 36.2155 142.527 36.4017 142.306 36.4017C142.201 36.4017 142.102 36.3493 142.044 36.2621C141.962 36.1632 141.916 36.0293 141.927 35.9013C141.939 35.5464 142.032 35.1973 142.195 34.8773C142.335 34.5515 142.544 34.2606 142.812 34.022C142.934 33.8999 143.097 33.83 143.271 33.8184C143.388 33.8126 143.504 33.8591 143.58 33.9464C143.661 34.0686 143.702 34.2199 143.69 34.3653C143.679 34.9122 143.469 35.4417 143.109 35.8548Z" fill="currentColor"/>
<path d="M56.2013 28.8264L54.2754 34.4992V14.8568L53.2805 14.7055L49.3299 27.5522H4V28.5704H50.0805L53.263 18.2314V37.5887L54.2522 37.7516L56.9285 29.8388H146V28.8264H56.2013Z" fill="currentColor"/>
<path d="M64.5445 23.7586C64.1896 24.003 63.7648 24.1193 63.3343 24.0903C62.927 24.1135 62.5197 24.0088 62.1706 23.7935C61.8506 23.5433 61.6121 23.2001 61.5015 22.8102L57.6499 23.1768C57.8361 24.0961 58.383 24.9048 59.1626 25.4284C59.9364 25.9579 61.2572 26.2255 63.119 26.2197C64.1838 26.2663 65.2543 26.1034 66.2551 25.731C66.93 25.4692 67.5118 25.0095 67.9249 24.4103C68.2624 23.9041 68.4485 23.3106 68.4543 22.6997C68.4543 22.1295 68.2798 21.5768 67.954 21.1113C67.5874 20.6051 67.0871 20.2153 66.5052 19.9942C65.5685 19.6626 64.591 19.4589 63.5961 19.3833L63.1132 19.3193H62.9619L62.6652 19.2669L62.4499 19.2204C62.2754 19.1913 62.1008 19.1389 61.9379 19.0633C61.6994 18.976 61.5423 18.7375 61.5597 18.4815C61.5597 18.2487 61.6703 18.0335 61.8565 17.8996C62.1416 17.7193 62.479 17.6378 62.8165 17.6669C63.2063 17.6553 63.5903 17.7658 63.9219 17.9753C64.1605 18.1498 64.3292 18.4058 64.399 18.6909L68.082 18.3244C67.8725 17.7426 67.5467 17.2073 67.122 16.7535C66.7147 16.3578 66.2201 16.0669 65.6732 15.904C64.8005 15.6829 63.8987 15.5898 62.9968 15.6247C62.0717 15.5956 61.1466 15.7178 60.2564 15.9854C59.6455 16.1949 59.1044 16.5673 58.6913 17.0676C58.2957 17.5622 58.0921 18.1789 58.1095 18.8131C58.1037 19.4008 58.2899 19.9768 58.6506 20.448C58.9823 20.9077 59.4419 21.2568 59.9713 21.4604C60.8848 21.7455 61.8157 21.955 62.7641 22.0888C63.3343 22.1644 63.8929 22.2982 64.4339 22.4902C64.6958 22.6008 64.8703 22.8568 64.8703 23.1419C64.8703 23.3862 64.7481 23.619 64.5445 23.7586Z" fill="currentColor"/>
<path d="M85.153 12H81.2606V25.9929H85.153V12Z" fill="currentColor"/>
<path d="M86.9043 25.2597C87.5676 25.923 88.481 26.2721 89.4178 26.2198C90.116 26.243 90.8141 26.0918 91.4425 25.7892C91.7393 25.6321 92.0127 25.4343 92.2629 25.2074C92.5596 24.9456 92.8331 24.6605 93.0774 24.3463V25.987H96.7022V15.8458H92.8214V20.7273C92.8854 21.3964 92.7284 22.0713 92.3793 22.6474C92.2804 22.7637 92.164 22.8626 92.036 22.9441C91.9429 23.0081 91.8382 23.0546 91.7334 23.0895L91.6287 23.1244L91.5123 23.1535C91.4192 23.1594 91.332 23.1594 91.2389 23.1535C90.8665 23.1768 90.5 23.0314 90.244 22.7579C90.1974 22.6939 90.1567 22.6299 90.116 22.5601C89.9472 22.1935 89.8716 21.7979 89.8949 21.3964V15.8575H85.9908V22.3099C85.9559 23.1419 86.1305 23.9739 86.5028 24.7186C86.6134 24.9165 86.753 25.0968 86.9043 25.2597Z" fill="currentColor"/>
<path d="M110.072 15.8575H106.192V25.9929H110.072V15.8575Z" fill="currentColor"/>
<path d="M110.998 21.3092C110.998 21.4895 110.998 21.6641 111.05 21.8386C111.05 22.0015 111.102 22.1645 111.137 22.3157V22.3797C111.172 22.5252 111.213 22.6648 111.259 22.8045L111.294 22.8976C111.341 23.0256 111.393 23.1536 111.446 23.2757C111.469 23.3165 111.492 23.3572 111.51 23.4037L111.678 23.7237L111.789 23.8925C111.847 23.9739 111.899 24.0612 111.963 24.1485L112.144 24.3696L112.295 24.5499C112.417 24.6838 112.545 24.8118 112.685 24.9339C113.156 25.347 113.709 25.667 114.302 25.8649C114.966 26.0743 115.664 26.179 116.362 26.1732C116.95 26.179 117.537 26.1092 118.107 25.9638C118.963 25.7659 119.742 25.3412 120.365 24.7245C121.342 23.6947 121.86 22.3157 121.808 20.8961C121.808 20.7099 121.808 20.5295 121.808 20.355C121.808 20.355 121.808 20.3026 121.808 20.2793C121.808 20.1223 121.773 19.971 121.75 19.8255C121.75 19.8255 121.75 19.8255 121.75 19.7906C121.75 19.6277 121.686 19.4706 121.645 19.3135C121.604 19.1506 121.552 18.9877 121.499 18.8306C121.307 18.307 121.028 17.824 120.679 17.3935C119.713 16.2299 118.282 15.648 116.397 15.648C113.592 15.4735 111.172 17.6088 111.003 20.4132C110.992 20.5993 110.992 20.7855 110.998 20.9775C110.998 21.1055 110.998 21.2277 110.998 21.3499V21.3092ZM115.129 18.9819C115.431 18.563 115.92 18.3244 116.438 18.3302C116.932 18.3302 117.398 18.5688 117.689 18.9702C117.834 19.1681 117.945 19.3892 118.014 19.6277C118.055 19.7499 118.084 19.8779 118.107 20.0059C118.125 20.0815 118.142 20.163 118.148 20.2386C118.154 20.3026 118.154 20.3666 118.148 20.4306C118.148 20.5877 118.148 20.7564 118.148 20.931C118.212 21.6525 118.032 22.3739 117.648 22.9848C117.345 23.3921 116.868 23.6307 116.362 23.6248C115.99 23.6307 115.629 23.4968 115.35 23.2583C115.251 23.171 115.158 23.0779 115.076 22.9732C114.797 22.5717 114.628 22.0946 114.599 21.6059C114.587 21.3965 114.587 21.1812 114.599 20.9717C114.599 20.7855 114.599 20.6168 114.599 20.4481C114.634 19.9186 114.814 19.4066 115.129 18.9819Z" fill="currentColor"/>
<path d="M126.41 25.9929V21.123C126.41 20.8961 126.41 20.6808 126.41 20.483C126.433 20.1572 126.515 19.8313 126.637 19.5288C126.689 19.4124 126.753 19.3019 126.835 19.203C126.91 19.1157 126.992 19.0401 127.079 18.9702C127.347 18.7666 127.673 18.6619 128.01 18.6735C128.301 18.6619 128.586 18.7375 128.83 18.8946C128.906 18.9412 128.97 18.9993 129.028 19.0692C129.092 19.139 129.15 19.2146 129.191 19.3019C129.342 19.6568 129.412 20.035 129.395 20.419V25.9929H133.404V19.5637C133.404 19.2902 133.386 19.0168 133.357 18.7492V18.7201C133.328 18.4757 133.281 18.2313 133.217 17.9928C133.095 17.4691 132.839 16.992 132.473 16.5964C131.774 15.9331 130.838 15.584 129.878 15.6364C129.162 15.6131 128.446 15.7644 127.801 16.0728C127.149 16.4335 126.573 16.928 126.113 17.5157V15.8575H122.401V25.9929H126.41Z" fill="currentColor"/>
<path d="M141.514 23.7587C141.159 24.003 140.735 24.1194 140.304 24.0903C139.897 24.1136 139.49 24.0089 139.14 23.7936C138.82 23.5492 138.588 23.2001 138.477 22.8103L134.62 23.1768C134.812 24.0961 135.353 24.9049 136.132 25.4285C136.906 25.958 138.227 26.2256 140.089 26.2198C141.142 26.2605 142.201 26.0976 143.19 25.7311C143.865 25.4692 144.452 25.0096 144.86 24.4103C145.197 23.9041 145.383 23.3107 145.389 22.6998C145.389 22.1296 145.215 21.5768 144.889 21.1114C144.528 20.6052 144.028 20.2154 143.446 19.9943C142.922 19.8023 142.381 19.6568 141.828 19.5754H141.625L141.369 19.5346L140.595 19.4299C140.031 19.395 139.472 19.2786 138.937 19.0866C138.884 19.0634 138.838 19.0284 138.791 18.9935C138.751 18.9644 138.71 18.9295 138.681 18.8888C138.599 18.7841 138.553 18.6619 138.553 18.5281C138.547 18.2953 138.663 18.0743 138.855 17.9462C139.14 17.7659 139.472 17.6844 139.81 17.7135C140.199 17.7019 140.583 17.8066 140.915 18.0219C141.154 18.1964 141.322 18.4466 141.392 18.7375L145.075 18.371C144.871 17.7833 144.546 17.2481 144.115 16.8001C143.714 16.3986 143.219 16.1077 142.678 15.939C141.805 15.7179 140.903 15.6248 140.002 15.6597C139.076 15.6306 138.151 15.7528 137.267 16.0204C136.639 16.224 136.086 16.5964 135.661 17.1026C135.393 17.4401 135.213 17.8415 135.137 18.2663C135.137 18.3303 135.137 18.4001 135.108 18.4641C135.097 18.5863 135.097 18.7143 135.108 18.8364C135.103 19.4241 135.289 20.0001 135.649 20.4714C135.987 20.931 136.447 21.2801 136.976 21.4837C137.889 21.7805 138.826 22.0016 139.78 22.1354C140.351 22.211 140.909 22.3448 141.45 22.5368C141.718 22.6474 141.892 22.9034 141.892 23.1885C141.869 23.427 141.73 23.6423 141.514 23.7587Z" fill="currentColor"/>
<path d="M10.022 15.6655L12.6402 25.9289H15.7239L18.3479 15.6655V25.9289H21.7516V12.4713H16.2883L14.8162 18.2139L14.1937 20.6576L12.0817 12.4713H6.61833V25.9289H10.022V15.6655Z" fill="currentColor"/>
<path d="M34.7611 22.8801H27.5814V20.227H34.0571V17.4808H27.5814V15.3455H34.5575V12.4713H23.4156V25.9289H34.7611V22.8801Z" fill="currentColor"/>
<path d="M44.7277 25.5623C45.4317 25.3645 46.0717 24.9979 46.6011 24.4917C47.1946 23.939 47.6601 23.2583 47.9626 22.5019C48.335 21.4255 48.4979 20.291 48.4513 19.1564C48.4513 18.8539 48.4513 18.5746 48.4164 18.2778V18.1324C48.3932 17.8531 48.3582 17.5797 48.3059 17.3062C48.2593 17.0502 48.207 16.7942 48.143 16.5498C47.9335 15.7644 47.5611 15.0255 47.055 14.3913C46.5604 13.7687 45.9204 13.28 45.1931 12.9658C44.2564 12.6051 43.2556 12.4363 42.2549 12.4712H36.0759V25.9288H42.2549C43.0927 25.9114 43.9247 25.7892 44.7277 25.5623ZM40.2302 22.8684V15.52H41.2658C42.1095 15.4444 42.9473 15.7295 43.564 16.3055C44.0295 16.8349 44.2622 17.8066 44.2622 19.2146C44.2622 19.3659 44.2622 19.4939 44.2622 19.6335C44.2622 19.7731 44.2622 20.0291 44.2273 20.2153V20.2735C44.2273 20.4306 44.1924 20.5819 44.1749 20.7215C44.1575 20.8611 44.1749 20.8321 44.1749 20.8844C44.1749 20.9368 44.1342 21.0822 44.1109 21.1695C44.0818 21.2975 44.0411 21.4255 43.9887 21.5477C43.8258 21.9724 43.5233 22.3332 43.1276 22.5601C42.54 22.7928 41.9058 22.8859 41.2716 22.8452L40.2302 22.8684Z" fill="currentColor"/>
</svg>
