<svg width="150" height="50" viewBox="0 0 150 50" fill="none" xmlns="http://www.w3.org/2000/svg">
<path d="M126.272 17.0596C126.521 17.0643 126.769 17.0201 127.001 16.9295C127.233 16.839 127.445 16.7038 127.624 16.5317C127.803 16.3597 127.946 16.1543 128.045 15.9272C128.143 15.7002 128.196 15.456 128.199 15.2088C128.196 14.9616 128.143 14.7175 128.045 14.4904C127.946 14.2634 127.803 14.058 127.624 13.8859C127.445 13.7139 127.233 13.5787 127.001 13.4881C126.769 13.3975 126.521 13.3533 126.272 13.3581C126.023 13.3533 125.775 13.3975 125.543 13.4881C125.311 13.5787 125.099 13.7139 124.92 13.8859C124.741 14.058 124.598 14.2634 124.499 14.4904C124.401 14.7175 124.348 14.9616 124.345 15.2088C124.348 15.456 124.401 15.7002 124.499 15.9272C124.598 16.1543 124.741 16.3597 124.92 16.5317C125.099 16.7038 125.311 16.839 125.543 16.9295C125.775 17.0201 126.023 17.0643 126.272 17.0596ZM126.272 13.776C126.467 13.775 126.661 13.8134 126.84 13.8888C127.02 13.9642 127.183 14.0751 127.318 14.2147C127.453 14.3543 127.558 14.5197 127.627 14.7009C127.695 14.8821 127.726 15.0752 127.717 15.2685C127.72 15.4574 127.684 15.6448 127.612 15.8197C127.54 15.9946 127.434 16.1535 127.299 16.2871C127.165 16.4206 127.004 16.5261 126.828 16.5972C126.652 16.6684 126.463 16.7038 126.272 16.7014C126.077 16.7024 125.884 16.664 125.704 16.5886C125.524 16.5132 125.362 16.4023 125.226 16.2627C125.091 16.1231 124.986 15.9576 124.917 15.7765C124.849 15.5953 124.818 15.4022 124.827 15.2088C124.825 15.02 124.86 14.8326 124.932 14.6577C125.004 14.4828 125.11 14.3238 125.245 14.1903C125.38 14.0568 125.54 13.9513 125.716 13.8802C125.893 13.809 126.082 13.7736 126.272 13.776Z" fill="currentColor"/>
<path d="M125.971 15.388H126.272C126.513 15.388 126.573 15.5074 126.633 15.6865C126.62 15.8545 126.662 16.0222 126.754 16.1641H127.236C127.236 16.1044 127.175 15.985 127.115 15.6865C127.055 15.388 126.934 15.2686 126.754 15.2089C126.848 15.1804 126.932 15.126 126.996 15.052C127.06 14.978 127.101 14.8874 127.115 14.791C127.124 14.7118 127.111 14.6318 127.08 14.5586C127.048 14.4855 126.998 14.4216 126.934 14.373C126.725 14.2875 126.499 14.2468 126.272 14.2536C126.03 14.2383 125.786 14.2585 125.55 14.3133V16.1641H125.971V15.388ZM125.911 14.5521H126.152C126.453 14.5521 126.573 14.6715 126.573 14.8507C126.573 15.0298 126.393 15.1492 126.152 15.1492H125.911V14.5521Z" fill="currentColor"/>
<path d="M126.495 19.1909C125.176 17.7581 123.352 17.0596 120.913 17.0596C119.573 17.045 118.249 17.3436 117.047 17.9312C116.116 18.3444 115.306 18.9853 114.693 19.7939C113.326 18.0029 111.08 17.0596 107.967 17.0596C106.864 17.0419 105.772 17.2799 104.777 17.7546C103.783 18.2293 102.915 18.9276 102.241 19.7939L101.036 17.4775H97.9716V40.4626H102.548V23.6984C102.99 22.9454 103.61 22.3103 104.354 21.8477C105.04 21.342 105.861 21.0472 106.715 20.9999C107.829 20.9341 108.933 21.2502 109.84 21.8954C110.21 22.1735 110.507 22.5355 110.707 22.9509C110.907 23.3664 111.004 23.8233 110.99 24.2835V40.4626H115.566V23.6984C115.932 22.9492 116.491 22.3088 117.186 21.8417C117.92 21.303 118.807 21.0083 119.721 20.9999C122.599 20.9999 123.996 22.6417 123.996 26.0148V40.4626H128.512V25.179C128.5 22.6417 127.826 20.6357 126.495 19.1909Z" fill="currentColor"/>
<path d="M88.6384 33.4298C88.2253 34.4314 87.5103 35.282 86.5912 35.8656C85.5985 36.5936 84.3937 36.9813 83.159 36.97C80.3229 36.97 78.944 35.37 78.944 32.0745V17.5074H74.3075V32.4924C74.3075 35.1432 74.9819 37.1611 76.3789 38.6715C77.7759 40.182 79.7509 40.8506 82.2558 40.8506C83.6988 40.833 85.1137 40.453 86.3684 39.7462C87.2225 39.3376 87.9924 38.7748 88.6384 38.0865V40.4745H93.2147V17.4894H88.6384V33.4298Z" fill="currentColor"/>
<path d="M65.703 27.4178L62.8789 26.1044C61.3314 25.3701 60.5788 24.385 60.5788 23.0895C60.5779 22.8024 60.6537 22.5202 60.7986 22.2716C60.9435 22.023 61.1523 21.817 61.4037 21.6745C62.0773 21.2619 62.8582 21.0544 63.6497 21.0775C65.3405 21.1588 66.9527 21.8095 68.2199 22.9223L68.5631 23.2029L69.9179 18.8148L69.665 18.7133C67.0277 17.6566 64.9623 17.1372 63.3486 17.1372C61.4101 17.0566 59.5007 17.6267 57.9294 18.7551C57.2377 19.2878 56.6853 19.9775 56.3185 20.7661C55.9518 21.5546 55.7814 22.419 55.8219 23.2865C55.8191 23.9987 55.9497 24.7052 56.2073 25.3701C56.4581 26.0152 56.8369 26.6039 57.3212 27.1014C57.7754 27.7307 58.3529 28.2627 59.0192 28.6656C60.2119 29.3986 61.4554 30.047 62.7405 30.6059C65.0165 31.6268 66.1185 32.7909 66.1185 34.1342C66.1185 36.0506 65.0466 36.9402 62.7465 36.9402C61.4699 36.9402 59.7358 36.2357 57.55 34.8447L57.2369 34.6357L55.6352 38.988L55.858 39.1133C57.935 40.2564 60.2526 40.9024 62.626 40.9999C65.1731 40.9999 67.2023 40.4029 68.6474 39.2089C69.3754 38.6081 69.9539 37.8491 70.3382 36.9907C70.7225 36.1324 70.9022 35.1979 70.8633 34.2596C70.9042 32.8264 70.4613 31.4208 69.6048 30.2656C68.5779 28.9942 67.2325 28.0122 65.703 27.4178Z" fill="currentColor"/>
<path d="M43.7791 21.4178H46.85V40.4626H51.4263V17.4775H43.7791V21.4178Z" fill="currentColor"/>
<path d="M49.3188 8.9999C48.9547 8.99699 48.5938 9.06687 48.2576 9.20535C47.9213 9.34382 47.6167 9.54806 47.3619 9.80587C47.1024 10.059 46.8968 10.3611 46.7571 10.6944C46.6175 11.0276 46.5467 11.3853 46.549 11.7462C46.5471 12.107 46.618 12.4646 46.7576 12.7978C46.8972 13.131 47.1027 13.4332 47.3619 13.6865C47.617 13.9435 47.9218 14.1468 48.2581 14.2843C48.5943 14.4217 48.9551 14.4905 49.3188 14.4865C49.6825 14.4905 50.0433 14.4217 50.3795 14.2843C50.7158 14.1468 51.0206 13.9435 51.2758 13.6865C51.5368 13.4333 51.7434 13.1303 51.8831 12.7958C52.0228 12.4613 52.0927 12.1022 52.0886 11.7402C52.0923 11.3791 52.0221 11.0211 51.8824 10.6876C51.7427 10.3541 51.5363 10.0522 51.2758 9.7999C51.0204 9.54317 50.7155 9.34004 50.3793 9.2026C50.0431 9.06515 49.6824 8.99621 49.3188 8.9999Z" fill="currentColor"/>
<path d="M32.2181 17.0596C29.3158 17.0596 27.2203 18.0268 25.8294 20.0148L24.7094 17.4775H21.5V40.4626H26.0763V23.6566C26.6314 22.8795 27.3638 22.2433 28.2138 21.7999C29.0225 21.3085 29.9455 21.0329 30.8934 20.9999C32.471 20.9999 33.609 21.4417 34.2653 22.3133C34.9217 23.185 35.289 24.8387 35.289 27.1492V40.4626H39.9254V26.3133C39.9254 20.176 37.3302 17.0596 32.2181 17.0596Z" fill="currentColor"/>
</svg>
