<svg width="150" height="50" viewBox="0 0 150 50" fill="none" xmlns="http://www.w3.org/2000/svg">
<path d="M44.0878 23.277C43.461 22.6207 42.7164 22.0881 41.8928 21.707C41.0614 21.3263 40.1573 21.1301 39.2428 21.132C38.0388 21.1319 36.8565 21.4529 35.8179 22.062C34.7262 22.7022 33.8252 23.6222 33.2079 24.727C32.5139 26.0068 32.169 27.4467 32.2079 28.902C32.1869 30.2129 32.5019 31.5073 33.1229 32.662C33.7322 33.7713 34.642 34.6863 35.7479 35.302C36.9738 35.9686 38.3527 36.303 39.7479 36.272C40.6487 36.2734 41.5432 36.1212 42.3928 35.822C43.1171 35.5923 43.7944 35.235 44.3928 34.767C44.6405 34.6009 44.845 34.3782 44.9893 34.1174C45.1337 33.8565 45.2137 33.565 45.2228 33.267C45.2247 33.0651 45.1858 32.865 45.1085 32.6786C45.0311 32.4922 44.917 32.3232 44.7728 32.182C44.2728 31.652 43.4928 31.547 42.6328 31.982C42.4328 32.087 42.2128 32.217 41.9678 32.372C41.6945 32.5313 41.3999 32.6508 41.0928 32.727C40.6013 32.8408 40.0972 32.8913 39.5928 32.877C38.9186 32.8808 38.2554 32.7061 37.6705 32.3706C37.0856 32.0352 36.6 31.5509 36.2629 30.967C36.0874 30.6692 35.956 30.3475 35.8729 30.012H44.2978C44.7582 30.0179 45.2054 29.8582 45.5578 29.562C45.7383 29.4157 45.8843 29.2314 45.9854 29.0223C46.0865 28.8131 46.1403 28.5843 46.1428 28.352C46.1492 27.3934 45.9586 26.4438 45.5828 25.562C45.2243 24.7175 44.7181 23.9437 44.0878 23.277ZM42.3078 26.922H35.8928C35.9228 26.807 35.9478 26.712 35.9778 26.622C36.1265 26.1531 36.3795 25.724 36.7178 25.367C37.0201 25.0591 37.395 24.8322 37.8079 24.707C38.7437 24.3988 39.7603 24.4469 40.6628 24.842C41.1047 25.054 41.4941 25.3614 41.8029 25.742C42.0861 26.0755 42.262 26.4868 42.3078 26.922Z" fill="currentColor"/>
<path d="M72.2628 22.007C71.3804 21.3702 70.3037 21.0608 69.2178 21.132C68.4516 21.1179 67.6934 21.2895 67.0079 21.632C66.3898 21.9485 65.8287 22.3659 65.3479 22.867C65.0894 23.1384 64.852 23.4293 64.6378 23.737C64.4048 23.1665 64.0655 22.6456 63.6378 22.202C62.9228 21.482 61.8179 21.117 60.3529 21.117C59.7752 21.1126 59.2013 21.2108 58.6578 21.407C58.1569 21.5948 57.6842 21.8505 57.2529 22.167C56.9132 22.4141 56.5999 22.6956 56.3179 23.007C56.2827 22.5966 56.1059 22.2113 55.8179 21.917C55.4699 21.5744 55.0012 21.3823 54.5128 21.3823C54.0245 21.3823 53.5558 21.5744 53.2079 21.917C53.0418 22.0913 52.9121 22.2968 52.8262 22.5217C52.7404 22.7466 52.7002 22.9864 52.7079 23.227V34.147C52.7006 34.3883 52.741 34.6286 52.8268 34.8543C52.9126 35.0799 53.0421 35.2864 53.2079 35.462C53.557 35.8022 54.0253 35.9926 54.5128 35.9926C55.0004 35.9926 55.4687 35.8022 55.8179 35.462C55.9836 35.2864 56.1131 35.0799 56.1989 34.8543C56.2847 34.6286 56.3251 34.3883 56.3179 34.147V27.392C56.3097 26.8843 56.4228 26.3821 56.6479 25.927C56.8764 25.4955 57.2233 25.1381 57.6479 24.897C58.136 24.6244 58.689 24.4896 59.2478 24.507C59.7558 24.4723 60.2613 24.6039 60.6878 24.882C61.0192 25.1316 61.2598 25.4828 61.3728 25.882C61.5141 26.3693 61.5832 26.8746 61.5778 27.382V34.152C61.5695 34.3934 61.6094 34.6341 61.6953 34.8599C61.7811 35.0857 61.9112 35.2921 62.0778 35.467C62.427 35.8072 62.8953 35.9976 63.3829 35.9976C63.8704 35.9976 64.3387 35.8072 64.6878 35.467C64.8536 35.2914 64.9831 35.0849 65.0689 34.8593C65.1547 34.6336 65.1951 34.3933 65.1878 34.152V27.392C65.1797 26.8843 65.2928 26.3821 65.5178 25.927C65.7433 25.4933 66.091 25.1352 66.5178 24.897C67.0062 24.6249 67.5591 24.4901 68.1179 24.507C68.6274 24.4723 69.1344 24.6039 69.5628 24.882C69.8926 25.1331 70.1328 25.4837 70.2478 25.882C70.3873 26.3695 70.4547 26.8749 70.4478 27.382V34.152C70.4401 34.3926 70.4804 34.6323 70.5662 34.8572C70.6521 35.0821 70.7818 35.2877 70.9478 35.462C71.2964 35.8034 71.7649 35.9946 72.2528 35.9946C72.7408 35.9946 73.2093 35.8034 73.5578 35.462C73.7245 35.2871 73.8546 35.0807 73.9404 34.8549C74.0263 34.6291 74.0662 34.3884 74.0578 34.147V27.392C74.0691 26.3516 73.943 25.3143 73.6828 24.307C73.4632 23.41 72.9663 22.6052 72.2628 22.007Z" fill="currentColor"/>
<path d="M83.2778 21.392C83.0351 21.386 82.7939 21.4305 82.5692 21.5226C82.3446 21.6147 82.1415 21.7524 81.9729 21.927C81.8068 22.1013 81.6771 22.3068 81.5912 22.5317C81.5054 22.7566 81.4652 22.9964 81.4729 23.237V34.157C81.4652 34.3976 81.5054 34.6373 81.5912 34.8622C81.6771 35.0871 81.8068 35.2927 81.9729 35.467C82.3214 35.8084 82.7899 35.9996 83.2778 35.9996C83.7658 35.9996 84.2343 35.8084 84.5829 35.467C84.7495 35.2921 84.8796 35.0857 84.9654 34.8599C85.0513 34.6341 85.0912 34.3934 85.0829 34.152V23.242C85.0917 23.0012 85.052 22.7612 84.9661 22.5361C84.8802 22.3111 84.7498 22.1056 84.5829 21.932C84.415 21.756 84.2122 21.617 83.9874 21.524C83.7627 21.431 83.521 21.3861 83.2778 21.392Z" fill="currentColor"/>
<path d="M83.2778 15.602C82.7342 15.5643 82.1916 15.6878 81.7178 15.957C81.5133 16.1231 81.3535 16.3378 81.2531 16.5814C81.1526 16.825 81.1147 17.0899 81.1428 17.352V17.917C81.116 18.1683 81.1471 18.4225 81.2338 18.66C81.3205 18.8975 81.4604 19.112 81.6428 19.287C82.1182 19.5813 82.6758 19.7146 83.2328 19.667C83.7935 19.712 84.3547 19.5865 84.8428 19.307C85.0432 19.1392 85.1992 18.9245 85.2969 18.6821C85.3945 18.4396 85.4309 18.1768 85.4028 17.917V17.352C85.4289 17.1014 85.3974 16.8482 85.3107 16.6116C85.2241 16.3751 85.0846 16.1614 84.9028 15.987C84.4174 15.6855 83.8469 15.5504 83.2778 15.602Z" fill="currentColor"/>
<path d="M98.1128 25.037C98.3375 25.0424 98.561 25.0032 98.7704 24.9216C98.9798 24.8401 99.171 24.7178 99.3329 24.562C99.4932 24.4094 99.6203 24.2255 99.7063 24.0216C99.7924 23.8177 99.8354 23.5982 99.8328 23.377C99.8369 23.1506 99.7953 22.9258 99.7106 22.7159C99.6258 22.506 99.4997 22.3153 99.3396 22.1552C99.1795 21.9952 98.9888 21.869 98.7789 21.7842C98.569 21.6995 98.3442 21.6579 98.1179 21.662H96.4728V20.202C96.4797 19.9615 96.4391 19.722 96.3533 19.4972C96.2675 19.2724 96.1382 19.0667 95.9728 18.892C95.807 18.7164 95.6059 18.578 95.3827 18.4857C95.1594 18.3935 94.9192 18.3496 94.6779 18.357C94.4343 18.3522 94.1922 18.3967 93.9662 18.4877C93.7402 18.5788 93.5349 18.7145 93.3626 18.8868C93.1904 19.059 93.0546 19.2643 92.9636 19.4903C92.8726 19.7163 92.8281 19.9584 92.8329 20.202V21.662H91.8329C91.6057 21.6598 91.3804 21.7028 91.17 21.7887C90.9597 21.8745 90.7686 22.0014 90.6078 22.162C90.4466 22.3138 90.3188 22.4976 90.2327 22.7017C90.1466 22.9057 90.1041 23.1255 90.1078 23.347C90.1024 23.5737 90.143 23.7991 90.2272 24.0097C90.3115 24.2202 90.4376 24.4115 90.598 24.5719C90.7583 24.7322 90.9496 24.8583 91.1601 24.9426C91.3707 25.0268 91.5961 25.0674 91.8228 25.062H92.8228V32.127C92.7906 32.8657 92.9364 33.6013 93.2478 34.272C93.491 34.7579 93.8629 35.1677 94.3228 35.457C94.737 35.7154 95.2 35.8856 95.6828 35.957C96.1001 36.0181 96.5211 36.0499 96.9429 36.052C97.5933 36.055 98.2325 35.8823 98.7928 35.552C99.0621 35.4224 99.2906 35.2215 99.4537 34.9712C99.6168 34.7208 99.7081 34.4306 99.7178 34.132C99.7377 33.7311 99.6076 33.3371 99.3529 33.027C99.2508 32.8984 99.1218 32.7937 98.9749 32.7203C98.8281 32.6469 98.667 32.6065 98.5028 32.602C98.2607 32.5991 98.0205 32.6467 97.7978 32.742C97.6498 32.804 97.4909 32.8359 97.3303 32.8359C97.1698 32.8359 97.0109 32.804 96.8628 32.742C96.7409 32.6935 96.6387 32.6055 96.5728 32.492C96.4914 32.3384 96.4533 32.1655 96.4629 31.992V25.037H98.1128Z" fill="currentColor"/>
<path d="M116.653 23.277C116.024 22.6205 115.278 22.088 114.453 21.707C113.622 21.3257 112.717 21.1295 111.803 21.132C110.6 21.132 109.42 21.4531 108.383 22.062C107.291 22.7022 106.39 23.6222 105.773 24.727C105.079 26.0068 104.734 27.4467 104.773 28.902C104.752 30.2129 105.067 31.5073 105.688 32.662C106.296 33.7724 107.206 34.6878 108.313 35.302C109.539 35.9686 110.918 36.303 112.313 36.272C113.214 36.2734 114.108 36.1212 114.958 35.822C115.682 35.5923 116.359 35.235 116.958 34.767C117.205 34.6009 117.41 34.3782 117.554 34.1174C117.699 33.8565 117.779 33.565 117.788 33.267C117.79 33.0651 117.751 32.865 117.673 32.6786C117.596 32.4922 117.482 32.3232 117.338 32.182C116.838 31.652 116.053 31.547 115.193 31.982C115 32.0886 114.78 32.2186 114.533 32.372C114.26 32.5313 113.965 32.6508 113.658 32.727C113.166 32.8404 112.662 32.8908 112.158 32.877C111.484 32.8799 110.822 32.7048 110.238 32.3694C109.654 32.034 109.17 31.5501 108.833 30.967C108.655 30.6702 108.524 30.3482 108.443 30.012H116.893C117.353 30.0179 117.8 29.8582 118.153 29.562C118.333 29.415 118.478 29.2306 118.579 29.0216C118.68 28.8126 118.734 28.5841 118.738 28.352C118.741 27.3937 118.551 26.4447 118.178 25.562C117.81 24.7152 117.294 23.9413 116.653 23.277ZM114.893 26.922H108.478C108.501 26.8205 108.529 26.7203 108.563 26.622C108.71 26.1534 108.961 25.7243 109.298 25.367C109.603 25.0601 109.979 24.8334 110.393 24.707C111.329 24.3988 112.345 24.4469 113.248 24.842C113.688 25.0542 114.076 25.3616 114.383 25.742C114.669 26.0739 114.847 26.4857 114.893 26.922Z" fill="currentColor"/>
<path d="M137.608 29.582C137.789 29.4359 137.936 29.2518 138.038 29.0427C138.14 28.8336 138.194 28.6046 138.198 28.372C138.201 27.4137 138.011 26.4647 137.638 25.582C137.278 24.731 136.77 23.9506 136.138 23.277C135.509 22.6205 134.763 22.088 133.938 21.707C133.107 21.3257 132.202 21.1295 131.288 21.132C130.085 21.1313 128.904 21.4524 127.868 22.062C126.776 22.7022 125.875 23.6222 125.258 24.727C124.562 26.0059 124.217 27.4464 124.258 28.902C124.239 30.2126 124.554 31.5064 125.173 32.662C125.784 33.7716 126.696 34.6866 127.803 35.302C129.029 35.9686 130.408 36.303 131.803 36.272C132.702 36.2734 133.595 36.1212 134.443 35.822C135.167 35.5917 135.844 35.2345 136.443 34.767C136.69 34.6009 136.895 34.3782 137.039 34.1174C137.184 33.8565 137.264 33.565 137.273 33.267C137.272 32.8601 137.11 32.47 136.823 32.182C136.323 31.652 135.538 31.547 134.678 31.982C134.478 32.0886 134.258 32.2186 134.018 32.372C133.745 32.5313 133.45 32.6508 133.143 32.727C132.651 32.8404 132.147 32.8908 131.643 32.877C130.969 32.8793 130.306 32.7039 129.722 32.3686C129.137 32.0333 128.651 31.5499 128.313 30.967C128.139 30.6681 128.008 30.3468 127.923 30.012H136.348C136.806 30.0253 137.253 29.8726 137.608 29.582ZM127.943 26.922C127.973 26.812 128.003 26.712 128.033 26.622C128.18 26.1534 128.431 25.7243 128.768 25.367C129.072 25.0589 129.448 24.832 129.863 24.707C130.799 24.3988 131.815 24.4469 132.718 24.842C133.158 25.0542 133.546 25.3616 133.853 25.742C134.136 26.0748 134.311 26.4867 134.353 26.922H127.943Z" fill="currentColor"/>
<path d="M20.9867 21.7838L17.1623 20.5948C16.6481 20.435 16.1017 20.7222 15.9418 21.2364L11.8464 34.4095C11.6865 34.9237 11.9738 35.4701 12.488 35.63L16.3124 36.819C16.8266 36.9788 17.3731 36.6916 17.5329 36.1774L21.6283 23.0043C21.7882 22.4901 21.5009 21.9437 20.9867 21.7838Z" fill="currentColor"/>
<path d="M19.9729 13.137H16.0879C15.0544 13.137 14.0632 13.5472 13.3319 14.2775C12.6007 15.0078 12.1892 15.9985 12.1879 17.032V24.807C12.1911 25.4692 12.3632 26.1197 12.6879 26.697L14.5279 20.787C14.6817 20.2816 14.9944 19.8394 15.4196 19.5259C15.8447 19.2125 16.3596 19.0445 16.8879 19.047C17.137 19.046 17.3849 19.0831 17.6229 19.157L21.4479 20.347C22.0703 20.5472 22.5896 20.9833 22.8943 21.5619C23.199 22.1405 23.2649 22.8154 23.0779 23.442L21.4879 28.552C23.2563 28.2033 24.8489 27.2513 25.9934 25.8588C27.1379 24.4662 27.7633 22.7195 27.7629 20.917C27.7629 19.8944 27.5613 18.8819 27.1697 17.9374C26.7781 16.9928 26.2041 16.1347 25.4806 15.4121C24.7571 14.6896 23.8983 14.1167 22.9532 13.7263C22.0081 13.3359 20.9954 13.1357 19.9729 13.137Z" fill="currentColor"/>
<path d="M28.0279 34.392L26.0279 27.932C24.6081 29.1503 22.8528 29.9103 20.9929 30.112L20.7329 30.952L22.3479 36.157C22.4304 36.3997 22.603 36.6015 22.8301 36.7206C23.0571 36.8397 23.3212 36.867 23.5679 36.797L27.3929 35.612C27.6347 35.5284 27.8353 35.3554 27.9534 35.1285C28.0715 34.9015 28.0982 34.638 28.0279 34.392Z" fill="currentColor"/>
</svg>
