<svg width="150" height="50" viewBox="0 0 150 50" fill="none" xmlns="http://www.w3.org/2000/svg">
<path d="M63.4109 25.0015C63.4109 28.9005 66.249 31.7737 70.9913 31.7737C72.9912 31.7737 74.8803 31.4511 76.8323 30.5258L78.6047 32.9912C76.1497 34.3091 73.7876 35 70.159 35C62.5936 35 57.028 31.2958 57.028 25.0046V25.0015C57.028 18.7102 62.5936 15.0061 70.159 15.0061C73.7876 15.0061 75.8743 15.5448 78.431 16.6588L76.6107 19.4925C74.6767 18.4454 72.9912 18.2293 70.9913 18.2293C66.249 18.2293 63.4109 21.0995 63.4109 24.9954" fill="currentColor"/>
<path d="M92.2865 15C84.9576 15 79.6764 18.7072 79.6764 24.9985C79.6764 31.2928 84.9606 34.997 92.2865 34.997C99.6154 34.997 104.9 31.2928 104.9 24.9985C104.897 18.7072 99.6154 15 92.2865 15ZM92.2835 31.8863C88.2538 31.8863 86.0294 28.8092 86.0294 24.9954C86.0294 21.1817 88.2568 18.1076 92.2835 18.1076C96.3132 18.1076 98.5377 21.1848 98.5377 24.9954C98.5377 28.8061 96.3162 31.8863 92.2835 31.8863Z" fill="currentColor"/>
<path d="M123.943 26.4473V34.4917H130V15.5022H123.943V22.7431H114.689V15.5022H108.648V34.4917H114.689V26.4473H123.943Z" fill="currentColor"/>
<path d="M53.3815 15.5022H47.0046V34.4917H53.3815V15.5022Z" fill="currentColor"/>
<path d="M28.7151 24.1949V26.009C31.715 28.3678 34.7717 31.4998 37.0111 34.4887H44.1484C41.6665 31.5272 37.8554 28.0026 35.0501 26.2312C38.3434 26.0912 42.0168 24.7367 42.0168 20.8926C42.0168 15.9588 36.8315 15.0578 31.5922 15.0578C27.308 15.0578 23.3621 15.2587 21 15.4565V34.4947H26.9488V18.3176C28.0505 18.1989 29.2331 18.065 31.6192 18.065C34.6849 18.065 36.2357 19.0937 36.2357 20.8926C36.2327 22.4235 35.592 24.2619 28.7151 24.1949Z" fill="currentColor"/>
</svg>
