<svg width="150" height="50" viewBox="0 0 150 50" fill="none" xmlns="http://www.w3.org/2000/svg">
<path d="M84.4474 12.5794C83.1909 12.5438 82.2782 12.9745 81.1995 14.4483L68.524 31.6361L63.6481 14.8198C63.1424 13.1168 62.0321 12.5517 61.0127 12.5597C59.4678 12.5597 58.6894 13.2116 57.8754 14.6617L46.7093 37.0849H52.9522L60.5148 21.6238L65.2563 37.0849H70.4719L81.887 21.7107L81.8277 37.0849H87.1895L87.15 15.5428C87.15 13.4566 85.8066 12.615 84.4671 12.5794" fill="currentColor"/>
<path d="M39.1862 16.5583L34.1523 37.0809H39.8579L44.8245 16.5583H39.1862Z" fill="currentColor"/>
<path d="M18.8808 25.8871H14.8506L16.352 19.6956H20.6154C22.8755 19.6956 24.053 20.7545 23.8317 22.6985C23.6025 24.7057 21.6269 25.8871 18.8808 25.8871ZM29.4543 22.4061C29.7625 19.6837 28.178 16.5583 22.4843 16.5583H11.4565L6.48584 37.0809H12.14L14.009 29.3761H16.9131L21.9233 37.0809H28.0832L22.4646 28.9138C27.451 27.6731 29.1461 25.1324 29.4582 22.4061" fill="currentColor"/>
<path d="M101.872 29.4511L106.859 21.9438L108.751 29.4511H101.872ZM110.668 37.0849H116.085L110.921 18.1783C110.237 16.0209 108.905 15.452 107.511 15.5626C106.637 15.6337 105.733 16.0091 104.792 17.2498L91.2316 37.0849H96.7633L99.5292 32.9006H109.609L110.668 37.0849Z" fill="currentColor"/>
<path d="M133.3 33.2878C128.717 33.2206 126.101 30.6326 126.473 27.3609C126.978 22.9198 131.036 20.2171 136.71 20.2487C138.663 20.2306 140.611 20.4428 142.515 20.8809L143.514 16.7598C141.501 16.3386 139.451 16.115 137.394 16.0921C127.662 16.0921 121.482 20.5846 120.724 27.2582C120.048 33.185 124.24 37.4405 133.261 37.4405C135.145 37.4293 137.024 37.2588 138.879 36.9308L139.97 32.4422C137.808 33.0677 135.562 33.3529 133.312 33.2878" fill="currentColor"/>
</svg>
