
<svg width="150" height="50" viewBox="0 0 150 50" fill="none" xmlns="http://www.w3.org/2000/svg">
<path fill-rule="evenodd" clip-rule="evenodd" d="M44.5192 22.3618C44.4322 21.8433 44.1588 21.5323 43.7984 21.3432C43.438 21.1541 42.9969 21.0748 42.506 21.0748C41.4062 21.0748 40.9153 21.3859 40.9153 21.9287C40.9153 24.1733 49.6765 22.7827 49.6765 28.2234C49.6765 31.6941 46.7313 33.3775 42.5433 33.3775C38.523 33.3775 35.8947 31.0719 35.789 28.3698H40.5735C40.6792 28.9127 40.9774 29.303 41.4 29.5531C41.8038 29.8032 42.332 29.9252 42.8167 29.9252C44.0656 29.9252 44.892 29.5287 44.892 28.8212C44.892 26.5583 36.1308 28.1136 36.1308 22.3984C36.1308 19.2205 38.9269 17.6164 42.7359 17.6164C46.9674 17.6164 48.8936 19.739 49.254 22.3557H44.5192V22.3618Z" fill="currentColor"/>
<path fill-rule="evenodd" clip-rule="evenodd" d="M59.1461 21.2822C61.3457 21.2212 62.197 23.3804 62.197 25.4176C62.197 27.8879 61.3519 29.7178 59.1896 29.7178C56.7973 29.7178 56.207 27.3268 56.207 25.4176C56.2008 23.5268 56.8781 21.2822 59.1461 21.2822ZM59.1896 17.6225C54.4486 17.6225 51.2113 20.6783 51.2113 25.3749C51.2113 30.468 54.4051 33.3775 59.1896 33.3775C63.7007 33.3775 67.1928 30.5107 67.1928 25.4176C67.1866 21.4713 64.6265 17.6225 59.1896 17.6225Z" fill="currentColor"/>
<path fill-rule="evenodd" clip-rule="evenodd" d="M74.3882 21.5079H75.3388C78.0045 21.5079 79.0422 22.3374 79.0422 25.4543C79.0422 28.2783 77.7746 29.486 75.4445 29.486H74.3882V21.5079ZM75.954 32.9811C80.8441 32.9811 84.0379 30.8218 84.0379 25.192C84.0379 20.2697 80.9871 18.025 76.0783 18.025H69.3862V32.9872H75.954V32.9811Z" fill="currentColor"/>
<path fill-rule="evenodd" clip-rule="evenodd" d="M86.0885 32.9811V18.0189H91.0843V32.9811H86.0885Z" fill="currentColor"/>
<path fill-rule="evenodd" clip-rule="evenodd" d="M93.9861 32.9811V18.0189H100.02L102.71 27.3512L105.394 18.0189H111.428V32.9811H106.941V28.4064L107.004 26.0825L107.258 23.3804H107.215L104.444 32.9811H100.97L98.1989 23.3804H98.1554L98.3667 25.5823L98.4723 27.9124V32.9811H93.9861Z" fill="currentColor"/>
<path fill-rule="evenodd" clip-rule="evenodd" d="M122.5 27.888H119.344L120.891 22.5265L122.5 27.888ZM117.822 32.9811L118.393 31.0048H123.37L123.961 32.9811H128.938L123.476 18.0189H118.393L112.931 32.9811H117.822Z" fill="currentColor"/>
<path fill-rule="evenodd" clip-rule="evenodd" d="M140.153 23.7342C140.004 22.1788 139.01 21.2822 137.444 21.2822C135.686 21.2822 134.629 22.7583 134.629 25.6433C134.629 27.7416 135.095 29.7178 137.637 29.7178C139.246 29.7178 140.01 28.6138 140.197 27.1804H145C144.553 31.0475 141.738 33.3714 137.718 33.3714C132.678 33.3714 129.634 30.34 129.634 25.4725C129.634 20.6295 132.977 17.6164 137.233 17.6164C141.887 17.6164 144.491 19.8793 144.894 23.7281H140.153V23.7342Z" fill="currentColor"/>
<path fill-rule="evenodd" clip-rule="evenodd" d="M23.3431 17.3785H19.7702V16H15.5449V17.3785H11.1395L4 24.9114V34.9939C12.7612 34.9939 21.5225 35 30.2837 35V24.5942L23.3431 17.3785ZM22.6099 19.062L28.1338 24.7955H18.3162L12.8669 19.062H22.6099ZM11.1954 19.7634L15.9675 24.7833H6.42332L11.1954 19.7634ZM5.71497 33.3104V26.4668H16.4832V33.3104H5.71497ZM28.5687 33.3165H18.1982V26.4729H28.5687V33.3165Z" fill="currentColor"/>
</svg>
