<svg width="150" height="50" viewBox="0 0 150 50" fill="none" xmlns="http://www.w3.org/2000/svg">
<path d="M141.595 34.5686C140.893 36.0566 139.675 36.8214 138.123 37.1179C137.939 37.1543 137.745 37.1699 137.555 37.1699C134.514 37.1751 131.478 37.2376 128.441 37.1491C126.101 37.0815 124.156 35.6508 124.125 32.857C124.105 31.0465 124.115 29.236 124.12 27.4254C124.125 24.897 125.359 23.3622 127.812 22.8992C128.539 22.7639 129.291 22.6911 130.034 22.6807C132.102 22.6547 134.171 22.6182 136.234 22.6963C137.207 22.7327 138.19 22.9408 139.137 23.1905C140.294 23.4923 141.037 24.3559 141.6 25.386C141.595 28.4504 141.595 31.5095 141.595 34.5686ZM132.952 26.2601C131.908 26.3121 130.812 26.3069 129.732 26.437C128.667 26.567 128.237 27.1549 128.231 28.2371C128.226 29.3816 128.231 30.521 128.231 31.6656C128.231 32.8934 128.723 33.5697 129.926 33.6166C131.969 33.6946 134.017 33.6998 136.06 33.6114C137.258 33.5593 137.75 32.8778 137.75 31.6448C137.75 30.5366 137.755 29.4285 137.75 28.3203C137.745 27.1497 137.314 26.567 136.168 26.4265C135.123 26.3017 134.063 26.3121 132.952 26.2601Z" fill="currentColor"/>
<path d="M28.6962 23.0344C27.9384 23.4507 27.2165 23.8825 26.4741 24.3247C25.2247 25.0791 23.9959 25.8699 22.7466 26.6347C22.5623 26.7439 22.337 26.8428 22.1271 26.8428C17.6316 26.8532 13.1361 26.8532 8.64067 26.8532C8.59459 26.8532 8.54339 26.8376 8.40002 26.8167C8.62019 26.6815 8.77379 26.5826 8.9274 26.4942C17.0326 21.9159 25.6497 18.6747 34.6816 16.5572C38.7726 15.5947 42.8994 14.8403 47.0774 14.4449C49.5453 14.2108 52.0235 14.0755 54.4965 13.8882C54.6655 13.8778 54.8344 13.831 55.0034 13.7998C56.2885 13.7998 57.5737 13.7998 58.8588 13.7998C58.7001 13.8674 58.5414 13.9767 58.3775 14.0027C54.2405 14.5698 50.1239 15.2461 46.0534 16.2086C40.1704 17.6029 34.5587 19.7204 29.2799 22.7171C29.0853 22.8263 28.9676 22.8732 28.7884 22.998L28.6962 23.0344Z" fill="currentColor"/>
<path d="M103.281 36.941C103.281 36.7173 103.281 36.5456 103.281 36.3687C103.281 32.4304 103.281 28.4972 103.281 24.5588C103.281 23.4194 103.609 23.0917 104.735 23.0917C106.056 23.0917 107.372 23.1073 108.693 23.0813C109.082 23.0761 109.261 23.1905 109.394 23.5807C110.27 26.1872 111.171 28.7833 112.067 31.3794C112.129 31.5511 112.19 31.7228 112.308 32.0402C112.431 31.7332 112.497 31.5823 112.554 31.4315C113.45 28.8354 114.356 26.2393 115.226 23.6327C115.37 23.2061 115.569 23.0813 115.999 23.0865C117.387 23.1125 118.775 23.0917 120.167 23.0969C120.925 23.1021 121.345 23.4975 121.35 24.2467C121.355 28.3931 121.355 32.5396 121.35 36.6913C121.35 36.7589 121.335 36.8266 121.319 36.9358C120.085 36.9358 118.862 36.9358 117.561 36.9358C117.561 33.9443 117.561 30.9372 117.561 27.9301C117.51 27.9197 117.464 27.9041 117.413 27.8937C117.336 28.0706 117.249 28.2475 117.187 28.4296C116.25 31.1089 115.303 33.783 114.387 36.4676C114.248 36.8734 114.059 37.0035 113.644 36.9879C112.758 36.9566 111.873 36.9514 110.987 36.9879C110.567 37.0035 110.383 36.8682 110.25 36.4624C109.333 33.7778 108.386 31.1037 107.449 28.4296C107.387 28.2527 107.316 28.081 107.249 27.9041C107.203 27.9093 107.157 27.9197 107.111 27.9249C107.111 30.9216 107.111 33.9183 107.111 36.941C105.8 36.941 104.576 36.941 103.281 36.941Z" fill="currentColor"/>
<path d="M62.7809 33.6478C62.7809 34.7819 62.7809 35.8485 62.7809 36.967C62.5556 36.967 62.3712 36.967 62.1869 36.967C57.7426 36.967 53.2984 36.967 48.8541 36.967C47.9018 36.967 47.5331 36.5977 47.5331 35.6352C47.5331 31.8893 47.5331 28.1486 47.5331 24.4027C47.5331 23.4611 47.8967 23.0917 48.8183 23.0917C53.2984 23.0917 57.7785 23.0917 62.2586 23.0917C62.4122 23.0917 62.5658 23.0917 62.7706 23.0917C62.7706 24.0802 62.7706 25.0374 62.7706 26.0364C62.5453 26.052 62.3252 26.078 62.105 26.078C58.7564 26.078 55.4028 26.0884 52.0542 26.0728C51.5883 26.0728 51.3835 26.182 51.4347 26.6867C51.4756 27.0717 51.4705 27.4619 51.4347 27.8469C51.3937 28.3047 51.5831 28.3983 52.003 28.3983C55.372 28.3827 58.7411 28.3879 62.1101 28.3879C62.3149 28.3879 62.5197 28.3879 62.8116 28.3879C62.8116 29.3192 62.8218 30.2088 62.7911 31.0933C62.786 31.1713 62.5044 31.3014 62.3508 31.3066C61.3984 31.3274 60.441 31.317 59.4835 31.317C57.0156 31.317 54.5528 31.3274 52.0849 31.3066C51.5985 31.3014 51.3783 31.4263 51.4347 31.9517C51.4756 32.3367 51.4705 32.7269 51.4347 33.1119C51.3937 33.5645 51.578 33.6686 51.9979 33.6634C55.3669 33.6478 58.736 33.653 62.105 33.653C62.3098 33.6478 62.5146 33.6478 62.7809 33.6478Z" fill="currentColor"/>
<path d="M78.09 31.9413C79.4417 33.6062 80.7678 35.2398 82.1708 36.967C81.116 36.967 80.1688 36.9722 79.2267 36.967C78.5662 36.9618 77.8187 37.1439 77.2759 36.8838C76.7332 36.6237 76.4004 35.9213 75.9805 35.4063C75.1101 34.3345 74.2602 33.2472 73.3693 32.191C73.2054 31.9985 72.888 31.8477 72.632 31.8373C71.8179 31.7904 70.9987 31.8529 70.1846 31.8113C69.6674 31.7852 69.4831 31.9361 69.4985 32.4824C69.5343 33.7987 69.4985 35.1149 69.5138 36.4364C69.5189 36.8318 69.4165 36.9983 68.9864 36.9827C68.0136 36.9514 67.0408 36.9618 66.0731 36.9774C65.7403 36.9827 65.6174 36.8786 65.6174 36.53C65.6276 32.42 65.6174 28.3099 65.6276 24.1998C65.6276 23.4611 66.0065 23.0969 66.7285 23.0969C70.6351 23.0917 74.5367 23.0813 78.4433 23.1021C79.667 23.1073 80.5067 23.8148 80.9829 24.8918C81.7356 26.593 81.7355 28.3463 80.9726 30.0424C80.4914 31.1193 79.6619 31.7956 78.4228 31.8165C78.3716 31.8165 78.3204 31.8217 78.2692 31.8321C78.2436 31.8477 78.2129 31.8737 78.09 31.9413ZM69.565 28.7989C69.8005 28.7989 69.9849 28.7989 70.1743 28.7989C72.2736 28.7989 74.3728 28.7989 76.4721 28.7989C77.3476 28.7989 77.5729 28.5856 77.6241 27.7012C77.6343 27.5087 77.6343 27.3162 77.619 27.1237C77.5473 26.3381 77.3066 26.1144 76.5284 26.1092C74.3779 26.104 72.2224 26.1092 70.0719 26.1092C69.9183 26.1092 69.7647 26.1248 69.565 26.1352C69.565 27.0144 69.565 27.8625 69.565 28.7989Z" fill="currentColor"/>
<path d="M100.516 23.1385C100.516 24.7513 100.516 26.3121 100.516 27.8781C100.516 29.3868 100.516 30.9008 100.516 32.4096C100.511 35.0629 99.2413 36.6029 96.6556 37.0711C96.2818 37.1387 95.8978 37.1699 95.5189 37.1751C93.1944 37.1856 90.8647 37.2376 88.5402 37.1491C87.6493 37.1179 86.7174 36.8786 85.888 36.53C84.2803 35.8537 83.6249 34.449 83.6044 32.7737C83.5634 29.6105 83.5942 26.4474 83.5942 23.2842C83.5942 23.253 83.6146 23.2165 83.6351 23.1385C84.9612 23.1385 86.2976 23.1385 87.6852 23.1385C87.6954 23.357 87.7107 23.5651 87.7107 23.768C87.7107 26.3329 87.7107 28.8978 87.7107 31.4627C87.7107 32.7061 88.1152 33.2732 89.3133 33.4657C91.1566 33.757 93.0152 33.7726 94.8533 33.4501C95.9798 33.2524 96.3842 32.7009 96.3842 31.5563C96.3842 28.9758 96.3842 26.3901 96.3842 23.8096C96.3842 23.6015 96.3842 23.3934 96.3842 23.1385C97.7667 23.1385 99.1081 23.1385 100.516 23.1385Z" fill="currentColor"/>
<path d="M28.7269 23.0813C33.76 23.0865 38.7931 23.0917 43.8262 23.0969C44.5174 23.0969 45.2137 23.0969 45.9561 23.0969C45.9715 23.279 46.0022 23.4246 46.0022 23.5755C46.0073 24.5068 45.9868 25.4381 46.0124 26.3693C46.0227 26.7491 45.8844 26.848 45.5312 26.8428C43.8108 26.8271 42.0956 26.8376 40.3752 26.8376C40.1704 26.8376 39.9605 26.8376 39.684 26.8376C39.684 30.2088 39.684 33.5541 39.684 36.9358C38.1479 36.9358 36.6836 36.9358 35.1475 36.9358C35.1373 36.7485 35.122 36.5456 35.122 36.3427C35.122 33.3928 35.1066 30.4378 35.1322 27.4879C35.1373 26.9364 34.9683 26.8167 34.4563 26.8271C32.7718 26.8584 31.0873 26.8376 29.4079 26.8376C29.2184 26.8376 29.0341 26.8376 28.7474 26.8376" fill="currentColor"/>
</svg>
