<svg width="150" height="50" viewBox="0 0 150 50" fill="none" xmlns="http://www.w3.org/2000/svg">
<path d="M87.8307 12.006C88.8087 12.198 89.8107 12.312 90.7647 12.588C96.6147 14.256 100.407 19.77 99.8727 25.77C99.3267 31.926 94.8867 36.504 88.6947 37.314C82.1307 38.172 76.2507 34.32 74.6307 28.02C74.3007 26.73 74.1987 25.368 74.0787 24.036C73.7127 19.974 70.9227 17.448 66.8427 17.532C63.0507 17.61 60.3687 20.112 59.9127 23.862C59.4867 27.33 59.5887 30.81 59.5707 34.284C59.5647 35.16 59.3787 35.964 58.7427 36.606C57.4647 37.902 55.2867 37.59 54.4047 35.976C54.3027 35.796 54.2187 35.604 54.0987 35.376C53.9247 35.466 53.7747 35.538 53.6307 35.622C48.8187 38.424 42.1707 37.902 38.1147 33.972C35.8347 31.764 34.4307 29.082 34.2867 25.932C34.1247 22.362 34.2327 18.786 34.2687 15.21C34.2807 13.794 35.5407 12.696 36.9987 12.702C38.4327 12.708 39.6387 13.794 39.6627 15.198C39.7047 17.43 39.6567 19.662 39.6927 21.894C39.7167 23.352 39.7227 24.822 39.9087 26.268C40.3227 29.502 42.6447 31.932 45.8547 32.394C51.1287 33.15 54.0807 29.196 54.0567 25.566C54.0327 22.164 54.1107 18.756 54.1467 15.354C54.1587 13.956 55.0647 12.87 56.4087 12.618C57.6867 12.378 58.9647 13.152 59.4507 14.46C59.4987 14.58 59.5587 14.7 59.6187 14.844C60.2067 14.538 60.7527 14.208 61.3287 13.956C65.6487 12.066 69.9327 12.054 73.9947 14.58C77.4747 16.746 79.4187 19.944 79.7367 24.078C79.8627 25.68 79.9167 27.306 80.6727 28.794C82.1007 31.608 85.3347 32.802 87.8367 32.484C91.5327 32.01 93.8727 29.442 94.1967 25.68C94.3887 23.466 93.9987 21.414 92.6367 19.632C89.9007 16.044 84.0567 16.146 81.3267 19.8C81.2247 19.938 81.1347 20.088 81.0207 20.22C80.7207 20.568 80.4567 20.538 80.2947 20.112C79.7607 18.678 79.0467 17.346 78.0507 16.17C77.8587 15.942 77.8827 15.756 78.0807 15.516C79.2147 14.136 80.7327 13.35 82.3827 12.828C83.5887 12.45 84.8487 12.27 86.0847 12C86.6727 12.006 87.2547 12.006 87.8307 12.006Z" fill="currentColor"/>
<path d="M111.537 36.66C111.537 37.224 111.543 37.704 111.537 38.184C111.531 38.622 111.417 39.024 110.871 39.006C110.367 38.988 110.271 38.61 110.271 38.19C110.271 36.402 110.271 34.614 110.271 32.826C110.271 32.424 110.217 31.968 110.763 31.86C111.297 31.752 111.459 32.148 111.591 32.652C112.197 32.004 112.887 31.584 113.709 31.812C114.255 31.968 114.843 32.256 115.227 32.658C116.187 33.672 116.139 35.55 115.227 36.588C114.315 37.638 113.127 37.686 111.537 36.66ZM114.639 34.596C114.639 33.6 113.979 32.874 113.079 32.874C112.179 32.874 111.507 33.6 111.495 34.584C111.483 35.574 112.197 36.36 113.097 36.348C113.991 36.336 114.645 35.592 114.639 34.596Z" fill="currentColor"/>
<path d="M103.377 36.93C102.915 37.338 102.225 37.506 101.457 37.404C100.593 37.29 100.017 36.714 99.9447 35.91C99.8667 35.028 100.287 34.38 101.169 34.134C101.553 34.026 101.967 33.984 102.369 33.984C102.765 33.984 103.167 34.074 103.563 34.128C103.647 33.444 103.341 32.988 102.651 32.934C102.183 32.898 101.697 32.988 101.229 33.072C100.875 33.138 100.545 33.162 100.413 32.766C100.275 32.358 100.551 32.112 100.899 32.07C101.691 31.974 102.507 31.836 103.293 31.926C104.247 32.034 104.811 32.796 104.847 33.798C104.883 34.68 104.859 35.568 104.865 36.45C104.871 36.828 104.865 37.272 104.409 37.314C104.121 37.35 103.815 37.104 103.377 36.93ZM102.363 34.752C102.153 34.812 101.841 34.854 101.577 34.992C101.019 35.292 101.007 36.018 101.535 36.354C102.105 36.708 103.137 36.48 103.491 35.916C103.863 35.334 103.701 34.956 103.023 34.842C102.843 34.806 102.651 34.788 102.363 34.752Z" fill="currentColor"/>
<path d="M106.659 34.998C106.659 34.614 106.659 34.23 106.659 33.846C106.659 33.42 106.749 32.994 106.137 32.802C105.765 32.682 105.843 32.13 106.275 31.962C106.593 31.842 106.653 31.656 106.677 31.362C106.779 30.078 107.577 29.49 108.861 29.784C109.059 29.832 109.209 30.114 109.377 30.288C109.185 30.462 109.011 30.75 108.801 30.78C108.357 30.834 108.003 30.9 107.907 31.41C107.853 31.716 107.931 31.896 108.279 31.896C108.489 31.896 108.735 31.86 108.903 31.944C109.089 32.046 109.335 32.274 109.329 32.436C109.323 32.604 109.065 32.826 108.873 32.898C108.597 33.006 108.105 32.898 108.021 33.054C107.859 33.336 107.913 33.75 107.907 34.11C107.895 34.92 107.901 35.724 107.901 36.534C107.901 36.966 107.781 37.338 107.289 37.344C106.791 37.35 106.665 36.972 106.665 36.546C106.659 36.036 106.659 35.52 106.659 34.998Z" fill="currentColor"/>
</svg>
