<svg width="150" height="50" viewBox="0 0 150 50" fill="none" xmlns="http://www.w3.org/2000/svg">
<path d="M68.6951 23.9316C68.7133 22.6151 67.8571 21.7552 66.5878 21.6781C65.1729 21.5951 64.183 22.5024 64.1648 23.9435C64.6627 24.3349 68.2032 24.323 68.6951 23.9316Z" fill="currentColor"/>
<path d="M47.932 12C47.932 20.9013 47.932 29.8026 47.932 38.686C77.9016 38.686 107.865 38.686 137.829 38.686C137.829 29.7788 137.829 20.8894 137.829 12C107.853 12 77.8955 12 47.932 12ZM103.238 17.8828C103.802 17.8828 104.246 18.292 104.246 18.8198C104.246 19.4128 103.845 19.8101 103.238 19.816C102.673 19.822 102.163 19.3594 102.169 18.8554C102.181 18.3276 102.661 17.8887 103.238 17.8828ZM60.0231 29.3044C59.1486 29.9627 58.2255 30.0753 57.2174 29.678C57.0534 29.6128 56.8712 29.5654 56.7194 29.4823C56.2639 29.2392 55.8874 29.2807 55.5777 29.7195C55.5413 29.7729 55.4502 29.7966 55.2498 29.9152C55.2498 28.9012 55.2498 28.0057 55.2498 27.1043C55.3105 27.0806 55.3712 27.0628 55.432 27.0391C55.5595 27.2585 55.7174 27.4601 55.8024 27.6914C56.1789 28.6817 56.9198 29.2214 57.9583 29.423C58.6992 29.5653 59.4158 29.2451 59.7194 28.6224C60.0291 27.9938 59.8955 27.3178 59.27 26.8552C58.8146 26.5231 58.2619 26.3156 57.7639 26.0428C57.1627 25.7107 56.4826 25.4438 55.9907 24.9931C54.8915 23.9909 55.1222 22.8345 56.0696 21.9153C56.8591 21.1504 57.849 20.9072 58.936 21.3579C59.3611 21.5358 59.7801 21.5951 60.1688 21.263C60.2295 21.2097 60.351 21.2215 60.521 21.18C60.521 22.0162 60.521 22.8049 60.521 23.6173C60.0656 23.6826 60.0231 23.4098 59.9563 23.1014C59.7133 21.9391 58.1162 21.2393 57.1081 21.8383C56.4401 22.2356 56.3186 22.9709 56.8955 23.5047C57.2903 23.8723 57.77 24.1688 58.2437 24.4416C58.7903 24.7619 59.4036 24.9753 59.932 25.3134C61.3652 26.2326 61.3895 28.2785 60.0231 29.3044ZM70.3227 28.3319C69.2113 29.7314 67.7113 30.1465 65.9988 29.8263C62.2761 29.1384 61.2376 25.0762 63.5392 22.5617C65.689 20.2134 68.8166 20.9962 70.0372 23.1133C70.3652 23.6885 70.3834 24.0087 70.1648 24.6551C68.1911 24.6551 66.2113 24.6551 64.2255 24.6551C64.2255 24.6966 64.2255 24.7322 64.2255 24.7737C64.2012 24.8034 64.1648 24.833 64.1587 24.8686C63.8793 26.4223 64.9239 28.7351 66.8247 29.2036C68.021 29.5001 68.9745 29.0672 69.8186 28.2903C70.0129 28.1124 70.2012 27.9227 70.3895 27.7388C70.4441 27.7685 70.4927 27.7981 70.5473 27.8337C70.4745 27.9998 70.432 28.1895 70.3227 28.3319ZM79.4563 28.4208C77.938 30.1228 75.1081 30.4193 73.2619 29.0731C71.9259 28.1065 71.2943 26.3512 71.7376 24.7441C72.2052 23.048 73.2133 21.7849 74.9988 21.3283C75.6668 21.1563 76.4077 21.263 77.1182 21.2808C77.3672 21.2867 77.6101 21.4231 77.8652 21.4884C78.2842 21.5951 78.6911 21.6366 79.0372 21.2927C79.1101 21.2215 79.2498 21.2215 79.353 21.1919C79.6384 21.6722 79.6445 23.4928 79.3712 23.9731C79.0069 24.0087 78.9765 23.73 78.8915 23.4987C78.2052 21.6426 75.9097 21.0258 74.3793 22.289C73.6992 22.8523 73.4259 23.647 73.3469 24.4713C73.1951 26.0428 73.5716 27.4483 74.8348 28.5454C75.5696 29.1858 76.3773 29.3993 77.3247 29.1324C78.0473 28.9308 78.6971 28.6165 79.2133 28.0591C79.3348 27.9286 79.5109 27.8515 79.6627 27.7507C79.7052 27.7863 79.7477 27.8278 79.7963 27.8634C79.6809 28.0531 79.602 28.2607 79.4563 28.4208ZM87.9583 29.3993C87.934 29.1265 87.9036 28.8537 87.8672 28.4327C87.6 28.6462 87.4421 28.747 87.3146 28.8774C86.349 29.9034 84.7518 30.1702 83.4765 29.5831C82.5413 29.1502 82.0312 27.8634 82.0372 26.8078C82.0433 25.5031 82.0494 24.1985 82.0069 22.8938C81.9826 22.1407 81.7761 21.9687 81.017 21.8145C80.9016 21.7908 80.7862 21.7552 80.6769 21.7197C80.6526 21.7078 80.6405 21.6544 80.6222 21.6248C81.0109 21.2393 82.8146 21.0258 83.683 21.2986C83.7012 21.518 83.7437 21.7612 83.7437 22.0043C83.7498 23.6648 83.7498 25.3193 83.7437 26.9798C83.7437 27.7033 83.9016 28.3793 84.6243 28.7055C85.3834 29.0435 86.1789 29.0376 86.9077 28.5631C87.606 28.1124 88.0554 27.5787 87.9643 26.6417C87.8429 25.3845 87.8975 24.1095 87.8733 22.8464C87.8611 22.1704 87.6182 21.9153 86.9198 21.8264C86.7012 21.7967 86.4886 21.7493 86.2761 21.7137C86.2822 21.6307 86.2822 21.5536 86.2882 21.4706C87.3388 21.2512 88.3955 21.1148 89.519 21.2097C89.519 21.5833 89.519 21.8857 89.519 22.1881C89.519 23.985 89.519 25.7759 89.5251 27.5728C89.5251 27.8219 89.5494 28.0828 89.598 28.3259C89.7073 28.9012 89.9502 29.1265 90.5271 29.2392C90.6911 29.2688 90.855 29.3104 91.0554 29.3519C90.6789 29.7788 88.432 29.7729 87.9583 29.3993ZM99.2052 23.0124C98.7984 22.8405 98.4765 22.7041 98.1486 22.5677C97.189 22.1585 96.2781 22.3483 95.6162 23.131C95.4583 23.3149 95.3125 23.5758 95.3065 23.8071C95.2882 25.2304 95.27 26.6595 95.3429 28.0769C95.3854 28.9664 95.5433 29.0553 96.4482 29.251C96.5514 29.2748 96.6486 29.34 96.849 29.4349C96.6546 29.5357 96.5514 29.6247 96.436 29.6424C95.5251 29.7729 92.6405 29.6602 92.1789 29.4349C92.4036 29.3459 92.5372 29.2748 92.689 29.2451C93.3996 29.0969 93.6486 28.8656 93.7275 28.1599C93.77 27.7566 93.7518 27.3415 93.7518 26.9323C93.7518 25.7226 93.7579 24.5128 93.7518 23.303C93.7518 23.0302 93.7093 22.7574 93.6729 22.4906C93.606 21.9984 93.3267 21.7256 92.8166 21.6544C92.5433 21.6129 92.2761 21.5299 92.0028 21.4647C92.015 21.3876 92.021 21.3045 92.0332 21.2274C92.6769 21.1681 93.3206 21.1088 93.9643 21.0495C94.2012 21.0258 94.438 21.008 94.6749 20.9784C95.2214 20.9131 95.4097 21.091 95.3611 21.6307C95.3368 21.8916 95.3186 22.1526 95.2943 22.4194C95.3429 22.455 95.3854 22.4906 95.434 22.5262C95.6769 22.3898 95.932 22.2712 96.1627 22.117C96.5757 21.8442 96.9522 21.518 97.3773 21.263C98.2397 20.759 99.017 20.8776 99.8307 21.6426C99.6364 22.0636 99.4299 22.5143 99.2052 23.0124ZM105.114 29.6424C104.221 29.7788 101.136 29.6602 100.808 29.4883C100.802 29.4408 100.796 29.3934 100.784 29.3459C100.96 29.3104 101.142 29.2629 101.319 29.2392C102.011 29.1324 102.357 28.8419 102.369 28.1777C102.394 26.3452 102.394 24.5128 102.369 22.6803C102.357 22.0043 102.078 21.7908 101.379 21.6781C101.185 21.6485 101.009 21.524 100.827 21.4409C100.845 21.3698 100.863 21.2927 100.875 21.2215C101.865 21.1326 102.849 21.0436 103.918 20.9487C103.954 21.269 104.003 21.5062 104.003 21.7493C104.009 23.6766 104.003 25.6099 104.009 27.5372C104.009 27.7922 104.027 28.0413 104.057 28.2963C104.13 28.8241 104.446 29.1324 104.981 29.2273C105.126 29.251 105.266 29.3104 105.551 29.3934C105.321 29.5298 105.223 29.6247 105.114 29.6424ZM121.875 21.5358C121.772 21.5892 121.675 21.6722 121.566 21.6959C120.636 21.9331 120.242 22.6448 119.956 23.4394C119.549 24.5602 119.161 25.687 118.76 26.8078C118.116 28.6106 117.503 30.4252 116.811 32.2102C116.452 33.1413 115.991 34.0367 115.074 34.6001C114.521 34.9381 113.732 34.9026 113.136 34.4459C113.282 34.0427 113.446 33.6038 113.604 33.1828C113.774 33.1828 113.853 33.1709 113.926 33.1828C115.256 33.3666 115.894 33.0227 116.428 31.8248C116.47 31.7358 116.489 31.635 116.537 31.552C117.315 30.3185 117.059 29.168 116.422 27.9405C115.645 26.446 115.019 24.8805 114.333 23.3445C113.78 22.0933 113.349 21.8086 111.964 21.8086C111.363 21.8086 110.768 21.8027 110.167 21.8145C109.954 21.8205 109.748 21.8679 109.487 21.9035C109.456 22.1704 109.402 22.3957 109.402 22.621C109.396 24.1629 109.402 25.7048 109.396 27.2466C109.389 27.899 109.559 28.492 110.197 28.7588C110.823 29.0257 111.485 28.9723 112.068 28.5513C112.225 28.4386 112.377 28.3259 112.535 28.2133C112.584 28.237 112.632 28.2607 112.681 28.2844C112.645 28.4327 112.651 28.6284 112.553 28.7292C111.995 29.2866 111.345 29.6899 110.537 29.7788C108.873 29.9627 107.798 29.0613 107.768 27.4067C107.738 25.9064 107.762 24.4001 107.75 22.8998C107.744 22.5795 107.671 22.2593 107.622 21.9035C107.088 21.8383 106.632 21.7849 106.177 21.7315C106.147 21.6722 106.116 21.6188 106.086 21.5595C107.337 20.753 108.278 19.6619 109.055 18.4284C109.153 18.458 109.25 18.4877 109.341 18.5173C109.341 19.3535 109.341 20.1897 109.341 21.1029C110.598 21.2808 111.734 21.18 112.869 21.1919C114.023 21.1978 115.171 21.1919 116.373 21.1919C116.41 21.3994 116.44 21.5595 116.464 21.7137C116.258 21.9035 116.088 22.0636 115.857 22.2712C115.881 22.4787 115.851 22.7515 115.942 22.965C116.519 24.3349 117.12 25.6988 117.721 27.0569C117.758 27.1399 117.843 27.2051 117.995 27.383C118.195 26.873 118.383 26.446 118.541 26.0072C118.857 25.1236 119.161 24.2341 119.47 23.3505C119.792 22.4372 119.732 22.2297 118.972 21.6307C118.918 21.5833 118.887 21.5062 118.827 21.4231C118.9 21.346 118.954 21.2156 119.021 21.2156C119.871 21.1978 120.728 21.1859 121.578 21.1919C121.681 21.1919 121.784 21.2867 121.887 21.3342C121.881 21.4054 121.881 21.4706 121.875 21.5358Z" fill="currentColor"/>
<path d="M20.8773 21.0733L17.4643 29.506H16.0251L12.6 21.0733H14.1789L16.7903 27.5787L19.4198 21.0733H20.8773Z" fill="currentColor"/>
<path d="M22.2133 21.0733H23.6708V29.506H22.2133V21.0733Z" fill="currentColor"/>
<path d="M25.2801 21.0733H28.7052C31.2498 21.0733 32.9866 22.7574 32.9866 25.2897C32.9866 27.8219 31.2498 29.506 28.7052 29.506H25.2801V21.0733ZM28.6384 28.1777C30.3874 28.1777 31.517 27.0331 31.517 25.2837C31.517 23.5343 30.3874 22.3898 28.6384 22.3898H26.7316V28.1717H28.6384V28.1777Z" fill="currentColor"/>
<path d="M38.2761 21.0733H36.8429L33.3146 29.506H34.8146L37.5473 22.6388L40.2923 29.506H41.8166L38.2761 21.0733Z" fill="currentColor"/>
</svg>
