<svg width="150" height="50" viewBox="0 0 150 50" fill="none" xmlns="http://www.w3.org/2000/svg">
<path d="M91.4377 16.9765C93.3405 15.7949 95.3293 15.0338 97.628 15.8563C98.9985 16.3068 100.207 17.1499 101.102 18.2809C103.054 20.8129 103.158 25.1925 101.296 27.9577C100.805 28.7129 100.17 29.3629 99.4258 29.8698C98.6817 30.3768 97.8442 30.7304 96.962 30.9101C95.1605 31.2968 93.4878 30.8917 91.6188 29.9679V35.3388C89.9542 35.6568 88.247 35.6838 86.5732 35.4186C86.3185 35.3818 85.9962 34.6943 85.9808 34.2953C85.9195 32.5122 85.9809 30.7229 85.9502 28.9337C85.8919 25.6037 85.8029 22.2707 85.7231 18.9408C85.7185 18.7412 85.7 18.5423 85.6678 18.3454C85.3609 16.3228 85.4161 16.2645 87.4786 15.9484C87.9911 15.8686 88.5036 15.7735 89.0131 15.7244C90.6182 15.5709 90.6673 15.6047 91.4377 16.9765ZM96.7257 23.397C96.7257 21.6354 95.6331 20.328 94.1047 20.3034C92.5763 20.2789 91.5666 21.4697 91.5451 23.2589C91.5205 24.9899 92.561 26.1899 94.1016 26.2114C95.8019 26.2329 96.7288 25.2416 96.7349 23.397H96.7257Z" fill="currentColor"/>
<path d="M55.1305 16.1724C55.1305 17.707 55.2134 19.0328 55.109 20.3617C54.9801 22.0374 55.6676 23.3694 56.6251 24.6278C56.8238 24.8509 57.0415 25.0563 57.2758 25.2416C60.038 22.7495 59.3075 19.4932 59.3443 16.2215C61.0139 16.1479 62.6252 16.019 64.2334 16.062C64.5403 16.062 65.0866 16.7341 65.105 17.1177C65.2769 20.3495 65.6421 23.5812 63.3495 26.4324C61.1612 29.1546 59.2584 32.0979 57.1469 34.8846C56.7089 35.3761 56.1064 35.6904 55.4528 35.7685C54.2217 35.8724 52.9848 35.8888 51.7514 35.8176C51.4261 35.8176 50.9228 35.6856 50.8123 35.4616C50.2629 34.3383 49.8179 33.1659 49.2778 31.8554C50.1647 31.702 50.8123 31.6038 51.463 31.4779C51.9347 31.4085 52.3984 31.2923 52.8471 31.1311C53.9366 30.683 54.1423 30.0508 53.4824 29.081C52.4573 27.5679 51.3954 26.0794 50.3213 24.5971C49.6286 23.6651 49.2794 22.5222 49.333 21.3622C49.376 19.975 49.3637 18.6001 49.3514 17.1944C49.3514 16.3505 49.7013 15.9331 50.5791 15.9668C52.0215 16.0343 53.4793 16.0957 55.1305 16.1724Z" fill="currentColor"/>
<path d="M77.7128 30.7997L77.1358 29.4585C76.9083 29.5481 76.6928 29.6656 76.4943 29.8083C74.2202 32.0119 69.7731 31.527 67.502 27.7827C65.7986 24.9745 65.8324 21.9975 67.2534 19.1218C69.0948 15.4021 73.8028 14.2942 77.2432 16.6297C77.3748 16.6988 77.5112 16.7583 77.6514 16.8077C78.0872 15.5985 78.9895 15.5648 80.0514 15.8563C81.0335 16.1295 82.034 16.3351 83.0929 16.5837C82.9486 17.9801 82.7184 19.1924 82.7154 20.4047C82.7154 23.0625 82.8166 25.7173 82.878 28.3843C82.878 28.6912 82.9087 29.0196 82.8995 29.3357C82.875 30.4805 82.6233 30.7751 81.5123 30.8089C80.2448 30.8304 78.9772 30.7997 77.7128 30.7997ZM77.3752 23.0686C77.3752 21.307 76.2949 20.2697 74.5148 20.2789C72.8053 20.2789 71.682 21.4267 71.7005 23.1392C71.7056 23.5174 71.7855 23.8908 71.9355 24.238C72.0855 24.5852 72.3027 24.8993 72.5745 25.1622C72.8463 25.4252 73.1674 25.6319 73.5194 25.7703C73.8713 25.9087 74.2471 25.9762 74.6253 25.9689C76.347 25.9659 77.3936 24.8548 77.3752 23.0686Z" fill="currentColor"/>
<path d="M119.422 23.0871C119.461 27.7674 116.352 31.0083 111.749 31.0421C106.983 31.0759 103.711 27.9546 103.686 23.3479C103.665 18.5387 106.805 15.2732 111.491 15.2333C116.178 15.1934 119.385 18.4098 119.422 23.0871ZM109.008 23.1147C109.008 24.8579 110.045 26.0794 111.568 26.104C113.001 26.1255 114.213 24.7597 114.207 23.1331C114.201 21.5065 113.075 20.2512 111.534 20.2512C109.993 20.2512 109.014 21.4206 109.008 23.1147Z" fill="currentColor"/>
<path d="M131.029 23.2221C130.835 23.8605 130.63 24.5541 130.433 25.1986C128.15 25.1127 127.462 25.4779 127.499 26.6533C127.536 27.8288 128.196 28.1173 130.541 28.0099C130.685 28.725 130.848 29.4708 130.97 30.1582C130.122 30.767 129.078 31.0382 128.041 30.9191C127.004 30.7999 126.048 30.2989 125.36 29.5137C124.664 28.6854 124.298 27.6296 124.331 26.5482C124.364 25.4667 124.795 24.4355 125.541 23.6518C127.054 22.0927 129.359 21.8656 131.029 23.2221Z" fill="currentColor"/>
<path d="M134.942 19.2231V30.7598C134.021 30.7598 133.232 30.8181 132.487 30.7598C131.741 30.7014 131.768 30.0262 131.768 29.4738C131.768 26.6625 131.768 23.8513 131.768 21.04V19.2384L134.942 19.2231Z" fill="currentColor"/>
<path d="M121.723 26.9081C121.98 26.9 122.236 26.9445 122.474 27.039C122.713 27.1334 122.93 27.2757 123.112 27.4571C123.293 27.6385 123.436 27.8552 123.531 28.0939C123.626 28.3325 123.671 28.588 123.663 28.8446C123.675 29.1116 123.631 29.3781 123.535 29.6275C123.439 29.8768 123.292 30.1036 123.104 30.2937C122.916 30.4839 122.691 30.6332 122.443 30.7324C122.195 30.8316 121.929 30.8785 121.662 30.8702C121.143 30.8417 120.656 30.6137 120.302 30.2338C119.948 29.8539 119.754 29.3517 119.762 28.8324C119.761 28.5763 119.812 28.3227 119.91 28.0864C120.009 27.8501 120.154 27.6359 120.337 27.4566C120.52 27.2772 120.737 27.1363 120.975 27.0421C121.213 26.9479 121.467 26.9023 121.723 26.9081Z" fill="currentColor"/>
<path d="M140.058 16.4272C140.067 16.7686 139.974 17.1049 139.791 17.3932C139.608 17.6814 139.343 17.9085 139.03 18.0452C138.717 18.182 138.37 18.2223 138.035 18.1609C137.699 18.0995 137.389 17.9392 137.144 17.7006C136.9 17.4619 136.732 17.1558 136.663 16.8214C136.594 16.487 136.626 16.1396 136.755 15.8235C136.885 15.5074 137.105 15.2371 137.389 15.0472C137.673 14.8573 138.007 14.7565 138.349 14.7576C138.571 14.7531 138.792 14.7929 138.999 14.8748C139.206 14.9566 139.394 15.0788 139.553 15.2342C139.712 15.3896 139.839 15.5751 139.926 15.7799C140.012 15.9847 140.057 16.2048 140.058 16.4272ZM137.056 16.4272C137.051 16.6012 137.08 16.7746 137.143 16.937C137.206 17.0994 137.301 17.2473 137.423 17.372C137.544 17.4967 137.69 17.5956 137.85 17.6626C138.011 17.7297 138.184 17.7636 138.358 17.7622C138.529 17.7619 138.699 17.7271 138.856 17.6599C139.014 17.5927 139.156 17.4945 139.275 17.371C139.394 17.2476 139.487 17.1015 139.548 16.9415C139.609 16.7814 139.638 16.6107 139.631 16.4394C139.64 16.2651 139.613 16.0908 139.552 15.9272C139.491 15.7636 139.398 15.614 139.277 15.4876C139.157 15.3612 139.012 15.2606 138.852 15.1918C138.691 15.123 138.518 15.0876 138.344 15.0876C138.169 15.0876 137.997 15.123 137.836 15.1918C137.676 15.2606 137.531 15.3612 137.41 15.4876C137.29 15.614 137.197 15.7636 137.136 15.9272C137.075 16.0908 137.048 16.2651 137.056 16.4394V16.4272ZM138.088 17.3049H137.701V15.6476C137.913 15.6095 138.127 15.5921 138.342 15.5955C138.543 15.58 138.745 15.6226 138.922 15.7182C138.975 15.7628 139.018 15.8188 139.046 15.8821C139.074 15.9454 139.087 16.0142 139.085 16.0834C139.078 16.1771 139.04 16.2657 138.977 16.3357C138.915 16.4056 138.831 16.4528 138.738 16.4701V16.4916C138.822 16.5255 138.894 16.5814 138.948 16.6533C139.002 16.7252 139.036 16.8104 139.045 16.8998C139.06 17.0454 139.101 17.187 139.168 17.3172H138.747C138.685 17.1879 138.64 17.0505 138.616 16.909C138.585 16.7249 138.484 16.6451 138.272 16.6451H138.088V17.3049ZM138.088 16.3566H138.272C138.487 16.3566 138.658 16.286 138.658 16.1141C138.658 15.9423 138.545 15.8594 138.302 15.8594C138.23 15.858 138.158 15.8642 138.088 15.8778V16.3566Z" fill="currentColor"/>
<path d="M43.3944 17.3632C43.2318 17.2668 43.0463 17.2159 42.8573 17.2159C42.6683 17.2159 42.4827 17.2668 42.3202 17.3632L29.3011 24.8763C28.4659 25.3612 27.501 25.5756 26.539 25.4902C27.0354 26.1547 27.3083 26.9595 27.3185 27.7889V41.9066C27.3174 42.0708 27.3583 42.2326 27.4373 42.3765C27.5162 42.5205 27.6306 42.6418 27.7697 42.7292C27.9049 42.817 28.0599 42.8698 28.2207 42.8826C28.3815 42.8955 28.5429 42.8681 28.6904 42.8028L42.8573 34.6299C43.1838 34.4414 43.4549 34.1703 43.6434 33.8438C43.832 33.5173 43.9313 33.147 43.9314 32.77V18.2932C43.9327 18.1044 43.8835 17.9188 43.7891 17.7553C43.6947 17.5919 43.5585 17.4565 43.3944 17.3632ZM43.4404 25.8216L41.9058 26.7423V32.9726L35.5805 36.3792V31.0943L33.1252 32.4631V37.7112L30.2587 39.2458V33.5987L28.982 34.3506V32.5736L35.9764 23.3203L38.5084 23.6763V21.8993L40.4204 20.8344V23.9894L43.4404 24.4743V25.8216Z" fill="currentColor"/>
<path d="M37.3299 33.1291L40.1964 31.5301V28.6636L37.3299 30.3301V33.1291Z" fill="currentColor"/>
<path d="M24.5471 18.6922C24.4029 18.6292 24.2458 18.6008 24.0886 18.6094C23.9314 18.6179 23.7784 18.6631 23.6418 18.7413C23.3778 18.9008 23.3564 19.1341 23.5927 19.2661C23.7372 19.3286 23.8943 19.3564 24.0516 19.3473C24.2088 19.3383 24.3617 19.2926 24.4981 19.2139C24.762 19.0543 24.7835 18.8211 24.5471 18.6922Z" fill="currentColor"/>
<path d="M24.6576 16.8906C24.5144 16.8298 24.3592 16.8027 24.2039 16.8112C24.0485 16.8197 23.8972 16.8636 23.7615 16.9397C23.4975 17.0962 23.4761 17.3264 23.7093 17.4522C23.8527 17.5144 24.0086 17.5424 24.1647 17.5339C24.3208 17.5253 24.4728 17.4806 24.6085 17.4031C24.8694 17.2497 24.8909 17.0195 24.6576 16.8906Z" fill="currentColor"/>
<path d="M24.7651 15.1228C24.623 15.0623 24.4689 15.035 24.3147 15.043C24.1605 15.051 24.0101 15.094 23.875 15.1688C23.6172 15.3223 23.5927 15.5494 23.8259 15.6752C23.9681 15.7359 24.1223 15.7631 24.2767 15.7546C24.431 15.7461 24.5813 15.7021 24.7159 15.6261C24.9768 15.4758 24.9952 15.2486 24.7651 15.1228Z" fill="currentColor"/>
<path d="M23.031 17.8574C22.8871 17.7951 22.7307 17.7672 22.5741 17.7757C22.4175 17.7842 22.265 17.829 22.1287 17.9065C21.8648 18.063 21.8402 18.2962 22.0735 18.4251C22.2198 18.4906 22.3797 18.5204 22.5398 18.5118C22.6999 18.5033 22.8556 18.4567 22.9942 18.376C23.2428 18.2195 23.2673 17.9863 23.031 17.8574Z" fill="currentColor"/>
<path d="M21.5241 17.0287C21.3807 16.9665 21.2248 16.9386 21.0687 16.9471C20.9126 16.9556 20.7607 17.0004 20.6249 17.0778C20.3579 17.2343 20.3333 17.4645 20.5666 17.5934C20.7105 17.6556 20.8669 17.6836 21.0235 17.6751C21.1801 17.6666 21.3325 17.6218 21.4689 17.5443C21.7328 17.3878 21.7696 17.1576 21.5241 17.0287Z" fill="currentColor"/>
<path d="M23.1538 16.0712C23.0116 16.009 22.8568 15.9808 22.7018 15.9888C22.5468 15.9968 22.3958 16.0408 22.2607 16.1172C21.9967 16.2737 21.9722 16.5008 22.2054 16.6297C22.3487 16.6905 22.5039 16.7177 22.6592 16.7092C22.8146 16.7007 22.9659 16.6567 23.1016 16.5806C23.3625 16.4241 23.387 16.197 23.1538 16.0712Z" fill="currentColor"/>
<path d="M43.8885 16.8446C43.8283 16.5457 43.7053 16.263 43.5275 16.0154C43.3497 15.7677 43.1212 15.5608 42.8573 15.4082L28.0336 6.85472C27.707 6.66617 27.3366 6.56689 26.9594 6.56689C26.5823 6.56689 26.2119 6.66617 25.8853 6.85472L12.3813 14.6532C12.1762 14.7726 12.0061 14.9437 11.8878 15.1494C11.7695 15.3552 11.7072 15.5883 11.7072 15.8256C11.7072 16.0629 11.7695 16.2961 11.8878 16.5018C12.0061 16.7075 12.1762 16.8786 12.3813 16.998L24.983 24.2656C25.5895 24.6158 26.2775 24.8001 26.9779 24.8001C27.6782 24.8001 28.3662 24.6158 28.9728 24.2656L41.9918 16.7525C42.2617 16.5941 42.5689 16.5106 42.8818 16.5106C43.1947 16.5106 43.502 16.5941 43.7718 16.7525C43.8123 16.7811 43.8513 16.8118 43.8885 16.8446ZM35.9089 12.8118L35.292 13.1924C35.5406 13.4471 35.4577 13.8062 35.0434 14.0486L24.9922 20.1469C23.8842 20.816 22.1778 20.9172 21.1896 20.3648L18.7343 19.0021C17.7614 18.4558 17.8842 17.4891 18.9983 16.8384L29.1262 10.9366C29.3951 10.7894 29.6938 10.7049 29.9999 10.6895C30.3061 10.6741 30.6117 10.7281 30.894 10.8476L34.4664 12.7259L35.0587 12.3699C35.1637 12.3107 35.2809 12.2767 35.4012 12.2703C35.5215 12.2639 35.6417 12.2854 35.7524 12.333L35.9181 12.419C36.1237 12.5172 36.1176 12.6921 35.9211 12.8118H35.9089Z" fill="currentColor"/>
<path d="M33.1528 13.1003L30.9155 11.9187C30.6545 11.8072 30.3715 11.7567 30.088 11.7711C29.8045 11.7854 29.5281 11.8643 29.2797 12.0016L25.9773 13.9381C25.4955 14.2205 25.4587 14.641 25.8945 14.8773L28.1502 16.1049C28.4174 16.2205 28.7078 16.2727 28.9986 16.2572C29.2893 16.2418 29.5725 16.1592 29.826 16.0159L33.1068 14.0394C33.5733 13.7479 33.5948 13.3335 33.1528 13.1003Z" fill="currentColor"/>
<path d="M27.7727 16.7556C27.631 16.6935 27.4768 16.6653 27.3223 16.6733C27.1678 16.6813 27.0173 16.7252 26.8827 16.8016C26.6218 16.9581 26.6034 17.1883 26.8398 17.3141C26.9821 17.3765 27.137 17.4046 27.2922 17.396C27.4473 17.3875 27.5982 17.3426 27.7328 17.265C27.9906 17.1116 28.0091 16.8753 27.7727 16.7556Z" fill="currentColor"/>
<path d="M26.1707 17.7162C26.0271 17.6547 25.8713 17.6271 25.7153 17.6356C25.5594 17.6442 25.4075 17.6885 25.2714 17.7653C25.0106 17.9218 24.9891 18.1551 25.2254 18.284C25.3688 18.3462 25.5247 18.3741 25.6808 18.3656C25.8369 18.3571 25.9889 18.3123 26.1247 18.2349C26.3732 18.0783 26.4039 17.8451 26.1707 17.7162Z" fill="currentColor"/>
<path d="M26.2628 15.9361C26.1206 15.8754 25.9664 15.8483 25.812 15.8568C25.6577 15.8653 25.5074 15.9093 25.3727 15.9852C25.1149 16.1387 25.0935 16.3658 25.3267 16.4916C25.469 16.554 25.624 16.5821 25.7791 16.5735C25.9342 16.565 26.0852 16.5201 26.2198 16.4425C26.4776 16.2891 26.496 16.062 26.2628 15.9361Z" fill="currentColor"/>
<path d="M13.79 25.837L22.54 31.1771C22.7824 31.3245 22.9543 31.1771 22.8714 30.8702C22.6689 30.1398 22.3282 29.2037 21.9814 28.9152C20.4469 26.9081 15.8709 24.1183 14.3363 24.2502C13.9496 24.1919 13.6458 24.7045 13.4616 25.1249C13.4364 25.263 13.4544 25.4055 13.5132 25.5329C13.5719 25.6604 13.6686 25.7666 13.79 25.837Z" fill="currentColor"/>
<path d="M12.633 27.792C12.5409 27.973 12.9583 28.6298 13.5537 29.259C14.1491 29.8881 14.7261 30.2564 14.8151 30.0753C14.9041 29.8943 14.6156 28.6206 14.011 27.9914C13.4064 27.3623 12.722 27.617 12.633 27.792Z" fill="currentColor"/>
<path d="M22.9021 33.5311C22.2883 33.4022 21.432 33.838 21.5149 34.1235C21.5978 34.4089 22.1656 34.7373 22.7763 34.8846C23.3871 35.0319 23.8167 34.8846 23.7308 34.5961C23.6449 34.3076 23.5129 33.66 22.9021 33.5311Z" fill="currentColor"/>
<path d="M27.4382 43.2908C27.1984 43.1408 27.0007 42.9322 26.8638 42.6846C26.7269 42.4371 26.6553 42.1588 26.6556 41.876L26.6004 27.7582C26.5917 27.2346 26.4546 26.7212 26.2009 26.2631C25.9472 25.805 25.5848 25.4162 25.1456 25.1311C24.959 25.0539 24.7775 24.9647 24.6024 24.8641L11.9731 17.6425C11.6582 17.4643 11.3965 17.2055 11.2147 16.8927C11.0329 16.5799 10.9377 16.2243 10.9389 15.8625C10.9362 15.7297 10.9476 15.597 10.9726 15.4666C10.6568 15.6588 10.396 15.9293 10.2153 16.2519C10.0347 16.5745 9.94032 16.9383 9.94142 17.308L9.99973 32.813C10.004 33.1877 10.1062 33.5549 10.2963 33.8779C10.4863 34.2009 10.7576 34.4686 11.0831 34.6544L25.9375 43.1527C26.4308 43.4309 27.0133 43.5058 27.561 43.3614C27.518 43.3399 27.4781 43.3184 27.4382 43.2908ZM25.9958 33.6846L25.7717 34.7035C25.7318 34.8785 25.5692 34.9183 25.3789 34.8017L24.894 34.4948C24.7558 36.6002 24.805 36.9163 24.719 38.411V39.9977C24.719 40.3476 24.4489 40.4673 24.1052 40.2647L22.6996 39.4084C22.5269 39.2996 22.3817 39.1525 22.2753 38.9784C22.1688 38.8044 22.104 38.6081 22.0858 38.4048V37.7542L14.2044 32.948V33.5956C14.2044 33.9485 13.9343 34.0682 13.5906 33.8657L12.1818 33.0063C12.0098 32.8977 11.8649 32.751 11.7585 32.5775C11.6521 32.404 11.5869 32.2084 11.568 32.0058C11.5716 31.2465 11.5368 30.4874 11.4637 29.7316C11.4299 29.3817 11.4023 29.0319 11.3808 28.6789C11.3133 27.8775 11.3071 27.0721 11.3624 26.2697L10.9112 25.9966C10.7096 25.8632 10.5685 25.656 10.5184 25.4196L10.2913 24.1244C10.2758 24.0706 10.2753 24.0135 10.2899 23.9594C10.3045 23.9053 10.3336 23.8562 10.3742 23.8175C10.4233 23.7935 10.4782 23.7839 10.5325 23.7899C10.5868 23.7959 10.6384 23.8171 10.6811 23.8513L12.2156 24.772C12.5931 23.9556 13.0842 23.2375 13.6397 23.1761C15.5701 23.0134 20.6985 26.1316 22.6106 28.6482C23.1691 29.3756 23.6602 30.7014 24.0346 31.9812L25.5692 32.902C25.6999 32.9889 25.8057 33.1084 25.8761 33.2488C25.9699 33.3735 26.0127 33.5294 25.9958 33.6846Z" fill="currentColor"/>
</svg>
