<svg width="150" height="50" viewBox="0 0 150 50" fill="none" xmlns="http://www.w3.org/2000/svg">
<path d="M55.9954 19.4065C53.8557 19.4065 51.4663 20.2288 50.9669 22.9361C50.9146 23.2227 51.1034 23.3617 51.2892 23.4022L53.4811 23.6657C53.6844 23.6541 53.8208 23.4341 53.8615 23.2285C54.0473 22.2962 54.8167 21.8589 55.676 21.8589C56.1405 21.8589 56.6602 22.0182 56.9331 22.4409C57.2467 22.9129 57.2264 23.5557 57.2264 24.1029V24.4243C55.9228 24.5749 54.207 24.6647 52.9876 25.2119C51.5795 25.8373 50.5895 27.1055 50.5895 28.9731C50.5895 31.3648 52.0585 32.5606 53.9515 32.5606C55.5483 32.5606 56.4338 32.1871 57.6648 30.8986C58.0741 31.5038 58.2048 31.7817 58.9509 32.4159C59.1193 32.5114 59.3312 32.4882 59.4764 32.3579V32.3869C59.9264 31.9786 60.7422 31.2345 61.201 30.8407C61.3839 30.6873 61.3432 30.4353 61.201 30.2298C60.7916 29.6507 60.3532 29.1816 60.3532 28.1016V24.5112C60.3532 22.9911 60.4809 21.5925 59.3893 20.5444C58.5241 19.6989 57.087 19.4065 55.9954 19.4065ZM85.4695 19.4065C83.3297 19.4065 80.9403 20.2288 80.441 22.9361C80.3887 23.2227 80.5774 23.3617 80.7632 23.4022L82.9552 23.6657C83.1584 23.6541 83.2978 23.4341 83.3355 23.2285C83.5243 22.2962 84.2907 21.8589 85.1501 21.8589C85.6146 21.8589 86.1343 22.0182 86.4072 22.4409C86.7208 22.9129 86.6714 23.5557 86.6714 24.1029V24.4243C85.3678 24.5749 83.681 24.6647 82.4617 25.2119C81.0536 25.8373 80.0636 27.1055 80.0636 28.9731C80.0636 31.3648 81.5355 32.5606 83.4255 32.5606C85.0224 32.5606 85.9049 32.1871 87.1388 30.8986C87.5482 31.5038 87.6789 31.7817 88.425 32.4159C88.5934 32.5056 88.8024 32.4969 88.9505 32.3579V32.3869C89.4005 31.9786 90.2163 31.2345 90.675 30.8407C90.8579 30.6873 90.8144 30.4353 90.675 30.2298C90.2657 29.6507 89.8273 29.1816 89.8273 28.1016V24.5112C89.8273 22.9911 89.926 21.5925 88.8344 20.5444C87.9692 19.6989 86.5611 19.4065 85.4695 19.4065ZM68.8888 19.5223C67.5069 19.5223 66.4791 20.2172 65.9362 21.7084H65.9072V20.1622C65.8927 19.9421 65.7185 19.7684 65.4978 19.7539H63.3929C63.152 19.7568 62.9574 19.9508 62.9545 20.1911V32.0018C62.9749 32.219 63.1462 32.3898 63.3639 32.4101H65.6139C65.8549 32.4072 66.0494 32.2132 66.0523 31.9728V25.7041C66.0523 24.3375 65.9856 22.467 67.6027 22.467C69.1966 22.467 68.9759 24.3896 68.9759 25.7041V31.9728C68.9759 32.1958 69.1588 32.3956 69.3853 32.4101H71.6353C71.8763 32.4072 72.0708 32.2132 72.0737 31.9728V25.7041C72.0737 25.0324 72.0476 24.0566 72.2799 23.4601C72.5121 22.8637 73.0783 22.4699 73.6241 22.4699C74.2744 22.4699 74.7709 22.6957 74.9393 23.492C75.0438 23.9639 74.9973 25.2119 74.9973 25.707V31.9757C74.9973 32.1987 75.1802 32.3985 75.4067 32.413H77.6567C77.8977 32.4101 78.0922 32.2161 78.0951 31.9757V24.5112C78.0951 23.243 78.2229 21.8039 77.5116 20.8079C76.8816 19.9132 75.8538 19.5252 74.9102 19.5252C73.5863 19.5252 72.3554 20.2201 71.8124 21.7113C71.1853 20.2201 70.2969 19.5223 68.8888 19.5223ZM107.166 19.5223C103.911 19.5223 102.108 22.3743 102.108 26.0545C102.108 29.7086 103.894 32.6446 107.166 32.6446C110.313 32.6446 112.313 29.7752 112.313 26.1703C112.31 22.4438 110.502 19.5223 107.166 19.5223ZM120.001 19.5223C118.448 19.5223 117.559 20.2983 116.932 21.9139H116.903V20.1043C116.863 19.9219 116.691 19.7945 116.494 19.7829H114.418C114.194 19.7771 114.006 19.9421 113.98 20.1622V31.9728C113.985 32.2016 114.16 32.3898 114.389 32.4101H116.61C116.851 32.4072 117.045 32.2132 117.048 31.9728V25.6173C117.048 24.821 117.115 24.0942 117.429 23.3733C117.681 22.8 118.169 22.4409 118.715 22.4409C120.265 22.4409 120.117 24.3259 120.117 25.6202V32.0365C120.146 32.245 120.317 32.4014 120.527 32.4159H122.777C122.997 32.4159 123.189 32.2479 123.215 32.0365V24.5952C123.215 23.4514 123.218 21.8647 122.631 20.9208C122.004 19.9045 121.006 19.5223 120.001 19.5223ZM92.9831 19.7279C92.7538 19.7279 92.5738 19.9103 92.5738 20.1651V21.856C92.5738 22.1079 92.7509 22.2933 92.9831 22.2933H96.8416L92.4257 28.7965C92.1557 29.2163 92.1325 29.6912 92.1325 29.9634V31.6833C92.1325 31.9323 92.4025 32.2016 92.658 32.0626C95.1751 30.693 98.1887 30.8147 100.465 32.0336C100.741 32.1842 101.019 31.9034 101.019 31.6543V29.8447C101.008 29.5725 100.851 29.3293 100.61 29.2019C99.3181 28.4606 97.82 28.2348 96.4003 28.2695L100.23 22.6697C100.584 22.1659 100.781 21.8647 100.784 21.6186V20.1622C100.784 19.9103 100.613 19.725 100.375 19.725H92.9831V19.7279ZM107.166 21.9429C107.88 21.9429 108.405 22.2614 108.658 23.0808C108.951 24.0247 108.98 25.2061 108.98 26.2022C108.98 27.7165 108.911 30.2269 107.166 30.2269C105.403 30.2269 105.412 27.12 105.412 25.6781C105.412 24.2361 105.508 21.9429 107.166 21.9429ZM57.1944 26.2601V26.7552C57.1944 27.6528 57.2264 28.4056 56.7851 29.2048C56.428 29.8534 55.8676 30.2558 55.2347 30.2558C54.3754 30.2558 53.8615 29.5609 53.8615 28.5649C53.8615 26.6017 55.5686 26.2601 57.1944 26.2601ZM86.6685 26.2601V26.7552C86.6685 27.6528 86.7004 28.4056 86.2591 29.2048C85.902 29.8534 85.3417 30.2558 84.7088 30.2558C83.8465 30.2558 83.3355 29.5609 83.3355 28.5649C83.3355 26.6017 85.0427 26.2601 86.6685 26.2601Z" fill="currentColor"/>
<path d="M101.258 32.7916V34.4826H102.399V32.7916H101.258ZM68.1894 33.0812V45.1235H69.2433V44.0435C69.4668 44.472 69.7223 44.7905 70.033 45.0048C70.3407 45.219 70.6949 45.3262 71.0869 45.3262C71.8591 45.3262 72.5269 44.9324 73.1046 44.1303C73.6824 43.3283 73.9814 42.1672 73.9814 40.6876C73.9814 39.7205 73.8566 38.9185 73.6011 38.238C73.3456 37.5605 73.003 37.0538 72.5762 36.7208C72.1495 36.3878 71.6646 36.1967 71.1449 36.1967C70.782 36.1938 70.4278 36.2951 70.1201 36.4891C69.8152 36.6831 69.5684 36.9988 69.3304 37.3925V33.0754L68.1894 33.0812ZM79.007 35.9129C78.2144 35.9129 77.5844 36.1475 77.1344 36.6137C76.6873 37.0769 76.4608 37.6792 76.4608 38.4233C76.4608 38.8548 76.5595 39.2196 76.725 39.5612C76.8905 39.9029 77.1286 40.1751 77.4276 40.3778C77.7266 40.5805 78.3247 40.8468 79.2102 41.1364C79.8228 41.3333 80.1915 41.5012 80.3512 41.6315C80.5835 41.8226 80.7025 42.0745 80.7025 42.4191C80.7025 42.8187 80.5632 43.1516 80.2931 43.4093C80.0231 43.6699 79.6457 43.7887 79.1522 43.7887C78.6586 43.7887 78.2521 43.6497 77.9531 43.3514C77.657 43.0532 77.4944 42.5957 77.4276 41.9819L76.2866 42.2164C76.545 44.0869 77.4799 45.0163 79.0941 45.0163C79.9535 45.0163 80.6125 44.7731 81.1119 44.2577C81.6083 43.7423 81.8725 43.0503 81.8725 42.2164C81.8725 41.7676 81.7941 41.3767 81.6374 41.0495C81.4806 40.7223 81.2715 40.482 80.9928 40.2909C80.7141 40.1027 80.0957 39.8508 79.1493 39.5323C78.4612 39.292 78.0605 39.1182 77.9212 39.0082C77.6889 38.8229 77.5699 38.571 77.5699 38.2496C77.5699 37.9224 77.6773 37.6444 77.9212 37.4331C78.1621 37.2217 78.5367 37.1117 79.0331 37.1117C79.9041 37.1117 80.3919 37.5894 80.4935 38.5391L81.6054 38.3625C81.5299 37.7603 81.3964 37.2854 81.1961 36.964C80.9957 36.6426 80.6967 36.3675 80.3193 36.1764C79.9418 35.9824 79.5093 35.9129 79.007 35.9129ZM85.9952 35.9129C85.0807 35.9129 84.3113 36.2894 83.7132 37.0798C83.118 37.8703 82.8364 39.0169 82.8364 40.5225C82.8364 41.9703 83.1238 43.1082 83.7132 43.8755C84.3026 44.6428 85.069 45.0134 86.0242 45.0134C86.782 45.0134 87.412 44.7876 87.9259 44.3127C88.4397 43.8408 88.8114 43.143 89.0088 42.2135L87.8388 42.0079C87.502 43.2009 86.8836 43.7858 86.0242 43.7858C85.4784 43.7858 85.0313 43.5541 84.651 43.0561C84.2706 42.5581 84.0529 41.8197 84.0064 40.8411H89.0349V40.4328C89.0349 38.9619 88.7417 37.8558 88.1581 37.0798C87.5746 36.3009 86.8662 35.9129 85.9952 35.9129ZM92.9253 35.9129C92.6524 35.9129 92.4143 36.0056 92.1937 36.2054C91.9759 36.4052 91.7263 36.8163 91.4621 37.4302V36.0896H90.4372V44.8079H91.5782V40.2591C91.5782 39.625 91.6392 39.014 91.7843 38.4494C91.8656 38.1251 92.0224 37.8732 92.2227 37.6908C92.423 37.5112 92.6524 37.4273 92.8963 37.4273C93.1634 37.4273 93.4305 37.5344 93.715 37.7487L94.0953 36.3791C93.6976 36.0606 93.3085 35.9129 92.9253 35.9129ZM106.902 35.9129C105.999 35.9129 105.256 36.2923 104.681 37.0509C104.106 37.8095 103.804 38.9474 103.804 40.4617C103.804 41.9645 104.112 43.1053 104.681 43.8726C105.25 44.6399 105.964 45.0105 106.844 45.0105C107.569 45.0105 108.197 44.7413 108.716 44.194C109.236 43.6468 109.552 42.8418 109.68 41.8024L108.568 41.6257C108.487 42.3699 108.292 42.9055 107.985 43.2588C107.677 43.612 107.305 43.7829 106.873 43.7829C106.321 43.7829 105.851 43.5252 105.499 42.9953C105.148 42.4654 104.974 41.6141 104.974 40.4299C104.974 39.2804 105.16 38.4494 105.528 37.9224C105.897 37.3925 106.367 37.1059 106.931 37.1059C107.308 37.1059 107.628 37.2507 107.895 37.5431C108.165 37.8355 108.342 38.2959 108.449 38.8837L109.561 38.6492C109.428 37.7313 109.131 37.0364 108.655 36.5789C108.179 36.1214 107.598 35.9129 106.902 35.9129ZM113.422 35.9129C112.508 35.9129 111.739 36.2894 111.14 37.0798C110.545 37.8703 110.264 39.0169 110.264 40.5225C110.264 41.9703 110.551 43.1082 111.14 43.8755C111.733 44.6428 112.496 45.0134 113.451 45.0134C114.209 45.0134 114.839 44.7876 115.353 44.3127C115.867 43.8408 116.239 43.143 116.436 42.2135L115.266 42.0079C114.929 43.2009 114.337 43.7858 113.483 43.7858C112.938 43.7858 112.461 43.5541 112.081 43.0561C111.701 42.5581 111.483 41.8197 111.437 40.8411H116.465V40.4328C116.465 38.9619 116.172 37.8558 115.588 37.0798C115.005 36.3009 114.293 35.9129 113.422 35.9129ZM120.175 35.9129C119.38 35.9129 118.753 36.1475 118.303 36.6137C117.853 37.0769 117.629 37.6792 117.629 38.4233C117.629 38.8548 117.699 39.2196 117.864 39.5612C118.03 39.9 118.268 40.1751 118.567 40.3778C118.863 40.5805 119.464 40.8468 120.35 41.1364C120.962 41.3333 121.36 41.5012 121.52 41.6315C121.752 41.8226 121.871 42.0745 121.871 42.4191C121.871 42.8187 121.732 43.1516 121.462 43.4093C121.192 43.6699 120.814 43.7887 120.321 43.7887C119.827 43.7887 119.421 43.6497 119.122 43.3514C118.825 43.0532 118.631 42.5957 118.567 41.9819L117.426 42.2164C117.684 44.0869 118.616 45.0163 120.234 45.0163C121.096 45.0163 121.781 44.7731 122.28 44.2577C122.78 43.7423 123.041 43.0503 123.041 42.2164C123.041 41.7676 122.963 41.3767 122.806 41.0495C122.649 40.7223 122.411 40.482 122.132 40.2909C121.856 40.1027 121.264 39.8508 120.318 39.5323C119.63 39.292 119.2 39.1182 119.061 39.0082C118.828 38.8229 118.709 38.571 118.709 38.2496C118.709 37.9224 118.846 37.6444 119.09 37.4331C119.331 37.2217 119.708 37.1117 120.202 37.1117C121.073 37.1117 121.56 37.5894 121.662 38.5391L122.774 38.3625C122.696 37.7603 122.565 37.2854 122.365 36.964C122.15 36.6252 121.845 36.3531 121.488 36.1764C121.113 35.9824 120.678 35.9129 120.175 35.9129ZM94.0953 36.0867L96.6386 44.805H97.7215L100.265 36.0867H99.0948L97.6025 41.423C97.4225 42.0687 97.2628 42.6247 97.1641 43.085C97.0393 42.506 96.9202 41.8979 96.7547 41.3072L95.2944 36.0867H94.0953ZM101.258 36.0867V44.805H102.399V36.0867H101.258ZM63.7735 36.2025C62.8677 36.2025 62.1419 36.6079 61.5525 37.3983C60.9631 38.1888 60.6467 39.3354 60.6467 40.8411C60.6467 42.2917 60.9399 43.3978 61.5235 44.1651C62.1099 44.9324 62.888 45.3319 63.8345 45.3319C64.5835 45.3319 65.199 45.0771 65.7071 44.6023C66.2152 44.1303 66.5665 43.4325 66.761 42.5031L65.62 42.3264C65.289 43.5194 64.6851 44.1043 63.8374 44.1043C63.2945 44.1043 62.8415 43.8726 62.4641 43.3746C62.0867 42.8766 61.866 42.1382 61.8196 41.1596H66.79L66.819 40.7513C66.819 39.2804 66.52 38.1454 65.9422 37.3694C65.3587 36.5905 64.6358 36.2025 63.7735 36.2025ZM50.9381 36.4081L52.9849 45.1264H54.184L55.5282 38.4175L55.7634 39.9058L56.8463 45.1264H58.0163L60.0921 36.4081H59.0092L57.8682 41.452L57.4879 43.143L57.1366 41.452L56.1437 36.4081H54.9737L53.9198 41.5128L53.5685 43.3225L53.1591 41.4549L52.1052 36.411L50.9381 36.4081ZM123.715 36.4949V36.9032H124.827V39.8189H125.265V36.9032H126.377V36.4949H123.715ZM126.815 36.4949V39.8189H127.225V36.9901L128.189 39.8189H128.598L129.562 37.048V39.8189H130V36.4949H129.388L128.598 38.8287C128.519 39.0632 128.461 39.2312 128.421 39.3528L128.244 38.8576L127.454 36.4949H126.815ZM85.9661 37.1059C86.5352 37.1059 87.0026 37.381 87.3684 37.9224C87.621 38.293 87.7836 38.8605 87.8359 39.6134H84.0645C84.0993 38.849 84.3171 38.2583 84.6771 37.8037C85.0371 37.3491 85.4552 37.1059 85.9661 37.1059ZM113.393 37.1059C113.96 37.1059 114.43 37.381 114.796 37.9224C115.048 38.293 115.211 38.8605 115.263 39.6134H111.492C111.527 38.849 111.744 38.2583 112.104 37.8037C112.467 37.3549 112.882 37.1059 113.393 37.1059ZM63.7735 37.4273C64.3338 37.4273 64.7867 37.7024 65.1467 38.2438C65.3964 38.6144 65.5619 39.1819 65.6142 39.9348H61.9009C61.9357 39.1704 62.1273 38.5507 62.4844 38.0961C62.8444 37.6473 63.2683 37.4273 63.7735 37.4273ZM71.0259 37.4273C71.534 37.4273 71.9636 37.7081 72.312 38.2438C72.6604 38.7795 72.8085 39.6076 72.8085 40.7513C72.8085 41.8661 72.643 42.6971 72.283 43.2588C71.923 43.8205 71.4904 44.1043 71.0259 44.1043C70.6833 44.1043 70.3726 43.9884 70.091 43.7539C69.8094 43.5194 69.6004 43.1806 69.4465 42.7318C69.2926 42.283 69.2113 41.591 69.2113 40.6905C69.2113 39.6278 69.4 38.8316 69.7659 38.2699C70.1346 37.711 70.5585 37.4273 71.0259 37.4273Z" fill="currentColor"/>
<path d="M34.5488 28.1828L30.191 30.0504L34.2266 31.7703L38.9038 30.0504L34.5488 28.1828ZM27.999 30.5165L27.8539 38.9163L34.2266 41.7163V32.998L27.999 30.5165ZM41.0986 30.5165L35.3385 32.7026V40.9258L41.0986 38.592V30.5165ZM47.9707 4.3877L43.5838 6.25528L47.6484 7.9752L52.3256 6.25528L47.9707 4.3877ZM41.8883 6.86912V15.2689L47.3262 16.8441L47.5033 9.20288L41.8883 6.86912ZM54.0502 7.3353L48.9026 9.52139V17.7735L54.0502 15.4398V7.3353ZM27.369 16.21L23.0141 18.0746L27.0497 19.7946L31.7269 18.0746L27.369 16.21ZM20.8192 18.5408L20.6741 26.9406L27.0468 29.7405V21.0194L20.8192 18.5408ZM33.9188 18.5408L28.1587 20.7269V28.9501L33.9188 26.6163V18.5408ZM41.4035 15.9001L37.0486 17.7648L41.0841 19.4847L45.7613 17.7648L41.4035 15.9001ZM34.8537 18.231L34.7085 26.6308L41.0812 29.4307V20.7124L34.8537 18.231ZM47.9533 18.231L42.1932 20.4171V28.6403L47.9533 26.3065V18.231ZM61.6771 4.3877L57.3222 6.25528L61.3577 7.9752L66.0349 6.25528L61.6771 4.3877ZM55.1273 6.72145L54.9821 15.1213L61.3548 17.9212V9.19999L55.1273 6.72145ZM68.2269 6.72145L62.4668 8.90754V17.1307L68.2269 14.797V6.72145Z" fill="currentColor"/>
</svg>
