<svg width="150" height="50" viewBox="0 0 150 50" fill="none" xmlns="http://www.w3.org/2000/svg">
<path fill-rule="evenodd" clip-rule="evenodd" d="M67.3478 26.2236C67.3478 30.6484 69.7297 32.8513 74.4961 32.8513C75.7092 32.8513 76.8583 32.6491 77.9238 32.2661V26.992H76.2308V31.2551C75.5418 31.3954 74.9144 31.4763 74.3509 31.4763C70.8198 31.4763 69.0432 29.7183 69.0432 26.1832C69.0432 22.9098 70.8395 21.254 74.4345 21.254C75.6255 21.254 76.7968 21.4562 77.9238 21.8797V20.4666C76.7943 20.124 75.5615 19.9409 74.2451 19.9409C69.6461 19.9409 67.3478 22.0415 67.3478 26.2236Z" fill="currentColor"/>
<path fill-rule="evenodd" clip-rule="evenodd" d="M63.2114 30.2845L55.165 20.0408H53.472V32.7704H55.0813V22.4245L63.1277 32.7704H64.8207V20.0408H63.2114V30.2845Z" fill="currentColor"/>
<path fill-rule="evenodd" clip-rule="evenodd" d="M96.3124 20.0408H94.6195V32.7704H103.21V31.4359H96.3124V20.0408Z" fill="currentColor"/>
<path fill-rule="evenodd" clip-rule="evenodd" d="M124.482 26.7684C126.928 25.981 128.161 24.7487 128.161 23.0906C128.161 21.0495 126.906 20.0408 124.399 20.0408H118.778V32.7681H120.513V21.4158H124.276C125.676 21.4158 126.365 22.001 126.365 23.1738C126.365 24.6678 125.09 25.598 122.583 25.981V27.0515L126.763 32.7681H129L124.482 26.7684Z" fill="currentColor"/>
<path fill-rule="evenodd" clip-rule="evenodd" d="M103.877 32.7704H105.653L110.355 21.6775L112.821 27.4345H109.499L109.039 28.7691H113.387L115.08 32.7704H116.96L110.419 18.3636L103.877 32.7704Z" fill="currentColor"/>
<path fill-rule="evenodd" clip-rule="evenodd" d="M89.8974 27.8603C89.8974 30.3059 88.6228 31.5382 86.1154 31.5382C83.5858 31.5382 82.3333 30.3059 82.3333 27.8603V20.0408H80.6404V27.8603C80.6404 31.1932 82.4588 32.8704 86.1154 32.8704C89.7719 32.8704 91.5904 31.1932 91.5904 27.8603V20.0408H89.8974V27.8603Z" fill="currentColor"/>
<path fill-rule="evenodd" clip-rule="evenodd" d="M35.5214 21.0709L33.0337 26.8088H38.3635L35.5214 21.0709Z" fill="currentColor"/>
<path fill-rule="evenodd" clip-rule="evenodd" d="M22 16.646L24.0694 33.879L35.4796 40L47.0767 33.7981L49.3135 16.5652L35.4796 12L22 16.646ZM44.2568 33.3747L41.2671 33.3152L39.429 29.1925H31.9264L30.2334 33.2748L27.0985 33.3342L35.4993 15.2734L44.2568 33.3747Z" fill="currentColor"/>
</svg>
