<svg width="150" height="50" viewBox="0 0 150 50" fill="none" xmlns="http://www.w3.org/2000/svg">
<path d="M18.7094 14L10.7718 20.7279L4 32.6127H10.1074L18.7094 14ZM19.7649 15.5735L16.3778 24.9069L22.8713 32.8848L10.2729 35H30.9217L19.7649 15.5735Z" fill="currentColor"/>
<path d="M52.3778 30.5173H50.9964V22.8286C50.9964 22.2404 51.0566 21.4781 51.1167 20.5982H51.0566C50.9362 21.1252 50.8159 21.4781 50.6955 21.7134L46.7317 30.4585H46.0724L42.1086 21.8311C41.9882 21.5958 41.8679 21.1864 41.7475 20.657H41.6874C41.7475 21.1276 41.7475 21.831 41.7475 22.8874V30.5173H40.4263V19.1301H42.2264L45.8292 27.1129C46.13 27.6987 46.2504 28.1693 46.3707 28.4634H46.4309C46.7317 27.76 46.9123 27.2894 46.9724 27.0541L50.6354 19.1301H52.3753L52.3778 30.5173ZM56.3416 19.4242C56.3416 19.6595 56.2815 19.8948 56.101 20.01C55.9204 20.1864 55.7399 20.2453 55.4992 20.2453C55.2586 20.2453 55.0179 20.1864 54.9 20.01C54.7195 19.8335 54.6593 19.657 54.6593 19.3654C54.6593 19.1301 54.7195 18.9536 54.9 18.7796C55.0805 18.6031 55.2611 18.5443 55.4992 18.5443C55.7399 18.5443 55.9806 18.6031 56.101 18.7796C56.2815 19.0124 56.3416 19.1889 56.3416 19.4242ZM56.1611 30.5173H54.8399V22.358H56.1611V30.5173ZM64.026 30.1644C63.3667 30.5762 62.6446 30.7526 61.7445 30.7526C60.9648 30.7526 60.3029 30.5762 59.7037 30.2257C59.1045 29.8727 58.6231 29.4046 58.2621 28.7575C57.9011 28.1129 57.7807 27.407 57.7807 26.6448C57.7807 25.2943 58.2019 24.2379 58.9817 23.4168C59.7614 22.5958 60.842 22.184 62.1632 22.184C62.8828 22.184 63.5447 22.3016 64.0837 22.5958V23.9462C63.482 23.5345 62.8226 23.3016 62.1031 23.3016C61.2632 23.3016 60.5411 23.5958 60.0021 24.1815C59.4605 24.7673 59.2223 25.5909 59.2223 26.5296C59.2223 27.4683 59.463 28.233 60.0021 28.76C60.5436 29.2894 61.203 29.5811 62.0429 29.5811C62.7624 29.5811 63.4845 29.3458 64.0837 28.8776V30.1693L64.026 30.1644ZM69.9103 23.7085C69.6696 23.532 69.3111 23.4732 68.8899 23.4732C68.2907 23.4732 67.8093 23.7673 67.4483 24.2943C67.0873 24.8237 66.9068 25.5271 66.9068 26.407V30.5737H65.5855V22.358H66.9068V24.0614H66.9669C67.1474 23.4757 67.4483 23.0639 67.8068 22.711C68.1678 22.358 68.6467 22.2404 69.1281 22.2404C69.4891 22.2404 69.7298 22.2992 69.9078 22.358V23.7085H69.9103ZM78.2541 26.407C78.2541 27.6987 77.8931 28.7551 77.1133 29.5173C76.3336 30.2796 75.3709 30.6913 74.1123 30.6913C72.8512 30.6913 71.891 30.2796 71.1714 29.5173C70.4519 28.7551 70.0908 27.7575 70.0908 26.4659C70.0908 25.1154 70.4519 24.059 71.2316 23.2967C72.0113 22.5345 73.0317 22.1227 74.353 22.1227C75.6141 22.1227 76.5743 22.4757 77.2337 23.2379C77.9557 24.059 78.2541 25.1178 78.2541 26.407ZM76.9353 26.4659C76.9353 25.4683 76.6947 24.6472 76.2158 24.1178C75.7344 23.5884 75.075 23.2967 74.2351 23.2967C73.3953 23.2967 72.6732 23.5909 72.1943 24.1178C71.713 24.7061 71.4748 25.4683 71.4748 26.4659C71.4748 27.4634 71.7155 28.2257 72.2545 28.7551C72.7359 29.2845 73.4554 29.5762 74.2953 29.5762C75.1352 29.5762 75.8573 29.282 76.276 28.7551C76.6947 28.2281 76.9353 27.4634 76.9353 26.4659ZM84.4392 28.3458C84.4392 29.0492 84.1384 29.6374 83.5993 30.0492C83.0578 30.5198 82.2781 30.6938 81.378 30.6938C80.5983 30.6938 79.8762 30.5173 79.3372 30.2232V28.8139C79.9966 29.3409 80.7186 29.5762 81.4983 29.5762C82.5789 29.5762 83.0603 29.2232 83.0603 28.461C83.0603 28.1668 82.94 27.8752 82.7594 27.6987C82.5789 27.5222 82.1001 27.2281 81.378 26.9364C80.6585 26.6423 80.1169 26.2918 79.816 25.9389C79.5152 25.586 79.3347 25.1178 79.3347 24.5296C79.3347 23.885 79.6355 23.2967 80.1746 22.8286C80.7136 22.358 81.4357 22.1252 82.2756 22.1252C82.9349 22.1252 83.5367 22.2428 84.0757 22.5369V23.8286C83.5342 23.4168 82.8748 23.2428 82.2154 23.2428C81.7942 23.2428 81.4357 23.3605 81.1348 23.5369C80.8941 23.7722 80.7136 24.0075 80.7136 24.358C80.7136 24.711 80.834 25.0026 81.0145 25.1791C81.195 25.3556 81.6738 25.5909 82.2756 25.8825C83.0553 26.2355 83.5968 26.5271 83.9579 26.9389C84.2587 27.3482 84.4392 27.8163 84.4392 28.3458ZM93.5051 26.407C93.5051 27.6987 93.144 28.7551 92.3643 29.5173C91.5846 30.2796 90.6219 30.6913 89.3633 30.6913C88.1022 30.6913 87.1419 30.2796 86.4224 29.5173C85.7028 28.7551 85.3418 27.7575 85.3418 26.4659C85.3418 25.1154 85.7028 24.059 86.4826 23.2967C87.2623 22.5345 88.2827 22.1227 89.604 22.1227C90.865 22.1227 91.8253 22.4757 92.4847 23.2379C93.144 24.059 93.5051 25.1178 93.5051 26.407ZM92.1236 26.4659C92.1236 25.4683 91.8829 24.6472 91.4041 24.1178C90.9227 23.5884 90.2633 23.2967 89.4234 23.2967C88.5835 23.2967 87.8615 23.5909 87.3826 24.1178C86.9012 24.7061 86.6631 25.4683 86.6631 26.4659C86.6631 27.4634 86.9038 28.2257 87.4428 28.7551C87.9242 29.2845 88.6437 29.5762 89.4836 29.5762C90.3235 29.5762 91.0456 29.282 91.4642 28.7551C91.9431 28.2281 92.1236 27.4634 92.1236 26.4659ZM98.9681 19.5982C98.7275 19.4806 98.4291 19.3629 98.0681 19.3629C97.1078 19.3629 96.6866 19.9511 96.6866 21.0639V22.3556H98.6673V23.4708H96.6866V30.5149H95.3052V23.4732H93.8636V22.358H95.3052V21.0663C95.3052 20.2453 95.5459 19.5982 96.0247 19.0712C96.5663 18.5418 97.2257 18.2502 98.0054 18.2502C98.4266 18.2502 98.7249 18.309 98.9656 18.3678L98.9681 19.5982Z" fill="currentColor"/>
<path d="M103.471 30.4587C103.17 30.6351 102.751 30.694 102.21 30.694C100.768 30.694 100.049 29.8729 100.049 28.2871V23.4734H98.607V22.3582H100.049V20.3631L101.37 19.9513V22.3582H103.471V23.4734H101.37V28.0518C101.37 28.5812 101.49 28.9905 101.671 29.2258C101.851 29.4611 102.152 29.5788 102.631 29.5788C102.992 29.5788 103.233 29.5199 103.471 29.3435V30.4587ZM117.461 30.5175H115.959L114.758 27.3484H109.776L108.636 30.5175H107.134L111.516 19.1302H112.958L117.461 30.5175ZM114.279 26.1155L112.419 21.243C112.359 21.1253 112.299 20.89 112.238 20.4807H112.178C112.118 20.8337 112.058 21.0665 111.998 21.243L110.198 26.1155H114.279ZM124.967 22.7111L119.983 29.4023H124.847V30.5175H118.002V30.1057L122.926 23.4734H118.484V22.3582H124.907V22.7111H124.967ZM132.952 30.5175H131.631V29.2258H131.571C131.029 30.2234 130.19 30.694 128.989 30.694C127.008 30.694 125.988 29.5199 125.988 27.2307V22.3582H127.309V27.0543C127.309 28.7552 127.968 29.6376 129.35 29.6376C130.009 29.6376 130.551 29.4023 130.972 28.9342C131.393 28.4636 131.571 27.8778 131.571 27.1155V22.3582H132.892V30.5175H132.952ZM139.556 23.7087C139.316 23.5322 138.955 23.4734 138.536 23.4734C137.937 23.4734 137.455 23.7675 137.094 24.2945C136.733 24.8239 136.553 25.5273 136.553 26.4072V30.5739H135.231V22.3582H136.553V24.0616H136.613C136.793 23.4758 137.094 23.0641 137.453 22.7111C137.814 22.3582 138.293 22.2405 138.774 22.2405C139.135 22.2405 139.376 22.2994 139.554 22.3582V23.7087H139.556ZM147 26.7601H141.116C141.116 27.6989 141.356 28.4047 141.835 28.8729C142.317 29.3435 142.976 29.5763 143.816 29.5763C144.776 29.5763 145.616 29.2822 146.398 28.6964V29.9293C145.679 30.4587 144.716 30.6915 143.518 30.6915C142.319 30.6915 141.417 30.3386 140.755 29.5763C140.095 28.8141 139.734 27.8165 139.734 26.466C139.734 25.6449 139.915 24.9391 140.216 24.2356C140.577 23.591 140.995 23.0616 141.597 22.7087C142.196 22.3557 142.858 22.1793 143.578 22.1793C144.658 22.1793 145.498 22.5322 146.1 23.2356C146.699 23.9391 147 24.8802 147 26.1106V26.7601ZM145.621 25.6449C145.621 24.8827 145.441 24.2945 145.082 23.8851C144.721 23.4734 144.242 23.2405 143.58 23.2405C142.981 23.2405 142.439 23.4758 142.018 23.8851C141.597 24.2969 141.299 24.8827 141.178 25.5861H145.621V25.6449Z" fill="currentColor"/>
</svg>
