<svg width="150" height="50" viewBox="0 0 150 50" fill="none" xmlns="http://www.w3.org/2000/svg">
<path d="M145.822 29.72C145.416 30.6229 144.795 31.2829 143.801 31.5372C142.469 31.8764 141.168 31.8191 139.891 31.2989C139.891 30.726 139.891 30.1829 139.891 29.5436C140.728 30.1302 141.601 30.3846 142.561 30.309C142.85 30.286 143.132 30.2494 143.386 30.1142C143.956 29.814 144.048 29.1975 143.594 28.7438C143.374 28.5238 143.099 28.3978 142.811 28.2901C142.24 28.0769 141.669 27.873 141.131 27.5842C140.322 27.1488 139.884 26.5026 139.887 25.5699C139.889 24.6487 140.368 24.0185 141.142 23.6175C142.492 22.9185 143.888 22.9827 145.32 23.4525C145.32 23.9773 145.32 24.4837 145.32 24.9993C145.134 25.1024 145.011 24.9351 144.871 24.8687C144.193 24.5456 143.482 24.4608 142.753 24.5937C142.311 24.6739 141.899 24.8572 141.809 25.3706C141.713 25.9274 142.064 26.2093 142.517 26.3995C142.834 26.5324 143.159 26.6378 143.478 26.7593C144.552 27.1649 145.496 27.7103 145.824 28.9225C145.822 29.1884 145.822 29.4542 145.822 29.72Z" fill="currentColor"/>
<path d="M23.549 18.0099C25.6274 17.6318 27.7036 17.256 29.8188 16.871C29.8188 22.1669 29.8188 27.4078 29.8188 32.722C27.7816 34.3972 25.6985 36.109 23.5948 37.8369C20.3797 36.7713 17.1737 35.708 13.9265 34.6309C13.9265 35.6919 13.9265 36.6956 13.9265 37.6879C13.7845 37.7681 13.7295 37.6787 13.6699 37.61C11.4677 35.0136 9.26313 32.4172 7.05861 29.8208C7.01049 29.7636 6.97841 29.6948 6.93716 29.6306C6.94174 29.5825 6.94403 29.5344 6.94633 29.484C7.07924 29.4886 7.21444 29.4771 7.34506 29.4954C11.2866 30.0431 15.2282 30.5954 19.172 31.1454C20.6157 31.347 22.0594 31.5441 23.5513 31.7504C23.5513 27.1511 23.5513 22.6115 23.5513 18.0718C23.5513 18.0535 23.5513 18.0306 23.549 18.0099Z" fill="currentColor"/>
<path d="M23.549 18.0099C23.5513 18.0329 23.5513 18.0535 23.5513 18.0764C23.4183 18.0878 23.2831 18.0901 23.1548 18.1153C19.5639 18.796 15.9752 19.4766 12.3843 20.1595C10.5373 20.5101 8.69252 20.8653 6.78591 21.2296C6.78591 21.4588 6.78591 21.6627 6.78591 21.8667C6.78591 23.5006 6.77675 25.1345 6.78821 26.7684C6.79508 27.6782 6.73092 28.5903 6.83175 29.5L6.83862 29.4909C5.96323 29.3144 5.08784 29.1425 4.17578 28.9638C4.17578 26.5255 4.17578 24.101 4.17578 21.6077C4.54702 21.1288 5.02826 20.6247 5.36741 20.038C6.15802 18.6745 7.36569 17.9756 8.82315 17.4691C11.0827 16.6831 13.2918 15.7481 15.5559 14.8636C15.5559 14.0065 15.5559 13.1609 15.5559 12.1641C18.2875 14.16 20.9182 16.085 23.549 18.0099Z" fill="currentColor"/>
<path d="M45.9402 31.5327C45.2206 31.5327 44.5561 31.5327 43.8136 31.5327C45.255 27.6919 46.685 23.8856 48.1241 20.0563C48.8528 20.0563 49.5701 20.0563 50.3401 20.0563C51.7402 23.8077 53.1519 27.5819 54.5612 31.3585C54.6162 30.9529 54.7812 30.6481 55.0126 30.3456C56.257 28.7117 57.483 27.064 58.7136 25.4187C58.8465 25.2422 58.9748 25.0612 59.1604 24.8045C57.7603 24.8045 56.4563 24.8045 55.1341 24.8045C55.0539 24.2889 55.0631 23.8237 55.1226 23.3425C57.334 23.3425 59.5202 23.3425 61.7133 23.3425C61.8554 23.8237 61.7179 24.1858 61.4314 24.5639C60.0771 26.3491 58.7502 28.1548 57.3478 30.0431C58.8511 30.0431 60.265 30.0431 61.6949 30.0431C61.7522 30.5794 61.7637 31.0446 61.6926 31.5281C58.6242 31.5281 55.5787 31.5281 52.4804 31.5281C52.1413 30.5839 51.7952 29.6238 51.44 28.6361C49.9551 28.6361 48.4747 28.6361 46.9393 28.6361C46.6162 29.5756 46.2839 30.5381 45.9402 31.5327ZM49.1782 22.0088C48.5847 23.7366 48.0324 25.3453 47.4687 26.9815C48.6214 26.9815 49.7259 26.9815 50.9038 26.9815C50.3263 25.3133 49.7695 23.7114 49.1782 22.0088Z" fill="currentColor"/>
<path d="M129.217 25.712C129.219 27.5201 128.814 29.2044 127.377 30.4258C125.562 31.9704 123.456 32.1422 121.32 31.2875C119.205 30.4419 118.295 28.6544 118.146 26.4797C118.009 24.4997 118.373 22.6183 119.927 21.2228C121.698 19.6347 123.811 19.4124 125.963 20.2213C128.069 21.0119 128.992 22.7581 129.212 24.9145C129.24 25.1781 129.217 25.4462 129.217 25.712ZM127.207 25.877C127.182 25.0681 127.118 24.3187 126.829 23.5991C125.892 21.2709 122.761 20.7576 121.176 22.7123C119.963 24.2064 119.929 25.9343 120.479 27.6759C120.983 29.2709 122.317 30.1371 123.905 30.0408C125.507 29.9423 126.657 28.9294 127.047 27.2955C127.164 26.8097 127.166 26.3193 127.207 25.877Z" fill="currentColor"/>
<path d="M90.9105 31.5143C90.9105 27.6713 90.9105 23.8787 90.9105 20.0174C92.8882 20.0953 94.8521 19.8157 96.7839 20.297C98.8716 20.8171 100.192 22.0959 100.522 24.2545C100.822 26.223 100.615 28.0907 99.1786 29.6329C98.0718 30.82 96.651 31.3998 95.0675 31.4983C93.7017 31.5808 92.3268 31.5143 90.9105 31.5143ZM92.8607 29.901C93.7636 29.9652 94.6069 29.9606 95.4296 29.8071C97.0222 29.5115 98.0603 28.588 98.4476 26.993C98.6447 26.1864 98.6424 25.3683 98.4957 24.5593C98.2872 23.4067 97.7006 22.5198 96.5754 22.0477C95.3723 21.5436 94.1234 21.6948 92.8584 21.7086C92.8607 24.4677 92.8607 27.158 92.8607 29.901Z" fill="currentColor"/>
<path d="M132.67 30.3914C132.67 32.1033 132.67 33.6868 132.67 35.2978C132.04 35.2978 131.458 35.2978 130.839 35.2978C130.839 31.3218 130.839 27.3597 130.839 23.3539C131.428 23.3539 132.024 23.3539 132.65 23.3539C132.65 23.7641 132.65 24.1583 132.65 24.5433C132.803 24.5983 132.84 24.4952 132.89 24.4241C133.734 23.3012 134.863 22.9254 136.22 23.1821C137.584 23.4387 138.319 24.36 138.647 25.6226C139 26.9815 138.938 28.3405 138.367 29.6398C137.588 31.4112 135.542 32.227 133.892 31.4639C133.424 31.2416 133.083 30.8681 132.67 30.3914ZM132.675 27.4238C132.675 27.7286 132.67 27.9371 132.675 28.1457C132.7 29.1654 133.356 30.011 134.254 30.1829C135.324 30.3892 136.209 29.9056 136.614 28.8584C136.944 28.0059 136.988 27.119 136.779 26.2299C136.564 25.3201 135.952 24.7587 135.065 24.6395C134.226 24.5272 133.417 24.9649 132.987 25.751C132.686 26.3055 132.65 26.9059 132.675 27.4238Z" fill="currentColor"/>
<path d="M85.0165 27.9692C83.1443 27.9692 81.3202 27.9692 79.503 27.9692C79.3105 29.6513 81.3087 31.2623 84.3726 29.5825C84.3726 30.0637 84.3726 30.5289 84.3726 31.0743C82.8739 31.8145 81.2881 32.0506 79.6771 31.4089C78.2724 30.8475 77.7086 29.6444 77.5574 28.2098C77.3832 26.5736 77.6903 25.0933 79.0194 23.9887C80.1904 23.0148 81.5494 22.8544 82.9449 23.37C84.2718 23.8581 84.8057 24.9833 85.0005 26.2941C85.0761 26.8166 85.0761 27.3505 85.0165 27.9692ZM83.1672 26.592C83.2451 25.4118 82.6333 24.612 81.6089 24.525C80.5113 24.431 79.6084 25.3018 79.4915 26.592C80.7198 26.592 81.9435 26.592 83.1672 26.592Z" fill="currentColor"/>
<path d="M108.538 29.5436C108.538 30.0729 108.538 30.5404 108.538 31.001C106.828 32.172 104.002 31.9887 102.699 30.6298C101.518 29.3969 101.285 26.7616 102.21 25.1093C103.084 23.551 104.77 22.8246 106.603 23.2187C108.043 23.5281 108.998 24.7243 109.161 26.4682C109.204 26.938 109.168 27.4147 109.168 27.9509C107.316 27.9509 105.476 27.9509 103.597 27.9509C103.615 28.8011 103.89 29.4473 104.562 29.8896C105.526 30.5198 106.883 30.4098 108.538 29.5436ZM103.613 26.5828C104.871 26.5828 106.097 26.5828 107.321 26.5828C107.41 25.3797 106.649 24.5914 105.783 24.5204C104.704 24.4287 103.835 25.217 103.613 26.5828Z" fill="currentColor"/>
<path d="M62.8178 23.3333C63.4641 23.3333 64.0484 23.3333 64.6282 23.3333C64.7771 23.5327 64.7107 23.7481 64.713 23.9498C64.729 25.4691 64.7015 26.9884 64.7611 28.5055C64.8046 29.6146 65.3569 30.1737 66.285 30.2219C67.2383 30.2723 67.9923 29.6902 68.2077 28.7094C68.2673 28.4344 68.2902 28.1457 68.2925 27.8638C68.2993 26.3674 68.297 24.871 68.297 23.3425C68.9456 23.3425 69.546 23.3425 70.1807 23.3425C70.1807 26.0603 70.1807 28.7667 70.1807 31.5097C69.5689 31.5097 68.9685 31.5097 68.3291 31.5097C68.3291 31.1752 68.3291 30.8429 68.3291 30.5198C68.1 30.4396 68.0725 30.6183 68.0014 30.7054C67.1467 31.7572 66.0215 31.9199 64.7978 31.6243C63.6634 31.3493 63.1364 30.5152 62.9232 29.4221C62.7468 28.5169 62.8407 27.6049 62.827 26.6951C62.8041 25.5997 62.8178 24.4997 62.8178 23.3333Z" fill="currentColor"/>
<path d="M109.473 23.3356C110.217 23.3356 110.861 23.3356 111.542 23.3356C112.227 25.4897 112.908 27.6369 113.597 29.8071C114.312 27.6461 115.023 25.4989 115.738 23.3379C116.384 23.3379 117.007 23.3379 117.741 23.3379C116.675 26.0924 115.625 28.8011 114.571 31.5235C113.884 31.5235 113.224 31.5235 112.497 31.5235C111.505 28.8332 110.501 26.1199 109.473 23.3356Z" fill="currentColor"/>
<path d="M77.0853 25.0245C75.2933 24.5593 74.2117 25.4691 74.1773 27.4101C74.1567 28.5857 74.1727 29.7635 74.1727 30.9391C74.1727 31.1225 74.1727 31.3081 74.1727 31.5189C73.5173 31.5189 72.9169 31.5189 72.2867 31.5189C72.2867 28.7942 72.2867 26.0878 72.2867 23.3471C72.9054 23.3471 73.5036 23.3471 74.1612 23.3471C74.1612 23.7756 74.1612 24.1973 74.1612 24.6212C74.8327 23.5785 75.6347 22.9117 77.0189 23.2669C77.1495 23.8191 77.0487 24.3989 77.0853 25.0245Z" fill="currentColor"/>
<path d="M6.94862 29.4863C6.94633 29.5344 6.94174 29.5825 6.93945 29.6329C6.87529 29.6077 6.82945 29.5665 6.84091 29.4886L6.83404 29.4977C6.8707 29.4931 6.90966 29.4886 6.94862 29.4863Z" fill="currentColor"/>
</svg>
