<svg width="150" height="50" viewBox="0 0 150 50" fill="none" xmlns="http://www.w3.org/2000/svg">
<path d="M28.2792 21.2504C27.764 19.3546 26.9347 17.8801 25.5206 16.6651L22.3705 19.8067C23.6429 20.8034 24.1684 22.2085 24.1349 23.9219V24.4793C25.6829 24.4793 26.9398 25.7303 26.9398 27.2767C26.9398 28.8232 25.6855 30.0742 24.1349 30.0742H18.525V34.5515H24.1349C28.1633 34.5824 31.4551 31.3508 31.486 27.3333C31.5066 24.898 30.3011 22.6144 28.2792 21.2504Z" fill="currentColor"/>
<path d="M12.9101 34.5207H18.1774V30.0433H12.9101C12.5109 30.0433 12.1168 29.9586 11.8747 29.8609L8.62927 33.1284C9.77288 34.0147 11.3209 34.5284 12.9101 34.5207Z" fill="currentColor"/>
<path d="M12.9102 19.9946C8.88178 20.0177 5.63382 23.2955 5.65958 27.3131C5.67245 29.5556 6.72334 31.6697 8.29195 32.8951L11.5451 29.6507C10.3499 29.1575 9.72146 27.5006 10.3602 26.0929C10.999 24.6852 12.6603 24.0584 14.0718 24.6955C14.6926 24.9755 15.1923 25.4738 15.473 26.0929L18.7261 22.8485C17.3404 21.0401 15.1871 19.9869 12.9102 19.9946Z" fill="currentColor"/>
<path d="M46.4227 31.3945C44.4703 31.4202 42.5952 30.6496 41.2223 29.265C39.8083 27.937 39.0149 26.0797 39.0407 24.1428C39.0175 22.206 39.8083 20.3487 41.2223 19.0207C42.5874 17.6207 44.4651 16.8372 46.4227 16.8526C48.2875 16.8269 50.0828 17.5488 51.4092 18.8563L50.0081 20.2794C49.0473 19.3546 47.7595 18.846 46.4227 18.864C45.0215 18.846 43.6796 19.4163 42.7188 20.4361C41.722 21.4225 41.1734 22.7685 41.1991 24.1685C41.1863 25.5505 41.7349 26.8786 42.7188 27.8522C44.7485 29.8687 48.017 29.9072 50.093 27.9395C50.7112 27.2639 51.0898 26.406 51.1723 25.4966H46.4459V23.4852H53.135C53.2019 23.8911 53.2277 24.2995 53.2148 24.7106C53.2998 26.4265 52.6765 28.1014 51.4891 29.3472C50.1678 30.7138 48.3261 31.4588 46.4227 31.3945ZM61.9748 30.0588C60.11 31.8415 57.1659 31.8415 55.3011 30.0588C54.3971 29.1854 53.9025 27.9729 53.9386 26.7193C53.9051 25.4658 54.3996 24.2533 55.3011 23.3799C57.1685 21.5997 60.1074 21.5997 61.9748 23.3799C62.8763 24.2533 63.3708 25.4658 63.3373 26.7193C63.3708 27.9755 62.8737 29.1854 61.9671 30.0588H61.9748ZM56.7744 28.7461C57.7377 29.7711 59.3527 29.825 60.383 28.8643C60.4242 28.8258 60.4628 28.7872 60.5015 28.7461C61.0269 28.2041 61.3103 27.472 61.2896 26.7193C61.3128 25.9616 61.0295 25.2294 60.5015 24.6849C59.5098 23.6548 57.8691 23.6188 56.8363 24.6078C56.8105 24.6335 56.7847 24.6592 56.759 24.6849C56.231 25.2294 55.9476 25.9641 55.9708 26.7193C55.9502 27.4746 56.2387 28.2067 56.7667 28.7461H56.7744ZM72.2312 30.0588C70.3664 31.8415 67.4224 31.8415 65.5576 30.0588C64.6535 29.1854 64.159 27.9729 64.195 26.7193C64.1616 25.4658 64.6561 24.2533 65.5576 23.3799C67.4224 21.5972 70.3664 21.5972 72.2312 23.3799C73.1327 24.2533 73.6273 25.4658 73.5938 26.7193C73.6299 27.9729 73.1353 29.1854 72.2312 30.0588ZM67.0309 28.7461C67.9942 29.7711 69.6092 29.825 70.6395 28.8643C70.6807 28.8258 70.7193 28.7872 70.7579 28.7461C71.2834 28.2041 71.5667 27.472 71.5461 26.7193C71.5693 25.9616 71.286 25.2294 70.7579 24.6849C69.7663 23.6548 68.1256 23.6188 67.0927 24.6078C67.0669 24.6335 67.0412 24.6592 67.0154 24.6849C66.4874 25.2294 66.2041 25.9641 66.2273 26.7193C66.2067 27.4746 66.4952 28.2067 67.0232 28.7461H67.0309ZM78.9744 35.5894C78.0292 35.6202 77.1045 35.3248 76.3498 34.7571C75.6801 34.2562 75.1547 33.5909 74.8224 32.8254L76.6177 32.0778C76.8134 32.5351 77.1199 32.9384 77.5089 33.2492C77.9261 33.5831 78.4464 33.7604 78.9822 33.745C79.6673 33.7861 80.337 33.5292 80.8186 33.0386C81.2926 32.4683 81.527 31.7362 81.4729 30.9964V30.3208H81.4008C80.7929 31.0426 79.8785 31.4356 78.9358 31.3817C77.7407 31.3843 76.5971 30.8885 75.7857 30.0151C74.9048 29.1469 74.418 27.9575 74.4386 26.7219C74.4154 25.4812 74.9022 24.2816 75.7857 23.4056C76.5971 22.5271 77.7407 22.0287 78.9358 22.0313C79.4381 22.0313 79.9326 22.1392 80.3859 22.3524C80.7774 22.5219 81.1277 22.7788 81.4111 23.0999H81.4832V22.3498H83.4381V30.7164C83.5412 32.0547 83.0878 33.3751 82.1863 34.3692C81.3209 35.1938 80.1644 35.633 78.9744 35.5894ZM79.1161 29.5553C79.7961 29.5707 80.4503 29.283 80.8959 28.7692C81.3827 28.2144 81.6377 27.4951 81.612 26.7579C81.6403 26.0078 81.3853 25.2757 80.8959 24.708C80.4503 24.1942 79.7961 23.9065 79.1161 23.9219C78.4181 23.9065 77.7458 24.1942 77.2719 24.708C76.7516 25.2551 76.4683 25.9872 76.4837 26.7425C76.4683 27.49 76.7516 28.2144 77.2719 28.7538C77.7432 29.2727 78.4155 29.5656 79.1161 29.5553ZM86.9076 17.3767V31.1094H84.8522V17.3767H86.9076ZM92.5484 31.3945C91.3043 31.4254 90.1015 30.9399 89.2309 30.0511C88.3474 29.17 87.8684 27.9652 87.8993 26.7193C87.8529 25.4709 88.3165 24.2584 89.1845 23.3568C90.0036 22.4963 91.1472 22.021 92.3346 22.0441C92.8755 22.039 93.4113 22.1418 93.911 22.3498C94.3591 22.5297 94.7687 22.7968 95.1164 23.1359C95.4152 23.4236 95.6779 23.7421 95.9046 24.0863C96.0874 24.3792 96.242 24.6849 96.3682 25.006L96.582 25.5403L90.2792 28.1245C90.6681 29.0184 91.5722 29.581 92.5484 29.5399C93.4937 29.5424 94.3694 29.0492 94.8562 28.2426L96.4326 29.3035C96.0308 29.8764 95.5156 30.3645 94.9206 30.7344C94.2123 31.1813 93.3855 31.41 92.5484 31.3945ZM89.9186 26.5781L94.1093 24.8416C93.9805 24.5359 93.7487 24.2841 93.4551 24.1274C93.1254 23.9425 92.7545 23.8474 92.3758 23.8526C91.7345 23.868 91.1266 24.1377 90.681 24.6001C90.1427 25.1113 89.8645 25.8383 89.9186 26.5781ZM107.351 31.3945C103.766 31.4562 100.811 28.6074 100.749 25.0342C100.747 24.9469 100.749 24.8595 100.749 24.7722C100.667 21.1964 103.505 18.2321 107.088 18.1499C107.176 18.1473 107.263 18.1473 107.351 18.1499C109.144 18.0934 110.864 18.8589 112.023 20.2229L110.89 21.3223C110.037 20.2537 108.726 19.6552 107.361 19.7117C106.05 19.6834 104.786 20.1869 103.856 21.1091C102.89 22.0775 102.372 23.4056 102.429 24.7696C102.372 26.1337 102.887 27.4617 103.856 28.4302C104.786 29.3524 106.05 29.8584 107.361 29.8276C108.886 29.8456 110.336 29.1674 111.3 27.9883L112.433 29.1186C111.838 29.8276 111.093 30.3927 110.251 30.7755C109.342 31.1993 108.35 31.41 107.351 31.3945ZM115.482 31.112H113.852V18.4222H115.482V31.112ZM118.143 23.475C119.923 21.7128 122.792 21.7128 124.572 23.475C125.417 24.3638 125.87 25.5505 125.832 26.7759C125.868 27.9986 125.414 29.188 124.572 30.0768C122.792 31.8389 119.923 31.8389 118.143 30.0768C117.298 29.188 116.845 28.0012 116.884 26.7759C116.848 25.5505 117.301 24.3638 118.143 23.475ZM119.356 29.0518C120.4 30.1512 122.141 30.2001 123.243 29.1597C123.279 29.1237 123.315 29.0903 123.351 29.0518C123.928 28.4353 124.23 27.6159 124.194 26.7733C124.23 25.9307 123.926 25.1113 123.351 24.4948C122.308 23.3953 120.567 23.3465 119.465 24.3869C119.428 24.4228 119.392 24.4562 119.356 24.4948C118.779 25.1113 118.478 25.9307 118.514 26.7733C118.481 27.6133 118.787 28.4302 119.364 29.0441L119.356 29.0518ZM134.87 31.112H133.293V29.9098H133.247C132.966 30.367 132.57 30.7395 132.096 30.9938C131.604 31.2764 131.047 31.4254 130.481 31.4254C129.548 31.4896 128.637 31.1248 128.008 30.4364C127.411 29.6837 127.112 28.7384 127.166 27.7803V22.4372H128.796V27.4823C128.796 29.1006 129.512 29.9098 130.947 29.9098C131.594 29.9303 132.209 29.6375 132.601 29.1237C133.023 28.5894 133.25 27.9267 133.239 27.2459V22.4372H134.87V31.112ZM140.408 31.3945C139.287 31.3971 138.223 30.9142 137.492 30.0665C136.675 29.1674 136.238 27.9883 136.271 26.7733C136.238 25.5608 136.675 24.3817 137.492 23.4801C138.223 22.635 139.287 22.1495 140.408 22.152C141.028 22.1418 141.639 22.2882 142.187 22.5759C142.669 22.8174 143.079 23.1847 143.37 23.6368H143.442L143.37 22.4346V18.4222H145V31.112H143.424V29.9098H143.352C143.061 30.3619 142.651 30.7292 142.169 30.9707C141.628 31.2558 141.023 31.4022 140.408 31.3945ZM140.675 29.9098C141.42 29.9201 142.136 29.6118 142.638 29.0621C143.192 28.4327 143.475 27.6107 143.426 26.7759C143.475 25.941 143.192 25.119 142.638 24.4896C141.649 23.4056 139.965 23.326 138.878 24.3124C138.816 24.3689 138.757 24.428 138.7 24.4896C138.144 25.1139 137.86 25.9333 137.912 26.7682C137.86 27.603 138.144 28.4225 138.7 29.0467C139.2 29.6041 139.921 29.9201 140.675 29.9098Z" fill="currentColor"/>
<path d="M22.0634 19.5291C22.0609 19.5266 22.0584 19.5242 22.0535 19.5217L22.0461 19.5291H22.0634Z" fill="currentColor"/>
<path d="M10.9474 17.2251C10.0691 18.2192 9.39682 19.3751 8.96925 20.6236C9.51788 20.2742 10.44 19.8452 11.5913 19.6782C13.232 19.4393 14.0537 19.6962 14.6925 19.8195C16.7092 17.9109 19.8568 17.7568 22.0564 19.5241L22.484 19.0849L24.73 16.8449L25.1936 16.3414C21.0132 12.6629 14.6358 13.0585 10.9474 17.2251Z" fill="currentColor"/>
</svg>
