<svg width="151" height="50" viewBox="0 0 151 50" fill="none" xmlns="http://www.w3.org/2000/svg">
<path d="M42.6868 40.3151C42.6868 35.4183 42.6868 30.5995 42.6868 25.7365C47.5288 25.7365 52.3012 25.7365 57.1516 25.7365C57.1516 30.5995 57.1516 35.431 57.1516 40.3151C52.3286 40.3151 47.5625 40.3151 42.6868 40.3151Z" fill="currentColor"/>
<path d="M41.1234 25.7512C41.1234 30.6143 41.1234 35.4204 41.1234 40.2856C36.2898 40.2856 31.4711 40.2856 26.6059 40.2856C26.6059 35.4457 26.6059 30.6248 26.6059 25.7512C31.4331 25.7512 36.233 25.7512 41.1234 25.7512Z" fill="currentColor"/>
<path d="M42.7226 9.68506C47.5478 9.68506 52.3223 9.68506 57.1643 9.68506C57.1643 14.5228 57.1643 19.3121 57.1643 24.1752C52.3623 24.1752 47.5751 24.1752 42.7226 24.1752C42.7226 19.3774 42.7226 14.586 42.7226 9.68506Z" fill="currentColor"/>
<path d="M26.5933 24.1688C26.5933 19.3311 26.5933 14.5523 26.5933 9.71877C31.431 9.71877 36.2309 9.71877 41.096 9.71877C41.096 14.5144 41.096 19.31 41.096 24.1688C36.2962 24.1688 31.4774 24.1688 26.5933 24.1688Z" fill="currentColor"/>
<path d="M91.9894 33.7221C91.9894 30.3382 91.9894 27.0492 91.9894 23.6905C92.946 23.6905 93.8352 23.6905 94.8002 23.6905C94.8002 28.8991 94.8002 34.1014 94.8002 39.3248C93.3611 39.6261 92.2865 39.3353 91.3467 38.0521C89.2734 35.2287 87.0336 32.5253 84.8529 29.7799C84.6864 29.5713 84.56 29.3016 84.1723 29.2025C84.1091 32.6033 84.3177 35.9788 84.166 39.3753C83.1862 39.3753 82.2823 39.3753 81.3467 39.3753C81.3467 34.1288 81.3467 28.9223 81.3467 23.7369C82.8659 23.3934 83.911 23.7453 84.8486 25.0264C86.8524 27.7698 89.0438 30.3762 91.1634 33.0352C91.351 33.2733 91.4921 33.5683 91.9894 33.7221Z" fill="currentColor"/>
<path d="M124.619 23.8633C122.761 26.2232 120.9 28.5852 119.023 30.9704C121.267 33.4735 122.942 36.4739 125.186 39.3669C123.869 39.4343 122.773 39.4912 121.686 39.3395C121.126 39.2615 120.864 38.7179 120.559 38.2944C119.453 36.7584 118.304 35.2476 117.27 33.6653C116.631 32.6876 115.843 32.4137 114.68 32.7002C114.68 34.8831 114.68 37.0808 114.68 39.3248C113.557 39.4954 112.52 39.3838 111.503 39.409C111.3 38.5157 111.284 24.6619 111.477 23.6737C112.472 23.6737 113.477 23.6737 114.608 23.6737C114.608 25.7849 114.608 27.9025 114.608 30.0116C115.637 30.3298 116.254 29.9316 116.777 29.2299C117.927 27.6834 119.118 26.1642 120.245 24.6008C120.746 23.9033 121.359 23.5873 122.204 23.6189C122.967 23.6463 123.732 23.6252 124.495 23.6252C124.537 23.7053 124.577 23.7854 124.619 23.8633Z" fill="currentColor"/>
<path d="M79.1512 25.728C78.6561 26.4149 78.3358 27.1714 77.6067 27.5359C77.1011 27.5211 76.7724 27.243 76.4078 27.0407C73.0555 25.1697 69.5389 27.125 69.3493 30.9682C69.3008 31.9522 69.3682 32.9109 69.6864 33.8675C70.7968 37.224 74.6695 37.5064 76.7028 36.1347C77.0168 35.924 77.2633 35.589 77.7901 35.6227C78.4116 35.9114 78.8035 36.5414 79.2861 37.0555C78.4664 38.9118 74.9898 40.1339 71.6459 39.4238C68.7235 38.8022 66.4057 36.1895 66.0138 32.9594C65.5503 29.1414 67.1853 25.7849 70.1837 24.3964C73.2747 22.9657 77.0505 23.4967 79.1512 25.728Z" fill="currentColor"/>
<path d="M109.368 26.358C107.822 26.358 106.361 26.358 104.785 26.358C104.785 30.7765 104.785 35.1086 104.785 39.4744C103.662 39.6008 102.657 39.5607 101.524 39.5102C101.524 35.1381 101.524 30.806 101.524 26.3833C99.9329 26.3833 98.4706 26.3833 96.981 26.3833C96.745 25.4794 96.8861 24.6598 96.8756 23.7622C101.079 23.7622 105.196 23.7622 109.345 23.7622C109.467 24.6008 109.415 25.3972 109.368 26.358Z" fill="currentColor"/>
<path d="M75.6872 18.9876H74.7391V13.5873C74.7391 13.1743 74.7812 12.6391 74.8212 12.0218H74.7791C74.6969 12.3926 74.6148 12.6391 74.5326 12.8056L71.8124 18.9476H71.3594L68.6392 12.8878C68.557 12.7234 68.4748 12.4347 68.3927 12.0639H68.3505C68.3927 12.3926 68.3927 12.8878 68.3927 13.6294V18.9876H67.4866V10.9914H68.7235L71.1971 16.5982C71.4036 17.0112 71.4858 17.3399 71.568 17.5464H71.6101C71.8166 17.0513 71.9409 16.7226 71.981 16.5561L74.4925 10.9914H75.6872V18.9876ZM78.4095 11.1979C78.4095 11.3623 78.3674 11.5266 78.2452 11.6109C78.1209 11.7352 77.9987 11.7752 77.8322 11.7752C77.6679 11.7752 77.5035 11.7331 77.4192 11.6109C77.2949 11.4866 77.2549 11.3644 77.2549 11.1579C77.2549 10.9935 77.297 10.8692 77.4192 10.7449C77.5435 10.6206 77.6657 10.5805 77.8322 10.5805C77.9965 10.5805 78.163 10.6227 78.2452 10.7449C78.3674 10.9092 78.4095 11.0336 78.4095 11.1979ZM78.2852 18.9876H77.3792V13.2586H78.2852V18.9876ZM83.6856 18.7411C83.2325 19.0298 82.7374 19.1541 82.12 19.1541C81.5848 19.1541 81.1297 19.0298 80.7188 18.7832C80.3059 18.5367 79.9772 18.2059 79.7285 17.7529C79.482 17.2999 79.3977 16.8047 79.3977 16.2696C79.3977 15.3214 79.6864 14.5797 80.2216 14.0024C80.7568 13.4251 81.4985 13.1364 82.4066 13.1364C82.9017 13.1364 83.3547 13.2186 83.7256 13.4251V14.3732C83.3126 14.0846 82.8596 13.9202 82.3644 13.9202C81.7871 13.9202 81.292 14.1267 80.9211 14.5376C80.5503 14.9505 80.3859 15.5258 80.3859 16.1874C80.3859 16.8469 80.5503 17.3821 80.9211 17.7529C81.292 18.1237 81.745 18.3302 82.3223 18.3302C82.8175 18.3302 83.3126 18.1659 83.7235 17.8351V18.7411H83.6856ZM87.7247 14.2068C87.5604 14.0824 87.3118 14.0424 87.0231 14.0424C86.6101 14.0424 86.2814 14.2489 86.0328 14.6197C85.7863 14.9906 85.662 15.4857 85.662 16.1031V19.0298H84.7559V13.2586H85.662V14.4533H85.7041C85.8284 14.0403 86.0349 13.7516 86.2814 13.5051C86.5279 13.2586 86.8587 13.1743 87.1874 13.1743C87.434 13.1743 87.6004 13.2165 87.7226 13.2565V14.2068H87.7247ZM93.4538 16.1031C93.4538 17.0091 93.2073 17.7529 92.67 18.2881C92.1348 18.8233 91.4753 19.1119 90.6093 19.1119C89.7433 19.1119 89.0838 18.8233 88.5886 18.2881C88.0935 17.7529 87.847 17.0513 87.847 16.1452C87.847 15.1971 88.0935 14.4554 88.6308 13.9202C89.166 13.385 89.8676 13.0964 90.7736 13.0964C91.6396 13.0964 92.2991 13.3429 92.7521 13.8802C93.2494 14.4533 93.4538 15.195 93.4538 16.1031ZM92.5478 16.1431C92.5478 15.4415 92.3834 14.8663 92.0526 14.4933C91.7218 14.1225 91.2688 13.916 90.6915 13.916C90.1141 13.916 89.619 14.1225 89.2903 14.4933C88.9595 14.9063 88.7951 15.4415 88.7951 16.1431C88.7951 16.8448 88.9595 17.38 89.3303 17.7508C89.6611 18.1216 90.1542 18.3281 90.7315 18.3281C91.3088 18.3281 91.804 18.1216 92.0926 17.7508C92.3834 17.38 92.5478 16.8448 92.5478 16.1431ZM97.6995 17.4621C97.6995 17.9573 97.493 18.3682 97.1221 18.6568C96.7513 18.9876 96.2161 19.1098 95.5966 19.1098C95.0614 19.1098 94.5663 18.9855 94.1955 18.7811V17.7908C94.6485 18.1617 95.1436 18.326 95.6788 18.326C96.4205 18.326 96.7513 18.0795 96.7513 17.5422C96.7513 17.3357 96.6691 17.1292 96.5448 17.007C96.4205 16.8827 96.0918 16.6783 95.5966 16.4718C95.1015 16.2653 94.7306 16.0188 94.5242 15.7702C94.3177 15.5237 94.1933 15.1929 94.1933 14.7799C94.1933 14.3269 94.3998 13.9139 94.7707 13.5852C95.1415 13.2544 95.6367 13.09 96.214 13.09C96.667 13.09 97.08 13.1722 97.4508 13.3787V14.2847C97.08 13.9961 96.627 13.8717 96.1719 13.8717C95.8832 13.8717 95.6367 13.9539 95.4302 14.0782C95.2658 14.2426 95.1415 14.409 95.1415 14.6556C95.1415 14.9021 95.2237 15.1086 95.348 15.2329C95.4723 15.3572 95.801 15.5216 96.214 15.728C96.7492 15.9746 97.12 16.1811 97.3687 16.4697C97.5772 16.7626 97.6995 17.0913 97.6995 17.4621ZM103.926 16.1031C103.926 17.0091 103.679 17.7529 103.142 18.2881C102.607 18.8233 101.947 19.1119 101.081 19.1119C100.215 19.1119 99.5558 18.8233 99.0606 18.2881C98.5655 17.7529 98.3189 17.0513 98.3189 16.1452C98.3189 15.1971 98.5655 14.4554 99.1027 13.9202C99.6379 13.385 100.34 13.0964 101.246 13.0964C102.112 13.0964 102.771 13.3429 103.224 13.8802C103.677 14.4533 103.926 15.195 103.926 16.1031ZM102.978 16.1431C102.978 15.4415 102.813 14.8663 102.482 14.4933C102.152 14.1225 101.699 13.916 101.121 13.916C100.544 13.916 100.049 14.1225 99.7201 14.4933C99.3914 14.9063 99.225 15.4415 99.225 16.1431C99.225 16.8448 99.3893 17.38 99.7601 17.7508C100.091 18.1216 100.584 18.3281 101.161 18.3281C101.739 18.3281 102.234 18.1216 102.522 17.7508C102.853 17.38 102.978 16.8448 102.978 16.1431ZM107.676 11.3201C107.512 11.2379 107.305 11.1558 107.059 11.1558C106.399 11.1558 106.111 11.5688 106.111 12.3505V13.2565H107.472V14.0403H106.111V18.9876H105.163V14.0424H104.172V13.2586H105.163V12.3526C105.163 11.7752 105.327 11.3222 105.658 10.9514C106.029 10.5805 106.482 10.3741 107.019 10.3741C107.308 10.3741 107.514 10.4162 107.678 10.4562V11.3201H107.676Z" fill="currentColor"/>
<path d="M110.767 18.9476C110.561 19.0719 110.272 19.1119 109.901 19.1119C108.911 19.1119 108.418 18.5346 108.418 17.4221V14.0424H107.428V13.2586H108.418V11.8574L109.324 11.5688V13.2586H110.767V14.0424H109.324V17.2578C109.324 17.6286 109.406 17.9173 109.53 18.0816C109.655 18.246 109.861 18.3281 110.19 18.3281C110.437 18.3281 110.603 18.286 110.767 18.1638V18.9476Z" fill="currentColor"/>
</svg>
