<svg width="150" height="50" viewBox="0 0 150 50" fill="none" xmlns="http://www.w3.org/2000/svg">
<path fill-rule="evenodd" clip-rule="evenodd" d="M115.734 26.6889C114.46 26.6889 113.652 27.3341 113.058 28.3234C113.058 28.0658 113.185 27.7648 113.185 27.5494V27.1197H111.061V37.8712H113.185V31.6781C113.185 29.9147 114.12 28.8398 115.734 28.8398H116.159V26.6899L115.734 26.6889ZM29.3688 30.6455C28.7742 29.6993 27.9241 29.0542 26.6922 29.0542C24.7385 29.0542 23.3365 30.5589 23.3365 32.4512C23.3365 34.3434 24.7385 35.8481 26.6922 35.8481C27.9241 35.8481 28.7742 35.2462 29.3688 34.3001L31.3226 35.4616C30.3879 36.9241 28.646 37.999 26.6922 37.999C23.081 37.999 21 35.2472 21 32.4944C21 29.7426 23.1238 26.9898 26.6922 26.9898C28.9015 26.9898 30.3034 28.0648 31.3226 29.5272L29.3688 30.6455ZM33.1918 27.2485H35.401V33.0973C35.401 34.6453 36.5057 35.7203 37.9076 35.7203C39.2668 35.7203 40.4142 34.602 40.4142 33.0973V27.2485H42.6234V33.2694C42.6234 36.1933 40.3714 37.9567 37.9076 37.9567C35.4438 37.9567 33.1918 36.1933 33.1918 33.2694V27.2485ZM52.9887 30.6455C52.3941 29.6993 51.5441 29.0542 50.3122 29.0542C48.3584 29.0542 46.9565 30.5589 46.9565 32.4512C46.9565 34.3434 48.3584 35.8481 50.3122 35.8481C51.5441 35.8481 52.3941 35.2462 52.9887 34.3001L54.9425 35.4616C54.0079 36.9241 52.2659 37.999 50.3122 37.999C46.701 37.999 44.6199 35.2472 44.6199 32.4944C44.6199 29.7426 46.7019 26.9898 50.3122 26.9898C52.5214 26.9898 53.9234 28.0648 54.9425 29.5272L52.9887 30.6455ZM56.8117 27.2485H59.021V33.0973C59.021 34.6453 60.1256 35.7203 61.5275 35.7203C62.8867 35.7203 64.0341 34.602 64.0341 33.0973V27.2485H66.2434V33.2694C66.2434 36.1933 63.9914 37.9567 61.5275 37.9567C59.0637 37.9567 56.8117 36.1933 56.8117 33.2694V27.2485ZM69.0045 31.1618C69.0045 28.4956 70.7464 26.9908 72.7857 26.9908C74.3576 26.9908 75.4623 27.7648 75.8868 28.8398H75.9296C76.3541 27.7215 77.4588 26.9908 79.0307 26.9908C81.07 26.9908 82.8119 28.5388 82.8119 31.1618V37.6981H80.6027V31.1618C80.6027 29.9147 79.8381 29.184 78.9034 29.184C77.8416 29.184 77.077 29.8292 77.077 31.4637V37.6568H74.8677V31.4637C74.8677 29.8292 74.1031 29.184 73.0412 29.184C72.1066 29.184 71.342 29.9147 71.342 31.1618V37.6558H69.0055L69.0045 31.1618ZM85.5293 24.1525H87.7386V28.5388H87.7813C88.2914 27.6783 89.6933 26.9908 91.137 26.9908C93.8136 26.9908 96.4901 29.0119 96.4901 32.4954C96.4901 35.9789 93.8136 38 91.137 38C89.6923 38 88.2904 37.3116 87.7813 36.452H87.7386V37.7423H85.5293V24.1525ZM90.9252 29.0974C89.0987 29.0974 87.7395 30.5599 87.7395 32.4944C87.7395 34.4299 89.0987 35.8914 90.9252 35.8914C92.7944 35.8914 94.1536 34.4289 94.1536 32.4944C94.1536 30.5166 92.7944 29.0974 90.9252 29.0974ZM108.385 35.4193C107.153 37.0106 105.454 37.9567 103.584 37.9567C99.9731 37.9567 97.8921 35.2049 97.8921 32.4521C97.8921 29.6993 100.016 26.9908 103.584 26.9908C105.708 26.9908 108.937 28.7975 108.937 32.8396V33.2271H100.399C100.526 34.8184 102.013 35.9789 103.543 35.9789C104.732 35.9789 105.752 35.377 106.516 34.3444L108.385 35.4193ZM106.345 31.3772C105.878 29.7859 104.731 28.9263 103.287 28.9263C101.885 28.9263 100.738 29.8292 100.356 31.3772H106.345Z" fill="currentColor"/>
<path fill-rule="evenodd" clip-rule="evenodd" d="M125.653 11.9412C125.527 11.8645 125.399 11.7927 125.268 11.7258C125.134 11.6589 124.996 11.594 124.856 11.538C124.812 11.5193 124.768 11.5016 124.724 11.4839C124.601 11.4377 124.478 11.3865 124.352 11.3491C123.653 11.117 122.923 10.999 122.188 11C118.344 11 115.232 14.1501 115.232 18.0418C115.232 21.4683 117.659 24.3155 120.861 24.9488V26.965C125.024 26.3297 128.711 22.9838 128.986 18.5916C129.151 15.9499 127.848 13.2522 125.653 11.9412ZM120.529 13.6485C120.777 13.623 121.02 13.7233 121.179 13.917C121.306 14.0459 121.386 14.215 121.471 14.3871C121.726 14.989 121.638 15.6342 121.298 16.1073C120.704 15.9784 120.16 15.5939 119.904 14.992C119.82 14.8199 119.772 14.5996 119.772 14.4275C119.772 13.9977 120.141 13.6859 120.529 13.6485ZM118.445 15.7178C118.49 15.7158 118.529 15.7129 118.577 15.7178C118.79 15.7178 118.962 15.766 119.174 15.8525C119.769 16.1102 120.202 16.6236 120.33 17.1832C119.82 17.5274 119.132 17.6159 118.537 17.3583C118.367 17.2727 118.202 17.1783 118.033 17.0495C117.475 16.6049 117.774 15.7522 118.445 15.7178ZM119.174 20.0186C119.004 20.1042 118.79 20.1533 118.577 20.1533C117.812 20.1966 117.44 19.2967 117.993 18.8237C118.12 18.6948 118.285 18.6004 118.497 18.5139C118.721 18.4175 118.954 18.3703 119.188 18.3663C119.575 18.3595 119.955 18.4716 120.276 18.6889C120.192 19.2476 119.769 19.7599 119.174 20.0186ZM121.511 21.4024C121.425 21.5745 121.347 21.7417 121.22 21.9128C120.795 22.4714 119.81 22.079 119.852 21.3483C119.852 21.1762 119.899 20.9696 119.985 20.7975C120.239 20.1956 120.743 19.8111 121.339 19.6823C121.678 20.1986 121.766 20.8438 121.511 21.4024ZM122.666 14.3871C122.751 14.215 122.831 14.0478 122.959 13.8767C123.122 13.681 123.37 13.5797 123.622 13.6082C124.019 13.6495 124.393 13.9711 124.365 14.4275C124.365 14.5996 124.318 14.8199 124.232 14.992C123.978 15.5939 123.473 15.9784 122.878 16.1073C122.496 15.6342 122.411 14.99 122.666 14.3871ZM123.037 21.9138C122.91 21.785 122.83 21.6158 122.746 21.4437C122.491 20.8418 122.579 20.1966 122.919 19.7236C123.513 19.8524 124.057 20.2369 124.313 20.8388C124.397 21.011 124.446 21.2313 124.446 21.4034C124.488 22.0475 123.505 22.4291 123.037 21.9138ZM125.64 20.112C125.427 20.112 125.255 20.0639 125.042 19.9783C124.448 19.7206 124.015 19.2072 123.887 18.6476C124.214 18.4303 124.599 18.3182 124.989 18.325C125.226 18.329 125.461 18.3791 125.68 18.4726C125.85 18.5581 126.014 18.6388 126.184 18.7676C126.779 19.1984 126.405 20.1553 125.64 20.112Z" fill="currentColor"/>
</svg>
