<svg width="150" height="50" viewBox="0 0 150 50" fill="none" xmlns="http://www.w3.org/2000/svg">
<path d="M32.0637 10C40.4607 10 47.0978 16.465 47.0951 24.6394C47.0924 32.5454 40.2958 39 31.9772 39C23.6235 38.9974 16.9919 32.4933 17 24.3059C17.0081 16.4129 23.7587 10 32.0637 10ZM31.3689 18.0962C32.1637 20.5405 32.9207 22.8649 33.6723 25.1892C34.4239 27.5188 35.1673 29.8484 35.9054 32.1493C35.0565 33.3037 33.7291 33.3871 32.4774 33.7154C32.618 34.5727 32.7477 35.3675 32.8856 36.2066C35.6729 36.0476 37.9789 35.1486 39.2901 32.7122C40.6716 30.1481 41.2583 27.2947 42.2207 24.5769C42.9696 22.4584 43.6508 20.3164 44.3889 18.1067C43.0398 18.1067 41.8368 18.1067 40.5932 18.1067C39.7038 21.4395 38.8251 24.7306 37.86 28.3449C36.9408 24.6993 36.1082 21.4056 35.2728 18.0936C33.9643 18.0962 32.7558 18.0962 31.3689 18.0962ZM31.2581 19.3444C29.4062 17.2285 24.9401 17.1503 22.6556 19.1438C19.89 21.5567 19.6927 27.042 22.2826 29.5774C24.5697 31.8184 29.1035 31.9174 31.2716 29.7129C30.7607 29.012 30.2443 28.298 29.7388 27.6022C29.1197 27.8628 28.6168 28.1338 28.0788 28.2954C26.5378 28.7566 25.1726 28.212 24.7049 26.8856C24.1128 25.1997 24.1318 23.4876 24.859 21.8277C25.2564 20.9235 25.9945 20.4962 27.0272 20.4597C28.041 20.4258 28.8899 20.8271 29.7063 21.3795C30.2767 20.6343 30.7742 19.9828 31.2581 19.3444Z" fill="currentColor"/>
<path d="M49.3308 18.2316C50.3581 18.2316 51.3178 18.2316 52.2992 18.2316C52.3776 18.6642 52.4451 19.0524 52.5371 19.5632C53.5941 18.56 54.6755 17.8225 56.1056 17.7938C58.5739 17.7443 60.0528 18.7398 60.7584 21.0172C61.445 23.2269 61.5045 25.4549 60.7286 27.6646C59.4823 31.2163 56.0435 32.2717 52.8074 29.9968C52.8074 31.9408 52.8074 33.8117 52.8074 35.7374C51.6017 35.8677 50.5014 35.985 49.3308 36.1127C49.3308 30.1115 49.3308 24.2067 49.3308 18.2316ZM52.7696 24.4282C52.7696 25.1943 52.8263 25.7754 52.7588 26.3435C52.5884 27.748 53.3238 28.4985 54.6485 28.6965C56.0489 28.9076 56.9275 28.1858 57.3006 26.9194C57.771 25.322 57.7305 23.7012 57.3655 22.0882C57.1681 21.2153 56.7248 20.5299 55.7542 20.3006C54.7675 20.0687 54.0321 20.5065 53.3562 21.1319C52.2478 22.1586 53.0291 23.4693 52.7696 24.4282Z" fill="currentColor"/>
<path d="M120.378 23.7325C120.405 21.9423 121.102 19.597 123.76 18.3984C126.087 17.3482 128.485 17.4264 130.605 18.9586C133.07 20.741 133.741 25.2047 132.108 28.2144C130.743 30.7316 127.693 31.8235 124.514 30.9323C121.878 30.1975 120.38 27.8887 120.378 23.7325ZM129.388 24.4777C129.272 23.7012 129.212 22.909 129.026 22.1481C128.756 21.0407 128.05 20.3241 126.804 20.2746C125.547 20.225 124.7 20.8218 124.346 21.9605C123.798 23.722 123.784 25.5044 124.436 27.2503C124.79 28.2014 125.533 28.7043 126.59 28.7304C127.68 28.7564 128.439 28.2639 128.866 27.3076C129.267 26.406 129.313 25.4497 129.388 24.4777Z" fill="currentColor"/>
<path d="M83.2024 25.4964C80.3881 25.4964 77.7117 25.4964 74.9487 25.4964C75.0082 26.6247 75.2299 27.6227 76.1842 28.2012C77.9468 29.2644 79.6149 28.6599 81.2911 27.667C81.7642 28.2768 82.2292 28.8787 82.7293 29.5276C80.2881 31.3126 77.663 31.7269 74.9298 30.708C72.3642 29.7543 71.4964 27.6045 71.3613 25.1186C71.3018 24.0372 71.3721 22.961 71.7127 21.916C72.6751 18.9585 75.092 17.4497 78.2821 17.8145C81.1072 18.1376 82.9591 20.1858 83.1943 23.2867C83.2484 23.9929 83.2024 24.7042 83.2024 25.4964ZM79.7717 23.3675C79.7636 22.1688 79.7095 21.0587 78.6119 20.3708C77.8495 19.8913 76.9736 19.8679 76.2221 20.3656C75.1569 21.0692 75.0217 22.187 74.9352 23.3675C76.5735 23.3675 78.1226 23.3675 79.7717 23.3675Z" fill="currentColor"/>
<path d="M95.8925 29.3587C96.4413 28.7645 96.9658 28.1965 97.5389 27.5815C98.7528 28.4258 100.051 28.9026 101.532 28.7619C102.351 28.6838 103.089 28.4544 103.26 27.5659C103.438 26.6408 102.797 26.2161 102.008 25.9581C101.256 25.7105 100.494 25.489 99.7369 25.2519C97.52 24.5535 96.3331 23.1594 96.4575 21.4057C96.5873 19.5843 97.931 18.3048 100.221 17.914C102.446 17.5335 104.511 17.9061 106.404 19.295C105.966 19.9256 105.555 20.5172 105.12 21.1426C104.014 20.6448 102.954 20.1471 101.751 20.1888C100.983 20.2149 100.18 20.3217 99.9992 21.2103C99.8153 22.1119 100.572 22.4038 101.256 22.6539C102.349 23.05 103.481 23.3471 104.552 23.79C105.898 24.3451 106.755 25.2988 106.847 26.7998C106.942 28.3476 106.285 29.4889 104.957 30.3072C102.495 31.8237 97.8904 31.3782 95.8925 29.3587Z" fill="currentColor"/>
<path d="M83.9216 29.382C84.4893 28.7722 85.03 28.1911 85.6004 27.5788C86.8413 28.4491 88.147 28.9077 89.6312 28.7592C90.453 28.6784 91.1803 28.4178 91.3235 27.5266C91.4668 26.6485 90.845 26.2446 90.1016 25.9527C88.7958 25.4394 87.3576 25.2778 86.1492 24.4909C84.2 23.2219 83.9405 20.6447 85.6383 19.0864C87.6469 17.2415 92.4266 17.3666 94.419 19.3627C94.0162 19.9411 93.6053 20.5301 93.1754 21.1424C92.04 20.6239 90.9586 20.1209 89.7231 20.1913C88.977 20.233 88.2173 20.3711 88.0497 21.218C87.8794 22.0753 88.5823 22.3854 89.2473 22.6303C90.4071 23.0551 91.602 23.3886 92.7428 23.8577C94.0243 24.384 94.7948 25.33 94.8948 26.7241C95.0057 28.2485 94.419 29.4341 93.0781 30.2627C90.5882 31.8106 86.3276 31.4354 83.9216 29.382Z" fill="currentColor"/>
<path d="M63.0617 18.2163C64.0674 18.2163 65.0055 18.2163 66.022 18.2163C66.1274 18.9069 66.2328 19.5766 66.3734 20.4834C67.4197 18.5186 68.7146 17.3408 71.0936 18.0001C70.9125 19.0632 70.7341 20.0899 70.5611 21.1088C67.6576 21.0905 66.5113 22.2267 66.5086 25.0618C66.5059 26.8832 66.5032 28.7047 66.4978 30.5261C66.4978 30.5939 66.4545 30.659 66.4139 30.7815C65.3217 30.7815 64.2215 30.7815 63.0644 30.7815C63.0617 26.607 63.0617 22.4534 63.0617 18.2163Z" fill="currentColor"/>
<path d="M114.736 18.2165C115.876 18.2165 116.939 18.2165 118.074 18.2165C118.074 22.3936 118.074 26.5421 118.074 30.7661C116.99 30.7661 115.895 30.7661 114.736 30.7661C114.736 26.602 114.736 22.4509 114.736 18.2165Z" fill="currentColor"/>
<path d="M112.543 29.1809C112.435 30.4265 111.767 31.1952 110.421 31.1796C109.129 31.1639 108.388 30.4395 108.377 29.1888C108.366 27.9145 109.169 27.2136 110.426 27.2031C111.694 27.1901 112.432 27.9041 112.543 29.1809Z" fill="currentColor"/>
<path d="M116.455 15.5135C115.128 15.4666 114.314 14.8777 114.303 13.5957C114.292 12.285 115.092 11.6048 116.417 11.6179C117.693 11.6309 118.493 12.2823 118.499 13.5618C118.504 14.8543 117.685 15.4302 116.455 15.5135Z" fill="currentColor"/>
</svg>
