<svg width="150" height="50" viewBox="0 0 150 50" fill="none" xmlns="http://www.w3.org/2000/svg">
<path d="M22.7821 34.5603C21.68 34.5603 20.677 33.6548 20.677 32.5456C20.677 31.4363 21.5785 30.5308 22.7821 30.5308C23.9857 30.5308 24.8872 31.4363 24.8872 32.5456C24.8872 33.6548 23.8843 34.5603 22.7821 34.5603ZM48.6545 23.5835C48.4539 21.9717 47.4509 20.6633 46.1482 19.6559L45.6478 19.253L45.2466 19.7555C44.4442 20.661 44.1445 22.2728 44.2436 23.4816C44.3428 24.3871 44.6448 25.2949 45.1452 25.9989C44.744 26.2003 44.2436 26.4018 43.8425 26.6033C42.9409 26.9044 42.0371 27.0062 41.1355 27.0062H15.1595L15.0603 27.6106C14.8597 29.5235 15.1595 31.5382 15.9619 33.3514L16.363 34.0555V34.1551C18.7702 38.1845 23.0819 39.9977 27.7948 39.9977C36.8193 39.9977 44.2414 36.0702 47.7507 27.6084C50.0564 27.708 52.3644 27.1058 53.4666 24.8896L53.7663 24.3871L53.266 24.086C51.9632 23.2801 50.1579 23.1805 48.6545 23.5835ZM35.7172 21.9717H31.8067V25.8993H35.7172V21.9717ZM35.7172 17.0368H31.8067V20.9643H35.7172V17.0368ZM35.7172 12H31.8067V15.9276H35.7172V12ZM40.5315 21.9717H36.621V25.8993H40.5315V21.9717ZM25.9894 21.9717H22.0789V25.8993H25.9894V21.9717ZM30.9051 21.9717H26.9924V25.8993H30.9029V21.9717H30.9051ZM21.1773 21.9717H17.2669V25.8993H21.1773V21.9717ZM30.9051 17.0368H26.9924V20.9643H30.9029V17.0368H30.9051ZM25.9894 17.0368H22.0789V20.9643H25.9894V17.0368Z" fill="currentColor"/>
<path d="M116.243 32.1449C117.947 30.635 119.653 29.2247 121.357 27.7125C121.959 27.21 122.561 26.7051 123.163 26.1007C122.662 25.4963 121.959 25.0934 121.258 24.7923C119.955 24.2898 118.65 24.4912 117.348 25.1952C115.743 26.1007 115.042 27.6129 115.141 29.4261C115.141 30.1302 115.342 30.8364 115.743 31.4409C116.043 31.7419 116.142 31.9434 116.243 32.1449ZM118.249 33.5529C119.052 33.854 120.055 33.854 120.956 33.6525C121.357 33.451 122.561 32.9485 122.962 33.0481H123.163C123.462 33.1477 123.663 33.3492 123.764 33.6525C124.064 34.2569 123.965 34.8613 123.363 35.1624L123.163 35.262C120.956 36.5705 118.65 36.369 116.444 35.1624C115.441 34.558 114.638 33.7521 114.037 32.7448L113.938 32.5433C112.533 30.1256 112.734 27.5065 114.339 25.1907C114.839 24.3848 115.641 23.7804 116.444 23.2779L116.744 23.0764C118.849 21.8676 121.055 21.9694 123.163 22.9768C124.265 23.5812 125.268 24.3871 125.87 25.4941L125.969 25.6955C126.469 26.5014 125.87 27.2054 125.166 27.7102L123.061 29.5235C121.256 30.936 119.753 32.2445 118.249 33.5529ZM134.594 22.4742H134.795C135.496 22.4742 135.999 22.9768 135.999 23.6831C135.999 24.6904 135.097 24.8919 134.295 24.8919C133.292 24.8919 132.289 25.4963 131.588 26.2003C130.686 27.1058 130.285 28.2151 130.285 29.4239V35.0651C130.285 35.6695 129.884 36.2739 129.183 36.2739H128.982C128.281 36.2739 127.88 35.7714 127.88 35.0651V29.1228C127.88 26.807 128.982 24.9938 130.788 23.6831C132.088 22.8772 133.292 22.4742 134.594 22.4742ZM105.914 26.4018L108.621 23.6831C108.92 23.4816 109.824 22.3746 110.225 22.3746H110.627C111.127 22.4742 111.528 22.7776 111.528 23.382V23.5835C111.528 23.9864 111.028 24.3894 110.827 24.6904C110.327 25.2948 109.725 25.7974 109.222 26.4018L106.414 29.2224L111.429 34.2592C111.528 34.4607 111.63 34.5603 111.63 34.7617V35.0628C111.53 35.5654 111.129 35.9683 110.627 35.9683H110.426C110.025 35.9683 109.624 35.5654 109.324 35.2643C108.823 34.7617 108.222 34.2569 107.719 33.6525L105.914 31.9411V34.7617C105.914 35.3662 105.512 35.9706 104.812 35.9706H104.611C103.91 35.9706 103.509 35.468 103.509 34.7617V19.2507C103.509 18.6463 103.91 18.1437 104.611 18.1437H104.812C105.512 18.1437 105.914 18.6463 105.914 19.2507V26.4018ZM98.4939 24.8919C98.1941 24.6904 97.4909 24.6904 97.0897 24.6904C95.1852 24.5908 93.781 25.6978 92.9786 27.4092C92.6788 28.0136 92.5774 28.618 92.5774 29.322C92.5774 31.3367 93.5804 32.747 95.3858 33.5529C95.9875 33.854 96.8891 33.9559 97.5923 33.9559C98.1941 33.9559 99.0957 33.5529 99.5983 33.3514H100.099C100.599 33.451 101 33.7544 101 34.3588V34.5603C101 35.9706 98.3924 36.2716 97.4909 36.3735C94.0808 36.575 91.473 34.6621 90.4723 31.4386C90.2717 30.8342 90.2717 30.3316 90.2717 29.7272V29.2247C90.2717 26.7074 91.4753 24.6927 93.6818 23.4839C94.6848 22.8795 95.7869 22.5784 96.9905 22.5784H97.4909C98.6945 22.5784 99.898 22.8795 100.901 23.5857L101.099 23.7849C101.199 23.9864 101.3 24.1879 101.3 24.3894V24.5908C101.3 25.1952 100.899 25.4963 100.297 25.5982H100.198C99.4946 25.3967 98.6945 24.9938 98.4939 24.8919ZM77.4335 29.2224C77.4335 30.9338 78.3351 32.2445 79.7393 33.15C80.4402 33.5529 81.2426 33.7544 82.045 33.7544C83.7489 33.7544 85.0539 32.8489 85.9555 31.4386C86.3567 30.7346 86.5573 29.9287 86.5573 29.1228C86.5573 27.511 85.7549 26.2026 84.4521 25.2948C83.7512 24.7923 82.8474 24.5908 82.045 24.5908C80.1405 24.5908 78.7363 25.5982 77.9339 27.3096C77.4335 28.0136 77.4335 28.618 77.4335 29.2224ZM81.646 22.3746H81.9458C84.6527 22.3746 86.6587 23.6831 87.9637 26.0011C88.4641 26.9066 88.7661 27.914 88.7661 29.0232V29.5257C88.7661 32.043 87.5625 34.0577 85.3559 35.2666C84.353 35.871 83.2508 36.172 82.0472 36.172H81.5469C79.0406 36.172 77.0346 34.9632 75.831 32.747C75.2292 31.7397 74.9295 30.6327 74.9295 29.4239V28.9213C74.9295 26.4041 76.133 24.3894 78.3396 23.1805C79.4395 22.6757 80.4425 22.3746 81.646 22.3746ZM62.1905 29.2224C62.1905 31.0357 63.092 32.446 64.6968 33.2518C65.2986 33.5529 65.9995 33.7544 66.8019 33.7544C68.6073 33.7544 69.91 32.9485 70.8139 31.4386C71.215 30.7346 71.4156 29.9287 71.4156 29.1228C71.4156 27.511 70.7147 26.3022 69.4097 25.3967C68.6073 24.8942 67.8049 24.5908 66.8019 24.5908C64.8974 24.5908 63.4932 25.5982 62.6908 27.3096C62.3911 28.0136 62.1905 28.618 62.1905 29.2224ZM71.4179 24.086V19.1511C71.4179 18.5467 71.8191 17.9423 72.5201 17.9423H72.7206C73.4216 17.9423 73.8228 18.4448 73.8228 19.1511V29.5257C73.8228 32.043 72.6192 34.0577 70.4127 35.2666C69.4097 35.871 68.3075 36.172 67.104 36.172H66.6036C64.0973 36.172 62.0913 34.9632 60.8877 32.747C60.2859 31.7397 59.9862 30.6327 59.9862 29.4239V28.9213C59.9862 26.4041 61.1898 24.3894 63.3963 23.1805C64.3993 22.5761 65.5014 22.275 66.705 22.275H67.2054C68.7087 22.3746 70.2143 22.9791 71.4179 24.086Z" fill="currentColor"/>
</svg>
