<svg width="150" height="50" viewBox="0 0 150 50" fill="none" xmlns="http://www.w3.org/2000/svg">
<path fill-rule="evenodd" clip-rule="evenodd" d="M32.5841 17.9559C30.5008 15.5359 27.3695 14 23.8636 14C19.4023 14 15.5429 16.4893 13.6826 20.1111H28.4932C29.558 20.1111 30.5892 19.7567 31.4057 19.0926C31.8266 18.7504 32.2222 18.3756 32.5841 17.9559Z" fill="currentColor"/>
<path fill-rule="evenodd" clip-rule="evenodd" d="M12.5 25C12.5 25.9859 12.6347 26.9433 12.8872 27.8519H26.8098C28.4386 27.8519 29.7559 26.5767 29.7559 25C29.7559 23.4233 28.4386 22.1481 26.8098 22.1481H12.8872C12.6347 23.0567 12.5 24.0141 12.5 25Z" fill="currentColor"/>
<path fill-rule="evenodd" clip-rule="evenodd" d="M32.5841 32.0441C30.5008 34.4641 27.3695 36 23.8636 36C19.4023 36 15.5429 33.5107 13.6826 29.8889H28.4932C29.558 29.8889 30.5892 30.2433 31.4057 30.9074C31.8266 31.2496 32.2222 31.6244 32.5841 32.0441Z" fill="currentColor"/>
<path d="M49.0657 30.8626V28.8622H43.346V26.0511H47.6641V24.0507H43.346V21.2926H49.0657V19.2963H41.1195V30.8626H49.0657ZM53.1103 30.8626V19.2963H50.9848V30.8626H53.1103ZM57.601 31.0948C58.5606 31.0948 59.5244 30.6833 59.9116 30.0885H59.979V30.8667H61.9865V25.8719C61.9865 23.8552 60.787 22.7307 58.6448 22.7307C56.8056 22.7307 55.4924 23.5578 55.0168 24.9959L57.1423 25.163C57.3274 24.7352 57.782 24.3848 58.5101 24.3848C59.3687 24.3848 59.8779 24.8819 59.8779 25.7415V26.32C59.6086 26.1693 58.9183 26.0226 58.2239 26.0226C56.0816 26.0226 54.7811 26.9963 54.7811 28.6341C54.7811 30.0681 55.947 31.0948 57.601 31.0948ZM58.2071 29.4733C57.399 29.4733 56.9234 29.0781 56.9234 28.467C56.9234 27.8559 57.479 27.4607 58.4596 27.4607C59.0825 27.4607 59.6759 27.6115 59.9116 27.807V28.3204C59.9116 28.9315 59.1162 29.4733 58.2071 29.4733ZM66.7593 31.1111C68.7332 31.1111 70.0673 30.0681 70.0673 28.467C70.0673 25.2933 65.766 26.65 65.766 25.0978C65.766 24.6496 66.1364 24.3033 66.7929 24.3033C67.4327 24.3033 67.9419 24.6496 68.0429 25.163L70.0168 24.7515C69.6801 23.5456 68.3965 22.7348 66.7466 22.7348C64.9074 22.7348 63.6616 23.7411 63.6616 25.2485C63.6616 28.4385 67.963 27.0819 67.963 28.6178C67.963 29.1963 67.5421 29.5752 66.814 29.5752C66.0732 29.5752 65.4461 29.18 65.2778 28.5689L63.3207 28.9315C63.7542 30.3167 65.021 31.1111 66.7593 31.1111ZM74.9369 31.0296C75.5429 31.0296 76.0354 30.9319 76.3215 30.8137L76.1027 29.1596C75.9175 29.2411 75.6818 29.3104 75.362 29.3104C74.5707 29.3104 74.1625 28.9804 74.1625 27.9211V24.7474H76.2374V22.9793H74.1625V20.4859L72.037 20.8974V22.9793H70.6524V24.7474H72.037V28.2511C72.037 30.333 73.2534 31.0296 74.9369 31.0296ZM79.596 21.2967V19.2963H77.4705V21.2967H79.596ZM79.596 30.8626V22.9793H77.4705V30.8626H79.596ZM85.2273 31.1111C87.0328 31.1111 88.3628 30.2026 88.8552 28.5648L86.8645 28.0678C86.6288 28.8133 86.0564 29.29 85.1599 29.29C83.8931 29.29 83.186 28.3 83.186 26.927C83.186 25.5378 83.8931 24.5641 85.1599 24.5641C86.0522 24.5641 86.6625 25.0122 86.8981 25.77L88.9562 25.4889C88.5017 23.6881 87.1843 22.7307 85.1094 22.7307C82.8662 22.7307 81.0606 24.3319 81.0606 26.9107C81.0606 29.3756 82.7315 31.1111 85.2273 31.1111ZM93.1566 31.1111C95.1305 31.1111 96.4646 30.0681 96.4646 28.467C96.4646 25.2933 92.1633 26.65 92.1633 25.0978C92.1633 24.6496 92.5337 24.3033 93.1902 24.3033C93.83 24.3033 94.3392 24.6496 94.4402 25.163L96.4141 24.7515C96.0774 23.5456 94.7938 22.7348 93.1439 22.7348C91.3047 22.7348 90.0589 23.7411 90.0589 25.2485C90.0589 28.4385 94.3603 27.0819 94.3603 28.6178C94.3603 29.1963 93.9394 29.5752 93.2113 29.5752C92.4705 29.5752 91.8434 29.18 91.6751 28.5689L89.718 28.9315C90.1515 30.3167 91.4184 31.1111 93.1566 31.1111ZM101.675 31.1111C103.329 31.1111 104.524 30.3656 105.202 28.9152L103.43 28.4181C103.093 29.0456 102.487 29.4081 101.692 29.4081C100.577 29.4081 99.7685 28.6463 99.5665 27.5096H105.522V27.0126C105.505 24.3033 103.75 22.7348 101.473 22.7348C99.1119 22.7348 97.4074 24.5519 97.4074 26.9474C97.4074 29.3593 99.1793 31.1111 101.675 31.1111ZM103.308 26.0878H99.5791C99.798 24.9144 100.505 24.3359 101.503 24.3359C102.449 24.3359 103.241 24.8981 103.308 26.0878ZM109.482 31.0948C110.442 31.0948 111.406 30.6833 111.793 30.0885H111.86V30.8667H113.868V25.8719C113.868 23.8552 112.668 22.7307 110.526 22.7307C108.687 22.7307 107.374 23.5578 106.898 24.9959L109.024 25.163C109.209 24.7352 109.663 24.3848 110.391 24.3848C111.25 24.3848 111.759 24.8819 111.759 25.7415V26.32C111.49 26.1693 110.8 26.0226 110.105 26.0226C107.963 26.0226 106.662 26.9963 106.662 28.6341C106.667 30.0681 107.828 31.0948 109.482 31.0948ZM110.088 29.4733C109.28 29.4733 108.805 29.0781 108.805 28.467C108.805 27.8559 109.36 27.4607 110.341 27.4607C110.964 27.4607 111.557 27.6115 111.793 27.807V28.3204C111.793 28.9315 111.002 29.4733 110.088 29.4733ZM117.799 27.3263C117.799 25.4767 118.674 24.8656 119.84 24.8656C120.042 24.8656 120.278 24.8981 120.429 24.9633V22.963C120.311 22.8978 120.093 22.8489 119.823 22.8489C118.897 22.8489 118.085 23.3622 117.681 24.2544H117.647V22.9833H115.673V30.8667H117.799V27.3263ZM125.253 31.1111C127.058 31.1111 128.388 30.2026 128.88 28.5648L126.89 28.0678C126.654 28.8133 126.082 29.29 125.185 29.29C123.918 29.29 123.211 28.3 123.211 26.927C123.211 25.5378 123.918 24.5641 125.185 24.5641C126.077 24.5641 126.688 25.0122 126.923 25.77L128.981 25.4889C128.527 23.6881 127.21 22.7307 125.135 22.7307C122.891 22.7307 121.086 24.3319 121.086 26.9107C121.09 29.3756 122.757 31.1111 125.253 31.1111ZM132.34 30.8626V26.3363C132.34 25.277 133.098 24.5681 134.028 24.5681C134.886 24.5681 135.379 25.1141 135.379 26.2059V30.8667H137.5V25.823C137.5 23.8878 136.423 22.7348 134.684 22.7348C133.674 22.7348 132.761 23.2644 132.34 23.8593V19.2963H130.215V30.8626H132.34Z" fill="currentColor"/>
</svg>
