<svg width="150" height="50" viewBox="0 0 150 50" fill="none" xmlns="http://www.w3.org/2000/svg">
<path d="M45.0215 23.6831L35.8303 32.8772L41.0545 38.0985L41.0811 38.1281L45.0215 42.0684H55.5231L55.5201 42.0654H55.5231L46.3349 32.8772L55.5231 23.6831H45.0215Z" fill="currentColor"/>
<path d="M27.9556 24.9966L33.2064 30.2503L55.5231 7.93066H45.0215L27.9556 24.9966Z" fill="currentColor"/>
<path d="M58.857 32.9512H60.7207V26.0793H67.3234V24.3073H60.7207V18.876H68.0363V17.0804H58.857V32.9512Z" fill="currentColor"/>
<path d="M72.1394 17.0804H70.255V32.9512H72.1394V17.0804Z" fill="currentColor"/>
<path d="M82.6942 28.0376C82.6942 28.644 82.5552 29.2179 82.2742 29.7652C82.0139 30.3125 81.6293 30.7532 81.1234 31.0934C80.6294 31.4336 80.0644 31.6022 79.4313 31.6022C78.603 31.6022 77.9463 31.3478 77.4582 30.839C76.9701 30.3302 76.7275 29.5404 76.7275 28.4695V21.6479H74.8432V28.7624C74.8432 30.1912 75.1952 31.3064 75.8992 32.1081C76.627 32.9068 77.6712 33.3062 79.032 33.3062L79.0379 33.3032C79.807 33.3032 80.5318 33.1109 81.2092 32.7264C81.8896 32.3418 82.3836 31.8685 82.6942 31.3094H82.783V32.9571H84.5786V21.6538H82.6942V28.0376Z" fill="currentColor"/>
<path d="M90.921 30.8893C90.6844 30.5935 90.566 30.135 90.566 29.5138V23.3548H93.3142V21.6479H90.566V18.456H88.6817V21.6479H86.7085V23.3548H88.6817V29.9811C88.6817 30.5136 88.7556 30.9633 88.9035 31.333C89.0514 31.7028 89.2733 32.0282 89.5691 32.3093C89.8354 32.5607 90.1608 32.7589 90.5453 32.9068C90.9447 33.0547 91.3736 33.1287 91.8292 33.1287L91.8321 33.1316C92.1871 33.1316 92.4741 33.108 92.696 33.0636C92.9326 33.0192 93.1604 32.9453 93.3823 32.8417V31.0017C92.9829 31.2532 92.5687 31.3774 92.1398 31.3774C91.6073 31.3774 91.2021 31.2147 90.921 30.8893Z" fill="currentColor"/>
<path d="M98.9111 30.8893C98.6745 30.5935 98.5562 30.135 98.5562 29.5138V23.3548H101.304V21.6479H98.5562V18.456H96.6718V21.6479H94.6987V23.3548H96.6718V29.9811C96.6718 30.5136 96.7457 30.9633 96.8936 31.333C97.0416 31.7028 97.2634 32.0282 97.5592 32.3093C97.8255 32.5607 98.1509 32.7589 98.5355 32.9068C98.9348 33.0547 99.3638 33.1287 99.8223 33.1287L99.8252 33.1316C100.18 33.1316 100.467 33.108 100.689 33.0636C100.926 33.0192 101.153 32.9453 101.375 32.8417V31.0017C100.976 31.2532 100.562 31.3774 100.133 31.3774C99.5975 31.3774 99.1922 31.2147 98.9111 30.8893Z" fill="currentColor"/>
<path d="M110.842 22.0532C110.028 21.5443 109.07 21.2899 107.96 21.2899C106.866 21.2899 105.907 21.565 105.079 22.1123C104.251 22.6596 103.609 23.3903 103.15 24.3073C102.707 25.2243 102.485 26.2272 102.485 27.3217C102.485 28.4606 102.721 29.4871 103.195 30.4042C103.683 31.3064 104.354 32.0134 105.212 32.5311C106.076 33.0488 107.043 33.3062 108.117 33.3062V33.3121C109.3 33.3121 110.303 33.0459 111.132 32.5134C111.975 31.9809 112.637 31.2561 113.125 30.3421L111.528 29.567C110.744 30.9248 109.629 31.6052 108.182 31.6052C107.561 31.6052 106.963 31.4573 106.387 31.1615C105.824 30.8657 105.36 30.4219 104.99 29.8332C104.62 29.2416 104.413 28.5168 104.369 27.6619H113.3C113.344 27.4992 113.368 27.3069 113.368 27.0851C113.368 25.9609 113.146 24.964 112.702 24.0943C112.273 23.2187 111.652 22.5413 110.842 22.0532ZM105.68 23.8636C106.301 23.2867 107.055 22.9998 107.94 22.9998C108.703 22.9998 109.336 23.1625 109.845 23.4879C110.362 23.8133 110.738 24.2126 110.975 24.686C111.211 25.1593 111.342 25.6296 111.371 26.1029H104.481C104.674 25.1711 105.073 24.4256 105.68 23.8636Z" fill="currentColor"/>
<path d="M120.713 21.3166C120.018 21.3166 119.355 21.5236 118.719 21.9378C118.083 22.3371 117.657 22.846 117.435 23.4672H117.347V21.6508H115.551L115.56 21.6597V32.9571H117.444V26.6413C117.444 26.029 117.577 25.464 117.841 24.9492C118.116 24.4168 118.483 23.9967 118.941 23.6861C119.4 23.3755 119.9 23.2216 120.447 23.2216C121.039 23.2216 121.571 23.34 122.044 23.5766V21.5384C121.675 21.3905 121.231 21.3166 120.713 21.3166Z" fill="currentColor"/>
</svg>
