<svg width="150" height="50" viewBox="0 0 150 50" fill="none" xmlns="http://www.w3.org/2000/svg">
<path d="M101.444 19.2391H99.736L99.7465 31.7785H106.638V30.2241H101.444V19.2391Z" fill="currentColor"/>
<path d="M111.448 21.9745C110.074 21.9745 108.814 22.458 107.825 23.2612L108.428 24.2906C109.125 23.89 109.98 23.4874 111.196 23.4874C112.591 23.4874 113.217 24.1972 113.217 25.3801V25.9965C112.946 25.9343 112.383 25.9031 112.04 25.9031C109.054 25.9031 107.543 26.9325 107.543 29.1013C107.543 31.0355 108.741 32.013 110.562 32.013C111.79 32.013 112.967 31.4568 113.372 30.5623L113.685 31.7868H114.872V25.3594C114.872 23.3338 113.977 21.9745 111.448 21.9745ZM111.093 30.4503C109.791 30.4503 109.272 29.8235 109.272 28.9996C109.272 27.7544 110.146 27.1587 112 27.1587C112.345 27.1587 112.906 27.2002 113.198 27.2521V29.5662H113.208C112.78 30.0082 112.061 30.4503 111.093 30.4503Z" fill="currentColor"/>
<path d="M121.087 21.9745C119.566 21.9745 118.745 23.0039 118.745 23.0039V21.3788L118.734 19.2391H117.069L117.079 31.4693C117.911 31.8096 119.058 32.0047 120.295 32.0047C123.471 32.0047 125 29.9999 125 26.532C125.002 23.7863 123.586 21.9745 121.087 21.9745ZM120.369 30.5125C119.734 30.5125 119.171 30.4399 118.745 30.2448V24.4338C119.329 23.9502 120.047 23.6099 120.952 23.6099C122.597 23.6099 123.242 24.7617 123.242 26.6129C123.242 29.2673 122.213 30.5125 120.369 30.5125Z" fill="currentColor"/>
<path d="M82.9137 20.5964C84.4239 20.5964 85.3922 21.0904 86.037 21.5947L86.7659 20.3391C85.7661 19.4757 84.4239 19.0026 82.9977 19.0026C79.3745 19.0026 76.835 21.1838 76.835 25.5856C76.835 30.1929 79.574 31.9943 82.7057 31.9943C84.2769 31.9943 85.6106 31.6353 86.4844 31.2638L86.4529 26.3369V24.7845H81.8005V26.3369H84.7684L84.7999 30.0809C84.4155 30.2759 83.737 30.4212 82.8213 30.4212C80.3028 30.4212 78.6162 28.8585 78.6162 25.5566C78.6141 22.2214 80.3617 20.5964 82.9137 20.5964Z" fill="currentColor"/>
<path d="M94.926 28.5887V23.5808H97.6944V22.2028H94.905V19.2391H93.2394L93.2499 21.3477V28.6094C93.2499 30.635 94.1447 31.9943 96.6757 31.9943C97.0307 31.9943 97.373 31.9632 97.707 31.9009V30.4191C97.4676 30.4606 97.2071 30.4814 96.9362 30.4814C95.5415 30.4814 94.926 29.7716 94.926 28.5887Z" fill="currentColor"/>
<path d="M90.679 22.2007H89.0133V31.766H90.679V22.2007Z" fill="currentColor"/>
<path d="M90.679 19.2391H89.0133V20.8849H90.679V19.2391Z" fill="currentColor"/>
<path d="M56.9692 8.5012C56.7507 7.83293 55.7929 7.83293 55.5745 8.5012L51.3064 21.4722H37.1495L32.8815 8.5012C32.663 7.83293 31.7052 7.83293 31.4868 8.5012L25.0721 28.0138C24.8746 28.6094 25.0931 29.2694 25.6035 29.6284L44.228 43L62.8525 29.6284C63.3629 29.2694 63.5813 28.6094 63.3839 28.0138L56.9692 8.5012Z" fill="currentColor"/>
</svg>
