<svg width="150" height="50" viewBox="0 0 150 50" fill="none" xmlns="http://www.w3.org/2000/svg">
<path d="M53.523 20.9781H35.3169C35.1563 20.9781 34.9586 21.0606 34.8771 21.1871L34.0395 22.3122C33.9605 22.436 34 22.5212 34.1581 22.5212L53.0437 22.4799C53.2043 22.4799 53.3624 22.3973 53.4019 22.2296L53.7206 21.2284C53.7626 21.1045 53.6836 20.9781 53.523 20.9781Z" fill="currentColor"/>
<path d="M55.5983 17.1435H41.3452C41.1846 17.1435 40.987 17.226 40.9054 17.3525L40.0679 18.4776C39.9888 18.6014 40.0284 18.6866 40.1865 18.6866L54.6397 18.7279C54.7583 18.7279 54.9584 18.604 55.04 18.4776L55.7194 17.3938C55.7985 17.2673 55.7589 17.1435 55.5983 17.1435Z" fill="currentColor"/>
<path d="M52.6459 24.8152H44.6608C44.5002 24.8152 44.3421 24.9391 44.2606 25.0655L43.7022 26.108C43.6231 26.2319 43.6627 26.3584 43.8208 26.3584L52.5249 26.3996C52.6434 26.3996 52.804 26.2758 52.804 26.108L52.8831 25.1068C52.8856 24.9417 52.804 24.8152 52.6459 24.8152Z" fill="currentColor"/>
<path d="M115.845 21.1458C115.326 17.1435 113.369 14.0985 110.214 11.8457C106.741 9.38654 102.909 8.9685 98.837 9.71942C94.086 10.5942 90.5727 12.6792 87.6573 16.6841C86.4097 18.3924 85.4733 20.1962 84.8952 22.1057H72.0479C71.45 22.1057 71.1683 22.5238 71.0497 22.7741C70.4913 23.8579 69.5327 26.0255 69.0139 27.3183C68.7347 28.0279 68.9348 28.5698 69.7724 28.5698H77.4783C77.0781 29.153 76.7594 29.6536 76.4011 30.113C74.605 32.2393 72.3295 33.2405 69.6143 32.8663C66.4593 32.407 64.2653 29.6562 64.2233 26.3196C64.1838 22.9418 65.5797 20.2323 68.2949 18.3976C70.5704 16.8544 73.0065 16.4803 75.5216 17.7731C76.3591 18.1911 76.7989 18.6479 77.3993 19.3575C77.9181 19.982 77.9576 19.9407 78.558 19.7756C81.0336 19.1072 82.7507 18.6092 85.2658 17.9408C85.7451 17.817 85.9057 17.6079 85.666 17.2312C84.6679 14.8133 83.1509 12.8108 81.0336 11.3503C77.7995 9.05623 74.2072 8.59691 70.4543 9.30654C65.8638 10.1813 62.1109 12.6431 59.2746 16.5216C56.6385 20.1084 55.3612 24.1933 55.88 28.7401C56.3198 32.5773 57.9949 35.6636 60.9497 37.9963C64.1443 40.4994 67.7761 41.2916 71.6896 40.7497C76.4406 40.0814 80.1936 37.6222 83.0669 33.6611C83.7192 32.7631 84.2775 31.8187 84.7445 30.8355C85.4165 33.3747 86.7704 35.5578 88.737 37.3306C91.5313 39.8336 94.8444 40.9174 98.4788 41C99.5164 40.8761 100.594 40.8323 101.673 40.6258C105.387 39.8336 108.621 38.0815 111.254 35.2894C114.968 31.3619 116.524 26.7764 115.845 21.1458ZM107.981 24.1495C107.781 27.7363 106.064 30.4045 102.911 32.1128C100.796 33.2379 98.5998 33.3644 96.4034 32.3631C93.5301 31.029 92.0106 27.7338 92.7296 24.4823C93.6091 20.5626 96.0032 18.1034 99.7165 17.226C103.509 16.3074 107.143 18.6427 107.862 22.7715C107.941 23.1895 107.941 23.605 107.981 24.1495Z" fill="currentColor"/>
</svg>
