<svg width="150" height="50" viewBox="0 0 150 50" fill="none" xmlns="http://www.w3.org/2000/svg">
<path d="M59.4164 18.3973C58.8112 18.9708 58.2298 19.5233 57.6062 20.1166C56.6919 19.3313 55.6132 18.6946 54.3161 18.5064C51.7364 18.1315 49.5723 18.905 48.0003 20.9888C46.369 23.1502 46.1546 25.5695 47.3333 27.9848C48.4804 30.337 50.4564 31.5906 53.1137 31.6209C55.5264 31.6485 57.4655 30.775 58.6218 28.5399C58.8941 28.0124 59.0204 27.4375 59.0836 26.7627C57.109 26.7627 55.1699 26.7627 53.2176 26.7627C53.2176 25.8813 53.2176 25.0788 53.2176 24.2434C56.0171 24.2434 58.7876 24.2434 61.5554 24.2434C62.2106 27.5533 61.0174 31.6472 57.0024 33.4324C51.8219 35.7372 45.6744 32.8075 44.1774 27.3441C42.7395 22.0912 46.5295 16.5437 51.96 15.9385C54.6673 15.6373 57.0787 16.2845 59.1388 18.1065C59.2335 18.1907 59.3138 18.2894 59.4164 18.3973Z" fill="currentColor"/>
<path d="M88.896 35.9424C89.5998 35.6464 90.3207 35.3425 91.0916 35.0176C91.6191 35.949 92.2597 36.7554 93.3674 37.0172C94.0489 37.179 94.7171 37.1316 95.3644 36.8843C96.7194 36.3673 97.2824 35.1623 97.2074 32.9772C97.1693 32.9706 97.1101 32.9443 97.0943 32.9601C95.1355 34.9755 91.4757 34.4519 89.5274 31.8261C86.9516 28.3558 88.8894 23.2897 93.1306 22.4622C94.6435 22.1662 95.9893 22.5412 97.1798 23.6725C97.2048 23.3528 97.2258 23.0884 97.2508 22.7793C98.048 22.7793 98.8413 22.7793 99.6635 22.7793C99.6767 22.9187 99.6977 23.045 99.6977 23.1713C99.699 26.6732 99.7135 30.1765 99.6951 33.6784C99.6806 36.5541 98.2296 38.6103 95.8103 39.2575C93.0964 39.9837 90.5101 38.9497 89.1485 36.5936C89.042 36.4041 88.9104 36.2239 88.896 35.9424ZM97.3745 28.3189C97.3798 26.2996 96.0669 24.7604 94.3185 24.7381C92.1032 24.7091 90.518 26.9784 91.1402 29.2872C91.6559 31.1973 93.4608 32.2537 95.2144 31.6696C96.5115 31.2381 97.3692 29.9068 97.3745 28.3189Z" fill="currentColor"/>
<path d="M132.691 29.4687C130.347 29.4687 128.074 29.4687 125.749 29.4687C125.212 30.9408 124.676 32.4142 124.14 33.8862C123.352 33.8862 122.594 33.8862 121.737 33.8862C123.828 28.3374 125.898 22.849 127.976 17.3356C128.804 17.3356 129.602 17.3356 130.442 17.3356C132.512 22.8279 134.584 28.3189 136.677 33.8718C135.861 33.8718 135.112 33.8718 134.275 33.8718C133.761 32.4457 133.232 30.9723 132.691 29.4687ZM131.915 27.3586C131.02 24.8907 130.143 22.4675 129.208 19.8864C128.272 22.4714 127.396 24.8933 126.505 27.3586C128.359 27.3586 130.103 27.3586 131.915 27.3586Z" fill="currentColor"/>
<path d="M75.5039 28.3137C75.4947 24.9262 78.0468 22.3688 81.4356 22.3701C84.7507 22.3715 87.341 24.9301 87.3463 28.2084C87.3515 31.6077 84.8113 34.177 81.4422 34.1809C78.0824 34.1849 75.5131 31.6459 75.5039 28.3137ZM78.1442 28.2703C78.1415 30.2712 79.5571 31.8209 81.3988 31.834C83.2221 31.8472 84.7152 30.2738 84.7336 28.3189C84.7534 26.322 83.28 24.7341 81.4119 24.7381C79.5465 24.742 78.1468 26.2536 78.1442 28.2703Z" fill="currentColor"/>
<path d="M62.6223 28.2795C62.6223 24.9275 65.1679 22.3767 68.5198 22.3701C71.8954 22.3636 74.4686 24.9354 74.4647 28.3097C74.4607 31.6275 71.877 34.1809 68.5224 34.1809C65.1705 34.1809 62.6223 31.6314 62.6223 28.2795ZM65.2442 28.3084C65.2547 30.2817 66.7189 31.8406 68.5527 31.834C70.3642 31.8274 71.8626 30.2133 71.852 28.2795C71.8415 26.2733 70.3681 24.721 68.4895 24.7381C66.6412 24.7539 65.2323 26.3036 65.2442 28.3084Z" fill="currentColor"/>
<path d="M116.209 26.814C113.55 27.9151 110.988 28.9767 108.428 30.037C109.029 32.2616 111.927 32.3721 114.093 30.2238C114.732 30.6487 115.379 31.0802 116.077 31.5459C114.976 33.1364 113.507 34.0178 111.637 34.1691C109.091 34.3743 106.825 33.0482 105.819 30.8276C104.766 28.5057 105.274 25.6405 107.048 23.8988C109.651 21.344 113.798 22.0347 115.537 25.3222C115.781 25.7826 115.967 26.272 116.209 26.814ZM107.945 28.0466C109.659 27.3323 111.36 26.6245 113.056 25.9181C112.717 24.9288 111.301 24.4802 110.205 24.8065C108.777 25.2301 107.801 26.6048 107.945 28.0466Z" fill="currentColor"/>
<path d="M101.486 33.7955C101.486 28.0335 101.486 22.3333 101.486 16.5989C102.345 16.5989 103.167 16.5989 104.035 16.5989C104.035 22.328 104.035 28.0453 104.035 33.7955C103.188 33.7955 102.366 33.7955 101.486 33.7955Z" fill="currentColor"/>
<path d="M140.687 33.8836C139.975 33.8836 139.325 33.8836 138.642 33.8836C138.642 28.365 138.642 22.8819 138.642 17.3475C139.312 17.3475 139.978 17.3475 140.687 17.3475C140.687 22.8477 140.687 28.3466 140.687 33.8836Z" fill="currentColor"/>
<path d="M33.1191 20.8981C31.7733 20.9073 30.659 19.7878 30.6696 18.4354C30.6801 17.0962 31.7509 16.0267 33.0901 16.0188C34.4425 16.0109 35.5607 17.1265 35.5502 18.4722C35.5383 19.7865 34.4346 20.8889 33.1191 20.8981Z" fill="currentColor"/>
<path d="M35.5488 25.0499C35.5344 26.3641 34.4254 27.4652 33.1125 27.4704C31.7654 27.4744 30.6551 26.3522 30.6696 25.0012C30.684 23.6607 31.7562 22.5951 33.0954 22.5911C34.4491 22.5859 35.5646 23.7041 35.5488 25.0499Z" fill="currentColor"/>
<path d="M35.5488 31.5828C35.5594 32.9193 34.4293 34.048 33.0875 34.0415C31.7707 34.0362 30.6801 32.9404 30.6696 31.6117C30.659 30.2764 31.7154 29.1911 33.0559 29.1622C34.4056 29.1332 35.5383 30.233 35.5488 31.5828Z" fill="currentColor"/>
<path d="M29.6619 21.6966C29.654 22.8924 28.6818 23.833 27.4702 23.8172C26.3086 23.8014 25.347 22.8332 25.347 21.6782C25.347 20.5087 26.356 19.5023 27.5228 19.5076C28.7147 19.5141 29.6684 20.4903 29.6619 21.6966Z" fill="currentColor"/>
<path d="M29.6619 28.3702C29.6527 29.5726 28.6884 30.5132 27.4794 30.4988C26.3283 30.4856 25.3575 29.5134 25.3483 28.3637C25.3377 27.1902 26.3362 26.197 27.5189 26.2023C28.7292 26.2102 29.6711 27.1626 29.6619 28.3702Z" fill="currentColor"/>
<path d="M29.6619 34.9084C29.654 36.1095 28.666 37.0922 27.4926 37.0672C26.3112 37.0409 25.3246 36.0279 25.3483 34.8637C25.3733 33.7021 26.3362 32.7588 27.5018 32.7562C28.7068 32.7523 29.6698 33.7113 29.6619 34.9084Z" fill="currentColor"/>
<path d="M29.6619 15.1006C29.6724 16.2819 28.7423 17.2462 27.5676 17.2699C26.3586 17.2948 25.3614 16.3398 25.3483 15.1453C25.3351 13.9666 26.3389 12.9602 27.5241 12.9641C28.6884 12.9681 29.6513 13.9297 29.6619 15.1006Z" fill="currentColor"/>
<path d="M23.7183 38.0551C23.7289 39.0523 22.9395 39.8745 21.9608 39.8863C20.9452 39.8982 20.1177 39.0786 20.1204 38.0617C20.123 37.0764 20.9347 36.2673 21.92 36.2673C22.9106 36.266 23.7078 37.058 23.7183 38.0551Z" fill="currentColor"/>
<path d="M23.7183 11.9551C23.7052 12.9497 22.9014 13.739 21.9095 13.7337C20.9242 13.7271 20.1177 12.9128 20.1204 11.9275C20.1243 10.9132 20.9676 10.0871 21.9713 10.1134C22.9593 10.141 23.7315 10.954 23.7183 11.9551Z" fill="currentColor"/>
<path d="M21.9568 26.81C20.9794 26.8271 20.148 26.0299 20.1217 25.0472C20.0941 24.0409 20.9215 23.1884 21.9279 23.1897C22.9185 23.191 23.7131 23.9869 23.7196 24.9854C23.7249 25.9878 22.9474 26.7916 21.9568 26.81Z" fill="currentColor"/>
<path d="M20.1204 31.5354C20.1256 30.5382 20.9189 29.7384 21.9082 29.7344C22.933 29.7292 23.7315 30.5409 23.717 31.5722C23.7039 32.5497 22.8646 33.3745 21.9042 33.3534C20.9163 33.3324 20.1151 32.5155 20.1204 31.5354Z" fill="currentColor"/>
<path d="M23.7183 18.4565C23.7196 19.4589 22.9422 20.2508 21.945 20.2653C20.9294 20.2798 20.1085 19.4563 20.1204 18.4341C20.1322 17.4527 20.9518 16.6437 21.9345 16.645C22.9014 16.6463 23.717 17.4751 23.7183 18.4565Z" fill="currentColor"/>
<path d="M16.2264 29.8844C15.3555 29.8686 14.6583 29.1359 14.6873 28.2689C14.7162 27.431 15.4266 26.7403 16.258 26.7416C17.1262 26.7429 17.8327 27.4625 17.8222 28.3347C17.8116 29.2201 17.1105 29.9002 16.2264 29.8844Z" fill="currentColor"/>
<path d="M16.2369 20.1153C17.1276 20.1048 17.8248 20.7902 17.8222 21.6729C17.8195 22.553 17.1118 23.2647 16.2462 23.2581C15.4121 23.2529 14.7083 22.5556 14.6873 21.7163C14.6662 20.8402 15.3569 20.1259 16.2369 20.1153Z" fill="currentColor"/>
<path d="M16.2527 13.5956C17.1302 13.5943 17.83 14.3007 17.8222 15.1769C17.8143 16.0319 17.1407 16.7173 16.2922 16.7331C15.4161 16.7502 14.6938 16.0543 14.6859 15.1847C14.6794 14.3099 15.3805 13.5969 16.2527 13.5956Z" fill="currentColor"/>
<path d="M17.8222 34.8189C17.8314 35.6924 17.1262 36.4041 16.2527 36.4041C15.3819 36.4041 14.6807 35.6924 14.6859 34.8137C14.6899 33.9678 15.3713 33.2824 16.2251 33.2653C17.1039 33.2482 17.8129 33.9375 17.8222 34.8189Z" fill="currentColor"/>
<path d="M9.31335 18.3907C9.32256 17.6711 9.9027 17.1028 10.6157 17.1133C11.3195 17.1238 11.901 17.7263 11.8891 18.4328C11.8773 19.1418 11.2787 19.7233 10.5736 19.7128C9.86455 19.7009 9.30414 19.1129 9.31335 18.3907Z" fill="currentColor"/>
<path d="M9.31335 24.9788C9.32256 24.2408 9.87508 23.7014 10.6118 23.7107C11.3274 23.7199 11.901 24.3053 11.8891 25.017C11.8786 25.7274 11.2893 26.2957 10.5723 26.2878C9.84614 26.2799 9.30414 25.7168 9.31335 24.9788Z" fill="currentColor"/>
<path d="M9.31335 31.5906C9.31072 30.8711 9.88034 30.287 10.5868 30.2856C11.2945 30.2843 11.8839 30.8684 11.8905 31.5775C11.897 32.2958 11.33 32.8641 10.6026 32.8693C9.87376 32.8746 9.31729 32.3221 9.31335 31.5906Z" fill="currentColor"/>
</svg>
