<svg width="150" height="50" viewBox="0 0 150 50" fill="none" xmlns="http://www.w3.org/2000/svg">
<path fill-rule="evenodd" clip-rule="evenodd" d="M102.437 24.9902H97.7791C97.0019 24.9902 96.2246 25.6198 96.0517 26.3891L95.1631 30.3575C94.9901 31.1268 95.4871 31.7563 96.2644 31.7563H100.922C101.699 31.7563 102.476 31.1268 102.649 30.3575L103.538 26.3891C103.711 25.6218 103.216 24.9902 102.437 24.9902ZM100.512 26.6567C100.242 27.8608 99.9718 29.0648 99.7014 30.267C99.608 30.688 99.3416 30.6801 98.9778 30.6801C98.1767 30.6801 97.3756 30.6801 96.5745 30.6801C96.2206 30.6801 96.2187 30.4736 96.2803 30.1902C96.5506 28.9861 96.819 27.784 97.0873 26.5799C97.1867 26.1333 97.3637 26.0546 97.801 26.0546C98.5882 26.0546 99.3754 26.0546 100.163 26.0546C100.618 26.0566 100.594 26.2927 100.512 26.6567Z" fill="currentColor"/>
<path fill-rule="evenodd" clip-rule="evenodd" d="M81.3015 26.2885L80.4129 30.2609C80.24 31.0301 80.735 31.6558 81.5122 31.6558H86.804L88.0762 25.9993L88.3287 24.8936H83.031C82.2517 24.8936 81.4744 25.5193 81.3015 26.2885ZM85.1202 25.9678C84.7723 27.5064 84.4245 29.045 84.0746 30.5835C83.357 30.5835 82.6393 30.5835 81.9237 30.5835C81.6116 30.5835 81.4307 30.5265 81.5102 30.1723C81.7865 28.9446 82.0629 27.715 82.3412 26.4853C82.4187 26.141 82.5221 25.9659 82.9097 25.9659C83.6472 25.9678 84.3827 25.9678 85.1202 25.9678Z" fill="currentColor"/>
<path fill-rule="evenodd" clip-rule="evenodd" d="M66.0585 29.7888C65.5396 29.7888 65.0228 30.2078 64.9095 30.7213C64.7962 31.229 65.1182 31.6441 65.6251 31.6539C65.6251 31.6559 65.6251 31.6559 65.6231 31.6579H72.0599L72.4793 29.7947H66.1519C66.1221 29.7907 66.0903 29.7888 66.0585 29.7888Z" fill="currentColor"/>
<path fill-rule="evenodd" clip-rule="evenodd" d="M133.782 25.7044C133.77 25.6729 133.76 25.6414 133.746 25.6119C133.74 25.6001 133.734 25.5903 133.728 25.5785C133.716 25.5529 133.704 25.5293 133.688 25.5057C133.682 25.4958 133.674 25.486 133.668 25.4762C133.652 25.4525 133.637 25.4289 133.619 25.4053C133.615 25.4014 133.611 25.3955 133.607 25.3916C133.432 25.1771 133.171 25.0335 132.855 25.002C132.81 24.9981 132.762 24.9941 132.714 24.9941H127.416L125.9 31.7583H131.197C131.975 31.7583 132.752 31.1287 132.925 30.3594L133.813 26.391C133.867 26.151 133.855 25.9247 133.792 25.726C133.788 25.7182 133.786 25.7103 133.782 25.7044ZM130.82 26.511C130.543 27.7387 130.267 28.9684 129.989 30.1981C129.911 30.5424 129.808 30.7175 129.42 30.7175C128.683 30.7175 127.947 30.7175 127.21 30.7175C127.558 29.1789 127.905 27.6404 128.255 26.1018C128.973 26.1018 129.691 26.1018 130.406 26.1018C130.718 26.0998 130.899 26.1569 130.82 26.511Z" fill="currentColor"/>
<path fill-rule="evenodd" clip-rule="evenodd" d="M117.964 24.9902H113.306C112.529 24.9902 111.752 25.6198 111.579 26.3891L110.69 30.3575C110.517 31.1268 111.014 31.7563 111.792 31.7563H116.449C117.227 31.7563 118.004 31.1268 118.177 30.3575L119.065 26.3891C119.238 25.6218 118.741 24.9902 117.964 24.9902ZM116.056 26.6567C115.785 27.8608 115.515 29.0648 115.245 30.267C115.151 30.688 114.885 30.6801 114.521 30.6801C113.72 30.6801 112.919 30.6801 112.118 30.6801C111.764 30.6801 111.762 30.4736 111.823 30.1902C112.094 28.9861 112.362 27.784 112.633 26.5799C112.732 26.1333 112.909 26.0546 113.346 26.0546C114.133 26.0546 114.921 26.0546 115.708 26.0546C116.163 26.0566 116.139 26.2927 116.056 26.6567Z" fill="currentColor"/>
<path fill-rule="evenodd" clip-rule="evenodd" d="M14.9757 20.6281L15.2142 20.9252L15.2977 20.5553L15.1188 20.516L14.9757 20.6281Z" fill="currentColor"/>
<path fill-rule="evenodd" clip-rule="evenodd" d="M29.2825 10C27.571 10.4151 27.068 10.7103 26.4995 12.6738C27.2211 11.2356 27.7697 10.7063 29.2825 10Z" fill="currentColor"/>
<path fill-rule="evenodd" clip-rule="evenodd" d="M27.9209 10.1219C27.0581 10.3285 26.8931 10.4859 26.6347 11.324C27.0482 10.7102 27.2848 10.5095 27.9209 10.1219Z" fill="currentColor"/>
<path fill-rule="evenodd" clip-rule="evenodd" d="M11.0178 20.1601C11.1768 19.4401 11.3239 19.1685 11.7732 18.5763C11.0456 19.082 10.9502 19.2886 11.0178 20.1601Z" fill="currentColor"/>
<path fill-rule="evenodd" clip-rule="evenodd" d="M11.3896 21.4684C11.5327 19.8688 11.8468 19.1782 12.9958 17.9722C11.5546 18.9776 11.1948 19.434 11.3896 21.4684Z" fill="currentColor"/>
<path fill-rule="evenodd" clip-rule="evenodd" d="M43.5575 17.2147C44.5435 16.8665 45.0186 16.0834 45.2532 15.1607C44.8675 15.9339 44.2731 16.5812 43.4641 16.9767C43.0307 17.1892 42.7524 17.1144 42.2693 17.0691C42.7623 17.2088 43.0744 17.3839 43.5575 17.2147Z" fill="currentColor"/>
<path fill-rule="evenodd" clip-rule="evenodd" d="M35.7033 25.0317C35.6655 25.2737 35.6118 25.5727 35.5741 25.8128C35.6774 25.5393 35.8007 25.2225 35.922 24.9628C36.0492 24.6874 36.1207 24.6618 36.3911 24.5162C36.5819 24.4139 36.9298 24.2722 37.1206 24.168C36.9238 24.2014 36.572 24.2722 36.3752 24.3057C35.8464 24.3942 35.7848 24.5182 35.7033 25.0317Z" fill="currentColor"/>
<path fill-rule="evenodd" clip-rule="evenodd" d="M36.9459 18.3518C36.9319 18.2318 36.9001 18.1118 36.8445 17.9977C36.7133 17.7262 36.4827 17.5294 36.2163 17.433C36.4588 17.3051 36.6954 17.1714 36.8802 17.0041C36.3376 17.252 35.7054 17.191 35.2402 17.5039C34.8307 17.7773 34.2642 18.647 33.8467 19.0149C34.1489 18.8988 34.4391 18.6981 34.7075 18.4876C34.7095 18.645 34.7433 18.8044 34.8168 18.9539C34.8904 19.1073 34.9977 19.2333 35.123 19.3336C35.0872 19.2982 35.0574 19.2569 35.0335 19.2097C34.9222 18.9795 35.0216 18.702 35.2542 18.5919C35.4867 18.4817 35.769 18.5801 35.8803 18.8103C35.8903 18.8319 35.9002 18.8535 35.9062 18.8772C35.6835 19.0405 35.4788 19.2333 35.3078 19.4576C35.1587 19.6523 35.0335 19.8727 34.9441 20.1147C35.7372 19.1841 36.8882 18.4817 37.9696 18.1807C37.6694 18.1787 37.3116 18.2338 36.9459 18.3518Z" fill="currentColor"/>
<path fill-rule="evenodd" clip-rule="evenodd" d="M32.9699 17.1578C33.1528 16.357 33.4768 15.5858 34.7332 14.9896C33.0673 15.4028 32.7552 16.0953 32.9699 17.1578Z" fill="currentColor"/>
<path fill-rule="evenodd" clip-rule="evenodd" d="M26.722 15.7253C26.1117 16.3214 25.5194 18.3696 25.3305 19.19C25.6287 18.5092 26.3761 16.6047 26.9486 16.1207C27.1077 15.987 27.217 15.9043 27.3363 15.8453C26.9268 16.526 26.9566 16.6952 27.0997 17.6062C27.223 16.6795 27.545 16.3214 28.0778 15.6308C28.6602 15.4852 29.2049 15.3121 29.8013 15.0819C29.1274 15.1567 28.4555 15.2255 27.7816 15.2885C27.215 15.3416 27.1236 15.3338 26.722 15.7253Z" fill="currentColor"/>
<path fill-rule="evenodd" clip-rule="evenodd" d="M138.439 21.9896C137.632 20.9823 136.561 20.9055 135.386 20.9055C126.92 20.9154 118.453 20.9055 109.987 20.9055C109.132 20.9055 108.416 21.179 107.669 21.5607C106.967 21.0708 106.335 20.9055 105.476 20.9055C101.602 20.9055 97.7294 20.9055 93.855 20.9055C94.1731 19.4929 94.4892 18.0783 94.8072 16.6656C92.3045 16.6656 89.7997 16.6656 87.297 16.6656C86.9869 18.0448 86.6788 19.4221 86.3686 20.8013C84.1661 20.8013 81.9655 20.8013 79.7629 20.8013C78.8505 20.8013 77.9738 21.0846 77.2085 21.5705C76.467 21.1141 75.8945 20.9154 75.0158 20.9154C67.7481 20.9154 60.4804 20.9154 53.2147 20.9154C53.5467 19.483 53.8806 18.0507 54.2126 16.6184C51.7397 16.6145 49.2667 16.6105 46.7938 16.6066C46.6447 16.0557 46.4618 15.5481 46.2432 15.1349C46.1954 15.0464 46.1239 14.9559 46.0364 14.8693C45.8456 14.6824 45.5613 14.5053 45.2671 14.405C44.957 14.2988 44.629 14.2771 44.3686 14.4129C44.301 14.4483 44.2374 14.4935 44.1817 14.5486C44.0127 14.7178 43.8716 14.9224 43.7285 15.129C43.5695 15.3573 43.4104 15.5875 43.2196 15.7488C42.9989 15.9357 42.7226 16.0498 42.4622 16.1521C42.3489 15.8786 42.2157 15.6288 42.0686 15.3927C41.8897 15.1113 41.6869 14.8477 41.4643 14.584C41.2814 14.3696 41.1045 14.2083 40.9116 14.0627C40.7188 13.9171 40.522 13.7951 40.2934 13.6534C39.6772 13.2717 39.1544 12.8173 38.6196 12.3529C38.3771 12.1424 38.1306 11.9299 37.892 11.7332C36.6198 10.6944 35.431 10.1907 34.1628 10.112C32.9025 10.0333 31.5706 10.3756 29.9982 11.0308C29.2388 11.3476 28.6762 11.7214 28.1852 12.17C27.7161 12.5989 27.3185 13.0947 26.8811 13.6711C26.6267 13.6888 26.4001 13.7262 26.1695 13.8167C25.915 13.9171 25.6606 14.0804 25.3544 14.3479C25.1378 14.5368 24.929 14.7296 24.7283 14.9205C24.5394 15.0995 24.3585 15.2825 24.1776 15.4674C22.7463 15.6957 21.5795 15.9455 20.5358 16.3469C19.4683 16.7561 18.5261 17.3188 17.5599 18.1688C17.1644 18.5151 16.8224 18.881 16.5243 19.2706C16.2301 19.6522 15.9796 20.0516 15.7589 20.4747C15.5661 20.6871 15.3713 20.9016 15.1606 21.0885C14.9558 21.2715 14.7391 21.4249 14.4946 21.5174C14.3535 21.5705 14.2939 21.604 14.2879 21.602C14.2799 21.5981 14.276 21.5764 14.266 21.5332C14.6139 21.2026 14.6735 20.7186 14.7053 20.2346C14.7471 20.2838 14.7888 20.3468 14.8306 20.4097C14.8763 20.4806 14.924 20.5534 14.9817 20.6242L15.1248 20.512C15.2142 20.5317 15.3037 20.5514 15.3037 20.5514C15.3733 20.2405 15.4269 19.8274 15.3454 19.4673C15.2918 19.2351 15.1824 19.0266 14.9936 18.879C15.0115 18.8318 15.0294 18.7885 15.0453 18.7452C15.1049 18.5938 15.1665 18.4383 15.2182 18.2927L15.3216 18.0015L15.0135 18.0547C14.604 18.1255 13.7253 18.6036 13.1071 19.2371C12.8765 19.4732 12.6797 19.7329 12.5505 20.0084C12.4153 20.2936 12.3557 20.5907 12.4073 20.8898C12.4531 21.1495 12.5843 21.4053 12.8248 21.6473C12.8685 21.8204 12.9083 21.9719 12.952 22.1077L13.127 22.0545C13.0395 22.0821 12.952 22.1077 12.952 22.1077C13.0017 22.2631 13.0554 22.4008 13.121 22.5385C13.3019 22.9084 13.5882 23.1347 13.9201 23.2409C14.1865 23.3255 14.4827 23.3295 14.7729 23.2665C14.7173 23.5911 14.6815 23.9295 14.6676 24.2994C14.6497 24.7834 14.6676 25.3166 14.7212 25.9364C14.7332 26.0721 14.7511 26.2216 14.7729 26.3849C14.7928 26.5246 14.8167 26.6604 14.8425 26.7961C14.7888 26.9417 14.7332 27.0893 14.6795 27.2349C14.596 27.4611 14.5105 27.6894 14.427 27.9156C14.2422 28.0966 14.0573 28.2796 13.8704 28.4606C13.6975 28.6298 13.5245 28.799 13.3516 28.9702C13.3377 28.984 13.278 29.0391 13.2264 29.0902C12.8765 29.4247 12.8069 29.4896 12.9063 30.0779C12.9679 30.4379 13.0872 30.8019 13.2741 31.1541C13.447 31.4787 13.6776 31.7935 13.9738 32.0886C14.3435 32.4566 14.9499 32.911 15.584 33.1491C15.9458 33.2849 16.3215 33.3518 16.6714 33.2967C16.6535 33.3498 16.6356 33.4029 16.6157 33.458C16.56 33.6095 16.4984 33.761 16.4308 33.9085C16.0014 34.8431 16.4428 35.331 17.1306 35.6399C17.4745 35.7954 17.882 35.8996 18.2617 35.998C18.3392 36.0177 18.4167 36.0373 18.5141 36.0649C18.9634 36.1849 19.7407 36.4053 20.4503 36.4505C21.2236 36.4997 21.9234 36.3403 22.1102 35.6537C22.1838 35.3802 22.2275 35.1717 22.2454 34.967C22.2613 34.7782 22.2553 34.5854 22.2335 34.3493C22.4541 33.8672 22.5476 33.7295 22.7086 33.4954L22.5575 33.3931C22.633 33.4442 22.7086 33.4954 22.7086 33.4954C22.7404 33.4501 22.7781 33.395 22.7901 33.3773C22.963 33.1235 23.0445 32.9425 23.0743 32.7399C23.1022 32.5451 23.0783 32.3483 23.0425 32.0513L22.8616 32.0709C22.9531 32.0611 23.0425 32.0513 23.0425 32.0513C23.0386 32.0237 23.0326 31.9804 23.0266 31.9273C23.4799 31.9844 23.9271 32.0158 24.3704 32.0178C24.5971 32.0198 24.8217 32.0119 25.0463 32.0001C24.9887 32.0296 24.933 32.0591 24.8714 32.0906C24.8436 32.1044 24.8157 32.1181 24.7879 32.1339C24.1895 32.4388 24.1657 33.0153 24.3526 33.6075L24.3744 33.6016C24.3605 33.6056 24.3526 33.6075 24.3526 33.6075C24.5215 34.1427 24.8694 34.6877 25.0861 35.0202C25.5433 35.7186 25.9806 36.3108 26.5114 36.6315C27.066 36.968 27.7021 37.0073 28.5212 36.5686C28.9386 36.3462 29.0698 36.118 29.2467 35.8111C29.3004 35.7167 29.36 35.6163 29.4276 35.514C29.6006 35.4019 30.028 35.0516 30.4494 34.7073C30.5925 34.5913 30.7357 34.4732 30.8967 34.3434C31.008 34.424 31.1432 34.4811 31.3042 34.5185C31.5149 34.5676 31.7654 34.5913 32.0675 34.6129C32.2922 34.6286 33.0277 34.6286 33.5008 34.6286C33.6479 34.6286 33.7692 34.6286 33.8427 34.6286C34.3317 34.6326 34.7273 34.607 35.0255 34.4378C35.3436 34.2588 35.5324 33.942 35.5742 33.3754C35.5921 33.1235 35.596 32.9681 35.5603 32.8087C35.5265 32.6612 35.4629 32.5254 35.3515 32.3287C35.3456 32.0827 35.3376 31.8388 35.3317 31.5928C35.3237 31.3331 35.3177 31.0715 35.3098 30.8117C35.3018 30.5048 35.268 30.2569 35.2044 30.011C35.1428 29.767 35.0533 29.5329 34.9341 29.2535C34.8526 29.0627 34.787 28.8895 34.7234 28.7184C34.622 28.4449 34.5206 28.1793 34.3795 27.894C34.3894 27.8389 34.3973 27.7799 34.4073 27.7169C34.4987 27.8035 34.5902 27.8901 34.6796 27.9766L35.0812 28.3603C35.3873 28.6534 35.6696 28.919 35.9996 29.1119C36.3395 29.3106 36.7232 29.4266 37.2201 29.403C37.739 29.3794 38.2956 29.161 38.7528 28.8285C39.1961 28.5059 39.5519 28.0691 39.699 27.5851C39.7428 27.4454 39.7845 27.3057 39.8283 27.166C39.862 27.0539 39.8958 26.9437 39.9316 26.8316C40.6612 26.9535 41.4424 26.9929 42.1978 26.9142C42.9274 26.8394 43.6311 26.6545 44.2394 26.3338C44.3547 26.2728 44.466 26.2079 44.5733 26.141C43.8497 29.342 43.1281 32.5412 42.4045 35.7422C44.9013 35.7422 47.3981 35.7442 49.8969 35.7442C50.6483 32.4802 51.3997 29.2142 52.1512 25.9501C52.996 25.9501 53.8409 25.9501 54.6857 25.9501C54.9879 25.9501 54.9282 26.1193 54.8765 26.3456C54.1669 29.4778 53.4552 32.612 52.7455 35.7442C69.3007 35.7442 85.8558 35.7442 102.413 35.7442C103.256 35.7442 103.916 35.5711 104.673 35.1894C105.421 35.6832 106.081 35.8485 106.995 35.8406L118.499 35.7442C118.191 37.1608 117.883 38.5793 117.572 39.9959C120.071 39.9959 122.572 39.9959 125.071 39.9959C125.381 38.601 125.689 37.208 125.999 35.8131C128.14 35.8131 130.349 35.8268 132.49 35.8268C133.535 35.8268 134.46 35.5061 135.283 34.9552C136.275 34.2922 137.016 33.275 137.294 32.0217C137.765 29.9008 138.239 27.7779 138.712 25.657C138.966 24.4509 139.318 23.0835 138.439 21.9896ZM41.9096 16.6223C41.8817 16.642 41.8559 16.6637 41.832 16.6853C41.7883 16.583 41.7227 16.4905 41.6432 16.4118C41.6969 16.4099 41.7525 16.4079 41.8082 16.4079C41.844 16.4768 41.8758 16.5495 41.9096 16.6223ZM14.9041 19.8431C14.7928 19.7329 14.7053 19.6582 14.5622 19.6759C14.5741 19.5834 14.59 19.4929 14.6139 19.4083C14.6258 19.365 14.6378 19.3217 14.6517 19.2804C14.8346 19.3866 14.8843 19.5814 14.9041 19.8431ZM14.2123 21.7712C14.2123 21.7692 14.2123 21.7692 14.2143 21.7673L14.2123 21.7712ZM14.4628 18.8692C14.3575 19.0935 14.2819 19.2647 14.2302 19.4398C14.0076 20.1992 14.3316 20.878 13.6339 21.4289C13.9619 22.0821 13.946 22.3438 14.7073 22.0408C15.0015 21.9247 15.2441 21.7614 15.4607 21.5666C15.3574 21.8302 15.262 22.1037 15.1725 22.3831C15.1566 22.4303 15.1427 22.4756 15.1288 22.5228C14.5841 22.751 13.8665 22.8966 13.5921 22.33C13.4589 22.0545 13.3834 21.785 13.286 21.4367C12.3914 20.5199 13.7333 19.304 14.4628 18.8692ZM17.1485 31.7502C17.0988 31.9509 17.0431 32.1477 16.9238 32.3031C16.3672 33.0409 14.9479 31.9568 14.5384 31.5436C14.0891 31.0911 13.7889 30.554 13.7174 30.0503C13.6657 29.6824 13.7154 29.6745 13.9738 29.4148C14.3237 29.0646 14.6715 28.7144 15.0214 28.3662C15.097 28.1635 15.1745 27.9628 15.25 27.7602C15.6635 29.1748 16.3672 30.5638 17.1465 31.7306C17.1485 31.7365 17.1485 31.7443 17.1485 31.7502ZM32.1391 33.9282C31.7256 33.8928 31.493 33.8554 31.3658 33.763C32.0159 33.2908 33.1211 31.341 33.3358 30.6681C33.5644 29.9579 33.8129 29.3401 33.9978 28.6849C34.0833 28.9584 34.1508 29.2299 34.2741 29.5211C34.4808 30.0071 34.5822 30.3081 34.5981 30.8295C34.614 31.3803 34.6299 31.9312 34.6458 32.4802C34.8247 32.7891 34.8526 32.854 34.8208 33.2062C34.7572 33.9263 34.5146 33.9735 33.8765 33.9617C33.5863 33.9577 32.4313 33.9518 32.1391 33.9282ZM34.4371 26.9299C33.5187 26.6427 32.7832 26.3082 31.9304 25.6845C32.5367 26.3889 32.9482 26.7804 33.793 27.1306C33.6698 28.3721 33.2344 29.2771 32.8627 30.4655C32.6937 31.0026 31.3658 33.155 30.9981 33.3655C30.7357 33.5151 29.0917 34.8864 28.7836 35.0654C28.553 35.3684 28.3502 35.7855 28.0043 35.9685C26.9487 36.5213 26.2709 35.4628 25.7043 34.5696C25.4459 34.1623 24.7283 32.9917 25.3544 32.6631C25.9468 32.3523 26.2768 32.1319 26.8811 31.7384C26.9706 31.8978 27.1217 32.0532 27.2211 32.2126C27.1992 32.0375 27.1773 31.8624 27.1555 31.6892C27.1157 31.3725 27.1177 31.1147 27.1435 30.796C27.1674 30.4871 27.1932 30.1782 27.2171 29.8713C27.1257 30.1841 26.9448 30.4989 26.8533 30.8117C26.8175 30.9377 26.7877 31.038 26.7698 31.1324C25.4161 31.4059 24.0703 31.4236 22.7165 31.1836C22.631 30.6878 22.5257 30.1704 22.4362 29.7985C22.4104 30.2136 22.4263 31.3626 22.4243 32.004C22.4223 32.5018 22.4004 32.673 22.142 33.096C21.8995 33.4934 21.7961 33.5819 21.4562 34.2529C21.484 34.6759 21.484 34.9552 21.3707 35.3566C21.1819 36.0236 19.2775 35.5061 18.7745 35.3704C18.1563 35.2031 16.8761 34.9533 17.1982 34.1368C17.4804 33.4186 17.6613 32.6612 17.7985 31.6558C16.6654 30.0405 15.6098 27.8251 15.4091 25.8616C15.252 24.3368 15.3454 23.4003 15.6794 22.4677C16.2082 20.9901 16.9457 19.7132 18.1305 18.6823C19.7287 17.2933 21.2236 16.7365 23.5634 16.3843C23.0008 17.008 22.4442 17.6671 21.8379 18.3734C21.2236 19.0896 20.8579 19.8116 20.4682 20.5947C19.9295 21.6748 19.9414 22.086 20.6551 23.0363C21.2713 23.8548 21.6033 24.2227 21.8717 25.0215C21.649 25.474 21.5695 25.8577 21.494 26.4754C22.2474 27.29 22.808 27.8487 23.5395 28.0219C24.2571 28.1911 24.8575 28.1576 25.4996 27.833C26.9249 27.1109 28.2448 26.1803 29.853 26.141C30.5965 24.3309 30.523 22.8179 30.1651 21.0649C29.9206 19.8687 29.8232 18.7354 29.7477 17.5156C29.4455 18.7728 29.3899 19.8765 29.6125 21.1279C29.8829 22.6369 30.0916 24.3014 29.3421 25.6275C27.887 25.7376 26.6406 26.6132 25.3306 27.286C24.8038 27.5556 24.2551 27.5831 23.6707 27.4238C23.13 27.2762 22.7642 26.9221 22.1798 26.2571C22.1699 25.5881 22.3229 25.2792 22.633 24.6752C23.132 23.7033 23.6806 22.7982 24.285 21.842C23.5455 22.7254 22.8457 23.4632 22.2633 24.3506C22.0406 23.7229 21.7226 23.4042 21.1958 22.6999C20.6809 22.0112 20.6273 21.7083 21.0129 20.9095C21.4005 20.1067 21.7285 19.4024 22.3865 18.7C23.5236 17.4841 24.5653 16.1305 25.8097 14.9343C26.4856 14.285 26.7599 14.3066 27.6544 14.1728C28.4635 14.0509 29.2547 13.8974 30.0797 13.7085C29.2805 13.7813 28.5092 13.8089 27.732 13.8285C27.724 13.8285 27.7161 13.8285 27.7081 13.8285C28.4734 12.8625 28.9167 12.3234 30.1592 11.7883C33.2185 10.474 35.1607 10.3304 37.564 12.3293C38.1863 12.8468 38.7309 13.3504 39.3631 13.7971C39.1345 13.8167 38.9377 13.8561 38.6753 13.9584C38.9933 13.8994 39.3591 13.9584 39.6891 14.0174C39.7825 14.0764 39.876 14.1355 39.9734 14.1925C40.4187 14.4522 40.6711 14.5958 40.9733 15.011C41.2913 15.4497 41.5577 15.8885 41.7923 16.3725C41.6392 16.3174 41.51 16.2721 41.3947 16.2387C41.3112 16.2013 41.2178 16.1757 41.1204 16.1659C40.9276 16.1482 40.7427 16.1954 40.5896 16.2879C40.5836 16.2898 40.5777 16.2938 40.5717 16.2957C40.3252 16.4138 39.9435 16.5495 39.6871 16.5909C39.8183 16.6361 40.1066 16.6519 40.2417 16.5987C40.2596 16.5909 40.2775 16.5869 40.2974 16.581C40.2358 16.6853 40.196 16.8014 40.1841 16.9293C40.1682 17.0965 40.202 17.2578 40.2755 17.3995V17.4015C40.2815 17.4172 40.2914 17.4329 40.2994 17.4467C40.2596 17.3739 40.2318 17.2873 40.2397 17.2126C40.2576 17.0217 40.4226 16.8821 40.6155 16.8998C40.8083 16.9175 40.9494 17.0886 40.9315 17.2795C40.9276 17.3208 40.9156 17.3582 40.8997 17.3936C40.7228 17.4231 40.5479 17.4743 40.365 17.5412C40.2477 17.5844 40.1284 17.6317 40.0052 17.6848C40.5757 17.5982 41.0886 17.5844 41.6452 17.6572C41.681 17.8304 41.7187 18.0153 41.7525 18.2022C41.6829 18.2081 41.6154 18.2121 41.5458 18.218C41.5398 18.218 41.5339 18.218 41.5299 18.2199C41.2675 18.0114 40.9733 18.0468 40.5717 18.1373C39.3531 18.4127 39.6394 19.0896 39.0788 20.1087C39.6613 19.4043 39.6175 18.6685 40.5658 18.4462C40.7864 18.395 40.9375 18.3301 41.0866 18.3518C40.8182 18.4855 40.5836 18.7079 40.4922 18.9656C40.2318 19.6936 40.3928 20.3055 40.1066 20.9862C40.4604 20.3782 40.4823 19.786 40.7983 19.1466C40.9116 18.9164 41.3351 18.5485 41.5935 18.5446C41.6651 18.5426 41.7366 18.5406 41.8062 18.5406C41.8678 18.9459 41.9076 19.3473 41.8817 19.6798C41.838 20.2877 41.679 21.1888 41.5816 21.5351C41.9016 21.1259 42.0487 20.2622 42.1899 19.6542C42.337 19.0207 42.2992 18.2593 42.172 17.5785C41.995 16.644 42.9671 16.7955 43.5317 16.3567C43.9472 16.0321 44.2314 15.5166 44.6131 15.1507C44.9908 14.7867 45.5852 15.3218 45.7323 15.676C46.3763 17.2165 46.6686 19.6404 46.4996 21.1947C46.3088 22.9379 45.4579 24.8405 43.9054 25.6983C41.9255 26.7922 39.5917 26.1233 37.6237 25.4681C37.2042 25.3284 36.912 25.1238 36.5423 24.8936C36.6437 25.3422 36.6894 25.8163 36.5542 26.263C36.3415 26.9732 35.9996 28.134 36.9736 28.3485C37.3434 28.4291 37.5124 28.4173 38.0352 28.1517C37.6118 28.2462 37.3991 28.2226 37.1068 28.1694C36.8424 28.1222 36.7033 27.955 36.6297 27.7602C36.7212 27.8251 36.8723 27.8625 37.1287 27.9235C37.8503 28.0947 38.5381 27.7523 38.6733 27.2565C38.7508 26.9673 38.7389 26.8158 38.9039 26.4204C39.053 26.4656 39.208 26.5069 39.3651 26.5463C39.2756 26.8355 39.1862 27.1227 39.0967 27.412C38.8641 28.1616 37.9616 28.7656 37.1625 28.7498C36.425 28.7361 35.9578 28.2796 35.4489 27.831C35.111 27.5202 34.7731 27.2231 34.4371 26.9299ZM24.4321 33.5819L24.5156 33.5564C24.4857 33.5642 24.4579 33.5741 24.4321 33.5819ZM60.544 30.1074H60.54L59.5143 34.67H55.8864L56.9042 30.1074H56.9022L57.7331 26.3908C57.7908 26.1331 57.7729 25.8911 57.6934 25.6825C57.5363 25.2713 57.1447 24.992 56.6279 24.992H51.3421L51.034 26.3397C51.03 26.3574 51.03 26.3731 51.026 26.3908V26.3928L50.207 30.0562H50.201L49.1673 34.668H45.5454L46.5831 30.0562H46.5712L46.7342 29.3322L47.7877 24.6241C47.8076 24.5335 47.8335 24.443 47.8613 24.3545L47.913 24.142H47.8951L49.3622 17.6002H52.99L52.008 21.9778H59.6932C60.2955 21.9778 60.8064 22.1805 61.1801 22.5189C61.6612 22.9517 61.9117 23.6088 61.8202 24.3565C61.8103 24.445 61.7944 24.5355 61.7745 24.626L60.55 30.1035H60.544V30.1074ZM75.3558 33.153L75.0158 34.666H62.9335C61.4644 34.666 60.5281 33.4757 60.8521 32.0217L61.3392 29.8457H61.3412L61.4346 29.4266C61.7606 27.9727 63.2296 26.7804 64.6987 26.7824L73.1532 26.7863L73.2784 26.2315C73.4116 25.5074 72.9484 24.9192 72.2228 24.8897H62.4365L63.1104 21.8814L75.2564 21.8853C76.6956 21.9129 77.606 23.0914 77.284 24.5296L77.0554 25.5507H77.0574L76.7791 26.7902H76.7811L75.3558 33.155V33.153ZM89.7639 34.668L78.4569 34.67C76.9878 34.67 76.0495 33.4796 76.3755 32.0257L78.0553 24.5276C78.2183 23.7997 78.6676 23.1386 79.26 22.6585C79.8504 22.1785 80.5859 21.8814 81.3194 21.8814L88.9966 21.8853L89.9588 17.6021H93.5807L89.7639 34.668ZM102.63 34.7683H93.2109C91.7419 34.7683 90.8056 33.578 91.1296 32.1241L92.8074 24.626C93.1334 23.1721 94.6025 21.9817 96.0715 21.9817H105.49C106.959 21.9817 107.895 23.1721 107.571 24.626L105.894 32.1241C105.57 33.578 104.101 34.7683 102.63 34.7683ZM118.157 34.7683H108.738C107.269 34.7683 106.333 33.578 106.657 32.1241L108.335 24.626C108.661 23.1721 110.13 21.9817 111.599 21.9817H121.018C122.487 21.9817 123.423 23.1721 123.099 24.626L121.421 32.1241C121.095 33.578 119.626 34.7683 118.157 34.7683ZM137.847 24.626L136.169 32.1241C135.843 33.578 134.374 34.7703 132.905 34.7683L125.228 34.7644L124.266 39.0456H120.644L122.103 32.5038L124.461 21.9817H124.463V21.9798H135.762C136.221 21.9798 136.628 22.0958 136.96 22.3024C137.698 22.749 138.072 23.6246 137.847 24.626Z" fill="currentColor"/>
</svg>
