<svg width="100" height="100" viewBox="0 0 100 100" fill="none" xmlns="http://www.w3.org/2000/svg">
<path d="M57.5521 29.8511H42.4327C35.4775 29.8511 29.8357 35.4929 29.8357 42.4481V57.5675C29.8357 64.5227 35.4775 70.1645 42.4327 70.1645H57.5521C64.5073 70.1645 70.1491 64.5227 70.1491 57.5675V42.4481C70.1491 35.4929 64.5073 29.8511 57.5521 29.8511ZM66.373 57.5526C66.373 62.4182 62.4178 66.3735 57.5521 66.3735H42.4327C37.567 66.3735 33.6118 62.4182 33.6118 57.5526V42.4481C33.6118 37.5824 37.567 33.6272 42.4327 33.6272H57.5521C62.4178 33.6272 66.373 37.5824 66.373 42.4481V57.5526Z" fill="currentColor"/>
<path d="M49.9999 39.9258C44.4328 39.9258 39.9253 44.4332 39.9253 50.0004C39.9253 55.5676 44.4328 60.075 49.9999 60.075C55.5671 60.075 60.0745 55.5676 60.0745 50.0004C60.0745 44.4332 55.5671 39.9258 49.9999 39.9258ZM49.9999 56.2989C46.5223 56.2989 43.7014 53.478 43.7014 50.0004C43.7014 46.5228 46.5223 43.7019 49.9999 43.7019C53.4775 43.7019 56.2984 46.5228 56.2984 50.0004C56.2984 53.478 53.4775 56.2989 49.9999 56.2989Z" fill="currentColor"/>
<path d="M60.8357 40.5074C61.5776 40.5074 62.179 39.906 62.179 39.1641C62.179 38.4222 61.5776 37.8208 60.8357 37.8208C60.0938 37.8208 59.4924 38.4222 59.4924 39.1641C59.4924 39.906 60.0938 40.5074 60.8357 40.5074Z" fill="currentColor"/>
</svg>
