<svg width="100" height="100" viewBox="0 0 100 100" fill="none" xmlns="http://www.w3.org/2000/svg">
<path d="M34.7317 30.7461C31.7764 30.7461 29.8511 32.6864 29.8511 35.2386C29.8511 37.7312 31.7317 39.7312 34.6272 39.7312H34.6869C37.7018 39.7312 39.5675 37.7312 39.5675 35.2386C39.5078 32.6864 37.6869 30.7461 34.7317 30.7461Z" fill="currentColor"/>
<path d="M30.3584 43.2681H39.0002V69.2531H30.3584V43.2681Z" fill="currentColor"/>
<path d="M60.2092 42.6567C55.5525 42.6567 52.4182 47.0299 52.4182 47.0299V43.2538H43.7764V69.2538H52.4182V54.7463C52.4182 53.9702 52.4779 53.1941 52.7017 52.6418C53.3286 51.0896 54.7465 49.4776 57.1346 49.4776C60.254 49.4776 61.5077 51.8657 61.5077 55.3582V69.2687H70.1495V54.3732C70.1495 46.3732 65.8808 42.6567 60.2092 42.6567Z" fill="currentColor"/>
</svg>
