<svg width="150" height="50" viewBox="0 0 150 50" fill="none" xmlns="http://www.w3.org/2000/svg">
<path fill-rule="evenodd" clip-rule="evenodd" d="M85.3613 33.9993C85.3527 34.2609 84.7558 34.612 84.5618 34.7416C83.6632 35.3319 82.3744 35.721 81.5318 34.849C80.7172 34.0038 80.9456 32.4274 81.8249 31.8684C82.2667 31.5911 82.8399 31.4614 83.439 31.4078C83.9196 31.3653 84.9023 31.2758 85.3506 31.3295L85.3613 33.9993ZM79.2884 25.8558L79.6397 27.2935C80.2323 27.1437 80.5879 26.9268 81.4801 26.7457C82.174 26.6071 82.9305 26.5266 83.6739 26.6249C84.4239 26.7256 84.842 27.0162 85.0984 27.5931C85.2299 27.8838 85.2989 28.2282 85.3355 28.5859L85.3269 29.7486C85.2773 29.7755 83.0856 29.9186 82.7731 29.9611C80.5858 30.2517 78.3833 31.486 78.726 34.3369C78.9393 36.1123 79.8595 36.9195 81.5879 37.1364C82.5361 37.2549 83.161 37.1431 83.9433 36.7965C84.2752 36.6512 84.5834 36.4835 84.8614 36.3001C85.2364 36.0587 85.5639 35.7121 85.6372 35.6674L85.8699 36.886H87.6457C87.678 36.5126 87.6522 31.9533 87.6522 31.4458C87.6522 30.5357 87.6522 29.6279 87.6522 28.7178C87.6522 27.8369 87.5875 27.1415 87.191 26.4885C85.9885 24.503 83.3744 24.5969 81.215 25.1358C80.7301 25.2587 79.5837 25.5874 79.2884 25.8558Z" fill="currentColor"/>
<path fill-rule="evenodd" clip-rule="evenodd" d="M106.696 34.1513C106.543 34.2408 106.382 34.4018 106.207 34.5337C105.707 34.9071 105.084 35.2537 104.427 35.3387C102.47 35.5891 102.011 33.4984 102.638 32.4184C103.311 31.2669 105.44 31.3295 106.703 31.325L106.696 34.1513ZM100.634 25.8558C100.647 26.0794 100.914 27.1236 101.003 27.2868C101.332 27.2175 102.056 26.9 102.849 26.739C104 26.502 105.892 26.3052 106.446 27.5909C106.673 28.1164 106.836 29.572 106.677 29.7397C106.578 29.8157 105.617 29.8224 105.397 29.8381C104.127 29.9208 103.076 30.0214 101.975 30.6229C100.807 31.2579 99.8346 32.3737 100.076 34.3414C100.296 36.128 101.216 36.9106 102.94 37.1319C104.205 37.2974 105.201 36.9575 106.216 36.2957C106.657 36.0072 106.843 35.7568 106.994 35.6539L107.216 36.8793L109 36.8815V28.7201C109 27.7988 108.931 27.1593 108.528 26.4707C107.364 24.494 104.679 24.626 102.569 25.138C102.072 25.2565 100.942 25.583 100.634 25.8558Z" fill="currentColor"/>
<path fill-rule="evenodd" clip-rule="evenodd" d="M92.6044 36.9083H95.4491C95.5439 36.8837 95.7443 36.4074 95.7982 36.2934C95.9059 36.0631 95.99 35.8574 96.0913 35.6293C96.2831 35.1978 96.4598 34.7148 96.6257 34.2542C97.3132 32.3446 97.867 30.2629 98.3411 28.2706C98.4575 27.7809 99.0049 25.4108 99.0049 25.0731L96.8779 25.0709C96.4124 25.0664 96.602 25.0038 96.477 25.9876C96.3477 27.0073 96.143 28.0269 95.9059 28.9861C95.7314 29.6882 94.5267 34.1468 94.2853 34.433L93.6776 32.045C93.4492 31.2512 93.2401 30.4843 93.0009 29.7039L91.9514 26.2403C91.8329 25.8512 91.7187 25.4331 91.5786 25.0754L89.0637 25.0686C89.0744 25.299 90.7144 30.6229 90.8265 30.9985C91.1282 32.0114 91.4191 32.9416 91.7144 33.9389C92.0031 34.9227 92.3415 35.9356 92.6044 36.9083Z" fill="currentColor"/>
<path fill-rule="evenodd" clip-rule="evenodd" d="M74.5258 35.0681C74.5258 36.9731 73.9267 39.1443 72.0841 39.7704C72.1919 40.0029 72.9849 40.8459 73.1961 41.1746C73.8211 41.0605 74.737 40.4658 75.0818 40.1281C75.6098 39.6116 75.9352 39.2091 76.3252 38.3796C77.1054 36.7294 76.9804 34.9808 76.9804 33.002C76.9804 28.957 76.9998 24.9099 76.9804 20.8649C76.6938 20.8113 75.0064 20.8471 74.5236 20.8471L74.5258 35.0681Z" fill="currentColor"/>
<path fill-rule="evenodd" clip-rule="evenodd" d="M54.4084 26.5891L53.6347 25.422C53.3804 25.0396 53.1326 24.6125 52.8956 24.1877C52.4624 23.4051 51.9409 22.4101 51.7038 21.424C51.2663 19.6173 52.3439 18.4948 53.2942 17.312C53.4386 17.1308 53.6046 16.9631 53.7619 16.7932C54.7554 15.7065 56.1173 14.4051 57.1776 13.3341C58.2552 12.2407 58.9038 11.031 59.031 9.2601C59.0978 8.33663 58.9275 6.35776 58.2983 6C58.4857 7.38632 58.5288 8.32992 57.9879 9.72295C57.3608 11.3418 56.3393 12.31 55.1562 13.267C54.1886 14.0496 52.6046 15.4583 51.7685 16.2767C51.2275 16.8089 50.3138 17.7592 49.9345 18.6893C49.3742 20.0622 49.9302 20.9611 50.5293 21.9204C50.8138 22.3787 51.1047 22.7678 51.4107 23.177C51.7663 23.6555 52.0831 23.9842 52.3676 24.3598C52.6671 24.7556 53.0378 25.1201 53.3654 25.498C53.5658 25.7305 54.2058 26.4416 54.4084 26.5891Z" fill="currentColor"/>
<path fill-rule="evenodd" clip-rule="evenodd" d="M65.8906 38.4892C66.2699 39.1242 65.8949 39.3925 65.3777 39.6452C63.0739 40.7654 55.2834 40.9734 52.8504 41.0114C50.3699 41.0494 47.8701 40.9465 45.4758 40.5105C45.0879 40.4412 43.3811 40.1595 43.3014 39.6899C43.2497 39.3947 43.5514 39.1711 43.7065 39.0705C44.2582 38.715 45.2668 38.469 45.9629 38.3393C46.1633 38.3036 46.6503 38.2477 46.799 38.1851C45.6396 38.0084 41.9609 38.6524 41.155 39.8397C40.6485 40.5865 41.4976 40.9331 42.0644 41.1254C44.1849 41.8432 48.5963 41.9885 50.9238 42.0243C54.402 42.0735 62.7722 42.0377 65.8389 39.8509C66.0177 39.7257 66.369 39.4574 66.4056 39.2002C66.4466 38.876 66.0781 38.5719 65.8906 38.4892Z" fill="currentColor"/>
<path fill-rule="evenodd" clip-rule="evenodd" d="M55.8545 28.0582C56.2251 27.9263 57.3156 26.9983 57.6087 26.6875C57.9944 26.2716 58.6517 25.5047 58.7078 24.617C58.7573 23.812 58.2229 22.7611 57.8953 22.2468C56.8609 20.619 56.0333 19.6866 57.4341 17.8821C57.9039 17.2807 58.4104 16.8111 59.0051 16.3013C59.7163 15.6909 60.88 14.8591 61.714 14.3157L62.6623 13.6829C62.1601 13.7522 60.8283 14.3045 60.3046 14.508C59.5999 14.783 58.7853 15.2034 58.169 15.5724C56.0549 16.8402 53.9753 18.8257 54.8265 21.5693C55.4019 23.4252 57.0785 24.5387 56.9579 25.9295C56.8803 26.7792 56.0915 27.6311 55.8545 28.0582Z" fill="currentColor"/>
<path fill-rule="evenodd" clip-rule="evenodd" d="M60.268 37.1364C59.6193 36.8815 59.1301 36.5841 58.5483 36.2263C58.2121 36.0184 58.3414 36.034 57.9104 36.1458C56.1519 36.5953 53.2986 36.602 51.4517 36.5438C50.9776 36.5282 49.6415 36.4857 49.3721 36.0206C49.1997 35.7277 49.4346 35.5153 49.5251 35.3476C48.314 35.6002 47.0813 36.6444 48.7665 37.512C50.6608 38.4869 54.6412 38.4981 56.7143 38.1157C57.3027 38.0084 59.9857 37.3756 60.268 37.1364Z" fill="currentColor"/>
<path fill-rule="evenodd" clip-rule="evenodd" d="M60.8283 33.0378C60.3283 32.9081 59.8779 32.5816 59.5719 32.3044C59.3047 32.0674 59.3952 32.1255 58.8198 32.2261C56.7488 32.5839 50.5853 33.21 48.8204 32.4542C48.5919 32.3558 48.3269 32.2082 48.3118 31.9287C48.2924 31.5978 48.5639 31.4189 48.6781 31.2356C47.2579 31.4189 45.896 32.8388 47.7967 33.5163C49.941 34.2788 54.5636 34.3034 56.8414 34.006C57.5914 33.9076 60.255 33.3687 60.8283 33.0378Z" fill="currentColor"/>
<path fill-rule="evenodd" clip-rule="evenodd" d="M62.2549 28.2102C61.9856 28.2214 61.6235 28.3086 61.352 28.3534C61.0352 28.4025 60.7356 28.4495 60.4188 28.4942C58.5203 28.7693 56.4169 28.9929 54.5183 29.1069C53.0357 29.1963 47.4412 29.3886 46.6072 28.5814C46.5468 28.2192 46.9476 27.9911 47.1933 27.8503C48.1523 27.3158 49.1717 27.137 50.1177 26.8306C48.8118 26.7032 45.5318 27.6781 44.3444 28.4473C43.0621 29.2768 45.1999 29.6078 45.9994 29.724C50.6823 30.4015 55.0614 30.0371 59.6904 29.3551C60.4447 29.2433 60.6063 29.288 61.1214 28.9504C61.4748 28.7156 61.9403 28.4696 62.2549 28.2102Z" fill="currentColor"/>
<path fill-rule="evenodd" clip-rule="evenodd" d="M46.0706 42.8427C47.3787 43.4129 50.2255 43.7594 51.7039 43.8847C53.7813 44.0613 56.0614 44.0188 58.1388 43.8668C60.8262 43.6678 64.0156 43.3502 66.3797 42.1026C66.9422 41.8052 67.9551 41.0941 68.0542 40.4121C67.8839 40.4926 67.7396 40.6514 67.5801 40.7609C63.4079 43.7415 53.874 43.4576 48.9519 43.0931L46.0706 42.8427Z" fill="currentColor"/>
<path fill-rule="evenodd" clip-rule="evenodd" d="M63.1989 27.0498C64.2204 26.7188 65.3841 26.938 66.0306 27.535C66.731 28.1812 66.7396 29.4087 66.2332 30.3613C65.5586 31.6291 64.1406 32.7605 62.9683 33.5252C62.7678 33.6572 62.5717 33.7555 62.3972 33.8897C63.1536 33.807 64.9488 32.9662 65.6319 32.528C66.5026 31.969 67.4766 31.1551 67.8775 30.0974C68.4507 28.5971 67.6167 27.4545 66.7288 26.9111C66.2181 26.6003 65.6017 26.4147 64.8841 26.446C64.3367 26.4706 63.4467 26.6965 63.1989 27.0498Z" fill="currentColor"/>
</svg>
