<svg width="151" height="50" viewBox="0 0 151 50" fill="none" xmlns="http://www.w3.org/2000/svg">
<path d="M98.4679 25.6948C98.6227 25.9193 98.7794 26.1511 98.9379 26.3792C99.7895 27.6088 100.652 28.8311 101.483 30.0733C101.788 30.5278 102.182 30.7814 102.713 30.861C102.763 30.8683 102.814 30.8773 102.864 30.8791C103.026 30.8846 103.083 30.9588 103.082 31.1236C103.08 31.5835 103.089 31.5835 102.617 31.5835C101.518 31.5835 100.422 31.5745 99.3232 31.5908C99.0614 31.5944 98.9343 31.5057 98.8089 31.2884C98.1159 30.0661 97.2975 28.9216 96.4864 27.7736C96.4514 27.7247 96.4219 27.6704 96.3814 27.6595C95.9298 27.8659 95.8137 28.2136 95.8561 28.6681C95.8948 29.0937 95.856 29.5265 95.8671 29.9556C95.8819 30.5604 96.0478 30.7469 96.6505 30.8719C96.68 30.8773 96.7132 30.8773 96.739 30.89C96.8551 30.9461 97.0523 30.8647 97.0947 30.9914C97.1463 31.1435 97.1113 31.3264 97.1095 31.4966C97.1095 31.5582 97.0634 31.5799 97.0081 31.5817C96.9362 31.5835 96.8661 31.5835 96.7943 31.5835C95.1685 31.5835 93.5409 31.5835 91.9152 31.5835C91.8544 31.5835 91.7936 31.5817 91.7327 31.5835C91.659 31.5854 91.6185 31.5564 91.6166 31.4821C91.6166 31.4622 91.6166 31.4423 91.6148 31.4224C91.5871 30.9661 91.5871 30.9661 92.035 30.8846C92.1253 30.8683 92.2157 30.8538 92.3041 30.8339C92.7484 30.7325 92.9198 30.5423 92.964 30.0969C92.9732 30.0081 92.9714 29.9176 92.9714 29.8271C92.9714 26.6907 92.9695 23.5544 92.9732 20.4162C92.9732 20.1518 92.9253 19.9019 92.8221 19.6593C92.682 19.3279 92.4332 19.1305 92.0774 19.0599C91.8876 19.0219 91.6977 18.9911 91.5079 18.9567C91.4673 18.9494 91.4102 18.9621 91.3899 18.9404C91.2443 18.7901 91.3549 18.6036 91.3254 18.437C91.3106 18.3519 91.3586 18.3084 91.4452 18.3012C91.4857 18.2975 91.5263 18.2957 91.5668 18.2921C92.8663 18.2269 94.1658 18.1635 95.4653 18.1002C95.5464 18.0965 95.6312 18.0839 95.7067 18.1038C95.7989 18.1273 95.8579 18.2016 95.8597 18.3048C95.8616 18.3845 95.8616 18.4641 95.8616 18.5438C95.8616 21.3017 95.8616 24.0578 95.8634 26.8157C95.8634 26.9207 95.8413 27.0293 95.8782 27.1162C95.9372 27.147 95.9574 27.1162 95.9777 27.0981C96.8993 26.267 97.8302 25.4467 98.6946 24.5576C98.8218 24.4272 98.9453 24.3004 98.9674 24.1049C98.9914 23.8912 98.9619 23.8115 98.7536 23.7391C98.514 23.6558 98.2688 23.587 98.0163 23.5562C97.8873 23.5399 97.8504 23.4874 97.8449 23.3642C97.8246 22.9043 97.8209 22.9043 98.2744 22.9043C99.5149 22.9043 100.755 22.9025 101.996 22.9061C102.348 22.9061 102.329 22.8373 102.331 23.2465C102.331 23.2972 102.329 23.3461 102.331 23.3968C102.335 23.491 102.298 23.5453 102.199 23.5634C102.11 23.5797 102.024 23.6141 101.935 23.6358C100.822 23.9274 99.8762 24.5177 98.9932 25.2221C98.8273 25.3543 98.667 25.4919 98.5048 25.6278C98.4974 25.6441 98.49 25.664 98.4679 25.6948Z" fill="currentColor"/>
<path d="M83.5062 24.2496C83.7311 24.0486 83.9062 23.9001 84.0721 23.7444C84.6048 23.2428 85.2186 22.8806 85.9503 22.7557C86.5457 22.6542 87.1466 22.6506 87.7346 22.8082C88.7944 23.0907 89.3493 23.8186 89.5557 24.8417C89.611 25.117 89.6239 25.3958 89.6239 25.6765C89.6221 26.9459 89.6239 28.2135 89.6239 29.4829C89.6239 29.5825 89.6258 29.682 89.6239 29.7835C89.6147 30.4571 89.7253 30.6653 90.5013 30.8482C90.9086 30.9442 90.9105 30.9369 90.9031 31.3552C90.8994 31.587 90.8994 31.5888 90.6432 31.5888C89.0562 31.5888 87.471 31.5888 85.884 31.5888C85.6333 31.5888 85.6333 31.587 85.6296 31.3498C85.6222 30.9623 85.6222 30.9605 86.0075 30.8881C86.0867 30.8736 86.1678 30.8609 86.2471 30.8446C86.4978 30.7957 86.6286 30.6273 86.6876 30.4009C86.73 30.2362 86.7392 30.0659 86.7392 29.8957C86.7374 28.5974 86.7374 27.299 86.7392 25.9988C86.7392 25.729 86.719 25.4592 86.6544 25.1966C86.4277 24.2568 85.8121 24.025 84.9605 24.1953C84.3946 24.3093 83.9486 24.6407 83.5855 25.0826C83.4988 25.1876 83.4638 25.3017 83.4638 25.4411C83.4675 26.9187 83.4656 28.3982 83.4675 29.8776C83.4675 29.9573 83.4712 30.037 83.4841 30.1166C83.5504 30.5531 83.7513 30.7685 84.1919 30.8663C84.3283 30.8971 84.5145 30.8736 84.5808 30.984C84.6435 31.0891 84.5974 31.2557 84.6121 31.3933C84.6287 31.5562 84.5568 31.5943 84.4039 31.5925C83.8251 31.5852 83.2445 31.5888 82.6657 31.5888C81.6077 31.5888 80.5515 31.5888 79.4935 31.5888C79.2188 31.5888 79.217 31.587 79.217 31.3408C79.217 31.2212 79.1727 31.0854 79.2409 30.9877C79.3128 30.8826 79.4658 30.9388 79.5801 30.9062C79.7257 30.8663 79.8787 30.8446 80.0262 30.812C80.2897 30.7541 80.4538 30.5911 80.522 30.3376C80.5607 30.1927 80.5847 30.046 80.5847 29.8939C80.5828 28.266 80.5847 26.6362 80.5828 25.0083C80.581 24.3274 80.2086 23.8838 79.5285 23.7389C79.4013 23.7118 79.2188 23.7444 79.1617 23.6502C79.099 23.5452 79.1451 23.3786 79.1303 23.241C79.1156 23.0997 79.1709 23.0436 79.3147 23.0381C79.6999 23.0237 80.087 22.9983 80.4722 22.9784C81.3551 22.9331 82.2399 22.8951 83.121 22.8353C83.4269 22.8154 83.5283 22.9277 83.5117 23.2102C83.4915 23.5289 83.5062 23.8494 83.5062 24.2496Z" fill="currentColor"/>
<path d="M113.89 24.2368C114.285 23.9308 114.572 23.6175 114.917 23.3677C115.462 22.9711 116.069 22.7447 116.747 22.7067C117.186 22.6814 117.623 22.6795 118.05 22.7864C119.136 23.058 119.722 23.7787 119.94 24.829C119.999 25.1151 120.008 25.403 120.008 25.6928C120.008 26.9911 120.008 28.2895 120.008 29.5896C120.008 29.6693 120.008 29.749 120.008 29.8287C120.012 30.4806 120.165 30.6707 120.815 30.8264C120.836 30.8319 120.854 30.8373 120.874 30.8427C121.005 30.8898 121.212 30.8228 121.261 30.9568C121.32 31.1162 121.282 31.3099 121.283 31.4892C121.283 31.5471 121.25 31.5797 121.189 31.5797C121.129 31.5815 121.068 31.5815 121.007 31.5815C119.442 31.5815 117.875 31.5815 116.31 31.5815C116.25 31.5815 116.189 31.5797 116.128 31.5815C116.05 31.5834 116.021 31.5417 116.019 31.4711C116.019 31.4512 116.019 31.4312 116.017 31.4113C115.991 30.955 115.988 30.9369 116.447 30.8771C116.961 30.8083 117.068 30.5548 117.114 30.1673C117.125 30.0786 117.123 29.988 117.123 29.8975C117.123 28.5883 117.123 27.2808 117.125 25.9716C117.125 25.7109 117.107 25.4501 117.044 25.1984C116.812 24.2477 116.209 24.0159 115.356 24.1898C114.795 24.3039 114.336 24.6244 113.975 25.0698C113.89 25.1749 113.848 25.2871 113.848 25.4266C113.851 26.9151 113.85 28.4036 113.851 29.892C113.851 29.9808 113.87 30.0713 113.879 30.16C113.912 30.5132 114.126 30.7142 114.452 30.821C114.491 30.8337 114.528 30.85 114.569 30.8572C114.707 30.8826 114.889 30.8663 114.961 30.9713C115.048 31.0981 114.98 31.2809 114.991 31.4403C114.998 31.5399 114.959 31.5906 114.852 31.5852C114.792 31.5815 114.731 31.5852 114.67 31.5852C113.085 31.5852 111.498 31.5852 109.912 31.5852C109.852 31.5852 109.791 31.5815 109.73 31.5852C109.638 31.5906 109.599 31.5453 109.603 31.4602C109.608 31.2918 109.583 31.1216 109.621 30.9604C109.879 30.9115 110.126 30.8626 110.375 30.8156C110.679 30.7576 110.851 30.5747 110.919 30.2814C110.95 30.1438 110.965 30.0061 110.965 29.8667C110.963 28.2478 110.965 26.6308 110.963 25.0119C110.963 24.3274 110.594 23.8856 109.912 23.7407C109.785 23.7135 109.654 23.6954 109.511 23.6719C109.511 23.5143 109.518 23.3658 109.509 23.2174C109.5 23.0815 109.57 23.0471 109.688 23.0417C110.073 23.0236 110.46 23.0019 110.845 22.9801C111.728 22.9331 112.611 22.886 113.494 22.8425C113.85 22.8244 113.885 22.8624 113.887 23.2047C113.89 23.5288 113.89 23.8548 113.89 24.2368Z" fill="currentColor"/>
<path d="M62.0454 31.8985C61.6381 31.8985 61.2326 31.9003 60.8252 31.9003C60.4658 31.8333 60.1045 31.7844 59.7598 31.6595C59.4041 31.5309 59.0723 31.3607 58.7792 31.1253C57.8723 30.3955 57.6124 29.4466 57.8557 28.3565C57.9811 27.8006 58.4216 27.1723 59.3561 27.1306C59.8151 27.1107 60.2483 27.1777 60.6151 27.4765C61.2713 28.0089 61.3616 28.9269 60.8215 29.6277C60.593 29.9229 60.3275 30.1837 60.0363 30.4227C59.817 30.602 59.8188 30.6834 60.0381 30.8609C60.1745 30.9714 60.3312 31.0366 60.5082 31.0583C61.3432 31.1615 62.2076 30.85 62.6519 29.9627C62.9228 29.4213 63.0039 28.84 63.0131 28.2479C63.0242 27.538 63.0168 26.83 63.0168 26.1202C63.0168 24.552 63.0168 22.9838 63.0168 21.4157C63.0168 21.336 63.0168 21.2563 63.0168 21.1766C63.0131 20.5302 62.8896 20.3545 62.2685 20.1445C61.9901 20.0503 61.7007 19.9942 61.4095 19.9489C61.1791 19.9127 61.181 19.9072 61.1754 19.6917C61.1662 19.2409 61.1662 19.2409 61.6362 19.2409C63.5993 19.2409 65.5605 19.2409 67.5235 19.2409C67.5954 19.2409 67.6655 19.2445 67.7374 19.2409C67.8277 19.2372 67.8682 19.2789 67.8645 19.3658C67.8645 19.3857 67.8645 19.4056 67.8645 19.4256C67.8885 19.9453 67.8885 19.9416 67.3687 20.0213C67.1586 20.0539 66.9503 20.0992 66.742 20.1445C66.5153 20.1952 66.3715 20.3255 66.3033 20.5537C66.2406 20.7674 66.2204 20.9829 66.2204 21.2038C66.2204 23.3514 66.2185 25.4991 66.2222 27.6467C66.2222 28.2425 66.1411 28.8183 65.9052 29.3724C65.3909 30.5784 64.4306 31.2683 63.203 31.654C62.8251 31.7699 62.4325 31.8243 62.0454 31.8985Z" fill="currentColor"/>
<path d="M77.8235 29.0647C78.0244 29.2114 78.2271 29.3581 78.4446 29.5174C78.1516 30.0009 77.8087 30.4319 77.3719 30.7759C76.4539 31.4948 75.4125 31.8896 74.2273 31.8896C73.326 31.8896 72.4486 31.7864 71.6136 31.4188C70.3381 30.8574 69.5492 29.9031 69.2211 28.5776C68.8653 27.1416 69.0921 25.8088 69.9639 24.5902C70.598 23.7065 71.4809 23.1904 72.5223 22.9224C73.5969 22.6453 74.6808 22.6743 75.7425 22.984C77.2189 23.4149 78.1036 24.5358 78.2087 26.0605C78.2271 26.3195 78.2142 26.5803 78.2235 26.8392C78.2271 26.9641 78.1903 27.0275 78.052 27.0148C77.982 27.0076 77.9101 27.013 77.8382 27.013C76.0908 27.013 74.3434 27.013 72.5942 27.013C72.5223 27.013 72.4523 27.0167 72.3804 27.013C72.2809 27.0094 72.2329 27.0456 72.2366 27.1507C72.2587 27.9239 72.3454 28.6844 72.7269 29.3816C73.1748 30.2001 73.914 30.5387 74.819 30.6238C76.0153 30.7343 76.889 30.1983 77.6004 29.32C77.6686 29.2367 77.711 29.1299 77.8235 29.0647ZM73.6393 26.2543C73.6393 26.2362 73.6393 26.2199 73.6393 26.2018C74.0541 26.2018 74.4706 26.1982 74.8854 26.2036C75.0273 26.2054 75.0863 26.1692 75.0734 26.0189C75.0476 25.7219 75.042 25.4213 75.0162 25.1243C74.9849 24.7658 74.8964 24.4236 74.749 24.0904C74.3822 23.2628 73.3352 23.2809 72.8615 23.835C72.6624 24.0668 72.5205 24.3312 72.4338 24.6191C72.2901 25.099 72.2329 25.5934 72.2164 26.0931C72.2127 26.2308 72.2643 26.2597 72.3896 26.2579C72.808 26.2507 73.2246 26.2543 73.6393 26.2543Z" fill="currentColor"/>
<path d="M123.324 31.1291C123.215 31.2504 123.178 31.3989 123.121 31.5347C123.071 31.6488 123.014 31.7013 122.876 31.7031C122.38 31.7122 122.375 31.7194 122.354 31.2305C122.319 30.3921 122.292 29.5537 122.26 28.7153C122.251 28.44 122.244 28.4853 122.524 28.4581C122.81 28.431 122.937 28.5396 123.055 28.7931C123.46 29.666 124.059 30.383 124.931 30.8557C125.547 31.1889 126.198 31.2758 126.876 31.1056C127.56 30.9353 127.915 30.2816 127.711 29.6134C127.628 29.3454 127.438 29.1716 127.213 29.0304C126.929 28.8511 126.614 28.7406 126.293 28.6428C125.587 28.4273 124.863 28.2571 124.194 27.9384C123.593 27.6523 123.108 27.2394 122.806 26.6437C122.277 25.597 122.581 24.2824 123.523 23.5671C124.17 23.0764 124.92 22.8518 125.724 22.774C126.786 22.6726 127.812 22.821 128.8 23.2049C128.968 23.2701 129.005 23.2158 129.056 23.0818C129.178 22.7703 129.184 22.7721 129.528 22.774C129.893 22.7758 129.858 22.7214 129.877 23.1126C129.913 23.9003 129.954 24.688 129.991 25.4757C130.002 25.7184 130 25.7184 129.753 25.722C129.394 25.7274 129.397 25.7256 129.252 25.4105C128.981 24.8256 128.583 24.3403 128.059 23.9582C127.469 23.5273 126.811 23.3951 126.098 23.5617C125.409 23.7228 125.069 24.3295 125.302 24.9578C125.401 25.2294 125.602 25.4033 125.855 25.5282C126.282 25.7401 126.734 25.8886 127.197 26.0081C127.827 26.1711 128.444 26.3648 129.018 26.6727C129.313 26.832 129.589 27.0149 129.823 27.2557C130.813 28.2807 130.673 30.4066 129.165 31.1889C127.681 31.9585 126.133 32.0852 124.531 31.6162C124.111 31.4985 123.705 31.3428 123.324 31.1291Z" fill="currentColor"/>
<path d="M107.5 26.5225C107.5 27.5999 107.5 28.6791 107.5 29.7566C107.5 29.896 107.509 30.0336 107.548 30.1713C107.621 30.4429 107.785 30.6276 108.045 30.7362C108.204 30.8032 108.366 30.8594 108.539 30.8811C108.63 30.892 108.72 30.9119 108.807 30.939C108.862 30.9572 108.893 31.4008 108.856 31.5131C108.82 31.6253 108.724 31.5837 108.652 31.5837C107.778 31.5873 106.904 31.5855 106.031 31.5855C105.188 31.5855 104.344 31.5855 103.502 31.5855C103.246 31.5855 103.246 31.5837 103.242 31.3501C103.234 30.9734 103.234 30.9734 103.622 30.8992C103.762 30.872 103.9 30.8449 104.038 30.8087C104.35 30.729 104.512 30.5171 104.562 30.2147C104.578 30.1079 104.576 29.9956 104.576 29.887C104.576 28.2608 104.576 26.6329 104.576 25.0068C104.576 24.8764 104.584 24.746 104.545 24.6193C104.453 24.3078 104.274 24.0652 103.963 23.9312C103.719 23.8261 103.465 23.7573 103.205 23.7193C103.072 23.6994 103.017 23.6505 103.023 23.5056C103.045 22.9841 102.929 23.0565 103.487 23.0258C104.582 22.966 105.677 22.9117 106.774 22.8555C106.906 22.8483 107.037 22.8411 107.17 22.8392C107.452 22.8338 107.498 22.8809 107.503 23.1688C107.503 23.2195 107.503 23.2684 107.503 23.3191C107.5 24.3875 107.5 25.4541 107.5 26.5225Z" fill="currentColor"/>
<path d="M107.557 19.7243C107.559 20.4541 107.002 21.1114 106.235 21.2762C105.601 21.4138 105.043 21.2545 104.569 20.8344C103.87 20.2151 103.909 19.1557 104.643 18.5401C105.406 17.899 106.569 17.9968 107.207 18.7592C107.441 19.038 107.555 19.3622 107.557 19.7243Z" fill="currentColor"/>
<path d="M44.7488 30.8123C44.758 30.8231 44.7599 30.8267 44.7617 30.8286C45.0972 30.9843 45.3091 31.2469 45.4529 31.5746C45.7331 32.212 45.9543 32.8675 46.1128 33.543C46.1699 33.7874 46.1626 34.0373 46.1386 34.2836C46.0962 34.6874 46.0004 35.0767 45.8271 35.4461C45.7276 35.658 45.6059 35.8536 45.4363 36.0184C45.3184 36.1325 45.1838 36.2121 45.0253 36.2574C44.5829 36.386 44.1332 36.4294 43.6742 36.4149C43.3406 36.4041 43.0106 36.3642 42.6825 36.3063C42.6235 36.2954 42.5793 36.2719 42.5388 36.2302C42.4595 36.1469 42.3913 36.0546 42.3323 35.9568C42.3139 35.9242 42.2936 35.9061 42.2512 35.9061C41.8254 35.897 41.4033 35.9115 40.9904 36.0347C40.8688 36.0709 40.7527 36.1162 40.6384 36.1705C40.6034 36.1868 40.5831 36.2085 40.5886 36.2502C40.5923 36.2846 40.5905 36.319 40.5868 36.3534C40.5775 36.4946 40.5112 36.6015 40.3895 36.6775C40.3029 36.7318 40.2071 36.7699 40.1094 36.7916C40.0301 36.8097 40.0061 36.855 39.9951 36.9274C39.9619 37.1483 39.973 37.3674 40.0061 37.5865C40.0578 37.9415 40.1591 38.2855 40.2365 38.6368C40.2771 38.8161 40.3084 38.9954 40.3232 39.1764C40.3342 39.305 40.3269 39.4318 40.3047 39.5567C40.2697 39.7505 40.161 39.8971 39.9951 40.0058C39.831 40.1126 39.6486 40.1688 39.4605 40.2122C39.3315 40.243 39.2006 40.2647 39.0698 40.2919C38.9905 40.3082 38.9905 40.3082 38.9868 40.3897C38.9795 40.607 39.0034 40.8243 39.0384 41.038C39.0495 41.1104 39.0421 41.172 39.0108 41.2372C38.9426 41.3784 38.8375 41.4871 38.7085 41.5758C38.4818 41.7297 38.2274 41.813 37.9565 41.8474C36.9316 41.9724 35.9012 42.0231 34.869 41.9905C34.1502 41.9669 33.435 41.8981 32.7346 41.7243C32.5926 41.6881 32.4507 41.6464 32.3106 41.6011C32.2553 41.583 32.2258 41.5541 32.2037 41.5015C31.9696 40.9221 31.7742 40.3299 31.5954 39.7324C31.4332 39.1946 31.2729 38.6567 31.1144 38.1171C31.0996 38.0646 31.0867 38.0338 31.0185 38.0392C30.2517 38.1099 29.5292 37.9306 28.8287 37.6427C28.4214 37.4761 28.0269 37.2787 27.6343 37.0813C27.3154 36.922 26.9929 36.7735 26.6556 36.6558C26.5302 36.6123 26.4086 36.5562 26.2924 36.4928C26.1081 36.3896 26.003 36.2375 25.9717 36.0329C25.9478 35.8789 25.9312 35.725 25.9312 35.5693C25.933 35.0695 25.8925 34.5697 25.8648 34.0717C25.8611 34.0084 25.8279 33.9721 25.7855 33.9359C24.9118 33.1736 24.1561 32.3134 23.522 31.3483C22.6797 30.0644 22.0917 28.6773 21.7581 27.1852C21.5074 26.0588 21.4134 24.918 21.4742 23.7663C21.6548 20.3131 23.24 17.0953 25.8685 14.8517C25.9736 14.7611 26.0289 14.6742 26.0325 14.533C26.0436 14.1672 26.1007 13.8068 26.2058 13.4537C26.298 13.1477 26.427 12.8598 26.6279 12.6044C26.7883 12.4034 26.9818 12.2423 27.2141 12.1282C27.2583 12.1065 27.2859 12.0829 27.3007 12.034C27.474 11.3912 27.85 10.8805 28.3698 10.464C28.7329 10.1725 29.1329 9.9389 29.5402 9.71436C29.8978 9.51698 30.2554 9.3196 30.613 9.12222C31.0056 8.90492 31.424 8.74919 31.8443 8.59346C32.3069 8.42143 32.7733 8.2657 33.2599 8.17335C33.8682 8.05565 34.4856 7.99951 35.1087 7.99951C35.9547 8.00132 36.786 8.10092 37.6007 8.3327C38.3933 8.55906 39.1066 8.92484 39.7241 9.46809C40.2126 9.89725 40.6679 10.3518 41.0863 10.8461C41.5305 11.3713 41.831 11.9688 42.0356 12.6171C42.2088 13.164 42.3249 13.7235 42.3987 14.2921C42.4355 14.58 42.465 14.868 42.4798 15.1559C42.4816 15.212 42.513 15.2428 42.548 15.2754C43.2539 15.9418 43.8733 16.6788 44.406 17.4882C45.2612 18.7884 45.8547 20.1954 46.1884 21.7092C46.4188 22.7559 46.5146 23.8134 46.4741 24.8818C46.3948 26.9661 45.8382 28.9218 44.7912 30.738C44.7764 30.7634 44.7635 30.7869 44.7488 30.8123ZM38.5629 31.4623C38.5905 31.4623 38.5961 31.4388 38.6071 31.4243C38.7417 31.2432 38.8762 31.064 39.0053 30.8811C39.3002 30.461 39.5711 30.0282 39.8329 29.5881C40.0559 29.2151 40.2753 28.8385 40.4983 28.4654C40.5315 28.4111 40.5296 28.3713 40.4909 28.3206C40.3674 28.1594 40.2255 28.0182 40.0449 27.9204C39.7352 27.7502 39.4145 27.7357 39.0864 27.8679C39.044 27.8842 39.0292 27.9077 39.0255 27.9512C39.02 28.0399 39.0163 28.1286 39.0126 28.2173C38.9979 28.5216 38.9739 28.8258 38.9481 29.13C38.9168 29.4958 38.8762 29.8598 38.8209 30.2219C38.7601 30.6221 38.6845 31.0205 38.5666 31.4098C38.561 31.4261 38.5426 31.446 38.5647 31.4641C38.5574 31.4569 38.5518 31.4569 38.55 31.4641C38.55 31.4678 38.5537 31.4732 38.5537 31.4768C38.5574 31.4732 38.561 31.4678 38.5629 31.4623ZM38.7767 31.8589C38.9481 31.7901 39.1251 31.7412 39.3112 31.7267C39.4974 31.7122 39.6817 31.7159 39.8679 31.714C40.1057 31.7104 40.3416 31.6941 40.572 31.6307C40.7047 31.5945 40.8024 31.5203 40.8725 31.4062C40.8964 31.3682 40.9167 31.3283 40.937 31.2885C41.0255 31.1237 41.09 30.9499 41.16 30.7778C41.4107 30.1694 41.6558 29.561 41.8715 28.9381C42.1093 28.2517 42.3231 27.5582 42.4706 26.8484C42.5277 26.5731 42.5977 26.3015 42.6328 26.0208C42.6567 25.8252 42.6033 25.6623 42.4871 25.512C42.4042 25.4051 42.3047 25.3128 42.1959 25.2295C41.9305 25.0285 41.6651 24.8257 41.4273 24.5921C41.1821 24.3512 40.9425 24.1032 40.6863 23.8732C40.5794 23.7772 40.4725 23.6794 40.3508 23.5961C40.2329 23.75 40.0965 23.8696 39.9472 23.98C39.8384 24.0615 39.7315 24.143 39.6301 24.2335C39.5951 24.2643 39.5582 24.2933 39.5472 24.3404C39.573 24.3512 39.5877 24.3386 39.6043 24.3331C39.6246 24.3277 39.6449 24.3223 39.6651 24.3186C39.8771 24.2679 40.067 24.3096 40.2292 24.4581C40.349 24.5667 40.4356 24.6989 40.502 24.8456C40.6568 25.186 40.7213 25.5464 40.7471 25.914C40.7674 26.2091 40.7674 26.5043 40.7287 26.7995C40.6992 27.0349 40.6586 27.2703 40.5573 27.4858C40.5112 27.5836 40.5204 27.6614 40.5794 27.7429C40.6052 27.7791 40.6328 27.8153 40.6623 27.8497C40.7398 27.9475 40.8374 28.0272 40.9093 28.1304C40.9499 28.1902 40.9591 28.2409 40.9185 28.3079C40.7877 28.5234 40.6623 28.7425 40.5333 28.958C40.1167 29.6515 39.6799 30.3324 39.2559 31.0187C39.0882 31.2921 38.9131 31.5619 38.7583 31.8426C38.7546 31.8499 38.7454 31.8589 38.7546 31.8662C38.7656 31.877 38.773 31.8698 38.7767 31.8589ZM34.2036 29.2894C34.1281 29.3147 34.0543 29.3437 33.9769 29.3672C33.717 29.4469 33.4811 29.369 33.3207 29.1499C33.2415 29.0395 33.1788 28.9199 33.129 28.795C33.0534 28.603 32.9945 28.4039 32.9336 28.2083C32.7788 27.7194 32.6332 27.2286 32.5484 26.7234C32.5373 26.66 32.5115 26.6293 32.4562 26.6021C32.0489 26.4011 31.6378 26.2128 31.2342 26.0045C30.8969 25.8289 30.5651 25.646 30.2499 25.4323C30.2019 25.3997 30.1503 25.3689 30.1098 25.3237C29.9347 25.1226 29.7614 24.9198 29.5845 24.7206C29.4702 24.5903 29.3522 24.4635 29.2269 24.344C29.1531 24.2716 29.0813 24.2462 28.9762 24.2933C28.7734 24.3856 28.5652 24.4689 28.3642 24.5667C27.8315 24.8221 27.3228 25.1154 26.827 25.4341C26.1616 25.8615 25.5238 26.3287 24.8953 26.8067C24.8197 26.8629 24.8215 26.8629 24.8602 26.9498C25.1883 27.6542 25.4519 28.3803 25.675 29.1228C25.8298 29.6425 25.9625 30.1694 26.0731 30.7018C26.1745 31.1853 26.2611 31.6706 26.333 32.1613C26.3735 32.4402 26.4067 32.7191 26.4417 32.9979C26.4897 33.3891 26.5228 33.782 26.556 34.175C26.5745 34.376 26.5874 34.5788 26.5984 34.7798C26.6113 35.0441 26.6205 35.3085 26.6261 35.5729C26.6279 35.6417 26.6463 35.6761 26.709 35.7051C26.98 35.8337 27.2491 35.9659 27.5145 36.1053C27.9403 36.3298 28.3661 36.5544 28.8066 36.7481C29.1937 36.9202 29.59 37.0614 30.001 37.1646C30.2757 37.2334 30.554 37.2841 30.8342 37.3131C30.9429 37.324 31.0535 37.3511 31.166 37.3294C31.166 37.3041 31.1678 37.2841 31.166 37.2642C31.1346 37.0505 31.0996 36.8369 31.0701 36.6232C31.0167 36.2465 30.9651 35.8699 30.9134 35.4932C30.8489 35.0242 30.7899 34.5552 30.7365 34.0862C30.6978 33.7567 30.6646 33.4253 30.6425 33.0921C30.6351 32.9889 30.6296 32.9852 30.5227 32.9545C30.2462 32.8784 29.9679 32.9074 29.6877 32.9219C29.507 32.9309 29.3264 32.9563 29.1439 32.949C29.0204 32.9454 28.9909 32.8947 29.0389 32.7806C29.0591 32.7317 29.0905 32.6919 29.1347 32.6611C29.1937 32.6195 29.2582 32.5977 29.3264 32.5832C29.4149 32.5633 29.5052 32.5525 29.5918 32.5217C29.7596 32.4619 29.8112 32.3116 29.7043 32.1686C29.6729 32.1269 29.6342 32.0907 29.5992 32.0527C29.4886 31.9332 29.4536 31.7992 29.5144 31.6398C29.6232 31.6724 29.7153 31.7267 29.8038 31.7865C29.9107 31.8589 30.0158 31.9313 30.1227 32.0038C30.1983 32.0545 30.2812 32.0907 30.3642 32.1251C30.4065 32.1414 30.4305 32.1305 30.4434 32.0907C30.4489 32.0744 30.4545 32.0581 30.46 32.0418C30.554 31.8046 30.5669 31.5529 30.5761 31.303C30.5817 31.1255 30.5706 30.9463 30.5559 30.767C30.5337 30.4863 30.5024 30.2074 30.4766 29.9286C30.4563 29.7203 30.4526 29.5103 30.495 29.3038C30.5135 29.2169 30.5356 29.13 30.5817 29.0503C30.6019 29.0141 30.6259 28.9815 30.6646 28.9598C30.7439 28.9145 30.8268 28.9435 30.8581 29.0286C30.8674 29.0503 30.8729 29.0739 30.8766 29.0974C30.9061 29.2857 30.8932 29.4741 30.8839 29.6624C30.8655 29.9738 30.8305 30.2835 30.8121 30.5968C30.8065 30.6819 30.7955 30.7706 30.8028 30.8521C30.8194 31.0386 30.8176 31.2251 30.8065 31.408C30.7973 31.5837 30.8121 31.7557 30.8287 31.9295C30.8397 32.0436 30.8766 32.1504 30.9282 32.2519C30.9503 32.2953 30.9743 32.3098 31.0259 32.3007C31.1936 32.2736 31.3632 32.25 31.5328 32.2301C31.9512 32.1812 32.3696 32.1287 32.7899 32.0871C33.1825 32.0472 33.5751 32.0146 33.9677 31.9839C34.2589 31.9603 34.552 31.9386 34.8451 31.9223C35.0994 31.9078 35.3538 31.8915 35.6082 31.8825C35.9271 31.8716 36.2441 31.8462 36.563 31.8517C36.5777 31.8517 36.598 31.8607 36.6109 31.8354C36.5888 31.8064 36.5519 31.8028 36.5224 31.7919C36.0985 31.6217 35.6708 31.4605 35.2672 31.245C35.1805 31.1998 35.0957 31.1509 35.0073 31.111C34.764 30.9988 34.5207 30.8829 34.2792 30.7652C34.1373 30.6964 34.0046 30.6131 33.8829 30.5135C33.8184 30.4591 33.7723 30.394 33.7539 30.307C33.7281 30.1911 33.7428 30.0825 33.7926 29.9775C33.8423 29.8742 33.9105 29.7819 33.9787 29.6914C34.0709 29.57 34.1741 29.4559 34.2073 29.302C34.2147 29.2966 34.2202 29.2875 34.2128 29.2821C34.2073 29.2712 34.2055 29.2821 34.2036 29.2894ZM40.8135 11.8077C40.8153 11.7896 40.8061 11.7787 40.7987 11.7678C40.6476 11.5741 40.502 11.3767 40.3471 11.1847C40.0762 10.8461 39.7997 10.5147 39.479 10.2196C39.1933 9.95882 38.8744 9.75058 38.5279 9.58398C37.9767 9.31779 37.4035 9.11136 36.8081 8.96468C36.3639 8.85603 35.9123 8.7836 35.4552 8.75462C35.1271 8.73471 34.799 8.74376 34.4709 8.78722C34.1078 8.83611 33.7576 8.92665 33.4295 9.08601C33.035 9.27976 32.6479 9.4862 32.2738 9.71617C31.6563 10.0928 31.072 10.5129 30.5798 11.0435C30.342 11.2988 30.1411 11.5777 29.9826 11.8873C29.9568 11.9399 29.9586 11.9815 29.9808 12.034C30.0692 12.2477 30.1208 12.4722 30.1393 12.7022C30.1706 13.0825 30.1264 13.4573 30.049 13.8285C29.955 14.2849 29.8333 14.7376 29.7725 15.2012C29.7485 15.3859 29.7319 15.5706 29.7485 15.7571C29.7762 16.045 29.8517 16.3239 29.9273 16.6027C29.9937 16.8454 30.0434 17.0898 30.0803 17.3379C30.1043 17.5009 30.0324 17.5914 29.9033 17.6621C29.8757 17.6765 29.848 17.691 29.8186 17.7019C29.7172 17.7435 29.6121 17.7671 29.5052 17.7798C29.3633 17.7961 29.2213 17.8124 29.0776 17.8069C28.9873 17.8033 28.9817 17.7943 28.9633 17.7091C28.9098 17.4647 28.8435 17.222 28.7347 16.9939C28.6481 16.811 28.5338 16.6462 28.3642 16.5267C28.1891 16.4035 27.9919 16.3637 27.7799 16.3655C27.3689 16.3691 27.0205 16.5231 26.7422 16.8092C26.3662 17.1967 26.2261 17.6657 26.2998 18.1926C26.368 18.6816 26.5523 19.127 26.8436 19.529C27.0316 19.788 27.2565 20.0035 27.5551 20.1375C27.7173 20.2099 27.8868 20.2479 28.0638 20.2443C28.2518 20.2407 28.4159 20.1682 28.5596 20.0469C28.626 19.9908 28.6979 19.9401 28.7679 19.8912C28.8582 19.8278 28.9596 19.7916 29.0684 19.7771C29.1384 19.768 29.1513 19.7771 29.1753 19.8441C29.2361 20.0071 29.19 20.1465 29.0831 20.2751C29.002 20.3711 28.9098 20.4543 28.8214 20.5431C28.7329 20.6318 28.6647 20.735 28.6776 20.8636C28.696 21.0411 28.7292 21.2167 28.7753 21.3887C28.9006 21.8686 29.0665 22.3358 29.2656 22.7903C29.4259 23.1579 29.6084 23.5128 29.8296 23.8478C30.0139 24.1249 30.2554 24.3368 30.5577 24.4871C30.895 24.6555 31.2563 24.7442 31.6286 24.8003C31.8351 24.8311 32.0433 24.8546 32.2516 24.8764C32.3936 24.8909 32.5373 24.8963 32.6811 24.9053C32.7198 24.9072 32.7548 24.909 32.7788 24.8673C32.8654 24.717 33.0074 24.641 33.1696 24.5939C33.4295 24.5178 33.693 24.5269 33.9585 24.5595C34.0322 24.5685 34.1059 24.5812 34.1889 24.5939C34.1668 24.5595 34.1391 24.5541 34.1133 24.5414C33.9456 24.4617 33.7907 24.3621 33.6414 24.2535C33.3926 24.0688 33.1659 23.8587 32.9502 23.6378C32.6553 23.339 32.3696 23.0311 32.1079 22.7034C31.8793 22.4173 31.6821 22.1149 31.5733 21.7636C31.5309 21.6241 31.4977 21.4847 31.4959 21.3163C31.518 21.3435 31.5254 21.3543 31.5328 21.3634C31.7521 21.6567 31.9678 21.9537 32.1926 22.2434C32.5134 22.6545 32.8525 23.0456 33.2415 23.3951C33.6949 23.8026 34.2055 24.1231 34.7677 24.3657C35.2174 24.5595 35.6837 24.6808 36.1759 24.6881C36.3326 24.6899 36.4892 24.6736 36.6459 24.6573C37.0735 24.612 37.4827 24.4997 37.8809 24.3512C38.3214 24.1865 38.7325 23.9692 39.1324 23.7247C39.4255 23.5436 39.6854 23.3281 39.8882 23.0493C40.0393 22.8428 40.1794 22.6273 40.3287 22.4209C40.8116 21.7509 41.1729 21.0211 41.442 20.2443C41.5932 19.8115 41.713 19.3697 41.8051 18.9224C41.8733 18.5964 41.925 18.2687 41.9637 17.9373C42.0061 17.5788 42.0374 17.2202 42.0448 16.8599C42.054 16.3438 42.0411 15.8277 42.0061 15.3134C41.9913 15.0744 41.9821 14.8336 41.9618 14.5945C41.9415 14.3483 41.9065 14.1038 41.8494 13.863C41.7978 13.6457 41.7333 13.4284 41.6098 13.2382C41.3314 12.8054 40.9314 12.532 40.4246 12.4143C40.1038 12.3401 39.7997 12.3817 39.5251 12.5773C39.5066 12.5899 39.4937 12.6171 39.4642 12.6099C39.3942 12.3328 39.5361 12.0775 39.7057 11.9525C39.9527 11.7696 40.2329 11.7262 40.5296 11.757C40.6218 11.7715 40.7176 11.7914 40.8135 11.8077ZM35.5566 32.48C35.3298 32.4963 35.1013 32.4692 34.8746 32.4909C34.7289 32.5054 34.5815 32.5054 34.4359 32.5108C34.1428 32.5235 33.8516 32.5525 33.5585 32.576C33.3852 32.5905 33.2101 32.605 33.0387 32.6267C32.7032 32.6683 32.3678 32.7154 32.0341 32.7625C31.695 32.8096 31.3595 32.8675 31.0222 32.9273C30.9724 32.9363 30.9595 32.9508 30.9669 32.9997C30.989 33.1627 31.0056 33.3257 31.0259 33.4886C31.0701 33.8381 31.1088 34.1894 31.1604 34.5389C31.2231 34.9699 31.2931 35.3991 31.3632 35.8282C31.4535 36.3968 31.5659 36.9636 31.6894 37.5268C31.8387 38.2113 32.0102 38.8903 32.2056 39.564C32.3198 39.9605 32.4433 40.3535 32.5687 40.7482C32.5889 40.8116 32.6221 40.8442 32.6866 40.8605C32.7843 40.884 32.882 40.9148 32.9797 40.9402C33.3852 41.0452 33.7963 41.1249 34.211 41.1828C34.4801 41.2209 34.7511 41.2498 35.022 41.2661C35.1621 41.2752 35.3004 41.2824 35.4404 41.2879C35.857 41.3023 36.2736 41.2951 36.6902 41.2625C36.9888 41.239 37.2855 41.2009 37.5804 41.1466C37.8422 41.0977 38.1002 41.0416 38.3546 40.9673C38.4357 40.9438 38.4375 40.942 38.421 40.8551C38.3325 40.406 38.2901 39.9533 38.2551 39.4988C38.2329 39.2072 38.2219 38.9157 38.2127 38.6241C38.2053 38.4068 38.2035 38.1914 38.1924 37.9741C38.1832 37.7785 38.1813 37.5829 38.1721 37.3873C38.1611 37.1447 38.1445 36.9002 38.1297 36.6576C38.1131 36.3842 38.0781 36.1107 38.0542 35.8391C38.032 35.5856 38.021 35.3321 38.0044 35.0804C37.9896 34.8649 37.9915 34.6476 37.9804 34.4321C37.9767 34.356 37.9804 34.28 37.9749 34.2057C37.9509 33.9359 37.9509 33.6643 37.9196 33.3945C37.8956 33.1772 37.8717 32.9581 37.8459 32.7408C37.8403 32.6991 37.8256 32.6738 37.7703 32.6629C37.221 32.5543 36.6643 32.5126 36.1077 32.4855C35.9215 32.4728 35.739 32.48 35.5566 32.48ZM26.0786 15.6502C24.2833 17.3271 23.0889 19.3244 22.5341 21.6767C21.9461 24.1738 22.1433 26.6202 23.1239 28.9978C23.7303 30.4682 24.6114 31.7611 25.7597 32.9019C25.7597 32.8603 25.7616 32.8386 25.7597 32.8186C25.7081 32.3967 25.6565 31.9748 25.5773 31.5583C25.4796 31.035 25.3727 30.5135 25.1846 30.0119C25.0077 29.5411 24.8049 29.0811 24.6427 28.6049C24.5045 28.1938 24.3275 27.7972 24.2004 27.3826C24.134 27.1653 24.0695 26.948 24.0584 26.7198C24.0474 26.4844 24.1266 26.2834 24.3146 26.1258C24.4603 26.0045 24.628 25.9212 24.7994 25.8415C24.9708 25.7619 25.1386 25.6804 25.2934 25.5699C25.5109 25.4142 25.7339 25.2621 25.9625 25.1245C26.6906 24.6862 27.4279 24.2643 28.1725 23.8551C28.3403 23.7627 28.5062 23.6667 28.6555 23.5454C28.7218 23.4911 28.7642 23.4259 28.7808 23.339C28.8011 23.2322 28.7753 23.1344 28.7384 23.0384C28.6757 22.87 28.5744 22.7197 28.4767 22.5694C28.2039 22.1511 28.049 21.6911 27.9919 21.2004C27.9753 21.0646 27.979 21.0628 27.8444 21.0338C27.8371 21.032 27.8315 21.0284 27.8242 21.0266C27.2694 20.8962 26.8159 20.6101 26.4565 20.1773C26.2574 19.9383 26.1173 19.6648 25.9957 19.3823C25.8021 18.9296 25.6915 18.4552 25.662 17.9645C25.6455 17.6874 25.6565 17.4085 25.7173 17.1333C25.7745 16.8707 25.8353 16.61 26.0233 16.3981C26.0491 16.3691 26.0676 16.3365 26.0878 16.3039C26.1155 16.2587 26.1358 16.2134 26.1413 16.1609C26.1579 15.9925 26.1284 15.8331 26.0786 15.6502ZM41.501 31.4913C41.7886 31.3501 42.0614 31.2233 42.3397 31.111C42.8263 30.9137 43.3221 30.7543 43.8493 30.7054C43.9304 30.6982 43.9636 30.6656 43.9986 30.6058C44.2456 30.1984 44.4686 29.7765 44.6659 29.3437C44.9387 28.7479 45.158 28.1322 45.3257 27.4984C45.4714 26.9461 45.5801 26.3884 45.6446 25.8216C45.6889 25.4395 45.7183 25.0575 45.7239 24.6718C45.7294 24.2625 45.7202 23.8533 45.6852 23.4458C45.6612 23.1652 45.6317 22.8863 45.5893 22.6092C45.4972 22.0225 45.3626 21.4431 45.1856 20.8763C44.9276 20.056 44.5848 19.2719 44.1553 18.5222C43.759 17.8268 43.2908 17.1804 42.7636 16.5756C42.6844 16.485 42.6106 16.3909 42.5074 16.3058C42.5 16.5049 42.4964 16.6933 42.4871 16.8798C42.4724 17.1568 42.4484 17.4339 42.4226 17.711C42.3895 18.055 42.3434 18.3991 42.2862 18.7395C42.1867 19.3262 42.0577 19.9057 41.8881 20.4761C41.783 20.8256 41.678 21.1732 41.536 21.5119C41.4347 21.7545 41.2909 21.9754 41.1582 22.2018C41.0642 22.363 40.972 22.5241 40.913 22.7016C40.8725 22.8247 40.8891 22.9297 40.972 23.0275C40.9831 23.0402 40.9923 23.0547 41.0033 23.0674C41.1434 23.2322 41.3001 23.3806 41.466 23.5164C41.9342 23.9022 42.3931 24.3005 42.8521 24.6989C42.9645 24.7967 43.0622 24.9108 43.1581 25.0249C43.3572 25.2603 43.3719 25.5301 43.3313 25.8144C43.289 26.1114 43.1949 26.3957 43.0991 26.68C42.8429 27.4441 42.6291 28.2192 42.3765 28.9833C42.1664 29.6171 41.9544 30.2509 41.7259 30.8774C41.654 31.0748 41.5821 31.2704 41.501 31.4913ZM42.8152 35.8355C42.8798 35.8626 42.9314 35.8807 42.9848 35.8916C43.2502 35.9423 43.5157 35.9604 43.7866 35.9387C43.9857 35.9224 44.1829 35.9025 44.3783 35.8681C44.7433 35.8047 45.0253 35.6182 45.228 35.3158C45.5008 34.9065 45.5727 34.4556 45.4806 33.983C45.4105 33.6227 45.3221 33.2659 45.2336 32.9092C45.1562 32.5995 45.0695 32.2917 44.9423 31.9965C44.8115 31.6941 44.5903 31.4804 44.2788 31.3573C44.0908 31.2831 43.9028 31.2722 43.7258 31.379C43.4512 31.542 43.1562 31.6543 42.8539 31.7557C42.5129 31.8698 42.1683 31.973 41.842 32.1233C41.6872 32.1957 41.5397 32.279 41.4107 32.3931C41.3646 32.4348 41.3517 32.4746 41.3701 32.5362C41.4568 32.8259 41.5121 33.1229 41.5563 33.4216C41.6005 33.7168 41.6374 34.012 41.6651 34.309C41.6945 34.6331 41.7296 34.9554 41.7609 35.2796C41.7701 35.3791 41.772 35.3846 41.8807 35.3882C42.0908 35.3954 42.2991 35.3737 42.5093 35.3647C42.7286 35.3556 42.9461 35.3248 43.1655 35.314C43.3995 35.3031 43.6336 35.2959 43.8677 35.3266C44.0226 35.3484 44.1774 35.3701 44.3304 35.4443C44.1166 35.5095 43.9064 35.5439 43.6982 35.5783C43.4641 35.6182 43.23 35.6562 43.0069 35.7395C42.9424 35.7649 42.8779 35.7793 42.8152 35.8355ZM29.4149 17.2021C29.6047 17.2057 29.6895 17.0826 29.6858 16.9251C29.6822 16.7639 29.6379 16.6118 29.5882 16.4633C29.5089 16.2206 29.4481 15.9744 29.4296 15.7209C29.413 15.4836 29.4259 15.2464 29.4481 15.011C29.4997 14.4931 29.6176 13.9825 29.6656 13.4646C29.6803 13.3107 29.6932 13.1567 29.6932 13.0028C29.6932 12.8724 29.6766 12.7439 29.66 12.6135C29.6416 12.4741 29.6084 12.3364 29.5605 12.2042C29.5439 12.1572 29.52 12.1391 29.4683 12.1481C29.3762 12.1626 29.2822 12.1735 29.19 12.1879C28.8103 12.2477 28.4509 12.3654 28.1117 12.5447C27.8721 12.6714 27.6583 12.8272 27.4574 13.0064C27.238 13.202 27.0648 13.4247 26.9597 13.6982C26.8307 14.0296 26.7938 14.3772 26.7791 14.7267C26.7661 15.049 26.7938 15.3732 26.8141 15.6937C26.8196 15.7915 26.8325 15.8893 26.8399 15.9834C26.8509 15.987 26.8565 15.9889 26.8583 15.9871C26.8767 15.978 26.8952 15.9671 26.9136 15.9563C27.1569 15.8186 27.4187 15.748 27.7025 15.739C28.1099 15.7263 28.4767 15.8368 28.8011 16.0722C29.1034 16.2931 29.3024 16.5828 29.3743 16.954C29.3891 17.0355 29.3706 17.1242 29.4149 17.2021ZM36.0524 28.1938C35.6782 28.4383 35.3022 28.67 34.9723 28.9652C34.6773 29.2296 34.4488 29.5356 34.3308 29.9141C34.2958 30.0264 34.3161 30.0155 34.3898 30.0553C34.8617 30.3161 35.3446 30.5569 35.8367 30.7815C36.4118 31.0422 36.998 31.274 37.6007 31.4641C37.6523 31.4804 37.7058 31.4949 37.7574 31.5094C37.774 31.4714 37.7519 31.4479 37.7408 31.4261C37.492 30.8557 37.2579 30.2781 36.9851 29.7167C36.7805 29.2984 36.5593 28.8892 36.292 28.5053C36.2164 28.4002 36.1464 28.2898 36.0524 28.1938ZM38.4652 36.4059C38.6624 36.3769 38.8486 36.3516 39.0329 36.3226C39.243 36.29 39.4513 36.2447 39.6596 36.2013C39.7131 36.1904 39.7278 36.165 39.7186 36.1162C39.6965 35.9749 39.6891 35.83 39.6744 35.687C39.6412 35.3773 39.6264 35.0659 39.6006 34.7544C39.5877 34.6077 39.5859 34.4592 39.5693 34.3126C39.538 34.0102 39.5085 33.7059 39.4679 33.4054C39.4329 33.15 39.3813 32.8983 39.3186 32.6484C39.3039 32.5923 39.2799 32.5688 39.2191 32.576C39.0735 32.5905 38.926 32.5814 38.7804 32.5977C38.6385 32.614 38.4965 32.6358 38.3601 32.6774C38.3233 32.6883 38.3085 32.7046 38.3104 32.7408C38.3122 32.7897 38.3104 32.8368 38.3104 32.8856C38.3122 33.2333 38.3104 33.581 38.3177 33.9287C38.3233 34.1931 38.3399 34.4556 38.3528 34.72C38.362 34.8975 38.3693 35.0767 38.3804 35.2542C38.397 35.486 38.4173 35.7178 38.4357 35.9496C38.4449 36.098 38.4541 36.2447 38.4652 36.4059ZM38.2975 31.3827C38.4634 30.843 38.5371 30.3143 38.5813 29.7801C38.5961 29.6099 38.6016 29.4378 38.6127 29.2658C38.6274 29.0539 38.6311 28.8403 38.644 28.6284C38.6606 28.3767 38.668 28.1232 38.679 27.8697C38.6698 27.8606 38.655 27.8606 38.6421 27.8606C38.4984 27.8588 38.3675 27.8153 38.2458 27.7429C38.1684 27.6958 38.0929 27.6451 38.0191 27.5944C37.9491 27.5473 37.8809 27.5021 37.8072 27.4622C37.6615 27.3826 37.5159 27.3807 37.3685 27.4514C37.3021 27.4822 37.2358 27.5147 37.1694 27.5437C37.0699 27.589 36.9556 27.6451 36.8579 27.6053C36.7141 27.5473 36.657 27.6288 36.5869 27.7121C36.5574 27.7465 36.5279 27.7791 36.4966 27.8135C36.4671 27.8479 36.4561 27.8715 36.4929 27.9167C36.8468 28.3477 37.1067 28.8348 37.3408 29.3346C37.6173 29.9268 37.8625 30.5334 38.1574 31.1183C38.1961 31.2016 38.2422 31.2813 38.2975 31.3827ZM27.8961 11.9779C28.0325 11.9489 28.1467 11.9236 28.2592 11.8855C28.3882 11.8421 28.5172 11.7986 28.6444 11.7515C28.9043 11.6556 29.1697 11.6501 29.4388 11.6918C29.6011 11.7171 29.7338 11.6664 29.848 11.5578C29.896 11.5125 29.9402 11.4636 29.9808 11.4111C30.1301 11.2228 30.248 11.0163 30.3678 10.8099C30.5227 10.5455 30.7181 10.3228 30.9724 10.149C31.0978 10.062 31.2286 9.97874 31.3355 9.86828C31.4277 9.77231 31.5346 9.71255 31.6618 9.67814C31.7282 9.66004 31.7779 9.61477 31.8093 9.55501C31.8351 9.50793 31.8332 9.46809 31.789 9.42644C31.7282 9.37393 31.6655 9.35401 31.5862 9.37755C31.1328 9.51155 30.6941 9.68177 30.272 9.89001C29.9402 10.053 29.6195 10.2377 29.3172 10.4477C28.9191 10.7248 28.5486 11.0345 28.2481 11.4147C28.1117 11.5849 27.9919 11.7606 27.8961 11.9779ZM35.505 26.6745C35.5805 26.6184 35.669 26.6057 35.7556 26.5822C35.9215 26.5387 36.0911 26.5152 36.2515 26.4518C36.3713 26.4047 36.3657 26.4029 36.3731 26.2798C36.3768 26.22 36.351 26.2128 36.3031 26.2073C36.1427 26.1874 35.9897 26.1367 35.8515 26.0534C35.7354 25.9828 35.6229 25.9067 35.5031 25.8415C34.9428 25.5373 34.3492 25.3164 33.7262 25.1788C33.6304 25.1571 33.5345 25.1389 33.435 25.1534C33.247 25.1788 33.1419 25.3019 33.07 25.4595C32.9797 25.6568 32.9576 25.8705 32.9484 26.0824C32.9373 26.3667 32.941 26.6528 32.9631 26.9389C32.9668 26.9733 32.9687 27.0077 32.9723 27.0421C33.0092 27.3337 33.1014 27.6107 33.2046 27.8842C33.2949 28.125 33.4018 28.3604 33.4682 28.6121C33.4792 28.6519 33.4958 28.69 33.5179 28.7244C33.5566 28.7878 33.6101 28.824 33.6894 28.8222C33.7557 28.8185 33.8202 28.8149 33.8866 28.8041C34.0728 28.7715 34.2515 28.7117 34.4303 28.6519C34.8174 28.5234 35.1769 28.3477 35.5013 28.096C35.7999 27.8642 36.0764 27.6035 36.3879 27.388C36.41 27.3735 36.4229 27.3554 36.421 27.3282C36.41 27.2105 36.4376 27.0964 36.4358 26.9787C36.4358 26.9389 36.4247 26.9172 36.386 26.9009C36.2939 26.8592 36.1999 26.8212 36.104 26.7904C35.9086 26.7288 35.7095 26.6981 35.505 26.6745ZM41.3038 35.0623C41.3019 34.7472 41.278 34.4321 41.2411 34.1188C41.2042 33.811 41.149 33.5086 41.066 33.2098C41.0015 32.9834 40.9167 32.7661 40.808 32.5579C40.7766 32.4981 40.7342 32.471 40.6679 32.4728C40.5481 32.4746 40.4301 32.4728 40.3103 32.4728C40.2513 32.4728 40.1905 32.4764 40.1315 32.48C40.0578 32.4836 40.0467 32.4927 40.0559 32.5651C40.0688 32.6883 40.0836 32.8096 40.1001 32.9327C40.1444 33.2369 40.1905 33.543 40.2384 33.8472C40.2937 34.2021 40.3527 34.557 40.3988 34.9138C40.4301 35.1474 40.4614 35.3828 40.478 35.6182C40.4817 35.6707 40.4983 35.6888 40.5536 35.687C40.6568 35.6834 40.7545 35.6634 40.8503 35.6327C40.9794 35.591 41.101 35.5258 41.2356 35.5023C41.2964 35.4914 41.3056 35.4661 41.3038 35.4136C41.3019 35.2977 41.3038 35.18 41.3038 35.0623ZM38.5186 37.5666C38.5242 37.8183 38.5389 38.1334 38.5592 38.4503C38.5832 38.8288 38.6034 39.2054 38.6237 39.5839C38.6274 39.6382 38.6477 39.6563 38.7011 39.6509C38.8025 39.64 38.9039 39.6364 39.0053 39.6219C39.2228 39.5947 39.4237 39.5133 39.6301 39.4481C39.6762 39.4336 39.6891 39.4064 39.6946 39.3666C39.7075 39.2797 39.6891 39.1964 39.6873 39.1094C39.6799 38.8378 39.6338 38.5698 39.584 38.3036C39.4993 37.8582 39.3739 37.4218 39.3186 36.9709C39.3131 36.922 39.291 36.8966 39.2375 36.8966C39.1822 36.8966 39.1251 36.9002 39.0698 36.9111C38.9057 36.9455 38.7472 36.9998 38.5795 37.0161C38.5316 37.0216 38.515 37.0342 38.5168 37.0849C38.5205 37.2262 38.5186 37.3638 38.5186 37.5666ZM37.9601 26.2562C38.0984 26.2291 38.2256 26.2164 38.3546 26.2327C38.4818 26.249 38.6108 26.2689 38.7214 26.3377C38.6219 26.3558 38.526 26.3649 38.4302 26.3757C38.3159 26.3884 38.2035 26.4101 38.0984 26.4627C38.056 26.4826 38.0339 26.5079 38.0283 26.555C38.0136 26.6618 38.0136 26.7669 38.0265 26.8737C38.0339 26.9317 38.032 26.9896 38.0283 27.0476C38.0154 27.1997 37.9841 27.1616 38.1316 27.1997C38.4357 27.2775 38.7435 27.3337 39.0569 27.3717C39.3831 27.4115 39.7094 27.4387 40.0375 27.4532C40.1094 27.4568 40.1518 27.4369 40.1831 27.3699C40.2789 27.1689 40.3084 26.957 40.314 26.7397C40.3232 26.3739 40.2771 26.0136 40.1997 25.6568C40.161 25.4794 40.1131 25.3037 40.019 25.1426C39.9527 25.0285 39.8532 24.9669 39.726 24.9488C39.632 24.9361 39.538 24.9379 39.444 24.9597C39.1951 25.0158 38.9758 25.1371 38.7601 25.2675C38.4468 25.4558 38.1611 25.6858 37.8293 25.8506C37.879 25.9828 37.9546 26.1005 37.9601 26.2562ZM32.4581 25.9701C32.471 25.7872 32.5355 25.6152 32.5779 25.4395C32.5816 25.4269 32.5797 25.4124 32.5797 25.3979C32.5908 25.2911 32.5889 25.2911 32.4802 25.2766C32.1761 25.2367 31.8682 25.2331 31.5641 25.1987C31.3374 25.1734 31.1144 25.1389 30.9116 25.0285C30.8508 24.9959 30.8176 25.0086 30.7973 25.0738C30.7734 25.1552 30.7955 25.2295 30.8471 25.2965C30.9263 25.3943 31.0296 25.4649 31.1383 25.5283C31.3226 25.6351 31.5162 25.722 31.7189 25.7908C31.9586 25.8705 32.1963 25.9502 32.4581 25.9701ZM35.7372 25.2404C35.9621 25.4196 36.2054 25.5591 36.4892 25.6297C36.7252 25.6894 36.9666 25.6894 37.2081 25.6894C37.2874 25.6894 37.3482 25.6695 37.409 25.6224C37.6634 25.4287 37.9049 25.2186 38.1666 25.0357C38.1832 25.0231 38.2127 25.0194 38.209 24.9868C38.1611 24.9832 38.1168 24.9923 38.0726 24.9995C37.7445 25.0502 37.4256 25.1408 37.1012 25.2078C36.9058 25.2494 36.7104 25.2802 36.5114 25.2929C36.2865 25.3074 36.0635 25.2838 35.8515 25.2041C35.8036 25.186 35.7685 25.1878 35.7372 25.2404ZM36.6938 26.3504C36.6938 26.4699 36.7731 26.8954 36.8137 27.0168C36.8229 27.0439 36.8395 27.053 36.8653 27.0602C36.9187 27.0765 36.974 27.0801 37.0312 27.0838C37.2229 27.1019 37.3851 27.0476 37.4883 26.881C37.6118 26.6836 37.6099 26.4753 37.4938 26.2761C37.4053 26.1222 37.2616 26.0516 37.0809 26.0679C36.9537 26.0806 36.8395 26.1331 36.7325 26.2001C36.7067 26.2164 36.692 26.2363 36.6938 26.2671C36.6957 26.2961 36.6938 26.3232 36.6938 26.3504Z" fill="currentColor"/>
<path d="M37.0788 18.9204C37.1341 19.0109 37.1507 19.1015 37.1728 19.192C37.1912 19.2663 37.2096 19.3387 37.2299 19.4111C37.3018 19.6737 37.4714 19.7534 37.7036 19.7715C38.0502 19.8005 38.3764 19.7172 38.6971 19.6031C38.981 19.5017 39.2501 19.3713 39.5211 19.2445C39.663 19.1775 39.8068 19.1142 39.9505 19.0526C40.0022 19.0309 40.039 19.0037 40.063 18.953C40.1109 18.8498 40.157 18.7466 40.168 18.6307C40.1846 18.4514 40.1201 18.3011 40.0077 18.1653C39.8529 17.9788 39.6814 17.8068 39.5248 17.622C39.2335 17.2744 38.9386 16.9303 38.6879 16.5519C38.4409 16.1788 38.2363 15.7841 38.1331 15.3477C38.0889 15.1593 38.0686 14.9692 38.0594 14.7772C38.0575 14.7284 38.0741 14.7012 38.1184 14.6831C38.1644 14.6632 38.2068 14.6595 38.2455 14.6921C38.275 14.7175 38.299 14.7465 38.3119 14.7845C38.3248 14.8207 38.3414 14.8551 38.3469 14.8913C38.3819 15.1358 38.5091 15.344 38.6308 15.5505C38.957 16.1028 39.3552 16.6026 39.7736 17.0897C39.9598 17.307 40.1496 17.5225 40.3468 17.7325C40.439 17.8303 40.5422 17.919 40.651 18.0005C40.8169 18.1255 40.8187 18.2902 40.7819 18.4659C40.756 18.5908 40.7063 18.7085 40.662 18.8281C40.6325 18.9095 40.5994 18.9892 40.6012 19.0761C40.6012 19.1105 40.5902 19.1341 40.5588 19.1522C40.1128 19.4292 39.6648 19.7045 39.169 19.8964C38.804 20.0377 38.428 20.1337 38.0336 20.1717C37.7921 20.1952 37.5506 20.1898 37.311 20.1825C37.241 20.1807 37.182 20.1608 37.1322 20.0974C37.0087 19.9417 36.9387 19.7679 36.911 19.5723C36.8815 19.355 36.9239 19.1576 37.0364 18.9711C37.0474 18.9584 37.0585 18.9458 37.0788 18.9204Z" fill="currentColor"/>
<path d="M39.0934 22.1473C39.0491 22.2777 38.9699 22.3827 38.8703 22.4751C38.78 22.5584 38.6676 22.5946 38.5533 22.6272C38.3247 22.6924 38.0906 22.7322 37.8547 22.7576C37.628 22.7811 37.4013 22.801 37.1746 22.7902C36.8741 22.7775 36.5755 22.7503 36.2898 22.6507C36.052 22.5692 35.8603 22.428 35.6926 22.2469C35.5341 22.0767 35.3995 21.8884 35.265 21.6982C35.1673 21.5588 35.0622 21.4266 34.9295 21.318C34.8779 21.2763 34.8373 21.2238 34.806 21.164C34.7691 21.0952 34.7857 21.0463 34.8576 21.0155C34.9147 20.9902 34.9793 20.9866 35.0419 20.9775C35.0954 20.9685 35.1249 20.9938 35.1451 21.0409C35.2115 21.1984 35.3074 21.3361 35.4235 21.461C35.5765 21.6276 35.7589 21.7507 35.9635 21.8467C36.3027 22.0043 36.664 22.0731 37.0345 22.1147C37.4326 22.16 37.8307 22.1582 38.2289 22.1546C38.4814 22.1527 38.7321 22.1419 38.9846 22.1346C39.0159 22.1364 39.051 22.131 39.0934 22.1473Z" fill="currentColor"/>
<path d="M35.2762 20.2462C35.3868 20.2878 35.4826 20.3259 35.5803 20.3603C35.9305 20.4834 36.2955 20.545 36.6623 20.5866C36.9886 20.6228 37.3167 20.6428 37.6448 20.6518C37.7977 20.6554 37.9526 20.6609 38.1056 20.6609C38.2346 20.6609 38.3636 20.6736 38.4926 20.6482C38.5406 20.6391 38.5719 20.6554 38.5811 20.708C38.6235 20.9397 38.6254 21.1733 38.6217 21.4069C38.6217 21.4377 38.6051 21.4504 38.5756 21.4486C38.3655 21.4413 38.1553 21.4594 37.9452 21.4377C37.8383 21.4269 37.7295 21.425 37.6208 21.416C37.1526 21.3689 36.6955 21.2784 36.2605 21.1009C35.9711 20.9814 35.7038 20.8275 35.4918 20.5939C35.4034 20.4943 35.3278 20.3856 35.2762 20.2462Z" fill="currentColor"/>
<path d="M35.3314 14.1996C35.4162 14.3499 35.4751 14.4839 35.5323 14.6197C35.6208 14.8243 35.7019 15.0344 35.8161 15.2281C35.9194 15.402 36.0558 15.5468 36.2124 15.6772C36.3746 15.813 36.476 15.9778 36.4557 16.1969C36.4447 16.3291 36.3931 16.4414 36.2917 16.5319C36.2585 16.5609 36.2217 16.5881 36.1885 16.6188C36.0558 16.7347 35.8972 16.7927 35.724 16.8144C35.3959 16.8542 35.0696 16.847 34.7489 16.7565C34.6328 16.7239 34.524 16.6768 34.4337 16.5989C34.2605 16.4486 34.2918 16.2567 34.3858 16.1046C34.4134 16.0611 34.4632 16.0756 34.5019 16.081C34.6328 16.0991 34.7637 16.1172 34.8945 16.1444C35.0696 16.1806 35.2447 16.2078 35.4217 16.2114C35.5857 16.215 35.7479 16.1861 35.8862 16.081C35.9341 16.0448 35.936 16.0176 35.9065 15.9724C35.7811 15.7786 35.6668 15.5758 35.5673 15.3676C35.453 15.1303 35.3535 14.8895 35.3129 14.6287C35.289 14.4929 35.2816 14.3553 35.3314 14.1996Z" fill="currentColor"/>
<path d="M34.0448 12.0358C34.2457 12.0285 34.4227 12.0883 34.5793 12.2096C34.7397 12.3345 34.7987 12.5247 34.7268 12.6858C34.6973 12.7528 34.6955 12.7565 34.6162 12.7402C34.4227 12.7021 34.2291 12.6858 34.0337 12.704C33.6854 12.7365 33.3812 12.8687 33.1195 13.0987C32.819 13.3631 32.6181 13.6945 32.4486 14.0476C32.4154 14.1146 32.3951 14.1218 32.3343 14.0784C32.2532 14.0204 32.2126 13.9426 32.2071 13.8412C32.1997 13.6619 32.2495 13.4953 32.3122 13.3305C32.3914 13.1259 32.5168 12.9484 32.6624 12.7836C32.8909 12.5247 33.16 12.311 33.4771 12.1643C33.6577 12.0847 33.8439 12.0285 34.0448 12.0358Z" fill="currentColor"/>
<path d="M41.1542 19.7483C41.0123 20.0036 40.863 20.2553 40.6805 20.4871C40.4833 20.737 40.2547 20.9507 39.9782 21.1136C39.7441 21.2513 39.4898 21.3346 39.2207 21.3726C39.1414 21.3835 39.0621 21.3961 38.981 21.3961C38.935 21.3961 38.9202 21.378 38.9165 21.3364C38.8999 21.1318 38.8852 20.9253 38.9018 20.7189C38.9036 20.7044 38.9036 20.6917 38.9055 20.6772C38.9128 20.6283 38.9294 20.6048 38.9903 20.5976C39.3386 20.5541 39.6723 20.4545 39.9911 20.3115C40.2584 20.1919 40.5128 20.0489 40.7727 19.9149C40.8925 19.8533 41.0141 19.7936 41.1358 19.7338C41.145 19.7374 41.1487 19.7429 41.1542 19.7483Z" fill="currentColor"/>
<path d="M40.5901 16.4905C40.4685 16.4959 40.3542 16.4833 40.2436 16.4253C40.0888 16.3438 40.0058 16.2171 39.9911 16.0487C39.98 15.931 39.9819 15.931 40.1035 15.9002C40.2915 15.8549 40.4832 15.8531 40.6749 15.8404C40.7892 15.8332 40.9035 15.8205 41.0159 15.7952C41.0602 15.7861 41.1025 15.768 41.1449 15.7517C41.2168 15.7209 41.2205 15.7173 41.191 15.6467C41.1394 15.5163 41.086 15.3859 41.0325 15.2555C40.9035 14.9368 40.8205 14.6091 40.8334 14.2632C40.8334 14.2487 40.8316 14.236 40.8334 14.2216C40.8353 14.2034 40.8242 14.1781 40.8519 14.169C40.8814 14.16 40.8924 14.1799 40.9053 14.2034C40.9717 14.3465 41.0399 14.4896 41.1099 14.6326C41.3035 15.0364 41.4859 15.4457 41.7422 15.8169C41.7753 15.864 41.7735 15.902 41.7422 15.9473C41.6703 16.0469 41.5836 16.132 41.4823 16.199C41.2131 16.38 40.9201 16.4887 40.5901 16.4905Z" fill="currentColor"/>
<path d="M28.6791 18.5242C28.5741 18.4572 28.5261 18.3648 28.4764 18.2743C28.4008 18.1385 28.3473 17.9918 28.2644 17.8596C28.2312 17.8053 28.1943 17.7564 28.1446 17.7165C28.0358 17.626 27.8884 17.6314 27.7851 17.7292C27.7335 17.7781 27.7004 17.8361 27.6764 17.9031C27.6211 18.0606 27.6045 18.2236 27.599 18.3884C27.5935 18.5875 27.5971 18.7885 27.5971 18.9877C27.5971 19.0167 27.6045 19.0475 27.5861 19.0837C27.4755 18.9678 27.4202 18.8302 27.3815 18.6835C27.293 18.334 27.293 17.9845 27.387 17.6351C27.3999 17.5862 27.422 17.5373 27.4423 17.4902C27.4571 17.4558 27.446 17.4431 27.4128 17.4304C27.3133 17.3924 27.2248 17.4159 27.1474 17.4775C27.0718 17.5373 27.0036 17.6061 26.9151 17.6858C26.9409 17.5029 26.9926 17.3508 27.0939 17.2186C27.2727 16.9813 27.5621 16.8999 27.8736 16.9958C28.2441 17.1117 28.48 17.3652 28.6201 17.7111C28.7252 17.9719 28.7399 18.2399 28.6791 18.5242Z" fill="currentColor"/>
<path d="M43.8546 32.2772C43.5117 32.3876 43.226 32.5941 42.9219 32.7697C42.7265 32.8838 42.5256 32.987 42.297 33.0232C42.2251 33.0341 42.1551 33.0413 42.0648 33.0341C42.1791 32.8874 42.2989 32.7697 42.439 32.6719C42.7007 32.489 42.9956 32.3895 43.3071 32.3279C43.4878 32.2953 43.6702 32.2736 43.8546 32.2772Z" fill="currentColor"/>
<path d="M44.4242 34.287C44.3947 34.3142 44.3633 34.316 44.3283 34.316C44.1329 34.316 43.9357 34.3251 43.7403 34.3142C43.4786 34.2979 43.215 34.3142 42.9551 34.2943C42.78 34.2816 42.6031 34.2907 42.4206 34.2544C42.4832 34.1856 42.5607 34.1512 42.6399 34.1277C42.8519 34.0661 43.0676 34.0462 43.2906 34.0643C43.486 34.0806 43.6795 34.1005 43.8712 34.1367C44.0592 34.1693 44.2435 34.2146 44.4242 34.287Z" fill="currentColor"/>
<path d="M44.2379 33.36C43.6444 33.4179 43.0527 33.503 42.4408 33.4632C42.5016 33.3654 42.5882 33.3183 42.6822 33.2803C42.8131 33.2278 42.9495 33.2042 43.0896 33.1988C43.4545 33.1825 43.814 33.2314 44.166 33.3256C44.1826 33.3292 44.1992 33.3364 44.214 33.3437C44.2213 33.3473 44.2342 33.3437 44.2379 33.36Z" fill="currentColor"/>
<path d="M38.063 29.2947C38.2086 29.2947 38.3137 29.3961 38.3137 29.5392C38.3137 29.6714 38.1939 29.7854 38.0556 29.7836C37.9211 29.7818 37.8049 29.6641 37.8086 29.5301C37.8123 29.3997 37.9247 29.2947 38.063 29.2947Z" fill="currentColor"/>
<path d="M38.0539 28.3659C38.0557 28.4999 37.9396 28.6212 37.8069 28.6248C37.6778 28.6285 37.5543 28.5035 37.5543 28.3713C37.5543 28.2409 37.6668 28.1323 37.8032 28.1305C37.9433 28.1269 38.052 28.2319 38.0539 28.3659Z" fill="currentColor"/>
<path d="M35.1084 26.7486C35.2226 26.745 35.3222 26.7721 35.4254 26.7631C35.4696 26.7595 35.5047 26.7794 35.5415 26.8011C35.6724 26.8808 35.8033 26.9568 35.9618 26.9822C36.0834 27.0003 36.2032 26.9985 36.3286 26.9804C36.3286 27.0818 36.3286 27.1796 36.3286 27.2792C36.3286 27.2991 36.3138 27.3099 36.2991 27.319C35.9562 27.558 35.6558 27.8478 35.3203 28.094C35.0273 28.3095 34.6992 28.449 34.3582 28.5667C34.207 28.6192 34.054 28.6681 33.8955 28.6988C33.8328 28.7115 33.7702 28.7133 33.7075 28.7151C33.6504 28.717 33.6135 28.697 33.5914 28.6463C33.584 28.6282 33.5711 28.6101 33.5674 28.5902C33.5269 28.4435 33.4697 28.3041 33.4236 28.161C33.3905 28.0632 33.396 27.9582 33.3868 27.855C33.3646 27.5961 33.3407 27.3371 33.3223 27.0763C33.3057 26.8536 33.2762 26.6327 33.278 26.41C33.278 26.3067 33.2872 26.2053 33.3204 26.1057C33.361 25.9862 33.4384 25.9066 33.5637 25.874C33.6356 25.8558 33.7056 25.8432 33.7794 25.8396C34.0245 25.8305 34.2697 25.8432 34.513 25.8577C34.7913 25.8758 35.0641 25.9482 35.3222 26.0569C35.4641 26.1166 35.5231 26.3249 35.4475 26.4733C35.3996 26.5675 35.3443 26.649 35.23 26.678C35.1895 26.6888 35.1471 26.7069 35.1084 26.7486Z" fill="currentColor"/>
<path d="M39.0806 26.421C39.0566 26.3776 39.0271 26.3685 39.0031 26.3613C38.9128 26.3377 38.887 26.2743 38.8833 26.1947C38.8778 26.086 38.8631 25.9756 38.8926 25.8669C38.9257 25.7401 39.0031 25.6587 39.1248 25.608C39.2557 25.5536 39.3939 25.5337 39.5303 25.5102C39.6759 25.4848 39.8215 25.4776 39.969 25.4812C40.0556 25.483 40.0556 25.483 40.0759 25.5591C40.1238 25.742 40.1589 25.9267 40.181 26.115C40.2049 26.3196 40.2307 26.5242 40.2215 26.7307C40.2142 26.9226 40.192 27.1127 40.1165 27.2938C40.0833 27.3717 40.0833 27.3753 39.993 27.3717C39.6833 27.3608 39.3736 27.3355 39.0658 27.2956C38.8133 27.263 38.5626 27.2178 38.3156 27.1616C38.194 27.1345 38.1516 27.082 38.1497 26.9425C38.1479 26.861 38.1737 26.7904 38.2861 26.7433C38.3709 26.7071 38.4594 26.6944 38.5497 26.689C38.6953 26.6818 38.8041 26.6202 38.8612 26.4844C38.8778 26.4464 38.8981 26.4355 38.9386 26.4301C38.9792 26.4264 39.0234 26.4156 39.0806 26.421Z" fill="currentColor"/>
<path d="M37.1728 26.1658C37.3018 26.1839 37.3829 26.2527 37.4271 26.356C37.4953 26.5117 37.499 26.6692 37.4124 26.8213C37.3516 26.93 37.2539 26.9825 37.1304 26.9934C37.1193 26.9952 37.1101 26.9934 37.099 26.9934C36.9036 26.9952 36.9036 26.9952 36.8649 26.8087C36.8576 26.7761 36.8594 26.7525 36.8889 26.729C37.0677 26.5859 37.1599 26.3994 37.1728 26.1658Z" fill="currentColor"/>
</svg>
