<svg width="150" height="50" viewBox="0 0 150 50" fill="none" xmlns="http://www.w3.org/2000/svg">
<path d="M47.1601 28.8307C46.8954 30.1477 47.2452 31.1845 48.3846 31.9501C50.3619 31.1822 51.9225 29.9108 53.1563 28.2246C50.309 25.3172 51.3287 22.1022 54.4706 20.6667C53.1563 16.8114 51.8397 12.9492 50.4931 9.00049C57.1568 9.00049 63.7009 9.00049 70.436 9.00049C69.1032 12.915 67.7958 16.759 66.4907 20.596C69.5544 22.3733 70.1828 23.9615 69.0111 26.9213C70.9608 31.3804 68.1871 35.3679 63.5259 35.876C60.0617 36.2543 56.9704 37.5918 53.9228 39.1275C52.2149 39.9865 50.4586 40.7179 48.5228 40.9458C44.1194 41.4699 40.6299 38.1158 41.0304 33.741C41.127 32.6769 41.2744 31.6288 41.6588 30.6331C42.0409 29.6487 42.4851 28.6872 42.8994 27.7211C40.9751 25.1645 41.6887 22.5602 43.7327 21.2682C45.7882 19.9694 48.3962 20.6393 49.6 22.7174C50.8959 24.9618 49.9798 27.3223 47.1601 28.8307ZM45.1736 28.849C44.4693 28.9606 44.4463 28.9492 44.345 29.1588C43.6084 30.6627 42.9409 32.1825 42.9202 33.9051C42.8741 37.7741 45.6363 39.8977 49.4435 38.9065C51.1215 38.469 52.666 37.7103 54.199 36.9401C56.8392 35.6094 59.5346 34.4838 62.5269 34.1831C63.549 34.0805 64.5664 33.8641 65.4986 33.3719C67.3884 32.3762 68.171 30.3505 67.3999 28.4229C64.4674 29.4049 62.9919 28.7943 61.2057 25.8481C60.7292 25.8208 60.239 25.7296 59.7349 25.9256C58.9062 28.0059 57.3617 29.013 55.0783 28.8558C53.299 31.303 51.0639 33.1099 48.1936 34.0213C46.0069 32.9481 45.0148 31.2733 45.1736 28.849ZM60.476 13.6533C61.7443 16.1848 62.9021 18.4998 64.0623 20.8171C64.1773 20.808 64.2924 20.7988 64.4075 20.792C65.5423 17.4972 66.6794 14.2001 67.8349 10.8461C62.8722 10.8461 58.0522 10.8461 53.1033 10.8461C54.2566 14.1979 55.3867 17.4767 56.5146 20.7533C56.6481 20.7396 56.7793 20.7259 56.9128 20.7123C58.0637 18.4291 59.2193 16.1438 60.476 13.6533ZM65.3858 27.0603C66.6725 27.0557 67.7544 25.9894 67.7221 24.7612C67.6876 23.4807 66.6564 22.428 65.4111 22.4052C64.1313 22.3802 62.9735 23.5263 63.008 24.784C63.0426 26.035 64.1175 27.0649 65.3858 27.0603ZM55.7044 27.0261C56.9842 27.0352 58.043 25.9962 58.0361 24.7385C58.0292 23.4534 57.0233 22.4508 55.7182 22.4303C54.4177 22.4098 53.3266 23.4214 53.3243 24.6541C53.3197 25.9666 54.3739 27.0147 55.7044 27.0261ZM45.8227 27.0443C47.1256 27.0649 48.2419 25.9643 48.2281 24.6747C48.2166 23.4966 47.1348 22.4371 45.9378 22.4303C44.6442 22.4212 43.5808 23.4192 43.5416 24.686C43.5002 25.937 44.5544 27.0261 45.8227 27.0443ZM58.5034 21.7672C59.3136 22.3551 59.5139 23.1936 59.8615 23.8863C60.3771 23.925 60.7937 23.9843 61.261 23.802C61.4888 23.0819 61.894 22.4052 62.4096 21.7171C61.7098 20.5231 61.3047 19.197 60.407 17.9689C59.7441 19.2927 59.1525 20.4707 58.5034 21.7672Z" fill="currentColor"/>
<path d="M93.7561 27.1287C91.4267 27.1287 89.141 27.1287 86.8599 27.1287C86.7264 28.6439 87.4399 29.7353 88.7543 30.1067C90.3333 30.5533 91.4013 30.0407 92.2875 28.391C92.7295 28.391 93.1806 28.391 93.6364 28.391C93.42 30.0612 92.375 31.1891 90.7799 31.5081C88.7128 31.9227 86.7264 31.2597 85.8494 29.6784C84.7721 27.7348 84.664 25.6955 85.8218 23.7268C86.7425 22.1614 88.5724 21.4232 90.476 21.7422C92.0942 22.0156 93.397 23.4443 93.7722 25.4106C93.8712 25.921 93.9817 26.4519 93.7561 27.1287ZM92.1748 25.7069C91.8318 23.8043 90.7545 22.9339 89.1087 23.1093C87.7346 23.2574 86.8369 24.2873 86.8622 25.7069C88.6069 25.7069 90.3494 25.7069 92.1748 25.7069Z" fill="currentColor"/>
<path d="M102.549 24.6337C102.05 24.6337 101.635 24.6337 101.228 24.6337C100.404 23.1891 99.6373 22.82 98.0445 23.1162C97.4506 23.2256 96.9258 23.4671 96.8337 24.1416C96.7439 24.8001 97.2342 25.1327 97.736 25.3036C98.6383 25.6112 99.5752 25.8095 100.498 26.0533C102.374 26.5523 103.136 27.4044 103.037 28.8923C102.945 30.2686 101.882 31.2803 100.171 31.5058C98.9928 31.6631 97.7982 31.6881 96.6726 31.18C95.4987 30.6491 94.9623 29.7673 95.0245 28.4799C95.4641 28.325 95.9107 28.3592 96.3457 28.4503C97.1399 30.0544 98.4956 30.6377 100.238 30.1091C100.855 29.9222 101.368 29.5782 101.391 28.8604C101.412 28.186 100.952 27.826 100.376 27.6391C99.6143 27.3931 98.8386 27.1903 98.0583 27.0011C97.4598 26.8553 96.8751 26.6935 96.3411 26.3814C94.8311 25.5019 94.6677 23.581 96.0097 22.4782C97.2895 21.4278 100.231 21.3663 101.539 22.3643C102.231 22.8884 102.503 23.4739 102.549 24.6337Z" fill="currentColor"/>
<path d="M81.2089 18.3607C81.8188 18.2673 82.3391 18.2286 82.979 18.4131C82.979 20.9241 82.9859 23.4533 82.9743 25.9802C82.9697 26.8871 83.0043 27.8076 82.8731 28.7008C82.5715 30.7355 81.0385 31.852 78.8541 31.7336C76.4971 31.606 75.2748 30.4507 75.1689 28.2428C75.1528 27.9079 75.1666 27.5684 75.1666 27.2334C75.7306 26.9691 76.2554 27.1263 76.7157 27.099C77.0403 27.4613 76.9091 27.8236 76.9436 28.1494C77.1001 29.6897 77.7539 30.3163 79.1902 30.2684C80.4884 30.2252 81.1467 29.5142 81.1605 27.9944C81.1881 24.964 81.1697 21.9335 81.172 18.903C81.1697 18.7526 81.1904 18.6045 81.2089 18.3607Z" fill="currentColor"/>
<path d="M105.438 23.3532C104.855 23.3213 104.439 23.2986 104.022 23.2758C103.709 22.8975 103.826 22.4874 103.884 22.0818C104.312 21.7264 104.883 22.0932 105.415 21.7058C105.415 20.9289 105.415 20.0698 105.415 19.2108C105.981 18.9351 106.464 19.0855 107.083 19.0536C107.083 20.0129 107.083 20.9038 107.083 21.8426C107.781 21.895 108.343 21.936 108.943 21.9816C108.943 22.3871 108.943 22.7585 108.943 23.1413C108.419 23.4922 107.809 23.171 107.18 23.4102C107.18 25.5019 107.18 27.6324 107.18 29.74C107.691 30.198 108.331 29.9132 108.897 30.1547C109.077 30.533 108.973 30.9272 108.95 31.3031C108.448 31.5446 107.981 31.4581 107.532 31.4375C105.965 31.3715 105.479 30.9089 105.447 29.3572C105.408 27.3931 105.438 25.4267 105.438 23.3532Z" fill="currentColor"/>
</svg>
