<svg width="150" height="50" viewBox="0 0 150 50" fill="none" xmlns="http://www.w3.org/2000/svg">
<path d="M45.3316 11.8757C45.3316 11.8757 44.5168 10.5814 43.5652 11.1399C43.1044 11.4092 42.3197 12.1813 41.4114 13.2686C41.3513 13.3442 41.2846 13.4198 41.2178 13.5019C40.974 13.8008 40.7236 14.1195 40.4631 14.4612C40.1726 14.8455 39.8754 15.2529 39.5649 15.68C39.2844 16.0742 38.9972 16.4914 38.7101 16.9217C38.4663 17.2897 38.2259 17.6642 37.9821 18.0486C37.9721 18.065 37.9655 18.0748 37.9554 18.0913L37.9588 18.0978C37.9421 18.1241 37.9254 18.157 37.9053 18.1832C37.6516 18.5939 37.3944 19.0111 37.144 19.4382C36.8902 19.8718 36.6431 20.3088 36.3994 20.7588C36.1957 21.1366 35.9987 21.5177 35.7983 21.9021C35.7583 21.9776 35.7215 22.0597 35.6815 22.1353C35.4444 22.6182 35.224 23.088 35.0304 23.5381C34.81 24.0473 34.6163 24.5335 34.446 24.9934C34.3358 25.2956 34.2323 25.588 34.1388 25.8705C34.062 26.1103 33.9886 26.3535 33.9184 26.59C33.7548 27.1517 33.6146 27.7168 33.501 28.2785L33.5043 28.2851C33.4943 28.3081 33.491 28.3278 33.4843 28.3541C33.3474 29.0374 33.2473 29.7174 33.1972 30.4008C33.1972 30.4238 33.1905 30.45 33.1905 30.4698C32.8499 29.9277 31.9249 29.3988 31.9283 29.4021C32.5894 30.3449 33.0903 31.2746 33.1604 32.1912C32.8065 32.2602 32.3223 32.1583 31.768 31.9579C32.3524 32.4836 32.7865 32.6281 32.9568 32.6675C32.4225 32.7004 31.8682 33.0617 31.3039 33.479C32.1253 33.1472 32.7898 33.019 33.2639 33.1275C32.5093 35.2234 31.7546 37.5427 31 40C31.2304 39.9343 31.3673 39.7766 31.4475 39.5729C31.581 39.1294 32.4759 36.2056 33.875 32.3653C33.9151 32.2569 33.9585 32.1485 33.9952 32.0335C34.0052 32.0006 34.0186 31.9744 34.0286 31.9415C34.1789 31.5407 34.3325 31.1301 34.4894 30.7063C34.5295 30.6077 34.5595 30.5157 34.5996 30.4205V30.4139L34.5963 30.4073C34.7398 30.0263 34.8935 29.6419 35.0404 29.2477C35.0838 29.1393 35.1272 29.0309 35.1739 28.9159C35.3676 28.4297 35.5646 27.9369 35.7616 27.4375C35.9553 26.9612 36.1523 26.4849 36.356 26.0019C36.5597 25.519 36.77 25.0394 36.9771 24.5565C37.1908 24.0637 37.4111 23.5775 37.6382 23.088C37.8586 22.6051 38.089 22.1254 38.316 21.6458C38.3995 21.4717 38.4797 21.3042 38.5698 21.13C38.7134 20.8377 38.8604 20.5453 39.0106 20.2529C39.0173 20.2365 39.0273 20.2201 39.034 20.2036H39.0407C39.2844 19.7536 39.5182 19.3035 39.7552 18.86C40.0123 18.3902 40.2728 17.927 40.5299 17.4802C40.8004 17.0137 41.0742 16.5637 41.3546 16.1267C41.3713 16.1005 41.388 16.0742 41.4047 16.0512C41.6786 15.6274 41.949 15.22 42.2295 14.8291C42.7838 14.0439 43.3748 13.3245 43.9458 12.7102C43.6854 13.0026 43.1244 13.6892 42.353 14.8554C42.3497 14.8587 42.3464 14.8652 42.3431 14.8685C42.3397 14.8718 42.3364 14.8751 42.3364 14.8817C42.0926 15.2496 41.8288 15.6668 41.545 16.1333C41.5283 16.1596 41.5116 16.1826 41.5016 16.2089C41.2478 16.6261 40.984 17.0794 40.7035 17.5854C40.4598 18.019 40.2093 18.4789 39.9422 18.9815C39.7118 19.4119 39.4847 19.8685 39.2377 20.3515L39.2209 20.3547C39.2276 20.3777 39.221 20.3876 39.2143 20.3942C39.1809 20.4599 39.1542 20.519 39.1208 20.5847C39.0273 20.7785 38.9271 20.9756 38.8336 21.176C38.7301 21.3929 38.6232 21.6162 38.513 21.8429C38.4596 21.9579 38.4029 22.0696 38.3494 22.1911C38.1858 22.5427 38.0189 22.9073 37.8486 23.2785C37.6382 23.7385 37.4312 24.2148 37.2142 24.7141C37.0105 25.1839 36.8001 25.6767 36.593 26.1826C36.396 26.6655 36.1924 27.1583 35.9887 27.6708C35.8084 28.1241 35.6247 28.5972 35.4377 29.0801C35.4277 29.1031 35.421 29.1294 35.411 29.1491C35.2307 29.6255 35.0437 30.1182 34.8534 30.6209C34.8467 30.6307 34.8433 30.6439 34.8433 30.6537C34.8166 30.7293 34.7899 30.8016 34.7599 30.8771C34.6163 31.268 34.4694 31.6688 34.3258 32.0795C34.3258 32.0861 34.3191 32.0893 34.3191 32.0959C34.2957 32.155 34.2757 32.2109 34.259 32.27C34.1588 32.546 34.0787 32.7956 33.8783 33.3574C34.2022 33.5052 34.4627 33.883 34.7031 34.3167C34.6764 33.8666 34.4894 33.4461 34.1321 33.1209C35.7215 33.1899 37.1006 32.7956 37.8052 31.6491C37.8653 31.5473 37.9254 31.4389 37.9821 31.3239C37.6582 31.7247 37.2609 31.8988 36.5063 31.8561C37.6115 31.3699 38.1691 30.8968 38.66 30.1215C38.7769 29.9376 38.8904 29.7372 39.0073 29.5138C38.0389 30.4928 36.917 30.7687 35.7316 30.5585C35.7149 30.5519 35.6982 30.5519 35.6781 30.5486C36.74 30.4172 38.1491 29.6386 39.0573 28.6761C39.4747 28.2326 39.8554 27.7135 40.2093 27.0992C40.4731 26.6458 40.7169 26.1399 40.954 25.5781C41.1577 25.0919 41.3547 24.5597 41.5417 23.9848C41.2979 24.1097 41.0174 24.2017 40.7102 24.2674C40.6568 24.2772 40.6 24.2904 40.5466 24.3002C40.4932 24.3101 40.4364 24.3166 40.3763 24.3265C41.368 23.952 41.9891 23.2325 42.4399 22.3456C42.1828 22.5197 41.7587 22.7463 41.2512 22.8613C41.1844 22.8777 41.1143 22.8876 41.0408 22.9007C41.0241 22.9007 41.0074 22.9073 40.9874 22.9073C41.3279 22.766 41.6218 22.6084 41.8722 22.4211C41.9257 22.3817 41.9757 22.339 42.0258 22.2963C42.1026 22.2306 42.1761 22.1616 42.2462 22.0893C42.2896 22.04 42.333 21.9973 42.3798 21.948C42.48 21.8331 42.5734 21.7082 42.6536 21.5735C42.6803 21.5308 42.707 21.4914 42.7304 21.4487C42.7638 21.383 42.7972 21.3239 42.8239 21.2647C42.9608 20.9953 43.071 20.749 43.1611 20.5321C43.2045 20.4237 43.2446 20.3252 43.278 20.2332C43.288 20.1938 43.3047 20.1642 43.3181 20.1248C43.3514 20.0229 43.3848 19.931 43.4049 19.8488C43.4383 19.7306 43.4583 19.632 43.4717 19.563C43.4383 19.5893 43.4015 19.6156 43.3548 19.6386C43.0576 19.8127 42.5467 19.9737 42.1327 20.0492C42.126 20.0492 42.1227 20.0492 42.116 20.0558C42.0926 20.0591 42.0659 20.0657 42.0392 20.0689C42.8339 19.7043 43.1979 19.3758 43.5451 18.8961C43.6386 18.7647 43.7321 18.6268 43.8256 18.4789C44.1128 18.0387 44.3933 17.5591 44.6404 17.0762C44.8841 16.6097 45.0978 16.1497 45.2581 15.7391C45.3616 15.473 45.4451 15.2299 45.5052 15.0131C45.552 14.839 45.5853 14.6747 45.6154 14.517C45.6154 14.5104 45.6187 14.5039 45.6187 14.4973C45.6187 14.4907 45.6221 14.4809 45.6254 14.4743C45.6254 14.4743 45.6254 14.4743 45.6221 14.4743C45.9426 12.7266 45.3316 11.8757 45.3316 11.8757ZM44.0594 12.6149C44.1028 12.5656 44.1295 12.5393 44.1295 12.5393C44.1094 12.5656 44.0828 12.5853 44.0594 12.6149Z" fill="currentColor"/>
<path d="M46.8638 39.234C46.3997 39.234 45.9923 39.2077 45.6417 39.1585C45.2911 39.1157 44.9939 39.0632 44.7502 39.0008V36.2774C45.014 36.3332 45.2944 36.3825 45.5883 36.4252C45.8754 36.4679 46.1893 36.4876 46.5332 36.4876C46.8638 36.4876 47.1676 36.4515 47.4448 36.3825C47.732 36.3135 47.9791 36.1887 48.1861 36.0113C48.3998 35.8437 48.5667 35.6138 48.6803 35.3247C48.8005 35.0356 48.8639 34.6742 48.8639 34.2373V19.2537H52.1897V34.1322C52.1897 35.0192 52.0561 35.7846 51.7923 36.4252C51.5352 37.0658 51.1712 37.5947 50.6971 38.0086C50.233 38.4324 49.6753 38.7412 49.0242 38.9384C48.3698 39.1355 47.6518 39.234 46.8638 39.234Z" fill="currentColor"/>
<path d="M53.9697 19.2576V34.6945H56.9448V27.5132C56.9448 27.3161 56.9381 27.0959 56.9314 26.8496C56.9314 26.6032 56.9248 26.3469 56.9114 26.0808C56.9047 25.8147 56.8947 25.5454 56.8813 25.2694C56.8747 24.9934 56.8613 24.7273 56.848 24.4678C56.8179 23.8634 56.7845 23.2359 56.7411 22.5887H56.8379L60.2839 34.6978H63.3392L67.0523 22.6084H67.1391C67.1191 23.249 67.0957 23.8634 67.0656 24.4547C67.0589 24.7076 67.0456 24.9704 67.0322 25.2365C67.0256 25.5026 67.0189 25.7655 67.0122 26.0283C67.0055 26.2878 66.9988 26.5375 66.9922 26.7674C66.9922 27.0007 66.9922 27.2076 66.9922 27.3883V34.6978H70.0942V19.2608H65.563L61.9568 31.0644H61.8933L58.5041 19.2608H53.9697V19.2576ZM85.1235 20.3778L84.1785 22.868L82.3788 23.9488V25.3121H83.9415V31.002C83.9415 31.7609 84.0316 32.3949 84.2186 32.9041C84.4123 33.4034 84.6761 33.8042 85.0067 34.1065C85.3372 34.4021 85.7279 34.6124 86.1787 34.7339C86.6294 34.8522 87.1136 34.9113 87.6345 34.9113C88.1721 34.9113 88.6663 34.8621 89.1171 34.7569C89.5745 34.6584 89.9552 34.5303 90.2624 34.3759V31.9777C89.9619 32.0828 89.668 32.1715 89.3742 32.2438C89.087 32.3128 88.7832 32.3489 88.4593 32.3489C88.0887 32.3489 87.7848 32.2405 87.5577 32.0204C87.3273 31.8036 87.2172 31.4652 87.2172 31.0086V25.3187H90.1355V22.9008H87.2172V20.3877L85.1235 20.3778ZM76.7223 22.6676C75.9076 22.6676 75.1629 22.799 74.4918 23.0585C73.8273 23.318 73.253 23.7057 72.7722 24.228C72.3014 24.7405 71.9307 25.3877 71.6636 26.163C71.3998 26.9383 71.2662 27.8417 71.2662 28.8765C71.2662 29.8982 71.4131 30.7917 71.697 31.5506C71.9908 32.3029 72.3982 32.9304 72.9191 33.4297C73.44 33.9225 74.0644 34.2904 74.7856 34.5368C75.5069 34.7832 76.2983 34.908 77.1564 34.908C77.6005 34.908 78.0079 34.8916 78.3785 34.8588C78.7492 34.8292 79.0998 34.7832 79.4203 34.7109C79.7409 34.6419 80.0448 34.5532 80.3319 34.4547C80.6258 34.3496 80.9163 34.2247 81.2034 34.0769V31.5835C80.8895 31.7379 80.5823 31.8758 80.2818 31.9941C79.9813 32.1058 79.6741 32.2011 79.3669 32.2799C79.0597 32.3588 78.7425 32.4179 78.4152 32.4606C78.0947 32.4967 77.7508 32.5099 77.3868 32.5099C76.9494 32.5099 76.5587 32.4475 76.2148 32.3128C75.8775 32.1781 75.587 31.9875 75.3433 31.7412C75.1062 31.4882 74.9225 31.1794 74.789 30.8213C74.6587 30.4567 74.5886 30.0493 74.5753 29.5992H81.8913V28.0355C81.8913 27.1781 81.7711 26.4192 81.5273 25.7556C81.2902 25.0854 80.9497 24.5237 80.4989 24.0638C80.0548 23.6071 79.5105 23.2622 78.8661 23.0289C78.2283 22.7858 77.517 22.6676 76.7223 22.6676ZM96.4297 22.6676C95.615 22.6676 94.8704 22.799 94.1992 23.0585C93.5347 23.318 92.9604 23.7057 92.4796 24.228C92.0087 24.7405 91.6381 25.3877 91.371 26.163C91.1072 26.9383 90.9737 27.8417 90.9737 28.8765C90.9737 29.8982 91.1205 30.7917 91.4044 31.5506C91.6982 32.3029 92.1056 32.9304 92.6265 33.4297C93.1474 33.9225 93.7718 34.2904 94.493 34.5368C95.2143 34.7832 96.0057 34.908 96.8638 34.908C97.3079 34.908 97.7153 34.8916 98.0859 34.8588C98.4566 34.8292 98.8072 34.7832 99.1277 34.7109C99.4483 34.6419 99.7521 34.5532 100.039 34.4547C100.333 34.3496 100.624 34.2247 100.911 34.0769V31.5835C100.597 31.7379 100.29 31.8758 99.9892 31.9941C99.6887 32.1058 99.3815 32.2011 99.0743 32.2799C98.7671 32.3588 98.4499 32.4179 98.1227 32.4606C97.8021 32.4967 97.4582 32.5099 97.0942 32.5099C96.6568 32.5099 96.2661 32.4475 95.9222 32.3128C95.5849 32.1781 95.2978 31.9875 95.054 31.7412C94.817 31.4882 94.6299 31.1794 94.493 30.8213C94.3628 30.4567 94.2927 30.0493 94.2793 29.5992H101.595V28.0355C101.595 27.1781 101.475 26.4192 101.231 25.7556C100.994 25.0854 100.654 24.5237 100.203 24.0638C99.7588 23.6071 99.2146 23.2622 98.5701 23.0289C97.9357 22.7858 97.2211 22.6676 96.4297 22.6676ZM108.734 22.6676C108.334 22.6676 107.976 22.7168 107.662 22.8154C107.355 22.9074 107.075 23.0388 106.824 23.2162C106.581 23.3837 106.364 23.5973 106.163 23.8436C105.963 24.09 105.776 24.3594 105.602 24.6649H105.439L104.954 22.8942H102.477V34.6978H105.749V28.6892C105.749 28.1341 105.819 27.6643 105.953 27.2832C106.096 26.8956 106.293 26.5868 106.544 26.3535C106.801 26.1137 107.108 25.9429 107.459 25.8377C107.816 25.7326 108.203 25.6768 108.624 25.6768C108.694 25.6768 108.784 25.6833 108.895 25.6899C109.001 25.6899 109.108 25.6965 109.215 25.7096C109.329 25.7162 109.439 25.7293 109.539 25.7425C109.639 25.7556 109.716 25.772 109.773 25.7852V22.7628C109.729 22.7497 109.666 22.7398 109.579 22.7333C109.499 22.7201 109.409 22.707 109.309 22.7004C109.215 22.6873 109.118 22.6807 109.008 22.6807C108.915 22.6708 108.818 22.6676 108.734 22.6676ZM76.7424 24.9606C77.0863 24.9606 77.3868 25.023 77.6439 25.1511C77.901 25.2793 78.1181 25.4501 78.2883 25.6768C78.4586 25.8936 78.5855 26.1564 78.6724 26.4586C78.7592 26.7609 78.8059 27.0927 78.8126 27.4507H74.6354C74.6922 26.5933 74.9092 25.9626 75.2898 25.5618C75.6805 25.161 76.1614 24.9606 76.7424 24.9606ZM96.4498 24.9606C96.7937 24.9606 97.0942 25.023 97.3513 25.1511C97.6084 25.2793 97.8255 25.4501 97.9958 25.6768C98.1661 25.8936 98.2929 26.1564 98.3798 26.4586C98.4666 26.7609 98.5133 27.0927 98.52 27.4507H94.3428C94.3996 26.5933 94.6166 25.9626 94.9972 25.5618C95.3879 25.161 95.8688 24.9606 96.4498 24.9606Z" fill="currentColor"/>
<path d="M113.065 22.638H112.337V19.8489H111.472V19.251H113.927V19.8489H113.065V22.638Z" fill="currentColor"/>
<path d="M115.843 22.638L115.088 19.9803H115.068C115.078 20.1216 115.085 20.2595 115.092 20.3942C115.095 20.4501 115.098 20.5092 115.098 20.5716C115.102 20.6308 115.105 20.6899 115.105 20.749C115.108 20.8082 115.108 20.864 115.108 20.9166C115.108 20.9691 115.112 21.0184 115.112 21.0611V22.638H114.461V19.251H115.456L116.2 21.8397H116.214L117.005 19.251H118V22.638H117.319V21.0348C117.319 20.9954 117.319 20.9494 117.319 20.8969C117.319 20.8443 117.322 20.7917 117.322 20.7359C117.322 20.68 117.326 20.6209 117.326 20.5618C117.329 20.5026 117.332 20.4468 117.332 20.3909C117.339 20.2628 117.346 20.1248 117.349 19.9869H117.329L116.514 22.6413H115.843" fill="currentColor"/>
<path d="M48.8175 16.8819L51.1682 11.3562H51.6223L53.973 16.8819H53.382L52.6541 15.1572H50.1264L49.4051 16.8819C49.4018 16.8819 48.8175 16.8819 48.8175 16.8819ZM51.3953 11.9936L50.2432 14.7235H52.5205L51.3953 11.9936Z" fill="currentColor"/>
<path d="M54.5707 16.8819V11.3562H56.8981C57.8597 11.3562 58.5576 12.2334 58.5576 13.0908C58.5576 13.9909 57.9098 14.8418 56.9448 14.8418H55.1183V16.8819H54.5707ZM55.1183 14.3589H56.9148C57.5759 14.3589 58.0066 13.7577 58.0066 13.0941C58.0066 12.4009 57.4858 11.8425 56.868 11.8425H55.1183V14.3589Z" fill="currentColor"/>
<path d="M58.2504 16.8819L60.6011 11.3562H61.0553L63.406 16.8819H62.8049L62.077 15.1572H59.556L58.8348 16.8819H58.2504ZM60.8282 11.9936L59.6762 14.7235H61.9535L60.8282 11.9936Z" fill="currentColor"/>
<path d="M66.0539 11.3237C67.049 11.3237 67.7802 11.8198 68.1275 12.5293L67.6834 12.7922C67.3261 12.0596 66.6282 11.8132 66.0238 11.8132C64.6782 11.8132 63.9469 12.9958 63.9469 14.1062C63.9469 15.325 64.8585 16.4321 66.0506 16.4321C66.685 16.4321 67.4296 16.1233 67.7802 15.4039L68.2377 15.6371C67.8771 16.4617 66.8787 16.9216 66.0172 16.9216C64.4778 16.9216 63.3893 15.4728 63.3893 14.0734C63.3893 12.7495 64.361 11.3237 66.0539 11.3237Z" fill="currentColor"/>
<path d="M73.4366 11.3562V16.8819H72.8823V14.2965H69.5533V16.8819H69.009V11.3562H69.5533V13.8135H72.8823V11.3562H73.4366Z" fill="currentColor"/>
<path d="M78.4751 16.399V16.8819H74.7052V11.3562H78.405V11.8392H75.2495V13.8333H78.0009V14.2932H75.2495V16.399H78.4751Z" fill="currentColor"/>
</svg>
