<svg width="150" height="50" viewBox="0 0 150 50" fill="none" xmlns="http://www.w3.org/2000/svg">
<path d="M92.7436 24.8926C92.7727 17.2847 98.9347 11.1518 106.513 11.1906C114.073 11.2294 120.222 17.4238 120.183 24.9605C120.144 32.5425 113.992 38.656 106.426 38.6269C98.8474 38.601 92.7177 32.4455 92.7436 24.8926ZM100.339 33.2412C100.685 33.4676 101.047 33.6294 101.429 33.7458C103.137 34.2763 104.88 34.396 106.653 34.2051C109.506 33.8978 112.051 32.329 112.433 28.6771C112.74 25.7465 111.233 23.3529 108.512 22.6348C107.096 22.2628 105.66 22.3113 104.227 22.5539C104.052 22.583 103.877 22.6542 103.667 22.5669C103.806 21.0498 103.945 19.536 104.088 17.9963C106.468 17.9963 108.794 17.9963 111.136 17.9963C111.136 17.1035 111.136 16.2399 111.136 15.3665C107.898 15.3665 104.683 15.3665 101.435 15.3665C101.196 18.42 100.96 21.4574 100.723 24.4785C101.202 24.76 101.636 25.0187 102.069 25.271C102.14 25.2549 102.202 25.2452 102.26 25.2322C103.696 24.9573 105.132 24.7308 106.594 25.0058C107.558 25.1902 108.419 25.5622 108.939 26.4549C110.149 28.5348 108.998 31.1452 106.653 31.6303C105.045 31.9635 103.479 31.708 101.94 31.2293C101.406 31.0643 100.898 30.8249 100.345 30.605C100.339 31.501 100.339 32.3517 100.339 33.2412Z" fill="currentColor"/>
<path d="M53.7208 15.4215C54.1607 15.4215 54.5554 15.4215 54.9597 15.4215C55.0503 15.4798 55.0179 15.58 55.0179 15.6674C55.0179 19.7171 55.0211 23.7637 55.0114 27.8135C55.0082 28.8033 54.8303 29.7672 54.4292 30.6761C53.6238 32.4972 52.2038 33.6035 50.2953 34.0757C48.7686 34.4542 47.2224 34.4607 45.6957 34.0854C43.0465 33.432 41.3095 31.2907 41.1154 28.4863C41.0798 27.9817 41.0636 27.4738 41.0636 26.9692C41.0604 23.3044 41.0604 19.6395 41.0604 15.9714C41.0604 15.8032 41.0604 15.6383 41.0604 15.4442C41.5068 15.3827 41.9241 15.4086 42.3381 15.4248C42.4254 15.6027 42.3866 15.7741 42.3866 15.9391C42.3931 19.9403 42.3737 23.9448 42.406 27.9461C42.4254 30.4788 43.8196 32.3258 46.0968 32.9371C47.41 33.2897 48.7362 33.293 50.0495 32.9468C52.0614 32.4164 53.3974 30.8314 53.6335 28.758C53.6917 28.2372 53.7176 27.7197 53.7176 27.1989C53.7143 23.4564 53.7176 19.7139 53.7176 15.9714C53.7208 15.8065 53.7208 15.6383 53.7208 15.4215Z" fill="currentColor"/>
<path d="M60.9826 34.079C60.6074 34.079 60.2289 34.079 59.8149 34.079C59.8149 29.4664 59.8149 24.8602 59.8149 20.225C60.1319 20.225 60.4618 20.225 60.8435 20.225C60.9244 20.8202 61.0085 21.4315 61.0958 22.0429C61.1508 22.0332 61.1929 22.0396 61.2026 22.0234C62.1762 20.5905 63.6253 20.0794 65.262 19.95C65.9672 19.895 66.6723 19.9112 67.371 20.0535C69.3248 20.4579 70.5054 21.8714 70.6607 23.9933C70.7965 25.8468 70.7059 27.7035 70.7221 29.5602C70.7351 31.0481 70.7254 32.5328 70.7254 34.0434C70.321 34.1501 69.9264 34.0693 69.5382 34.0984C69.4024 33.9431 69.4638 33.7652 69.4638 33.6067C69.4606 30.799 69.4574 27.9946 69.4606 25.1869C69.4606 24.5853 69.4186 23.9933 69.273 23.4079C68.9722 22.2111 68.2411 21.4444 67.0152 21.2083C65.7375 20.9625 64.4793 21.0369 63.2792 21.5706C61.9465 22.1593 61.4225 23.3173 61.1799 24.6564C61.057 25.339 61.0441 26.0279 61.0441 26.7202C61.0408 29.007 61.0441 31.2907 61.0408 33.5776C61.0441 33.7361 61.0861 33.9108 60.9826 34.079Z" fill="currentColor"/>
<path d="M34.7787 15.4312C35.2251 15.4312 35.6327 15.4312 36.0402 15.4312C36.1276 15.5639 36.0888 15.7029 36.0888 15.8388C36.092 21.852 36.092 27.8652 36.0888 33.8752C36.0888 34.5027 36.0693 35.1335 35.927 35.7481C35.4839 37.6533 34.2256 38.6754 32.1878 38.7951C31.2659 38.8501 30.5187 38.7466 29.8168 38.4619C29.8168 38.1126 29.8168 37.7503 29.8168 37.3557C30.4863 37.4786 31.1559 37.6144 31.8384 37.5918C33.6434 37.5336 34.6687 36.5276 34.7593 34.7227C34.7755 34.4154 34.7755 34.1081 34.7755 33.804C34.7755 27.8523 34.7755 21.9005 34.7755 15.952C34.7787 15.7838 34.7787 15.6188 34.7787 15.4312Z" fill="currentColor"/>
<path d="M82.4801 20.1926C83.8807 20.1926 85.1939 20.1926 86.5298 20.1926C86.6204 20.5549 86.5622 20.901 86.5654 21.2924C85.2101 21.2924 83.871 21.2924 82.5512 21.2924C82.5189 21.3668 82.4995 21.3927 82.4995 21.4218C82.5059 24.5174 82.5124 27.6162 82.5221 30.7117C82.5221 31.0352 82.59 31.3489 82.6838 31.6595C82.9944 32.6945 83.6154 33.1765 84.6926 33.2056C85.4139 33.225 86.1287 33.183 86.8759 33.0212C86.8759 33.3512 86.8759 33.6649 86.8759 34.024C86.2225 34.3054 85.4915 34.328 84.7605 34.341C84.3173 34.3507 83.871 34.3022 83.4408 34.1825C82.1178 33.817 81.3415 32.7528 81.238 31.1322C81.1345 29.5084 81.2024 27.8814 81.1927 26.2576C81.183 24.6209 81.1894 22.9841 81.1894 21.3151C80.5005 21.3151 79.8471 21.3151 79.1613 21.3151C79.1613 21.0498 79.1613 20.8169 79.1613 20.5484C79.8277 20.3576 80.4972 20.1668 81.1894 19.9694C81.4029 18.9279 81.6132 17.8993 81.8267 16.8707C82.0401 16.7866 82.2342 16.8383 82.4736 16.8221C82.4801 17.951 82.4801 19.0476 82.4801 20.1926Z" fill="currentColor"/>
<path d="M75.2409 20.2217C75.6582 20.2217 76.0496 20.2217 76.4539 20.2217C76.4539 24.8473 76.4539 29.4502 76.4539 34.0725C76.0399 34.0725 75.6517 34.0725 75.2409 34.0725C75.2409 29.4502 75.2409 24.857 75.2409 20.2217Z" fill="currentColor"/>
<path d="M75.0339 16.3693C75.0565 16.1461 75.0565 15.9423 75.1051 15.7515C75.1924 15.4021 75.38 15.1369 75.7876 15.1207C76.1757 15.1045 76.4345 15.2824 76.5639 15.6383C76.7386 16.117 76.7353 16.6022 76.5477 17.0712C76.4151 17.3947 76.1725 17.579 75.7973 17.5629C75.4124 17.5467 75.215 17.3138 75.1245 16.9806C75.0663 16.7768 75.0598 16.5601 75.0339 16.3693Z" fill="currentColor"/>
</svg>
