<svg width="150" height="50" viewBox="0 0 150 50" fill="none" xmlns="http://www.w3.org/2000/svg">
<path d="M44.8691 30.8359C44.0608 30.3707 43.2822 29.9253 42.431 29.437C41.339 30.7666 39.927 31.5254 38.2642 31.8949C38.2642 32.8352 38.2642 33.7292 38.2642 34.6101C41.8405 36.4807 43.0942 38.5856 42.3452 41.4294C41.7085 43.8411 39.5146 45.5105 36.9907 45.5006C34.5659 45.4907 32.2928 43.6894 31.7781 41.37C31.115 38.3876 32.3389 36.3488 35.8657 34.62C35.8657 33.7688 35.8657 32.8978 35.8657 31.9708C32.2763 30.892 29.99 28.6486 30.1384 24.6797C30.2737 21.0638 32.4841 19.0249 35.8525 18.0385C35.8525 17.1279 35.8525 16.2372 35.8525 15.3728C32.3818 13.6605 31.0556 11.4732 31.7583 8.68873C32.4082 6.1121 34.6549 4.40974 37.2844 4.50212C39.8148 4.59449 42.0054 6.4816 42.4178 8.93287C42.9061 11.8295 41.4941 14.0366 38.2774 15.3398C38.1751 16.2075 38.2015 17.0982 38.2576 18.0649C39.8808 18.4608 41.3027 19.2064 42.4409 20.5393C43.2393 20.0873 44.0179 19.6419 44.8625 19.1635C44.4303 17.2929 44.6579 15.5444 45.8687 14.0234C46.6242 13.0733 47.6272 12.4597 48.805 12.1693C51.3486 11.5425 53.8988 12.7764 55.0535 15.1748C56.1324 17.415 55.456 20.206 53.4535 21.783C51.309 23.4722 48.6334 23.2742 46.0205 21.1826C45.2749 21.6049 44.4996 22.0437 43.6484 22.5286C44.1532 24.165 44.2126 25.7981 43.6055 27.4411C44.4534 27.926 45.232 28.3714 45.9908 28.8036C48.3893 26.6328 51.4443 26.4546 53.7504 28.4836C55.6936 30.1958 56.1159 33.0859 54.8292 35.26C53.4733 37.5496 50.702 38.5592 48.2441 37.6486C46.1063 36.8568 44.0311 34.5276 44.8691 30.8359ZM40.6825 25.1185C40.7584 23.1489 39.1913 21.4762 37.1689 21.3706C35.2851 21.2717 33.5233 22.9113 33.4574 24.8215C33.3947 26.834 34.9486 28.5397 36.9215 28.6156C38.8943 28.6914 40.6099 27.098 40.6825 25.1185ZM39.541 40.0768C39.5476 38.6812 38.4061 37.5331 37.0303 37.5529C35.7008 37.5727 34.5692 38.7208 34.5725 40.0537C34.5725 41.3931 35.714 42.5247 37.0534 42.5182C38.4325 42.5116 39.5344 41.4327 39.541 40.0768ZM39.5311 10.0678C39.6037 8.67883 38.5974 7.55382 37.2118 7.48124C35.7997 7.40866 34.6384 8.45779 34.5791 9.86323C34.523 11.1895 35.6216 12.3739 36.9577 12.43C38.3005 12.4893 39.4585 11.4237 39.5311 10.0678ZM52.5891 32.5613C52.6056 31.2186 51.4971 30.0639 50.1642 30.0375C48.8149 30.0111 47.6404 31.1262 47.6239 32.4459C47.6041 33.881 48.6862 34.9994 50.0949 34.9994C51.4839 34.9961 52.5726 33.9371 52.5891 32.5613ZM50.0718 14.9802C48.7159 15.0066 47.5909 16.1547 47.6272 17.4777C47.6668 18.8963 48.7885 19.985 50.1873 19.9586C51.5004 19.9355 52.6254 18.7412 52.5924 17.4084C52.5561 16.059 51.4146 14.9571 50.0718 14.9802Z" fill="currentColor"/>
<path d="M116.992 22.4198C117.206 22.0272 116.926 21.5818 117.167 21.1397C118.021 21.0275 118.912 21.0935 119.869 21.0902C119.869 25.0228 119.869 28.896 119.869 32.8253C118.978 33.0001 118.087 32.855 117.252 32.9077C116.88 32.5152 117.239 32.0302 116.965 31.6739C114.088 33.8579 110.789 33.7325 108.724 31.3802C106.606 28.9719 106.646 24.8446 108.806 22.5748C111.007 20.2588 114.283 20.1862 116.992 22.4198ZM117.087 26.9363C117.064 24.9172 115.524 23.4029 113.504 23.4161C111.502 23.4293 109.918 25.0954 109.978 27.1145C110.04 29.1071 111.637 30.6379 113.627 30.6049C115.593 30.572 117.11 28.962 117.087 26.9363Z" fill="currentColor"/>
<path d="M83.9046 31.5551C81.4896 33.7754 78.141 33.8183 75.9437 31.7201C73.598 29.4799 73.3968 25.2537 75.5148 22.7926C77.6725 20.2885 80.9155 20.1302 83.9046 22.4264C84.1223 22.0272 83.8551 21.5851 84.0629 21.1397C84.9174 21.1397 85.8049 21.1397 86.7649 21.1397C86.7649 25.0228 86.7649 28.896 86.7649 32.8418C85.884 32.8418 84.9966 32.8418 84.0992 32.8418C83.8155 32.4624 84.1058 32.0071 83.9046 31.5551ZM80.4669 30.5983C82.476 30.5884 84.0035 28.9884 83.9837 26.9033C83.9672 24.9568 82.4035 23.4029 80.4603 23.4029C78.4742 23.4029 76.9137 24.9634 76.9038 26.9627C76.8939 29.0444 78.428 30.6082 80.4669 30.5983Z" fill="currentColor"/>
<path d="M70.2296 21.1364C71.4008 21.1364 72.44 21.1364 73.664 21.1364C71.9914 22.9179 70.4309 24.5774 68.8044 26.3128C70.3979 28.4605 71.9881 30.5983 73.6508 32.8385C72.5324 32.8385 71.5229 32.8385 70.3979 32.8385C69.1541 31.1295 67.8542 29.3447 66.5544 27.5598C66.4752 27.5829 66.396 27.6027 66.3168 27.6258C66.3168 29.3414 66.3168 31.0536 66.3168 32.7956C65.3007 33.0001 64.4132 32.855 63.4598 32.9143C63.4598 27.5862 63.4598 22.3538 63.4598 17.0752C64.3934 17.0752 65.2809 17.0752 66.2673 17.0752C66.2673 19.8233 66.2673 22.5187 66.2673 25.2174C66.3267 25.2438 66.3894 25.2702 66.4488 25.2966C67.7124 23.9011 68.9759 22.5121 70.2296 21.1364Z" fill="currentColor"/>
<path d="M106.761 32.8649C105.567 32.8649 104.557 32.8649 103.505 32.8649C102.192 31.047 100.879 29.2325 99.5689 27.418C99.5095 27.4378 99.4501 27.4609 99.394 27.4807C99.394 29.2424 99.394 31.0041 99.394 32.8385C98.4241 32.8385 97.5366 32.8385 96.5733 32.8385C96.5733 27.6159 96.5733 22.3802 96.5733 17.0818C97.4541 17.0818 98.3416 17.0818 99.3215 17.0818C99.3215 19.7838 99.3215 22.489 99.3215 25.191C99.3907 25.2306 99.46 25.2669 99.5293 25.3065C100.813 23.9077 102.093 22.5088 103.343 21.1463C104.465 21.1463 105.534 21.1463 106.761 21.1463C105.088 22.9278 103.528 24.5939 101.911 26.3161C103.508 28.4737 105.092 30.6115 106.761 32.8649Z" fill="currentColor"/>
<path d="M88.5036 21.1859C89.0215 20.9945 89.4636 21.2057 89.9222 20.9648C89.9585 19.764 89.9552 18.4938 91.0472 17.6228C92.0567 16.8178 93.2609 16.7782 94.4981 16.7386C94.8016 17.4513 94.5608 18.1309 94.6532 18.7742C92.9046 19.3318 92.7331 19.5495 92.8485 20.9879C93.1158 21.1826 93.4292 21.0539 93.7195 21.0869C93.9834 21.1166 94.2606 21.0242 94.5806 21.2123C94.7324 21.8193 94.6037 22.4759 94.6532 23.1126C94.0857 23.5514 93.4259 23.1423 92.8188 23.4359C92.8188 26.5206 92.8188 29.6251 92.8188 32.8484C91.8555 32.9374 90.9482 32.9341 89.9519 32.8385C89.9519 29.6581 89.9519 26.5338 89.9519 23.3699C89.4537 23.3369 89.038 23.3105 88.5992 23.2808C88.4145 22.5781 88.563 21.8952 88.5036 21.1859Z" fill="currentColor"/>
</svg>
