<svg width="150" height="50" viewBox="0 0 150 50" fill="none" xmlns="http://www.w3.org/2000/svg">
<path fill-rule="evenodd" clip-rule="evenodd" d="M74.4833 4.11452C73.5488 4.18667 72.7794 4.25417 72.7724 4.26115C72.6166 4.44269 71.5869 6.29071 71.5915 6.37683C71.5962 6.43967 71.6961 7.13326 71.817 7.91762L72.0355 9.34669L72.4562 9.93089C72.6887 10.2521 72.8886 10.529 72.9049 10.5453C72.9188 10.5616 73.5116 10.6105 74.2206 10.6547C76.0942 10.7711 76.0779 10.6896 74.374 11.3856C73.579 11.7114 72.8747 12.007 72.8096 12.0419C72.7003 12.1024 72.5725 12.1024 71.2405 12.0535L69.7923 12L68.7718 12.554C67.7559 13.1056 67.7467 13.1125 66.9749 13.7596L66.2008 14.4113L66.2031 14.8093C66.2078 15.9474 66.3147 18.1795 66.3659 18.2283C66.868 18.7008 68.544 19.6388 68.7067 19.5387C68.7578 19.5085 75.5549 19.676 75.7014 19.7133C75.7874 19.7342 75.1528 19.9693 72.612 20.8537L69.4134 21.9663L69.0833 22.6878L68.7532 23.4093L69.8876 24.1122L71.022 24.8151L74.2927 24.8733L77.5633 24.9315L78.2654 24.3473C78.6512 24.0261 78.9744 23.7584 78.9837 23.7514C78.993 23.7445 79.0325 22.9461 79.072 21.9802C79.1115 21.012 79.1487 20.1741 79.1557 20.1159L79.1673 20.0112L80.7155 20.4883C81.5663 20.7513 82.2985 20.9655 82.3427 20.9655C82.4333 20.9655 86.3363 19.7691 86.3851 19.7249C86.42 19.6947 85.8667 15.7542 85.8202 15.703C85.8063 15.6867 85.2414 15.8869 84.565 16.1476C83.8885 16.4083 83.3213 16.6084 83.3074 16.5921C83.2911 16.5782 82.9587 16.0382 82.5682 15.3935L81.8568 14.2228L80.8666 13.6665L79.8763 13.1102L78.0631 12.7332L76.25 12.3561V12.2374C76.25 11.858 76.3825 10.8386 76.4429 10.7711C76.5498 10.6501 76.8404 10.5244 77.2425 10.4266C77.4494 10.3754 77.6308 10.3172 77.6447 10.2963C77.7633 10.1148 77.8562 8.34588 77.8121 7.10766C77.7563 5.55058 77.7586 5.53661 78.084 4.87328C78.3072 4.41477 78.3119 4.3077 78.1119 4.20529C77.6493 3.96091 76.7265 3.93996 74.4833 4.11452ZM87.6218 13.1265L87.2708 13.5664L87.3196 14.2996C87.3475 14.7301 87.3545 15.0444 87.3335 15.063C87.3149 15.0793 87.0174 15.2003 86.6757 15.3283L86.0527 15.5634L86.1829 15.7426C86.2549 15.8427 86.4688 16.1499 86.6594 16.4292C86.85 16.7085 87.0197 16.9366 87.0383 16.9366C87.0709 16.9366 90.7367 15.3935 90.76 15.3725C90.7716 15.3609 90.6693 13.6944 90.6298 13.2871L90.6065 13.0357L90.402 12.9426C90.1509 12.8286 89.7395 12.7774 88.8282 12.7448C88.447 12.7308 88.0983 12.7145 88.0541 12.7052C87.9914 12.6913 87.8961 12.7844 87.6218 13.1265ZM88.9049 14.5067C89.8185 15.1049 89.7581 15.063 89.7302 15.0909C89.6976 15.1235 88.182 15.5517 88.1634 15.5355C88.1518 15.5238 87.9937 14.0785 87.9914 13.9458C87.9937 13.9039 87.924 13.862 88.9049 14.5067ZM78.2933 16.1569C78.2793 16.2965 78.2072 16.7201 78.1329 17.1018C78.0561 17.4812 77.9748 17.9467 77.9492 18.1306C77.9236 18.3168 77.9004 18.4704 77.8958 18.4751C77.7447 18.6077 76.3453 19.6807 76.336 19.6691C76.3174 19.6504 78.2677 15.9055 78.2956 15.9055C78.3072 15.9032 78.3072 16.0172 78.2933 16.1569ZM67.8489 26.0743C67.842 26.0882 67.8048 26.1976 67.7676 26.3186C67.7304 26.4397 67.5398 26.9401 67.3445 27.4335L66.9888 28.3296L65.966 29.6609C65.4035 30.3917 64.5225 31.4857 64.0041 32.0885C63.1417 33.0939 60.5428 36.6271 57.6696 40.6955L57.5836 40.8188L58.0973 41.2448C58.5251 41.6009 58.6041 41.6823 58.5739 41.7405C58.4972 41.8825 57.9323 42.3806 57.221 42.9275C56.8165 43.2394 56.4399 43.535 56.3795 43.5839C56.233 43.7096 55.9866 44.324 56.0006 44.5358C56.0261 44.878 56.0471 44.8826 57.7603 44.8826C58.5715 44.8826 59.3433 44.8942 59.4712 44.9059L59.7059 44.9292L60.0128 44.4497C60.1825 44.1867 60.3196 43.9516 60.3196 43.9283C60.3196 43.9051 59.9338 43.3651 59.4642 42.7297C58.9946 42.0943 58.6157 41.566 58.6227 41.5566C58.6297 41.5473 59.3782 41.6474 60.2824 41.7778L61.9259 42.0128L62.6744 41.9174L63.4229 41.822L63.6624 41.6009C66.3403 39.1198 68.7299 36.7225 70.7291 34.516C72.4772 32.5889 72.8073 32.2398 72.8979 32.2398C72.956 32.2398 73.5511 32.2211 74.2229 32.1955L75.441 32.1513L77.8958 33.7084C79.2463 34.5649 80.3807 35.2957 80.4179 35.3306C80.4551 35.3679 81.2176 36.897 82.1149 38.7334C83.0121 40.5698 83.7583 42.0827 83.7746 42.1013C83.7909 42.1176 84.3465 42.1781 85.009 42.2386L86.2131 42.3457L87.7984 42.199C88.6702 42.1176 89.4233 42.0571 89.4745 42.064C89.5651 42.0757 90.4159 41.6079 90.4159 41.5473C90.4159 41.3798 89.9766 40.3417 89.1909 38.6496C88.4517 37.06 88.3563 36.8226 88.1541 36.0545C87.8008 34.7232 87.4614 34.2856 84.9392 31.9209C83.591 30.6571 83.6839 30.7572 81.6499 28.4343C80.7271 27.38 79.9507 26.5258 79.9251 26.5351C78.9999 26.847 78.5071 26.9564 77.6354 27.0402C77.1449 27.0867 76.7381 27.1286 76.7335 27.1309C76.7288 27.1333 77.0101 27.7314 77.3611 28.4599C77.7121 29.1884 77.9864 29.7936 77.9725 29.8075C77.9585 29.8215 77.4611 29.8331 76.8683 29.8331H75.7897L75.7246 29.0185C75.6874 28.5693 75.6572 28.1667 75.6549 28.1201C75.6502 28.0131 74.3694 27.0867 74.2927 27.1356C74.1509 27.2217 72.9467 28.1178 72.9258 28.1527C72.9119 28.1736 72.863 28.5647 72.8166 29.0185C72.7701 29.4724 72.7212 29.8564 72.7073 29.8704C72.6748 29.903 70.2502 29.9844 70.22 29.9542C70.2084 29.9425 70.3804 29.4677 70.6059 28.9022L71.015 27.8734L71.3474 27.4824L71.6798 27.0914L70.478 26.7841C69.8178 26.6142 68.9578 26.3792 68.5696 26.2605C68.179 26.1464 67.8559 26.0626 67.8489 26.0743ZM88.7143 43.3232C87.8659 44.5987 87.9193 44.4916 88.0495 44.6662C88.2355 44.9105 88.6492 44.9617 90.6832 44.992C92.9823 45.0246 93.4425 44.9687 93.7935 44.615C94.2956 44.1076 93.9446 43.8259 92.0431 43.2185C90.3508 42.6762 89.7697 42.4527 89.5582 42.2572L89.4745 42.1804L88.7143 43.3232Z" fill="currentColor"/>
</svg>
