<svg width="150" height="50" viewBox="0 0 150 50" fill="none" xmlns="http://www.w3.org/2000/svg">
<path d="M31.3663 25.793C31.4765 25.7627 31.5752 25.7 31.6505 25.6133C31.8615 25.3695 31.8368 24.9988 31.5954 24.7858V24.7704L29.004 22.4379V22.4359C28.2147 23.7321 27.8759 25.257 28.0408 26.7695L31.3663 25.8038V25.793Z" fill="currentColor"/>
<path d="M33.1858 23.2629C33.5062 23.2766 33.7772 23.0259 33.7912 22.702H33.8064L34.0009 19.2145C33.7665 19.2402 33.5337 19.278 33.3034 19.3274C32.07 19.6072 30.9382 20.2292 30.0363 21.1235L32.8695 23.1508C32.9616 23.2189 33.0719 23.2579 33.1858 23.2629Z" fill="currentColor"/>
<path d="M35.9717 23.0574C36.172 23.3103 36.5377 23.3514 36.7881 23.1492L39.5955 21.1351C38.5245 20.076 37.1381 19.4009 35.6501 19.2145L35.8447 22.6999C35.8467 22.8299 35.8915 22.9557 35.9717 23.0574Z" fill="currentColor"/>
<path d="M31.9319 27.8054L31.9253 27.8121C31.887 27.8083 31.8488 27.8083 31.8109 27.8121L28.4122 28.3962C28.9213 29.8166 29.8788 31.0281 31.1373 31.8447L32.4566 28.6358V28.6225C32.4863 28.5523 32.5023 28.4768 32.5035 28.4004C32.5089 28.077 32.2526 27.8104 31.9319 27.8054Z" fill="currentColor"/>
<path d="M33.8583 26.8223L34.8128 27.2844L35.7629 26.8223L36.0002 25.7843L35.3524 24.956H34.2942L33.6337 25.7822L33.8583 26.8223Z" fill="currentColor"/>
<path d="M35.3351 29.521C35.2294 29.3258 35.0242 29.2071 34.8037 29.2137V29.2225C34.5989 29.2258 34.4114 29.3375 34.3094 29.5168L32.638 32.5688C33.8348 32.9807 35.1216 33.0475 36.3542 32.7627C36.5804 32.7108 36.8037 32.6477 37.0238 32.573L35.3483 29.521H35.3351Z" fill="currentColor"/>
<path d="M50.5957 28.8643L47.8792 16.9403C47.7357 16.3134 47.3166 15.7869 46.7412 15.5104L35.7372 10.2197C35.4201 10.0624 35.0689 9.98724 34.7156 10.0018C34.4327 10.0188 34.1559 10.0927 33.9017 10.2197L22.8891 15.5258C22.3133 15.8023 21.8946 16.3287 21.7511 16.9556L19.0539 28.8668C18.9252 29.4248 19.0293 30.0119 19.341 30.491C19.3784 30.5491 19.4179 30.6051 19.4599 30.6587L27.0783 40.2154C27.4801 40.7136 28.083 41.0017 28.7193 41H40.9324C41.5711 41.0013 42.1765 40.7102 42.5779 40.2087L50.1898 30.6479C50.5891 30.1476 50.7384 29.4904 50.5957 28.8643ZM46.3814 28.775C46.2675 29.125 45.8936 29.3152 45.5473 29.2002H45.5346C45.4782 29.1848 45.4091 29.1761 45.3618 29.1632C45.1603 29.0976 44.9629 29.0204 44.77 28.932C44.399 28.7813 44.0141 28.6675 43.6213 28.5919C43.4852 28.587 43.3528 28.6364 43.252 28.7294L42.9711 28.6791C42.3357 30.6969 40.99 32.4091 39.1878 33.4923C39.2187 33.5841 39.2557 33.6733 39.298 33.7605C39.2232 33.8789 39.1993 34.0229 39.231 34.1595C39.391 34.5294 39.5863 34.8828 39.8142 35.2145C39.9421 35.3839 40.0605 35.5608 40.1683 35.7443L40.2546 35.9232C40.3805 36.1408 40.3743 36.4119 40.2386 36.6232C40.1613 36.7436 40.0478 36.8354 39.9145 36.8852C39.5723 37.0135 39.1919 36.8374 39.0648 36.492L38.983 36.3218C38.9073 36.1221 38.8432 35.9186 38.7909 35.7115C38.677 35.3249 38.5257 34.9504 38.3398 34.5934C38.2583 34.4834 38.1374 34.4095 38.0029 34.3883L37.8734 34.1334C35.9141 34.8828 33.7504 34.8774 31.7948 34.118L31.6434 34.3904C31.5373 34.407 31.439 34.4555 31.3605 34.5299C31.1207 34.8197 31.0236 35.2884 30.8509 35.7243C30.7991 35.9315 30.7357 36.135 30.6609 36.3347L30.579 36.5049C30.4923 36.7411 30.2805 36.908 30.0325 36.9354C29.8914 36.9512 29.7487 36.9205 29.6261 36.8482C29.3111 36.6622 29.205 36.2537 29.3892 35.9357L29.4756 35.7567C29.5833 35.5728 29.7018 35.3951 29.8297 35.2249C30.0625 34.8815 30.2619 34.5166 30.4256 34.135C30.4433 34.0071 30.4232 33.8764 30.3672 33.7601L30.4881 33.5052C28.6839 32.429 27.3324 30.7231 26.6896 28.7094L26.4026 28.7597C26.2915 28.6799 26.1607 28.633 26.0246 28.6243C25.6318 28.6999 25.2469 28.8136 24.8759 28.9643C24.683 29.0482 24.4856 29.1213 24.2841 29.1823L24.1048 29.2039H24.0916C23.8535 29.2832 23.5915 29.2193 23.4151 29.0391C23.3139 28.9357 23.2489 28.802 23.23 28.6584C23.1819 28.293 23.436 27.9575 23.798 27.909H23.8194L23.9921 27.8654C24.2018 27.8363 24.4132 27.8197 24.6246 27.8151C25.0236 27.7886 25.4192 27.723 25.8058 27.6187C25.9201 27.5453 26.0168 27.4469 26.0888 27.331L26.3651 27.2505C26.0653 25.1522 26.5436 23.0156 27.7084 21.2515L27.4924 21.0618C27.485 20.9239 27.4394 20.7911 27.3608 20.6782C27.0548 20.4166 26.7246 20.1858 26.3742 19.9894C26.1862 19.8926 26.0036 19.7847 25.828 19.6668L25.6919 19.5576C25.3793 19.3317 25.3069 18.8929 25.5298 18.5765C25.6577 18.4179 25.8527 18.3307 26.0546 18.3411C26.2216 18.3486 26.382 18.4096 26.5124 18.5155L26.6592 18.6334C26.8118 18.7795 26.9561 18.9348 27.091 19.0976C27.36 19.3957 27.6574 19.6664 27.9786 19.9063C28.0986 19.9703 28.2389 19.9844 28.3693 19.9458L28.607 20.116C29.7651 18.8742 31.2646 18.0102 32.9126 17.6353C33.3045 17.5456 33.7018 17.4833 34.1024 17.4501L34.1176 17.1666C34.2209 17.0748 34.2957 16.9552 34.3335 16.822C34.3508 16.4184 34.329 16.0136 34.2686 15.6142C34.2262 15.4054 34.1962 15.1944 34.1777 14.9819V14.7942C34.1579 14.4106 34.4462 14.0822 34.8254 14.0552L34.8361 14.0618C35.2157 14.0888 35.5036 14.4172 35.4839 14.8009V14.9906C35.4658 15.2027 35.4353 15.4141 35.393 15.6229C35.3292 16.0215 35.3037 16.425 35.3173 16.8282C35.3436 16.9627 35.4214 17.0819 35.5332 17.1595C35.5353 17.2077 35.5485 17.3687 35.5485 17.4559C37.6328 17.6457 39.5781 18.5931 41.0225 20.1218L41.273 19.9408C41.4074 19.964 41.546 19.9491 41.6723 19.8972C41.9857 19.6518 42.2748 19.3766 42.536 19.0756C42.6709 18.9128 42.8152 18.7575 42.9678 18.6114L43.1146 18.4939C43.2944 18.3112 43.5625 18.2489 43.8035 18.3336C43.9462 18.3839 44.068 18.4823 44.1478 18.6118C44.3411 18.9257 44.2461 19.3384 43.9351 19.5335L43.7904 19.6514C43.6147 19.7693 43.4321 19.8773 43.2442 19.974C42.8958 20.1729 42.5672 20.4058 42.2637 20.6694C42.1753 20.7741 42.1313 20.9094 42.1407 21.0464L41.9076 21.2644C43.0756 23.0219 43.5633 25.1513 43.2787 27.248L43.5444 27.3265C43.611 27.4473 43.7098 27.5469 43.8294 27.6142C44.216 27.7184 44.6117 27.784 45.0106 27.8106C45.2224 27.8151 45.4334 27.8317 45.6431 27.8608L45.8377 27.9044C46.0869 27.9368 46.2967 28.1095 46.3781 28.3499C46.4254 28.4881 46.4262 28.6372 46.3814 28.775Z" fill="currentColor"/>
<path d="M40.6298 22.4471L38.0602 24.7709C37.9742 24.8468 37.9121 24.9465 37.8821 25.0577C37.7974 25.37 37.9796 25.6926 38.2888 25.7781V25.791L41.6185 26.7587C41.7625 25.2479 41.4145 23.7312 40.6273 22.4384L40.6298 22.4471Z" fill="currentColor"/>
<path d="M37.6909 27.7901L37.6864 27.8009C37.6193 27.8046 37.554 27.8204 37.4923 27.8465C37.1957 27.9736 37.0575 28.319 37.1834 28.6183L38.5093 31.8622C39.7831 31.0405 40.7491 29.8128 41.2538 28.3742L37.8246 27.7901C37.7806 27.7847 37.7357 27.7847 37.6909 27.7901Z" fill="currentColor"/>
<path d="M57.5509 26.1202L58.188 25.4181C58.4067 25.174 58.619 24.9328 58.825 24.6945L59.4082 24.0144C59.5896 23.7993 59.7459 23.6117 59.8766 23.4518H62.3558C61.8606 24.026 61.3782 24.5728 60.9089 25.0934C60.438 25.6137 59.9227 26.1513 59.363 26.7064C59.6702 26.9917 59.9589 27.2968 60.2266 27.6198C60.5248 27.9731 60.8127 28.3364 61.0903 28.7097C61.3683 29.0833 61.6245 29.4611 61.859 29.8431C62.0922 30.2209 62.2879 30.5655 62.4463 30.8765H60.0494C59.9054 30.6295 59.7356 30.3575 59.5398 30.0611C59.344 29.763 59.1425 29.4711 58.9352 29.1846C58.7193 28.894 58.4931 28.6084 58.257 28.3281C58.042 28.0769 57.8059 27.8448 57.5509 27.6348V30.8915H55.4649V20.2607L57.5509 19.9207V26.1227V26.1202ZM69.7081 30.6282C69.2574 30.7528 68.7992 30.8495 68.3369 30.918C67.7542 31.0094 67.1648 31.0546 66.575 31.0534C66.0433 31.0691 65.5135 30.9828 65.0138 30.7985C64.6293 30.6511 64.2892 30.4053 64.0272 30.0856C63.7771 29.7651 63.6003 29.3931 63.509 28.9957C63.4025 28.537 63.3511 28.0674 63.3556 27.5962V23.4543H65.4416V27.3346C65.4416 28.0134 65.53 28.5029 65.7073 28.8039C65.8845 29.1049 66.2156 29.2552 66.7005 29.2552C66.8444 29.2552 67.0028 29.2477 67.1755 29.2332C67.3482 29.2187 67.4971 29.2021 67.6226 29.183V23.4497H69.7085L69.7081 30.6282ZM78.5139 27.1664C78.5213 27.7145 78.4337 28.2596 78.2548 28.7773C78.0948 29.2365 77.8394 29.6559 77.5054 30.0067C77.1665 30.3542 76.7557 30.622 76.3029 30.7914C75.7826 30.9824 75.2323 31.0758 74.6792 31.0662C74.4271 31.0662 74.1638 31.0546 73.8887 31.0314C73.6152 31.0081 73.3446 30.9774 73.0769 30.9396C72.8103 30.9018 72.5566 30.8566 72.3148 30.8043C72.0729 30.7519 71.857 30.6976 71.667 30.6407V20.2582L73.753 19.9182V23.6241C73.9874 23.5203 74.2309 23.4402 74.4805 23.3841C74.7474 23.326 75.0197 23.2974 75.2924 23.299C75.7686 23.2891 76.2416 23.3829 76.6788 23.5739C77.072 23.7512 77.4174 24.0202 77.6872 24.3586C77.9698 24.7214 78.1787 25.137 78.3025 25.5817C78.4481 26.0969 78.5192 26.6309 78.5139 27.1664ZM76.3868 27.11C76.3868 25.754 75.8924 25.076 74.9033 25.076C74.6882 25.076 74.4739 25.1046 74.2663 25.1611C74.0857 25.2068 73.913 25.2803 73.7546 25.3791V29.2004C73.8554 29.2195 73.9849 29.2361 74.1433 29.2507C74.3016 29.2652 74.4744 29.2727 74.6615 29.2727C75.1649 29.3075 75.6514 29.085 75.957 28.6798C76.2638 28.2169 76.4135 27.6663 76.3847 27.1104L76.3868 27.11ZM79.7707 27.2233C79.7584 26.6321 79.86 26.0442 80.071 25.4924C80.2499 25.0312 80.5188 24.611 80.8614 24.2564C81.1826 23.9343 81.5663 23.6827 81.9887 23.5174C82.4049 23.3493 82.8491 23.2625 83.2974 23.2625C84.3424 23.2625 85.1683 23.5851 85.7741 24.2303C86.3786 24.8755 86.6809 25.8246 86.6809 27.0772C86.6809 27.1992 86.6768 27.3338 86.6682 27.4803C86.6596 27.6256 86.6501 27.7552 86.6402 27.8685H81.9114C81.9488 28.2862 82.1701 28.6644 82.5139 28.8994C82.9388 29.1738 83.4376 29.3071 83.9414 29.281C84.3198 29.281 84.697 29.2453 85.0687 29.1743C85.3784 29.1211 85.6811 29.0335 85.9715 28.9127L86.2524 30.6216C86.1085 30.6905 85.9587 30.7474 85.8053 30.7918C85.6009 30.8524 85.3932 30.9022 85.1835 30.94C84.9532 30.9836 84.7085 31.0202 84.4494 31.0492C84.189 31.077 83.9275 31.0907 83.6655 31.0907C83.0761 31.1036 82.4901 31.0031 81.9381 30.7943C81.4779 30.6166 81.0625 30.3388 80.7204 29.9814C80.3959 29.6322 80.1524 29.2145 80.0076 28.7582C79.8472 28.2638 79.767 27.746 79.7699 27.2258L79.7707 27.2233ZM84.6682 26.4166C84.6591 26.2393 84.6287 26.0633 84.5773 25.8935C84.5283 25.7287 84.4477 25.5755 84.3396 25.4422C84.2277 25.3068 84.0895 25.1964 83.9336 25.1175C83.7436 25.027 83.5347 24.9838 83.3245 24.9909C83.1173 24.9855 82.9116 25.0262 82.722 25.1109C82.5616 25.1856 82.4189 25.2944 82.3029 25.4293C82.189 25.5651 82.101 25.7208 82.0438 25.8893C81.9834 26.0616 81.9386 26.2389 81.9098 26.4191H84.6673L84.6682 26.4166ZM92.7271 25.316C92.5399 25.2695 92.324 25.2201 92.0793 25.1678C91.812 25.1142 91.5401 25.088 91.2674 25.0893C91.1108 25.0909 90.9541 25.1026 90.799 25.1242C90.6596 25.1395 90.5218 25.1661 90.3865 25.2026V30.8703H88.3005V23.8442C88.7311 23.6968 89.1695 23.573 89.6133 23.4734C90.1714 23.3505 90.7414 23.2911 91.3127 23.2969C91.425 23.2969 91.5603 23.3044 91.7186 23.319C91.877 23.3335 92.0353 23.3526 92.1936 23.3758C92.352 23.3991 92.5103 23.4281 92.6687 23.463C92.8073 23.49 92.9434 23.5303 93.0746 23.583L92.7271 25.316ZM94.1953 23.7071C94.6461 23.583 95.1042 23.4859 95.5665 23.4174C96.1501 23.3256 96.7399 23.2808 97.3308 23.282C97.8634 23.2662 98.3944 23.3505 98.8966 23.5307C99.2803 23.6731 99.6204 23.9143 99.8832 24.2303C100.132 24.545 100.309 24.9112 100.401 25.3027C100.508 25.7561 100.56 26.2211 100.555 26.6869V30.8852H98.4668V26.9398C98.4668 26.2609 98.3784 25.7814 98.2011 25.5011C98.0238 25.2192 97.6928 25.0781 97.2079 25.0781C97.0639 25.0781 96.9056 25.0856 96.7329 25.1001C96.5601 25.1146 96.4112 25.1312 96.2858 25.1503V30.8836H94.1998V23.7071H94.1953ZM102.088 27.2233C102.075 26.6321 102.177 26.0442 102.388 25.4924C102.567 25.0312 102.836 24.611 103.178 24.2564C103.497 23.9355 103.878 23.6839 104.297 23.5174C104.713 23.3493 105.157 23.2625 105.606 23.2625C106.651 23.2625 107.477 23.5851 108.082 24.2303C108.687 24.8755 108.989 25.8246 108.989 27.0772C108.989 27.1992 108.984 27.3338 108.974 27.4803C108.964 27.6256 108.955 27.7552 108.946 27.8685H104.217C104.254 28.2862 104.475 28.6644 104.819 28.8994C105.244 29.1738 105.743 29.3071 106.247 29.281C106.625 29.281 107.002 29.2453 107.374 29.1743C107.684 29.1211 107.987 29.0331 108.277 28.9127L108.558 30.6216C108.414 30.6905 108.264 30.7474 108.111 30.7918C107.906 30.8524 107.699 30.9022 107.489 30.94C107.259 30.9836 107.014 31.0202 106.755 31.0492C106.494 31.077 106.233 31.0907 105.971 31.0907C105.382 31.1036 104.795 31.0031 104.244 30.7943C103.783 30.6166 103.368 30.3388 103.026 29.9814C102.702 29.6301 102.46 29.21 102.318 28.752C102.16 28.2592 102.082 27.744 102.086 27.2262L102.088 27.2233ZM106.985 26.4166C106.976 26.2393 106.946 26.0633 106.894 25.8935C106.845 25.7287 106.765 25.5755 106.656 25.4422C106.545 25.3068 106.406 25.1964 106.251 25.1175C106.061 25.027 105.852 24.9838 105.641 24.9909C105.434 24.9855 105.229 25.0262 105.039 25.1109C104.879 25.1856 104.736 25.2944 104.62 25.4293C104.506 25.5651 104.418 25.7208 104.361 25.8893C104.3 26.0612 104.255 26.2389 104.227 26.4191H106.984L106.985 26.4166ZM110.537 21.5993L112.623 21.2592V23.4389H115.128V25.1827H112.623V27.7988C112.606 28.1662 112.686 28.532 112.854 28.8583C113.009 29.1199 113.318 29.2507 113.783 29.2507C114.015 29.2498 114.247 29.2291 114.476 29.1875C114.697 29.1493 114.914 29.0904 115.124 29.0111L115.417 30.6502C115.144 30.7607 114.864 30.8503 114.578 30.9184C114.205 31.0006 113.825 31.0388 113.444 31.0318C112.963 31.0467 112.483 30.9674 112.032 30.7985C111.683 30.6606 111.375 30.4356 111.136 30.1445C110.904 29.8498 110.743 29.5039 110.667 29.1352C110.575 28.7055 110.53 28.2671 110.533 27.8274V21.5993H110.537ZM116.238 27.2233C116.226 26.6321 116.328 26.0442 116.539 25.4924C116.717 25.0312 116.986 24.611 117.329 24.2564C117.65 23.9343 118.034 23.6827 118.456 23.5174C118.872 23.3493 119.317 23.2625 119.765 23.2625C120.81 23.2625 121.636 23.5851 122.242 24.2303C122.846 24.8755 123.149 25.8225 123.149 27.0705C123.149 27.1926 123.144 27.3271 123.133 27.4737C123.123 27.619 123.114 27.7485 123.105 27.8619H118.377C118.414 28.28 118.636 28.6582 118.981 28.8928C119.406 29.1672 119.905 29.3005 120.409 29.2743C120.787 29.2743 121.164 29.2386 121.536 29.1676C121.846 29.1145 122.148 29.0265 122.439 28.9061L122.72 30.6149C122.576 30.6839 122.426 30.7407 122.272 30.7852C122.068 30.8458 121.86 30.8956 121.651 30.9334C121.42 30.977 121.176 31.0135 120.917 31.0426C120.656 31.0704 120.395 31.0841 120.133 31.0841C119.543 31.097 118.957 30.9965 118.405 30.7877C117.945 30.61 117.53 30.3322 117.188 29.9747C116.86 29.6264 116.613 29.2087 116.466 28.7516C116.309 28.2588 116.232 27.7435 116.237 27.2258L116.238 27.2233ZM121.14 26.4166C121.131 26.2393 121.1 26.0633 121.049 25.8935C121 25.7287 120.919 25.5755 120.811 25.4422C120.699 25.3068 120.561 25.1964 120.405 25.1175C120.215 25.027 120.006 24.9838 119.796 24.9909C119.589 24.9855 119.383 25.0262 119.194 25.1109C119.03 25.1839 118.883 25.2915 118.764 25.4268C118.65 25.5626 118.562 25.7183 118.505 25.8869C118.444 26.0587 118.4 26.2364 118.371 26.4166H121.14ZM126.869 29.3702C127.144 29.3872 127.42 29.3486 127.681 29.2569C127.842 29.1759 127.937 29.002 127.918 28.8209C127.9 28.6304 127.782 28.4643 127.61 28.385C127.311 28.2123 126.997 28.0661 126.672 27.9491C126.37 27.8374 126.073 27.7099 125.783 27.5675C125.533 27.4471 125.304 27.2873 125.105 27.0946C124.917 26.909 124.77 26.6865 124.673 26.4407C124.563 26.1476 124.511 25.8362 124.519 25.5232C124.495 24.8792 124.781 24.2631 125.288 23.8707C125.8 23.4639 126.504 23.2604 127.4 23.2604C127.835 23.2583 128.268 23.2986 128.695 23.3804C129.029 23.4398 129.357 23.527 129.676 23.642L129.313 25.2811C129.054 25.1943 128.79 25.1217 128.523 25.0631C128.208 24.9942 127.886 24.9614 127.564 24.9651C126.91 24.9651 126.583 25.1491 126.583 25.5165C126.583 25.5912 126.597 25.6651 126.625 25.7345C126.663 25.8117 126.721 25.8773 126.793 25.9242C126.902 25.9998 127.017 26.0662 127.137 26.1227C127.281 26.1953 127.465 26.2738 127.689 26.3581C128.079 26.4988 128.458 26.6678 128.823 26.8638C129.086 27.0029 129.325 27.1847 129.529 27.4023C129.696 27.5858 129.82 27.805 129.892 28.0433C129.966 28.309 130.002 28.5847 129.997 28.8608C130.033 29.5218 129.722 30.1533 129.179 30.524C128.632 30.8989 127.86 31.0878 126.864 31.0907C126.316 31.1019 125.768 31.0451 125.234 30.9205C124.927 30.8479 124.625 30.7532 124.331 30.6369L124.681 28.9281C125.035 29.0692 125.4 29.1797 125.772 29.2594C126.133 29.3345 126.5 29.3719 126.869 29.3702Z" fill="currentColor"/>
</svg>
