<svg width="150" height="50" viewBox="0 0 150 50" fill="none" xmlns="http://www.w3.org/2000/svg">
<path fill-rule="evenodd" clip-rule="evenodd" d="M53.7317 15.5941L39.2362 7.30736C39.0379 7.19099 38.8151 7.12553 38.5851 7.1231C38.377 7.1231 38.142 7.19099 37.934 7.30736L23.4385 15.5941C23.037 15.8317 22.7898 16.2608 22.7874 16.7263V33.2974C22.7898 33.7605 23.037 34.1896 23.4385 34.4297L37.934 42.7164C38.1298 42.8352 38.355 42.9007 38.5851 42.9007C38.8274 42.9007 39.0281 42.8328 39.2362 42.7164L53.7317 34.4297C54.1331 34.1921 54.3803 33.7629 54.3828 33.2974V16.7239C54.3803 16.2608 54.1331 15.8317 53.7317 15.5941ZM40.8296 19.8878H53.46V20.1424H40.8052C40.8076 20.0503 40.8296 19.9872 40.8296 19.8878ZM53.3229 27.1127H52.4613L51.9938 25.995H49.803L49.3135 27.1127H48.4739L50.5251 22.4723H51.2692L53.3229 27.1127ZM43.8648 25.1804V27.1102H43.0497L43.0473 22.4941H43.8624V24.4094H46.0996V22.4941H46.9147V27.1102H46.0996V25.1804H43.8648ZM38.1298 25.4592C38.2008 25.6556 38.3134 25.8374 38.4553 25.9902C38.5949 26.1283 38.7589 26.2665 38.9449 26.3344C39.1309 26.4023 39.3414 26.4726 39.5593 26.4726C39.8383 26.4726 40.0953 26.4265 40.2813 26.3102C40.4967 26.1817 40.6975 26.0338 40.8884 25.8714L41.4244 26.4023C41.3069 26.5405 41.1919 26.6326 41.0524 26.7466C40.9129 26.8605 40.7733 26.9308 40.6412 27.0011C40.487 27.0787 40.323 27.1321 40.1516 27.1636C39.9411 27.2096 39.7404 27.2096 39.5225 27.2096L39.5054 27.1781C39.1848 27.1806 38.8666 27.1175 38.5728 26.9939C38.2913 26.8775 38.0368 26.6932 37.8287 26.4872C37.6133 26.2714 37.4469 26.012 37.3392 25.7259C37.2217 25.4253 37.1531 25.1173 37.1531 24.8119V24.7876C37.1531 24.4652 37.2217 24.1427 37.3392 23.8736C37.4567 23.5948 37.6231 23.3354 37.8287 23.1123C38.0466 22.8917 38.3085 22.7196 38.5973 22.6056C38.9082 22.482 39.2411 22.4189 39.5764 22.4214C39.7869 22.4214 39.9729 22.4456 40.159 22.4674L40.6485 22.6056C40.788 22.6735 40.9275 22.7438 41.045 22.8359L41.3926 23.1366L40.8566 23.7451C40.6803 23.5875 40.4845 23.4493 40.274 23.3378C40.0513 23.2263 39.8016 23.1705 39.5519 23.1754C39.3414 23.1729 39.1334 23.219 38.9449 23.3136C38.7637 23.4033 38.5997 23.5196 38.4553 23.6603C38.3158 23.7985 38.2228 23.9827 38.1298 24.167C38.0563 24.3682 38.0172 24.5767 38.0123 24.79V24.8143C38.0123 25.0446 38.0588 25.2531 38.1298 25.4592ZM38.6756 13.6327C38.5581 13.7952 38.7001 14.1855 39.0012 14.6486C39.5128 15.5238 38.6756 16.0087 38.6756 16.0087C38.7001 15.8705 38.6071 15.4317 38.4186 15.2232C37.8605 14.394 38.3721 14.0013 38.6756 13.6327ZM37.7528 14.4934C37.6598 14.588 37.7528 14.8644 37.9633 15.1626C38.3134 15.7541 37.7528 16.0766 37.7528 16.0766V16.0839C37.7528 15.982 37.7063 15.6911 37.5888 15.5772C37.2168 15.0001 37.5423 14.7456 37.7528 14.4934ZM36.0419 16.4718H40.4233C40.553 16.4718 40.6558 16.5857 40.6558 16.7021H40.6485C40.6485 17.5094 40.5335 20.2103 39.3659 21.5025C39.3243 21.5486 39.2631 21.5728 39.2019 21.5704H37.2535C37.1923 21.5704 37.136 21.5461 37.0895 21.5025C35.9244 20.186 35.8069 17.4852 35.8069 16.7021C35.8093 16.5712 35.9268 16.4718 36.0419 16.4718ZM23.7616 19.8878H35.6453C35.6453 19.9799 35.6698 20.0406 35.6698 20.1424H23.7616V19.8878ZM35.567 24.7876V24.8119C35.567 25.1343 35.4985 25.435 35.381 25.7259C35.2635 26.0023 35.1019 26.2568 34.8694 26.4872C34.6515 26.7078 34.3896 26.8799 34.1008 26.9939C33.7973 27.1321 33.4717 27.1781 33.1217 27.1781C32.7864 27.1781 32.4535 27.1151 32.1426 26.9939C31.8538 26.8799 31.5919 26.7078 31.374 26.4872C31.1586 26.2714 30.9922 26.012 30.8845 25.7259C30.767 25.4495 30.6985 25.1173 30.6985 24.8119V24.7876C30.6985 24.4652 30.767 24.1645 30.8845 23.8736C31.002 23.5972 31.1635 23.3427 31.3961 23.1123C31.6139 22.8917 31.8758 22.7196 32.1646 22.6056C32.4682 22.4674 32.7937 22.4214 33.1437 22.4214C33.4791 22.4214 33.812 22.4844 34.1228 22.6056C34.4117 22.7196 34.6736 22.8917 34.8914 23.1123C35.1068 23.3281 35.2733 23.5875 35.381 23.8736C35.4985 24.1524 35.567 24.4846 35.567 24.7876ZM26.6181 25.9805H26.5936L25.1592 23.8348V27.1345H24.3441L24.3368 22.4941H25.1984L26.6205 24.664L28.0427 22.4941H28.9043V27.1102H28.0892V23.8106L26.6181 25.9805ZM53.4722 28.8195H23.7395V28.5649H53.4698V28.8195H53.4722Z" fill="currentColor"/>
<path fill-rule="evenodd" clip-rule="evenodd" d="M34.2403 23.6262C34.0983 23.4855 33.9318 23.3692 33.7507 23.2795C33.5647 23.1776 33.3542 23.1413 33.1216 23.1413C32.9038 23.1364 32.6884 23.1849 32.4926 23.2795C32.3114 23.3667 32.1474 23.4855 32.003 23.6262C31.8635 23.7644 31.7705 23.9486 31.6775 24.1329C31.604 24.3341 31.5649 24.5426 31.56 24.756V24.7802C31.56 25.0105 31.6065 25.219 31.6775 25.4251C31.7485 25.6215 31.8611 25.8033 32.003 25.9561C32.145 26.0967 32.3114 26.213 32.4926 26.3027C32.6884 26.3949 32.9038 26.4409 33.1216 26.4409C33.3542 26.4409 33.5647 26.3949 33.7507 26.3027C33.9318 26.213 34.0958 26.0967 34.2403 25.9561C34.3798 25.8179 34.4728 25.6336 34.5658 25.4493C34.6392 25.2481 34.6784 25.0396 34.6833 24.8263V24.802C34.6833 24.5717 34.6368 24.3632 34.5658 24.1571C34.4948 23.9607 34.3822 23.7789 34.2403 23.6262Z" fill="currentColor"/>
<path fill-rule="evenodd" clip-rule="evenodd" d="M51.6926 25.287L50.8996 23.442L50.1065 25.287H51.6926Z" fill="currentColor"/>
<path fill-rule="evenodd" clip-rule="evenodd" d="M37.557 20.9012H38.9302C38.9988 20.9012 39.0477 20.877 39.1162 20.8309C39.9069 19.8854 40.0244 18.0598 40.0244 17.4149C40.0244 17.2864 39.9093 17.1846 39.7918 17.1846H36.7175C36.5877 17.1846 36.4849 17.2985 36.4849 17.4149C36.507 18.0598 36.6 19.9169 37.393 20.8309C37.4371 20.8794 37.4958 20.9037 37.557 20.9012ZM39.06 19.1629C39.6205 18.9544 39.6425 18.7556 39.6425 18.7556C39.5397 19.3787 39.3635 20.0939 38.9669 20.557C38.9204 20.603 38.8641 20.6248 38.8274 20.6248H37.6623C37.6158 20.6248 37.5448 20.6006 37.5228 20.557C37.2437 20.2127 37.0553 19.7496 36.9402 19.2647C36.9402 19.2623 38.2914 19.449 39.06 19.1629Z" fill="currentColor"/>
<path fill-rule="evenodd" clip-rule="evenodd" d="M56.5514 13.4331L39.7722 3.81045C39.0525 3.39587 38.1616 3.39587 37.4419 3.81045L20.6651 13.4137C19.943 13.8283 19.5 14.5677 19.5 15.3993V34.6009C19.5 35.4083 19.943 36.1696 20.6651 36.5866L37.4419 46.1898C38.1616 46.6044 39.0525 46.6044 39.7722 46.1898L56.5514 36.5866V36.606C57.2515 36.1914 57.6945 35.4301 57.7165 34.6203V15.4187C57.7165 14.6114 57.2735 13.8501 56.5514 13.4331ZM55.0803 33.2748C55.0828 33.9803 54.6985 34.6349 54.0792 34.9816L39.5837 43.2683C39.2802 43.4429 38.9326 43.5447 38.5826 43.5447C38.2325 43.5447 37.8825 43.4526 37.5814 43.2683L23.0908 34.9816C22.4618 34.6349 22.0897 33.99 22.0897 33.2748V16.7012C22.0873 15.9957 22.4716 15.3411 23.0908 14.9944L37.5863 6.70766C37.8899 6.5331 38.2399 6.43128 38.5875 6.43128H38.585C38.935 6.43128 39.2851 6.5234 39.5861 6.70766L54.0816 14.9944C54.7107 15.3411 55.0828 15.986 55.0828 16.7012V33.2748H55.0803Z" fill="currentColor"/>
<path d="M66.5822 19.946H68.4841L71.6172 24.7294L74.7503 19.946H76.6521V30.1238H74.8531V22.848L71.6172 27.6315H71.5658L68.3812 22.899V30.1771H66.5822V19.946ZM85.9535 30.279C85.1825 30.279 84.4629 30.1262 83.7946 29.8717C83.1264 29.6171 82.561 29.2098 82.0984 28.7516C81.6357 28.2934 81.2759 27.7333 81.0189 27.0714C80.7497 26.4265 80.6101 25.7331 80.6077 25.0349V24.984C80.6077 24.2712 80.7619 23.6093 81.0189 22.9474C81.2759 22.3389 81.6333 21.7764 82.1498 21.2673C82.6099 20.8115 83.1778 20.4018 83.846 20.1472C84.5143 19.8417 85.2339 19.7399 86.005 19.7399C86.776 19.7399 87.4956 19.8926 88.1638 20.1472C88.8321 20.4018 89.3975 20.8091 89.8601 21.2673C90.3228 21.7255 90.6826 22.2856 90.9396 22.9474C91.2088 23.5923 91.3484 24.2857 91.3508 24.984V25.0349C91.3508 25.7477 91.1966 26.4096 90.9396 27.0714C90.6826 27.68 90.3252 28.2424 89.8087 28.7516C89.3485 29.2074 88.7807 29.6171 88.1124 29.8717C87.4418 30.1771 86.7246 30.279 85.9535 30.279ZM85.9535 28.6497C86.4651 28.6497 86.9302 28.5479 87.3414 28.3443C87.7526 28.1406 88.1124 27.8885 88.4209 27.5806C88.7293 27.2751 88.9324 26.8678 89.1405 26.4605C89.2947 26.0047 89.3975 25.544 89.3975 25.0858V25.0349C89.3975 24.5282 89.2947 24.0675 89.1405 23.6093C88.9863 23.1511 88.7293 22.7947 88.4209 22.4383C88.1124 22.1328 87.7526 21.8807 87.3414 21.6746C86.9302 21.4685 86.4676 21.3691 85.9535 21.3691C85.4395 21.3691 84.9769 21.471 84.5657 21.6746C84.1545 21.8783 83.7946 22.1304 83.4862 22.4383C83.1778 22.7438 82.9746 23.1511 82.7666 23.5584C82.6124 24.0142 82.5096 24.4748 82.5096 24.9331V24.984C82.5096 25.4907 82.6124 25.9513 82.7666 26.4096C82.9208 26.8678 83.1778 27.2242 83.4862 27.5806C83.7946 27.886 84.1545 28.1382 84.5657 28.3443C84.9989 28.5479 85.4738 28.6522 85.9535 28.6497ZM100.03 30.279C99.2594 30.279 98.5912 30.1262 97.9744 29.8717C97.3576 29.6074 96.7995 29.2268 96.3295 28.7516C95.8693 28.2958 95.5071 27.7333 95.25 27.0714C94.993 26.4096 94.8388 25.7477 94.8388 25.0349V24.984C94.8413 24.2857 94.9808 23.5948 95.25 22.9474C95.5071 22.3389 95.8644 21.7764 96.3295 21.2673C96.7897 20.8115 97.3575 20.4018 98.0258 20.1472C98.694 19.8926 99.3622 19.7399 100.185 19.7399C100.645 19.7399 101.059 19.7908 101.47 19.8417L102.549 20.1472C102.858 20.2999 103.164 20.4527 103.423 20.6539L104.194 21.3158L103.012 22.6395C102.601 22.2831 102.189 21.9777 101.727 21.7231C101.264 21.4685 100.75 21.3667 100.133 21.3667C99.6217 21.3667 99.208 21.4685 98.7968 21.6722C98.3856 21.8758 98.0258 22.128 97.7174 22.4359C97.4089 22.7414 97.2058 23.1487 96.9977 23.556C96.8435 24.0118 96.7407 24.4724 96.7407 24.9306V24.9816C96.7407 25.4883 96.8435 25.9489 96.9977 26.4071C97.1519 26.8654 97.4089 27.2217 97.7174 27.5781C98.0258 27.8836 98.3856 28.1867 98.7968 28.3418C99.208 28.497 99.6707 28.6473 100.133 28.6473C100.748 28.6473 101.316 28.5455 101.727 28.2909C102.199 28.0073 102.647 27.6848 103.063 27.3236L104.245 28.4946C103.988 28.8001 103.734 29.0013 103.423 29.2583C103.115 29.5153 102.809 29.6656 102.498 29.8159C102.189 29.9686 101.778 30.1214 101.418 30.1723C100.958 30.2765 100.493 30.2765 100.03 30.279ZM107.841 19.946H109.64V24.1694H114.572V19.946H116.372V30.1238H114.575V25.8616H109.643V30.1262H107.844L107.841 19.946ZM124.334 19.8951H125.979L130.5 30.1238H128.598L127.57 27.68H122.741L121.661 30.1238H119.811L124.334 19.8951ZM126.904 26.1065L125.156 22.0455L123.409 26.1065C123.411 26.1065 126.904 26.1065 126.904 26.1065Z" fill="currentColor"/>
</svg>
