<svg width="150" height="50" viewBox="0 0 150 50" fill="none" xmlns="http://www.w3.org/2000/svg">
<path fill-rule="evenodd" clip-rule="evenodd" d="M115.26 23.2703C114.058 22.2683 112.376 21.7393 110.372 21.7393C107.989 21.7393 107.086 21.7972 105.826 21.7972C105.125 21.7972 103.663 21.7373 103.282 21.7373C103.182 21.8551 102.821 22.4639 102.901 22.6016C103.461 22.6595 103.862 22.7393 104.162 22.7972C104.762 22.915 105.064 23.0927 105.123 23.7793C105.164 24.6037 105.143 27.1748 105.143 28.4902C105.143 30.3346 105.164 31.9655 105.103 33.3189C105.042 34.0455 104.962 34.261 104.543 34.4187C104.282 34.5165 104.141 34.5365 103.622 34.5944C103.461 34.6144 103.202 35.301 103.302 35.4767H103.323C105.266 35.4967 107.61 35.5366 108.97 35.5366C111.535 35.5366 113.337 34.9477 114.718 33.9476C116.101 32.9655 117.482 31.2589 117.482 28.2946C117.484 26.2146 116.722 24.5059 115.26 23.2703ZM113.299 33.3608C112.258 34.283 111.176 34.4806 110.095 34.4806C109.254 34.4806 108.313 34.3229 107.832 33.9516C107.53 33.756 107.392 33.3049 107.392 33.0095C107.351 32.716 107.351 30.163 107.351 28.3365C107.351 26.5699 107.351 23.5458 107.392 23.1545C107.392 23.0567 107.532 22.8791 107.592 22.8411C107.852 22.7234 108.272 22.7034 108.714 22.7034C110.197 22.7034 111.478 22.9589 112.48 23.5677C114.242 24.6277 115.103 26.4342 115.103 28.6519C115.101 30.9654 114.36 32.4186 113.299 33.3608Z" fill="currentColor"/>
<path fill-rule="evenodd" clip-rule="evenodd" d="M127.839 27.7457C127.78 27.7257 127.78 27.6878 127.839 27.6678C129.02 27.1768 129.923 26.1767 129.923 24.9191C129.923 22.3681 127.519 21.7592 125.776 21.7592C124.354 21.7592 123.191 21.7992 121.729 21.7992C120.187 21.7992 119.586 21.7413 119.384 21.7413C119.264 21.8191 118.924 22.4878 119.024 22.5856C119.484 22.6435 120.044 22.7234 120.386 22.7813C120.826 22.899 121.048 23.0967 121.067 23.7035C121.087 24.488 121.067 26.0988 121.067 28.4742C121.067 30.2009 121.067 32.6362 121.026 33.3229C120.947 34.1273 120.885 34.285 120.346 34.4227C119.965 34.5405 119.684 34.5605 119.323 34.5804C119.183 34.6982 118.883 35.4048 119.042 35.4647C120.564 35.4248 123.309 35.5426 124.33 35.5426C125.672 35.5426 126.994 35.3849 128.055 34.9337C129.798 34.1872 131 32.9895 131 31.1052C131.004 29.1789 129.521 28.1589 127.839 27.7457ZM123.273 23.1725C123.273 23.0547 123.372 22.8391 123.472 22.8192C123.774 22.7593 124.173 22.7593 124.313 22.7793C126.336 22.7793 127.698 23.5059 127.698 25.4102C127.698 26.2545 127.358 27.0191 126.637 27.3744C126.356 27.4921 125.855 27.6099 124.996 27.6099C124.374 27.6099 123.653 27.59 123.354 27.57C123.293 27.57 123.234 27.4921 123.234 27.4522C123.232 26.039 123.252 23.957 123.273 23.1725ZM125.676 34.4786C125.116 34.4786 124.293 34.4387 123.932 34.2431C123.592 34.0854 123.311 33.5564 123.271 33.1831C123.209 32.3188 123.23 30.1011 123.23 28.7078C123.23 28.6479 123.309 28.61 123.37 28.59C123.57 28.5501 124.411 28.5701 124.531 28.5701C127.175 28.5701 128.637 29.65 128.637 31.5942C128.641 33.6163 127.258 34.4786 125.676 34.4786Z" fill="currentColor"/>
<path fill-rule="evenodd" clip-rule="evenodd" d="M54.9312 34.8319C54.4301 34.7541 54.0493 34.6942 53.7702 34.5565C53.5503 34.4966 53.4097 34.1832 53.4097 34.0854C53.4097 33.6343 53.4301 33.0055 53.4301 32.3188C53.4505 31.5523 53.4505 30.7099 53.4505 30.0612C53.4505 27.7636 52.3486 26.4102 50.4849 26.4102C49.7049 26.4102 48.5215 26.9412 47.3402 27.8235C47.3198 27.8634 47.2608 27.8834 47.22 27.8834C47.1589 27.8834 47.1202 27.8634 47.0795 27.8055C46.499 26.8634 45.7373 26.4122 44.7556 26.4122C44.1547 26.4122 42.9938 26.7656 41.7106 27.7477C41.6699 27.7676 41.6312 27.7876 41.5904 27.7876C41.511 27.7876 41.4295 27.7277 41.4295 27.6498C41.4295 27.3943 41.4499 27.1388 41.4703 26.9232L41.4906 26.7077C41.4906 26.55 41.4295 26.4322 41.3908 26.3943C40.7106 26.6897 38.9875 27.1009 38.3275 27.1608C38.0668 27.2007 37.9467 27.3384 37.9467 27.4562C37.9263 27.574 38.0465 27.6718 38.2277 27.7297C38.7288 27.8674 39.1097 28.0431 39.4294 28.2407C39.6494 28.3984 39.6494 28.614 39.6494 28.7896V28.8296C39.6698 30.3806 39.6698 32.6182 39.6087 33.7959C39.5883 34.287 39.4294 34.5026 39.0282 34.6004C38.7879 34.6583 38.5679 34.7182 38.1463 34.778C38.1259 34.818 38.0852 34.9158 38.0852 35.0715C38.0648 35.2871 38.1055 35.4647 38.1463 35.5226C38.3866 35.5226 38.6066 35.5226 38.8877 35.5625C39.2889 35.5426 39.7899 35.5226 40.4906 35.5226C41.0914 35.5226 41.6332 35.5426 42.0528 35.5625C42.3338 35.5625 42.5742 35.5825 42.7738 35.5825C42.8532 35.4248 42.8736 34.9537 42.8329 34.8359L42.4723 34.778C42.2727 34.7581 42.1118 34.7182 42.012 34.7002C41.5517 34.6024 41.4723 34.3269 41.4519 34.0914C41.4316 33.3249 41.4316 31.5583 41.4316 30.145V28.9873C41.4316 28.8096 41.511 28.614 41.6128 28.5361C42.2544 28.065 43.0345 27.7696 43.6557 27.7696C44.7169 27.7696 45.3788 28.3385 45.6191 29.4783C45.7597 30.1849 45.6986 32.9915 45.6395 33.9736C45.6191 34.4048 45.499 34.5824 45.1588 34.6802C44.9592 34.7202 44.7576 34.7581 44.5173 34.798C44.4174 34.798 44.336 34.818 44.2362 34.8379C44.1954 34.8778 44.1567 35.0156 44.1567 35.1912C44.1567 35.4068 44.1975 35.5446 44.2178 35.5845C44.4174 35.5845 44.7576 35.5645 45.1181 35.5645C45.558 35.5645 46.0794 35.5446 46.3809 35.5446C47.4013 35.5446 48.104 35.5645 48.7843 35.5845C48.8046 35.5645 48.8454 35.5066 48.8637 35.3889C48.9248 35.1733 48.9248 34.9178 48.8841 34.8399C48.603 34.782 48.4237 34.7421 48.2425 34.7022C48.1427 34.6822 48.0632 34.6623 47.9431 34.6443C47.7231 34.5665 47.4624 34.4666 47.4624 34.0355C47.442 33.4067 47.4624 32.5823 47.4624 31.7V30.4245C47.4624 29.6979 47.4624 29.2268 47.383 28.8156V28.7956C47.383 28.7357 47.4237 28.6379 47.4624 28.6C48.2241 28.0311 49.0042 27.8355 49.5053 27.8355C50.8271 27.8355 51.428 28.7577 51.5481 29.5442C51.6683 30.3107 51.5889 33.4905 51.5889 33.8638C51.5685 34.3748 51.4687 34.5505 51.0675 34.6683C50.8475 34.7261 50.6662 34.786 50.3057 34.8439C50.2466 34.9617 50.265 35.4328 50.3057 35.5905C50.9269 35.5505 51.5685 35.5306 52.8089 35.5306C53.316 35.5306 53.8252 35.5446 54.3303 35.5705C54.5299 35.5905 54.7112 35.5905 54.8314 35.5905C54.9108 35.4927 54.9923 34.9816 54.9516 34.8439H54.9312V34.8319Z" fill="currentColor"/>
<path fill-rule="evenodd" clip-rule="evenodd" d="M61.459 26.3524C60.4569 26.3524 59.3367 26.6657 58.3937 27.2346C57.0718 28.1189 56.4099 29.3545 56.4099 30.9654C56.4099 33.263 57.6319 35.7162 61.0374 35.7162C61.9987 35.7162 63.1414 35.303 63.7809 34.8719C65.1639 34.0075 65.8849 32.5943 65.8849 30.8077C65.8869 28.1788 64.064 26.3524 61.459 26.3524ZM63.0029 34.303C62.622 34.6164 62.182 34.774 61.6199 34.774C59.7379 34.774 58.4161 32.9675 58.4161 30.3965C58.4161 29.0232 58.8173 28.081 59.5974 27.6099C59.8785 27.4143 60.2593 27.3165 60.6789 27.3165C62.6016 27.3165 63.8827 29.0252 63.8827 31.5762C63.8827 32.8897 63.5833 33.8319 63.0029 34.303Z" fill="currentColor"/>
<path fill-rule="evenodd" clip-rule="evenodd" d="M88.501 28.1389C88.501 28.1389 88.6619 28.1788 89.0224 28.2167H89.1222C89.4827 28.2167 89.8432 28.059 90.0042 27.8435C90.2038 27.568 90.2852 27.1947 90.2649 26.9412C90.2445 26.6857 90.2038 26.5879 90.1854 26.548C89.9043 26.8234 89.5642 27.059 88.7841 27.059C88.2627 27.059 87.8819 27.0011 87.4826 26.8634C86.7413 26.6079 86.2219 26.4122 85.2789 26.3923H85.2178C84.2972 26.3923 82.8938 26.9232 82.3337 27.3544C81.5129 27.9233 81.0526 28.8276 81.0526 29.8276C81.0526 31.3587 81.7532 32.3787 83.1545 32.8318C83.1953 32.8518 83.234 32.8897 83.234 32.9296C83.234 32.9695 83.234 33.0075 83.1932 33.0474C82.9733 33.225 82.6128 33.4406 82.2726 33.6363C82.0526 33.774 81.853 33.8918 81.7125 33.9896C81.5312 34.1073 81.572 34.2251 81.5923 34.3429V34.3828C81.6718 34.6962 81.9528 35.2671 82.8938 35.6204C82.9346 35.6404 82.9733 35.6783 82.9733 35.7182C82.9733 35.7581 82.9529 35.7781 82.9142 35.7961C81.7716 36.5626 81.2909 37.0137 81.0709 37.2493C80.7104 37.6425 80.6697 38.0737 80.6697 38.2314C80.6697 38.8003 80.9895 39.6247 81.7308 40.1756C82.4926 40.7445 83.3725 41 84.5945 41C85.5355 41 86.397 40.8044 87.2586 40.4311C89.0204 39.5867 90.0836 38.2334 90.0836 36.7802C90.0836 35.818 89.5031 35.0136 88.5805 34.6802C87.9185 34.4646 86.4968 34.3668 85.3563 34.287C85.1567 34.267 84.9754 34.267 84.7962 34.2471C83.9346 34.1872 83.7554 33.8339 83.7554 33.5404C83.7554 33.2071 84.1566 33.0115 84.3155 32.9715H84.3359C84.3562 32.9715 84.4968 32.9516 84.5966 32.9516C84.7778 32.9316 84.8573 32.9316 84.8776 32.9316C85.7595 32.8538 86.5396 32.5384 87.2219 32.0473C87.9226 31.5164 88.5845 30.8117 88.5845 29.2008C88.5845 29.0631 88.5051 28.5341 88.4644 28.3565L88.444 28.3165C88.4236 28.2567 88.4033 28.2187 88.4236 28.1788L88.501 28.1389ZM84.454 35.8919C85.676 35.8919 86.6965 36.0097 87.2586 36.2452C88.0387 36.5207 88.4196 37.0097 88.4196 37.7563C88.4196 38.8162 87.5173 39.8961 85.4744 39.8961C84.4519 39.8961 83.6515 39.6606 83.071 39.1695C82.5904 38.7763 82.3704 38.3252 82.3704 37.7563C82.3704 37.1475 82.7513 36.6364 83.5924 36.1075C83.7737 36.0097 84.0548 35.8919 84.454 35.8919ZM86.1363 31.6321C85.896 31.9076 85.3746 32.0254 85.0956 32.0254C83.4539 32.0254 82.8714 30.5522 82.8714 29.2767C82.8714 28.0211 83.5334 27.2167 84.5945 27.2167C85.9571 27.2167 86.7779 28.1988 86.7779 29.8276C86.7779 30.5722 86.5172 31.2788 86.1363 31.6321Z" fill="currentColor"/>
<path fill-rule="evenodd" clip-rule="evenodd" d="M96.7927 26.3524C95.7906 26.3524 94.6704 26.6657 93.7273 27.2346C92.4055 28.1189 91.7456 29.3545 91.7456 30.9654C91.7456 33.263 92.9676 35.7162 96.3731 35.7162C97.3141 35.7162 98.4567 35.303 99.1166 34.8719C100.5 34.0075 101.221 32.5943 101.221 30.8077C101.219 28.1788 99.3977 26.3524 96.7927 26.3524ZM98.3345 34.303C97.9536 34.6164 97.5137 34.774 96.9515 34.774C95.0696 34.774 93.7477 32.9675 93.7477 30.3965C93.7477 29.0232 94.1489 28.081 94.929 27.6099C95.2101 27.4143 95.591 27.3165 96.0105 27.3165C97.9129 27.3165 99.2144 29.0252 99.2144 31.5762C99.2164 32.8897 98.915 33.8319 98.3345 34.303Z" fill="currentColor"/>
<path fill-rule="evenodd" clip-rule="evenodd" d="M77.7449 34.3808C77.6838 34.3409 77.584 34.1453 77.584 34.0674C77.5433 33.3807 77.5433 31.4165 77.5433 30.1031C77.5433 29.0431 77.364 28.1209 76.9017 27.4722C76.3599 26.7256 75.5798 26.2945 74.5777 26.2945C73.6958 26.2945 72.5145 26.8833 71.5328 27.7077C71.5124 27.7277 71.3536 27.8654 71.3719 27.6478C71.3719 27.4323 71.4126 27.0011 71.433 26.7057C71.4534 26.4302 71.2925 26.2945 71.2925 26.2945C70.6509 26.6079 68.8484 27.0211 68.1884 27.0789C67.7078 27.1768 67.5876 27.6279 68.0886 27.7856H68.109C68.6488 27.9433 69.0093 28.1189 69.2903 28.2966C69.4899 28.4543 69.4716 28.6699 69.4716 28.8455C69.492 30.3167 69.492 32.5743 69.4309 33.8119C69.4105 34.303 69.27 34.4786 68.9095 34.5585L68.9502 34.5385C68.6691 34.5984 68.4491 34.6563 68.109 34.6962C67.9888 34.814 67.9888 35.4428 68.109 35.5805C68.329 35.5805 69.492 35.5206 70.4533 35.5206C71.7752 35.5206 72.4554 35.5805 72.7976 35.5805C72.9382 35.4228 72.9789 34.8339 72.8974 34.6962C72.5165 34.6762 72.2355 34.6383 71.9768 34.5585C71.6163 34.4806 71.5165 34.303 71.4961 33.8918C71.4554 32.8518 71.4554 30.652 71.4554 29.1609C71.4554 28.7477 71.5756 28.5521 71.6957 28.4343C72.156 28.0411 72.8974 27.7676 73.5594 27.7676C74.2009 27.7676 74.6205 27.9632 74.9403 28.2187C75.3802 28.5721 75.5208 29.0831 75.5819 29.4543C75.6817 30.2987 75.643 31.9675 75.643 33.4207C75.643 34.2052 75.5819 34.4028 75.2825 34.5006C75.1419 34.5605 74.7814 34.6383 74.3619 34.6762C74.2213 34.814 74.2621 35.4228 74.3619 35.5605C74.9423 35.5605 75.6246 35.5006 76.6247 35.5006C77.8671 35.5006 78.6676 35.5605 78.9894 35.5605C79.0892 35.4428 79.1299 34.8739 79.0484 34.7162C78.5454 34.6563 78.1848 34.5784 77.7449 34.3808Z" fill="currentColor"/>
<path fill-rule="evenodd" clip-rule="evenodd" d="M27.6896 11.8065C27.2293 11.1777 26.7873 10.0798 26.7873 10.0798V10.1297C26.7751 10.0739 26.7628 10.0299 26.7486 10C26.7078 10.6288 26.6875 10.8643 26.0866 11.4911C25.166 12.1977 20.398 16.1042 20.0171 24.0548C19.6444 31.4625 25.4797 35.8879 26.2761 36.4568C26.8402 37.7503 26.7873 39.956 26.7873 39.956L27.6081 40.2315C27.6081 40.2315 27.4472 38.0717 27.6875 37.0516C27.7547 36.7343 27.9177 36.4568 28.1112 36.2232C28.2517 36.1254 28.6224 35.8599 29.1112 35.4228C29.1357 35.4088 29.1499 35.4028 29.1499 35.4028C29.1499 35.3988 29.1499 35.3929 29.1479 35.3889C31.093 33.6323 34.8162 29.2188 33.5554 21.9948C31.9362 14.9863 28.1091 12.6888 27.6896 11.8065Z" fill="currentColor"/>
</svg>
