<svg width="150" height="50" viewBox="0 0 150 50" fill="none" xmlns="http://www.w3.org/2000/svg">
<path d="M59.8159 24.9719C59.8406 33.5176 52.9399 40.4896 44.4448 40.5C35.9229 40.5125 29.0345 33.6236 28.9995 25.0572C28.9645 16.4201 35.8178 9.50416 44.4139 9.5C52.9461 9.49584 59.7932 16.3743 59.8159 24.9719ZM56.6333 30.2207C54.6414 29.9047 54.5816 29.8341 54.5816 27.826C54.5816 26.0259 54.6022 24.2236 54.5754 22.4234C54.5322 19.6733 52.8987 18.3138 50.2002 18.7524C49.2011 18.9145 48.2783 19.2679 47.5099 19.9539C46.9908 20.4175 46.4862 20.9018 45.9568 21.3924C45.0875 19.2596 43.9854 18.5383 41.9152 18.7171C40.0407 18.8792 38.6358 19.9186 37.2742 21.5046C37.2742 20.4944 37.2742 19.7543 37.2742 18.9915C35.4326 18.9915 33.7003 18.9915 31.974 18.9915C31.8484 19.4592 31.836 19.8624 31.9534 20.2595C33.9536 20.7126 33.9536 20.7126 33.9536 22.7934C33.9536 24.6975 33.9268 26.6037 33.9639 28.5078C33.9825 29.4932 33.5396 29.9858 32.6085 30.1105C32.3819 30.1417 32.1203 30.0503 31.9328 30.3039C31.871 30.6905 31.8195 31.0938 31.9864 31.5241C34.277 31.5241 36.5615 31.5241 38.8583 31.5241C38.953 31.0377 38.9963 30.6053 38.8274 30.1833C37.4369 29.9255 37.2948 29.7551 37.2907 28.3415C37.2886 27.0943 37.2824 25.8471 37.2927 24.6019C37.3072 22.8953 39.0231 20.9434 40.7019 20.6794C41.6083 20.538 42.1851 20.9163 42.3972 21.779C42.5373 22.3444 42.595 22.941 42.6053 23.5251C42.6341 25.0842 42.6176 26.6412 42.6156 28.2002C42.6135 29.7343 42.5167 29.8632 41.0253 30.254C40.9759 30.676 40.9161 31.1063 41.0686 31.5158C43.2459 31.5158 45.3594 31.5158 47.4749 31.5158C47.5882 31.0543 47.5923 30.651 47.4852 30.2561C46.0062 29.8403 45.9526 29.7676 45.9506 28.1711C45.9506 27.1317 45.9774 26.0924 45.9444 25.0551C45.8826 23.1156 46.9496 21.8622 48.476 20.987C49.9406 20.1472 50.9418 20.7126 51.1251 22.4026C51.362 24.577 51.2054 26.7617 51.2116 28.9423C51.2116 29.2042 51.0736 29.4661 51.0633 29.5056C50.6369 30.1563 50.0704 30.0128 49.6687 30.2477C49.5884 30.6801 49.5575 31.0813 49.6914 31.5012C52.0129 31.5012 54.32 31.5012 56.6354 31.5012C56.6333 31.0439 56.6333 30.6676 56.6333 30.2207Z" fill="currentColor"/>
<path d="M78.2815 20.2638C78.2197 19.8148 78.1888 19.4386 78.333 18.9979C80.0489 18.9979 81.7834 18.9979 83.5858 18.9979C83.8515 19.6776 83.5961 20.4197 83.7774 21.2242C84.4077 20.7295 84.9824 20.2285 85.6045 19.8023C87.1309 18.7567 88.8159 18.4616 90.6122 18.8669C92.2107 19.2286 93.0573 20.1931 93.1108 21.8416C93.1747 23.8143 93.1479 25.7891 93.152 27.7639C93.1582 29.8093 93.255 29.9299 95.2305 30.1939C95.4385 30.6076 95.3809 31.0378 95.2738 31.5222C92.9378 31.5222 90.6183 31.5222 88.2309 31.5222C88.2309 31.1127 88.2309 30.7136 88.2309 30.302C89.815 29.7033 89.817 29.7033 89.815 27.8823C89.8129 26.288 89.85 24.6936 89.7944 23.1013C89.714 20.8188 88.2948 19.9707 86.3214 21.0974C84.7105 22.0183 83.4952 23.2738 83.6908 25.4066C83.8206 26.8076 83.5693 28.2357 83.8165 29.4871C84.2491 30.0608 84.7455 30.0816 85.2234 30.1814C85.4335 30.6096 85.3882 31.0378 85.2605 31.5222C82.9658 31.5222 80.6772 31.5222 78.3371 31.5222C78.1538 31.094 78.2465 30.6678 78.2712 30.2562C80.3394 29.8218 80.3394 29.8218 80.3394 27.7576C80.3394 26.0946 80.3394 24.4317 80.3394 22.7687C80.3394 20.6941 80.3394 20.6941 78.2815 20.2638Z" fill="currentColor"/>
<path d="M60.9205 20.2511C60.8175 19.8416 60.8175 19.4695 60.9473 19.0122C63.3739 19.0122 65.819 19.0122 68.328 19.0122C68.328 19.4154 68.328 19.8125 68.328 20.2365C67.9386 20.5379 67.3763 20.1617 66.886 20.644C67.3104 21.8288 68.3939 22.5356 69.1375 23.6727C69.9882 22.5813 71.1212 21.9265 71.5476 20.7146C71.0862 20.1762 70.5444 20.4673 70.0706 20.2885C69.8605 19.8894 69.9161 19.4653 70.0645 18.983C71.8772 18.983 73.6837 18.983 75.5253 18.983C75.824 19.3676 75.6242 19.8187 75.686 20.3051C72.8639 20.5462 71.801 23.074 69.7678 24.6081C72.077 26.4436 73.142 29.4349 76.1886 30.3038C76.2854 30.6509 76.2731 31.0542 76.1701 31.5178C73.6116 31.5178 71.0553 31.5178 68.4804 31.5178C68.295 31.1062 68.3774 30.7008 68.4227 30.2809C68.9871 29.9566 69.6545 30.3225 70.4208 29.9109C69.7369 28.4745 68.466 27.5141 67.539 26.1546C66.3916 27.379 65.1969 28.4038 64.3111 29.7259C65.0753 30.3973 65.8334 29.9691 66.4987 30.2497C66.4987 30.6572 66.4987 31.0563 66.4987 31.5178C64.4697 31.5178 62.4613 31.5178 60.4364 31.5178C60.1954 31.1228 60.3664 30.7112 60.3169 30.283C63.3388 29.7363 64.5336 26.9155 66.8469 25.2379C64.7684 23.5687 63.9074 20.7313 60.9205 20.2511Z" fill="currentColor"/>
<path d="M110.095 25.0989C106.974 25.0989 103.835 25.0989 100.706 25.0989C100.539 27.7929 101.544 29.7781 103.244 30.252C105.343 30.8362 107.162 29.8508 108.286 27.4645C108.717 27.5435 109.17 27.6266 109.673 27.7181C109.452 28.9404 108.847 29.8259 108.041 30.6096C105.829 32.759 99.6923 32.6363 97.8919 28.6535C96.7425 26.1091 97.2492 22.1284 99.1093 20.2866C101.107 18.3098 104.986 17.8462 107.567 19.2764C109.329 20.2513 110.394 22.6418 110.095 25.0989ZM107.091 23.6874C107.11 21.2574 105.829 19.7961 103.868 19.8751C101.987 19.952 100.652 21.5879 100.813 23.6874C102.881 23.6874 104.955 23.6874 107.091 23.6874Z" fill="currentColor"/>
<path d="M120.889 18.9105C121.004 19.5653 120.942 20.0954 120.845 20.6982C119.822 20.5776 118.849 20.4446 117.854 20.5381C117.854 23.6915 117.854 26.7743 117.854 29.7677C118.44 30.2936 118.944 30.2915 119.48 30.0046C120.017 29.3436 119.678 28.5204 119.89 27.8012C120.209 27.5663 120.543 27.6972 120.975 27.6993C120.955 28.9278 121.272 30.2271 120.151 31.0793C118.856 32.0646 117.366 31.9399 115.941 31.3641C114.678 30.8548 114.369 29.6991 114.351 28.4705C114.32 26.2234 114.338 23.9743 114.338 21.7272C114.338 21.353 114.338 20.9767 114.338 20.6192C113.642 20.3136 112.97 20.6005 112.35 20.3905C112.12 20.0663 112.258 19.7233 112.235 19.2431C114.853 19.2493 115.648 17.6113 115.552 15.2104C116.272 15.1688 116.911 15.1314 117.698 15.0877C117.698 16.362 117.698 17.5801 117.698 18.9126C118.847 18.9105 119.857 18.9105 120.889 18.9105Z" fill="currentColor"/>
</svg>
