<svg width="150" height="50" viewBox="0 0 150 50" fill="none" xmlns="http://www.w3.org/2000/svg">
<path d="M50.6001 26.0279C50.4613 25.8847 50.2932 25.7702 50.1068 25.6897C49.9204 25.6092 49.7231 25.5716 49.5184 25.5716C49.3156 25.568 49.1164 25.6092 48.9301 25.6861C48.7437 25.7666 48.5756 25.8811 48.4367 26.0243C48.2942 26.1639 48.1827 26.3285 48.1078 26.511C48.0384 26.6953 48 26.8904 48 27.0854C47.9963 27.284 48.0347 27.4791 48.1115 27.6616C48.1882 27.8441 48.3015 28.0087 48.444 28.1483C48.7236 28.44 49.1164 28.601 49.5239 28.5921C49.9314 28.5939 50.3206 28.4346 50.6038 28.1483C50.75 28.0123 50.8633 27.8477 50.94 27.6652C51.0186 27.4826 51.0569 27.2894 51.0569 27.089C51.0569 26.8904 51.0186 26.6953 50.94 26.5128C50.8596 26.3285 50.7481 26.1639 50.6001 26.0279ZM68.6805 22.5922C68.6586 23.5406 68.7061 24.4926 68.8194 25.4356H68.7682C68.6476 25.203 68.379 24.7717 67.9697 24.1419L58.1173 9H55.128V28.329H57.4267V14.3557C57.4522 13.4717 57.4139 12.5877 57.3188 11.7038H57.4047C57.5692 12.1261 57.7811 12.5323 58.0315 12.9134L68.1488 28.329H70.9792V9H68.6805V22.5922ZM86.5599 26.205H78.4379V19.5091H85.544V17.4692H78.4379V11.0471H86.0629V9H76.0845V28.329H86.5471L86.5599 26.205ZM88.3177 9V11.0471H93.9766V28.329H96.2753V11.0471H102V9H88.3177ZM65.7935 33.1353C65.2198 33.359 64.7008 33.7008 64.2733 34.1374C63.8329 34.5991 63.4876 35.1395 63.2628 35.7371C63.0381 36.333 62.9394 36.9646 62.965 37.5945C62.9211 38.763 63.3359 39.9046 64.1307 40.7761C64.5291 41.1858 65.0115 41.5043 65.5468 41.7155C66.0822 41.9266 66.6578 42.0197 67.2315 41.9946C68.0958 42.025 68.9546 41.8461 69.7367 41.4739L69.7458 40.488C69.0295 40.8977 68.2128 41.1017 67.3832 41.0802C66.9374 41.0964 66.4933 41.0212 66.0822 40.8566C65.6711 40.692 65.3002 40.4379 64.9987 40.1158C64.3665 39.3964 64.0412 38.4659 64.0924 37.5176C64.0412 36.5155 64.3902 35.5331 65.0645 34.7798C65.3842 34.4327 65.7771 34.1625 66.2138 33.9764C66.6523 33.7938 67.1256 33.7062 67.6006 33.7187C68.3571 33.7062 69.099 33.8887 69.7604 34.2483V33.1872C69.0752 32.917 68.3388 32.79 67.6006 32.815C66.9812 32.8043 66.3636 32.9099 65.7935 33.1353ZM76.5632 36.163C75.9785 35.5618 75.1544 35.2397 74.3084 35.2826C73.8625 35.2611 73.4222 35.3327 73.0074 35.4902C72.5926 35.6459 72.2162 35.8839 71.8965 36.1845C71.5858 36.5227 71.3483 36.9163 71.193 37.3476C71.0377 37.7788 70.9719 38.2315 71.0029 38.6878C70.9591 39.5557 71.2661 40.4056 71.8544 41.0534C72.1486 41.363 72.5031 41.6081 72.8996 41.7727C73.2979 41.9338 73.7255 42.0143 74.1531 41.9964C74.5898 42.0089 75.0265 41.9284 75.4321 41.7638C75.8378 41.5992 76.2014 41.3487 76.4992 41.0319C77.1059 40.3627 77.4183 39.4877 77.3726 38.5948C77.4238 37.7072 77.1333 36.8412 76.5632 36.163ZM75.7738 40.5076C75.3883 40.9425 74.8182 41.1787 74.2316 41.1465C73.9338 41.159 73.6396 41.1035 73.3674 40.9944C73.0951 40.8798 72.8539 40.7116 72.6548 40.4915C72.24 39.9905 72.0335 39.3553 72.0719 38.7111C72.0335 38.0472 72.24 37.3905 72.6548 36.8662C72.8484 36.6461 73.0915 36.4726 73.3637 36.3545C73.636 36.2399 73.9338 36.1845 74.228 36.1988C74.5222 36.1827 74.8109 36.2364 75.0795 36.3509C75.3481 36.4654 75.5856 36.639 75.7757 36.8591C76.1685 37.3905 76.3585 38.0401 76.3165 38.695C76.3567 39.3374 76.1667 39.9834 75.7738 40.5076ZM80.7804 35.7496C80.457 36.0324 80.2195 36.401 80.1025 36.8108V35.483H79.0226V41.8461H80.1025V38.6019C80.0678 38.0132 80.2231 37.4263 80.5429 36.9271C80.6598 36.7446 80.8151 36.5925 81.0052 36.4869C81.1952 36.3813 81.4072 36.3169 81.6228 36.3133C81.8987 36.2918 82.1764 36.3634 82.4085 36.5155V35.4669C82.2093 35.4043 82.0028 35.3739 81.7945 35.3828C81.4236 35.3775 81.0655 35.5081 80.7804 35.7496ZM88.7289 38.3765C88.78 37.5677 88.5352 36.7732 88.0382 36.1308C87.7915 35.8606 87.49 35.6441 87.1483 35.5045C86.8066 35.3649 86.4393 35.3023 86.0721 35.322C85.6664 35.3095 85.2608 35.39 84.8844 35.551C84.5134 35.7121 84.1809 35.9536 83.9123 36.2578C83.3257 36.9289 83.0206 37.7913 83.0608 38.6735C83.0042 39.5539 83.2855 40.4253 83.8465 41.1107C84.1188 41.4023 84.455 41.6314 84.8277 41.7835C85.2005 41.9356 85.6061 42 86.0063 41.9821C86.8048 42.0197 87.596 41.8085 88.2611 41.3773V40.4218C87.6928 40.8745 86.9839 41.125 86.253 41.1321C85.9716 41.1483 85.6865 41.1071 85.4234 41.0051C85.1603 40.9031 84.9173 40.7564 84.7199 40.556C84.3344 40.0979 84.1389 39.5163 84.1718 38.9222H88.738L88.7289 38.3765ZM84.1626 38.0794C84.2193 37.5766 84.444 37.1024 84.7985 36.7338C85.1201 36.3956 85.5714 36.2077 86.0428 36.2131C86.2676 36.2006 86.4887 36.2382 86.6952 36.3223C86.9016 36.4064 87.0844 36.5334 87.2305 36.698C87.532 37.0917 87.6837 37.573 87.6618 38.0651L84.1626 38.0794Z" fill="currentColor"/>
</svg>
