<svg width="150" height="50" viewBox="0 0 150 50" fill="none" xmlns="http://www.w3.org/2000/svg">
<path d="M43.616 14.2614C43.9283 14.3912 44.2626 14.4852 44.5472 14.6593C45.2269 15.0765 45.5474 15.7175 45.564 16.505C45.5806 17.2261 45.5695 17.9473 45.5695 18.6685C45.5695 23.4458 45.5695 28.2231 45.5695 33.0004C45.5695 34.6113 45.0998 35.2358 43.5552 35.6834C43.5166 35.6944 43.4806 35.7248 43.4447 35.7442C43.3591 35.7442 43.2762 35.7442 43.1905 35.7442C42.1958 35.5093 41.5686 34.7688 40.8944 34.0863C37.0648 30.2153 33.2325 26.347 29.3973 22.4815C29.2564 22.3378 29.0962 22.2135 28.8668 22.009C28.8475 22.3157 28.8281 22.5091 28.8281 22.6998C28.8254 26.1923 28.8309 29.6875 28.8226 33.18C28.8198 34.5422 28.2424 35.2855 26.9493 35.6475C26.8691 35.6696 26.7945 35.711 26.7172 35.7442C26.6315 35.7442 26.5486 35.7442 26.463 35.7442C26.427 35.7221 26.3939 35.6917 26.3552 35.6779C24.8245 35.1501 24.4211 34.5864 24.4211 32.9645C24.4211 28.6376 24.4211 24.3079 24.4211 19.9809C24.4211 18.8204 24.4155 17.6627 24.4266 16.5022C24.4349 15.712 24.7692 15.0737 25.4462 14.6565C25.7307 14.4797 26.0678 14.3885 26.3801 14.2614C26.5486 14.2614 26.7199 14.2614 26.8885 14.2614C27.5461 14.4465 28.06 14.8333 28.538 15.3196C32.5776 19.4173 36.6338 23.5011 40.6844 27.5904C40.7977 27.7037 40.922 27.8059 41.1265 27.991C41.1431 27.6871 41.1624 27.4964 41.1624 27.3058C41.1652 23.7995 41.1624 20.2931 41.1652 16.7868C41.168 15.4633 41.7012 14.7422 42.9529 14.336C43.0082 14.3166 43.0551 14.2863 43.1076 14.2614C43.2762 14.2614 43.4475 14.2614 43.616 14.2614Z" fill="currentColor"/>
<path d="M82.5033 35.7414C82.3873 35.6889 82.274 35.6336 82.1579 35.5867C81.3207 35.2606 80.8234 34.661 80.6935 33.7713C80.6576 33.5337 80.6521 33.2933 80.6521 33.0529C80.6493 27.6843 80.6493 22.3185 80.6521 16.9498C80.6521 16.6956 80.6576 16.4387 80.7073 16.19C80.8869 15.2561 81.4395 14.6565 82.3596 14.4023C82.5227 14.3581 82.6801 14.3084 82.8432 14.2586C82.8708 14.2586 82.8984 14.2586 82.9288 14.2586C82.9647 14.2807 83.0007 14.3084 83.0393 14.3194C84.5922 14.7753 85.0564 15.3887 85.0564 16.9996C85.0564 20.4783 85.0564 23.957 85.0591 27.4329C85.0591 27.607 85.0785 27.781 85.0951 28.049C85.2774 27.886 85.3824 27.8004 85.4791 27.7037C89.3778 23.7635 93.2765 19.8234 97.1669 15.8778C97.8438 15.1925 98.4876 14.4741 99.4851 14.2559C99.5403 14.2559 99.5984 14.2559 99.6536 14.2559C99.6895 14.2752 99.7255 14.3056 99.7641 14.3166C101.361 14.7643 101.801 15.339 101.801 17.0051C101.801 20.5363 101.801 24.0675 101.801 27.6014C101.801 29.5522 101.795 31.5001 101.801 33.4508C101.803 34.23 101.499 34.86 100.864 35.2965C100.579 35.4927 100.228 35.5922 99.9078 35.7359C99.6813 35.7359 99.4547 35.7359 99.2281 35.7359C97.7941 35.2468 97.3824 34.2079 97.4128 32.7601C97.4791 29.3947 97.4349 26.0293 97.4321 22.6611C97.4321 22.4732 97.4017 22.2881 97.3796 21.9952C97.1834 22.1693 97.0674 22.266 96.9624 22.371C92.9725 26.4023 88.9827 30.4308 85.0039 34.4732C84.4706 35.0147 83.9318 35.5176 83.1858 35.7359C82.9565 35.7414 82.7299 35.7414 82.5033 35.7414Z" fill="currentColor"/>
<path d="M123.515 14.2614C123.662 14.3111 123.806 14.3691 123.952 14.4134C125.488 14.861 126.08 16.6597 125.104 17.9307C124.966 18.1103 124.803 18.2678 124.645 18.4281C122.59 20.4948 120.54 22.5671 118.47 24.6173C118.163 24.9213 118.166 25.0898 118.473 25.3937C120.562 27.466 122.628 29.5604 124.709 31.641C125.217 32.1522 125.579 32.7214 125.555 33.4702C125.527 34.3737 125.107 35.0451 124.3 35.4347C123.485 35.8298 122.703 35.7082 121.99 35.1584C121.835 35.0368 121.697 34.8931 121.559 34.7522C119.506 32.6827 117.456 30.6132 115.403 28.5436C115.005 28.143 115 28.1458 114.602 28.5436C112.474 30.6795 110.355 32.8209 108.219 34.9484C107.263 35.9017 105.89 35.8906 105.011 34.9484C104.29 34.1747 104.215 33.0032 104.848 32.1356C105.014 31.909 105.216 31.7046 105.415 31.5056C107.44 29.4665 109.465 27.4329 111.491 25.3965C111.88 25.0042 111.88 25.0014 111.482 24.6007C109.396 22.5064 107.313 20.4064 105.221 18.3148C104.754 17.8478 104.428 17.3229 104.409 16.6431C104.378 15.5766 104.992 14.7228 106.017 14.4134C106.163 14.3691 106.307 14.3111 106.454 14.2586C106.539 14.2586 106.622 14.2586 106.708 14.2586C107.666 14.4493 108.296 15.1124 108.946 15.7728C110.816 17.6821 112.704 19.5747 114.588 21.4702C114.986 21.8708 115 21.8708 115.392 21.4757C117.274 19.5775 119.161 17.6848 121.031 15.7755C121.678 15.1152 122.308 14.452 123.267 14.2559C123.344 14.2614 123.43 14.2614 123.515 14.2614Z" fill="currentColor"/>
<path d="M76.1372 14.2614C76.4301 14.3995 76.7423 14.5045 77.0104 14.6814C77.6376 15.0931 78.0106 15.6844 78.0161 16.447C78.0299 18.2402 78.0189 20.0362 78.0272 21.8294C78.0299 22.1941 77.878 22.3323 77.5188 22.3295C76.4025 22.3185 75.2862 22.3157 74.1699 22.3295C73.7776 22.335 73.6532 22.1637 73.656 21.7935C73.6643 20.0997 73.656 18.4032 73.6615 16.7095C73.6643 15.5241 74.2031 14.7726 75.3111 14.3664C75.3884 14.3388 75.4658 14.2973 75.5404 14.2641C75.7393 14.2614 75.9383 14.2614 76.1372 14.2614Z" fill="currentColor"/>
<path d="M53.5492 14.3443C53.5492 14.3166 53.5492 14.289 53.5492 14.2614C57.7933 14.2614 62.0401 14.2614 66.2842 14.2614C66.2842 14.2918 66.2814 14.3222 66.2814 14.3526C62.0401 14.3498 57.796 14.347 53.5492 14.3443Z" fill="currentColor"/>
<path d="M53.5492 14.3443C57.7933 14.347 62.0373 14.347 66.2814 14.3498C67.3645 16.9029 68.4476 19.4532 69.5308 22.0062C69.5584 22.0698 69.5611 22.1416 69.586 22.266C69.434 22.2853 69.3042 22.3185 69.1716 22.3185C68.0249 22.3212 66.8782 22.3102 65.7343 22.3268C65.3668 22.3323 65.1679 22.1886 65.0187 21.8653C64.6042 20.9673 64.1538 20.0831 63.7366 19.1852C63.5929 18.8729 63.3912 18.7514 63.0458 18.7541C60.91 18.7652 58.7714 18.7652 56.6356 18.7541C56.2985 18.7514 56.0912 18.8619 55.9282 19.1658C54.9418 20.9977 53.9443 22.8213 52.9331 24.6394C52.7507 24.9655 52.7618 25.2224 52.9441 25.5402C53.9361 27.2726 54.9142 29.0106 55.8785 30.7568C56.0553 31.0746 56.2764 31.1824 56.6273 31.1824C58.5946 31.1713 60.5619 31.1713 62.5292 31.1824C62.9022 31.1851 63.1343 31.0718 63.2918 30.7209C63.5487 30.1407 63.8527 29.577 64.129 29.0051C64.3307 28.5878 64.2865 28.5215 63.814 28.5188C62.2142 28.516 60.6171 28.5353 59.0173 28.5215C57.8679 28.5132 56.8953 27.6291 56.7848 26.5294C56.6604 25.3109 57.6441 24.1531 58.8736 24.1089C59.7219 24.0785 60.5702 24.0979 61.4212 24.0923C64.5351 24.0758 67.6463 24.0592 70.7603 24.0454C70.951 24.0454 71.1444 24.0675 71.4069 24.0868C71.3295 24.2858 71.2853 24.4294 71.2217 24.5621C69.481 28.1209 67.7375 31.6797 66.0023 35.2413C65.8586 35.5369 65.6625 35.6502 65.3392 35.6502C61.5759 35.6447 57.8126 35.6447 54.0466 35.6502C53.7261 35.6502 53.5271 35.5397 53.3669 35.2551C51.5432 31.9947 49.7058 28.7426 47.8905 25.4794C47.7938 25.3053 47.7634 24.9931 47.8546 24.8246C49.739 21.3238 51.6455 17.8368 53.5492 14.3443Z" fill="currentColor"/>
<path d="M73.6588 29.0603C73.6588 27.6042 73.656 26.1481 73.6588 24.6919C73.6615 24.1587 73.7085 24.1089 74.2418 24.1089C75.3166 24.1062 76.3914 24.1172 77.4635 24.1034C77.8559 24.0979 78.0272 24.2305 78.0244 24.6394C78.0161 27.5655 78.0299 30.4916 78.0133 33.4177C78.0051 34.6362 76.9993 35.6392 75.8443 35.6447C74.6811 35.6502 73.6753 34.6279 73.6615 33.3873C73.6505 31.945 73.6615 30.5026 73.6588 29.0603C73.6615 29.0603 73.6615 29.0603 73.6588 29.0603Z" fill="currentColor"/>
</svg>
