<svg width="150" height="50" viewBox="0 0 150 50" fill="none" xmlns="http://www.w3.org/2000/svg">
<path d="M115.387 21.5812C115.156 21.5812 114.931 21.6292 114.732 21.7424L108.434 25.4032C108.026 25.6392 107.779 26.0859 107.779 26.5608V33.8693C107.779 34.3441 108.026 34.7894 108.434 35.0269L110.079 35.9806C110.878 36.3773 111.173 36.3711 111.537 36.3711C112.72 36.3711 113.395 35.6485 113.395 34.3928V27.1818C113.395 27.0795 113.307 27.0068 113.208 27.0068H112.419C112.318 27.0068 112.231 27.0816 112.231 27.1818V34.3956C112.231 34.9521 111.655 35.512 110.721 35.0419L109.011 34.0326C108.95 33.9996 108.904 33.9393 108.904 33.8713V26.5628C108.904 26.4935 108.95 26.4228 109.011 26.3879L115.296 22.7401C115.355 22.7058 115.425 22.7058 115.484 22.7401L121.769 26.3879C121.829 26.4242 121.876 26.4915 121.876 26.5628V33.8713C121.876 33.9413 121.841 34.0127 121.782 34.0463L115.484 37.694C115.428 37.7263 115.354 37.7263 115.297 37.694L113.679 36.7251C113.63 36.697 113.565 36.6991 113.519 36.7251C113.072 36.9797 112.988 37.0092 112.57 37.1561C112.467 37.1924 112.309 37.2487 112.624 37.4257L114.736 38.6787C114.937 38.796 115.162 38.8537 115.391 38.8537C115.625 38.8537 115.846 38.7974 116.047 38.6787L122.345 35.031C122.753 34.7922 123 34.3482 123 33.8734V26.5649C123 26.0901 122.753 25.6447 122.345 25.4073L116.047 21.7465C115.849 21.6333 115.623 21.5853 115.391 21.5853L115.387 21.5812ZM117.073 26.803C115.279 26.803 114.211 27.5715 114.211 28.8485C114.211 30.2325 115.271 30.6154 116.993 30.7863C119.053 30.9894 119.213 31.2934 119.213 31.7016C119.213 32.4091 118.652 32.711 117.327 32.711C115.663 32.711 115.297 32.2924 115.174 31.458C115.16 31.3688 115.091 31.2968 115 31.2968H114.183C114.08 31.2988 113.998 31.3819 113.995 31.4855C113.995 32.5525 114.572 33.8137 117.325 33.8137C119.318 33.8137 120.467 33.028 120.467 31.6467C120.467 30.2812 119.539 29.9121 117.606 29.6548C115.655 29.3926 115.466 29.2677 115.466 28.8066C115.466 28.4265 115.625 27.918 117.071 27.918C118.363 27.918 118.841 28.1987 119.037 29.0756C119.054 29.158 119.126 29.2252 119.211 29.2252H120.028C120.079 29.2252 120.127 29.1943 120.162 29.158C120.196 29.1195 120.22 29.0756 120.216 29.0235C120.09 27.5132 119.089 26.803 117.073 26.803H117.073Z" fill="currentColor"/>
<path d="M78.3593 12C78.2891 12 78.2196 12.0186 78.1589 12.0543C78.0355 12.127 77.9591 12.2601 77.9585 12.4042V22.7003C77.9585 22.8012 77.9114 22.8918 77.8248 22.9425C77.7382 22.9933 77.6305 22.9933 77.5439 22.9425L75.8722 21.9737C75.6241 21.8289 75.318 21.8289 75.0698 21.9737L68.3974 25.8499C68.1478 25.9947 67.9958 26.2733 67.9958 26.5628V34.3153C67.9951 34.6042 68.1485 34.8711 68.3974 35.0152L75.0698 38.8914C75.318 39.0362 75.6241 39.0362 75.8722 38.8914L82.5447 35.0152C82.7935 34.8711 82.9463 34.6042 82.9463 34.3153V14.9884C82.9463 14.694 82.7867 14.4181 82.5317 14.2754L78.5605 12.0412C78.4977 12.0055 78.4289 11.9994 78.3593 12ZM35.4347 21.6772C35.3072 21.6827 35.1879 21.7047 35.0733 21.7712L28.4009 25.6475C28.152 25.7916 27.9986 26.0585 28 26.3474L28.0136 36.7512C28.0136 36.896 28.088 37.0305 28.2141 37.1012C28.3382 37.176 28.4916 37.176 28.615 37.1012L32.5733 34.8128C32.8242 34.6632 32.9878 34.4017 32.9878 34.1129V29.254C32.9878 28.9638 33.1392 28.6982 33.3894 28.5541L35.074 27.5715C35.196 27.5002 35.3344 27.4631 35.4749 27.4638C35.616 27.4631 35.7544 27.5002 35.8765 27.5715L37.5604 28.5534C37.8099 28.6975 37.9613 28.9638 37.9613 29.2533V34.1122C37.9613 34.4011 38.1283 34.6639 38.3758 34.8121L42.3341 37.1005C42.4589 37.1753 42.6123 37.1753 42.735 37.1005C42.8577 37.0291 42.9355 36.8953 42.9355 36.7505L42.9491 26.3467C42.9505 26.0578 42.7977 25.7902 42.5482 25.6468L35.8758 21.7712C35.7633 21.7047 35.6426 21.682 35.5144 21.6772H35.4347ZM95.396 21.7719C95.2549 21.7712 95.1165 21.809 94.9944 21.8797L88.322 25.7559C88.0731 25.9007 87.9204 26.1662 87.9204 26.4558V34.2082C87.9204 34.4999 88.0834 34.764 88.3349 34.9081L94.9542 38.7055C95.1983 38.8454 95.4969 38.8564 95.743 38.7185L99.7545 36.4706C99.882 36.3992 99.9679 36.2668 99.9679 36.1206C99.9686 35.9745 99.8929 35.8434 99.7675 35.7707L93.0541 31.8944C92.9287 31.8224 92.84 31.6762 92.84 31.5308V29.1065C92.84 28.9617 92.9294 28.8286 93.0541 28.7565L95.1403 27.5454C95.2644 27.4734 95.4171 27.4734 95.5419 27.5454L97.6288 28.7565C97.7528 28.8286 97.8299 28.9617 97.8292 29.1065V31.0175C97.8285 31.1616 97.9056 31.2954 98.0296 31.3675C98.1544 31.4402 98.3064 31.4402 98.4312 31.3675L102.429 29.0262C102.677 28.8807 102.831 28.6152 102.831 28.3263V26.4558C102.831 26.1669 102.678 25.9007 102.429 25.7559L95.7962 21.8797C95.6755 21.809 95.5371 21.7712 95.396 21.7719ZM75.4441 27.5592C75.4816 27.5592 75.5184 27.5681 75.5511 27.5859L77.8378 28.9185C77.8998 28.9549 77.9448 29.0214 77.9448 29.0935V31.7586C77.9448 31.8313 77.9005 31.8979 77.8378 31.9336L75.5511 33.2661C75.4891 33.3018 75.4127 33.3018 75.3507 33.2661L73.0641 31.9336C73.002 31.8972 72.957 31.8306 72.957 31.7586V29.0935C72.957 29.0214 73.002 28.9549 73.0641 28.9185L75.3507 27.5859C75.3821 27.5674 75.4093 27.5592 75.4441 27.5592Z" fill="currentColor"/>
<path d="M55.4799 21.7308C55.3388 21.7308 55.2004 21.7678 55.0784 21.8385L48.4059 25.701C48.1564 25.8458 48.0051 26.1244 48.0051 26.4139V34.1664C48.0044 34.4553 48.1571 34.7222 48.4059 34.8663L55.0784 38.7425C55.3265 38.8873 55.6327 38.8873 55.8808 38.7425L62.5533 34.8663C62.8021 34.7222 62.9548 34.4553 62.9548 34.1664V26.4146C62.9548 26.1244 62.8035 25.8458 62.5533 25.7017L55.8808 21.8392C55.7588 21.7678 55.6204 21.7308 55.4793 21.7314L55.4799 21.7308ZM95.383 28.6488C95.3564 28.6488 95.3271 28.6488 95.3026 28.6619L94.0188 29.416C93.9704 29.4434 93.9397 29.4942 93.9384 29.5505V31.0312C93.9384 31.0868 93.9704 31.1376 94.0188 31.1657L95.3026 31.9061C95.3476 31.9342 95.4042 31.9342 95.4492 31.9061L96.7329 31.1657C96.7806 31.1383 96.8134 31.0868 96.8134 31.0312V29.5505C96.8134 29.4949 96.7806 29.4441 96.7329 29.416L95.4492 28.6619C95.4253 28.6474 95.4089 28.6488 95.383 28.6488Z" fill="currentColor"/>
</svg>
