<svg width="150" height="50" viewBox="0 0 150 50" fill="none" xmlns="http://www.w3.org/2000/svg">
<path d="M110.084 23.455C108.736 22.7807 107.203 22.7194 105.793 22.4129C105.119 22.229 104.322 22.1677 103.709 21.7386C102.912 21.0029 103.28 19.4704 104.322 19.2252C105.671 18.8574 107.142 18.7961 108.429 19.2865C109.226 19.5317 109.533 20.3899 109.655 21.0642C110.023 21.0642 110.391 21.0642 110.82 21.0642C110.82 20.3286 110.575 19.5317 109.962 19.0413C108.981 18.2443 107.632 18.183 106.467 18.183C105.425 18.1217 104.261 18.1217 103.218 18.6735C101.747 19.4704 101.809 22.0451 103.402 22.6581C105.119 23.2711 106.958 23.3324 108.674 23.7615C109.103 23.8841 109.533 24.068 109.716 24.4971C110.146 25.3554 109.778 26.6427 108.797 26.9492C107.387 27.3783 105.732 27.3783 104.383 26.8266C103.464 26.4588 103.035 25.5393 102.973 24.681C102.605 24.681 102.176 24.681 101.809 24.7423C101.87 25.6006 102.054 26.5201 102.728 27.0718C103.831 27.93 105.241 28.0526 106.59 28.1139C107.816 28.1139 109.165 27.9913 110.207 27.317C111.433 26.4588 111.555 24.1906 110.084 23.455Z" fill="currentColor"/>
<path d="M59.5103 18.98C58.8972 18.4283 57.9777 18.2443 57.1808 18.2443C55.403 18.2443 53.6253 18.3057 51.8475 18.3057C51.8475 21.432 51.8475 24.6197 51.8475 27.7461C52.154 27.7461 52.4605 27.7461 52.7671 27.7461C52.7671 26.3975 52.7058 25.0489 52.7671 23.7615C54.2996 23.7615 55.7708 23.7615 57.3034 23.7615C58.4068 23.7002 59.6942 23.2098 60.1233 22.1064C60.4911 21.0642 60.3685 19.7156 59.5103 18.98ZM59.0198 21.9225C58.7133 22.7194 57.7938 22.9646 56.9969 23.0259C55.5869 23.0872 54.177 23.0259 52.8284 23.0259C52.8284 21.7386 52.8284 20.3899 52.8284 19.1026C54.177 19.1026 55.5256 19.1026 56.8743 19.1026C57.5486 19.1026 58.3455 19.2252 58.7746 19.7769C59.2037 20.3286 59.265 21.1868 59.0198 21.9225Z" fill="currentColor"/>
<path d="M125.226 26.8879C125.226 24.0067 125.226 21.1255 125.226 18.2443C124.858 18.3057 124.49 18.3057 124.122 18.3057C124.122 21.432 124.122 24.5584 124.122 27.7461C126.82 27.7461 129.578 27.7461 132.276 27.7461C132.276 27.5009 132.276 27.2557 132.276 26.9492C129.946 26.8879 127.617 26.9492 125.226 26.8879Z" fill="currentColor"/>
<path d="M123.08 24.6197C123.571 23.0259 123.325 21.0642 122.161 19.8382C121.241 18.7348 119.831 18.2443 118.421 18.1217C116.95 17.9991 115.418 18.1217 114.069 18.7961C112.965 19.3478 112.107 20.3899 111.739 21.6772C111.433 22.9646 111.494 24.4971 112.23 25.6619C112.965 26.8879 114.314 27.6848 115.663 27.93C116.889 28.1752 118.237 28.1752 119.463 27.93C119.954 27.8074 120.383 27.5622 120.812 27.5622C121.364 27.8687 121.916 28.2978 122.467 28.6657C122.712 28.4205 122.958 28.2365 123.203 27.9913C122.651 27.5622 122.099 27.1944 121.548 26.8266C122.222 26.2136 122.835 25.5393 123.08 24.6197ZM121.364 25.7232C120.383 26.8879 118.789 27.317 117.318 27.2557C115.969 27.2557 114.621 26.8266 113.701 25.7845C112.659 24.6197 112.536 22.9646 112.965 21.5546C113.395 20.2673 114.621 19.3478 115.908 19.0413C117.563 18.6735 119.402 18.7348 120.751 19.8995C122.529 21.2481 122.712 24.0067 121.364 25.7232Z" fill="currentColor"/>
<path d="M78.3912 27.0718C78.0847 26.8879 78.0847 26.5201 78.0847 26.2136C78.0847 24.8649 78.0847 23.5776 78.0847 22.229C78.6364 22.229 79.1881 22.229 79.7399 22.229C79.6786 21.9838 79.6786 21.7999 79.6786 21.5546C79.1268 21.5546 78.5751 21.5546 78.0234 21.5546C78.0234 20.8803 78.0234 20.206 78.0234 19.5317C77.6556 19.5317 77.3491 19.5317 77.0426 19.5317C77.0426 20.206 77.0426 20.8803 77.1652 21.6159C76.7361 21.6159 76.3683 21.6159 75.9391 21.6159C75.9391 21.7999 75.9391 22.0451 75.9391 22.229C76.307 22.229 76.7361 22.229 77.1652 22.229C77.1652 23.6389 77.1652 25.1102 77.1652 26.5201C77.1039 26.9492 77.2265 27.4396 77.6556 27.6235C78.3299 27.93 79.0655 27.8687 79.8012 27.8074C79.8012 27.6235 79.8012 27.3783 79.8012 27.1944C79.3107 27.1944 78.8203 27.2557 78.3912 27.0718Z" fill="currentColor"/>
<path d="M66.4987 21.9225C65.3952 21.3094 64.0466 21.2481 62.8206 21.432C61.7784 21.6159 60.7976 22.1677 60.3685 23.1485C59.9394 24.1293 59.9394 25.2941 60.4298 26.2749C60.9815 27.317 62.1462 27.8687 63.2497 27.93C64.6596 28.0526 66.2535 27.8687 67.2956 26.7653C68.399 25.3554 68.1538 22.842 66.4987 21.9225ZM66.3148 26.5201C65.763 27.0718 64.9661 27.317 64.2305 27.317C63.3723 27.3783 62.4527 27.1944 61.8397 26.6427C61.0428 25.9071 60.9202 24.681 61.2267 23.6389C61.5332 22.7194 62.3914 22.1677 63.311 22.0451C64.1692 21.9225 65.15 21.9838 65.9469 22.4742C66.56 22.842 66.8665 23.5163 66.9278 24.1906C67.0504 25.0489 66.9278 25.9071 66.3148 26.5201Z" fill="currentColor"/>
<path d="M73.8549 24.4358C72.6901 24.1906 71.4641 24.2519 70.2994 23.9454C69.8703 23.8841 69.4412 23.5163 69.5024 23.0872C69.5024 22.4129 70.1768 22.1064 70.7285 22.0451C71.648 21.8612 72.5675 21.8612 73.4258 22.229C73.9162 22.4742 74.1001 22.9033 74.1614 23.3937C74.5292 23.3937 74.8357 23.3937 75.2035 23.3937C75.1422 22.842 74.9583 22.229 74.4679 21.9225C73.6097 21.3094 72.4449 21.3094 71.4028 21.3707C70.6672 21.432 69.8703 21.4933 69.2572 21.9225C68.399 22.4742 68.399 24.068 69.3798 24.3745C70.7898 24.8649 72.3836 24.7423 73.8549 25.1715C74.5905 25.4167 74.6518 26.5201 73.9775 26.8879C72.9967 27.3783 71.8319 27.2557 70.7898 27.1331C70.0542 27.0718 69.3798 26.5201 69.3798 25.7232C69.0733 25.7232 68.7055 25.7232 68.3377 25.7232C68.399 26.3362 68.5829 26.8879 69.0733 27.2557C69.8703 27.8074 70.9124 27.8074 71.8319 27.8687C72.8128 27.8687 73.8549 27.8074 74.7131 27.317C75.4487 26.9492 75.6939 25.9071 75.2648 25.2328C74.9583 24.8036 74.4066 24.5584 73.8549 24.4358Z" fill="currentColor"/>
<path d="M88.0769 21.5546C87.7704 21.5546 87.4639 21.5546 87.1574 21.5546C87.1574 21.8612 87.0961 22.1677 87.0961 22.5355C86.667 22.1677 86.2378 21.7386 85.6861 21.5546C84.7053 21.2481 83.6019 21.2481 82.621 21.4933C81.6402 21.7386 80.6594 22.4742 80.4142 23.455C80.169 24.4358 80.2303 25.6006 80.9046 26.4588C81.5176 27.1331 82.3758 27.4396 83.2341 27.5622C84.5827 27.7461 86.1152 27.5622 87.0961 26.5201C87.0961 27.317 87.2187 28.1752 86.7283 28.8496C86.2378 29.5239 85.3183 29.6465 84.5214 29.7078C83.7858 29.7078 83.0502 29.7078 82.3758 29.4013C81.9467 29.2174 81.7628 28.727 81.5789 28.2978C81.2724 28.2978 80.9659 28.2978 80.6594 28.2978C80.782 28.9109 81.0885 29.5239 81.6402 29.8304C82.4984 30.2595 83.4793 30.3208 84.3988 30.3208C85.4409 30.3208 86.6057 30.1982 87.4026 29.4626C88.0156 28.9109 88.1995 28.0526 88.1382 27.2557C88.0769 25.3554 88.1382 23.455 88.0769 21.5546ZM86.4831 26.1523C85.7474 26.9492 84.5214 27.0718 83.4793 26.9492C82.6823 26.8266 81.7628 26.3975 81.4563 25.6006C81.2111 24.8649 81.2111 23.8841 81.6402 23.1485C82.008 22.5355 82.7436 22.229 83.418 22.1064C84.3375 21.9838 85.3796 21.9838 86.1152 22.5355C87.2187 23.3324 87.3413 25.1102 86.4831 26.1523Z" fill="currentColor"/>
<path d="M93.2263 21.3707C92.4906 21.3707 91.755 21.3094 91.0194 21.6159C90.5903 21.7999 90.3451 22.229 90.0999 22.5968C90.0999 22.2903 90.0999 21.9225 90.0999 21.5546C89.732 21.5546 89.4255 21.5546 89.119 21.5546C89.0577 23.6389 89.0577 25.6619 89.119 27.7461C89.4255 27.7461 89.732 27.7461 90.0386 27.7461C90.0386 26.704 90.0386 25.6006 90.0386 24.5584C90.0386 23.8228 90.2838 22.9646 90.8968 22.5355C91.5711 22.0451 92.4293 22.1677 93.2263 22.1677C93.2263 21.9225 93.2263 21.6159 93.2263 21.3707Z" fill="currentColor"/>
<path d="M100.092 22.4129C99.2338 21.4933 97.8852 21.3094 96.6591 21.3707C95.4944 21.432 94.2071 21.8612 93.5941 22.9033C92.7971 24.2519 93.0424 26.2749 94.2684 27.1331C95.4944 27.9913 97.1496 28.0526 98.5595 27.7461C99.6016 27.5009 100.521 26.7653 100.828 25.7232C100.521 25.7232 100.153 25.7232 99.7855 25.7232C99.5403 26.4588 98.9273 27.0105 98.1917 27.1944C97.0883 27.5009 95.7396 27.3783 94.8201 26.5814C94.3297 26.1523 94.1458 25.478 94.0845 24.8649C96.4139 24.8649 98.6821 24.8649 101.012 24.8649C100.95 23.9454 100.766 23.0259 100.092 22.4129ZM94.2071 24.2519C94.3297 23.5163 94.6975 22.7807 95.3718 22.4129C96.6592 21.6773 98.5595 21.7999 99.6016 23.0259C99.9081 23.3324 100.031 23.8228 100.092 24.2519C98.1304 24.2519 96.1687 24.2519 94.2071 24.2519Z" fill="currentColor"/>
<path d="M39.4646 17.57C39.6485 18.0604 39.8937 18.5509 39.8324 19.0413C39.8324 20.0834 39.4646 21.1255 39.5872 22.1677C39.7098 23.2711 39.955 24.4358 39.6485 25.5393C39.5872 25.9071 39.342 26.2749 39.2194 26.6427C39.2194 26.6427 39.2807 26.7653 39.2807 26.8266C39.4033 26.6427 39.5259 26.4588 39.6485 26.2749C40.8132 24.3745 41.6714 22.2903 42.2844 20.1447C42.591 18.9187 42.8362 17.7539 42.8362 16.5279C42.8362 16.0375 42.8362 15.4858 42.4684 15.0567C41.794 14.1984 40.8745 13.4628 39.8324 13.095C38.3611 12.5433 36.6447 12.482 35.1121 12.8498C35.4799 13.095 35.9091 13.2789 36.1543 13.5854C37.6255 14.5662 38.7289 15.9762 39.4646 17.57Z" fill="currentColor"/>
<path d="M38.0546 26.2749C37.2577 24.6197 36.1543 23.0259 35.7865 21.1255C35.6639 20.3286 35.7252 19.4091 36.3995 18.8574C37.1351 18.2443 38.1772 18.3057 39.0354 18.3057C38.545 16.7731 37.5029 15.4245 36.2769 14.4436C34.7443 13.2789 32.7214 12.7272 30.821 12.9724C29.6563 13.1563 28.5528 13.7693 27.8172 14.6888C26.8977 15.9762 26.4686 17.57 26.346 19.1026C27.3268 18.6122 28.3689 18.2443 29.4724 18.4896C30.1467 18.6735 30.6984 19.2865 30.821 19.9608C31.1275 21.3707 31.3114 22.7807 31.0049 24.1906C30.7597 25.3554 30.0854 26.3362 29.8402 27.4396C30.1467 27.4396 30.4532 27.5009 30.6984 27.6235C31.2501 27.93 31.5566 28.5431 31.4953 29.1561C31.4953 30.6886 31.4953 32.2212 31.5566 33.7537C31.6179 34.3667 31.6179 35.041 31.8018 35.6541C31.9857 36.3897 32.5375 37.1866 33.3344 37.3092C34.1926 37.4318 35.1121 37.1866 35.8478 36.8188C36.5834 36.451 36.9512 35.5928 37.0738 34.7958C37.319 33.1407 37.5029 31.4855 37.6868 29.8304C37.8094 29.2174 37.6868 28.6044 37.9933 28.0526C38.1772 27.6848 38.4837 27.5622 38.8515 27.3783C38.545 27.0105 38.2385 26.704 38.0546 26.2749Z" fill="currentColor"/>
<path d="M25.4877 23.7002C25.6717 22.6581 25.6717 21.6772 25.6104 20.6351C25.5491 19.1639 25.733 17.6926 26.1621 16.344C26.4686 15.3019 27.0203 14.3823 27.7559 13.5854C26.1008 13.095 24.3843 12.7885 22.6679 13.095C21.5644 13.3402 20.5836 13.9532 20.0319 14.9341C19.2963 16.1601 19.235 17.6926 19.3576 19.1026C19.6028 21.0029 20.0319 22.842 20.5836 24.6197C21.074 26.1523 21.5644 27.6848 22.4227 29.0335C22.7292 29.5239 23.097 30.0143 23.6487 30.1982C24.1391 30.3208 24.5069 29.953 24.8134 29.5852C25.4878 28.7883 26.1621 28.0526 26.8364 27.2557C25.8556 26.3362 25.3038 24.9875 25.4877 23.7002Z" fill="currentColor"/>
<path d="M36.9512 19.4091C36.5221 19.8382 36.5221 20.5125 36.5834 21.0642C36.8899 22.842 37.932 24.3132 38.7289 25.9071C39.2807 24.681 38.9741 23.3324 38.8515 22.1064C38.7289 21.0642 39.0354 20.0834 39.0968 19.1026C38.4224 19.0413 37.5642 18.98 36.9512 19.4091ZM37.3803 20.1447C37.1964 20.0834 37.0125 19.8382 37.1964 19.6543C37.5642 19.4091 38.0546 19.4091 38.4224 19.5317C38.4224 20.0221 37.8094 20.3899 37.3803 20.1447Z" fill="currentColor"/>
<path d="M29.7789 25.3554C30.5758 23.7002 30.4532 21.7999 30.0241 20.0834C29.9015 19.593 29.4724 19.2252 28.982 19.2252C28.0624 19.1639 27.1429 19.593 26.346 20.0834C26.346 20.9416 26.4073 21.7386 26.2847 22.6581C26.2847 23.3937 26.0395 24.1293 26.2234 24.8649C26.4686 26.1523 27.6333 27.317 29.0433 27.317C29.2272 26.6427 29.4724 25.9684 29.7789 25.3554ZM28.3076 19.9608C28.3076 19.8382 28.4302 19.7769 28.5528 19.7156C28.9207 19.593 29.3498 19.6543 29.6563 19.8995C29.8402 20.0834 29.6563 20.3286 29.4724 20.4512C29.0433 20.7577 28.3689 20.4512 28.3076 19.9608Z" fill="currentColor"/>
<path d="M39.5259 28.2365C39.2807 28.0526 38.9741 28.2365 38.7902 28.3591C38.545 28.6044 38.545 28.9722 38.545 29.2787C39.0968 29.5239 39.7098 29.4626 40.3228 29.4013C41.2423 29.2787 42.1005 28.9722 42.7749 28.3591C41.6714 28.4818 40.5067 28.7883 39.5259 28.2365Z" fill="currentColor"/>
<path d="M30.0241 28.2365C29.4724 28.6044 29.2272 29.2787 28.6754 29.5852C28.0624 29.953 27.3268 29.953 26.7138 30.1982C27.9398 30.8725 29.7176 30.6273 30.5758 29.4626C31.0662 29.0335 30.5758 28.1752 30.0241 28.2365Z" fill="currentColor"/>
<path d="M43.1427 26.8266C42.4684 26.8879 41.8553 27.0718 41.181 27.0718C42.6523 24.4971 43.7557 21.7386 44.3074 18.8574C44.4913 17.6313 44.6752 16.4053 44.3074 15.1793C44.1235 14.5049 43.6331 13.9532 43.1427 13.4628C41.9779 12.3594 40.5067 11.5625 38.9741 11.3172C37.2577 11.0107 35.4799 11.1946 33.8248 11.6238C32.6601 11.4398 31.434 11.3172 30.1467 11.5011C29.4724 11.6238 28.8593 11.9303 28.2463 12.2368C26.346 11.6851 24.2617 11.2559 22.2388 11.6851C20.8288 11.9916 19.4802 12.8498 18.7445 14.0758C17.7637 15.6084 17.6411 17.4474 17.7637 19.2252C18.0089 21.2481 18.4993 23.1485 19.0511 25.0489C19.5415 26.704 20.0932 28.3591 21.0127 29.8304C21.5644 30.6273 22.2388 31.4855 23.2196 31.7307C24.0165 31.9147 24.8134 31.6694 25.4264 31.179C25.733 31.4855 26.1008 31.7307 26.5299 31.8534C27.6946 32.2825 28.982 32.2825 30.1467 31.7921C30.2693 33.3859 30.208 34.9797 30.7597 36.5123C31.0049 37.2479 31.3727 37.9222 32.047 38.3513C32.7827 38.8418 33.7022 38.9031 34.4991 38.7805C35.2347 38.6579 35.9704 38.4739 36.6447 38.0448C37.319 37.6157 37.8094 37.0027 38.1772 36.2671C38.9128 34.6119 38.9128 32.8342 39.0354 31.0564C40.6906 31.1177 42.5297 30.7499 43.8783 29.5852C44.3687 29.1561 44.7978 28.4818 44.6139 27.8074C44.4913 27.1944 43.7557 26.7653 43.1427 26.8266ZM43.3266 28.6657C42.0392 29.8917 40.0776 30.2595 38.3611 29.953C38.1772 31.5468 37.9933 33.0794 37.7481 34.6119C37.6255 35.4702 37.319 36.3284 36.6447 36.9414C36.0317 37.4318 35.1734 37.677 34.3765 37.8609C33.5796 37.9835 32.5988 37.8609 31.9857 37.3092C31.3114 36.7575 30.8823 35.838 30.821 34.9184C30.6371 33.3859 30.6371 31.792 30.6371 30.2595C29.9015 30.9338 28.9207 31.2403 27.9398 31.179C27.2655 31.1177 26.4686 30.9951 25.9782 30.5047C25.6717 30.2595 25.733 29.7691 26.0395 29.5239C26.5912 29.0948 27.3268 29.1561 27.9398 28.9109C28.3689 28.7883 28.6141 28.3591 28.9207 27.9913C28.4302 27.93 27.8785 27.8074 27.3881 27.5622C26.6525 28.3591 25.9782 29.1561 25.2425 30.0143C24.8134 30.5047 24.2617 30.8725 23.5874 30.8112C22.8518 30.7499 22.3001 30.1369 21.8709 29.5852C21.074 28.4205 20.5836 27.0718 20.0932 25.7232C19.4189 23.5776 18.8672 21.3707 18.5606 19.1026C18.438 17.4474 18.5606 15.6084 19.5415 14.1371C20.2771 13.0337 21.687 12.3594 23.0357 12.2368C24.8747 12.0529 26.7138 12.4207 28.4302 13.0337C29.8402 12.1142 31.6792 11.9303 33.3344 12.2981C33.457 12.2981 33.6409 12.4207 33.7635 12.3594C35.6025 11.8077 37.6255 11.6851 39.4033 11.9303C40.8745 12.3594 42.2231 13.2176 43.1427 14.4436C43.5105 14.9341 43.5718 15.6084 43.6331 16.2214C43.6331 17.3248 43.4492 18.4283 43.204 19.4704C42.5297 22.2903 41.3036 24.9262 39.7711 27.3783C40.6293 27.8074 41.6101 27.6235 42.4684 27.4396C42.8362 27.3783 43.3266 27.317 43.5718 27.6235C43.8783 27.93 43.5718 28.4205 43.3266 28.6657Z" fill="currentColor"/>
</svg>
