<svg width="150" height="50" viewBox="0 0 150 50" fill="none" xmlns="http://www.w3.org/2000/svg">
<path d="M104.29 22.3297C104.29 23.3797 104.29 24.3497 104.29 25.3297C104.29 26.8897 104.28 28.4497 104.29 30.0197C104.29 30.4997 104.05 30.6697 103.61 30.6697C103.17 30.6697 102.93 30.4797 102.93 30.0097C102.93 26.6597 102.93 23.3197 102.94 19.9697C102.94 19.2997 103.55 19.0397 104.15 19.4297C104.43 19.6097 104.59 19.8997 104.74 20.1897C105.51 21.6597 106.28 23.1297 107.06 24.6297C107.32 24.5197 107.37 24.2597 107.48 24.0697C108.15 22.7997 108.81 21.5197 109.48 20.2497C109.62 19.9797 109.78 19.7197 110.02 19.5197C110.31 19.2697 110.64 19.1997 110.98 19.3497C111.29 19.4897 111.29 19.7897 111.29 20.0797C111.29 23.3497 111.28 26.6097 111.3 29.8797C111.3 30.3697 111.17 30.6697 110.63 30.6697C110.11 30.6697 109.94 30.4097 109.94 29.8997C109.96 27.5897 109.95 25.2697 109.95 22.9597C109.95 22.7697 109.95 22.5797 109.95 22.3797C109.91 22.3697 109.87 22.3597 109.83 22.3597C109.26 23.4197 108.69 24.4897 108.13 25.5497C107.98 25.8397 107.81 26.1197 107.67 26.4097C107.56 26.6497 107.4 26.8297 107.14 26.8497C106.83 26.8597 106.69 26.6397 106.56 26.3897C105.95 25.2197 105.35 24.0497 104.73 22.8897C104.63 22.6897 104.6 22.4797 104.29 22.3297Z" fill="currentColor"/>
<path d="M129.57 22.6797C129.57 23.5097 129.57 24.2897 129.57 25.0797C129.57 26.6797 129.56 28.2797 129.58 29.8797C129.59 30.3797 129.42 30.6597 128.9 30.6497C128.38 30.6397 128.22 30.3697 128.22 29.8697C128.23 26.5897 128.23 23.2997 128.23 20.0197C128.23 19.7397 128.18 19.4297 128.54 19.3097C128.91 19.1897 129.28 19.2197 129.55 19.5297C129.74 19.7597 129.89 20.0297 130.03 20.2997C131.12 22.4197 132.2 24.5497 133.29 26.6797C133.39 26.8697 133.5 27.0397 133.63 27.2597C133.82 27.0097 133.75 26.7797 133.75 26.5697C133.76 24.3997 133.76 22.2297 133.75 20.0597C133.75 19.5397 133.91 19.2397 134.46 19.2497C134.99 19.2597 135.12 19.5597 135.11 20.0497C135.09 23.2697 135.1 26.4997 135.1 29.7197C135.1 30.0997 135.19 30.5397 134.64 30.6297C134.13 30.7197 133.79 30.4797 133.57 30.0297C132.96 28.8397 132.35 27.6597 131.73 26.4697C131.13 25.2997 130.52 24.1297 129.91 22.9697C129.86 22.8697 129.83 22.7397 129.57 22.6797Z" fill="currentColor"/>
<path d="M76.0399 25.0397C76.0399 25.8297 76.0199 26.6197 76.0399 27.4097C76.1299 30.2197 73.8999 30.9397 72.1199 30.7197C70.2899 30.4897 69.4199 29.6097 69.3299 27.7697C69.2399 25.9297 69.2199 24.0797 69.3299 22.2397C69.4699 19.9997 71.3499 18.8097 73.6299 19.3697C75.2199 19.7597 75.9799 20.6897 76.0199 22.3697C76.0599 23.2597 76.0399 24.1497 76.0399 25.0397ZM74.7199 24.9997C74.7099 24.9997 74.6999 24.9997 74.6899 24.9997C74.6899 24.3297 74.6899 23.6597 74.6899 22.9997C74.6899 22.8797 74.7099 22.7597 74.7099 22.6397C74.7699 21.4997 74.0799 20.6297 73.0099 20.4997C71.6699 20.3397 70.8099 20.9097 70.6999 22.1997C70.5499 24.0697 70.5499 25.9597 70.6999 27.8397C70.7999 29.0897 71.6499 29.6597 72.9599 29.5497C74.0099 29.4597 74.7399 28.5697 74.7199 27.4397C74.7099 26.6197 74.7199 25.8097 74.7199 24.9997Z" fill="currentColor"/>
<path d="M122.92 30.6597C122.61 30.6997 122.46 30.5097 122.38 30.2297C122.21 29.6497 122.03 29.0697 121.87 28.4797C121.79 28.2097 121.66 28.0897 121.36 28.0997C120.29 28.1197 119.21 28.1197 118.13 28.0997C117.81 28.0997 117.66 28.1897 117.58 28.5097C117.44 29.0797 117.24 29.6297 117.08 30.1997C116.96 30.6597 116.67 30.7597 116.25 30.6497C115.82 30.5297 115.65 30.2797 115.79 29.8297C116.83 26.5097 117.86 23.1797 118.89 19.8497C119.03 19.3897 119.35 19.2597 119.77 19.2597C120.2 19.2597 120.49 19.4397 120.62 19.8797C121.63 23.1697 122.65 26.4497 123.67 29.7397C123.85 30.3497 123.58 30.6797 122.92 30.6597ZM119.74 21.2597C119.16 23.1797 118.65 24.8997 118.13 26.6197C118.06 26.8597 118.09 26.9897 118.4 26.9897C119.31 26.9797 120.22 26.9797 121.14 26.9897C121.41 26.9897 121.44 26.8697 121.38 26.6497C120.84 24.9097 120.31 23.1697 119.74 21.2597Z" fill="currentColor"/>
<path d="M57.9699 24.9197C57.9699 23.3197 57.9699 21.7197 57.9699 20.1197C57.9699 19.3497 58.0699 19.2597 58.8499 19.2497C59.7799 19.2497 60.7099 19.2297 61.6499 19.2497C63.5799 19.2897 64.7299 20.4597 64.7699 22.3797C64.7799 22.6597 64.7799 22.9497 64.7599 23.2297C64.6499 24.9897 63.4999 26.0997 61.7299 26.1497C61.0799 26.1697 60.4299 26.1697 59.7899 26.1497C59.4099 26.1297 59.2999 26.2697 59.3099 26.6397C59.3299 27.7297 59.2999 28.8297 59.3199 29.9197C59.3299 30.3997 59.1499 30.6497 58.6699 30.6597C58.1699 30.6597 57.9599 30.4297 57.9599 29.9097C57.9799 28.2397 57.9699 26.5797 57.9699 24.9197ZM59.3099 22.7797C59.3099 23.4097 59.3099 24.0397 59.3099 24.6597C59.3099 24.8397 59.2899 25.0397 59.5699 25.0297C60.3599 25.0197 61.1499 25.0697 61.9299 24.9797C62.5899 24.9097 63.0699 24.4597 63.2899 23.8197C63.5099 23.1697 63.5199 22.4997 63.3299 21.8497C63.0799 20.9697 62.4799 20.5097 61.5499 20.4797C60.9599 20.4597 60.3699 20.4897 59.7899 20.4697C59.4299 20.4597 59.2799 20.5697 59.2999 20.9497C59.3299 21.5597 59.3099 22.1697 59.3099 22.7797Z" fill="currentColor"/>
<path d="M83.9399 30.7797C82.9599 30.8097 82.0599 30.5497 81.2599 29.9697C81.0099 29.7897 80.7899 29.5897 80.6799 29.2797C80.5499 28.9197 80.6799 28.6297 80.9499 28.4197C81.2399 28.1797 81.4899 28.3897 81.6799 28.6097C82.3599 29.3697 83.2099 29.6397 84.1999 29.5597C84.9799 29.4997 85.6299 29.1797 85.9199 28.4097C86.2199 27.5997 86.0599 26.8497 85.4499 26.2197C85.0899 25.8497 84.6399 25.6197 84.1599 25.4297C83.6299 25.2197 83.0999 25.0297 82.5899 24.7897C81.3799 24.2197 80.7999 23.1697 80.9199 21.8897C81.0599 20.4997 81.6899 19.7597 83.0899 19.3797C84.1999 19.0797 85.2999 19.1897 86.3799 19.5597C86.5299 19.6097 86.6799 19.6997 86.8099 19.7897C87.1499 20.0397 87.1499 20.3597 86.9699 20.6997C86.7899 21.0397 86.5199 21.0497 86.1999 20.8997C85.3799 20.5097 84.5299 20.2797 83.6099 20.5197C82.9599 20.6897 82.4299 20.9797 82.3199 21.7197C82.1999 22.4597 82.4899 23.0197 83.1199 23.4197C83.8099 23.8597 84.6099 24.0497 85.3499 24.3797C86.8199 25.0497 87.5599 26.2897 87.4099 27.8797C87.2099 29.7697 85.9999 30.7897 83.9399 30.7797Z" fill="currentColor"/>
<path d="M94.2499 25.4397C94.2499 23.9597 94.2399 22.4797 94.2599 20.9997C94.2599 20.6097 94.1699 20.4597 93.7499 20.4797C93.1399 20.5097 92.5299 20.4797 91.9199 20.4897C91.4599 20.4997 91.2399 20.2797 91.2499 19.8297C91.2599 19.3897 91.5299 19.2497 91.9399 19.2497C93.9099 19.2597 95.8799 19.2597 97.8399 19.2497C98.2899 19.2497 98.5499 19.4197 98.5399 19.8797C98.5299 20.3397 98.2599 20.4997 97.8099 20.4897C97.2599 20.4697 96.7099 20.5097 96.1699 20.4797C95.7199 20.4497 95.5799 20.5997 95.5899 21.0597C95.6099 23.8797 95.5999 26.6997 95.5999 29.5197C95.5999 29.6797 95.5899 29.8497 95.5999 30.0097C95.6299 30.4897 95.3499 30.6697 94.9299 30.6697C94.5099 30.6697 94.2499 30.5097 94.2499 30.0197C94.2599 28.4797 94.2499 26.9597 94.2499 25.4397Z" fill="currentColor"/>
<path d="M31.4499 8.44971C40.6499 8.44971 48.0399 15.8797 47.9699 25.1897C47.9099 34.4397 40.3199 41.6197 31.3199 41.5497C21.9199 41.4697 14.8199 33.7497 14.8899 24.8397C14.9599 15.8397 22.3799 8.44971 31.4499 8.44971ZM35.6699 18.0097C35.4699 18.0097 35.2899 18.0497 35.0999 18.1097C34.4899 18.3097 33.9599 18.6597 33.4499 19.0397C31.5599 20.4497 29.9199 22.1497 28.2299 23.7797C28.0899 23.9197 28.0799 23.9997 28.2299 24.1397C28.6099 24.4997 28.9999 24.8497 29.3499 25.2397C29.5799 25.4897 29.7099 25.4497 29.9199 25.2297C32.0199 23.0897 34.1399 20.9597 36.2499 18.8197C36.3799 18.6897 36.6399 18.5697 36.5799 18.3897C36.4999 18.1797 36.2299 18.0997 35.9999 18.0397C35.8899 18.0097 35.7799 18.0197 35.6699 18.0097ZM31.8599 28.6397C31.8499 28.3597 31.1299 27.8297 30.9199 27.8697C30.3799 27.9597 29.8399 28.0997 29.2999 28.1497C28.6699 28.2097 28.2299 28.4997 27.8099 28.9697C26.4099 30.5197 24.9699 32.0397 23.5599 33.5797C23.4599 33.6897 23.2499 33.7797 23.4899 33.9997C24.0799 34.5397 24.6299 35.1197 25.1999 35.6797C25.2699 35.7397 25.3299 35.8497 25.4399 35.8097C25.5799 35.7497 25.5199 35.6197 25.4999 35.5197C25.3899 35.0097 25.2599 34.4997 25.1399 33.9997C25.0899 33.8097 25.0999 33.6697 25.3099 33.5597C27.7099 32.3097 29.6999 30.4997 31.7299 28.7397C31.7699 28.6797 31.8499 28.6497 31.8599 28.6397ZM37.4799 19.7497C37.4699 19.6797 37.4699 19.6097 37.4599 19.5497C37.4099 19.3297 37.3599 19.0697 37.1599 18.9897C36.9699 18.9197 36.8699 19.1897 36.7399 19.3097C34.7799 21.2797 32.8299 23.2597 30.8899 25.2397C30.6499 25.4797 30.2399 25.7297 30.2299 25.9897C30.2099 26.2897 30.6799 26.4897 30.8999 26.7697C31.0499 26.9497 31.1499 26.9397 31.3099 26.7697C32.0999 25.9497 32.9199 25.1497 33.7199 24.3297C34.7399 23.2897 35.7699 22.2497 36.7699 21.1997C37.1499 20.8097 37.4299 20.3297 37.4799 19.7497ZM39.9799 19.0497C39.3999 18.4297 38.8399 17.8097 38.2499 17.2197C38.0199 16.9897 38.0599 16.8497 38.2799 16.6597C38.9699 16.0497 39.6299 15.3997 40.3199 14.7997C40.6299 14.5297 40.5499 14.4297 40.2399 14.2697C39.6099 13.9497 38.9599 13.8697 38.2799 14.0597C36.7999 14.4597 35.9699 16.0697 36.4899 17.5097C36.9999 18.9297 38.6199 19.6597 39.9799 19.0497ZM37.4299 21.4597C37.2499 21.4897 37.1999 21.6097 37.1299 21.6797C35.4399 23.4397 33.7599 25.1997 32.0699 26.9597C31.5499 27.4997 31.5499 27.4797 32.0999 27.9897C32.2399 28.1197 32.3299 28.1297 32.4799 27.9997C34.2099 26.5097 35.7799 24.8797 36.8899 22.8497C37.1199 22.4297 37.3399 21.9797 37.4299 21.4597ZM41.6599 16.7997C41.6599 16.1397 41.4899 15.6697 41.1899 15.2497C41.0499 15.0597 40.9499 15.0497 40.7699 15.2097C40.2199 15.7297 39.6699 16.2497 39.1099 16.7497C38.9199 16.9097 38.9499 16.9997 39.1099 17.1597C39.5299 17.5797 39.9299 18.0097 40.3199 18.4497C40.4799 18.6297 40.5899 18.6197 40.7599 18.4797C41.3399 18.0097 41.6399 17.4097 41.6599 16.7997ZM24.6499 36.0497C24.0399 35.4297 23.5099 34.8997 22.9799 34.3697C22.8699 34.2597 22.7899 34.3197 22.7099 34.3997C22.2599 34.8497 21.8199 35.2897 21.3699 35.7397C21.3099 35.7997 21.2299 35.8497 21.2599 35.9497C21.2899 36.0697 21.4099 36.0497 21.4999 36.0497C22.4999 36.0497 23.5199 36.0497 24.6499 36.0497ZM29.2299 25.8597C28.7199 25.3597 28.2799 24.9297 27.8499 24.4897C27.7199 24.3597 27.6499 24.4197 27.5599 24.5297C27.0899 25.0897 26.6199 25.6397 26.1499 26.1997C26.0899 26.2697 25.9899 26.3297 26.0499 26.4397C26.1099 26.5497 26.2099 26.5097 26.3099 26.4897C27.2399 26.2797 28.1799 26.0797 29.2299 25.8597ZM30.6799 27.3497C30.3599 27.0097 30.1299 26.5897 29.7499 26.4997C29.5399 26.4497 29.3099 26.8997 29.0799 27.1197C28.9899 27.2097 28.8999 27.2897 28.8199 27.3797C28.7599 27.4397 28.6899 27.4997 28.7399 27.5897C28.7899 27.6797 28.8699 27.6697 28.9599 27.6597C29.5199 27.5597 30.0699 27.4597 30.6799 27.3497ZM37.4499 21.3497C37.4399 21.3597 37.4199 21.3697 37.4199 21.3797C37.4199 21.3897 37.4299 21.3997 37.4399 21.4097C37.4499 21.3997 37.4699 21.3897 37.4699 21.3797C37.4699 21.3697 37.4499 21.3597 37.4499 21.3497Z" fill="currentColor"/>
<path d="M41.2499 16.7697C41.2399 17.0397 41.1799 17.2797 41.0199 17.4797C40.9199 17.5997 40.7999 17.6497 40.6599 17.5597C40.5099 17.4597 40.5899 17.3497 40.6599 17.2497C40.8399 16.9697 40.8199 16.6797 40.7099 16.3897C40.6699 16.2697 40.6399 16.1397 40.7999 16.0797C40.9499 16.0297 41.0599 16.0897 41.1299 16.2397C41.2099 16.4097 41.2299 16.5997 41.2499 16.7697Z" fill="currentColor"/>
</svg>
