<svg width="151" height="50" viewBox="0 0 151 50" fill="none" xmlns="http://www.w3.org/2000/svg">
<path d="M65.6271 24.7191C65.6271 21.213 64.6346 19.4118 62.6473 19.3131C61.8582 19.2746 61.0857 19.4022 60.3348 19.696C59.7369 19.9127 59.3328 20.1246 59.1199 20.3413V28.7116C60.3898 29.5135 61.5186 29.8868 62.5015 29.829C64.5868 29.6893 65.6271 27.9892 65.6271 24.7191ZM68.0783 24.8636C68.0783 26.6456 67.6646 28.1241 66.83 29.2992C65.8997 30.6309 64.6107 31.3147 62.963 31.3533C61.7195 31.3942 60.44 31.0017 59.1247 30.1806V37.7875L56.9939 37.0218V20.1366C57.3431 19.7056 57.7927 19.3348 58.3379 19.0193C59.6054 18.2752 61.1479 17.8923 62.9606 17.8731L62.9917 17.9044C64.649 17.8827 65.926 18.569 66.8228 19.9584C67.6574 21.2323 68.0783 22.8673 68.0783 24.8636Z" fill="currentColor"/>
<path d="M81.0974 29.8556C81.0974 32.2443 80.8606 33.8986 80.3847 34.8209C79.9065 35.7408 78.9977 36.4752 77.6561 37.0219C76.568 37.4529 75.3914 37.6889 74.1263 37.7274L73.7748 36.3765C75.059 36.2007 75.963 36.0249 76.4891 35.8492C77.5222 35.4976 78.2301 34.9582 78.6199 34.2334C78.9331 33.6434 79.0862 32.5188 79.0862 30.8549V30.2962C77.6298 30.9633 76.1017 31.2931 74.5066 31.2931C73.4567 31.2931 72.5312 30.9633 71.7349 30.2962C70.8405 29.5714 70.3933 28.6515 70.3933 27.5366V18.61L72.524 17.8756V26.8624C72.524 27.8232 72.8325 28.5624 73.4471 29.0802C74.0617 29.5979 74.8605 29.8483 75.8362 29.8291C76.8119 29.8074 77.8594 29.4269 78.9714 28.6828V18.1982H81.1022V29.8556H81.0974Z" fill="currentColor"/>
<path d="M89.4148 31.2378C89.1614 31.2595 88.927 31.2691 88.7141 31.2691C87.5089 31.2691 86.569 30.9801 85.8994 30.3998C85.2298 29.8194 84.895 29.02 84.895 27.999V19.5468H83.4362V18.1983H84.895V14.6151L87.0234 13.8517V18.1983H89.4172V19.5468H87.0234V27.9388C87.0234 28.7431 87.2386 29.3138 87.6667 29.6485C88.035 29.923 88.6209 30.0795 89.4172 30.1204V31.2378H89.4148Z" fill="currentColor"/>
<path d="M100.184 31.0596V22.7808C100.184 21.938 99.9875 21.2132 99.5977 20.6063C99.1481 19.92 98.5239 19.5781 97.7204 19.5781C96.7447 19.5781 95.5226 20.0958 94.0567 21.1337V31.0596H91.9283V11.268L94.0591 10.5913V19.607C95.4198 18.6101 96.9073 18.1092 98.5239 18.1092C99.6527 18.1092 100.566 18.4921 101.265 19.2554C101.965 20.0188 102.317 20.9699 102.317 22.1041V31.0596H100.184Z" fill="currentColor"/>
<path d="M113.638 24.3796C113.638 23.0335 113.384 21.921 112.877 21.0396C112.277 19.9681 111.342 19.4022 110.077 19.342C107.741 19.4792 106.576 21.1625 106.576 24.394C106.576 25.875 106.818 27.1127 107.308 28.1048C107.932 29.369 108.869 29.9951 110.12 29.9735C112.466 29.9542 113.638 28.0904 113.638 24.3796ZM115.972 24.394C115.972 26.3108 115.484 27.9074 114.513 29.1812C113.444 30.6092 111.966 31.3244 110.079 31.3244C108.209 31.3244 106.753 30.6092 105.701 29.1812C104.747 27.9074 104.273 26.3108 104.273 24.394C104.273 22.5904 104.787 21.0758 105.818 19.8404C106.906 18.5305 108.339 17.8731 110.106 17.8731C111.875 17.8731 113.315 18.5305 114.425 19.8404C115.458 21.0758 115.972 22.5928 115.972 24.394Z" fill="currentColor"/>
<path d="M128.185 31.0595H126.054V22.3111C126.054 21.3503 125.767 20.6014 125.193 20.062C124.62 19.525 123.857 19.2649 122.902 19.2842C121.891 19.3034 120.927 19.6358 120.014 20.2811V31.0595H117.883V20.0162C119.11 19.118 120.236 18.5305 121.267 18.256C122.238 18.0007 123.096 17.8731 123.835 17.8731C124.342 17.8731 124.816 17.9212 125.263 18.02C126.1 18.215 126.781 18.5762 127.305 19.106C127.891 19.6935 128.18 20.3967 128.18 21.2202V31.0595H128.185Z" fill="currentColor"/>
<path d="M35.9492 11.3474C34.8539 11.3523 33.8064 11.4462 32.8857 11.6099C30.1714 12.0915 29.6788 13.1029 29.6788 14.9667V17.4277H36.0903V18.2489H27.273C25.41 18.2489 23.7767 19.3758 23.2673 21.5214C22.679 23.98 22.6527 25.5163 23.2673 28.0833C23.7241 29.9953 24.8122 31.3558 26.6751 31.3558H28.88V28.406C28.88 26.2749 30.7119 24.3942 32.8857 24.3942H39.29C41.0717 24.3942 42.497 22.9157 42.497 21.1144V14.9667C42.497 13.2161 41.031 11.9037 39.29 11.6099C38.1876 11.4245 37.0445 11.3426 35.9492 11.3474ZM32.4816 13.3268C33.144 13.3268 33.6845 13.8807 33.6845 14.5598C33.6845 15.2388 33.144 15.7855 32.4816 15.7855C31.8168 15.7855 31.2787 15.2364 31.2787 14.5598C31.2787 13.8783 31.8168 13.3268 32.4816 13.3268Z" fill="currentColor"/>
<path d="M43.2957 18.2464V21.1144C43.2957 23.337 41.4232 25.208 39.29 25.208H32.8857C31.1304 25.208 29.6788 26.7203 29.6788 28.4878V34.6355C29.6788 36.3861 31.1902 37.4144 32.8857 37.9152C34.916 38.5173 36.8627 38.6256 39.29 37.9152C40.9042 37.4457 42.497 36.4969 42.497 34.6355V32.1769H36.0902V31.3558H45.7015C47.5644 31.3558 48.2604 30.0458 48.9084 28.0832C49.578 26.0605 49.5494 24.1148 48.9084 21.5213C48.4469 19.6527 47.5692 18.2488 45.7015 18.2488H43.2957V18.2464ZM39.6942 33.8168C40.359 33.8168 40.8971 34.3658 40.8971 35.0425C40.8971 35.7239 40.359 36.2754 39.6942 36.2754C39.0317 36.2754 38.4913 35.7215 38.4913 35.0425C38.4889 34.3658 39.0317 33.8168 39.6942 33.8168Z" fill="currentColor"/>
</svg>
