<svg width="150" height="50" viewBox="0 0 150 50" fill="none" xmlns="http://www.w3.org/2000/svg">
<path d="M61.1329 13.2588C60.4135 13.8227 59.7836 14.3194 59.1425 14.8236C58.8034 14.5808 58.5984 14.2708 58.3896 13.9945C58.412 13.8003 58.5201 13.6883 58.6021 13.5613C59.4705 12.2355 60.3427 10.9172 61.2 9.58401C61.4124 9.25538 61.6845 9.11346 62.0647 9.11346C66.9064 9.1172 71.7518 9.11346 76.5934 9.1172C77.3053 9.1172 77.6184 9.51306 77.4954 10.2264C77.406 10.7455 77.3165 11.2683 77.2345 11.7874C77.1488 12.3214 77.4582 12.7397 78.0023 12.7509C78.9863 12.7733 79.974 12.7658 80.958 12.7509C81.2972 12.7472 81.5618 12.5828 81.6886 12.2094C80.8313 12.2094 80.0076 12.2131 79.1839 12.2094C78.2371 12.2057 77.8197 11.7426 77.9576 10.8201C78.0769 10.0247 78.2148 9.22923 78.3751 8.44125C78.4459 8.09767 78.5353 7.73542 78.9118 7.50388C79.3702 7.94829 79.236 8.53461 79.3069 9.05371C79.4746 9.15828 79.646 9.11346 79.8063 9.11346C81.942 9.1172 84.0814 9.11346 86.2171 9.11346C87.2645 9.11346 87.749 9.57654 87.7565 10.6334C87.7677 12.7621 87.7639 14.887 87.7565 17.0157C87.7528 17.7962 87.2272 18.3303 86.4482 18.3452C85.3226 18.3639 84.2007 18.3639 83.0751 18.3452C82.2626 18.334 81.7668 17.8112 81.7594 16.9933C81.7519 16.1904 81.7594 15.3912 81.7594 14.5136C81.4053 14.7265 81.2786 15.0028 81.2711 15.3016C81.2487 16.1344 81.2338 16.9709 81.2711 17.8037C81.3009 18.4759 81.8526 18.9278 82.5794 18.9427C83.2577 18.9577 83.9398 18.9502 84.6182 18.9577C84.6443 18.9577 84.6703 18.9764 84.6964 18.9838C84.7933 19.0884 84.7598 19.2191 84.7598 19.3423C84.7635 20.2872 84.7635 21.232 84.7598 22.1806C84.7561 22.8416 84.4728 23.1329 83.8317 23.1366C82.5123 23.1404 81.1966 23.1404 79.8771 23.1366C79.277 23.1329 78.9826 22.8453 78.9751 22.2366C78.964 21.2768 78.9751 20.317 78.9677 19.3573C78.964 18.6701 78.6993 18.4012 78.0023 18.3975C74.6292 18.3938 71.256 18.3938 67.8866 18.3975C67.1971 18.3975 66.925 18.6739 66.9213 19.361C66.9175 20.2797 66.925 21.1947 66.9175 22.1134C66.9138 22.8789 66.6529 23.1329 65.8851 23.1366C64.6365 23.1366 63.3879 23.1404 62.1392 23.1366C61.405 23.1366 61.1329 22.864 61.1329 22.132C61.1292 19.3647 61.1329 16.5975 61.1329 13.8302C61.1329 13.6771 61.1329 13.5239 61.1329 13.2588Z" fill="currentColor"/>
<path d="M59.8432 30.0902C59.9587 30.0753 60.0556 30.0566 60.1488 30.0566C61.103 30.0528 62.0609 30.0566 63.0523 30.0566C64.3792 32.7641 65.9633 35.326 67.1225 38.1194C66.9659 35.4455 67.074 32.7753 67.0442 30.0827C67.8977 30.0827 68.6804 30.0827 69.4967 30.0827C69.4967 34.1235 69.4967 38.1456 69.4967 42.205C68.4643 42.205 67.4318 42.205 66.3435 42.205C65.0166 39.6431 63.4735 37.1597 62.2286 34.5007C62.3702 37.0663 62.251 39.6244 62.2882 42.2125C61.4496 42.2125 60.6632 42.2125 59.8394 42.2125C59.8432 38.1717 59.8432 34.1384 59.8432 30.0902Z" fill="currentColor"/>
<path d="M87.7192 42.1974C87.7192 40.4944 87.7192 38.8064 87.7192 37.096C86.4668 37.096 85.2853 37.096 84.0367 37.096C84.0367 38.8101 84.0367 40.4981 84.0367 42.2123C83.0117 42.2123 82.0501 42.2123 81.0549 42.2123C81.0549 38.1678 81.0549 34.1457 81.0549 30.09C82.0314 30.09 82.9968 30.09 84.0218 30.09C84.0218 31.5876 84.0218 33.0814 84.0218 34.6088C85.2816 34.6088 86.478 34.6088 87.7378 34.6088C87.7378 33.1187 87.7378 31.6249 87.7378 30.0938C88.7591 30.0938 89.7244 30.0938 90.727 30.0938C90.727 34.1084 90.727 38.1342 90.727 42.1974C89.7691 42.1974 88.7926 42.1974 87.7192 42.1974Z" fill="currentColor"/>
<path d="M77.8755 37.8989C78.7812 37.996 79.6161 38.0819 80.4995 38.1753C80.5703 39.3143 80.3019 40.3002 79.5267 41.1106C78.6396 42.0405 77.4916 42.3691 76.2616 42.4737C75.6094 42.5297 74.9571 42.4999 74.316 42.3692C72.3294 41.9658 71.1218 40.7334 70.5925 38.8139C70.1303 37.1333 70.108 35.4304 70.4993 33.7387C71.0659 31.3 72.6798 29.978 75.2329 29.8211C76.2803 29.7577 77.3127 29.8398 78.2967 30.2431C80.2945 31.0573 80.6486 33.0403 80.3355 34.3847C79.4559 34.5378 78.5502 34.5565 77.6146 34.6611C77.6146 34.3511 77.6146 34.0897 77.6146 33.832C77.6072 32.8797 77.2493 32.2934 76.5263 32.0544C75.6019 31.7482 74.6589 32.0096 74.1297 32.7303C73.7644 33.2233 73.5967 33.7947 73.4998 34.3885C73.2836 35.7329 73.2798 37.0773 73.6339 38.3993C74.0141 39.8222 74.9236 40.4347 76.2654 40.2405C77.2195 40.1023 77.8345 39.4263 77.8718 38.4628C77.883 38.2985 77.8755 38.1342 77.8755 37.8989Z" fill="currentColor"/>
<path d="M92.0614 30.0826C94.7189 30.0826 97.3615 30.0826 100.049 30.0826C100.049 30.7996 100.049 31.5091 100.049 32.2822C98.3977 32.2822 96.754 32.2822 95.0655 32.2822C95.0096 33.1747 95.032 34.0113 95.0469 34.9038C96.467 34.9038 97.8311 34.9038 99.2363 34.9038C99.2922 35.6694 99.2773 36.3827 99.2475 37.1408C97.846 37.1408 96.4782 37.1408 95.073 37.1408C95.073 38.0969 95.073 39.0043 95.073 39.9828C96.7875 39.9828 98.4983 39.9828 100.235 39.9828C100.235 40.7521 100.235 41.4579 100.235 42.2011C97.5255 42.2011 94.8158 42.2011 92.0614 42.2011C92.0614 38.179 92.0614 34.1457 92.0614 30.0826Z" fill="currentColor"/>
<path d="M90.6041 7.5C91.0029 7.78009 91.0886 8.18715 91.1669 8.57181C91.3272 9.37473 91.4576 10.1851 91.5806 10.9955C91.6701 11.5968 91.275 12.1607 90.6936 12.1906C89.9071 12.2316 89.1169 12.2018 88.2969 12.2018C88.2969 11.6864 88.2969 11.1972 88.2969 10.7042C88.5355 10.6034 88.774 10.6631 89.0051 10.6445C89.7021 10.5885 90.1866 10.0992 90.2053 9.39714C90.2165 8.97887 90.2016 8.56061 90.2761 8.14981C90.3171 7.91453 90.3656 7.68299 90.6041 7.5Z" fill="currentColor"/>
<path d="M55.6277 30.0751C54.5878 30.0751 53.5927 30.0751 52.5639 30.0751C51.4458 33.3951 50.3313 36.7113 49.2281 39.994C49.1386 40.0313 49.1013 40.0537 49.0641 40.0612C48.3671 40.1882 47.89 39.923 47.4614 39.15C47.0178 38.3545 46.7718 37.447 46.0711 36.7786C46.3581 36.6292 46.6078 36.5134 46.8426 36.3715C48.0428 35.6395 48.6541 34.2764 48.423 32.8648C48.1956 31.4606 47.3384 30.5643 45.8922 30.217C45.5008 30.1236 45.102 30.0601 44.6995 30.0601C43.093 30.0564 41.4829 30.0564 39.8727 30.0564C39.7535 30.0564 39.623 30.0265 39.5 30.1274C39.5 34.142 39.5 38.1641 39.5 42.2086C40.4914 42.2086 41.4568 42.2086 42.4892 42.2086C42.4892 40.6102 42.4892 39.0342 42.4892 37.4769C43.257 37.3201 43.5254 37.4284 43.8869 38.0072C44.1628 38.4442 44.3491 38.9259 44.5392 39.4002C44.7405 39.9044 44.9678 40.3936 45.2437 40.8641C45.8698 41.9359 46.8128 42.4214 48.0279 42.3019C48.8889 42.216 49.7462 42.2571 50.6034 42.2347C50.7674 42.231 50.9351 42.2646 51.1215 42.1824C51.3638 41.4355 51.6135 40.6737 51.8558 39.923C53.2348 39.923 54.5617 39.923 55.9184 39.923C56.1719 40.6961 56.4254 41.4542 56.6751 42.2123C57.7001 42.2123 58.6766 42.2123 59.7202 42.2123C58.3449 38.1417 56.9844 34.1084 55.6277 30.0751ZM44.5429 35.0681C43.8907 35.3146 43.2123 35.2287 42.5116 35.2101C42.5116 34.2204 42.5116 33.2718 42.5116 32.2486C43.134 32.2411 43.7155 32.1926 44.2895 32.2784C45.0051 32.3867 45.3629 32.7826 45.4375 33.4959C45.5157 34.2353 45.1878 34.8254 44.5429 35.0681ZM52.6087 37.6375C53.041 36.1287 53.6635 34.7246 53.8983 33.1934C54.0884 34.7283 54.7332 36.125 55.1432 37.6338C54.2822 37.6748 53.4734 37.6748 52.6087 37.6375Z" fill="currentColor"/>
<path d="M110.496 40.0687C109.665 40.2181 109.132 39.8521 108.767 39.1724C108.327 38.362 108.07 37.4508 107.365 36.7749C107.641 36.6329 107.869 36.5284 108.085 36.4014C109.315 35.6769 109.948 34.3138 109.725 32.8835C109.501 31.4606 108.644 30.5606 107.172 30.2096C106.78 30.1162 106.381 30.0564 105.975 30.0564C104.38 30.0564 102.785 30.0527 101.186 30.0564C101.051 30.0564 100.906 30.0191 100.798 30.1237C100.798 34.157 100.798 38.179 100.798 42.2011C101.801 42.2011 102.762 42.2011 103.769 42.2011C103.769 40.614 103.769 39.0604 103.769 37.4956C104.492 37.3126 104.797 37.4209 105.148 37.9587C105.453 38.4293 105.647 38.9484 105.856 39.4637C106.128 40.1359 106.441 40.7783 106.885 41.3609C107.589 42.287 109.091 42.5821 110.317 42.0742C110.377 41.4318 110.522 40.782 110.496 40.0687ZM105.83 35.0719C105.185 35.3147 104.518 35.2176 103.817 35.2213C103.817 34.2354 103.817 33.2756 103.817 32.2486C104.44 32.2449 105.021 32.1926 105.595 32.2822C106.307 32.3943 106.665 32.7939 106.732 33.5071C106.806 34.2503 106.475 34.8292 105.83 35.0719Z" fill="currentColor"/>
</svg>
