<svg width="150" height="50" viewBox="0 0 150 50" fill="none" xmlns="http://www.w3.org/2000/svg">
<path d="M48.1068 23.1604C46.5185 23.1604 45.2296 24.4194 45.2296 25.9709C45.2296 27.5224 46.5185 28.7814 48.1068 28.7814C49.6951 28.7814 50.9841 27.5224 50.9841 25.9709C50.9841 24.4194 49.6951 23.1604 48.1068 23.1604Z" fill="currentColor"/>
<path d="M58.4862 21.0747C58.1491 20.9614 57.8012 20.8561 57.4426 20.756C57.5019 20.5242 57.5612 20.2897 57.6098 20.0658C58.408 16.2754 57.8417 13.3227 56.1293 12.3586C54.479 11.4314 51.7851 12.327 48.924 14.7582C48.657 14.9874 48.3873 15.2297 48.1177 15.4826C47.9397 15.3166 47.7644 15.1481 47.5864 14.9953C44.6256 12.4244 41.724 11.4314 40.0116 12.3981C38.364 13.3306 37.8139 16.0568 38.542 19.6944C38.6094 20.0342 38.693 20.3846 38.782 20.7375C38.3694 20.8508 37.9703 20.972 37.5874 21.1037C34.0899 22.2942 32 24.1144 32 25.9714C32 27.8995 34.2571 29.8514 37.8894 31.063C38.1672 31.1552 38.4638 31.2421 38.7604 31.3264C38.6633 31.7084 38.5797 32.085 38.5069 32.4512C37.8166 36.0098 38.3856 38.686 40.0332 39.6105C40.4782 39.8608 41.0013 39.9846 41.5811 39.9846C43.2314 39.9846 45.3509 38.9968 47.4894 37.1714C47.7105 36.9817 47.9343 36.7763 48.1581 36.5656C48.4494 36.8395 48.7406 37.0976 49.0318 37.3426C51.092 39.0758 53.074 39.9951 54.6327 39.9951C55.199 39.9951 55.7086 39.8739 56.1482 39.6263C57.8551 38.6596 58.4538 35.7753 57.7068 32.0956C57.6502 31.819 57.5801 31.5345 57.5073 31.2474C57.7095 31.1895 57.9172 31.1315 58.1113 31.0709C61.8704 29.854 64.2084 27.8995 64.2084 25.9688C64.2138 24.1117 62.0727 22.2811 58.4862 21.0747ZM55.4417 13.5202C56.3639 14.0391 57.0138 16.2254 56.2614 19.7919C56.2183 19.9947 56.1617 20.2081 56.1104 20.4162C54.7729 20.1159 53.3194 19.8946 51.8066 19.7577C50.9195 18.5249 50.0026 17.4028 49.0858 16.4361C49.3338 16.2043 49.5819 15.9778 49.8273 15.7697C52.4592 13.5334 54.5815 13.0382 55.4417 13.5202ZM52.6021 28.5317C52.0952 29.3904 51.5801 30.199 51.0597 30.9629C50.1024 31.0288 49.1154 31.0683 48.1069 31.0683C47.0983 31.0683 46.1276 31.0367 45.1972 30.9787C44.6471 30.1938 44.1159 29.3799 43.617 28.5396C43.1181 27.6993 42.6624 26.8512 42.2471 26.0056C42.6651 25.1548 43.1208 24.304 43.6143 23.4664C44.1105 22.6261 44.6363 21.8149 45.1757 21.0404C46.1384 20.9693 47.1226 20.9298 48.1096 20.9298C49.1046 20.9298 50.0862 20.9693 51.0462 21.0404C51.5801 21.8096 52.1006 22.6156 52.5994 23.4585C53.1064 24.3146 53.5675 25.1575 53.9855 25.9793C53.5648 26.8248 53.1064 27.6783 52.6021 28.5317ZM54.7244 27.5334C55.1558 28.4948 55.5226 29.422 55.8111 30.3018C54.8781 30.5099 53.8695 30.6758 52.8044 30.7996C53.1388 30.2833 53.4678 29.7565 53.794 29.2034C54.123 28.645 54.4277 28.0892 54.7244 27.5334ZM48.1635 34.6374C47.5109 33.9499 46.8637 33.1861 46.23 32.3721C46.8449 32.3958 47.4651 32.4117 48.1069 32.4117C48.7649 32.4117 49.412 32.3932 50.0511 32.3642C49.4228 33.1992 48.7918 33.9631 48.1635 34.6374ZM43.439 30.826C42.382 30.7101 41.3869 30.5599 40.4728 30.3624C40.7586 29.4641 41.1119 28.5317 41.5191 27.5861C41.8076 28.1287 42.1042 28.6713 42.4251 29.2113C42.7514 29.7644 43.0939 30.2991 43.439 30.826ZM41.5164 24.4226C41.1173 23.498 40.7721 22.5893 40.4916 21.7069C41.4112 21.5067 42.3901 21.3434 43.4094 21.2196C43.0723 21.7332 42.7406 22.2574 42.4224 22.7974C42.1015 23.3347 41.8022 23.8773 41.5164 24.4226ZM48.1231 17.3975C48.7568 18.0692 49.3905 18.8226 50.0161 19.6365C49.3851 19.6075 48.7514 19.5864 48.1096 19.5864C47.4732 19.5864 46.8422 19.6049 46.2166 19.6339C46.8368 18.8305 47.4759 18.0771 48.1231 17.3975ZM53.7887 22.7868C53.4704 22.2495 53.1388 21.7279 52.8071 21.2196C53.8318 21.346 54.8188 21.5093 55.7437 21.7174C55.4659 22.584 55.1154 23.4927 54.7109 24.4252C54.417 23.8826 54.1149 23.3373 53.7887 22.7868ZM39.893 19.4363C39.2242 16.0937 39.8418 14.047 40.702 13.5624C40.9096 13.4438 41.1874 13.3806 41.5217 13.3806C42.6705 13.3806 44.515 14.1287 46.675 15.9989C46.8341 16.1358 46.9959 16.2912 47.155 16.4387C46.2193 17.4212 45.297 18.5407 44.4179 19.755C42.9024 19.892 41.4543 20.108 40.1168 20.4056C40.0332 20.0764 39.9577 19.7524 39.893 19.4363ZM38.3343 29.7908C34.9285 28.6529 33.3753 27.0145 33.3753 25.9714C33.3753 24.9704 34.818 23.469 38.0404 22.3706C38.3937 22.2495 38.7658 22.1362 39.1514 22.0308C39.5559 23.3136 40.0871 24.6517 40.7235 26.003C40.0764 27.3753 39.537 28.7319 39.1299 30.0331C38.8602 29.9541 38.5905 29.8751 38.3343 29.7908ZM46.5887 36.1625C43.8759 38.4779 41.6458 38.9704 40.7235 38.4489C39.8364 37.9511 39.2242 35.9782 39.8606 32.704C39.9254 32.3642 40.0063 32.0165 40.0952 31.6583C41.4058 31.9428 42.8674 32.143 44.4368 32.2668C45.3267 33.4916 46.2543 34.619 47.1981 35.6041C46.9959 35.799 46.7909 35.9887 46.5887 36.1625ZM56.3612 32.359C57.0596 35.8096 56.3855 37.9432 55.4606 38.4647C54.5734 38.9678 52.5185 38.499 49.9325 36.3259C49.6655 36.0993 49.3932 35.8596 49.1235 35.6041C50.0269 34.6401 50.9302 33.5101 51.8228 32.251C53.3815 32.1166 54.8538 31.8954 56.1805 31.5951C56.248 31.8532 56.31 32.1114 56.3612 32.359ZM57.6853 29.7987C57.5127 29.854 57.3239 29.904 57.1432 29.9567C56.7387 28.7055 56.1859 27.3674 55.5091 25.9767C56.1509 24.6228 56.6848 23.2978 57.0785 22.0519C57.4075 22.1441 57.7311 22.2416 58.0385 22.3469C61.3365 23.4559 62.8385 25.0047 62.8385 25.974C62.8358 27.0118 61.2232 28.6529 57.6853 29.7987Z" fill="currentColor"/>
<path d="M96.5623 23.6793C95.0145 23.6793 93.801 24.1771 92.7844 25.2097L93.4693 26.2027C94.3107 25.3229 95.2329 24.9226 96.3682 24.9226C97.7381 24.9226 98.7574 25.6311 98.7574 26.8744V28.5391C97.9942 27.6778 96.9156 27.2774 95.6239 27.2774C94.0194 27.2774 92.3125 28.252 92.3125 30.3197C92.3125 32.3269 94.0167 33.3805 95.6239 33.3805C96.8967 33.3805 97.9754 32.9406 98.7574 32.1004V33.1513L100.224 33.1487V26.798C100.224 24.5617 98.5605 23.6793 96.5623 23.6793ZM98.7574 31.1969C98.1884 31.9608 97.1907 32.3453 96.1525 32.3453C94.7826 32.3453 93.8226 31.5051 93.8226 30.3382C93.8226 29.1528 94.7826 28.31 96.1525 28.31C97.1907 28.31 98.1884 28.6919 98.7574 29.4584V31.1969Z" fill="currentColor"/>
<path d="M116.571 31.7131C116.374 31.9239 115.991 32.0951 115.574 32.0951C114.929 32.0951 114.614 31.5972 114.614 30.9098V25.1728H116.533V23.9111H114.614V21.3876H113.144V23.9111H111.577V25.1728H113.144V31.2179C113.144 32.5956 113.848 33.3805 115.239 33.3805V33.3779C116.099 33.3779 116.631 33.1276 117.003 32.7852L116.571 31.7131Z" fill="currentColor"/>
<path d="M107.414 24.9621C108.392 24.9621 109.196 25.3256 109.814 26.1658L110.792 25.2861C110.067 24.3668 109.05 23.6793 107.327 23.6793C104.507 23.6793 102.608 25.7839 102.608 28.518C102.608 31.2733 104.507 33.3673 107.327 33.3673V33.3726C109.05 33.3726 110.067 32.6851 110.792 31.7658L109.814 30.8861C109.188 31.7079 108.384 32.0898 107.414 32.0898C105.396 32.0898 104.145 30.5594 104.145 28.5128C104.145 26.4661 105.396 24.9621 107.414 24.9621Z" fill="currentColor"/>
<path d="M79.8973 24.2272C79.8973 21.8829 78.193 20.3814 75.8038 20.3814H70.5562V33.1382H72.1823V28.0702H74.7872L78.1148 33.1382L80.0348 33.1487L76.5103 27.9464C78.2928 27.7937 79.8973 26.532 79.8973 24.2272ZM72.185 26.6847V21.8065H75.6124C77.1602 21.8065 78.2173 22.7995 78.2173 24.2351C78.2173 25.6706 77.1602 26.6847 75.6124 26.6847V26.6821H72.185V26.6847Z" fill="currentColor"/>
<path d="M85.9269 23.6819C83.2249 23.6819 81.2672 25.8445 81.2672 28.5207C81.2672 31.4102 83.2843 33.37 86.0833 33.37V33.3779C87.6312 33.3779 88.904 32.88 89.8424 31.9634L89.1386 31.0257C88.3943 31.7711 87.2968 32.1925 86.2209 32.1925C84.1849 32.1925 82.931 30.7385 82.8123 29.0001H90.468V28.6366C90.4707 25.8629 88.788 23.6819 85.9269 23.6819ZM82.8177 27.9464C82.8959 26.532 83.8937 24.8672 85.9108 24.8672C88.0654 24.8672 89.0038 26.5688 89.0253 27.9464H82.8177Z" fill="currentColor"/>
</svg>
