<svg width="150" height="50" viewBox="0 0 150 50" fill="none" xmlns="http://www.w3.org/2000/svg">
<path d="M79.8875 18.7359C79.8875 19.5525 79.2165 20.2805 78.3429 20.2805C77.6718 20.2805 77.0894 20.4578 76.5893 20.8376C76.0322 21.1858 75.5954 21.686 75.2472 22.2367C74.5445 23.1737 74.1963 24.2815 74.0507 24.6867V30.2323C74.0507 31.0806 73.3227 31.777 72.449 31.777C71.6007 31.777 70.9043 31.0743 70.9043 30.2323V18.7359C70.9043 17.8876 71.607 17.2165 72.449 17.2165C73.3227 17.2165 74.0507 17.8876 74.0507 18.7359V18.9384C74.2279 18.7359 74.4622 18.5016 74.6648 18.356C75.627 17.7166 76.8805 17.1912 78.3429 17.2165C79.2102 17.2165 79.8875 17.8876 79.8875 18.7359Z" fill="currentColor"/>
<path d="M79.0266 24.4841C79.0582 20.5148 82.1476 17.1912 86.1486 17.1912C89.9406 17.1912 92.9477 20.021 93.1819 23.9587V24.1043C93.1819 24.1612 93.1819 24.3068 93.1503 24.3638C93.0616 25.0665 92.4476 25.5287 91.6309 25.5287H82.3565C82.5021 26.1997 82.825 26.9594 83.3504 27.4532C83.9645 28.1559 85.1293 28.6813 86.1486 28.7636C87.1994 28.8523 88.4529 28.5864 89.1809 28.0356C89.795 27.3962 90.9915 27.4785 91.3713 27.947C91.7512 28.3585 92.0424 29.2321 91.3713 29.8462C89.9406 31.1566 88.2187 31.7707 86.1486 31.7707C82.1539 31.7517 79.0582 28.4534 79.0266 24.4841ZM82.2109 23.0534H90.4661C90.1749 21.8885 88.6871 20.1666 86.1486 19.9577C83.6669 20.078 82.4451 21.8569 82.2109 23.0534Z" fill="currentColor"/>
<path d="M108.046 30.2007C108.046 31.049 107.344 31.777 106.47 31.777C105.685 31.777 105.071 31.2199 104.925 30.5235C103.817 31.2832 102.418 31.777 100.956 31.777C97.0183 31.777 93.8656 28.4534 93.8656 24.5094C93.8656 20.5084 97.0183 17.1849 100.956 17.1849C102.387 17.1849 103.786 17.6533 104.868 18.413V12.9307C104.868 12.0824 105.571 11.3543 106.47 11.3543C107.344 11.3543 108.046 12.0824 108.046 12.9307V30.2007ZM100.956 20.3692C99.9051 20.3692 98.9428 20.806 98.2148 21.5657C97.4868 22.2937 97.0499 23.3446 97.0499 24.5158C97.0499 25.6236 97.4868 26.6745 98.2148 27.4025C98.9428 28.1622 99.9051 28.599 100.956 28.599C102.038 28.599 102.969 28.1622 103.697 27.4025C104.425 26.6745 104.862 25.6236 104.862 24.5158C104.862 23.3509 104.425 22.3 103.697 21.5657C102.969 20.806 102.038 20.3692 100.956 20.3692Z" fill="currentColor"/>
<path d="M113.598 13.5384C113.598 14.412 112.927 15.1401 112.022 15.1401C111.148 15.1401 110.446 14.412 110.446 13.5384V12.9307C110.446 12.057 111.148 11.3543 112.022 11.3543C112.927 11.3543 113.598 12.057 113.598 12.9307V13.5384ZM113.598 18.8245V30.207C113.598 31.0806 112.927 31.7833 112.022 31.7833C111.148 31.7833 110.446 31.0806 110.446 30.207V18.8245C110.446 17.8939 111.148 17.2165 112.022 17.2165C112.927 17.2165 113.598 17.8876 113.598 18.8245Z" fill="currentColor"/>
<path d="M115.605 27.6051C116.131 26.9024 117.15 26.8201 117.795 27.3709C118.555 28.0103 119.866 28.6813 121.005 28.656C121.79 28.656 122.524 28.3964 122.987 28.0989C123.398 27.7507 123.512 27.4595 123.512 27.2253C123.512 27.0797 123.48 27.0227 123.423 26.9341C123.392 26.8454 123.278 26.7315 123.044 26.5859C122.632 26.2947 121.758 25.9718 120.708 25.7692H120.676C119.771 25.592 118.897 25.3577 118.137 25.0095C117.352 24.6297 116.65 24.1043 116.124 23.3193C115.801 22.7938 115.63 22.1544 115.63 21.4834C115.63 20.1413 116.39 19.0018 117.352 18.2737C118.372 17.571 119.6 17.1912 120.942 17.1912C122.955 17.1912 124.386 18.1534 125.316 18.7928C126.019 19.2613 126.222 20.2236 125.785 20.9516C125.316 21.6543 124.354 21.8569 123.626 21.3631C122.695 20.749 121.872 20.2805 120.942 20.2805C120.214 20.2805 119.568 20.5148 119.188 20.806C118.808 21.0719 118.72 21.3314 118.72 21.477C118.72 21.591 118.72 21.6226 118.777 21.7113C118.808 21.7683 118.891 21.8885 119.1 22.0025C119.479 22.262 120.239 22.5279 121.233 22.7052L121.265 22.7368H121.296C122.259 22.9141 123.164 23.1737 124.012 23.5851C124.797 23.9333 125.589 24.4904 126.082 25.3071C126.431 25.8895 126.639 26.5606 126.639 27.2316C126.639 28.6623 125.854 29.8588 124.804 30.6185C123.753 31.3465 122.442 31.7833 121.011 31.7833C118.732 31.7517 116.985 30.7008 115.82 29.7702C115.168 29.2384 115.08 28.2445 115.605 27.6051Z" fill="currentColor"/>
<path d="M60.2688 30.0424C58.2177 31.1123 47.6012 35.4741 45.3412 36.6579C43.0811 37.8354 41.8213 37.8228 40.0361 36.9745C38.2508 36.1198 26.9506 31.5554 24.9121 30.5805C23.8992 30.0867 23.3801 29.6816 23.3611 29.2954V33.1761C23.3611 33.5623 23.8929 33.9738 24.9121 34.4612C26.9506 35.4361 38.2508 40.0005 40.0361 40.8552C41.8213 41.7098 43.0748 41.7225 45.3412 40.5386C47.6012 39.3611 58.224 34.993 60.2688 33.9231C61.3134 33.3787 61.7755 32.9608 61.7755 32.5747C61.7755 32.2138 61.7755 28.7446 61.7755 28.7446C61.7755 28.7446 61.7755 28.7446 61.7692 28.7446C61.7502 29.1118 61.2628 29.5233 60.2688 30.0424Z" fill="currentColor"/>
<path d="M60.2688 23.7054C58.2177 24.7753 47.6012 29.1371 45.3412 30.321C43.0811 31.4985 41.8213 31.4858 40.0361 30.6312C38.2508 29.7765 26.9506 25.2121 24.9121 24.2372C23.8992 23.7561 23.3738 23.3446 23.3611 22.9584V26.8391C23.3611 27.2253 23.8929 27.6368 24.9121 28.1242C26.9506 29.0991 38.2508 33.6636 40.0361 34.5182C41.8213 35.3728 43.0748 35.3855 45.3412 34.208C47.6012 33.0305 58.224 28.6623 60.2688 27.5925C61.3134 27.048 61.7755 26.6302 61.7755 26.244C61.7755 25.8832 61.7755 22.414 61.7755 22.414C61.7755 22.414 61.7755 22.414 61.7692 22.414C61.7502 22.7812 61.2628 23.1926 60.2688 23.7054Z" fill="currentColor"/>
<path d="M60.2435 14.7412C58.243 14.0069 47.6898 9.80331 45.6704 9.06263C43.6509 8.32194 42.8279 8.35359 40.4476 9.2019C38.0736 10.0565 26.8367 14.469 24.8362 15.254C23.8296 15.6465 23.3421 16.0074 23.3611 16.3999C23.3611 16.3999 23.3611 16.3999 23.3611 16.3935V20.2742C23.3611 20.6604 23.8929 21.0719 24.9121 21.5593C26.9506 22.5343 38.2508 27.0987 40.0361 27.9533C41.8213 28.8079 43.0748 28.8206 45.3412 27.6431C47.6012 26.4656 58.224 22.0974 60.2688 21.0276C61.3134 20.4831 61.7755 20.0653 61.7755 19.6791C61.7755 19.3183 61.7755 15.8491 61.7755 15.8491C61.7755 15.8491 61.7755 15.8491 61.7692 15.8491C61.7882 15.4566 61.2754 15.1147 60.2435 14.7412ZM56.7996 15.9757L51.5389 18.0585L50.9691 18.2801L45.7083 16.1973L51.5389 13.8929L56.7996 15.9757ZM46.0185 18.1598L43.328 22.1038L37.1176 19.5272L46.0185 18.1598ZM41.3465 12.1583L40.4855 10.5693L43.1697 11.6202L45.702 10.7909L45.0183 12.4305L47.6012 13.3991L44.2713 13.7473L43.5243 15.5389L42.3214 13.5384L38.4787 13.1902L41.3465 12.1583ZM34.7183 14.3994C37.3455 14.3994 39.479 15.2224 39.479 16.2416C39.479 17.2608 37.3519 18.0838 34.7183 18.0838C32.0848 18.0838 29.9577 17.2608 29.9577 16.2416C29.9577 15.2224 32.0911 14.3994 34.7183 14.3994Z" fill="currentColor"/>
</svg>
