<svg width="150" height="50" viewBox="0 0 150 50" fill="none" xmlns="http://www.w3.org/2000/svg">
<path d="M95.7267 47C81.9067 47 68.0894 47 54.2694 47C54.0531 46.9341 53.9856 46.7775 54.0025 46.5716V46.5606C54.0025 32.5188 54.0025 18.477 54.0025 4.43514C54.0025 4.36648 53.9997 4.30057 54.0165 4.23466C54.0474 4.11931 54.1177 4.04517 54.2385 4.01496C54.3003 3.99848 54.3593 4.00122 54.4211 4.00122C67.0471 4.00122 79.6731 4.00122 92.2991 4.00122C92.33 4.00122 92.3609 3.99847 92.3918 4.00122C92.6503 4.02044 92.7655 4.25938 92.6194 4.46809C92.5997 4.49556 92.5772 4.52302 92.5575 4.55048C90.8437 6.83265 89.1328 9.11208 87.419 11.3943C85.5422 13.8934 83.6654 16.3925 81.7887 18.8916C81.6089 19.1333 81.3279 19.147 81.1228 18.9246C80.8138 18.5896 80.5047 18.2545 80.1956 17.9195C79.2236 16.8621 78.2543 15.8048 77.2822 14.7475C77.0574 14.5031 76.7709 14.5168 76.5658 14.7749C75.8325 15.7114 75.0992 16.6507 74.3659 17.5872C74.1889 17.8124 74.2029 17.9991 74.3996 18.1996C75.5346 19.3448 76.6725 20.4872 77.8076 21.6325C78.951 22.7859 80.0945 23.9366 81.2408 25.09C81.4628 25.3125 81.724 25.3152 81.9207 25.0983C83.3788 23.4999 84.837 21.8988 86.298 20.2977C87.4471 19.0372 88.5961 17.7767 89.7452 16.5161C91.3129 14.7969 92.8835 13.075 94.4512 11.3558C94.7967 10.9768 95.1423 10.5978 95.4907 10.2216C95.5862 10.1172 95.6986 10.0953 95.8138 10.1419C95.9374 10.1941 95.9936 10.2902 95.9992 10.4166C96.002 10.4852 95.9964 10.5511 95.9964 10.6198C95.9964 22.6046 95.9964 34.5895 95.9992 46.5743C95.9964 46.7775 95.943 46.9313 95.7267 47ZM65.3923 42.2956C66.2604 42.2956 67.1201 42.2544 67.9742 42.0869C68.848 41.9166 69.6768 41.6392 70.441 41.1833C71.503 40.5489 72.2588 39.6674 72.6661 38.5139C72.9696 37.6544 73.0398 36.77 72.9302 35.8693C72.8066 34.8421 72.3768 33.9661 71.6126 33.2465C71.0366 32.7028 70.3567 32.321 69.6262 32.0162C68.6878 31.6262 67.7073 31.3626 66.7184 31.1319C65.8839 30.9369 65.0439 30.7611 64.2263 30.5002C63.7768 30.3574 63.3329 30.1927 62.9677 29.8851C62.7822 29.7313 62.639 29.5445 62.5856 29.3084C62.4423 28.6849 62.7513 28.0286 63.3385 27.6853C63.7768 27.4299 64.2544 27.32 64.7517 27.2898C65.3754 27.2514 65.9963 27.2871 66.6116 27.4024C67.8815 27.6441 69.0306 28.1439 70.0477 28.9294C70.2808 29.1106 70.5197 29.0886 70.6995 28.8552C71.2586 28.1384 71.8148 27.4189 72.3711 26.6966C72.5004 26.5291 72.4695 26.2902 72.3009 26.1584C71.6547 25.6503 70.9551 25.2219 70.2022 24.8813C68.7637 24.2332 67.2522 23.9229 65.6676 23.9503C64.9371 23.9641 64.2095 24.0025 63.493 24.1563C62.5434 24.3623 61.6528 24.7028 60.8549 25.2576C59.9446 25.8892 59.2816 26.7049 58.9135 27.7402C58.6635 28.446 58.5988 29.1738 58.6719 29.9153C58.7253 30.4783 58.8657 31.0138 59.1242 31.5219C59.5681 32.3952 60.2761 33.0131 61.1302 33.4855C62.0068 33.9688 62.9536 34.2682 63.9201 34.5208C64.9231 34.7817 65.943 34.9822 66.9403 35.2678C67.4376 35.4106 67.9265 35.5781 68.3676 35.8528C69.2273 36.3856 69.2919 37.3303 68.6907 38.0224C68.4856 38.2585 68.2327 38.4343 67.9518 38.5689C67.4376 38.816 66.8842 38.9204 66.3166 38.9506C65.6985 38.9836 65.0804 38.9451 64.4708 38.8298C62.9901 38.5551 61.6921 37.9207 60.5711 36.9348C60.3098 36.7041 60.0626 36.7343 59.8603 37.009C59.3349 37.7285 58.8096 38.4453 58.2842 39.1648C58.1297 39.3763 58.1521 39.585 58.3488 39.7553C58.6747 40.0326 59.0118 40.2908 59.3715 40.527C61.1892 41.7353 63.2009 42.3093 65.3923 42.2956ZM83.3957 36.4872C84.9606 36.4872 86.5283 36.4872 88.0932 36.4872C88.3826 36.4872 88.5343 36.3306 88.5203 36.0478C88.5146 35.9077 88.509 35.7704 88.5062 35.6303C88.495 35.1744 88.4641 34.7241 88.3939 34.2737C88.2309 33.1999 87.8825 32.1892 87.2785 31.272C86.5143 30.1158 85.472 29.2974 84.1487 28.8278C83.4603 28.5833 82.7495 28.4735 82.019 28.4405C81.1537 28.4021 80.3081 28.4982 79.4877 28.7673C77.6474 29.3715 76.296 30.5332 75.4335 32.2304C75.0205 33.0433 74.7986 33.9084 74.7564 34.8174C74.7227 35.5315 74.7227 36.2482 74.8801 36.9486C75.3745 39.1236 76.65 40.7027 78.701 41.6749C79.4062 42.01 80.1591 42.2022 80.943 42.2736C81.3082 42.3066 81.6735 42.2874 82.0387 42.2928C82.6371 42.2983 83.2271 42.2489 83.8143 42.139C85.0589 41.9029 86.194 41.425 87.2251 40.7082C87.433 40.5627 87.4667 40.3704 87.3234 40.1617C87.2475 40.0491 87.1661 39.9393 87.0902 39.8267C86.7952 39.4037 86.503 38.9808 86.2052 38.5606C86.0619 38.3574 85.8568 38.3245 85.6461 38.4645C85.5731 38.5139 85.5 38.5634 85.427 38.6101C84.6712 39.0797 83.8452 39.3763 82.9574 39.4806C82.4152 39.5438 81.8701 39.5713 81.3279 39.4587C79.9344 39.1703 78.8134 38.0608 78.5381 36.6931C78.5043 36.5256 78.5324 36.4927 78.7094 36.4927C80.2715 36.4872 81.8336 36.4872 83.3957 36.4872Z" fill="currentColor"/>
<path d="M81.7688 34.1117C80.7377 34.1117 79.7066 34.1117 78.6755 34.1117C78.4648 34.1117 78.4479 34.0952 78.4816 33.8892C78.6698 32.7797 79.2936 31.9888 80.3218 31.4999C80.7292 31.3077 81.1647 31.2281 81.6142 31.2116C82.1986 31.1869 82.7661 31.2445 83.2971 31.4999C84.2186 31.9476 84.7946 32.6616 85.0109 33.6476C85.0334 33.7492 85.0474 33.8535 85.0587 33.9579C85.0699 34.0787 85.0418 34.1062 84.921 34.1089C84.7131 34.1117 84.5052 34.1089 84.2973 34.1089C83.4545 34.1117 82.6116 34.1117 81.7688 34.1117Z" fill="currentColor"/>
</svg>
