<svg width="150" height="50" viewBox="0 0 150 50" fill="none" xmlns="http://www.w3.org/2000/svg">
<path d="M58.1265 20.6846C57.9846 20.6846 57.8427 20.6969 57.7008 20.6969C54.823 20.8501 52.8837 22.1049 51.7485 24.5577C50.7776 26.7758 50.8847 29.6757 51.7585 31.9086C52.7766 34.0897 54.4222 35.2407 57.1656 35.6755C57.7456 35.7693 58.1364 36.0855 59.2617 37.3897L60.6458 38.9977H63.1552L61.4848 37.328C60.5612 36.4116 59.8168 35.6162 59.8168 35.5446C59.8168 35.4754 60.1703 35.3223 60.596 35.1913C62.005 34.769 63.1751 33.6895 63.9916 32.0346C64.6538 30.7057 64.7484 30.2957 64.843 28.6407C65.0969 23.7228 62.4805 20.6475 58.1265 20.6846ZM60.3272 33.5537C59.1048 34.1416 57.3323 34.2577 56.1748 33.8353C54.9773 33.3981 53.8197 32.1655 53.2969 30.7699C52.7169 29.2434 52.7991 26.425 53.4637 25.1579C54.5292 23.1374 55.9383 22.2086 57.997 22.2086C61.0491 22.2086 62.7867 24.0637 63.0133 27.5514C63.1925 30.4636 62.2092 32.6472 60.3272 33.5537ZM103.696 24.8862C102.643 24.8862 101.836 25.3086 101.294 26.1435L100.868 26.803V25.0887H99.0456V35.3766H100.868V32.0865C100.868 29.0804 100.905 28.7272 101.328 27.9046C101.911 26.7758 102.917 26.2126 103.888 26.4819L104.54 26.6696V24.8862H103.696ZM92.9888 24.7923C92.6328 24.7923 92.2519 24.8393 91.876 24.9208C89.4363 25.5531 88.0621 27.87 88.1468 30.2537C88.1468 32.2495 88.5376 33.2474 89.5085 34.2922C91.4976 35.9101 93.295 36.041 95.7222 35.1716C96.1354 34.9962 96.586 34.7937 96.586 34.7937V33.1758L95.7222 33.6204C93.758 34.4676 92.2793 34.4676 91.0943 33.4697C90.3375 32.7064 90.0064 31.79 89.8521 30.7452H97.2009V29.357C97.2009 26.5337 95.4857 24.7479 92.9888 24.7923ZM90.0164 29.3027C90.0164 29.3027 90.2877 27.5391 91.2959 26.8474C91.7814 26.509 92.3365 26.3435 92.8817 26.3435C93.4269 26.3435 93.9721 26.5189 94.4202 26.8598C95.3438 27.5638 95.4981 29.2903 95.4981 29.2903H90.0188L90.0164 29.3027ZM46.08 27.4477C44.1034 26.2596 43.2271 25.4024 43.3342 24.3946C43.6404 21.601 47.1206 21.9863 49.0475 23.0435L49.0624 21.1638C49.0624 21.1638 47.9969 20.7068 46.4709 20.6821C44.1283 20.6475 42.6147 21.4083 41.9052 22.9595C40.8621 25.2493 41.7857 26.9759 45.1216 28.9001C46.9937 29.982 47.8226 30.9206 47.8226 31.9432C47.8226 34.0576 45.2535 34.7961 42.6047 33.4697C42.0596 33.2005 41.599 32.9757 41.5741 32.9757C41.4795 33.5759 41.5268 35.0086 41.5268 35.0086C41.5268 35.0086 42.3409 35.347 43.5632 35.5816C46.5929 36.1818 49.3487 34.7714 49.6076 32.4817C49.8316 30.3327 49.0475 29.2064 46.08 27.4477ZM119.825 24.7701C119.469 24.7701 119.093 24.8195 118.7 24.901C116.265 25.5333 114.891 27.8503 114.986 30.2339C114.986 32.2272 115.374 33.2153 116.345 34.2601C118.334 35.8805 120.131 36.0114 122.568 35.1419C122.982 34.9666 123.43 34.769 123.43 34.769V33.1486L122.566 33.5957C120.599 34.4404 119.118 34.4404 117.938 33.4425C117.179 32.6793 116.848 31.7752 116.696 30.718H124.032V29.3323C124.032 26.5189 122.317 24.7306 119.82 24.7775L119.825 24.7701ZM116.853 29.2805C116.853 29.2805 117.126 27.5193 118.132 26.8128C118.615 26.472 119.173 26.309 119.716 26.309C120.258 26.309 120.806 26.4843 121.254 26.8252C122.178 27.5292 122.332 29.2681 122.332 29.2681H116.853V29.2805ZM83.4492 27.4724C81.4726 26.2867 80.5988 25.4271 80.7058 24.4193C81.012 21.6232 84.4923 22.011 86.4191 23.0682L86.4315 21.1885C86.4315 21.1885 85.3661 20.7315 83.84 20.7093C81.4975 20.6747 79.9839 21.4355 79.2719 22.9867C78.2313 25.2765 79.1648 27.003 82.4907 28.9272C84.3603 30.0067 85.1893 30.9329 85.1893 31.9555C85.1893 34.0699 82.6227 34.8184 79.9714 33.482C79.4287 33.2128 78.9682 32.9905 78.9408 32.9905C78.8462 33.5907 78.8935 35.0234 78.8935 35.0234C78.8935 35.0234 79.6976 35.3494 80.9149 35.5964C83.9471 36.1967 86.7029 34.7887 86.9643 32.499C87.1883 30.3599 86.4091 29.2335 83.4492 27.4724ZM130.535 24.864C129.482 24.864 128.665 25.2888 128.132 26.1212L127.707 26.7783V25.0665H125.884V35.3519H127.707V32.0618C127.707 29.0557 127.744 28.7025 128.167 27.8824C128.75 26.756 129.755 26.1904 130.724 26.4621L131.376 26.6498V24.864H130.535ZM68.9556 20.86H67.1184V35.3717H74.8456V33.6574H68.9556V20.86ZM111.448 29.4534L109.934 33.3635L108.478 29.4311L106.999 25.0739H105.117C106.337 28.5024 107.662 31.9901 108.998 35.3692C109.578 35.3815 110.159 35.3692 110.739 35.3692L114.869 25.0739H113.071C113.069 25.0764 112.275 27.1438 111.448 29.4534ZM73.1902 16.9054C73.4864 16.9054 73.7328 16.8115 73.937 16.609C74.1386 16.4089 74.2432 16.1742 74.2432 15.8828C74.2432 15.5888 74.1361 15.3443 73.937 15.1566C73.7328 14.9688 73.4988 14.8725 73.2051 14.8725C72.9064 14.8725 72.6599 14.9664 72.4583 15.1664C72.2541 15.3665 72.162 15.6111 72.162 15.8927C72.162 16.1891 72.2566 16.4336 72.4583 16.6189C72.6474 16.8066 72.8964 16.9004 73.1902 16.9004V16.9054ZM72.5379 15.2356C72.7147 15.0602 72.9288 14.9787 73.2026 14.9787C73.4615 14.9787 73.6756 15.0602 73.8548 15.2356C74.0316 15.411 74.1262 15.6234 74.1262 15.8828C74.1262 16.1421 74.0316 16.3644 73.8548 16.5398C73.6756 16.7152 73.4615 16.7992 73.2026 16.7992C72.9412 16.7992 72.7271 16.7177 72.5504 16.5398C72.3736 16.3644 72.279 16.1421 72.279 15.8828C72.2815 15.6234 72.3612 15.411 72.5379 15.2356ZM72.9761 15.9766H73.0956C73.1802 15.9766 73.2623 16.0581 73.3321 16.2113L73.4739 16.5299H73.698L73.5212 16.1767C73.4491 16.0359 73.3794 15.9544 73.2972 15.9297C73.4018 15.905 73.4839 15.8704 73.5437 15.8013C73.6034 15.742 73.6258 15.658 73.6258 15.5666C73.6258 15.4579 73.591 15.3789 73.5212 15.3196C73.4391 15.2529 73.3096 15.2158 73.1404 15.2158H72.7645V16.5324H72.9537V15.9816L72.9761 15.9766ZM73.1429 15.3641C73.2623 15.3641 73.347 15.3888 73.3918 15.4233C73.4366 15.4579 73.4491 15.5048 73.4491 15.5888C73.4491 15.742 73.3545 15.8136 73.1777 15.8136H72.9736V15.3641H73.1429ZM42.6247 15.8581C42.6247 15.4011 42.6122 15.0602 42.5998 14.8602H42.6097C42.657 15.0973 42.7168 15.2727 42.7641 15.3912L44.5291 19.3014H44.8253L46.5904 15.3566C46.6377 15.248 46.685 15.0874 46.7447 14.8626H46.7572C46.7223 15.2529 46.7099 15.5913 46.7099 15.863V19.3137H47.3148V14.1834H46.558L44.9374 17.7526C44.8776 17.8934 44.7955 18.1058 44.6884 18.385H44.6635C44.6287 18.2466 44.5465 18.0342 44.427 17.7773L42.8412 14.1735H42.0372V19.3038H42.6172V15.8605L42.6247 15.8581ZM48.6367 15.8679H49.157V19.0642H48.6367V15.8679ZM48.8956 14.6971C49.0051 14.6971 49.0972 14.6601 49.1669 14.5885C49.2391 14.5193 49.2864 14.4279 49.2864 14.3192C49.2864 14.213 49.2516 14.1191 49.1694 14.05C49.0972 13.9783 49.0026 13.9413 48.8956 13.9413C48.791 13.9413 48.694 13.9783 48.6242 14.05C48.5521 14.1191 48.5048 14.213 48.5048 14.3192C48.5048 14.4353 48.5421 14.5193 48.6242 14.5885C48.7039 14.6601 48.7885 14.6971 48.8956 14.6971ZM52.8713 19.1334V18.5702C52.585 18.7826 52.2788 18.8864 51.9626 18.8864C51.5817 18.8864 51.2755 18.7579 51.049 18.5085C50.8249 18.2639 50.7054 17.9231 50.7054 17.4982C50.7054 17.0536 50.8249 16.7004 51.0714 16.4311C51.3079 16.1718 51.6166 16.0433 51.995 16.0433C52.3037 16.0433 52.5999 16.1372 52.8713 16.3274V15.7272C52.6223 15.5987 52.3385 15.5394 52.0199 15.5394C51.4274 15.5394 50.9668 15.7272 50.6233 16.0927C50.2822 16.4558 50.1055 16.9498 50.1055 17.5476C50.1055 18.0787 50.2598 18.5233 50.5785 18.8641C50.912 19.2149 51.3353 19.3927 51.858 19.3927C52.2588 19.3804 52.5875 19.2989 52.8713 19.1334ZM54.3649 17.4315C54.3649 17.0091 54.4595 16.6683 54.6363 16.4361C54.8031 16.2236 55.0022 16.1174 55.2412 16.1174C55.4429 16.1174 55.5847 16.1545 55.6893 16.236V15.6234C55.6072 15.5888 55.4902 15.5765 55.3358 15.5765C55.1217 15.5765 54.9325 15.6481 54.7657 15.779C54.589 15.9174 54.4471 16.1298 54.3649 16.399H54.3525V15.6481H53.7625V19.3112H54.355V17.4315H54.3649ZM57.7605 19.3829C58.3182 19.3829 58.7638 19.205 59.0974 18.8518C59.4285 18.501 59.5928 18.0293 59.5928 17.4439C59.5928 16.8461 59.4409 16.3867 59.1322 16.0458C58.826 15.7049 58.4003 15.5419 57.8427 15.5419C57.285 15.5419 56.8394 15.7074 56.5058 16.0236C56.1499 16.3743 55.9631 16.8683 55.9631 17.5031C55.9631 18.054 56.115 18.5134 56.4361 18.8543C56.7672 19.205 57.2054 19.3804 57.7605 19.3829ZM56.9191 16.399C57.1431 16.1644 57.4394 16.0458 57.8053 16.0458C58.1862 16.0458 58.47 16.1619 58.6816 16.399C58.8957 16.646 59.0003 16.9968 59.0003 17.4661C59.0003 17.9132 58.9057 18.2639 58.704 18.501C58.5024 18.7481 58.2086 18.879 57.8153 18.879C57.4344 18.879 57.1407 18.7481 56.9166 18.501C56.6926 18.254 56.5855 17.9132 56.5855 17.4661C56.5656 17.0215 56.6826 16.6584 56.9191 16.399ZM62.1843 19.0642C62.4083 18.8641 62.5278 18.6196 62.5278 18.3133C62.5278 18.0441 62.4332 17.8218 62.2565 17.6439C62.1121 17.5031 61.8905 17.3747 61.5694 17.2463C61.2831 17.1277 61.1088 17.0239 61.0118 16.94C60.9172 16.8461 60.8574 16.7275 60.8574 16.562C60.8574 16.4089 60.9172 16.2928 61.0342 16.1989C61.1537 16.1051 61.3055 16.0581 61.5096 16.0581C61.8283 16.0581 62.1021 16.1421 62.3511 16.3175V15.7296C62.1121 15.6111 61.8532 15.5543 61.5569 15.5543C61.1761 15.5543 60.8574 15.658 60.6209 15.8581C60.372 16.0581 60.255 16.315 60.255 16.6213C60.255 16.8906 60.3371 17.1153 60.4915 17.2784C60.6209 17.4192 60.845 17.5624 61.1537 17.6884C61.4499 17.8168 61.6515 17.9354 61.7586 18.0293C61.8656 18.1231 61.9129 18.2417 61.9129 18.38C61.9129 18.7209 61.6764 18.8987 61.2159 18.8987C60.8599 18.8987 60.5412 18.7826 60.2575 18.548V19.1803C60.5164 19.3335 60.825 19.4051 61.1661 19.4051C61.6042 19.3829 61.9478 19.2767 62.1843 19.0642ZM65.0023 15.5419C64.4447 15.5419 63.9991 15.7074 63.6655 16.0236C63.312 16.3743 63.1228 16.8683 63.1228 17.5031C63.1228 18.054 63.2772 18.5134 63.5958 18.8543C63.9294 19.2075 64.365 19.3829 64.9227 19.3829C65.4928 19.3829 65.9259 19.205 66.2595 18.8518C66.5931 18.501 66.7574 18.0317 66.7574 17.4439C66.7574 16.8436 66.6031 16.3867 66.2969 16.0458C65.9757 15.7049 65.55 15.5419 65.0073 15.5419H65.0023ZM66.15 17.4661C66.15 17.9132 66.0554 18.2639 65.8537 18.501C65.6521 18.7481 65.3558 18.879 64.965 18.879C64.5841 18.879 64.2904 18.7481 64.0663 18.501C63.8423 18.254 63.7352 17.9132 63.7352 17.4661C63.7352 16.9943 63.8522 16.6312 64.0912 16.3867C64.3153 16.152 64.6115 16.0334 64.9775 16.0334C65.3434 16.0334 65.6372 16.152 65.8512 16.3867C66.0429 16.646 66.1475 16.9968 66.15 17.4661ZM67.7482 19.2989H68.3382V16.1298H69.2021V15.6358H68.3382V15.0701C68.3382 14.5563 68.5399 14.297 68.9531 14.297C69.0925 14.297 69.2344 14.3316 69.3415 14.3908V13.8622C69.2344 13.8153 69.0925 13.8054 68.9158 13.8054C68.5971 13.8054 68.3357 13.8993 68.1241 14.0994C67.8752 14.334 67.7432 14.6379 67.7432 15.0504V15.6506H67.1184V16.1421H67.7432V19.3014L67.7482 19.2989ZM70.1729 18.301C70.1729 19.0173 70.4916 19.3829 71.1438 19.3829C71.3803 19.3829 71.5571 19.3458 71.699 19.2618V18.7579C71.5894 18.8394 71.4625 18.8765 71.3181 18.8765C71.1164 18.8765 70.977 18.8296 70.8924 18.7234C70.8078 18.6196 70.7604 18.4418 70.7604 18.1948V16.1273H71.6965V15.6333H70.7604V14.5539C70.5563 14.623 70.3572 14.6823 70.168 14.7416V15.6333H69.5307V16.1273H70.168L70.1729 18.301ZM133.681 25.0517C133.48 24.864 133.243 24.7701 132.949 24.7701C132.651 24.7701 132.404 24.864 132.203 25.0665C132.001 25.2641 131.906 25.5111 131.906 25.7927C131.906 26.0866 132.001 26.3312 132.2 26.5189C132.402 26.7066 132.648 26.803 132.947 26.803C133.241 26.803 133.49 26.7091 133.694 26.509C133.893 26.3065 134 26.0743 134 25.7828C133.99 25.4864 133.883 25.2394 133.681 25.0517ZM133.587 26.4374C133.41 26.6128 133.196 26.6943 132.935 26.6943C132.676 26.6943 132.462 26.6128 132.282 26.4374C132.106 26.2596 132.011 26.0372 132.011 25.7779C132.011 25.521 132.093 25.3086 132.272 25.1307C132.449 24.9554 132.661 24.8738 132.935 24.8738C133.193 24.8738 133.408 24.9554 133.587 25.1307C133.763 25.3086 133.858 25.521 133.858 25.7779C133.858 26.0496 133.778 26.2596 133.587 26.4374ZM133.056 25.8396C133.164 25.8149 133.246 25.768 133.305 25.7112C133.365 25.6494 133.388 25.5679 133.388 25.4741C133.388 25.3679 133.353 25.2863 133.281 25.2271C133.198 25.1604 133.066 25.1233 132.9 25.1233H132.521V26.4374H132.71V25.8866H132.827C132.91 25.8866 132.989 25.9681 133.064 26.1212L133.206 26.4374H133.432L133.256 26.0842C133.193 25.931 133.124 25.8594 133.052 25.8372L133.056 25.8396ZM132.925 25.7211H132.72V25.2765H132.887C133.004 25.2765 133.089 25.2987 133.136 25.3333C133.183 25.3679 133.193 25.4148 133.193 25.4988C133.196 25.6519 133.101 25.7211 132.925 25.7211Z" fill="currentColor"/>
<path d="M37.6527 22.4976L37.603 22.4186C37.3167 21.9764 37.1175 21.7022 36.881 21.4108C36.1914 20.5635 35.3575 19.8768 34.3343 19.3063C32.9278 18.5257 31.108 17.9181 28.8052 17.4661C28.3721 17.3796 27.4186 17.2166 26.6419 17.1005L26.5697 16.972C26.1465 16.231 25.681 15.3121 25.4071 14.6946C25.1955 14.213 24.9939 13.6597 24.8843 13.2595C24.8246 13.0174 24.8171 13.0051 24.7773 13.0002C24.6976 12.9903 23.4255 13.4448 22.604 13.7758C21.4962 14.2253 20.6349 14.6526 20.1046 15.0207C19.9328 15.1417 19.7237 15.3418 19.6465 15.4554C19.6465 15.4529 19.6465 15.4529 19.6441 15.4505C19.6441 15.4505 19.6391 15.4604 19.6316 15.4752C19.6266 15.4851 19.6216 15.4925 19.6192 15.4999C19.6042 15.5345 19.5968 15.5789 19.5968 15.6209L19.6092 15.6308C19.6117 15.6678 19.6216 15.7123 19.6416 15.7592C19.6889 15.8729 19.8233 16.0112 19.9776 16.1544C19.9776 16.1544 21.5734 17.6982 21.7676 17.9205C22.6488 18.9308 23.0347 19.9287 23.0695 21.3021C23.0919 22.1839 22.9227 22.962 22.5019 23.8611C21.7551 25.4765 20.1818 27.2599 17.7521 29.2384L17.7894 29.2261C17.7695 29.2409 17.7521 29.2557 17.7322 29.2705C17.4409 29.4978 17.0102 29.9251 16.7911 30.1968C16.465 30.6019 16.2061 31.0342 16.0941 31.3652C15.8974 31.9629 15.9945 32.5681 16.3729 33.1263C16.8608 33.8377 17.8342 34.5639 18.9669 35.0579C19.5445 35.3099 20.5178 35.6334 21.2497 35.8162C22.4671 36.1225 24.8196 36.4535 26.1141 36.5029C26.3755 36.5128 26.7265 36.5128 26.7415 36.5029C26.7714 36.4856 26.9705 36.1052 27.2045 35.631C28.0011 34.018 28.5737 32.5063 28.8874 31.2145C29.0741 30.4315 29.221 29.3891 29.3181 28.1541C29.343 27.8083 29.3529 26.6523 29.333 26.2595C29.3006 25.6198 29.2434 25.0986 29.1538 24.5897C29.1463 24.5478 29.1413 24.5082 29.1388 24.4811C32.0216 23.6314 35.2081 22.8632 37.3216 22.5421L37.6527 22.4976ZM29.7736 18.2392C29.806 18.2392 30.4582 18.417 30.7993 18.5158C31.6432 18.7653 32.6116 19.1185 33.2414 19.4026L33.5028 19.5212L33.3211 19.5631C31.7776 19.9164 30.4582 20.3215 29.1836 20.8328C29.0791 20.8748 28.987 20.9118 28.9795 20.9118C28.972 20.9118 29.0094 20.8303 29.0542 20.729C29.4376 19.9213 29.6865 19.0765 29.7462 18.3577C29.7537 18.2935 29.7637 18.2392 29.7736 18.2392ZM29.5023 18.1972C29.5122 18.2071 29.4674 18.4961 29.4226 18.6665C29.2932 19.1976 28.9446 19.9831 28.5189 20.7241C28.4443 20.855 28.3746 20.9637 28.3671 20.9661C28.3596 20.9686 28.2625 20.9167 28.153 20.8525C27.7373 20.6105 27.2643 20.3832 26.7465 20.1683C26.6021 20.109 26.4776 20.0572 26.4726 20.0497C26.4477 20.0275 27.6028 19.2692 28.2127 18.9061C28.6982 18.6171 29.4873 18.1824 29.5023 18.1972ZM26.4801 25.5654C27.2195 26.0249 28.2227 26.5806 28.6534 26.7659C28.7853 26.8227 28.8003 26.8005 28.4965 27.0079C27.8443 27.4501 27.0303 27.8824 26.032 28.322C25.8552 28.4011 25.7084 28.4604 25.7059 28.4604C25.6984 28.4604 25.7208 28.3714 25.7482 28.2652C25.9897 27.3785 26.1241 26.4818 26.1316 25.763C26.1341 25.5753 26.1341 25.4889 26.139 25.4444C26.1664 25.4345 26.1913 25.4271 26.2187 25.4172C26.2685 25.437 26.3481 25.4839 26.4801 25.5654ZM25.6486 26.6226C25.5839 27.1413 25.4843 27.6255 25.3175 28.1714C25.2777 28.3023 25.2428 28.4134 25.2354 28.4208C25.2204 28.4381 24.73 27.9614 24.5682 27.7761C24.2894 27.455 24.0703 27.1364 23.9085 26.8227C23.8388 26.6844 23.7342 26.4349 23.7118 26.3608C24.2197 26.1558 24.7499 25.9508 25.3051 25.7433C25.4246 25.6988 25.549 25.6519 25.676 25.6074C25.6884 25.7359 25.676 26.4225 25.6486 26.6226ZM20.4979 27.9762C20.5253 27.8502 20.5353 27.7959 20.5602 27.7638C21.2024 27.4452 21.8796 27.1339 22.6015 26.8227C22.5667 26.9141 22.4098 27.2352 22.258 27.5341C21.9095 28.2059 21.5286 28.8679 21.0207 29.6732C20.9336 29.8115 20.8514 29.9399 20.8415 29.9547C20.8241 29.9794 20.8166 29.972 20.7593 29.8634C20.6373 29.6238 20.5378 29.3175 20.483 29.0383C20.4257 28.7592 20.4357 28.2751 20.4979 27.9762ZM23.2911 19.909C23.2811 19.8102 23.2687 19.7237 23.2737 19.7212C23.2836 19.7113 23.784 19.8274 24.0529 19.9015C24.4611 20.0152 25.33 20.3042 25.33 20.3264C25.33 20.3289 25.2329 20.4129 25.1184 20.5117C24.6479 20.8995 24.1973 21.3095 23.6546 21.8282C23.4927 21.9813 23.3558 22.1049 23.3508 22.1049C23.3434 22.1049 23.3409 22.0826 23.3434 22.0554C23.4255 21.4577 23.4056 20.6895 23.2911 19.909ZM25.5689 17.8094C25.7009 18.3256 25.7631 18.9012 25.7407 19.4396C25.7333 19.5903 25.7258 19.7286 25.7183 19.7459L25.7084 19.7805L25.5216 19.7212C25.1383 19.6002 24.5134 19.4174 23.9782 19.2692C23.672 19.1877 23.4255 19.1136 23.4255 19.1062C23.4255 19.084 23.8711 18.6443 24.0603 18.4763C24.4238 18.1601 25.4046 17.4043 25.437 17.4167C25.4619 17.4216 25.4992 17.5426 25.5689 17.8094ZM24.5159 21.5441C24.852 21.2551 25.564 20.6895 25.5739 20.6994C25.5839 20.7093 25.4619 21.1489 25.3872 21.3861C25.2403 21.8381 24.9914 22.4037 24.7524 22.8311C24.6951 22.9299 24.608 23.0756 24.5632 23.1596L24.4736 23.3028L24.2719 23.1102C24.0379 22.8854 23.8487 22.7471 23.6048 22.6236C23.5077 22.5742 23.433 22.5322 23.433 22.5248C23.433 22.4927 24.0454 21.9418 24.5159 21.5441ZM24.3441 24.0908H24.3516C24.369 24.0883 24.3914 24.1204 24.4885 24.2612C24.6927 24.5626 24.852 24.9701 24.8893 25.2962L24.8968 25.3678L24.4064 25.5555C23.5276 25.8939 22.716 26.2274 22.1684 26.4769C22.014 26.5485 21.7452 26.677 21.5684 26.7609C21.3916 26.8499 21.2497 26.9166 21.2497 26.9141C21.2497 26.9116 21.3618 26.8276 21.4962 26.7288C22.5692 25.9557 23.4977 25.1085 24.1948 24.2612C24.267 24.1772 24.3367 24.0957 24.3441 24.0908ZM21.5161 30.4586C22.6862 30.1425 23.6795 29.7991 24.6653 29.3792C24.8047 29.3224 24.9192 29.2755 24.9242 29.2755C24.9267 29.2779 24.8993 29.3545 24.8619 29.4385C24.5508 30.1894 24.14 31.0095 23.6172 31.9259C23.4853 32.1605 23.3733 32.3482 23.3708 32.3482C23.3683 32.3482 23.2587 32.284 23.1293 32.205C22.3675 31.7431 21.6954 31.1725 21.2522 30.6217L21.1875 30.5426L21.5161 30.4586ZM24.4338 28.9642C23.7566 29.2211 23.0173 29.478 22.1708 29.7473C21.9692 29.8115 21.7676 29.8782 21.5659 29.9424C21.5335 29.9523 21.5435 29.935 21.6381 29.7893C22.0588 29.1372 22.6961 27.8601 23.0546 26.9561C23.1143 26.8005 23.1766 26.6424 23.1865 26.6078C23.1915 26.5905 23.1965 26.5782 23.204 26.5683C23.2488 26.5485 23.2961 26.5312 23.3434 26.5115C23.3533 26.5288 23.3733 26.5782 23.3932 26.6325C23.5077 26.9413 23.7666 27.3982 23.9881 27.6897C24.2321 28.0108 24.5508 28.3517 24.8171 28.5764C24.9043 28.6481 24.9814 28.7148 24.9939 28.7271C25.0113 28.7469 25.0163 28.7444 24.4338 28.9642ZM25.1507 25.2616C25.1408 25.2641 25.1358 25.2122 25.1358 25.1307C25.1358 24.7009 25.0238 24.2415 24.8321 23.8487C24.7499 23.6857 24.735 23.6462 24.7524 23.6289C24.8196 23.5671 25.8652 22.9768 26.5249 22.626C26.9705 22.3914 27.6651 22.0431 27.6775 22.0505C27.685 22.0579 27.1921 22.7446 26.8983 23.1324C26.5473 23.5943 25.9225 24.3699 25.4918 24.8763C25.3125 25.0838 25.1582 25.2591 25.1507 25.2616ZM27.3614 21.6504C26.6867 21.9838 26.1092 22.3025 25.5067 22.6656C25.3349 22.7693 25.1905 22.8533 25.1881 22.8533C25.1731 22.8533 25.1781 22.8385 25.2752 22.6656C25.5988 22.0826 25.8552 21.3836 26.0046 20.7043C26.0195 20.65 26.0345 20.6154 26.0444 20.6154C26.0942 20.6253 26.5622 20.8426 26.9133 21.018C27.2369 21.1786 27.7198 21.4355 27.7447 21.4552C27.7447 21.4577 27.573 21.5466 27.3614 21.6504ZM29.1114 18.0836C29.1338 18.091 29.0567 18.133 28.8177 18.2392C27.8717 18.664 27.1672 19.0444 26.4676 19.5063C26.2859 19.6274 26.1316 19.7262 26.1266 19.7262C26.1241 19.7262 26.1191 19.6224 26.1191 19.4989C26.1191 18.8221 25.9822 18.1404 25.7308 17.5624C25.7059 17.5056 25.6835 17.4512 25.6884 17.4488C25.6984 17.4389 27.1746 17.6908 27.8443 17.8193C28.3422 17.9156 29.0666 18.0663 29.1114 18.0836ZM25.4146 15.7419C25.4295 15.7419 25.447 15.7741 25.4893 15.8704C25.6113 16.1372 25.9922 16.8559 26.0843 16.9943C26.0892 17.0041 26.0967 17.0116 26.0992 17.0165C25.315 16.8955 24.6653 16.7893 24.0554 16.6904C24.0653 16.683 24.0952 16.6608 24.1325 16.641C24.5084 16.4336 24.8893 16.1717 25.2279 15.8901C25.31 15.8235 25.3847 15.7592 25.3997 15.7469C25.4046 15.7419 25.4121 15.737 25.4146 15.7419ZM22.7783 13.9832C23.2687 13.7585 24.618 13.2002 24.72 13.1829H24.7225C24.725 13.1854 24.74 13.2867 24.7549 13.4028C24.8146 13.9017 24.9267 14.3809 25.1034 14.9021C25.2354 15.2949 25.2354 15.2726 25.081 15.2257C24.7151 15.1269 23.0745 14.8453 21.887 14.6823C21.6978 14.6576 21.536 14.6329 21.536 14.6279C21.5236 14.6131 22.3949 14.1611 22.7783 13.9832ZM21.4016 14.8231C22.1609 15.08 24.0753 15.4431 25.1283 15.527C25.2478 15.5369 25.3474 15.5493 25.3499 15.5493C25.3524 15.5517 25.2528 15.6061 25.1233 15.6678C24.613 15.9198 24.0554 16.231 23.667 16.4681C23.5724 16.5274 23.4853 16.5768 23.4504 16.5916C23.3359 16.5719 23.2189 16.5521 23.1044 16.5324L22.7633 16.2014C22.131 15.5937 21.6381 15.122 21.4464 14.9441L21.2597 14.7761L21.4016 14.8231ZM21.0705 14.9194L21.1178 14.8873L21.6232 15.5147C21.8995 15.8605 22.1783 16.1989 22.2406 16.273C22.2903 16.3348 22.3327 16.3842 22.3451 16.4039C21.9916 16.3422 21.5958 16.2705 21.3045 16.2088C21.0904 16.1619 20.6772 16.0655 20.3535 15.9568C20.3187 15.9445 20.2838 15.9297 20.2465 15.9173V15.8778C20.249 15.6382 20.5552 15.2825 21.0705 14.9194ZM22.5965 18.5578C22.1758 17.8242 21.5136 17.0807 20.7444 16.483C20.6448 16.4113 20.5676 16.3471 20.5676 16.3446C20.5701 16.3422 20.6274 16.3619 20.7046 16.3866C20.8415 16.4336 21.0157 16.4854 21.2249 16.5422C21.3817 16.5842 21.541 16.6262 21.6978 16.6657C21.9119 16.7201 22.0937 16.7695 22.0962 16.7695C22.1211 16.7942 22.4845 17.9452 22.6065 18.3849C22.6538 18.5529 22.6887 18.6937 22.6862 18.6937C22.6812 18.6986 22.6438 18.6393 22.5965 18.5578ZM23.0446 18.7307C22.9152 18.2367 22.6463 17.5031 22.4024 16.9869C22.3675 16.9128 22.3376 16.8461 22.3327 16.8263C22.3327 16.8263 22.3327 16.8263 22.3351 16.8263C22.3526 16.8263 22.4322 16.8362 22.5293 16.8584C23.1392 16.9943 24.2346 17.1993 24.9341 17.3178C25.0536 17.3351 25.1457 17.3574 25.1457 17.3648C25.1457 17.3722 25.1034 17.3969 25.0487 17.4265C24.9292 17.4858 24.4537 17.7674 24.2943 17.8761C23.896 18.1404 23.5376 18.4244 23.2787 18.6813C23.1741 18.7851 23.0845 18.8691 23.0845 18.8691C23.0845 18.8691 23.0621 18.8048 23.0446 18.7307ZM22.2878 24.901C22.5243 24.5403 22.6438 24.3378 22.7683 24.0784C22.8803 23.8463 22.9899 23.5721 23.0695 23.3349C23.0994 23.2312 23.1343 23.1546 23.1417 23.1546C23.1517 23.1546 23.2338 23.1966 23.3284 23.246C23.5575 23.3695 23.7616 23.5103 23.9458 23.6585C23.9533 23.6659 23.8587 23.74 23.7367 23.829C23.3957 24.071 22.8803 24.4588 22.5791 24.6984C22.263 24.9454 22.2505 24.9528 22.2878 24.901ZM21.0581 26.4769C21.2946 26.2249 21.4738 26.01 21.6779 25.7482C21.8149 25.5728 21.8397 25.5481 22.0364 25.4098C22.5642 25.0319 23.779 24.2143 23.794 24.2291C23.8089 24.2439 23.4006 24.7034 23.1193 24.9825C22.4273 25.684 21.7427 26.2323 20.8913 26.7659C20.7842 26.8326 20.6871 26.8943 20.6772 26.9017C20.6523 26.9141 20.6846 26.8795 21.0581 26.4769ZM16.6941 31.3133C16.7762 30.7896 17.1795 30.1054 17.7371 29.5299C18.1106 29.1446 18.4068 28.9223 18.9171 28.6333C19.0989 28.5295 19.3304 28.4011 19.5221 28.2973C19.6416 28.2331 19.7635 28.1689 19.8855 28.1047C19.8855 28.1047 19.8855 28.1047 19.888 28.1047C19.8905 28.1047 19.893 28.1022 19.8955 28.1022C19.9104 28.1022 19.9054 28.1318 19.8855 28.2578C19.8706 28.3492 19.8532 28.5221 19.8457 28.6382C19.8158 29.1569 19.903 29.5422 20.1619 30.0684C20.2341 30.2141 20.2913 30.3351 20.2863 30.3401C20.2614 30.3623 17.8865 31.0515 17.1397 31.254C16.9181 31.3133 16.7239 31.3676 16.709 31.3726C16.6866 31.3775 16.6841 31.375 16.6941 31.3133ZM18.1429 33.8451L17.9811 33.7093C17.7919 33.5536 17.4608 33.2177 17.3139 33.0325C17.0052 32.6521 16.7961 32.2494 16.714 31.8839C16.6741 31.7134 16.6741 31.627 16.7115 31.6171C16.7662 31.6023 17.7222 31.3775 18.6209 31.1725C19.1188 31.0589 19.6963 30.923 19.9054 30.8736C20.1146 30.8242 20.2814 30.7847 20.2863 30.7847C20.2938 30.7921 19.8382 31.4442 19.1984 32.3285C18.9769 32.6372 18.718 33.0003 18.6209 33.1362C18.5238 33.2721 18.3769 33.4845 18.2948 33.6129L18.1429 33.8451ZM18.3869 34.0304L18.3222 33.9834L18.4267 33.8328C18.7628 33.3486 19.1885 32.8176 20.1096 31.7159L20.7444 30.9576L20.8589 31.086C21.3767 31.6591 21.902 32.084 22.5418 32.452C22.6563 32.5162 22.7434 32.573 22.736 32.5755C22.7111 32.5928 20.5178 33.3659 19.5046 33.7142C18.9346 33.9143 18.4641 34.0748 18.4616 34.0748C18.4566 34.0773 18.4242 34.0551 18.3869 34.0304ZM21.4589 35.4358L21.4041 35.421C21.2746 35.3864 20.3685 35.0678 20.127 34.9715C19.8283 34.8529 19.5196 34.7121 19.2906 34.5911C19.0043 34.4379 18.6458 34.2107 18.6732 34.2033C18.6806 34.2008 19.1711 34.0674 19.7635 33.9069C21.3344 33.482 22.2057 33.2375 22.7758 33.0596C22.8803 33.0275 22.97 33.0028 22.9724 33.0053C22.9749 33.0078 22.721 33.4153 22.2754 34.1119C22.0862 34.4083 21.8746 34.7418 21.7974 34.8603C21.7252 34.9739 21.6182 35.1518 21.556 35.2531L21.4589 35.4358ZM21.7427 35.5001C21.7427 35.4927 21.8298 35.3815 21.9319 35.2605C22.4472 34.6479 22.9625 33.9637 23.3882 33.3165C23.5077 33.1387 23.6073 32.9929 23.6073 32.988C23.6097 32.9855 23.7691 33.0423 23.9633 33.1115C24.4288 33.2869 24.7997 33.3956 25.2951 33.5215C25.905 33.6747 26.7863 33.8229 27.3066 33.8673C27.3862 33.8748 27.4286 33.8822 27.4136 33.892C27.3887 33.9069 26.861 34.0798 26.4726 34.2008C25.8552 34.3935 23.9732 34.9443 22.4372 35.3815C22.1534 35.463 21.9095 35.5322 21.8945 35.5346C21.8597 35.547 21.7427 35.5149 21.7427 35.5001ZM26.6668 36.1917C26.6195 36.3053 26.6021 36.3349 26.5772 36.33C26.5174 36.3275 25.6735 36.209 25.1607 36.1349C24.267 35.999 22.7683 35.7397 22.3924 35.6532L22.3053 35.6359L22.8405 35.5149C23.9881 35.258 24.5408 35.1197 25.1009 34.9492C25.8079 34.7368 26.5075 34.4676 27.2145 34.1415C27.3265 34.0921 27.4186 34.0526 27.4435 34.0501H27.446C27.4609 34.0822 26.8784 35.6853 26.6668 36.1917ZM28.1381 31.8518C28.0136 32.2964 27.9041 32.6447 27.7074 33.2622C27.6203 33.5339 27.5456 33.7562 27.5431 33.7562C27.5406 33.7562 27.5182 33.7537 27.4958 33.7463C26.4303 33.5536 25.4768 33.2869 24.5781 32.9312C24.3267 32.8324 23.9682 32.6718 23.9458 32.6545C23.9384 32.6471 24.1549 32.5483 24.4263 32.4298C26.0594 31.7208 27.7522 30.9181 28.3322 30.5723C28.3995 30.5303 28.4542 30.508 28.4642 30.508C28.4716 30.5871 28.2899 31.3207 28.1381 31.8518ZM28.4044 30.3376C27.9265 30.6019 26.3606 31.2491 24.7549 31.8444C24.5209 31.9308 24.2919 32.0148 24.2495 32.0321C24.2072 32.0494 24.1674 32.0617 24.1674 32.0568C24.1674 32.0543 24.2321 31.9283 24.3143 31.7752C24.7624 30.9428 25.2154 29.9276 25.4445 29.2236C25.4743 29.1569 25.4918 29.0952 25.4943 29.0927C25.4968 29.0902 25.5839 29.1347 25.6884 29.1964C26.4552 29.6386 27.5257 30.0461 28.4368 30.2561L28.5189 30.2734L28.4044 30.3376ZM28.7953 27.1957C28.7953 27.9886 28.7081 29.0779 28.5837 29.8732C28.5613 30.0116 28.5438 30.1252 28.5414 30.1301C28.5414 30.1301 28.4368 30.1005 28.3148 30.0659C27.7771 29.8979 27.1921 29.6534 26.6643 29.3644C26.3158 29.1767 25.8104 28.8654 25.8254 28.8506C25.8278 28.8482 25.9797 28.7691 26.1565 28.6752C26.8585 28.3121 27.5331 27.9219 28.1181 27.5316C28.3372 27.3859 28.6658 27.1512 28.738 27.087L28.7953 27.045V27.1957ZM28.7729 26.3904C28.7803 26.5362 28.7754 26.6325 28.7704 26.6325C28.7405 26.6325 28.163 26.2941 27.7522 26.0372C27.3962 25.8149 26.7216 25.3703 26.607 25.2814C27.2369 25.0689 27.909 24.854 28.6036 24.6441C28.6534 24.8442 28.748 25.7754 28.7729 26.3904ZM30.269 23.619C28.626 24.071 27.3564 24.4737 25.8751 25.0146C25.7108 25.0739 25.5714 25.1258 25.559 25.1258C25.5366 25.1258 25.5192 25.143 25.8901 24.8046C26.8361 23.9401 27.6775 22.9867 28.2999 22.0579L28.4243 21.8653L28.6011 21.9789C29.0019 22.2382 29.4774 22.584 29.8384 22.8854C30.0425 23.0534 30.4383 23.4041 30.5155 23.4906L30.5578 23.5375L30.269 23.619ZM30.9213 23.4263C30.9188 23.4263 30.8715 23.3621 30.8217 23.2831C30.4209 22.6853 29.9379 22.1617 29.3678 21.6923C29.2608 21.6034 29.1413 21.5071 29.1015 21.4799C29.0616 21.4503 29.0293 21.4231 29.0293 21.4206C29.0293 21.4108 29.6392 21.1489 30.1022 20.9661C30.9138 20.6376 32.0166 20.2474 32.8456 19.9954C33.2788 19.8596 33.7418 19.7286 33.7493 19.7361C33.7568 19.7435 33.5203 20.114 33.3684 20.3239C33.1543 20.6302 32.8381 21.0353 32.1237 21.9245C31.7478 22.3938 31.3246 22.9249 31.1827 23.1028C31.0433 23.2757 30.9262 23.4263 30.9213 23.4263ZM36.9283 22.3914C35.4172 22.505 33.4854 22.8212 31.6258 23.2658C31.5013 23.2954 31.3893 23.3201 31.3818 23.3201C31.3743 23.3201 31.5138 23.1818 31.6905 23.0138C32.7809 21.9715 33.2788 21.312 33.8688 20.1387C33.9509 19.9633 34.0231 19.8151 34.0306 19.8052C34.0455 19.8027 34.1302 19.8447 34.2347 19.904C35.106 20.398 35.9599 21.0353 36.6346 21.6899C36.8238 21.8751 37.2943 22.3593 37.2868 22.3617C37.2868 22.3617 37.1225 22.3766 36.9283 22.3914Z" fill="currentColor"/>
</svg>
