<svg width="151" height="50" viewBox="0 0 151 50" fill="none" xmlns="http://www.w3.org/2000/svg">
<path d="M56.1591 8.5H35.8212C32.0993 8.5 29.0803 11.4456 29.0803 15.077V34.9205C29.0803 38.5544 32.0993 41.4974 35.8212 41.4974H56.1591C59.8836 41.4974 62.8999 38.5519 62.8999 34.9205V15.077C62.9026 11.4456 59.8836 8.5 56.1591 8.5ZM55.6896 33.385C54.4332 31.0024 52.0962 31.6115 50.9107 32.2104C50.8136 32.2667 50.7113 32.3204 50.6117 32.3741C50.6012 32.3818 50.5854 32.3895 50.575 32.3946L50.5776 32.3921C48.1121 33.6691 44.8046 33.7637 41.4787 32.369C38.688 31.1995 36.3956 29.1957 34.9084 26.872C35.6664 27.4171 36.4821 27.8982 37.3529 28.2949C40.8702 29.902 44.4007 29.7869 46.9003 28.2923C43.3384 25.6257 40.3693 22.1504 38.0926 19.3328C37.6546 18.8287 37.2559 18.3015 36.9202 17.7589C39.6453 20.1927 43.9521 23.2508 45.4996 24.0979C42.221 20.7147 39.3306 16.551 39.467 16.6841C44.6315 21.7614 49.3999 24.6328 49.3999 24.6328C49.5783 24.73 49.712 24.8068 49.8196 24.8733C49.9166 24.6276 50.0058 24.3769 50.0792 24.1133C50.9028 21.1728 49.9769 17.8076 47.876 15.0309C52.668 17.8383 55.4981 23.1689 54.3388 27.6807C54.3126 27.7856 54.2811 27.888 54.2496 27.9903L54.2523 27.9929C56.6496 30.8796 55.9965 33.9685 55.6896 33.385Z" fill="currentColor"/>
<path d="M70.6584 28.8606C70.8761 30.7518 72.7252 31.993 75.2956 31.993C77.7349 31.993 79.4949 30.7518 79.4949 29.0372C79.4949 27.558 78.43 26.6546 75.975 26.0558L73.5986 25.4672C70.181 24.6406 68.6414 23.1358 68.6414 20.656C68.6414 17.5979 71.377 15.4815 75.2694 15.4815C79.0464 15.4815 81.7296 17.6107 81.8188 20.6816H79.3139C79.1198 18.8007 77.554 17.6491 75.2038 17.6491C72.88 17.6491 71.2616 18.8135 71.2616 20.5178C71.2616 21.846 72.2636 22.6368 74.7291 23.251L76.7068 23.7526C80.5336 24.6688 82.1021 26.1223 82.1021 28.7403C82.1021 32.0749 79.3926 34.1657 75.0753 34.1657C71.0675 34.1657 68.3319 32.0851 68.1273 28.8657L70.6584 28.8606ZM98.0125 33.8586H95.4946L92.5543 23.8601H92.5018L89.5747 33.8612H87.0567L83.3322 20.7661H85.7715L88.3655 31.279H88.418L91.3451 20.7661H93.7084L96.6618 31.279H96.7142L99.3083 20.7661H101.724L98.0125 33.8586ZM103.35 17.2422C103.35 16.4539 104.019 15.8142 104.827 15.8142C105.648 15.8142 106.317 16.4539 106.317 17.2422C106.317 18.0329 105.648 18.6829 104.827 18.6829C104.016 18.6829 103.35 18.0329 103.35 17.2422ZM103.607 20.7635H106.06V33.8586H103.607V20.7635ZM122.08 22.6931V20.7635H119.486V17.6311H117.047V20.7635H112.357V19.6119C112.37 18.4475 112.832 17.9587 113.936 17.9587C114.295 17.9587 114.655 17.9971 114.951 18.0457V16.1648C114.513 16.1033 114.117 16.065 113.653 16.065C111.033 16.065 109.928 17.1296 109.928 19.5735V20.7635H108.053V22.6931H109.928V33.8586H112.368V22.6931H117.044V30.4242C117.044 32.9552 118.033 33.9328 120.601 33.9328C121.154 33.9328 121.784 33.8944 122.064 33.833V31.8778C121.897 31.9034 121.409 31.9392 121.139 31.9392C119.995 31.9392 119.481 31.4121 119.481 30.2349V22.6931H122.08Z" fill="currentColor"/>
</svg>
