<svg width="150" height="50" viewBox="0 0 150 50" fill="none" xmlns="http://www.w3.org/2000/svg">
<path d="M25.0857 19.5498C25.0857 20.716 25.0857 21.7533 25.0857 22.8668C26.3129 23.5735 27.5723 24.2977 28.8564 25.0366C28.8564 26.9269 28.8564 28.7997 28.8564 30.8086C27.5985 30.0858 26.38 29.3865 25.0682 28.6315C25.0682 31.489 25.0682 34.2294 25.0682 37.0181C23.374 38.0058 21.7046 38.9817 19.9579 40C19.9579 29.9849 19.9579 20.0561 19.9579 10C24.232 12.4478 28.4711 14.8766 32.7088 17.3039C32.7088 19.5147 32.7088 21.6743 32.7088 23.9509C30.1522 22.4761 27.6627 21.0393 25.0857 19.5498Z" fill="currentColor"/>
<path d="M18.7174 39.9855C16.9663 38.9672 15.3129 38.0059 13.6377 37.03C13.6377 31.236 13.6377 25.4654 13.6377 19.5383C11.0534 21.0351 8.56536 22.4733 6 23.9569C6 21.7154 6 19.5617 6 17.2938C10.1662 14.9075 14.3936 12.4875 18.7174 10.0104C18.7174 20.0387 18.7174 29.9397 18.7174 39.9855Z" fill="currentColor"/>
<path d="M139.971 28.4871C140.523 26.1066 141.073 23.7275 141.63 21.3207C142.412 21.3207 143.155 21.3207 144 21.3207C143.006 24.9785 142.021 28.6056 141.029 32.2561C140.362 32.2561 139.737 32.2561 139.009 32.2561C138.258 29.8624 137.492 27.4249 136.727 24.9873C136.669 24.9902 136.61 24.9946 136.552 24.9975C135.805 27.4234 135.058 29.8493 134.312 32.2722C133.623 32.2722 132.994 32.2722 132.303 32.2722C131.31 28.6378 130.319 25.0034 129.313 21.3178C130.128 21.3178 130.871 21.3178 131.682 21.3178C132.253 23.7144 132.826 26.1198 133.4 28.5266C133.454 28.5281 133.508 28.5295 133.56 28.531C134.284 26.1285 135.008 23.7246 135.735 21.3119C136.364 21.3119 136.94 21.3119 137.578 21.3119C138.302 23.7085 139.025 26.1007 139.749 28.4929C139.824 28.49 139.896 28.4886 139.971 28.4871Z" fill="currentColor"/>
<path d="M105.868 32.2514C104.964 32.2514 104.174 32.2514 103.347 32.2514C103.347 27.328 103.347 22.4426 103.347 17.5177C106.455 17.5177 109.528 17.5177 112.642 17.5177C112.642 18.1703 112.642 18.7936 112.642 19.5149C110.408 19.5149 108.165 19.5149 105.883 19.5149C105.883 21.0365 105.883 22.4631 105.883 23.954C107.854 23.954 109.789 23.954 111.767 23.954C111.767 24.6402 111.767 25.2621 111.767 25.9775C109.832 25.9775 107.879 25.9775 105.868 25.9775C105.868 28.1079 105.868 30.146 105.868 32.2514Z" fill="currentColor"/>
<path d="M61.1232 27.574C58.7199 27.574 56.3967 27.574 54.0809 27.574C53.9846 28.6596 54.5683 29.7043 55.511 30.2076C56.7499 30.869 58.0282 30.5793 59.7121 29.2361C60.1091 29.6151 60.5104 29.9969 60.9525 30.4183C60.1558 31.6122 59.0278 32.2063 57.6896 32.4169C54.2502 32.9598 51.6381 30.8031 51.4951 27.3194C51.4396 25.985 51.6235 24.6945 52.2991 23.5109C53.3323 21.701 55.2629 20.8012 57.3803 21.145C59.3298 21.4625 60.6052 22.7837 61.0021 24.9213C61.1583 25.7612 61.1845 26.6098 61.1232 27.574ZM58.7053 25.7407C58.7038 23.9601 57.8472 23.0119 56.3617 23.0558C55.0382 23.0939 54.0123 24.3039 54.1057 25.7407C55.6248 25.7407 57.1453 25.7407 58.7053 25.7407Z" fill="currentColor"/>
<path d="M63.0933 21.3042C63.855 21.3042 64.5554 21.3042 65.2442 21.3042C65.5156 21.6232 65.2807 22.0358 65.5229 22.4132C66.451 21.4783 67.5527 21.0364 68.8617 21.0891C70.5632 21.1564 71.6474 22.0299 71.9772 23.7037C72.0662 24.1558 72.1129 24.6226 72.1143 25.082C72.1275 27.4449 72.1202 29.8094 72.1202 32.2323C71.3103 32.2323 70.5238 32.2323 69.6686 32.2323C69.6686 31.1949 69.6686 30.1503 69.6686 29.1056C69.6686 27.7156 69.6905 26.3271 69.6599 24.9371C69.6307 23.6467 68.9492 23.0658 67.6505 23.079C66.5181 23.0921 65.4237 24.0607 65.4718 25.063C65.5754 27.2035 65.5039 29.3514 65.5039 31.4963C65.5039 31.7363 65.5039 31.9748 65.5039 32.2513C64.6678 32.2513 63.9031 32.2513 63.0918 32.2513C63.0933 28.6184 63.0933 24.9971 63.0933 21.3042Z" fill="currentColor"/>
<path d="M123.607 32.458C121.078 32.4551 119.257 31.0051 118.711 28.528C118.408 27.1483 118.424 25.7671 118.888 24.421C119.658 22.1853 121.471 21.009 123.966 21.0953C126.142 21.1714 127.903 22.6111 128.471 24.7985C128.8 26.07 128.821 27.3517 128.504 28.6275C127.893 31.1002 126.143 32.4624 123.607 32.458ZM126.302 26.844C126.296 25.9631 126.203 25.1643 125.819 24.4371C125.336 23.5197 124.595 23.0223 123.525 23.0515C122.479 23.0808 121.757 23.6119 121.385 24.5395C120.792 26.0173 120.772 27.5433 121.36 29.0299C121.757 30.0321 122.571 30.553 123.643 30.5486C124.688 30.5457 125.437 30.0146 125.869 29.0547C126.194 28.3305 126.28 27.558 126.302 26.844Z" fill="currentColor"/>
<path d="M94.0425 26.8335C94.0469 27.5168 93.9827 28.1928 93.7901 28.8541C93.0926 31.2448 91.3385 32.4929 88.7104 32.4592C86.4398 32.43 84.6843 31.0268 84.0977 28.7283C83.7023 27.1803 83.73 25.6337 84.3341 24.1384C85.1863 22.0301 86.9608 20.9795 89.3875 21.101C91.4567 21.2049 93.1247 22.5451 93.7565 24.5978C93.9813 25.3279 94.0469 26.0756 94.0425 26.8335ZM91.6173 26.8072C91.6348 25.5986 91.41 24.7266 90.9022 24.0302C89.8953 22.6504 87.7969 22.6504 86.9579 24.134C85.9991 25.8269 85.9495 27.6616 86.9024 29.372C87.8451 31.0649 90.2237 30.9347 91.1255 29.2169C91.5224 28.4634 91.6114 27.6426 91.6173 26.8072Z" fill="currentColor"/>
<path d="M82.4109 24.525C81.6433 24.525 80.8743 24.525 80.1052 24.525C79.6237 23.0955 78.4563 22.5263 77.1459 23.0809C76.6132 23.3062 76.2543 23.6793 76.2441 24.2894C76.2338 24.8951 76.6147 25.2346 77.1327 25.3999C77.8492 25.6296 78.5803 25.8111 79.307 26.0057C80.0133 26.1959 80.705 26.4256 81.3179 26.8382C82.7801 27.8229 82.9975 29.8888 81.7805 31.1705C79.9856 33.0594 75.8982 32.9116 74.258 30.8954C73.8013 30.3336 73.5211 29.7001 73.5036 28.9027C74.2638 28.9027 75.0037 28.9027 75.761 28.9027C76.5067 30.4419 77.3166 30.8984 78.8663 30.597C79.5347 30.4682 80.0731 30.1478 80.1446 29.3972C80.2132 28.6729 79.7755 28.2677 79.1407 28.0599C78.6343 27.8931 78.1177 27.7585 77.5997 27.6283C76.7023 27.4015 75.8107 27.1615 75.0445 26.6085C73.6758 25.6194 73.4613 23.7949 74.5615 22.5073C76.212 20.5731 80.1534 20.5979 81.7717 22.5541C82.262 23.1438 82.4561 23.7276 82.4109 24.525Z" fill="currentColor"/>
<path d="M49.102 32.2601C48.2016 32.2601 47.4297 32.2601 46.5716 32.2601C46.5716 28.0595 46.5716 23.8574 46.5716 19.5499C45.0015 19.5499 43.513 19.5499 42.0056 19.5499C42.0056 18.8169 42.0056 18.1907 42.0056 17.5205C45.8843 17.5205 49.7382 17.5205 53.6388 17.5205C53.6388 18.1555 53.6388 18.7788 53.6388 19.487C52.1649 19.487 50.6721 19.487 49.102 19.487C49.102 23.771 49.102 27.9746 49.102 32.2601Z" fill="currentColor"/>
<path d="M114.258 32.2252C114.258 27.293 114.258 22.4266 114.258 17.5032C115.06 17.5032 115.842 17.5032 116.649 17.5032C116.649 22.4222 116.649 27.3325 116.649 32.2252C115.828 32.2252 115.044 32.2252 114.258 32.2252Z" fill="currentColor"/>
<path d="M95.7951 21.3162C96.5699 21.3162 97.2908 21.3162 98.0482 21.3162C98.0846 21.6439 98.1197 21.941 98.1707 22.4018C99.0755 21.2943 100.112 20.8787 101.439 21.1948C101.439 21.9453 101.439 22.6857 101.439 23.4699C100.865 23.4875 100.287 23.3895 99.7176 23.5226C98.7034 23.7596 98.1912 24.3844 98.1912 25.4261C98.1897 27.4467 98.1912 29.4673 98.1912 31.4893C98.1912 31.7278 98.1912 31.9678 98.1912 32.2502C97.3652 32.2502 96.6006 32.2502 95.7965 32.2502C95.7951 28.6216 95.7951 25.0018 95.7951 21.3162Z" fill="currentColor"/>
</svg>
