<svg width="150" height="50" viewBox="0 0 150 50" fill="none" xmlns="http://www.w3.org/2000/svg">
<path d="M64.9363 24.7948C64.9363 21.4479 64.9363 18.0962 64.9363 14.7492C64.9363 14.3536 65.2363 14.0603 65.6553 14.0603C68.5457 14.065 71.4408 14.037 74.3312 14.0882C75.4216 14.1069 76.5311 14.2139 77.5835 14.4699C79.0977 14.833 80.1072 15.8804 80.7167 17.263C81.3548 18.72 81.5262 20.2282 81.1214 21.797C80.6214 23.7428 79.431 25.0416 77.5073 25.7165C76.8073 25.9633 76.6644 26.4893 77.2073 26.9641C78.7406 28.3001 79.6644 30.0457 80.6786 31.7402C81.2167 32.6433 81.7833 33.537 82.2881 34.4634C82.4119 34.6868 82.4118 35.0546 82.3118 35.292C82.2404 35.4502 81.8881 35.5527 81.6595 35.562C80.65 35.5899 79.6358 35.5666 78.6263 35.5759C78.2882 35.5806 78.0501 35.4642 77.8692 35.1803C76.8263 33.5091 75.7978 31.8286 74.7264 30.1761C74.1312 29.2544 73.4931 28.356 72.8122 27.4948C72.3646 26.9269 71.6884 26.6801 70.9504 26.6569C70.517 26.6429 70.079 26.6382 69.6456 26.6429C69.1838 26.6476 68.9552 26.885 68.9552 27.3458C68.9647 29.7804 68.9742 32.215 68.9933 34.6449C68.998 35.3246 68.7647 35.5666 68.0742 35.5666C67.3028 35.5666 66.5314 35.5666 65.76 35.5666C65.2077 35.5666 64.9458 35.2966 64.9458 34.7706C64.9363 31.4469 64.9363 28.1232 64.9363 24.7948ZM71.9837 23.1935V23.1795C72.7455 23.1795 73.5121 23.2447 74.2645 23.1609C74.8835 23.0911 75.5597 22.9608 76.0692 22.6396C77.3739 21.8063 77.4644 20.34 76.9692 19.0877C76.674 18.3476 76.0835 17.8123 75.2026 17.7843C73.3932 17.7285 71.5789 17.6959 69.7647 17.668C69.1457 17.6587 68.8361 18.0404 68.9218 18.6409C68.9599 18.9109 68.979 19.1902 68.979 19.4648C68.9742 20.4005 68.96 21.3315 68.9504 22.2672C68.9457 22.8909 69.26 23.1935 69.898 23.1935C70.5932 23.1935 71.2885 23.1935 71.9837 23.1935Z" fill="currentColor"/>
<path d="M94.5068 35.5289C94.1068 35.5289 93.6972 35.5708 93.302 35.5103C93.0973 35.4777 92.8449 35.3101 92.7497 35.1333C92.5878 34.8307 92.5402 34.4722 92.4354 34.1371C92.4069 34.0533 92.3545 33.9369 92.2878 33.9183C92.2259 33.8997 92.1164 33.9788 92.0545 34.0393C90.6164 35.5336 88.8308 36.1574 86.7881 35.8082C84.5596 35.4265 83.0739 33.76 83.012 31.5023C82.9692 29.9988 83.4263 28.7093 84.6405 27.755C85.4738 27.0987 86.4929 26.8194 87.5166 26.568C88.8689 26.2375 90.2213 25.893 91.5641 25.5346C91.8974 25.4461 92.0735 25.1948 92.0783 24.841C92.0973 23.6074 91.5069 22.9045 90.2546 22.7415C89.3642 22.6252 88.4547 22.5786 87.7356 23.2536C87.4833 23.491 87.2976 23.7982 87.1071 24.0915C86.7595 24.6222 86.5976 24.7106 85.9881 24.5849C85.4595 24.4779 84.9358 24.3568 84.412 24.2218C83.5454 23.9937 83.3977 23.6772 83.7834 22.8859C84.2929 21.8478 84.9358 20.9028 86.0119 20.3489C86.4548 20.1208 86.9404 19.9253 87.4309 19.8368C89.1022 19.5249 90.7974 19.5249 92.445 19.8927C94.0354 20.2464 95.2829 21.1635 95.5544 22.7741C95.7496 23.9379 95.7353 25.1389 95.7638 26.3259C95.821 28.565 95.8162 30.8041 95.8924 33.0431C95.9115 33.5692 96.14 34.0905 96.2781 34.6072C96.4305 35.1845 96.221 35.487 95.6115 35.5196C95.2448 35.5476 94.8734 35.5289 94.5068 35.5289ZM92.0688 29.482C92.0688 29.3098 92.0783 29.1422 92.0688 28.9746C92.0307 28.4253 91.6069 28.16 91.0736 28.3323C90.7879 28.4254 90.4927 28.5091 90.1974 28.565C89.2689 28.7326 88.3642 28.9653 87.5356 29.4262C87.4594 29.4681 87.3785 29.51 87.3261 29.5751C86.7643 30.2268 86.6119 30.967 86.9642 31.7397C87.3071 32.4892 87.9261 32.964 88.7832 33.0664C89.7593 33.1828 91.326 32.3775 91.6736 31.4511C91.8974 30.8227 92.1116 29.4914 92.0688 29.482Z" fill="currentColor"/>
<path d="M35.5903 28.4308C34.0238 28.4308 32.462 28.4308 30.8954 28.4308C30.4621 28.4308 30.105 28.738 30.1859 29.1105C30.4097 30.1299 30.5716 31.182 31.2716 32.0385C31.8763 32.7787 32.581 33.3792 33.5333 33.6817C35.1761 34.2031 37.3664 33.2162 38.0092 31.6428C38.0378 31.573 38.0712 31.5078 38.1045 31.438C38.5616 30.4884 38.7092 30.5815 39.3806 30.7165C39.8044 30.8003 40.2377 30.884 40.6329 31.0423C40.7519 31.0889 40.8567 31.4333 40.7996 31.5823C40.0949 33.5002 38.8997 34.934 36.8331 35.6043C35.1475 36.1489 33.5047 36.0139 31.8906 35.474C30.9858 35.1714 30.2288 34.5848 29.5812 33.8679C27.9432 32.0618 27.6146 29.8692 27.6289 27.5836C27.6385 25.9962 27.9575 24.46 28.7051 23.0449C29.4241 21.681 30.5097 20.6522 31.9763 20.0796C33.0381 19.6653 34.1619 19.5955 35.2999 19.7398C38.1711 20.0982 39.8091 21.8253 40.5948 24.3995C40.8996 25.4004 40.9805 26.4757 41.1138 27.5231C41.1948 28.1562 40.8853 28.4448 40.2234 28.4448C38.6806 28.4494 37.1379 28.4448 35.5903 28.4448V28.4308ZM34.3619 26.3314V26.3407C35.4142 26.3407 36.4665 26.336 37.5188 26.3407C38.195 26.3453 38.5521 25.9962 38.4378 25.3492C38.3664 24.9255 38.2425 24.5019 38.0664 24.1109C37.5378 22.9239 36.6617 22.1232 35.3237 21.8765C34.1809 21.667 33.1048 21.802 32.162 22.5282C31.2573 23.2264 30.6573 24.1109 30.4049 25.2328C30.243 25.945 30.5192 26.336 31.262 26.3314C32.3001 26.3267 33.3286 26.3314 34.3619 26.3314Z" fill="currentColor"/>
<path d="M49.1275 35.9992C47.7085 35.8921 46.3609 35.692 45.1848 34.8866C44.2086 34.2163 43.5896 33.29 43.261 32.1727C43.2087 32.0005 43.142 31.8329 43.0753 31.6653C42.8896 31.2184 43.023 30.9438 43.5087 30.846C43.8991 30.7669 44.2991 30.6971 44.6991 30.6692C45.0419 30.6459 45.3229 30.7995 45.4133 31.1486C45.8324 32.6988 46.8228 33.6158 48.4846 33.7508C49.3656 33.8206 50.2465 33.8346 51.0607 33.425C52.075 32.9176 52.775 31.8236 52.3941 30.6878C52.175 30.0314 51.6464 29.6543 50.9988 29.4542C49.6989 29.0585 48.3847 28.7001 47.0847 28.2951C46.0276 27.9646 44.9895 27.5922 44.2562 26.7077C43.4277 25.7069 43.1468 24.5477 43.3991 23.3048C43.6515 22.034 44.3324 21.0052 45.5086 20.3489C46.3514 19.8787 47.299 19.6786 48.2465 19.6413C49.0846 19.6134 49.937 19.7111 50.7703 19.8322C52.4655 20.0742 54.0654 21.6709 54.3273 23.3142C54.3844 23.6633 54.1368 23.9659 53.7464 24.031C53.4273 24.0869 53.1035 24.1288 52.7845 24.2033C52.375 24.2964 52.1083 24.1567 51.9607 23.7797C51.7179 23.1652 51.3846 22.6206 50.7941 22.2528C49.9322 21.7175 48.9846 21.778 48.0275 21.8385C47.2942 21.8851 46.6085 22.0387 46.1181 22.6299C45.28 23.6354 45.4277 24.6222 46.6324 25.2832C47.499 25.7581 48.537 25.935 49.4941 26.2562C50.6274 26.6379 51.8036 26.9358 52.8702 27.4478C54.9511 28.4487 55.5368 30.711 54.6606 32.7732C54.0226 34.2861 52.8369 35.2125 51.2084 35.5802C50.5227 35.7339 49.8227 35.8596 49.1275 35.9992Z" fill="currentColor"/>
<path d="M21.672 26.1312C21.672 23.1985 21.672 20.2658 21.672 17.3331C21.672 16.7559 21.4053 16.5092 20.8149 16.5092C19.0864 16.5092 17.3579 16.5138 15.6294 16.5092C15.139 16.5092 14.9866 16.3463 15.0009 15.8807C15.0104 15.4897 15.0104 15.094 15.0057 14.703C15.0009 14.2189 15.1676 14.0467 15.658 14.0467C20.3435 14.0513 25.029 14.056 29.7145 14.056C29.8669 14.056 30.0192 14.0513 30.1716 14.0327C30.6859 13.9675 30.9573 14.1863 30.9668 14.6937C30.9763 15.0987 30.9716 15.5037 30.962 15.904C30.9525 16.3556 30.7811 16.5138 30.3192 16.5138C28.5384 16.5138 26.7527 16.5138 24.9718 16.5092C24.529 16.5092 24.2386 16.7792 24.2386 17.2168C24.2481 22.733 24.2576 28.2492 24.2719 33.7608C24.2719 34.1751 24.2766 34.5894 24.2719 35.0037C24.2623 35.3855 24.0719 35.5903 23.6577 35.5763C23.2101 35.5624 22.7672 35.5763 22.3196 35.5717C21.791 35.5717 21.672 35.4506 21.672 34.9293C21.672 31.9966 21.672 29.0639 21.672 26.1312Z" fill="currentColor"/>
<path d="M106.302 24.8177C106.302 21.4707 106.302 18.1191 106.302 14.7721C106.302 14.2135 106.559 14.0133 107.145 14.0273C107.892 14.0459 108.645 14.0273 109.392 14.004C109.807 13.9901 110.169 14.3159 110.169 14.7628C110.169 17.6955 110.164 20.6328 110.164 23.5655C110.164 27.2849 110.164 31.0089 110.169 34.7283C110.169 35.3427 109.935 35.5708 109.302 35.5708C108.564 35.5708 107.821 35.5708 107.083 35.5708C106.507 35.5708 106.302 35.366 106.302 34.7981C106.297 31.4744 106.297 28.146 106.302 24.8177Z" fill="currentColor"/>
<path d="M57.6128 27.5645C57.6128 25.9725 57.6128 24.3758 57.6128 22.7838C57.6128 22.2066 57.3081 21.9366 56.7081 21.9831C56.0795 22.0343 55.851 21.8435 55.8176 21.2337C55.8129 21.1825 55.8129 21.1266 55.8129 21.0754C55.7891 20.0885 55.8414 20.0326 56.8414 19.9908C57.389 19.9675 57.6271 19.7208 57.6224 19.1854C57.6128 18.3335 57.6128 17.4863 57.5938 16.6345C57.5842 16.2295 57.7986 15.9874 58.1128 15.7779C58.6414 15.4288 59.1557 15.0657 59.6842 14.7119C59.7556 14.6654 59.9176 14.6235 59.9414 14.6561C60.008 14.7399 60.0556 14.8609 60.0556 14.9679C60.0652 16.0852 60.0604 17.1977 60.0604 18.3149C60.0604 18.6222 60.0604 18.9294 60.0604 19.2413C60.0604 19.744 60.2794 19.9721 60.808 19.9861C61.1556 19.9954 61.5032 19.9768 61.8509 19.9814C62.3889 19.9908 62.5794 20.1909 62.5651 20.703C62.5604 20.9031 62.5651 21.108 62.5651 21.3081C62.5699 21.7969 62.4223 21.9598 61.9175 21.9785C61.5604 21.9924 61.1985 21.9738 60.8414 21.9645C60.3461 21.9505 60.0604 22.2066 60.0604 22.6814C60.0604 25.7537 60.089 28.8261 60.0413 31.8937C60.0271 32.7689 60.6699 33.4951 61.6461 33.4066C62.5318 33.3228 62.6461 33.4718 62.7508 34.3609C62.7508 34.3702 62.7556 34.3842 62.7556 34.3935C62.9032 35.5293 62.8842 35.5992 61.7223 35.7854C60.4937 35.9809 58.689 35.6504 58.1176 34.4028C57.8271 33.7744 57.7176 33.0435 57.6462 32.3499C57.5653 31.5586 57.6176 30.7579 57.6176 29.9619C57.6176 29.1659 57.6176 28.3699 57.6176 27.5692C57.6081 27.5645 57.6128 27.5645 57.6128 27.5645Z" fill="currentColor"/>
<path d="M102.94 27.787C102.94 30.0959 102.94 32.4002 102.94 34.7091C102.94 35.2956 102.663 35.5749 102.073 35.5749C101.354 35.5749 100.64 35.5749 99.9208 35.5749C99.3303 35.5749 99.0637 35.3189 99.0637 34.7463C99.0685 33.4615 99.0732 32.1721 99.0732 30.8873C99.0732 27.5403 99.0732 24.1886 99.0732 20.8417C99.0732 20.2458 99.3351 19.9898 99.9493 19.9851C100.645 19.9851 101.34 19.9851 102.035 19.9851C102.654 19.9898 102.93 20.2644 102.93 20.8649C102.93 23.1739 102.93 25.4781 102.93 27.787H102.94Z" fill="currentColor"/>
<path d="M99.0641 15.8938C99.0641 15.5353 99.0689 15.1722 99.0641 14.8138C99.0546 14.3111 99.426 14.0038 99.9355 14.0224C100.626 14.0504 101.321 14.0504 102.016 14.0178C102.497 13.9945 102.926 14.3017 102.936 14.7766C102.945 15.54 102.95 16.3034 102.94 17.0668C102.936 17.523 102.593 17.8349 102.126 17.8349C101.369 17.8349 100.607 17.8349 99.8498 17.8349C99.3403 17.8349 99.0689 17.5696 99.0641 17.0715C99.0641 16.8713 99.0736 16.6665 99.0736 16.4663C99.0736 16.2755 99.0736 16.0846 99.0736 15.8938H99.0641Z" fill="currentColor"/>
<path d="M118.92 19.8607H114.668C114.187 19.8607 113.796 19.479 113.796 19.0088V14.8519C113.796 14.3817 114.187 14 114.668 14H118.92C119.401 14 119.791 14.3817 119.791 14.8519V19.0088C119.791 19.4837 119.401 19.8607 118.92 19.8607Z" fill="currentColor"/>
<path d="M118.92 27.9331H114.668C114.187 27.9331 113.796 27.5514 113.796 27.0812V22.9242C113.796 22.4541 114.187 22.0724 114.668 22.0724H118.92C119.401 22.0724 119.791 22.4541 119.791 22.9242V27.0812C119.791 27.5514 119.401 27.9331 118.92 27.9331Z" fill="currentColor"/>
<path d="M118.92 36H114.668C114.187 36 113.796 35.6183 113.796 35.1481V30.9912C113.796 30.521 114.187 30.1393 114.668 30.1393H118.92C119.401 30.1393 119.791 30.521 119.791 30.9912V35.1481C119.791 35.6183 119.401 36 118.92 36Z" fill="currentColor"/>
<path d="M127.053 27.9331H122.801C122.32 27.9331 121.929 27.5514 121.929 27.0812V22.9242C121.929 22.4541 122.32 22.0724 122.801 22.0724H127.053C127.534 22.0724 127.924 22.4541 127.924 22.9242V27.0812C127.924 27.5514 127.534 27.9331 127.053 27.9331Z" fill="currentColor"/>
<path d="M127.053 36H122.801C122.32 36 121.929 35.6183 121.929 35.1481V30.9912C121.929 30.521 122.32 30.1393 122.801 30.1393H127.053C127.534 30.1393 127.924 30.521 127.924 30.9912V35.1481C127.924 35.6183 127.534 36 127.053 36Z" fill="currentColor"/>
<path d="M135.129 36H130.876C130.396 36 130.005 35.6183 130.005 35.1481V30.9912C130.005 30.521 130.396 30.1393 130.876 30.1393H135.129C135.61 30.1393 136 30.521 136 30.9912V35.1481C136 35.6183 135.61 36 135.129 36Z" fill="currentColor"/>
</svg>
