<svg width="100" height="100" viewBox="0 0 100 100" fill="none" xmlns="http://www.w3.org/2000/svg">
<path d="M71.4332 36.7161C69.8362 37.4176 68.1347 37.8803 66.3735 38.1041C68.1944 37.0146 69.5825 35.3131 70.2392 33.2534C68.5377 34.2683 66.672 34.9847 64.672 35.3728C63.0601 33.6564 60.7616 32.5967 58.2541 32.5967C53.3885 32.5967 49.478 36.5519 49.478 41.3877C49.478 42.0892 49.5377 42.7609 49.687 43.3877C42.3885 43.0295 35.9258 39.537 31.5825 34.1937C30.8213 35.5071 30.3735 37.0146 30.3735 38.6415C30.3735 41.6862 31.9407 44.3877 34.269 45.94C32.8511 45.9101 31.478 45.5071 30.2989 44.8504C30.2989 44.8803 30.2989 44.9101 30.2989 44.94C30.2989 49.2086 33.3437 52.7609 37.3437 53.5668C36.6272 53.7609 35.8512 53.8504 35.0452 53.8504C34.478 53.8504 33.9108 53.8206 33.3884 53.7012C34.5228 57.1788 37.7616 59.7459 41.5974 59.8206C38.6123 62.1638 34.8064 63.5668 30.7019 63.5668C29.9855 63.5668 29.284 63.537 28.5974 63.4474C32.4929 65.9549 37.1049 67.3877 42.075 67.3877C58.2392 67.3877 67.075 53.9997 67.075 42.3877C67.075 41.9997 67.0601 41.6265 67.0452 41.2534C68.7766 40.0295 70.2392 38.4922 71.4332 36.7161Z" fill="currentColor"/>
</svg>
