<svg width="151" height="50" viewBox="0 0 151 50" fill="none" xmlns="http://www.w3.org/2000/svg">
<path d="M77.7667 31.1329C77.9307 30.9356 77.9575 30.6882 78.0231 30.4614C79.1772 26.606 80.3253 22.7476 81.4764 18.8893C81.7 18.1412 82.198 17.9527 82.872 18.3415C83.2328 18.5476 83.37 18.8274 83.2418 19.2457C81.7955 23.9022 80.3581 28.5617 78.9118 33.2182C78.7448 33.7572 78.2945 34.034 77.6891 34.0193C77.0867 34.0046 76.7259 33.7336 76.538 33.1328C75.2826 29.1183 74.0301 25.1039 72.7776 21.0894C72.5838 20.465 72.384 19.8406 72.1961 19.2133C72.0411 18.7008 72.2319 18.4239 72.8582 18.2295C73.3919 18.0646 73.7677 18.2207 73.9257 18.7155C74.2329 19.6816 74.5192 20.6565 74.8114 21.6284C75.7239 24.668 76.6365 27.7075 77.5519 30.7471C77.5848 30.8826 77.5818 31.0445 77.7667 31.1329Z" fill="currentColor"/>
<path d="M96.7655 29.3481C96.4822 30.6293 97.0429 31.7692 98.2357 32.2433C99.3808 32.6969 100.526 32.6969 101.626 32.0755C101.784 31.9871 101.945 31.9017 102.106 31.8192C102.44 31.6455 102.715 31.7309 102.935 32.0166C103.156 32.3023 103.234 32.5968 102.971 32.906C102.652 33.2801 102.238 33.5246 101.784 33.6807C100.255 34.2079 98.7307 34.2049 97.2427 33.5275C95.7576 32.8471 94.9614 31.6749 94.8689 30.0668C94.8212 29.2185 94.8182 28.3673 94.86 27.5191C94.9644 25.4103 96.7059 23.7255 98.8918 23.5753C100.988 23.434 102.882 24.7976 103.296 26.7592C103.338 26.9506 103.359 27.148 103.365 27.3424C103.419 28.7885 102.915 29.3128 101.444 29.3098C100.088 29.3069 98.7337 29.2774 97.3769 29.2627C97.183 29.2598 96.9802 29.2244 96.7655 29.3481ZM96.691 28.0551C98.2327 28.0551 99.7148 28.0699 101.197 28.0434C101.591 28.0375 101.683 27.7017 101.668 27.36C101.626 26.3763 101.161 25.6312 100.272 25.2129C99.3331 24.7711 98.3997 24.8565 97.5677 25.4986C96.7387 26.1377 96.5508 27.0096 96.691 28.0551Z" fill="currentColor"/>
<path d="M92.7486 27.3333C92.7486 28.1845 92.7575 29.0328 92.7456 29.884C92.7128 32.0812 90.8729 33.9514 88.6631 34.0486C86.4206 34.1488 84.3839 32.4964 84.193 30.3051C84.023 28.3671 84.1423 26.4173 84.1453 24.4734C84.1453 24.0022 84.5449 23.6929 85.0518 23.6959C85.5677 23.6988 85.9465 24.0287 85.9524 24.5412C85.9673 25.7664 85.9584 26.9917 85.9614 28.2169C85.9614 28.7736 85.9554 29.3273 85.9644 29.884C85.9882 31.3124 87.1214 32.4758 88.4753 32.467C89.7904 32.4552 90.9355 31.2889 90.9564 29.8869C90.9802 28.1374 90.9593 26.3908 90.9653 24.6413C90.9653 23.9374 91.4544 23.5604 92.1313 23.7283C92.5577 23.8343 92.7635 24.0935 92.7575 24.5412C92.7396 25.469 92.7486 26.3997 92.7486 27.3333Z" fill="currentColor"/>
<path d="M113.614 31.6278C113.963 31.6543 114.184 31.8693 114.428 32.0284C115.424 32.6763 116.507 32.7352 117.622 32.4672C118.111 32.3494 118.502 32.0549 118.591 31.5247C118.684 30.971 118.532 30.485 118.075 30.1228C117.709 29.8312 117.27 29.6751 116.832 29.5308C116.173 29.3128 115.496 29.1508 114.858 28.874C112.562 27.8784 113.137 25.0922 114.497 24.1998C115.767 23.3662 118.257 23.3368 119.525 24.1792C119.892 24.4236 120.044 24.7093 119.811 25.1305C119.569 25.5693 119.307 25.6871 118.836 25.4751C118.132 25.157 117.413 24.9479 116.629 25.0068C116.209 25.0392 115.812 25.1364 115.472 25.3956C114.649 26.02 114.733 27.0832 115.639 27.5662C116.08 27.8019 116.561 27.9226 117.038 28.0611C117.658 28.2378 118.275 28.4174 118.845 28.7355C119.901 29.3275 120.318 30.2671 120.243 31.4069C120.172 32.5114 119.575 33.3243 118.514 33.7131C116.96 34.2815 115.424 34.1519 113.945 33.4333C113.743 33.3331 113.555 33.1829 113.391 33.0268C112.875 32.5291 112.958 32.0078 113.614 31.6278Z" fill="currentColor"/>
<path d="M111.088 30.1287C111.047 31.6337 111.16 33.5305 111.032 35.4243C110.981 36.1488 110.823 36.8439 110.456 37.486C109.976 38.3284 109.195 38.6995 108.27 38.832C108.142 38.8497 108.005 38.8409 107.877 38.8173C107.438 38.7289 107.137 38.3873 107.167 37.9985C107.2 37.5626 107.459 37.3329 107.889 37.2504C108.819 37.0737 109.081 36.8115 109.204 35.8779C109.257 35.4596 109.251 35.0296 109.251 34.6055C109.254 31.2891 109.251 27.9727 109.254 24.6563C109.254 23.8935 109.833 23.4988 110.549 23.755C110.981 23.9082 111.091 24.2322 111.091 24.6445C111.085 26.3439 111.088 28.0434 111.088 30.1287Z" fill="currentColor"/>
<path d="M106.073 31.7838C106.684 31.7927 107.158 32.2698 107.161 32.8795C107.164 33.5245 106.69 33.984 106.037 33.9751C105.399 33.9663 104.925 33.4744 104.945 32.8412C104.963 32.2462 105.467 31.775 106.073 31.7838Z" fill="currentColor"/>
<path d="M110.176 18.8599C110.754 18.8687 111.237 19.334 111.229 19.8701C111.22 20.4061 110.725 20.8686 110.155 20.8715C109.541 20.8744 109.019 20.3678 109.043 19.8024C109.07 19.284 109.591 18.8481 110.176 18.8599Z" fill="currentColor"/>
<path d="M62.6475 11.7801L50.412 32.5945L38.0662 11.7889C35.7073 11.7889 33.3426 11.7889 30.9092 11.7889C37.4131 22.9162 43.8812 33.9876 50.4001 45.1415C56.9159 33.9935 63.39 22.9162 69.8969 11.7801C67.4218 11.7801 65.0331 11.7801 62.6475 11.7801Z" fill="currentColor"/>
<path d="M54.8552 11.7793C53.3791 14.3005 51.9149 16.801 50.403 19.387C48.8672 16.7716 47.406 14.271 45.9298 11.7498C45.3275 11.7498 44.7519 11.7469 44.1734 11.7498C42.5213 11.7616 40.8693 11.7734 39.2172 11.7852L50.4089 30.6469L61.4993 11.7793C59.2896 11.7793 57.0828 11.7793 54.8552 11.7793Z" fill="currentColor"/>
</svg>
