<svg width="150" height="50" viewBox="0 0 150 50" fill="none" xmlns="http://www.w3.org/2000/svg">
<path d="M31.0526 33.1666C29.8621 34.3673 28.7668 35.4714 27.6415 36.6059C26.0048 34.9292 24.3169 33.2006 22.6202 31.4631C20.8441 33.274 19.1526 34.9972 17.4806 36.7008C16.3218 35.5108 15.2389 34.396 14.1418 33.2704C15.7804 31.6277 17.4824 29.9188 19.2038 28.192C17.3695 26.3757 15.6551 24.6793 14.0007 23.042C15.2248 21.8019 16.3183 20.6942 17.3836 19.6134C18.9745 21.2328 20.6624 22.9525 22.3679 24.6918C24.2022 22.8201 25.9095 21.0789 27.5939 19.3593C28.795 20.594 29.878 21.707 30.9362 22.795C29.2871 24.4574 27.5851 26.1735 25.8566 27.9182C27.6698 29.7506 29.3806 31.4792 31.0526 33.1666ZM28.1618 21.75C26.1988 23.7542 24.3398 25.6545 22.4085 27.6247C20.5583 25.7315 18.7011 23.8293 16.8457 21.9289C16.6728 22.0202 16.5529 22.1365 16.5211 22.5624C18.2849 24.3339 20.1562 26.2129 22.0928 28.1598C20.2356 30.0208 18.3589 31.8979 16.4576 33.8037C16.6023 33.9576 16.7169 34.081 16.8915 34.2671C18.7858 32.3435 20.6483 30.452 22.6431 28.4264C24.5091 30.3626 26.3681 32.2898 28.2236 34.2152C28.4035 34.0435 28.5869 33.9683 28.6892 33.5854C26.8214 31.7082 24.9536 29.8329 22.98 27.8502C24.8054 26.0071 26.6679 24.1228 28.5887 22.183C28.5022 22.0971 28.4035 21.9951 28.1618 21.75Z" fill="currentColor"/>
<path d="M51.5897 13.0014C51.5897 17.0795 51.5915 21.0073 51.588 24.9352C51.5862 26.7479 51.6832 28.5695 51.2476 30.3536C49.99 35.5 45.7094 37.3629 41.323 36.7992C36.6402 36.1979 33.8888 32.9662 33.7865 27.9182C33.6895 23.0974 33.7653 18.2713 33.7689 13.4487C33.7689 13.336 33.8006 13.2233 33.8235 13.064C34.425 13.064 35.0017 13.064 35.5961 13.064C35.8271 13.3378 35.7125 13.6796 35.7143 13.9927C35.7425 18.6668 35.7054 23.3408 35.7972 28.0112C35.8624 31.4183 37.7161 33.9736 40.4605 34.7377C45.3179 36.0888 49.3745 33.1934 49.5314 28.0792C49.6725 23.4982 49.5738 18.9101 49.5808 14.3256C49.5808 13.939 49.5808 13.5543 49.5808 13.1374C50.2263 12.8851 50.8578 13.0747 51.5897 13.0014Z" fill="currentColor"/>
<path d="M113.203 28.1937C113.328 30.2802 113.751 32.0768 115.088 33.5853C117.206 35.9742 122.238 35.7612 123.346 31.905C123.378 31.7922 123.445 31.6902 123.499 31.5704C124.055 31.5704 124.607 31.5704 125.265 31.5704C124.898 33.6354 123.873 35.1653 122.087 36.1173C118.217 38.1788 113.554 36.2998 112 32.0159C110.989 29.2298 111.035 26.4042 112.155 23.6503C113.589 20.1269 117.15 18.3804 120.748 19.429C123.535 20.2414 124.803 22.3869 125.355 25.0872C125.558 26.0803 125.621 27.0914 125.515 28.1955C121.452 28.1937 117.383 28.1937 113.203 28.1937ZM123.584 26.6261C123.554 23.1761 121.462 20.8176 118.628 20.8892C115.007 20.9804 113.344 24.3875 113.428 26.6261C116.797 26.6261 120.168 26.6261 123.584 26.6261Z" fill="currentColor"/>
<path d="M57.7503 22.0755C58.9426 20.6583 60.1349 19.7063 61.7117 19.3377C65.6731 18.409 68.8531 20.7907 68.9378 24.8867C69.0171 28.7233 68.9554 32.5617 68.9554 36.4447C68.3469 36.6058 67.7455 36.5092 67.1564 36.5074C66.9518 36.2121 67.0453 35.9061 67.0453 35.6198C67.0382 32.406 67.04 29.1921 67.04 25.9765C67.04 23.3586 66.2604 21.9055 64.509 21.2577C62.4913 20.5115 60.2478 21.1915 58.7468 23.0203C58.0925 23.8167 57.7221 24.6756 57.7433 25.7797C57.8085 29.1707 57.768 32.5652 57.7644 35.958C57.7644 36.1316 57.7309 36.3034 57.7115 36.5002C57.0977 36.5002 56.5157 36.5002 55.9055 36.5002C55.9055 30.8563 55.9055 25.2375 55.9055 19.5649C56.5051 19.5649 57.1013 19.5649 57.7556 19.5649C57.7503 20.3308 57.7503 21.0663 57.7503 22.0755Z" fill="currentColor"/>
<path d="M96.9921 36.4969C96.3307 36.4969 95.7504 36.4969 95.1084 36.4969C95.1084 30.8673 95.1084 25.227 95.1084 19.5473C95.701 19.5473 96.3095 19.5473 96.9885 19.5473C96.9885 20.3186 96.9885 21.0773 96.9885 22.0687C98.1544 20.612 99.4084 19.6171 101.045 19.3129C105.031 18.5721 108.104 20.7803 108.127 24.9282C108.149 28.7683 108.132 32.6067 108.132 36.4862C107.507 36.4862 106.931 36.4862 106.343 36.4862C106.148 36.1891 106.246 35.8527 106.245 35.5378C106.236 32.2917 106.227 29.0457 106.245 25.7996C106.253 23.901 105.862 22.1814 103.961 21.3672C101.953 20.5065 100.089 20.9681 98.5018 22.4355C97.5265 23.3356 96.925 24.3931 96.9621 25.8623C97.052 29.3732 96.9921 32.8876 96.9921 36.4969Z" fill="currentColor"/>
<path d="M82.2382 21.1917C82.0336 21.5442 82.1006 21.8502 82.0988 22.1401C82.0935 25.4452 82.0953 28.7521 82.0953 32.0572C82.0953 32.2361 82.0882 32.4151 82.1006 32.594C82.2293 34.557 83.3176 35.4195 85.233 35.0402C85.7163 34.9453 86.1802 34.7431 86.7093 34.5713C86.8962 35.1064 86.7498 35.688 86.7939 36.2409C83.6174 38.152 80.2398 36.2749 80.2099 32.5815C80.1816 29.1565 80.2046 25.7315 80.2046 22.3065C80.2046 21.9826 80.2046 21.6587 80.2046 21.2382C79.2645 21.2382 78.3703 21.2382 77.432 21.2382C77.432 20.6244 77.432 20.1073 77.432 19.5239C78.3121 19.5239 79.1851 19.5239 80.1675 19.5239C80.1675 18.0566 80.1675 16.6483 80.1675 15.1988C80.8519 15.1988 81.4233 15.1988 82.0865 15.1988C82.0865 16.6232 82.0865 18.0083 82.0865 19.4756C83.5663 19.4756 84.9596 19.4756 86.3971 19.4756C86.3971 20.0751 86.3971 20.5922 86.3971 21.1917C84.9861 21.1917 83.591 21.1917 82.2382 21.1917Z" fill="currentColor"/>
<path d="M129.401 21.2113C128.422 21.2113 127.551 21.2113 126.63 21.2113C126.63 20.6298 126.63 20.1126 126.63 19.4971C127.522 19.4971 128.417 19.4971 129.387 19.4971C129.387 18.019 129.387 16.6322 129.387 15.2024C130.039 15.2024 130.611 15.2024 131.274 15.2024C131.274 16.6125 131.274 17.9975 131.274 19.4702C132.754 19.4702 134.147 19.4702 135.574 19.4702C135.574 20.084 135.574 20.6101 135.574 21.1845C134.17 21.1845 132.792 21.1845 131.445 21.1845C131.212 21.5299 131.297 21.8681 131.297 22.1866C131.29 25.4613 131.293 28.7359 131.293 32.0106C131.293 34.7825 132.718 35.7667 135.285 34.7717C135.475 34.6984 135.664 34.6196 135.904 34.523C136.073 35.1099 135.96 35.6897 135.985 36.3089C134.487 37.0121 132.965 37.1553 131.466 36.4896C129.942 35.8132 129.408 34.4532 129.404 32.8535C129.394 29.3408 129.401 25.8281 129.401 22.3136C129.401 21.9897 129.401 21.6641 129.401 21.2113Z" fill="currentColor"/>
<path d="M74.9487 36.5274C74.5377 36.5274 74.1885 36.5274 73.8375 36.5274C73.6065 36.5274 73.3737 36.5274 73.088 36.5274C73.088 30.8477 73.088 25.2163 73.088 19.5473C73.7088 19.5473 74.312 19.5473 74.9487 19.5473C74.9487 25.1984 74.9487 30.8119 74.9487 36.5274Z" fill="currentColor"/>
<path d="M88.8436 35.1778C88.8418 34.301 89.408 33.6765 90.2175 33.6639C91.0465 33.6496 91.7097 34.3332 91.7009 35.1921C91.692 35.9848 91.0165 36.6756 90.2493 36.6756C89.4468 36.6756 88.8454 36.0349 88.8436 35.1778Z" fill="currentColor"/>
<path d="M74.014 13.0764C74.7848 13.0728 75.3456 13.6382 75.3315 14.4059C75.3174 15.1289 74.7513 15.6979 74.044 15.7033C73.2873 15.7086 72.7265 15.1253 72.7371 14.3469C72.7459 13.5953 73.2644 13.0799 74.014 13.0764Z" fill="currentColor"/>
</svg>
