<svg width="101" height="100" viewBox="0 0 101 100" fill="none" xmlns="http://www.w3.org/2000/svg">
<path d="M50.42 54.7597L19.24 43.9697L50.42 33.1797L81.6 43.9697L50.42 54.7597Z" stroke="black" stroke-miterlimit="10"/>
<path d="M50.42 54.76L28.84 47.29L31.78 62.39L50.42 66.53L69.06 62.39L71.99 47.29L50.42 54.76Z" stroke="black" stroke-miterlimit="10"/>
<path d="M50.42 46.15C52.8058 46.15 54.74 45.165 54.74 43.95C54.74 42.735 52.8058 41.75 50.42 41.75C48.0341 41.75 46.1 42.735 46.1 43.95C46.1 45.165 48.0341 46.15 50.42 46.15Z" stroke="black" stroke-miterlimit="10"/>
<path d="M46.1 43.9492H19.77V56.2692" stroke="black" stroke-miterlimit="10"/>
<path d="M19.77 59.5895C20.6868 59.5895 21.43 58.8463 21.43 57.9295C21.43 57.0127 20.6868 56.2695 19.77 56.2695C18.8532 56.2695 18.11 57.0127 18.11 57.9295C18.11 58.8463 18.8532 59.5895 19.77 59.5895Z" stroke="black" stroke-miterlimit="10"/>
<path d="M20.44 67.31H19.09C18.55 67.31 18.1 66.87 18.1 66.32V63.38C18.1 62.74 18.31 62.11 18.7 61.6L19.76 60.21L20.82 61.6C21.21 62.11 21.42 62.74 21.42 63.38V66.32C21.43 66.87 20.99 67.31 20.44 67.31Z" stroke="black" stroke-miterlimit="10"/>
</svg>
