<svg width="350" height="250" viewBox="0 0 350 250" fill="none" xmlns="http://www.w3.org/2000/svg">
<path fill-rule="evenodd" clip-rule="evenodd" d="M132.78 65.01C132.78 46.6116 147.692 31.7 166.09 31.7C184.488 31.7 199.4 46.6116 199.4 65.01C199.4 75.9352 194.096 85.5551 185.984 91.6156C203.243 99.2574 215.31 116.493 215.31 136.59V176.33H212.31V136.59C212.31 116.788 199.83 99.9328 182.313 93.3542L179.467 92.2857L182.046 90.6773C190.644 85.3146 196.4 75.8617 196.4 65.01C196.4 48.2684 182.832 34.7 166.09 34.7C149.348 34.7 135.78 48.2684 135.78 65.01C135.78 75.8624 141.537 85.3245 150.133 90.6767L152.715 92.2847L149.867 93.3542C132.35 99.9328 119.87 116.788 119.87 136.59V176.33H116.87V136.59C116.87 116.494 128.936 99.2586 146.194 91.6164C138.082 85.5615 132.78 75.9335 132.78 65.01Z" fill="currentColor"/>
<path fill-rule="evenodd" clip-rule="evenodd" d="M69.77 33.81C69.77 15.411 84.6822 0.51 103.08 0.51C121.478 0.51 136.39 15.4216 136.39 33.82C136.39 44.7446 131.087 54.3641 122.976 60.4246C127.6 62.4704 131.854 65.2088 135.601 68.5036L133.619 70.7564C129.443 67.0843 124.6 64.1496 119.304 62.1646L116.455 61.0971L119.036 59.4873C127.634 54.1246 133.39 44.6717 133.39 33.82C133.39 17.0784 119.822 3.51 103.08 3.51C86.3378 3.51 72.77 17.069 72.77 33.81C72.77 44.6624 78.527 54.1245 87.1228 59.4767L89.7054 61.0847L86.8574 62.1542C69.3404 68.7328 56.86 85.5882 56.86 105.39V152.46H53.86V105.39C53.86 85.2937 65.9264 68.0586 83.1837 60.4164C75.0722 54.3615 69.77 44.7335 69.77 33.81Z" fill="currentColor"/>
<path fill-rule="evenodd" clip-rule="evenodd" d="M229.74 3.5C212.998 3.5 199.43 17.0684 199.43 33.81C199.43 44.6617 205.186 54.1146 213.784 59.4773L216.362 61.0852L213.518 62.1541C207.901 64.2653 202.805 67.4327 198.464 71.4153L196.436 69.2047C200.372 65.5938 204.893 62.6108 209.846 60.4161C201.734 54.3556 196.43 44.7355 196.43 33.81C196.43 15.4116 211.342 0.5 229.74 0.5C248.138 0.5 263.05 15.4116 263.05 33.81C263.05 44.7337 257.748 54.3619 249.636 60.4168C267 68.1212 278.96 85.8058 278.96 113.52V153.26H275.96V113.52C275.96 85.4465 263.354 68.6856 245.963 62.1542L243.115 61.0847L245.697 59.4767C254.293 54.1245 260.05 44.6624 260.05 33.81C260.05 17.0684 246.482 3.5 229.74 3.5Z" fill="currentColor"/>
<path fill-rule="evenodd" clip-rule="evenodd" d="M78.63 174.83H140.84V177.83H78.63V174.83Z" fill="currentColor"/>
<path fill-rule="evenodd" clip-rule="evenodd" d="M194.93 174.83H253.6V177.83H194.93V174.83Z" fill="currentColor"/>
<path fill-rule="evenodd" clip-rule="evenodd" d="M80.13 176.951L103.551 153.52L101.429 151.4L77.13 175.709V233.5H255.1V175.709L230.801 151.4L228.679 153.52L252.1 176.951V230.5H80.13V176.951Z" fill="currentColor"/>
<path fill-rule="evenodd" clip-rule="evenodd" d="M228.24 150.96H335.584L318.827 180.3L335.584 209.64H253.6V206.64H330.416L315.373 180.3L330.416 153.96H231.24V176.33H228.24V150.96Z" fill="currentColor"/>
<path fill-rule="evenodd" clip-rule="evenodd" d="M0.4151 150.96H103.99V176.33H100.99V153.96H5.58487L20.6376 180.3L5.58487 206.64H78.63V209.64H0.4151L17.1823 180.3L0.4151 150.96Z" fill="currentColor"/>
<path fill-rule="evenodd" clip-rule="evenodd" d="M167.891 130.281L181.416 157.699L211.673 162.092L189.782 183.443L194.953 213.572L167.89 199.345L140.829 213.572L145.988 183.444L124.097 162.092L154.354 157.699L167.891 130.281ZM167.889 137.059L156.346 160.441L130.543 164.188L149.211 182.396L144.811 208.088L167.89 195.955L190.967 208.088L186.558 182.397L205.227 164.188L179.424 160.441L167.889 137.059Z" fill="currentColor"/>
<path fill-rule="evenodd" clip-rule="evenodd" d="M140.84 185.78H90.86V182.78H140.84V185.78Z" fill="currentColor"/>
<path fill-rule="evenodd" clip-rule="evenodd" d="M241.31 225.55H90.86V222.55H241.31V225.55Z" fill="currentColor"/>
<path fill-rule="evenodd" clip-rule="evenodd" d="M240.12 185.78H197.93V182.78H240.12V185.78Z" fill="currentColor"/>
<path fill-rule="evenodd" clip-rule="evenodd" d="M247.43 158.92H318.31V161.92H247.43V158.92Z" fill="currentColor"/>
<path fill-rule="evenodd" clip-rule="evenodd" d="M261.56 198.69H318.31V201.69H261.56V198.69Z" fill="currentColor"/>
<path fill-rule="evenodd" clip-rule="evenodd" d="M79.96 161.92H20.11V158.92H79.96V161.92Z" fill="currentColor"/>
<path fill-rule="evenodd" clip-rule="evenodd" d="M67.24 201.69H16.79V198.69H67.24V201.69Z" fill="currentColor"/>
</svg>
