<svg width="345" height="345" viewBox="0 0 345 345" fill="none" xmlns="http://www.w3.org/2000/svg">
<path fill-rule="evenodd" clip-rule="evenodd" d="M172.5 59.9766L174.619 63.3602C198.244 101.087 210.938 146.978 210.938 194.062V232.5H134.062V194.062C134.062 146.978 146.756 101.087 170.381 63.3602L172.5 59.9766ZM172.5 69.4698C150.764 105.684 139.062 149.286 139.062 194.062V227.5H205.938V194.062C205.938 149.286 194.236 105.684 172.5 69.4698Z" fill="currentColor" stroke="none"/>
<path fill-rule="evenodd" clip-rule="evenodd" d="M208.438 239.687H136.562V234.687H208.438V239.687Z" fill="currentColor" stroke="none"/>
<path fill-rule="evenodd" clip-rule="evenodd" d="M208.438 246.875H136.562V241.875H208.438V246.875Z" fill="currentColor" stroke="none"/>
<path fill-rule="evenodd" clip-rule="evenodd" d="M162.812 249.062H182.188V251.562C182.188 260.727 180.661 269.572 177.977 275.02L177.971 275.032L172.5 285.853L167.029 275.032L167.023 275.02C164.339 269.572 162.812 260.727 162.812 251.562V249.062ZM167.853 254.062C168.104 261.851 169.513 268.754 171.503 272.799L172.5 274.771L173.497 272.799C175.487 268.754 176.896 261.851 177.147 254.062H167.853Z" fill="currentColor" stroke="none"/>
<path fill-rule="evenodd" clip-rule="evenodd" d="M172.5 156.815C163.838 156.815 156.815 163.837 156.815 172.5C156.815 181.162 163.838 188.184 172.5 188.184C181.162 188.184 188.184 181.162 188.184 172.5C188.184 163.837 181.162 156.815 172.5 156.815ZM151.815 172.5C151.815 161.076 161.076 151.815 172.5 151.815C183.923 151.815 193.184 161.076 193.184 172.5C193.184 183.923 183.923 193.184 172.5 193.184C161.076 193.184 151.815 183.923 151.815 172.5Z" fill="currentColor" stroke="none"/>
<path fill-rule="evenodd" clip-rule="evenodd" d="M222.812 95.937V90.937C237.316 90.937 249.062 79.1907 249.062 64.687H254.062C254.062 79.1907 265.809 90.937 280.312 90.937V95.937C265.809 95.937 254.062 107.683 254.062 122.187H249.062C249.062 107.683 237.316 95.937 222.812 95.937ZM251.562 109.914C254.721 102.521 260.647 96.5953 268.04 93.437C260.647 90.2788 254.721 84.3528 251.562 76.9596C248.404 84.3528 242.478 90.2788 235.085 93.437C242.478 96.5953 248.404 102.521 251.562 109.914Z" fill="currentColor" stroke="none"/>
<path fill-rule="evenodd" clip-rule="evenodd" d="M64.6875 254.062V249.062C79.1912 249.062 90.9375 237.316 90.9375 222.812H95.9375C95.9375 237.316 107.684 249.062 122.188 249.062V254.062C107.684 254.062 95.9375 265.808 95.9375 280.312H90.9375C90.9375 265.808 79.1912 254.062 64.6875 254.062ZM93.4375 268.039C96.5958 260.646 102.522 254.72 109.915 251.562C102.522 248.404 96.5958 242.478 93.4375 235.085C90.2792 242.478 84.3533 248.404 76.9601 251.562C84.3533 254.72 90.2792 260.646 93.4375 268.039Z" fill="currentColor" stroke="none"/>
<path fill-rule="evenodd" clip-rule="evenodd" d="M100.625 124.687V119.687C107.151 119.687 112.5 114.338 112.5 107.812H117.5C117.5 114.338 122.849 119.687 129.375 119.687V124.687C122.849 124.687 117.5 130.036 117.5 136.562H112.5C112.5 130.036 107.151 124.687 100.625 124.687ZM115 127.746C116.392 125.488 118.301 123.579 120.559 122.187C118.301 120.795 116.392 118.886 115 116.628C113.608 118.886 111.699 120.795 109.441 122.187C111.699 123.579 113.608 125.488 115 127.746Z" fill="currentColor" stroke="none"/>
<path fill-rule="evenodd" clip-rule="evenodd" d="M222.812 254.062V249.062C229.338 249.062 234.688 243.713 234.688 237.187H239.688C239.688 243.713 245.037 249.062 251.562 249.062V254.062C245.037 254.062 239.688 259.411 239.688 265.937H234.688C234.688 259.411 229.338 254.062 222.812 254.062ZM237.188 257.121C238.58 254.863 240.489 252.954 242.746 251.562C240.489 250.17 238.58 248.261 237.188 246.003C235.795 248.261 233.886 250.17 231.629 251.562C233.886 252.954 235.795 254.863 237.188 257.121Z" fill="currentColor" stroke="none"/>
</svg>
