<svg width="350" height="250" viewBox="0 0 350 250" fill="none" xmlns="http://www.w3.org/2000/svg">
<path d="M292.01 180.369H259.87C251.67 193.129 240.75 203.939 227.9 212.019H292V235.739L340 196.199L292.01 156.649V180.369Z" stroke-miterlimit="10"/>
<path d="M173.96 211.99C221.73 211.66 260.37 172.86 260.37 125.01C260.37 79.6298 225.61 42.3998 181.27 38.3998V14.2598L133.81 53.8098L181.27 93.3498V70.4298C208.03 74.3098 228.73 97.1798 228.73 125C228.73 155.53 203.89 180.37 173.36 180.37H10V212.01H174C173.98 212.01 173.98 212 173.96 211.99Z" stroke-miterlimit="10"/>
<path d="M134.73 164.55C124.43 154.49 117.99 140.5 117.99 125C117.99 106.62 127.1 90.4101 140.93 80.3301L116.07 59.6201C97.89 75.5701 86.35 98.9201 86.35 125C86.35 139.29 90.02 152.65 96.13 164.55H134.73Z" stroke-miterlimit="10"/>
</svg>
