<svg width="100" height="100" viewBox="0 0 100 100" fill="none" xmlns="http://www.w3.org/2000/svg">
<path d="M45.6457 51.5622C46.8332 50.583 48.3541 49.9997 49.9999 49.9997C51.6041 49.9997 53.0832 50.5622 54.2499 51.4788M45.8333 49.9997C45.8333 57.4785 39.7705 63.5413 32.2917 63.5413C24.8128 63.5413 18.75 57.4785 18.75 49.9997C18.75 42.5208 24.8128 36.458 32.2917 36.458C39.7705 36.458 45.8333 42.5208 45.8333 49.9997ZM81.25 49.9997C81.25 57.4785 75.1872 63.5413 67.7083 63.5413C60.2295 63.5413 54.1667 57.4785 54.1667 49.9997C54.1667 42.5208 60.2295 36.458 67.7083 36.458C75.1872 36.458 81.25 42.5208 81.25 49.9997Z" stroke="black" stroke-miterlimit="10"/>
</svg>
