<svg width="100" height="101" viewBox="0 0 100 101" fill="none" xmlns="http://www.w3.org/2000/svg">
<path d="M45.8333 18.7598H18.75V62.5098H45.8333V18.7598Z" stroke="black" stroke-miterlimit="10"/>
<path d="M81.25 37.5098H54.1667V81.2598H81.25V37.5098Z" stroke="black" stroke-miterlimit="10"/>
<path d="M32.2916 22.9263C32.9129 22.9263 33.4166 22.4227 33.4166 21.8013C33.4166 21.18 32.9129 20.6763 32.2916 20.6763C31.6703 20.6763 31.1666 21.18 31.1666 21.8013C31.1666 22.4227 31.6703 22.9263 32.2916 22.9263Z" stroke="black" stroke-miterlimit="10"/>
<path d="M67.7083 41.7597C68.3296 41.7597 68.8333 41.256 68.8333 40.6347C68.8333 40.0134 68.3296 39.5097 67.7083 39.5097C67.087 39.5097 66.5833 40.0134 66.5833 40.6347C66.5833 41.256 67.087 41.7597 67.7083 41.7597Z" stroke="black" stroke-miterlimit="10"/>
<path d="M36.2291 29.9681L37.5833 27.5098C37.6666 27.3639 37.625 27.2181 37.4791 27.1348C37.4375 27.1139 37.3958 27.0931 37.3541 27.0931C37.25 27.0931 37.1666 27.1348 37.1041 27.2389L35.7291 29.7181C34.6041 29.2181 33.3333 28.9264 32 28.9264C30.6666 28.9264 29.3958 29.1973 28.2708 29.7181L26.8958 27.2389C26.8333 27.1348 26.75 27.0931 26.6458 27.0931C26.6041 27.0931 26.5625 27.1139 26.5208 27.1348C26.375 27.2181 26.3333 27.3639 26.4166 27.5098L27.7708 29.9681C25.1458 31.3223 23.375 33.9264 23.375 36.8848H40.625C40.625 33.9056 38.8541 31.3223 36.2291 29.9681Z" stroke="black" stroke-miterlimit="10"/>
<path d="M23.375 50.0723C23.375 51.2181 24.3125 52.1556 25.4583 52.1556H26.8333V56.4264C26.8333 57.5098 27.6875 58.3639 28.7708 58.3639C29.8541 58.3639 30.7083 57.5098 30.7083 56.4264V52.1556H33.2916V56.4264C33.2916 57.5098 34.1458 58.3639 35.2291 58.3639C36.3125 58.3639 37.1666 57.5098 37.1666 56.4264V52.1556H38.5416C39.6875 52.1556 40.625 51.2181 40.625 50.0723V39.5931H23.375V50.0723Z" stroke="black" stroke-miterlimit="10"/>
<path fill-rule="evenodd" clip-rule="evenodd" d="M68.5209 50.2179C69.7709 48.5721 71.5209 48.5512 71.5209 48.5512C71.5209 48.5512 71.7709 50.1137 70.5418 51.5929C69.2084 53.1971 67.7084 52.9262 67.7084 52.9262C67.7084 52.9262 67.3959 51.6971 68.5209 50.2179Z" stroke="black" stroke-miterlimit="10"/>
<path fill-rule="evenodd" clip-rule="evenodd" d="M67.8333 55.1968C68.4792 55.1968 69.6667 54.301 71.2292 54.301C73.9167 54.301 74.9583 56.2176 74.9583 56.2176C74.9583 56.2176 72.9167 57.2801 72.9167 59.8426C72.9167 62.7385 75.4792 63.7176 75.4792 63.7176C75.4792 63.7176 73.6875 68.7801 71.25 68.7801C70.125 68.7801 69.2708 68.0301 68.1042 68.0301C66.9167 68.0301 65.7292 68.801 64.9375 68.801C62.7292 68.801 59.9167 64.0093 59.9167 60.1551C59.9167 56.3635 62.2917 54.3635 64.5 54.3635C65.9792 54.3635 67.0833 55.1968 67.8333 55.1968Z" stroke="black" stroke-miterlimit="10"/>
<path d="M28.0209 33.7396C28.4236 33.7396 28.7501 33.4131 28.7501 33.0104C28.7501 32.6077 28.4236 32.2812 28.0209 32.2812C27.6182 32.2812 27.2917 32.6077 27.2917 33.0104C27.2917 33.4131 27.6182 33.7396 28.0209 33.7396Z" fill="black"/>
<path d="M35.9792 33.7396C36.3819 33.7396 36.7083 33.4131 36.7083 33.0104C36.7083 32.6077 36.3819 32.2812 35.9792 32.2812C35.5765 32.2812 35.25 32.6077 35.25 33.0104C35.25 33.4131 35.5765 33.7396 35.9792 33.7396Z" fill="black"/>
</svg>
