<svg width="100" height="101" viewBox="0 0 100 101" fill="none" xmlns="http://www.w3.org/2000/svg">
<path d="M46.09 52.6498H42.19L41.45 54.4498H39.46L43.2 46.0498H45.12L48.88 54.4498H46.84L46.09 52.6498ZM45.48 51.1698L44.15 47.9498L42.82 51.1698H45.48Z" fill="currentColor" stroke="none"/>
<path d="M55.32 46.4198C55.87 46.6698 56.29 47.0198 56.59 47.4798C56.89 47.9398 57.03 48.4798 57.03 49.0998C57.03 49.7198 56.88 50.2498 56.59 50.7098C56.3 51.1698 55.87 51.5198 55.32 51.7698C54.77 52.0098 54.13 52.1398 53.38 52.1398H51.69V54.4598H49.75V46.0598H53.39C54.13 46.0498 54.77 46.1698 55.32 46.4198ZM54.61 50.1698C54.91 49.9198 55.07 49.5598 55.07 49.0998C55.07 48.6298 54.92 48.2698 54.61 48.0098C54.31 47.7598 53.86 47.6298 53.28 47.6298H51.7V50.5498H53.28C53.86 50.5498 54.3 50.4198 54.61 50.1698Z" fill="currentColor" stroke="none"/>
<path d="M58.41 46.0498H60.35V54.4498H58.41V46.0498Z" fill="currentColor" stroke="none"/>
<path d="M66.11 33.81L75.84 24.08M33.7 66.21L23.9 76.02M66.11 66.21L75.82 75.93M33.7 33.81L23.96 24.07M60.72 43.76C58.56 40.03 54.53 37.51 49.91 37.51C45.29 37.51 41.26 40.03 39.1 43.76M39.09 56.26C41.25 59.99 45.28 62.51 49.9 62.51C54.52 62.51 58.55 59.99 60.71 56.26M72.82 54.75V45.27H67.2C66.88 43.75 66.36 42.3 65.67 40.94L69.45 37.16L62.74 30.45L59.26 33.93C57.84 33.04 56.28 32.35 54.63 31.89V27.09H45.15V31.89C43.5 32.35 41.94 33.04 40.52 33.93L37.04 30.45L30.33 37.16L34.11 40.94C33.42 42.29 32.91 43.74 32.58 45.27H26.96V54.75H33.18C33.62 56 34.19 57.19 34.88 58.29L30.31 62.86L37.02 69.57L41.89 64.7C42.92 65.22 44 65.64 45.13 65.96V72.93H54.61V65.96C55.74 65.65 56.82 65.22 57.85 64.7L62.72 69.57L69.43 62.86L64.86 58.29C65.55 57.18 66.12 56 66.56 54.75H72.82ZM81.16 21.88C81.16 23.6087 79.7587 25.01 78.03 25.01C76.3014 25.01 74.9 23.6087 74.9 21.88C74.9 20.1513 76.3014 18.75 78.03 18.75C79.7587 18.75 81.16 20.1513 81.16 21.88ZM24.91 78.13C24.91 79.8587 23.5087 81.26 21.78 81.26C20.0514 81.26 18.65 79.8587 18.65 78.13C18.65 76.4014 20.0514 75 21.78 75C23.5087 75 24.91 76.4014 24.91 78.13ZM81.16 78.13C81.16 79.8587 79.7587 81.26 78.03 81.26C76.3014 81.26 74.9 79.8587 74.9 78.13C74.9 76.4014 76.3014 75 78.03 75C79.7587 75 81.16 76.4014 81.16 78.13ZM24.91 21.88C24.91 23.6087 23.5087 25.01 21.78 25.01C20.0514 25.01 18.65 23.6087 18.65 21.88C18.65 20.1513 20.0514 18.75 21.78 18.75C23.5087 18.75 24.91 20.1513 24.91 21.88Z" stroke-miterlimit="10"/>
</svg>
