<svg width="100" height="101" viewBox="0 0 100 101" fill="none" xmlns="http://www.w3.org/2000/svg">
<path d="M28.13 43.7598V37.5098H71.88V43.7598M50 31.2598V43.7598M50 56.2598V68.7598M28.13 56.2598V68.7598M71.88 56.2598V68.7598M40.63 18.7598H59.38V31.2598H40.63V18.7598ZM18.75 68.7598H37.5V81.2598H18.75V68.7598ZM40.63 68.7598H59.38V81.2598H40.63V68.7598ZM62.5 68.7598H81.25V81.2598H62.5V68.7598ZM18.75 43.7598H37.5V56.2598H18.75V43.7598ZM40.63 43.7598H59.38V56.2598H40.63V43.7598ZM62.5 43.7598H81.25V56.2598H62.5V43.7598Z" stroke-miterlimit="10"/>
</svg>
