<svg width="100" height="101" viewBox="0 0 100 101" fill="none" xmlns="http://www.w3.org/2000/svg">
<path d="M39.6299 52.0898L18.8799 66.7298L39.6299 81.3798M60.3799 81.3798L81.1299 66.7298L60.3799 52.0898M56.2299 52.0898L43.7799 81.3798M48.6 31.12C49.3 32.04 49.65 33.17 49.65 34.51C49.65 36.41 48.91 37.87 47.44 38.89C45.97 39.91 43.81 40.42 40.99 40.42H29.79V18.75H40.37C43.01 18.75 45.04 19.26 46.45 20.27C47.86 21.28 48.57 22.65 48.57 24.39C48.57 25.44 48.32 26.38 47.81 27.21C47.3 28.04 46.6 28.69 45.69 29.16C46.92 29.55 47.89 30.2 48.6 31.12ZM34.76 22.53V27.64H39.74C40.98 27.64 41.92 27.42 42.56 26.99C43.2 26.56 43.52 25.92 43.52 25.07C43.52 24.22 43.2 23.59 42.56 23.17C41.92 22.75 40.98 22.54 39.74 22.54H34.76V22.53ZM43.6 36C44.27 35.57 44.61 34.9 44.61 33.99C44.61 32.2 43.28 31.3 40.62 31.3H34.77V36.65H40.62C41.93 36.65 42.93 36.43 43.6 36ZM70.23 40.42H53.45V18.75H69.82V22.77H58.43V27.47H68.49V31.37H58.43V36.38H70.23V40.42Z"/>
</svg>
