<svg width="100" height="100" viewBox="0 0 100 100" fill="none" xmlns="http://www.w3.org/2000/svg">
<path d="M72.92 66.6709H27.08C23.63 66.6709 20.83 69.4709 20.83 72.9209C20.83 76.3709 23.63 79.1709 27.08 79.1709H72.91C76.36 79.1709 79.16 76.3709 79.16 72.9209C79.17 69.4609 76.37 66.6709 72.92 66.6709Z" stroke="black" stroke-miterlimit="10"/>
<path d="M72.92 68.75H27.08C24.78 68.75 22.91 70.62 22.91 72.92C22.91 75.22 24.78 77.09 27.08 77.09H72.91C75.21 77.09 77.08 75.22 77.08 72.92C77.08 70.62 75.22 68.75 72.92 68.75Z" stroke="black" stroke-miterlimit="10"/>
<path d="M27.77 75.4209C29.1507 75.4209 30.27 74.3016 30.27 72.9209C30.27 71.5402 29.1507 70.4209 27.77 70.4209C26.3893 70.4209 25.27 71.5402 25.27 72.9209C25.27 74.3016 26.3893 75.4209 27.77 75.4209Z" stroke="black" stroke-miterlimit="10"/>
<path d="M36.72 75.4209C38.1007 75.4209 39.22 74.3016 39.22 72.9209C39.22 71.5402 38.1007 70.4209 36.72 70.4209C35.3393 70.4209 34.22 71.5402 34.22 72.9209C34.22 74.3016 35.3393 75.4209 36.72 75.4209Z" stroke="black" stroke-miterlimit="10"/>
<path d="M45.66 75.4209C47.0407 75.4209 48.16 74.3016 48.16 72.9209C48.16 71.5402 47.0407 70.4209 45.66 70.4209C44.2793 70.4209 43.16 71.5402 43.16 72.9209C43.16 74.3016 44.2793 75.4209 45.66 75.4209Z" stroke="black" stroke-miterlimit="10"/>
<path d="M54.61 75.4209C55.9907 75.4209 57.11 74.3016 57.11 72.9209C57.11 71.5402 55.9907 70.4209 54.61 70.4209C53.2293 70.4209 52.11 71.5402 52.11 72.9209C52.11 74.3016 53.2293 75.4209 54.61 75.4209Z" stroke="black" stroke-miterlimit="10"/>
<path d="M63.56 75.4209C64.9407 75.4209 66.06 74.3016 66.06 72.9209C66.06 71.5402 64.9407 70.4209 63.56 70.4209C62.1793 70.4209 61.06 71.5402 61.06 72.9209C61.06 74.3016 62.1793 75.4209 63.56 75.4209Z" stroke="black" stroke-miterlimit="10"/>
<path d="M72.5 75.4209C73.8807 75.4209 75 74.3016 75 72.9209C75 71.5402 73.8807 70.4209 72.5 70.4209C71.1193 70.4209 70 71.5402 70 72.9209C70 74.3016 71.1193 75.4209 72.5 75.4209Z" stroke="black" stroke-miterlimit="10"/>
<path d="M39.58 50H27.08V66.67H39.58V50Z" stroke="black" stroke-miterlimit="10"/>
<path d="M38.67 41.7905C41.8622 41.7905 44.45 39.2027 44.45 36.0105C44.45 32.8183 41.8622 30.2305 38.67 30.2305C35.4778 30.2305 32.89 32.8183 32.89 36.0105C32.89 39.2027 35.4778 41.7905 38.67 41.7905Z" stroke="black" stroke-miterlimit="10"/>
<path d="M61.18 43.25L57.85 44.95L56.69 48.51L58.4 51.85L61.96 53L62.56 52.7L61.01 51.69L61.12 49.57L63.01 48.6L64.79 49.76L64.69 51.61L65.3 51.3L66.45 47.74L64.75 44.4L61.18 43.25Z" stroke="black" stroke-miterlimit="10"/>
<path d="M58.08 39.0107C57.58 39.4907 56.95 39.8407 56.26 40.0307L58.6 44.6007L60.46 43.6507L58.08 39.0107Z" stroke="black" stroke-miterlimit="10"/>
<path d="M55.2 31.8506H42.7V31.8706C43.78 32.9206 44.46 34.3906 44.46 36.0106C44.46 37.6306 43.79 39.1006 42.7 40.1506V40.1706H55.2C57.5 40.1706 59.37 38.3006 59.37 36.0006C59.36 33.7106 57.5 31.8506 55.2 31.8506Z" stroke="black" stroke-miterlimit="10"/>
<path d="M38.67 41.7907C36.91 41.7907 35.33 41.0007 34.27 39.7607L29.17 50.0007H37.5L42.19 40.5907C41.22 41.3407 40 41.7907 38.67 41.7907Z" stroke="black" stroke-miterlimit="10"/>
<path d="M32.08 52.4502H29.46V55.0702H32.08V52.4502Z" stroke="black" stroke-miterlimit="10"/>
<path d="M36.99 52.4502H34.37V55.0702H36.99V52.4502Z" stroke="black" stroke-miterlimit="10"/>
<path d="M32.08 57.0205H29.46V59.6405H32.08V57.0205Z" stroke="black" stroke-miterlimit="10"/>
<path d="M36.99 57.0205H34.37V59.6405H36.99V57.0205Z" stroke="black" stroke-miterlimit="10"/>
<path d="M32.08 61.5908H29.46V64.2108H32.08V61.5908Z" stroke="black" stroke-miterlimit="10"/>
<path d="M36.99 61.5908H34.37V64.2108H36.99V61.5908Z" stroke="black" stroke-miterlimit="10"/>
<path d="M48.11 62.3008H43.75V66.6608H48.11V62.3008Z" stroke="black" stroke-miterlimit="10"/>
<path d="M55.39 62.3008H51.03V66.6608H55.39V62.3008Z" stroke="black" stroke-miterlimit="10"/>
<path d="M62.67 62.3008H58.31V66.6608H62.67V62.3008Z" stroke="black" stroke-miterlimit="10"/>
<path d="M69.95 62.3008H65.59V66.6608H69.95V62.3008Z" stroke="black" stroke-miterlimit="10"/>
<path d="M47.92 37.0804C48.5109 37.0804 48.99 36.6014 48.99 36.0104C48.99 35.4195 48.5109 34.9404 47.92 34.9404C47.3291 34.9404 46.85 35.4195 46.85 36.0104C46.85 36.6014 47.3291 37.0804 47.92 37.0804Z" stroke="black" stroke-miterlimit="10"/>
<path d="M35.68 46.5209C36.2709 46.5209 36.75 46.0418 36.75 45.4509C36.75 44.8599 36.2709 44.3809 35.68 44.3809C35.0891 44.3809 34.61 44.8599 34.61 45.4509C34.61 46.0418 35.0891 46.5209 35.68 46.5209Z" stroke="black" stroke-miterlimit="10"/>
<path d="M38.57 37.0804C39.1609 37.0804 39.64 36.6014 39.64 36.0104C39.64 35.4195 39.1609 34.9404 38.57 34.9404C37.9791 34.9404 37.5 35.4195 37.5 36.0104C37.5 36.6014 37.9791 37.0804 38.57 37.0804Z" stroke="black" stroke-miterlimit="10"/>
<path d="M55.24 37.0804C55.8309 37.0804 56.31 36.6014 56.31 36.0104C56.31 35.4195 55.8309 34.9404 55.24 34.9404C54.6491 34.9404 54.17 35.4195 54.17 36.0104C54.17 36.6014 54.6491 37.0804 55.24 37.0804Z" stroke="black" stroke-miterlimit="10"/>
<path d="M38.57 40.1808C40.873 40.1808 42.74 38.3138 42.74 36.0108C42.74 33.7078 40.873 31.8408 38.57 31.8408C36.267 31.8408 34.4 33.7078 34.4 36.0108C34.4 38.3138 36.267 40.1808 38.57 40.1808Z" stroke="black" stroke-miterlimit="10"/>
</svg>
