<svg width="100" height="100" viewBox="0 0 100 100" fill="none" xmlns="http://www.w3.org/2000/svg">
<path d="M45.55 26.1901V20.8301H37.51C37.51 22.8001 35.91 24.4001 33.94 24.4001C31.97 24.4001 30.37 22.8001 30.37 20.8301H22.33V26.1901C20.36 26.1901 18.76 27.7901 18.76 29.7601C18.76 31.7301 20.36 33.3301 22.33 33.3301V38.6901H30.37C30.37 36.7201 31.97 35.1201 33.94 35.1201C35.91 35.1201 37.51 36.7201 37.51 38.6901H45.55V33.3301C47.52 33.3301 49.12 31.7301 49.12 29.7601C49.12 27.7901 47.52 26.1901 45.55 26.1901Z" stroke-miterlimit="10"/>
<path d="M79.2 41.6699C79.2 39.6699 77.61 38.0499 75.63 37.9899V32.7399H67.59C67.59 30.7699 65.99 29.1699 64.02 29.1699C62.05 29.1699 60.45 30.7699 60.45 32.7399H52.41V38.0999C54.38 38.0999 55.98 39.6999 55.98 41.6699C55.98 43.6399 54.38 45.2399 52.41 45.2399V50.5999H60.45C60.45 52.5699 62.05 54.1699 64.02 54.1699C65.99 54.1699 67.59 52.5699 67.59 50.5999H75.63V45.3499C77.61 45.2799 79.2 43.6599 79.2 41.6699Z" stroke-miterlimit="10"/>
<path d="M77.67 65.1803V59.8203H69.63C69.63 61.7903 68.03 63.3903 66.06 63.3903C64.09 63.3903 62.49 61.7903 62.49 59.8203H54.45V65.1803C52.48 65.1803 50.88 66.7803 50.88 68.7503C50.88 70.7203 52.48 72.3203 54.45 72.3203V77.6803H62.36C62.44 79.6603 64.06 81.2503 66.06 81.2503C68.06 81.2503 69.68 79.6603 69.76 77.6803H77.67V72.3203C79.64 72.3203 81.24 70.7203 81.24 68.7503C81.24 66.7803 79.65 65.1803 77.67 65.1803Z" stroke-miterlimit="10"/>
<path d="M46.14 56.8402V51.4802H38.1C38.1 49.5102 36.5 47.9102 34.53 47.9102C32.56 47.9102 30.96 49.5102 30.96 51.4802H22.92V56.7202C20.88 56.7202 19.22 58.3802 19.22 60.4202C19.22 62.4602 20.88 64.1202 22.92 64.1202V69.3602H30.96C30.96 71.3302 32.56 72.9302 34.53 72.9302C36.5 72.9302 38.1 71.3302 38.1 69.3602H46.14V64.0002C44.17 64.0002 42.57 62.4002 42.57 60.4302C42.57 58.4402 44.17 56.8402 46.14 56.8402Z" stroke-miterlimit="10"/>
</svg>
