<svg width="345" height="345" viewBox="0 0 345 345" fill="none" xmlns="http://www.w3.org/2000/svg">
<path fill-rule="evenodd" clip-rule="evenodd" d="M112.686 76.5625C113.902 68.4515 120.937 62.1875 129.375 62.1875C137.813 62.1875 144.848 68.4515 146.064 76.5625H175V110.312H172.5C165.974 110.312 160.625 115.662 160.625 122.188C160.625 128.713 165.974 134.062 172.5 134.062H175V175H146.064C144.848 183.111 137.813 189.375 129.375 189.375C120.937 189.375 113.902 183.111 112.686 175H76.5625V155.625H79.0625C85.588 155.625 90.9375 150.276 90.9375 143.75C90.9375 137.224 85.588 131.875 79.0625 131.875H76.5625V76.5625H112.686ZM129.375 67.1875C122.849 67.1875 117.5 72.537 117.5 79.0625V81.5625H81.5625V127.061C89.6735 128.277 95.9375 135.312 95.9375 143.75C95.9375 152.188 89.6735 159.223 81.5625 160.439V170H117.5V172.5C117.5 179.026 122.849 184.375 129.375 184.375C135.901 184.375 141.25 179.026 141.25 172.5V170H170V138.877C161.889 137.661 155.625 130.625 155.625 122.188C155.625 113.75 161.889 106.714 170 105.498V81.5625H141.25V79.0625C141.25 72.537 135.901 67.1875 129.375 67.1875Z" fill="currentColor" stroke="none"/>
<path fill-rule="evenodd" clip-rule="evenodd" d="M76.5625 170H117.5V172.5C117.5 179.026 122.849 184.375 129.375 184.375C135.901 184.375 141.25 179.026 141.25 172.5V170H175V203.75H172.5C165.974 203.75 160.625 209.099 160.625 215.625C160.625 222.151 165.974 227.5 172.5 227.5H175V268.438H146.064C144.848 276.548 137.813 282.812 129.375 282.812C120.937 282.812 113.902 276.548 112.686 268.438H76.5625V253.877C68.4515 252.661 62.1875 245.625 62.1875 237.188C62.1875 228.75 68.4515 221.714 76.5625 220.498V170ZM81.5625 175V225.312H79.0625C72.537 225.312 67.1875 230.662 67.1875 237.188C67.1875 243.713 72.537 249.062 79.0625 249.062H81.5625V263.438H117.5V265.938C117.5 272.463 122.849 277.812 129.375 277.812C135.901 277.812 141.25 272.463 141.25 265.938V263.438H170V232.314C161.889 231.098 155.625 224.063 155.625 215.625C155.625 207.187 161.889 200.152 170 198.936V175H146.064C144.848 183.111 137.813 189.375 129.375 189.375C120.937 189.375 113.902 183.111 112.686 175H81.5625Z" fill="currentColor" stroke="none"/>
<path fill-rule="evenodd" clip-rule="evenodd" d="M170 76.5625H203.75V79.0625C203.75 85.588 209.099 90.9375 215.625 90.9375C222.151 90.9375 227.5 85.588 227.5 79.0625V76.5625H268.438V127.061C276.548 128.277 282.812 135.312 282.812 143.75C282.812 152.188 276.548 159.223 268.438 160.439V175H241.875V172.5C241.875 165.974 236.526 160.625 230 160.625C223.474 160.625 218.125 165.974 218.125 172.5V175H170V138.877C161.889 137.661 155.625 130.625 155.625 122.188C155.625 113.75 161.889 106.714 170 105.498V76.5625ZM175 81.5625V110.312H172.5C165.974 110.312 160.625 115.662 160.625 122.188C160.625 128.713 165.974 134.062 172.5 134.062H175V170H213.311C214.527 161.889 221.562 155.625 230 155.625C238.438 155.625 245.473 161.889 246.689 170H263.438V155.625H265.938C272.463 155.625 277.812 150.276 277.812 143.75C277.812 137.224 272.463 131.875 265.938 131.875H263.438V81.5625H232.314C231.098 89.6735 224.063 95.9375 215.625 95.9375C207.187 95.9375 200.152 89.6735 198.936 81.5625H175Z" fill="currentColor" stroke="none"/>
<path fill-rule="evenodd" clip-rule="evenodd" d="M213.311 170C214.527 161.889 221.562 155.625 230 155.625C238.438 155.625 245.473 161.889 246.689 170H268.438V189.375H265.938C259.412 189.375 254.062 194.724 254.062 201.25C254.062 207.776 259.412 213.125 265.938 213.125H268.438V268.438H227.5V265.938C227.5 259.412 222.151 254.062 215.625 254.062C209.099 254.062 203.75 259.412 203.75 265.938V268.438H170V232.314C161.889 231.098 155.625 224.063 155.625 215.625C155.625 207.187 161.889 200.152 170 198.936V170H213.311ZM230 160.625C223.474 160.625 218.125 165.974 218.125 172.5V175H175V203.75H172.5C165.974 203.75 160.625 209.099 160.625 215.625C160.625 222.151 165.974 227.5 172.5 227.5H175V263.438H198.936C200.152 255.327 207.187 249.062 215.625 249.062C224.063 249.062 231.098 255.327 232.314 263.438H263.438V217.939C255.327 216.723 249.062 209.688 249.062 201.25C249.062 192.812 255.327 185.777 263.438 184.561V175H241.875V172.5C241.875 165.974 236.526 160.625 230 160.625Z" fill="currentColor" stroke="none"/>
</svg>
