<svg width="100" height="101" viewBox="0 0 100 101" fill="none" xmlns="http://www.w3.org/2000/svg">
<path d="M31.25 81.2594V33.3428H52.0833V81.2594M43.75 33.3428V20.8428H70.8333V81.2594M35.4167 37.5094V39.5928M35.4167 45.8428V47.9261M39.5833 37.5094V39.5928M39.5833 49.8844V51.9677M43.75 37.5094V39.5928M39.5833 41.6761V43.7594M43.75 45.8428V47.9261M47.9167 49.9261V52.0094M47.9167 62.4055V64.4888M43.75 54.0722V56.1555M39.5833 70.8634V72.9467M43.75 75.0511V77.1345M43.75 66.4471V68.5304M43.75 58.2388V60.3222M35.4167 66.4888V68.5721M47.9167 25.0094V27.0928M54.1667 25.0094V27.0928M60.4167 31.2594V33.3428M60.4167 60.4261V62.5094M60.4167 43.6761V45.7594M66.6667 25.0094V27.0928M66.6667 39.4471V41.5305M66.6667 43.5927V45.676" stroke="black" stroke-miterlimit="10"/>
</svg>
