<svg width="100" height="100" viewBox="0 0 100 100" fill="none" xmlns="http://www.w3.org/2000/svg">
<path d="M20.8333 25V24.5H20.3333V25H20.8333ZM79.1666 25H79.6666V24.5H79.1666V25ZM79.1666 81.25V81.75H79.6666V81.25H79.1666ZM20.8333 81.25H20.3333V81.75H20.8333V81.25ZM41.6666 39.5833V39.0833H41.1666V39.5833H41.6666ZM45.8333 39.5833H46.3333V39.0833H45.8333V39.5833ZM45.8333 43.75V44.25H46.3333V43.75H45.8333ZM41.6666 43.75H41.1666V44.25H41.6666V43.75ZM29.1666 39.5833V39.0833H28.6666V39.5833H29.1666ZM33.3333 39.5833H33.8333V39.0833H33.3333V39.5833ZM33.3333 43.75V44.25H33.8333V43.75H33.3333ZM29.1666 43.75H28.6666V44.25H29.1666V43.75ZM54.1666 39.5833V39.0833H53.6666V39.5833H54.1666ZM58.3333 39.5833H58.8333V39.0833H58.3333V39.5833ZM58.3333 43.75V44.25H58.8333V43.75H58.3333ZM54.1666 43.75H53.6666V44.25H54.1666V43.75ZM66.6666 39.5833V39.0833H66.1666V39.5833H66.6666ZM70.8332 39.5833H71.3332V39.0833H70.8332V39.5833ZM70.8332 43.75V44.25H71.3332V43.75H70.8332ZM66.6666 43.75H66.1666V44.25H66.6666V43.75ZM41.6666 54.1667V53.6667H41.1666V54.1667H41.6666ZM45.8333 54.1667H46.3333V53.6667H45.8333V54.1667ZM45.8333 58.3333V58.8333H46.3333V58.3333H45.8333ZM41.6666 58.3333H41.1666V58.8333H41.6666V58.3333ZM29.1666 54.1667V53.6667H28.6666V54.1667H29.1666ZM33.3333 54.1667H33.8333V53.6667H33.3333V54.1667ZM33.3333 58.3333V58.8333H33.8333V58.3333H33.3333ZM29.1666 58.3333H28.6666V58.8333H29.1666V58.3333ZM54.1666 54.1667V53.6667H53.6666V54.1667H54.1666ZM58.3333 54.1667H58.8333V53.6667H58.3333V54.1667ZM58.3333 58.3333V58.8333H58.8333V58.3333H58.3333ZM54.1666 58.3333H53.6666V58.8333H54.1666V58.3333ZM66.6666 54.1667V53.6667H66.1666V54.1667H66.6666ZM70.8332 54.1667H71.3332V53.6667H70.8332V54.1667ZM70.8332 58.3333V58.8333H71.3332V58.3333H70.8332ZM66.6666 58.3333H66.1666V58.8333H66.6666V58.3333ZM41.6666 68.75V68.25H41.1666V68.75H41.6666ZM45.8333 68.75H46.3333V68.25H45.8333V68.75ZM45.8333 72.9167V73.4167H46.3333V72.9167H45.8333ZM41.6666 72.9167H41.1666V73.4167H41.6666V72.9167ZM29.1666 68.75V68.25H28.6666V68.75H29.1666ZM33.3333 68.75H33.8333V68.25H33.3333V68.75ZM33.3333 72.9167V73.4167H33.8333V72.9167H33.3333ZM29.1666 72.9167H28.6666V73.4167H29.1666V72.9167ZM54.1666 68.75V68.25H53.6666V68.75H54.1666ZM58.3333 68.75H58.8333V68.25H58.3333V68.75ZM58.3333 72.9167V73.4167H58.8333V72.9167H58.3333ZM54.1666 72.9167H53.6666V73.4167H54.1666V72.9167ZM66.6666 68.75V68.25H66.1666V68.75H66.6666ZM70.8332 68.75H71.3332V68.25H70.8332V68.75ZM70.8332 72.9167V73.4167H71.3332V72.9167H70.8332ZM66.6666 72.9167H66.1666V73.4167H66.6666V72.9167ZM20.8333 25.5H79.1666V24.5H20.8333V25.5ZM78.6666 25V81.25H79.6666V25H78.6666ZM79.1666 80.75H20.8333V81.75H79.1666V80.75ZM21.3333 81.25V25H20.3333V81.25H21.3333ZM25.4999 27.0833V18.75H24.4999V27.0833H25.4999ZM33.8333 27.0833V18.75H32.8333V27.0833H33.8333ZM42.1666 27.0833V18.75H41.1666V27.0833H42.1666ZM50.4999 27.0833V18.75H49.4999V27.0833H50.4999ZM58.8333 27.0833V18.75H57.8333V27.0833H58.8333ZM67.1666 27.0833V18.75H66.1666V27.0833H67.1666ZM75.4999 27.0833V18.75H74.4999V27.0833H75.4999ZM41.6666 40.0833H45.8333V39.0833H41.6666V40.0833ZM45.3333 39.5833V43.75H46.3333V39.5833H45.3333ZM45.8333 43.25H41.6666V44.25H45.8333V43.25ZM42.1666 43.75V39.5833H41.1666V43.75H42.1666ZM29.1666 40.0833H33.3333V39.0833H29.1666V40.0833ZM32.8333 39.5833V43.75H33.8333V39.5833H32.8333ZM33.3333 43.25H29.1666V44.25H33.3333V43.25ZM29.6666 43.75V39.5833H28.6666V43.75H29.6666ZM54.1666 40.0833H58.3333V39.0833H54.1666V40.0833ZM57.8333 39.5833V43.75H58.8333V39.5833H57.8333ZM58.3333 43.25H54.1666V44.25H58.3333V43.25ZM54.6666 43.75V39.5833H53.6666V43.75H54.6666ZM66.6666 40.0833H70.8332V39.0833H66.6666V40.0833ZM70.3332 39.5833V43.75H71.3332V39.5833H70.3332ZM70.8332 43.25H66.6666V44.25H70.8332V43.25ZM67.1666 43.75V39.5833H66.1666V43.75H67.1666ZM41.6666 54.6667H45.8333V53.6667H41.6666V54.6667ZM45.3333 54.1667V58.3333H46.3333V54.1667H45.3333ZM45.8333 57.8333H41.6666V58.8333H45.8333V57.8333ZM42.1666 58.3333V54.1667H41.1666V58.3333H42.1666ZM29.1666 54.6667H33.3333V53.6667H29.1666V54.6667ZM32.8333 54.1667V58.3333H33.8333V54.1667H32.8333ZM33.3333 57.8333H29.1666V58.8333H33.3333V57.8333ZM29.6666 58.3333V54.1667H28.6666V58.3333H29.6666ZM54.1666 54.6667H58.3333V53.6667H54.1666V54.6667ZM57.8333 54.1667V58.3333H58.8333V54.1667H57.8333ZM58.3333 57.8333H54.1666V58.8333H58.3333V57.8333ZM54.6666 58.3333V54.1667H53.6666V58.3333H54.6666ZM66.6666 54.6667H70.8332V53.6667H66.6666V54.6667ZM70.3332 54.1667V58.3333H71.3332V54.1667H70.3332ZM70.8332 57.8333H66.6666V58.8333H70.8332V57.8333ZM67.1666 58.3333V54.1667H66.1666V58.3333H67.1666ZM41.6666 69.25H45.8333V68.25H41.6666V69.25ZM45.3333 68.75V72.9167H46.3333V68.75H45.3333ZM45.8333 72.4167H41.6666V73.4167H45.8333V72.4167ZM42.1666 72.9167V68.75H41.1666V72.9167H42.1666ZM29.1666 69.25H33.3333V68.25H29.1666V69.25ZM32.8333 68.75V72.9167H33.8333V68.75H32.8333ZM33.3333 72.4167H29.1666V73.4167H33.3333V72.4167ZM29.6666 72.9167V68.75H28.6666V72.9167H29.6666ZM54.1666 69.25H58.3333V68.25H54.1666V69.25ZM57.8333 68.75V72.9167H58.8333V68.75H57.8333ZM58.3333 72.4167H54.1666V73.4167H58.3333V72.4167ZM54.6666 72.9167V68.75H53.6666V72.9167H54.6666ZM66.6666 69.25H70.8332V68.25H66.6666V69.25ZM70.3332 68.75V72.9167H71.3332V68.75H70.3332ZM70.8332 72.4167H66.6666V73.4167H70.8332V72.4167ZM67.1666 72.9167V68.75H66.1666V72.9167H67.1666ZM20.8333 33.8333H79.1666V32.8333H20.8333V33.8333Z" stroke="none" fill="currentColor"/>
</svg>
