<svg width="100" height="100" viewBox="0 0 100 100" fill="none" xmlns="http://www.w3.org/2000/svg">
<path d="M50 61.7195C60.5487 61.7195 69.1 53.1682 69.1 42.6195C69.1 32.0709 60.5487 23.5195 50 23.5195C39.4514 23.5195 30.9 32.0709 30.9 42.6195C30.9 53.1682 39.4514 61.7195 50 61.7195Z" stroke="black" stroke-miterlimit="10"/>
<path d="M50 18.75L53.42 21.01L57.38 19.92L59.93 23.12L64.03 23.31L65.47 27.15L69.31 28.59L69.5 32.69L72.7 35.24L71.61 39.2L73.87 42.62L71.61 46.04L72.7 50L69.5 52.55L69.31 56.65L65.47 58.09L64.03 61.93L59.93 62.12L57.38 65.32L53.42 64.23L50 66.49L46.58 64.23L42.62 65.32L40.07 62.12L35.97 61.93L34.53 58.09L30.69 56.65L30.5 52.55L27.3 50L28.39 46.04L26.13 42.62L28.39 39.2L27.3 35.24L30.5 32.69L30.69 28.59L34.53 27.15L35.97 23.31L40.07 23.12L42.62 19.92L46.58 21.01L50 18.75Z" stroke="black" stroke-miterlimit="10"/>
<path d="M50 33.0703L53.43 38.3503L59.51 39.9803L55.55 44.8803L55.88 51.1603L50 48.9103L44.12 51.1603L44.45 44.8803L40.49 39.9803L46.57 38.3503L50 33.0703Z" stroke="black" stroke-miterlimit="10"/>
<path d="M63.85 61.9102L68.72 76.8002L60.63 75.1002L55.1 81.2502L50.23 66.3702" stroke="black" stroke-miterlimit="10"/>
<path d="M52.2999 65L56.8799 79" stroke="black" stroke-miterlimit="10"/>
<path d="M61.37 62.0303L66.02 76.2303" stroke="black" stroke-miterlimit="10"/>
<path d="M36.12 61.9102L31.25 76.8002L39.34 75.1002L44.86 81.2502L49.73 66.3702" stroke="black" stroke-miterlimit="10"/>
<path d="M47.66 65L43.08 79" stroke="black" stroke-miterlimit="10"/>
<path d="M38.5899 62.0303L33.9399 76.2303" stroke="black" stroke-miterlimit="10"/>
</svg>
