<svg width="100" height="100" viewBox="0 0 100 100" fill="none" xmlns="http://www.w3.org/2000/svg">
<path d="M49.19 46.69C45.23 43.2 37.2 36.75 32 36.75C24.69 36.75 18.75 42.69 18.75 50C18.75 57.31 24.69 63.25 32 63.25C37.19 63.25 44.9 57.1 48.87 53.61C49.01 53.48 49.15 53.35 49.29 53.22C49.62 52.91 49.96 52.61 50.29 52.3C50.68 51.94 51.08 51.58 51.47 51.22C51.55 51.11 51.68 51.03 51.78 50.94C51.89 50.84 51.99 50.75 52.1 50.65C52.31 50.45 52.53 50.26 52.74 50.06C52.76 50.04 52.78 50.02 52.79 50C52.81 49.98 52.82 49.97 52.84 49.95C52.91 49.88 52.97 49.82 53.05 49.75C53.13 49.68 53.2 49.61 53.28 49.54C53.44 49.39 53.61 49.25 53.77 49.11C54.1 48.82 54.43 48.53 54.76 48.25C54.77 48.24 54.78 48.23 54.79 48.22C54.93 48.1 55.06 47.99 55.2 47.87C55.78 47.39 56.36 46.92 56.95 46.45C57.55 45.98 58.15 45.52 58.77 45.07C59.37 44.63 59.98 44.2 60.6 43.78C61.19 43.38 61.79 43 62.4 42.64C62.96 42.3 63.54 41.99 64.13 41.69C64.65 41.43 65.19 41.19 65.73 40.99C66.2 40.82 66.67 40.67 67.16 40.59C67.43 40.54 67.71 40.51 67.98 40.51C73.2 40.51 77.46 44.76 77.46 49.99C77.46 55.22 73.21 59.47 67.98 59.47C64.61 59.47 58.17 54.77 53.64 50.79" stroke="black" stroke-miterlimit="10"/>
<path d="M50.75 53.26C54.58 56.68 62.63 63.25 67.99 63.25C75.3 63.25 81.24 57.31 81.24 50C81.24 42.69 75.3 36.75 67.99 36.75C62.81 36.75 55.13 42.86 51.16 46.37C50.87 46.64 50.58 46.9 50.29 47.17C49.71 47.7 49.14 48.23 48.56 48.75C47.61 49.62 46.68 50.54 45.69 51.37C45.15 51.83 44.61 52.28 44.06 52.72C43.16 53.45 42.23 54.17 41.3 54.86C40.38 55.53 39.45 56.18 38.49 56.78C37.62 57.33 36.73 57.85 35.81 58.31C35.04 58.69 34.25 59.03 33.42 59.26C32.95 59.39 32.47 59.48 31.99 59.48C26.77 59.48 22.51 55.23 22.51 50C22.51 44.77 26.76 40.52 31.99 40.52C35.3 40.52 41.88 45.33 46.4 49.27" stroke="black" stroke-miterlimit="10"/>
</svg>
