<svg width="100" height="101" viewBox="0 0 100 101" fill="none" xmlns="http://www.w3.org/2000/svg">
<path d="M45.4199 43.6894C43.8099 45.4194 42.1499 47.1994 40.4899 48.9894C40.0199 48.7194 39.7499 48.3294 39.3999 48.0194C38.3599 47.0894 37.1999 46.3794 35.8199 46.0594C31.6399 45.0794 28.3799 47.4094 27.2799 51.0894C26.6199 53.2994 26.7399 55.5194 27.7199 57.6194C28.7899 59.9094 30.5999 61.2694 33.1299 61.6494C33.6999 61.7394 34.2699 61.7494 34.8499 61.7494C38.4699 61.7494 42.0999 61.7494 45.7199 61.7494C45.9299 61.7494 46.1399 61.7894 46.3399 61.6994C46.3899 61.5094 46.2499 61.4094 46.1599 61.2894C44.1699 58.6294 43.0399 55.6294 42.6399 52.3494C42.5199 51.4194 42.4699 50.4794 42.5099 49.5394C42.5199 49.2094 42.6299 48.9394 42.8599 48.6994C44.3599 47.0994 45.8599 45.4994 47.3499 43.8894C47.4199 43.8094 47.4799 43.7294 47.5799 43.6194C46.7599 42.6394 45.9199 41.7094 44.9299 40.8794C45.1499 40.2294 45.5399 39.7094 45.9099 39.1994C49.0199 34.8894 53.2399 32.3094 58.4599 31.4594C62.2399 30.8394 65.9599 31.1594 69.5499 32.5794C71.5099 33.3594 73.2899 34.4294 74.8799 35.8194C78.3699 38.8494 80.4199 42.6894 81.0399 47.2394C81.5399 50.8794 81.0999 54.4294 79.5599 57.8094C77.9599 61.3294 75.4899 64.0594 72.1999 66.0594C69.8499 67.4894 67.2799 68.3294 64.5399 68.6694C63.2399 68.8294 61.9399 68.8694 60.6299 68.8694C51.6799 68.8594 42.7199 68.8894 33.7699 68.8494C30.2399 68.8394 27.0099 67.7994 24.2299 65.5594C21.4899 63.3594 19.7399 60.5094 19.0799 57.0694C18.1399 52.2094 19.0799 47.7494 22.3299 43.9094C24.8699 40.9094 28.1499 39.2594 32.0399 38.8394C34.9199 38.5294 37.7399 38.7694 40.4499 39.8894C42.3199 40.6594 43.8899 41.8494 45.2499 43.3294C45.3399 43.4094 45.4099 43.4894 45.4199 43.6894ZM50.9799 50.6094C50.9799 51.6494 51.1199 52.5794 51.6599 54.0994C52.5499 56.5794 54.0899 58.5494 56.3699 59.8894C58.4599 61.1194 60.7199 61.5894 63.1399 61.3194C66.5399 60.9394 69.1899 59.3194 71.0199 56.4394C72.5099 54.0994 73.0399 51.5094 72.7399 48.7494C72.3799 45.4294 70.9699 42.6794 68.2699 40.6894C65.7299 38.8094 62.8399 38.2494 59.7499 38.7994C56.7399 39.3394 54.4199 40.9494 52.7699 43.4994C51.5199 45.4494 50.9499 47.5994 50.9799 50.6094Z" stroke-miterlimit="10"/>
</svg>
