<svg width="100" height="101" viewBox="0 0 100 101" fill="none" xmlns="http://www.w3.org/2000/svg">
<path d="M62.88 62.88H71.79C77.02 62.88 81.26 58.64 81.26 53.41C81.26 48.18 77.02 43.94 71.79 43.94C71.79 38.71 67.55 34.47 62.32 34.47C59.07 34.47 56.2 36.11 54.49 38.61C53.34 33 48.38 28.79 42.43 28.79C35.63 28.79 30.12 34.3 30.12 41.1C30.12 42.18 30.26 43.23 30.52 44.23C29.78 44.05 29.02 43.94 28.22 43.94C22.99 43.94 18.75 48.18 18.75 53.41C18.75 58.64 22.99 62.88 28.22 62.88H37.49H62.88V62.88Z" stroke="black" stroke-miterlimit="10"/>
<path d="M62.5 47.9298V25.0098H75" stroke="black" stroke-miterlimit="10"/>
<path d="M41.66 54.1797V70.8397H31.25" stroke="black" stroke-miterlimit="10"/>
<path d="M56.25 58.3398V77.0898" stroke="black" stroke-miterlimit="10"/>
<path d="M60.41 54.1797V68.7597H68.75" stroke="black" stroke-miterlimit="10"/>
<path d="M37.5 39.5898V20.8398H27.08" stroke="black" stroke-miterlimit="10"/>
<path d="M25 22.9198C26.1487 22.9198 27.08 21.9885 27.08 20.8398C27.08 19.691 26.1487 18.7598 25 18.7598C23.8512 18.7598 22.92 19.691 22.92 20.8398C22.92 21.9885 23.8512 22.9198 25 22.9198Z" stroke="black" stroke-miterlimit="10"/>
<path d="M77.08 27.0897C78.2287 27.0897 79.16 26.1584 79.16 25.0097C79.16 23.8609 78.2287 22.9297 77.08 22.9297C75.9312 22.9297 75 23.8609 75 25.0097C75 26.1584 75.9312 27.0897 77.08 27.0897Z" stroke="black" stroke-miterlimit="10"/>
<path d="M70.83 70.8397C71.9787 70.8397 72.91 69.9084 72.91 68.7597C72.91 67.6109 71.9787 66.6797 70.83 66.6797C69.6812 66.6797 68.75 67.6109 68.75 68.7597C68.75 69.9084 69.6812 70.8397 70.83 70.8397Z" stroke="black" stroke-miterlimit="10"/>
<path d="M56.25 81.2596C57.3987 81.2596 58.33 80.3284 58.33 79.1796C58.33 78.0309 57.3987 77.0996 56.25 77.0996C55.1012 77.0996 54.17 78.0309 54.17 79.1796C54.17 80.3284 55.1012 81.2596 56.25 81.2596Z" stroke="black" stroke-miterlimit="10"/>
<path d="M29.16 72.9198C30.3087 72.9198 31.24 71.9885 31.24 70.8398C31.24 69.691 30.3087 68.7598 29.16 68.7598C28.0112 68.7598 27.08 69.691 27.08 70.8398C27.08 71.9885 28.0112 72.9198 29.16 72.9198Z" stroke="black" stroke-miterlimit="10"/>
</svg>
