<svg width="100" height="101" viewBox="0 0 100 101" fill="none" xmlns="http://www.w3.org/2000/svg">
<path d="M62.88 62.88H71.79C77.02 62.88 81.26 58.64 81.26 53.41C81.26 48.18 77.02 43.94 71.79 43.94C71.79 38.71 67.55 34.47 62.32 34.47C59.07 34.47 56.2 36.11 54.49 38.61C53.34 33 48.38 28.79 42.43 28.79C35.63 28.79 30.12 34.3 30.12 41.1C30.12 42.18 30.26 43.23 30.52 44.23C29.78 44.05 29.02 43.94 28.22 43.94C22.99 43.94 18.75 48.18 18.75 53.41C18.75 58.64 22.99 62.88 28.22 62.88H37.49"  stroke-miterlimit="10"/>
<path d="M50.01 79.1798V52.0898"  stroke-miterlimit="10"/>
<path d="M45.84 56.2598L50.01 52.0898L54.17 56.2598"  stroke-miterlimit="10"/>
</svg>
