<svg width="100" height="101" viewBox="0 0 100 101" fill="none" xmlns="http://www.w3.org/2000/svg">
<path d="M62.88 62.88H71.79C77.02 62.88 81.26 58.64 81.26 53.41C81.26 48.18 77.02 43.94 71.79 43.94C71.79 38.71 67.55 34.47 62.32 34.47C59.07 34.47 56.2 36.11 54.49 38.61C53.34 33 48.38 28.79 42.43 28.79C35.63 28.79 30.12 34.3 30.12 41.1C30.12 42.18 30.26 43.23 30.52 44.23C29.78 44.05 29.02 43.94 28.22 43.94C22.99 43.94 18.75 48.18 18.75 53.41C18.75 58.64 22.99 62.88 28.22 62.88H37.49" stroke="black" stroke-miterlimit="10"/>
<path d="M60.8 65.0298V60.7298H58.26C58.11 60.0398 57.88 59.3798 57.57 58.7698L59.28 57.0598L56.24 54.0198L54.66 55.5998C54.02 55.1998 53.31 54.8798 52.56 54.6798V52.5098H48.26V54.6798C47.51 54.8898 46.81 55.1998 46.16 55.5998L44.58 54.0198L41.54 57.0598L43.25 58.7698C42.94 59.3798 42.7 60.0398 42.56 60.7298H40.02V65.0298H42.84C43.04 65.5998 43.3 66.1298 43.61 66.6298L41.54 68.6998L44.58 71.7398L46.79 69.5298C47.26 69.7698 47.75 69.9598 48.26 70.0998V73.2598H52.56V70.1098C53.07 69.9698 53.56 69.7798 54.03 69.5398L56.24 71.7498L59.28 68.7098L57.21 66.6398C57.52 66.1398 57.78 65.5998 57.98 65.0398H60.8V65.0298Z" stroke="black" stroke-miterlimit="10"/>
<path d="M50.42 66.8298C52.7065 66.8298 54.56 64.9763 54.56 62.6898C54.56 60.4033 52.7065 58.5498 50.42 58.5498C48.1336 58.5498 46.28 60.4033 46.28 62.6898C46.28 64.9763 48.1336 66.8298 50.42 66.8298Z" stroke="black" stroke-miterlimit="10"/>
</svg>
