<svg width="101" height="100" viewBox="0 0 101 100" fill="none" xmlns="http://www.w3.org/2000/svg">
<path d="M20.23 74.29V76.05C20.23 76.62 20.69 77.08 21.26 77.08H80.11C80.68 77.08 81.14 76.62 81.14 76.05V74.13M74.3 25H27.08C25.16 25 23.61 26.46 23.61 28.26V55.07C23.61 56.87 25.17 58.33 27.08 58.33H74.3C76.22 58.33 77.77 56.87 77.77 55.07V28.26C77.77 26.46 76.22 25 74.3 25ZM75.91 54.89C75.91 55.82 75.11 56.58 74.11 56.58H27.27C26.28 56.58 25.47 55.82 25.47 54.89V28.44C25.47 27.51 26.27 26.75 27.27 26.75H44.18C44.31 27.74 45.2 28.5 46.29 28.5H55.09C56.18 28.5 57.07 27.73 57.2 26.75H74.11C75.1 26.75 75.91 27.51 75.91 28.44V54.89ZM51.11 26.64C51.11 26.8609 50.922 27.04 50.69 27.04C50.458 27.04 50.27 26.8609 50.27 26.64C50.27 26.4191 50.458 26.24 50.69 26.24C50.922 26.24 51.11 26.4191 51.11 26.64ZM80.41 75H20.96C20.34 75 20 74.29 20.39 73.81L27.55 64.86C27.69 64.69 27.9 64.58 28.12 64.58H73.25C73.47 64.58 73.68 64.68 73.82 64.86L80.98 73.81C81.37 74.29 81.03 75 80.41 75ZM68.03 72.35H25.84C25.24 72.35 24.89 71.67 25.24 71.19L28.62 66.5C28.76 66.31 28.98 66.2 29.22 66.2H65.64C65.92 66.2 66.17 66.35 66.29 66.6L68.68 71.29C68.93 71.77 68.58 72.35 68.03 72.35ZM75.73 72.35H71.73C71.47 72.35 71.22 72.21 71.09 71.98L68.44 67.29C68.16 66.8 68.52 66.19 69.08 66.19H72.32C72.55 66.19 72.78 66.3 72.91 66.49L76.32 71.18C76.68 71.67 76.33 72.35 75.73 72.35ZM48.61 58.33H52.78V64.58H48.61V58.33Z" stroke-miterlimit="10"/>
</svg>
