<svg width="100" height="101" viewBox="0 0 100 101" fill="none" xmlns="http://www.w3.org/2000/svg">
<path d="M50 39.5998C66.1101 39.5998 79.17 34.9346 79.17 29.1798C79.17 23.425 66.1101 18.7598 50 18.7598C33.8898 18.7598 20.83 23.425 20.83 29.1798C20.83 34.9346 33.8898 39.5998 50 39.5998Z" stroke="black" stroke-miterlimit="10"/>
<path d="M20.84 29.1797V70.8497C20.84 76.5997 33.9 81.2697 50.01 81.2697C66.12 81.2697 79.18 76.6097 79.18 70.8497V29.1797" stroke="black" stroke-miterlimit="10"/>
<path d="M20.84 42.7197C20.84 48.4697 33.9 53.1397 50.01 53.1397C66.12 53.1397 79.18 48.4797 79.18 42.7197" stroke="black" stroke-miterlimit="10"/>
<path d="M20.84 57.3398C20.84 63.0898 33.9 67.7598 50.01 67.7598C66.12 67.7598 79.18 63.0998 79.18 57.3398" stroke="black" stroke-miterlimit="10"/>
</svg>
