<svg width="15" height="15" viewBox="0 0 15 15" fill="none" xmlns="http://www.w3.org/2000/svg">
<path d="M0.9375 3.75H14.0625M0.9375 2.25H14.0625V12.75H0.9375L0.9375 2.25ZM5.625 6.03125H6.5625V6.96875H5.625V6.03125ZM2.8125 6.03125H3.75V6.96875H2.8125V6.03125ZM8.4375 6.03125H9.375V6.96875H8.4375V6.03125ZM11.25 6.03125H12.1875V6.96875H11.25V6.03125ZM5.625 9.3125H6.5625V10.25H5.625V9.3125ZM2.8125 9.3125H3.75V10.25H2.8125V9.3125ZM8.4375 9.3125H9.375V10.25H8.4375V9.3125ZM11.25 9.3125H12.1875V10.25H11.25V9.3125Z" stroke="black" stroke-width="0.5" stroke-miterlimit="10"/>
</svg>
