<svg width="100" height="100" viewBox="0 0 100 100" fill="none" xmlns="http://www.w3.org/2000/svg">
<path d="M64.58 68.75C64.58 28.47 52.08 18.75 52.08 18.75C52.08 18.75 39.58 28.47 39.58 68.75H64.58Z" stroke="black" stroke-miterlimit="10"/>
<path d="M52.08 50C55.5318 50 58.33 47.2018 58.33 43.75C58.33 40.2982 55.5318 37.5 52.08 37.5C48.6282 37.5 45.83 40.2982 45.83 43.75C45.83 47.2018 48.6282 50 52.08 50Z" stroke="black" stroke-miterlimit="10"/>
<path d="M39.59 66.6699H29.16V65.0199C29.16 59.0299 34.02 54.1699 40.01 54.1699" stroke="black" stroke-miterlimit="10"/>
<path d="M64.58 66.6699H75.01V65.0199C75.01 59.0299 70.15 54.1699 64.16 54.1699" stroke="black" stroke-miterlimit="10"/>
<path d="M41.67 68.75V70.83H62.5V68.75" stroke="black" stroke-miterlimit="10"/>
<path d="M47.92 70.8301C47.92 70.8301 48.09 77.9901 52.09 81.2501C52.09 81.2501 55.77 79.5101 56.26 70.8301" stroke="black" stroke-miterlimit="10"/>
<path d="M50.12 70.8301C50.12 70.8301 50.2 74.2001 52.08 75.7301C52.08 75.7301 53.81 74.9101 54.04 70.8301" stroke="black" stroke-miterlimit="10"/>
<path d="M41.67 74.21V81.25" stroke="black" stroke-miterlimit="10"/>
<path d="M43.75 77.7305V81.2505" stroke="black" stroke-miterlimit="10"/>
<path d="M62.5 73.2803V77.7303" stroke="black" stroke-miterlimit="10"/>
<path d="M60.42 77.7305V81.2505" stroke="black" stroke-miterlimit="10"/>
<path d="M32.88 68.75V75" stroke="black" stroke-miterlimit="10"/>
<path d="M70.83 70.4297V74.2097" stroke="black" stroke-miterlimit="10"/>
<path d="M37.5 46.8501V39.5801" stroke="black" stroke-miterlimit="10"/>
<path d="M68.75 27.0801V35.4201" stroke="black" stroke-miterlimit="10"/>
<path d="M66 35.4199V42.5999" stroke="black" stroke-miterlimit="10"/>
</svg>
