<svg width="100" height="100" viewBox="0 0 100 100" fill="none" xmlns="http://www.w3.org/2000/svg">
<path d="M50 74.375C50 60.5625 38.8125 49.375 25 49.375C38.8125 49.375 50 38.1875 50 24.375C50 38.1875 61.1875 49.375 75 49.375C61.1875 49.375 50 60.5625 50 74.375Z" stroke-miterlimit="10"/>
<path d="M72.9167 34.7917C72.9167 30.1875 69.1875 26.4583 64.5833 26.4583C69.1875 26.4583 72.9167 22.7292 72.9167 18.125C72.9167 22.7292 76.6458 26.4583 81.25 26.4583C76.6458 26.4583 72.9167 30.1875 72.9167 34.7917Z" stroke-miterlimit="10"/>
<path d="M27.0833 80.625C27.0833 76.0208 23.3542 72.2917 18.75 72.2917C23.3542 72.2917 27.0833 68.5625 27.0833 63.9583C27.0833 68.5625 30.8125 72.2917 35.4167 72.2917C30.8125 72.2917 27.0833 76.0208 27.0833 80.625Z" stroke-miterlimit="10"/>
</svg>
