<svg width="345" height="345" viewBox="0 0 345 345" fill="none" xmlns="http://www.w3.org/2000/svg">
<path fill-rule="evenodd" clip-rule="evenodd" d="M165.187 63.0411C185.62 58.3625 203.75 73.8295 203.75 93.4377C203.75 101.818 200.379 109.313 195.174 114.906L195.165 114.916L195.156 114.926C190.094 120.251 187.363 127.527 187.363 134.981V139.063H157.709V133.831C157.709 126.968 155.377 120.329 150.699 115.71C143.269 108.508 139.535 97.7138 142.101 86.2092L142.103 86.1985C144.686 74.8492 153.819 65.6291 165.187 63.0411ZM198.75 93.4377C198.75 76.965 183.531 63.9697 166.302 67.9152L166.299 67.916C156.825 70.072 149.142 77.8116 146.98 87.303C144.804 97.0669 147.967 106.103 154.186 112.126L154.194 112.134L154.202 112.142C160.013 117.873 162.709 125.892 162.709 133.831V134.063H182.374C182.59 125.738 185.735 117.584 191.523 111.491C195.944 106.735 198.75 100.434 198.75 93.4377ZM76.4906 166.175C76.4906 148.91 90.4755 134.925 107.741 134.925C125.006 134.925 138.991 148.91 138.991 166.175C138.991 175.793 134.652 184.259 127.907 189.971C132.983 192.461 137.531 195.881 141.321 199.985C142.414 183.713 155.95 170.863 172.5 170.863C189.05 170.863 202.586 183.713 203.679 199.986C207.46 195.891 211.997 192.477 217.059 189.988C210.264 184.298 205.938 175.777 205.938 166.175C205.938 148.91 219.923 134.925 237.188 134.925C254.453 134.925 268.438 148.91 268.438 166.175C268.438 175.734 264.096 184.249 257.343 189.977C272.414 197.392 282.813 212.904 282.813 230.863V244.375H277.813V230.863C277.813 213.469 266.849 198.638 251.477 192.882L246.747 191.111L251.023 188.424C258.463 183.749 263.438 175.541 263.438 166.175C263.438 151.671 251.691 139.925 237.188 139.925C222.684 139.925 210.938 151.671 210.938 166.175C210.938 175.616 215.915 183.813 223.402 188.41L227.779 191.098L222.964 192.885C214.687 195.955 207.65 201.734 202.975 209.047C201.443 215.773 197.731 221.623 192.658 225.915C207.727 233.332 218.125 248.843 218.125 266.8V280.313H213.125V266.8C213.125 249.406 202.162 234.576 186.789 228.819L182.059 227.048L186.336 224.361C193.778 219.685 198.75 211.547 198.75 202.113C198.75 187.609 187.004 175.863 172.5 175.863C157.996 175.863 146.25 187.609 146.25 202.113C146.25 211.478 151.225 219.687 158.664 224.361L162.92 227.035L158.22 228.816C142.833 234.646 131.875 249.413 131.875 266.8V280.313H126.875V266.8C126.875 248.829 137.286 233.38 152.356 225.923C147.286 221.628 143.574 215.762 142.035 209.062C137.36 201.742 130.319 195.957 122.037 192.885L117.283 191.121L121.576 188.424C129.019 183.748 133.991 175.609 133.991 166.175C133.991 151.671 122.244 139.925 107.741 139.925C93.237 139.925 81.4906 151.671 81.4906 166.175C81.4906 175.541 86.4655 183.749 93.905 188.424L98.153 191.093L93.4641 192.877C78.1476 198.706 67.1875 213.473 67.1875 230.863V244.375H62.1875V230.863C62.1875 212.896 72.5939 197.449 87.6021 189.991C80.8393 184.263 76.4906 175.742 76.4906 166.175ZM184.144 146.25H160.784V141.25H184.144V146.25ZM184.144 153.438H160.784V148.438H184.144V153.438ZM180.263 160.625H164.666V155.625H180.263V160.625Z" fill="#826CDD"/>
</svg>
