<svg width="100" height="100" viewBox="0 0 100 100" fill="none" xmlns="http://www.w3.org/2000/svg">
<path d="M43.71 81.2402V56.2402C43.71 50.8802 40.33 46.3302 35.6 44.5502C37.96 43.0802 39.55 40.4802 39.55 37.4902C39.55 32.8902 35.82 29.1602 31.22 29.1602C26.62 29.1602 22.89 32.8902 22.89 37.4902C22.89 40.4802 24.47 43.0802 26.84 44.5502C22.1 46.3302 18.73 50.8902 18.73 56.2402V81.2402M69 30.9902L60.16 39.8302M69 39.8302L60.16 30.9902M77.19 35.4102C77.19 42.3137 71.5936 47.9102 64.69 47.9102C57.7865 47.9102 52.19 42.3137 52.19 35.4102C52.19 28.5066 57.7865 22.9102 64.69 22.9102C71.5936 22.9102 77.19 28.5066 77.19 35.4102ZM59.33 52.1402V71.0102H54.9L64.78 79.1602L74.66 71.0102H70.23V52.1402H59.33Z" stroke="black" stroke-miterlimit="10"/>
</svg>
