<svg width="30" height="30" viewBox="0 0 30 30" fill="none" xmlns="http://www.w3.org/2000/svg">
<path d="M2.8125 6.5625H19.6875M19.6875 6.5625C19.6875 7.59803 20.527 8.4375 21.5625 8.4375C22.598 8.4375 23.4375 7.59803 23.4375 6.5625M19.6875 6.5625C19.6875 5.52697 20.527 4.6875 21.5625 4.6875C22.598 4.6875 23.4375 5.52697 23.4375 6.5625M2.8125 23.4375H14.0625M14.0625 23.4375C14.0625 24.473 14.902 25.3125 15.9375 25.3125C16.973 25.3125 17.8125 24.473 17.8125 23.4375M14.0625 23.4375C14.0625 22.402 14.902 21.5625 15.9375 21.5625C16.973 21.5625 17.8125 22.402 17.8125 23.4375M2.8125 15H5.625M5.625 15C5.625 16.0355 6.46447 16.875 7.5 16.875C8.53553 16.875 9.375 16.0355 9.375 15M5.625 15C5.625 13.9645 6.46447 13.125 7.5 13.125C8.53553 13.125 9.375 13.9645 9.375 15M23.4375 6.5625H27.1875M9.375 15H27.1875M17.8125 23.4375H27.1875" stroke="black" stroke-width="0.72" stroke-miterlimit="10"/>
</svg>
