<svg width="100" height="101" viewBox="0 0 100 101" fill="none" xmlns="http://www.w3.org/2000/svg">
<path d="M20.83 67.8298V79.1798H32.18M20.83 67.8298L24.07 64.5898H35.42M20.83 67.8298H32.18M32.18 79.1798L35.42 75.9398V64.5898M32.18 79.1798V67.8298M35.42 64.5898L32.18 67.8298M64.58 67.8298V79.1798H75.93M64.58 67.8298L67.82 64.5898H79.17M64.58 67.8298H75.93M75.93 79.1798L79.17 75.9398V64.5898M75.93 79.1798V67.8298M79.17 64.5898L75.93 67.8298M20.83 24.0798V35.4298H32.18M20.83 24.0798L24.07 20.8398H35.42M20.83 24.0798H32.18M32.18 35.4298L35.42 32.1898V20.8398M32.18 35.4298V24.0798M35.42 20.8398L32.18 24.0798M64.58 24.0798V35.4298H75.93M64.58 24.0798L67.82 20.8398H79.17M64.58 24.0798H75.93M75.93 35.4298L79.17 32.1898V20.8398M75.93 35.4298V24.0798M79.17 20.8398L75.93 24.0798M33.8 28.1298H64.58M71.88 66.2098V35.4298M28.13 66.2098V35.4298M33.8 71.9298H64.58" stroke-miterlimit="10"/>
</svg>
