<svg width="100" height="101" viewBox="0 0 100 101" fill="none" xmlns="http://www.w3.org/2000/svg">
<path d="M50 81.2598C67.2589 81.2598 81.25 67.2687 81.25 50.0098C81.25 32.7509 67.2589 18.7598 50 18.7598C32.7411 18.7598 18.75 32.7509 18.75 50.0098C18.75 67.2687 32.7411 81.2598 50 81.2598Z" stroke="black" stroke-miterlimit="10"/>
<path d="M38.34 58.3398C40.86 62.1098 45.16 64.5898 50.03 64.5898C54.88 64.5898 59.16 62.1298 61.69 58.3898" stroke="black" stroke-miterlimit="10"/>
<path d="M37.5 47.9298C39.803 47.9298 41.67 46.0629 41.67 43.7598C41.67 41.4568 39.803 39.5898 37.5 39.5898C35.1969 39.5898 33.33 41.4568 33.33 43.7598C33.33 46.0629 35.1969 47.9298 37.5 47.9298Z" fill="black"/>
<path d="M62.5 47.9298C64.803 47.9298 66.67 46.0629 66.67 43.7598C66.67 41.4568 64.803 39.5898 62.5 39.5898C60.1969 39.5898 58.33 41.4568 58.33 43.7598C58.33 46.0629 60.1969 47.9298 62.5 47.9298Z" fill="black"/>
</svg>
