<svg width="100" height="100" viewBox="0 0 100 100" fill="none" xmlns="http://www.w3.org/2000/svg">
<path d="M50 20.833V24.9788M81.25 52.083H77.0833M22.9167 52.083H18.75M72.104 74.1872L69.1457 71.2288M30.8539 32.9372L27.8956 29.9789M27.8956 74.1872L30.8539 71.2288M69.1457 32.9372L72.104 29.9789M43.75 74.9788H56.25M43.75 79.1455H56.25M45.8333 83.3121H54.1667M64.6043 47.8955C64.6043 39.7496 57.9376 33.1871 49.7709 33.3121C42.1668 33.4371 35.7293 39.7496 35.4376 47.3538C35.2918 51.4163 36.7918 55.1038 39.3543 57.833C42.2501 60.9163 43.7501 65.0621 43.7501 69.2913V70.8121H56.2501V70.0413C56.2501 65.458 57.8543 60.9996 60.8959 57.583C63.2084 55.0205 64.6043 51.6246 64.6043 47.8955Z" stroke-miterlimit="10"/>
</svg>
