<svg width="100" height="100" viewBox="0 0 100 100" fill="none" xmlns="http://www.w3.org/2000/svg">
<path fill-rule="evenodd" clip-rule="evenodd" d="M18.28 34.5403C18.28 32.1645 20.3345 30.2803 22.79 30.2803H77.26C79.7187 30.2803 81.7586 32.1669 81.77 34.5479L81.77 34.5503L81.77 65.4603C81.77 67.8361 79.7155 69.7203 77.26 69.7203H22.79C20.3245 69.7203 18.28 67.8461 18.28 65.4603V34.5403ZM22.79 31.2803C20.8255 31.2803 19.28 32.7761 19.28 34.5403V65.4603C19.28 67.2344 20.8155 68.7203 22.79 68.7203H77.26C79.2245 68.7203 80.77 67.2245 80.77 65.4603V34.5512C80.7606 32.7728 79.2207 31.2803 77.26 31.2803H22.79ZM50.0244 32.6966C50.0278 32.6889 50.03 32.6796 50.03 32.6703C50.03 32.661 50.0278 32.6516 50.0244 32.6439C50.0229 32.6407 50.0214 32.6381 50.02 32.6361C50.0186 32.6381 50.0171 32.6407 50.0156 32.6439C50.0122 32.6516 50.01 32.661 50.01 32.6703C50.01 32.6796 50.0122 32.6889 50.0156 32.6966C50.0171 32.6998 50.0186 32.7024 50.02 32.7045C50.0214 32.7024 50.0229 32.6998 50.0244 32.6966ZM49.03 32.6703C49.03 32.1108 49.5035 31.7103 50.02 31.7103C50.5365 31.7103 51.01 32.1108 51.01 32.6703C51.01 33.2298 50.5365 33.6303 50.02 33.6303C49.5035 33.6303 49.03 33.2298 49.03 32.6703ZM23.01 33.3003C22.1166 33.3003 21.44 33.9751 21.44 34.7503V65.2603C21.44 66.0354 22.1166 66.7103 23.01 66.7103H39.99V59.7903C39.99 55.8171 42.3052 52.3856 45.6592 50.7688C44.1396 49.5181 43.16 47.6317 43.16 45.5003C43.16 41.7141 46.2239 38.6503 50.01 38.6503C53.7962 38.6503 56.86 41.7141 56.86 45.5003C56.86 47.6323 55.8798 49.5193 54.3594 50.77C57.7132 52.3927 60.03 55.8154 60.03 59.7903V66.7103H77.04C77.9335 66.7103 78.61 66.0354 78.61 65.2603V64.7603H78.63V34.7503C78.63 33.9751 77.9535 33.3003 77.06 33.3003H57.949C57.5833 34.4814 56.4459 35.3203 55.11 35.3203H44.96C43.6241 35.3203 42.4867 34.4814 42.121 33.3003H23.01ZM79.5571 65.7603H79.63V34.7503C79.63 33.3654 78.4465 32.3003 77.06 32.3003H57.1153L57.0549 32.7308C56.9317 33.6082 56.1369 34.3203 55.11 34.3203H44.96C43.9331 34.3203 43.1383 33.6082 43.0152 32.7308L42.9547 32.3003H23.01C21.6235 32.3003 20.44 33.3654 20.44 34.7503V65.2603C20.44 66.6451 21.6235 67.7103 23.01 67.7103H77.04C78.2543 67.7103 79.3128 66.8934 79.5571 65.7603ZM59.03 66.7103V59.7903C59.03 55.9265 56.5966 52.6377 53.1737 51.3482L52.2256 50.991L53.0859 50.4557C54.748 49.4215 55.86 47.5973 55.86 45.5003C55.86 42.2664 53.2439 39.6503 50.01 39.6503C46.7762 39.6503 44.16 42.2664 44.16 45.5003C44.16 47.5973 45.272 49.4215 46.9341 50.4557L47.797 50.9926L46.8451 51.3486C43.4241 52.6279 40.99 55.9256 40.99 59.7903V66.7103H59.03ZM48.59 46.9603C48.59 47.7341 49.2161 48.3603 49.99 48.3603C50.7639 48.3603 51.39 47.7341 51.39 46.9603H52.39C52.39 48.2864 51.3162 49.3603 49.99 49.3603C48.6639 49.3603 47.59 48.2864 47.59 46.9603H48.59Z"/>
</svg>
