<svg width="100" height="100" viewBox="0 0 100 100" fill="none" xmlns="http://www.w3.org/2000/svg">
<path d="M43.7083 81.2294V56.2294C43.7083 50.8753 40.3333 46.3128 35.6041 44.5419C37.9583 43.0628 39.5416 40.4794 39.5416 37.4794C39.5416 32.8753 35.8125 29.1461 31.2083 29.1461C26.6041 29.1461 22.875 32.8753 22.875 37.4794C22.875 40.4586 24.4583 43.0628 26.8125 44.5419C22.0833 46.3128 18.7083 50.8753 18.7083 56.2294V81.2294M64.5625 50C64.5625 54.6024 68.2935 58.3333 72.8958 58.3333C77.4982 58.3333 81.2292 54.6024 81.2292 50C81.2292 45.3976 77.4982 41.6667 72.8958 41.6667C68.2935 41.6667 64.5625 45.3976 64.5625 50ZM64.5625 50H58.3333M60.7708 32.9793L45.8333 47.9167M60.7708 67.0208L52.0833 58.3333M75 27.0833C75 31.6857 71.269 35.4167 66.6667 35.4167C62.0643 35.4167 58.3333 31.6857 58.3333 27.0833C58.3333 22.481 62.0643 18.75 66.6667 18.75C71.269 18.75 75 22.481 75 27.0833ZM75 72.9167C75 77.519 71.269 81.25 66.6667 81.25C62.0643 81.25 58.3333 77.519 58.3333 72.9167C58.3333 68.3143 62.0643 64.5833 66.6667 64.5833C71.269 64.5833 75 68.3143 75 72.9167Z" stroke="black" stroke-miterlimit="10"/>
</svg>
