<svg width="100" height="101" viewBox="0 0 100 101" fill="none" xmlns="http://www.w3.org/2000/svg">
<path d="M49.9 69C60.2554 69 68.65 60.6053 68.65 50.25C68.65 39.8947 60.2554 31.5 49.9 31.5C39.5447 31.5 31.15 39.8947 31.15 50.25C31.15 60.6053 39.5447 69 49.9 69Z" stroke-miterlimit="10"/>
<path d="M24.9 25.0098H39.45V34.6498" stroke-miterlimit="10"/>
<path d="M22.82 27.0897C23.9687 27.0897 24.9 26.1584 24.9 25.0097C24.9 23.8609 23.9687 22.9297 22.82 22.9297C21.6712 22.9297 20.74 23.8609 20.74 25.0097C20.74 26.1584 21.6712 27.0897 22.82 27.0897Z" stroke-miterlimit="10"/>
<path d="M22.82 52.0897C23.9687 52.0897 24.9 51.1584 24.9 50.0097C24.9 48.8609 23.9687 47.9297 22.82 47.9297C21.6712 47.9297 20.74 48.8609 20.74 50.0097C20.74 51.1584 21.6712 52.0897 22.82 52.0897Z" stroke-miterlimit="10"/>
<path d="M22.82 77.0897C23.9687 77.0897 24.9 76.1585 24.9 75.0097C24.9 73.861 23.9687 72.9297 22.82 72.9297C21.6712 72.9297 20.74 73.861 20.74 75.0097C20.74 76.1585 21.6712 77.0897 22.82 77.0897Z" stroke-miterlimit="10"/>
<path d="M24.9 50.0098H31.15" stroke-miterlimit="10"/>
<path d="M24.9 75.0098H41.57V67.0498" stroke-miterlimit="10"/>
<path d="M74.9 75.0096H60.36V65.8096" stroke-miterlimit="10"/>
<path d="M76.99 77.0897C78.1388 77.0897 79.07 76.1585 79.07 75.0097C79.07 73.861 78.1388 72.9297 76.99 72.9297C75.8413 72.9297 74.91 73.861 74.91 75.0097C74.91 76.1585 75.8413 77.0897 76.99 77.0897Z" stroke-miterlimit="10"/>
<path d="M76.99 52.0897C78.1388 52.0897 79.07 51.1584 79.07 50.0097C79.07 48.8609 78.1388 47.9297 76.99 47.9297C75.8413 47.9297 74.91 48.8609 74.91 50.0097C74.91 51.1584 75.8413 52.0897 76.99 52.0897Z" stroke-miterlimit="10"/>
<path d="M76.99 27.0897C78.1388 27.0897 79.07 26.1584 79.07 25.0097C79.07 23.8609 78.1388 22.9297 76.99 22.9297C75.8413 22.9297 74.91 23.8609 74.91 25.0097C74.91 26.1584 75.8413 27.0897 76.99 27.0897Z" stroke-miterlimit="10"/>
<path d="M74.9 50.0098H68.66" stroke-miterlimit="10"/>
<path d="M74.9 25.0098H58.24V33.3398" stroke-miterlimit="10"/>
<path d="M41.22 46H43.16V54.4H41.22V46Z" stroke="none" fill="currentColor"/>
<path d="M46.26 54.0698C45.72 53.7898 45.3 53.3898 44.99 52.8898C44.68 52.3898 44.53 51.8098 44.53 51.1698C44.53 50.5298 44.68 49.9598 44.99 49.4498C45.3 48.9398 45.72 48.5498 46.26 48.2698C46.8 47.9898 47.41 47.8398 48.09 47.8398C48.77 47.8398 49.38 47.9798 49.91 48.2698C50.44 48.5598 50.87 48.9498 51.17 49.4498C51.47 49.9498 51.63 50.5298 51.63 51.1698C51.63 51.8098 51.48 52.3798 51.17 52.8898C50.87 53.3898 50.45 53.7898 49.91 54.0698C49.37 54.3498 48.77 54.4998 48.09 54.4998C47.41 54.4898 46.8 54.3498 46.26 54.0698ZM49.27 52.4698C49.58 52.1498 49.73 51.7098 49.73 51.1698C49.73 50.6298 49.58 50.1898 49.27 49.8698C48.96 49.5498 48.57 49.3798 48.09 49.3798C47.61 49.3798 47.21 49.5398 46.9 49.8698C46.59 50.1898 46.43 50.6298 46.43 51.1698C46.43 51.7098 46.59 52.1498 46.9 52.4698C47.21 52.7898 47.61 52.9598 48.09 52.9598C48.57 52.9598 48.97 52.7998 49.27 52.4698Z" fill="currentColor" stroke="none"/>
<path d="M53.96 47.58H51.27V46H58.59V47.58H55.9V54.4H53.96V47.58Z" stroke="none" fill="currentColor"/>
</svg>
