<svg width="100" height="100" viewBox="0 0 100 100" fill="none" xmlns="http://www.w3.org/2000/svg">
<path d="M31.2292 24.9997C31.2292 28.4399 28.4403 31.2288 25 31.2288C21.5597 31.2288 18.7708 28.4399 18.7708 24.9997C18.7708 21.5594 21.5597 18.7705 25 18.7705C28.4403 18.7705 31.2292 21.5594 31.2292 24.9997ZM31.2292 24.9997H43.7708M56.2292 24.9997C56.2292 28.4399 53.4403 31.2288 50 31.2288C46.5597 31.2288 43.7708 28.4399 43.7708 24.9997M56.2292 24.9997C56.2292 21.5594 53.4403 18.7705 50 18.7705C46.5597 18.7705 43.7708 21.5594 43.7708 24.9997M56.2292 24.9997L68.75 24.9999C75.6458 24.9999 81.25 30.6041 81.25 37.4999C81.25 44.3958 75.6458 49.9999 68.75 49.9999L68.7292 49.9997M68.7292 49.9997C68.7292 53.44 65.9403 56.2288 62.5 56.2288C59.0597 56.2288 56.2708 53.44 56.2708 49.9997M68.7292 49.9997C68.7292 46.5594 65.9403 43.7705 62.5 43.7705C59.0597 43.7705 56.2708 46.5594 56.2708 49.9997M56.2708 49.9997H43.7292M43.7292 49.9997C43.7292 53.44 40.9403 56.2288 37.5 56.2288C34.0597 56.2288 31.2708 53.44 31.2708 49.9997M43.7292 49.9997C43.7292 46.5594 40.9403 43.7705 37.5 43.7705C34.0597 43.7705 31.2708 46.5594 31.2708 49.9997M31.2708 49.9997C24.3542 49.9997 18.75 55.6041 18.75 62.5208C18.75 69.4374 24.3542 75.0416 31.2708 75.0416H43.7917M56.2292 74.9997C56.2292 78.4399 53.4403 81.2288 50 81.2288C46.5597 81.2288 43.7708 78.4399 43.7708 74.9997C43.7708 71.5594 46.5597 68.7705 50 68.7705C53.4403 68.7705 56.2292 71.5594 56.2292 74.9997ZM56.2292 74.9997L68.7292 74.9999M81.25 75.0208C81.25 78.461 78.4611 81.2499 75.0208 81.2499C71.5806 81.2499 68.7917 78.461 68.7917 75.0208C68.7917 71.5805 71.5806 68.7916 75.0208 68.7916C78.4611 68.7916 81.25 71.5805 81.25 75.0208Z" stroke-miterlimit="10"/>
</svg>
