<svg width="100" height="101" viewBox="0 0 100 101" fill="none" xmlns="http://www.w3.org/2000/svg">
<path d="M62.5 81.2598V64.5898C62.5 59.2298 59.12 54.6798 54.39 52.8998C56.75 51.4298 58.34 48.8298 58.34 45.8398C58.34 41.2398 54.61 37.5098 50.01 37.5098C45.41 37.5098 41.68 41.2398 41.68 45.8398C41.68 48.8298 43.26 51.4298 45.63 52.8998C40.89 54.6798 37.52 59.2398 37.52 64.5898V81.2598M37.93 61.3298C37.21 60.8798 36.44 60.4898 35.64 60.1898C38 58.7198 39.59 56.1198 39.59 53.1298C39.59 48.5298 35.86 44.7998 31.26 44.7998C26.66 44.7998 22.93 48.5298 22.93 53.1298C22.93 56.1198 24.51 58.7198 26.88 60.1898C22.14 61.9698 18.77 66.5298 18.77 71.8798V81.2598M62.07 61.3298C62.79 60.8798 63.56 60.4898 64.36 60.1898C62 58.7198 60.41 56.1198 60.41 53.1298C60.41 48.5298 64.14 44.7998 68.74 44.7998C73.34 44.7998 77.07 48.5298 77.07 53.1298C77.07 56.1198 75.49 58.7198 73.12 60.1898C77.86 61.9698 81.23 66.5298 81.23 71.8798V81.2598M48.38 43.7598C48.38 44.9085 47.4488 45.8398 46.3 45.8398C45.1513 45.8398 44.22 44.9085 44.22 43.7598C44.22 42.611 45.1513 41.6798 46.3 41.6798C47.4488 41.6798 48.38 42.611 48.38 43.7598ZM48.38 43.7598H51.72M51.72 43.7598C51.72 44.9085 52.6513 45.8398 53.8 45.8398C54.9488 45.8398 55.88 44.9085 55.88 43.7598C55.88 42.611 54.9488 41.6798 53.8 41.6798C52.6513 41.6798 51.72 42.611 51.72 43.7598ZM50 18.7598L52.37 23.5598L57.67 24.3298L53.83 28.0698L54.74 33.3398L50 30.8498L45.26 33.3398L46.17 28.0698L42.33 24.3298L47.63 23.5598L50 18.7598Z" stroke="black" stroke-miterlimit="10"/>
</svg>
