<svg width="100" height="100" viewBox="0 0 100 100" fill="none" xmlns="http://www.w3.org/2000/svg">
<path fill-rule="evenodd" clip-rule="evenodd" d="M18.9707 18.75H82.4707V54.36H18.9707V18.75ZM19.9707 19.75V53.36H81.4707V19.75H19.9707ZM23.1407 22.47H78.3107V50.65H23.1407V22.47ZM24.1407 23.47V49.65H77.3107V23.47H24.1407ZM74.453 27.4627L52.7342 42.3213L45.1657 34.4726L28.6011 45.1206L28.0603 44.2794L45.3157 33.1874L52.8672 41.0187L73.8884 26.6373L74.453 27.4627ZM23.8607 62.85C23.8607 59.5239 26.5646 56.82 29.8907 56.82C33.2163 56.82 35.9207 59.5133 35.9207 62.85C35.9207 64.6872 35.0925 66.3169 33.7971 67.419C36.688 68.8564 38.6807 71.8323 38.6807 75.29V81.75H37.6807V75.29C37.6807 71.9461 35.5772 69.1075 32.6248 67.998L31.6772 67.6419L32.5359 67.1058C33.969 66.2113 34.9207 64.6468 34.9207 62.85C34.9207 60.0667 32.6651 57.82 29.8907 57.82C27.1168 57.82 24.8607 60.0761 24.8607 62.85C24.8607 64.6481 25.8135 66.2211 27.2435 67.1046L28.1098 67.6398L27.1566 67.998C24.2045 69.1074 22.1007 71.9557 22.1007 75.29V81.75H21.1007V75.29C21.1007 71.8427 23.0921 68.8596 25.982 67.4204C24.6868 66.3212 23.8607 64.6846 23.8607 62.85ZM44.7007 62.85C44.7007 59.5244 47.394 56.82 50.7307 56.82C54.0563 56.82 56.7607 59.5133 56.7607 62.85C56.7607 64.6872 55.9325 66.3169 54.6371 67.419C57.528 68.8564 59.5207 71.8323 59.5207 75.29V81.75H58.5207V75.29C58.5207 71.9461 56.4172 69.1075 53.4648 67.998L52.5171 67.6419L53.3759 67.1058C54.809 66.2113 55.7607 64.6468 55.7607 62.85C55.7607 60.0667 53.5051 57.82 50.7307 57.82C47.9474 57.82 45.7007 60.0756 45.7007 62.85C45.7007 64.6481 46.6535 66.2211 48.0835 67.1046L48.9498 67.6398L47.9966 67.998C45.0445 69.1074 42.9407 71.9557 42.9407 75.29V81.75H41.9407V75.29C41.9407 71.8427 43.9321 68.8596 46.822 67.4204C45.5268 66.3212 44.7007 64.6846 44.7007 62.85ZM65.5307 62.85C65.5307 59.5244 68.224 56.82 71.5607 56.82C74.8863 56.82 77.5907 59.5133 77.5907 62.85C77.5907 64.6872 76.7625 66.3169 75.4671 67.419C78.358 68.8564 80.3507 71.8323 80.3507 75.29V81.75H79.3507V75.29C79.3507 71.9461 77.2472 69.1075 74.2948 67.998L73.3471 67.6419L74.2059 67.1058C75.639 66.2113 76.5907 64.6468 76.5907 62.85C76.5907 60.0667 74.3351 57.82 71.5607 57.82C68.7774 57.82 66.5307 60.0756 66.5307 62.85C66.5307 64.6481 67.4835 66.2211 68.9135 67.1046L69.7798 67.6398L68.8266 67.998C65.8745 69.1074 63.7707 71.9557 63.7707 75.29V81.75H62.7707V75.29C62.7707 71.8427 64.7621 68.8596 67.652 67.4204C66.3568 66.3212 65.5307 64.6846 65.5307 62.85Z" fill="currentColor"/>
</svg>
