<svg width="100" height="101" viewBox="0 0 100 101" fill="none" xmlns="http://www.w3.org/2000/svg">
<path d="M43.68 50.0898V71.9598H38.53L49.99 81.4198L61.45 71.9598H56.31V50.0898H43.68Z" stroke-miterlimit="10"/>
<path d="M50 43.75C56.9036 43.75 62.5 38.1536 62.5 31.25C62.5 24.3464 56.9036 18.75 50 18.75C43.0964 18.75 37.5 24.3464 37.5 31.25C37.5 38.1536 43.0964 43.75 50 43.75Z" stroke-miterlimit="10"/>
<path d="M52.77 34.3493C52.29 34.8193 51.6 35.1093 50.69 35.2193V36.5593H49.49V35.2493C48.9 35.2193 48.33 35.1093 47.8 34.9393C47.27 34.7693 46.83 34.5493 46.5 34.2893L47.16 32.8293C47.46 33.0493 47.82 33.2393 48.23 33.3893C48.64 33.5393 49.06 33.6393 49.49 33.6793V31.6793C48.92 31.5393 48.44 31.3893 48.05 31.2193C47.66 31.0493 47.33 30.8093 47.07 30.4793C46.81 30.1593 46.67 29.7293 46.67 29.1893C46.67 28.5293 46.91 27.9593 47.4 27.4793C47.88 26.9993 48.58 26.7093 49.49 26.6093V25.2793H50.69V26.5893C51.67 26.6693 52.49 26.9093 53.13 27.3193L52.53 28.7993C51.93 28.4593 51.32 28.2493 50.69 28.1793V30.2193C51.25 30.3493 51.72 30.4893 52.11 30.6593C52.5 30.8193 52.82 31.0693 53.09 31.3893C53.35 31.7093 53.49 32.1393 53.49 32.6693C53.49 33.3193 53.25 33.8793 52.77 34.3493ZM48.84 29.5893C48.99 29.7193 49.21 29.8293 49.5 29.9093V28.2093C49.2 28.2793 48.97 28.3993 48.83 28.5493C48.69 28.7093 48.61 28.8893 48.61 29.0993C48.61 29.2993 48.68 29.4593 48.84 29.5893ZM51.34 33.3193C51.48 33.1793 51.56 32.9993 51.56 32.7993C51.56 32.5993 51.49 32.4393 51.34 32.3093C51.19 32.1793 50.98 32.0693 50.7 31.9693V33.6293C50.98 33.5693 51.2 33.4693 51.34 33.3193Z" fill="currentColor" stroke="none"/>
</svg>
