<svg width="100" height="100" viewBox="0 0 100 100" fill="none" xmlns="http://www.w3.org/2000/svg">
<path fill-rule="evenodd" clip-rule="evenodd" d="M61.6036 60.8965L81.6036 80.8965L80.8965 81.6036L60.8965 61.6036L61.6036 60.8965Z"/>
<path fill-rule="evenodd" clip-rule="evenodd" d="M43.75 19.25C30.219 19.25 19.25 30.219 19.25 43.75C19.25 57.281 30.219 68.25 43.75 68.25C57.281 68.25 68.25 57.281 68.25 43.75C68.25 30.219 57.281 19.25 43.75 19.25ZM18.25 43.75C18.25 29.6667 29.6667 18.25 43.75 18.25C57.8333 18.25 69.25 29.6667 69.25 43.75C69.25 57.8333 57.8333 69.25 43.75 69.25C29.6667 69.25 18.25 57.8333 18.25 43.75Z"/>
</svg>
