<svg width="100" height="101" viewBox="0 0 100 101" fill="none" xmlns="http://www.w3.org/2000/svg">
<path d="M71.76 33.1196C71.76 32.9496 71.78 32.7896 71.78 32.6196C71.78 27.3496 67.61 23.0696 62.47 23.0696C61.44 23.0696 60.46 23.2396 59.53 23.5596C59.31 21.0596 57.28 19.0896 54.78 19.0896C52.13 19.0896 49.98 21.2896 49.98 24.0096L50.01 69.6196C50 69.7996 49.98 69.9796 49.99 70.1596C49.99 70.3396 50.01 70.5296 50.02 70.7096V70.7996C50.34 75.4796 54.13 79.1696 58.77 79.1696C62.29 79.1696 65.32 77.0396 66.72 73.9696C66.88 73.9696 67.03 73.9896 67.19 73.9896C72.04 73.9896 75.97 69.9596 75.97 64.9796C75.97 63.6196 75.67 62.3396 75.14 61.1796C77.56 59.5796 79.16 56.7896 79.16 53.6196C79.16 50.8896 77.97 48.4396 76.09 46.7896C77.09 45.3296 77.68 43.5496 77.68 41.6296C77.68 37.6896 75.2 34.3396 71.76 33.1196ZM71.76 33.1196H62.5M35.42 31.2596V39.5896H50M35.42 31.2596C36.5688 31.2596 37.5 30.3283 37.5 29.1796C37.5 28.0308 36.5688 27.0996 35.42 27.0996C34.2713 27.0996 33.34 28.0308 33.34 29.1796C33.34 30.3283 34.2713 31.2596 35.42 31.2596ZM23.84 46.7896H33.33M33.33 46.7896C33.33 47.9438 34.2657 48.8796 35.42 48.8796C36.5743 48.8796 37.51 47.9438 37.51 46.7896C37.51 45.6353 36.5743 44.6996 35.42 44.6996C34.2657 44.6996 33.33 45.6353 33.33 46.7896ZM50 56.2596H39.58V62.5096M39.58 62.5096C38.4313 62.5096 37.5 63.4408 37.5 64.5896C37.5 65.7383 38.4313 66.6696 39.58 66.6696C40.7288 66.6696 41.66 65.7383 41.66 64.5896C41.66 63.4408 40.7288 62.5096 39.58 62.5096ZM50.01 68.7596H62.5V62.5096M62.5 62.5096C63.6488 62.5096 64.58 61.5783 64.58 60.4296C64.58 59.2808 63.6488 58.3496 62.5 58.3496C61.3513 58.3496 60.42 59.2808 60.42 60.4296C60.42 61.5783 61.3513 62.5096 62.5 62.5096ZM50.01 43.7596H68.75V47.9296M68.75 47.9296C67.6013 47.9296 66.67 48.8608 66.67 50.0096C66.67 51.1583 67.6013 52.0896 68.75 52.0896C69.8988 52.0896 70.83 51.1583 70.83 50.0096C70.83 48.8608 69.8988 47.9296 68.75 47.9296ZM49.97 69.6396L50 23.9896C50 21.2696 47.85 19.0596 45.19 19.0596C42.69 19.0596 40.65 21.0296 40.43 23.5396C39.5 23.2196 38.51 23.0496 37.48 23.0496C32.33 23.0496 28.15 27.3296 28.15 32.6096C28.15 32.7796 28.17 32.9396 28.17 33.1096C24.72 34.3296 22.24 37.6796 22.24 41.6296C22.24 43.5496 22.83 45.3296 23.83 46.7896C21.95 48.4396 20.76 50.8896 20.76 53.6296C20.76 56.8096 22.37 59.5896 24.79 61.1996C24.26 62.3596 23.96 63.6396 23.96 64.9996C23.96 69.9796 27.9 74.0196 32.76 74.0196C32.92 74.0196 33.07 73.9996 33.23 73.9996C34.63 77.0696 37.67 79.2096 41.2 79.2096C45.85 79.2096 49.64 75.5096 49.97 70.8296V70.7396C49.98 70.5596 50 70.3696 50 70.1896C50 69.9996 49.98 69.8196 49.97 69.6396ZM62.5 33.3396C62.5 34.4883 61.5688 35.4196 60.42 35.4196C59.2713 35.4196 58.34 34.4883 58.34 33.3396C58.34 32.1908 59.2713 31.2596 60.42 31.2596C61.5688 31.2596 62.5 32.1908 62.5 33.3396Z" stroke-miterlimit="10"/>
</svg>
