<svg width="345" height="345" viewBox="0 0 345 345" fill="none" xmlns="http://www.w3.org/2000/svg">
<path fill-rule="evenodd" clip-rule="evenodd" d="M229.354 232.5H209.085V227.5H229.354V232.5Z" fill="#23A5EE"/>
<path fill-rule="evenodd" clip-rule="evenodd" d="M130.233 134.374C140.954 112.96 163.034 98.1969 188.672 98.1969C222.495 98.1969 250.261 123.907 253.674 156.801C270.359 160.948 282.812 176.032 282.812 194.063C282.812 208.751 274.58 221.507 262.45 228.033L260.081 223.63C270.663 217.937 277.812 206.83 277.812 194.063C277.812 177.82 266.18 164.306 250.865 161.297L248.997 160.93L248.854 159.031C246.507 127.834 220.484 103.197 188.672 103.197C164.386 103.197 143.54 117.544 133.942 138.191L133.125 139.949L131.22 139.596C129.398 139.258 127.612 139.063 125.781 139.063C109.265 139.063 95.9375 152.39 95.9375 168.906C95.9375 172.438 96.6551 175.745 97.8066 178.997L98.9091 182.11L95.6136 182.326C83.7428 183.104 74.375 192.824 74.375 204.844C74.375 217.335 84.5401 227.5 97.0312 227.5H172.5V232.5H97.0312C81.7787 232.5 69.375 220.096 69.375 204.844C69.375 191.204 79.2313 180.034 92.1652 177.717C91.4044 174.938 90.9375 172.017 90.9375 168.906C90.9375 149.629 106.504 134.063 125.781 134.063C127.306 134.063 128.783 134.176 130.233 134.374Z" fill="#23A5EE"/>
<path fill-rule="evenodd" clip-rule="evenodd" d="M219.219 225.312C214.645 225.312 210.938 229.02 210.938 233.594C210.938 238.167 214.645 241.875 219.219 241.875C223.792 241.875 227.5 238.167 227.5 233.594C227.5 229.02 223.792 225.312 219.219 225.312ZM205.938 233.594C205.938 226.259 211.884 220.312 219.219 220.312C226.554 220.312 232.5 226.259 232.5 233.594C232.5 240.929 226.554 246.875 219.219 246.875C211.884 246.875 205.938 240.929 205.938 233.594Z" fill="#23A5EE"/>
<path fill-rule="evenodd" clip-rule="evenodd" d="M208.956 184.375H229.553V193.731C233.324 194.709 236.871 196.213 240.133 198.147L246.747 191.533L261.279 206.066L254.665 212.679C256.599 215.942 258.103 219.489 259.081 223.259H268.438V243.928H259.01C258.031 247.699 256.527 251.246 254.594 254.508L261.207 261.122L246.675 275.654L240.061 269.04C236.799 270.974 233.252 272.478 229.481 273.456V282.812H208.884V273.385C205.114 272.406 201.567 270.902 198.304 268.969L191.691 275.582L177.158 261.05L183.772 254.436C181.838 251.174 180.334 247.627 179.356 243.856H170V223.259H179.428C180.406 219.489 181.91 215.942 183.844 212.679L177.23 206.066L191.763 191.533L198.376 198.147C201.638 196.213 205.186 194.709 208.956 193.731V184.375ZM213.956 189.375V197.753L211.96 198.164C207.398 199.104 203.165 200.916 199.394 203.408L197.691 204.533L191.762 198.604L184.301 206.066L190.23 211.994L189.105 213.697C186.613 217.468 184.8 221.701 183.861 226.264L183.45 228.259H175V238.856H183.378L183.789 240.852C184.729 245.414 186.541 249.647 189.033 253.419L190.158 255.122L184.229 261.05L191.691 268.511L197.619 262.583L199.322 263.708C203.093 266.2 207.326 268.012 211.889 268.951L213.884 269.362V277.812H224.481V269.434L226.477 269.023C231.039 268.084 235.272 266.272 239.044 263.78L240.747 262.655L246.675 268.583L254.136 261.122L248.208 255.193L249.333 253.491C251.825 249.719 253.637 245.486 254.576 240.924L254.987 238.928H263.438V228.259H255.059L254.648 226.264C253.709 221.701 251.897 217.468 249.405 213.697L248.28 211.994L254.208 206.066L246.747 198.604L240.818 204.533L239.116 203.408C235.344 200.916 231.111 199.104 226.549 198.164L224.553 197.753V189.375H213.956Z" fill="#23A5EE"/>
<path fill-rule="evenodd" clip-rule="evenodd" d="M100.625 96.0094C98.0759 96.0094 96.0094 98.0759 96.0094 100.625C96.0094 103.174 98.0759 105.241 100.625 105.241C103.174 105.241 105.241 103.174 105.241 100.625C105.241 98.0759 103.174 96.0094 100.625 96.0094ZM91.0094 100.625C91.0094 95.3145 95.3145 91.0094 100.625 91.0094C105.936 91.0094 110.241 95.3145 110.241 100.625C110.241 105.936 105.936 110.241 100.625 110.241C95.3145 110.241 91.0094 105.936 91.0094 100.625Z" fill="#23A5EE"/>
<path fill-rule="evenodd" clip-rule="evenodd" d="M93.3094 69.375H107.941V75.3906C109.829 75.9395 111.639 76.683 113.332 77.6259L117.588 73.3707L127.879 83.6625L123.624 87.9177C124.567 89.6113 125.311 91.4205 125.859 93.3094H131.875V105.441H129.375V107.941H125.859C125.311 109.829 124.567 111.639 123.624 113.332L127.879 117.588L117.588 127.879L113.332 123.624C111.639 124.567 109.829 125.311 107.941 125.859V131.875H93.3094V125.859C91.4205 125.311 89.6113 124.567 87.9177 123.624L83.6625 127.879L73.3707 117.588L77.6259 113.332C76.683 111.639 75.9395 109.829 75.3906 107.941H69.375V93.3094H75.3906C75.9395 91.4205 76.683 89.6113 77.6259 87.9177L73.3707 83.6625L83.6625 73.3707L87.9177 77.6259C89.6113 76.683 91.4205 75.9395 93.3094 75.3906V69.375ZM126.875 102.941V98.3094H121.891L121.468 96.3332C120.882 93.5973 119.848 91.0978 118.392 88.9445L117.236 87.2352L120.808 83.6625L117.588 80.4418L114.015 84.0145L112.305 82.8582C110.152 81.4016 107.653 80.3683 104.917 79.782L102.941 79.3585V74.375H98.3094V79.3585L96.3332 79.782C93.5973 80.3683 91.0978 81.4016 88.9445 82.8582L87.2352 84.0145L83.6625 80.4418L80.4418 83.6625L84.0145 87.2352L82.8582 88.9445C81.4016 91.0978 80.3683 93.5973 79.782 96.3332L79.3585 98.3094H74.375V102.941H79.3585L79.782 104.917C80.3683 107.653 81.4016 110.152 82.8582 112.305L84.0145 114.015L80.4418 117.588L83.6625 120.808L87.2352 117.236L88.9445 118.392C91.0978 119.848 93.5973 120.882 96.3332 121.468L98.3094 121.891V126.875H102.941V121.891L104.917 121.468C107.653 120.882 110.152 119.848 112.305 118.392L114.015 117.236L117.588 120.808L120.808 117.588L117.236 114.015L118.392 112.305C119.848 110.152 120.882 107.653 121.468 104.917L121.891 102.941H126.875Z" fill="#23A5EE"/>
</svg>
