<svg width="100" height="101" viewBox="0 0 100 101" fill="none" xmlns="http://www.w3.org/2000/svg">
<path d="M80.21 57.2998V44.7998H72.8C72.38 42.7898 71.69 40.8798 70.79 39.0998L75.78 34.1098L66.94 25.2698L62.35 29.8598C60.48 28.6898 58.43 27.7798 56.25 27.1698V20.8398H43.75V27.1698C41.57 27.7798 39.52 28.6898 37.65 29.8598L33.06 25.2698L24.22 34.1098L29.21 39.0998C28.31 40.8798 27.62 42.7898 27.2 44.7998H19.79V57.2998H28C28.58 58.9498 29.33 60.5098 30.24 61.9698L24.22 67.9898L33.06 76.8298L39.48 70.4098C40.83 71.0998 42.26 71.6498 43.75 72.0698V81.2598H56.25V72.0698C57.74 71.6598 59.17 71.0998 60.52 70.4098L66.94 76.8298L75.78 67.9898L69.76 61.9698C70.67 60.5098 71.43 58.9498 72 57.2998H80.21V57.2998Z" stroke-miterlimit="10"/>
<path d="M50 62.5097C56.6495 62.5097 62.04 57.1192 62.04 50.4697C62.04 43.8202 56.6495 38.4297 50 38.4297C43.3505 38.4297 37.96 43.8202 37.96 50.4697C37.96 57.1192 43.3505 62.5097 50 62.5097Z" stroke-miterlimit="10"/>
</svg>
