<svg width="100" height="100" viewBox="0 0 100 100" fill="none" xmlns="http://www.w3.org/2000/svg">
<path d="M43.73 81.2499V56.2499C43.73 50.8899 40.35 46.3399 35.62 44.5599C37.98 43.0899 39.57 40.4899 39.57 37.4999C39.57 32.8999 35.84 29.1699 31.24 29.1699C26.64 29.1699 22.9 32.8999 22.9 37.4999C22.9 40.4899 24.48 43.0899 26.85 44.5599C22.11 46.3399 18.74 50.8999 18.74 56.2499V81.2499" stroke="black" stroke-miterlimit="10"/>
<path d="M81.25 81.2499V56.2499C81.25 50.8899 77.87 46.3399 73.14 44.5599C75.5 43.0899 77.09 40.4899 77.09 37.4999C77.09 32.8999 73.36 29.1699 68.76 29.1699C64.16 29.1699 60.43 32.8999 60.43 37.4999C60.43 40.4899 62.01 43.0899 64.38 44.5599C59.64 46.3399 56.27 50.8999 56.27 56.2499V81.2499" stroke="black" stroke-miterlimit="10"/>
<path d="M28.47 39.5799C29.6188 39.5799 30.55 38.6487 30.55 37.4999C30.55 36.3512 29.6188 35.4199 28.47 35.4199C27.3213 35.4199 26.39 36.3512 26.39 37.4999C26.39 38.6487 27.3213 39.5799 28.47 39.5799Z" stroke="black" stroke-miterlimit="10"/>
<path d="M35.97 39.5799C37.1188 39.5799 38.05 38.6487 38.05 37.4999C38.05 36.3512 37.1188 35.4199 35.97 35.4199C34.8213 35.4199 33.89 36.3512 33.89 37.4999C33.89 38.6487 34.8213 39.5799 35.97 39.5799Z" stroke="black" stroke-miterlimit="10"/>
<path d="M30.55 37.5H33.89" stroke="black" stroke-miterlimit="10"/>
<path d="M33.66 40.6504C33.66 41.4404 33.02 42.0804 32.23 42.0804C31.44 42.0804 30.8 41.4404 30.8 40.6504H33.66Z" stroke="black" stroke-miterlimit="10"/>
</svg>
