<svg width="100" height="101" viewBox="0 0 100 101" fill="none" xmlns="http://www.w3.org/2000/svg">
<path d="M54.31 55.36C53.56 56.09 52.48 56.54 51.07 56.72V58.82H49.2V56.78C48.27 56.73 47.4 56.57 46.56 56.29C45.72 56.02 45.05 55.68 44.54 55.28L45.57 53C46.04 53.35 46.6 53.64 47.24 53.88C47.88 54.12 48.53 54.27 49.21 54.33V51.2C48.32 50.99 47.57 50.75 46.96 50.49C46.35 50.23 45.84 49.84 45.43 49.34C45.02 48.83 44.81 48.16 44.81 47.33C44.81 46.29 45.19 45.4 45.94 44.66C46.69 43.92 47.78 43.47 49.21 43.3V41.21H51.08V43.25C52.61 43.37 53.88 43.76 54.88 44.39L53.94 46.69C53 46.15 52.05 45.83 51.07 45.72V48.9C51.94 49.1 52.68 49.33 53.29 49.58C53.9 49.84 54.4 50.22 54.82 50.72C55.23 51.23 55.44 51.89 55.44 52.71C55.43 53.75 55.06 54.63 54.31 55.36ZM48.17 47.93C48.41 48.13 48.75 48.3 49.2 48.44V45.78C48.72 45.89 48.38 46.07 48.15 46.31C47.92 46.55 47.81 46.84 47.81 47.16C47.81 47.48 47.93 47.73 48.17 47.93ZM52.08 53.75C52.31 53.53 52.42 53.26 52.42 52.94C52.42 52.62 52.3 52.37 52.07 52.17C51.84 51.97 51.5 51.8 51.07 51.65V54.23C51.52 54.14 51.85 53.98 52.08 53.75Z" stroke="black" stroke-miterlimit="10"/>
<path d="M49.98 75.0098C63.7871 75.0098 74.98 63.8169 74.98 50.0098C74.98 36.2026 63.7871 25.0098 49.98 25.0098C36.1729 25.0098 24.98 36.2026 24.98 50.0098C24.98 63.8169 36.1729 75.0098 49.98 75.0098Z" stroke="black" stroke-miterlimit="10"/>
<path d="M74.98 50.0098V54.1398C74.98 67.9498 63.79 79.1398 49.98 79.1398C36.17 79.1398 24.98 67.9498 24.98 54.1398V50.0098" stroke="black" stroke-miterlimit="10"/>
<path d="M49.98 71.7495C61.9867 71.7495 71.72 62.0162 71.72 50.0095C71.72 38.0029 61.9867 28.2695 49.98 28.2695C37.9733 28.2695 28.24 38.0029 28.24 50.0095C28.24 62.0162 37.9733 71.7495 49.98 71.7495Z" stroke="black" stroke-miterlimit="10"/>
<path d="M49.98 63.06C57.1873 63.06 63.03 57.2173 63.03 50.01C63.03 42.8026 57.1873 36.96 49.98 36.96C42.7727 36.96 36.93 42.8026 36.93 50.01C36.93 57.2173 42.7727 63.06 49.98 63.06Z" stroke="black" stroke-miterlimit="10"/>
<path d="M49.98 28.2698V25.0098" stroke="black" stroke-miterlimit="10"/>
<path d="M49.98 71.75V75.01V79.14" stroke="black" stroke-miterlimit="10"/>
<path d="M43.26 29.3295L42.26 26.2295" stroke="black" stroke-miterlimit="10"/>
<path d="M56.7 70.6895L57.71 73.7895V77.8494" stroke="black" stroke-miterlimit="10"/>
<path d="M37.2 32.4193L35.29 29.7793" stroke="black" stroke-miterlimit="10"/>
<path d="M62.76 67.5996L64.68 70.2396V74.2996" stroke="black" stroke-miterlimit="10"/>
<path d="M32.39 37.2293L29.76 35.3193" stroke="black" stroke-miterlimit="10"/>
<path d="M67.57 62.79L70.21 64.7V68.83" stroke="black" stroke-miterlimit="10"/>
<path d="M29.3 43.2893L26.2 42.2793" stroke="black" stroke-miterlimit="10"/>
<path d="M70.66 56.7295L73.76 57.7395" stroke="black" stroke-miterlimit="10"/>
<path d="M28.24 50.0098H24.98" stroke="black" stroke-miterlimit="10"/>
<path d="M71.72 50.0098H74.98" stroke="black" stroke-miterlimit="10"/>
<path d="M29.3 56.7295L26.2 57.7395" stroke="black" stroke-miterlimit="10"/>
<path d="M70.66 43.2893L73.76 42.2793" stroke="black" stroke-miterlimit="10"/>
<path d="M32.39 62.79L29.76 64.7V68.59" stroke="black" stroke-miterlimit="10"/>
<path d="M67.57 37.2293L70.21 35.3193" stroke="black" stroke-miterlimit="10"/>
<path d="M37.2 67.5996L35.29 70.2396V74.2696" stroke="black" stroke-miterlimit="10"/>
<path d="M62.76 32.4193L64.68 29.7793" stroke="black" stroke-miterlimit="10"/>
<path d="M43.26 70.6895L42.26 73.7895V77.9195" stroke="black" stroke-miterlimit="10"/>
<path d="M56.7 29.3295L57.71 26.2295" stroke="black" stroke-miterlimit="10"/>
</svg>
