<svg width="100" height="101" viewBox="0 0 100 101" fill="none" xmlns="http://www.w3.org/2000/svg">
<path d="M66.75 54.2002V47.2702H62.64C62.41 46.1602 62.03 45.1002 61.52 44.1102L64.29 41.3402L59.39 36.4402L56.84 38.9902C55.8 38.3402 54.67 37.8302 53.46 37.5002V33.9902H46.53V37.5002C45.32 37.8402 44.19 38.3402 43.15 38.9902L40.6 36.4402L35.7 41.3402L38.47 44.1102C37.97 45.1002 37.59 46.1602 37.35 47.2702H33.24V54.2002H37.79C38.11 55.1102 38.53 55.9802 39.03 56.7902L35.69 60.1302L40.59 65.0302L44.15 61.4702C44.9 61.8502 45.69 62.1602 46.52 62.3902V67.4802H53.45V62.3902C54.28 62.1602 55.07 61.8502 55.82 61.4702L59.38 65.0302L64.28 60.1302L60.94 56.7902C61.45 55.9802 61.86 55.1102 62.18 54.2002H66.75Z" stroke="black" stroke-miterlimit="10"/>
<path d="M50.0001 57.3996C53.6838 57.3996 56.6701 54.4133 56.6701 50.7296C56.6701 47.0458 53.6838 44.0596 50.0001 44.0596C46.3163 44.0596 43.3301 47.0458 43.3301 50.7296C43.3301 54.4133 46.3163 57.3996 50.0001 57.3996Z" stroke="black" stroke-miterlimit="10"/>
<path d="M50 77.0899C35.04 77.0899 22.92 64.9599 22.92 50.0099C22.92 37.8899 30.88 27.6299 41.86 24.1699" stroke="black" stroke-miterlimit="10"/>
<path d="M50 22.9297C64.96 22.9297 77.08 35.0597 77.08 50.0097C77.08 61.9997 69.29 72.1597 58.5 75.7297" stroke="black" stroke-miterlimit="10"/>
<path d="M52.2701 27.0898L50.1901 22.9298L52.2701 18.7598" stroke="black" stroke-miterlimit="10"/>
<path d="M48.11 72.9297L50.19 77.0897L48.11 81.2597" stroke="black" stroke-miterlimit="10"/>
</svg>
