<svg width="100" height="100" viewBox="0 0 100 100" fill="none" xmlns="http://www.w3.org/2000/svg">
<path d="M62.5 81.25V56.25C62.5 50.8958 59.125 46.3333 54.3958 44.5625C56.75 43.0833 58.3333 40.5 58.3333 37.5C58.3333 32.8958 54.6042 29.1667 50 29.1667C45.3958 29.1667 41.6667 32.8958 41.6667 37.5C41.6667 40.4792 43.25 43.0833 45.6042 44.5625C40.875 46.3333 37.5 50.8958 37.5 56.25V81.25M41.8333 39.2083C40.3958 36.9167 38.2083 35.1042 35.625 34.1458C37.9792 32.6667 39.5625 30.0833 39.5625 27.0833C39.5625 22.4792 35.8333 18.75 31.2292 18.75C26.625 18.75 22.8958 22.4792 22.8958 27.0833C22.8958 30.0625 24.4792 32.6667 26.8333 34.1458C22.125 35.9167 18.75 40.4792 18.75 45.8333V70.8333M58.1665 39.2083C59.604 36.9167 61.7915 35.1042 64.3748 34.1458C61.9998 32.6667 60.4165 30.0625 60.4165 27.0833C60.4165 22.4792 64.1457 18.75 68.7498 18.75C73.354 18.75 77.0832 22.4792 77.0832 27.0833C77.0832 30.0625 75.4998 32.6667 73.1457 34.1458C77.8748 35.9167 81.2498 40.4792 81.2498 45.8333V70.8333" stroke="black" stroke-miterlimit="10"/>
</svg>
