<svg width="100" height="101" viewBox="0 0 100 101" fill="none" xmlns="http://www.w3.org/2000/svg">
<path d="M59.1249 61.0515L68.6041 37.5723H62.3124L55.8333 52.739L51.2083 37.5723H46.3749L41.4166 52.739L37.9166 45.8223L34.7499 55.5515L37.9583 61.0515H44.1458L48.6249 47.4473L52.8958 61.0515H59.1249Z" stroke="black" stroke-miterlimit="10"/>
<path d="M24.7083 52.9893H28.5625C29.7292 52.9893 30.7708 52.8643 31.6875 52.5934L35.4792 40.9059C35.2708 40.5726 35.0208 40.2393 34.75 39.9476C33.3125 38.3643 31.2083 37.5726 28.4583 37.5726H18.75V61.0518H24.7083V52.9893ZM29.8125 42.9684C30.375 43.5309 30.6458 44.2809 30.6458 45.2393C30.6458 46.1976 30.3958 46.9476 29.9167 47.5101C29.375 48.1351 28.375 48.4476 26.9375 48.4476H24.7083V42.1351H26.9583C28.3125 42.1351 29.25 42.4059 29.8125 42.9684ZM64.75 56.8434L66.5625 52.2809H71.7708L69.2917 45.3643L72.375 37.5518L81.25 61.0518H74.7083L73.1875 56.8434H64.75Z" stroke="black" stroke-miterlimit="10"/>
</svg>
