<svg width="100" height="101" viewBox="0 0 100 101" fill="none" xmlns="http://www.w3.org/2000/svg">
<path d="M43.6201 51.5001L46.8301 54.7101L56.4601 45.0801M80.2501 56.7198V44.2198H72.8401C72.4201 42.2098 71.7301 40.2998 70.8301 38.5198L75.8201 33.5298L66.9801 24.6898L62.3901 29.2798C60.5201 28.1098 58.4701 27.1998 56.2901 26.5898V20.2598H43.7901V26.5898C41.6101 27.1998 39.5601 28.1098 37.6901 29.2798L33.1001 24.6898L24.2601 33.5298L29.2501 38.5198C28.3501 40.2998 27.6601 42.2098 27.2401 44.2198H19.8301V56.7198H28.0401C28.6201 58.3698 29.3701 59.9298 30.2801 61.3898L24.2601 67.4098L33.1001 76.2498L39.5201 69.8298C40.8701 70.5198 42.3001 71.0698 43.7901 71.4898V80.6798H56.2901V71.4898C57.7801 71.0798 59.2101 70.5198 60.5601 69.8298L66.9801 76.2498L75.8201 67.4098L69.8001 61.3898C70.7101 59.9298 71.4701 58.3698 72.0401 56.7198H80.2501ZM62.08 49.8906C62.08 56.5401 56.6895 61.9306 50.04 61.9306C43.3905 61.9306 38 56.5401 38 49.8906C38 43.2411 43.3905 37.8506 50.04 37.8506C56.6895 37.8506 62.08 43.2411 62.08 49.8906Z" stroke-miterlimit="10"/>
</svg>
