<svg width="100" height="100" viewBox="0 0 100 100" fill="none" xmlns="http://www.w3.org/2000/svg">
<path fill-rule="evenodd" clip-rule="evenodd" d="M24.63 19.25C23.9661 19.25 23.42 19.7961 23.42 20.46V40.09C23.42 40.7539 23.9661 41.3 24.63 41.3H50.85C51.5149 41.3 52.057 40.754 52.05 40.0953L52.05 40.09V20.46C52.05 19.7961 51.5038 19.25 50.84 19.25H24.63ZM22.42 20.46C22.42 19.2439 23.4138 18.25 24.63 18.25H50.84C52.0561 18.25 53.05 19.2439 53.05 20.46V24.9983L60.841 22.3859L60.8439 22.385C61.8627 22.0502 62.93 22.8048 62.93 23.89V36.66C62.93 37.7365 61.8692 38.5154 60.8395 38.1635C60.8389 38.1633 60.8384 38.1632 60.8378 38.163L53.05 35.5517V40.0875C53.0614 41.3076 52.0641 42.3 50.85 42.3H24.63C23.4138 42.3 22.42 41.3061 22.42 40.09V20.46ZM53.06 34.5003L61.1589 37.2159L61.1621 37.217C61.5319 37.3438 61.93 37.0629 61.93 36.66V23.89C61.93 23.4956 61.5381 23.2103 61.1572 23.3346C61.1568 23.3348 61.1564 23.3349 61.1561 23.335L53.06 26.0497V34.5003ZM27.85 22.54C27.2161 22.54 26.7 23.0561 26.7 23.69C26.7 24.3239 27.2161 24.84 27.85 24.84H34.44C35.0738 24.84 35.59 24.3239 35.59 23.69C35.59 23.0561 35.0738 22.54 34.44 22.54H27.85ZM25.7 23.69C25.7 22.5039 26.6638 21.54 27.85 21.54H34.44C35.6261 21.54 36.59 22.5039 36.59 23.69C36.59 24.8761 35.6261 25.84 34.44 25.84H27.85C26.6638 25.84 25.7 24.8761 25.7 23.69ZM39.38 22.54C38.7461 22.54 38.23 23.0561 38.23 23.69C38.23 24.3239 38.7461 24.84 39.38 24.84H41.03C41.6638 24.84 42.18 24.3239 42.18 23.69C42.18 23.0561 41.6638 22.54 41.03 22.54H39.38ZM37.23 23.69C37.23 22.5039 38.1938 21.54 39.38 21.54H41.03C42.2161 21.54 43.18 22.5039 43.18 23.69C43.18 24.8761 42.2161 25.84 41.03 25.84H39.38C38.1938 25.84 37.23 24.8761 37.23 23.69ZM41.17 45.33H63.01V49.5H71.3415L71.2936 64.9393L77.7864 58.4464C78.5917 57.6412 79.8983 57.6412 80.7035 58.4464C81.5088 59.2517 81.5088 60.5583 80.7035 61.3636L80.6865 61.3806L80.5165 61.5206L71.2693 70.7742L71.2385 81.22H47.71V77.58H41.17V45.33ZM47.71 76.58V56.9629L55.1729 49.5H62.01V46.33H42.17V76.58H47.71ZM70.2664 71.7778L66.0121 76.0351L62.4838 76.6562L63.1049 73.128L70.2905 65.9424L70.3384 50.5H55.88V57.67H48.71V80.22H70.2415L70.2664 71.7778ZM49.4171 56.67H54.88V51.2071L49.4171 56.67ZM79.9964 59.1536C79.5817 58.7388 78.9083 58.7388 78.4935 59.1536L78.3221 59.325L79.81 60.8129L79.8434 60.7794L80.0117 60.6408C80.4111 60.225 80.406 59.5631 79.9964 59.1536ZM79.1031 61.5203L77.615 60.0321L64.0351 73.612L63.7161 75.4239L65.5279 75.1049L79.1031 61.5203Z"/>
</svg>
