<svg width="100" height="101" viewBox="0 0 100 101" fill="none" xmlns="http://www.w3.org/2000/svg">
<path d="M50 81.2598C67.2589 81.2598 81.25 67.2687 81.25 50.0098C81.25 32.7509 67.2589 18.7598 50 18.7598C32.7411 18.7598 18.75 32.7509 18.75 50.0098C18.75 67.2687 32.7411 81.2598 50 81.2598Z" stroke="black" stroke-miterlimit="10"/>
<path d="M61.7083 64.5928C59.1875 60.8219 54.8958 58.3428 50.0208 58.3428C45.1666 58.3428 40.8958 60.8011 38.3541 64.5511" stroke="black" stroke-miterlimit="10"/>
<path d="M37.5 47.9261C39.8012 47.9261 41.6667 46.0606 41.6667 43.7594C41.6667 41.4583 39.8012 39.5928 37.5 39.5928C35.1989 39.5928 33.3334 41.4583 33.3334 43.7594C33.3334 46.0606 35.1989 47.9261 37.5 47.9261Z" fill="black"/>
<path d="M62.5 47.9261C64.8012 47.9261 66.6667 46.0606 66.6667 43.7594C66.6667 41.4583 64.8012 39.5928 62.5 39.5928C60.1989 39.5928 58.3334 41.4583 58.3334 43.7594C58.3334 46.0606 60.1989 47.9261 62.5 47.9261Z" fill="black"/>
</svg>
