<svg width="350" height="250" viewBox="0 0 350 250" fill="none" xmlns="http://www.w3.org/2000/svg">
<path d="M170.684 107.496C149.777 89.0453 107.38 55.0361 79.9086 55.0361C41.3276 55.0361 9.94263 86.4198 9.94263 124.999C9.94263 163.579 41.3276 194.962 79.9086 194.962C107.331 194.962 148.051 162.509 169.007 144.034C169.761 143.353 170.49 142.672 171.244 141.992C173.018 140.363 174.769 138.758 176.543 137.13C178.634 135.234 180.7 133.313 182.791 131.417C183.204 130.858 183.909 130.396 184.42 129.934C184.979 129.424 185.538 128.913 186.097 128.403C187.216 127.382 188.383 126.361 189.452 125.291C189.549 125.194 189.647 125.096 189.744 124.999C189.817 124.926 189.914 124.829 189.987 124.756C190.352 124.391 190.692 124.051 191.081 123.711C191.494 123.346 191.883 122.981 192.297 122.617C193.147 121.839 194.023 121.085 194.898 120.332C196.624 118.8 198.374 117.293 200.125 115.81C200.173 115.762 200.222 115.713 200.295 115.664C201.024 115.057 201.753 114.449 202.458 113.841C205.522 111.289 208.609 108.809 211.721 106.354C214.881 103.874 218.09 101.443 221.323 99.0851C224.508 96.7514 227.741 94.4906 231.023 92.3028C234.159 90.2121 237.32 88.1944 240.553 86.274C243.543 84.4994 246.558 82.822 249.67 81.2662C252.417 79.9049 255.237 78.6164 258.13 77.5711C260.585 76.6717 263.113 75.8938 265.69 75.4319C267.125 75.1645 268.583 75.0186 270.042 75.0186C297.635 75.0186 320.073 97.4564 320.073 125.048C320.073 152.639 297.586 175.028 270.018 175.028C252.222 175.028 218.236 150.233 194.29 129.18M178.949 142.235C199.176 160.297 241.671 194.962 270.017 194.962C308.598 194.962 339.983 163.579 339.983 124.999C339.983 86.4198 308.598 55.0361 270.017 55.0361C242.668 55.0361 202.142 87.3193 181.162 105.819C179.63 107.229 178.099 108.639 176.567 110.024C173.528 112.82 170.489 115.591 167.451 118.387C162.443 122.981 157.532 127.819 152.305 132.219C149.461 134.626 146.568 137.008 143.675 139.342C138.91 143.207 134.048 146.999 129.064 150.621C124.226 154.171 119.291 157.574 114.235 160.783C109.64 163.7 104.948 166.447 100.061 168.854C96.0259 170.847 91.8202 172.67 87.4686 173.861C85.0132 174.542 82.4606 175.028 79.908 175.028C52.3154 175.028 29.8767 152.591 29.8767 124.999C29.8767 97.4078 52.3154 74.97 79.908 74.97C97.3873 74.97 132.127 100.349 156.025 121.158"  stroke-miterlimit="10"/>
<path d="M55.7678 114.571H65.0545C67.2667 114.571 69.2359 114.984 70.9376 115.835C72.6394 116.686 73.9522 117.877 74.9003 119.408C75.8484 120.94 76.3103 122.739 76.3103 124.781C76.3103 126.823 75.8484 128.622 74.9003 130.153C73.9522 131.685 72.6394 132.876 70.9376 133.727C69.2359 134.578 67.2667 134.991 65.0545 134.991H55.7678V114.571ZM64.8114 131.126C66.8535 131.126 68.4823 130.567 69.6978 129.424C70.9133 128.281 71.5211 126.75 71.5211 124.805C71.5211 122.86 70.9133 121.329 69.6978 120.186C68.4823 119.044 66.8535 118.485 64.8114 118.485H60.4841V131.15H64.8114V131.126Z" stroke="none" fill="currentColor"/>
<path d="M94.8356 128.427H82.9719C83.1907 129.399 83.7013 130.177 84.4792 130.736C85.2815 131.296 86.2782 131.587 87.4451 131.587C88.2717 131.587 88.9767 131.466 89.6088 131.223C90.2408 130.98 90.8243 130.591 91.3834 130.08L93.8145 132.706C92.3316 134.407 90.1679 135.234 87.3479 135.234C85.5732 135.234 84.0173 134.893 82.6559 134.188C81.2945 133.508 80.2491 132.535 79.4955 131.32C78.7419 130.104 78.3772 128.694 78.3772 127.139C78.3772 125.607 78.7419 124.221 79.4712 122.982C80.2005 121.742 81.1973 120.794 82.4857 120.089C83.7742 119.384 85.1842 119.044 86.7644 119.044C88.296 119.044 89.6817 119.384 90.9458 120.04C92.1857 120.697 93.1581 121.645 93.8874 122.884C94.5924 124.124 94.9571 125.559 94.9571 127.187C94.9328 127.26 94.8842 127.673 94.8356 128.427ZM84.1875 123.395C83.4825 123.978 83.0692 124.781 82.899 125.777H90.6298C90.4839 124.781 90.0463 124.003 89.3413 123.395C88.6363 122.787 87.7854 122.495 86.7644 122.495C85.7677 122.52 84.8925 122.812 84.1875 123.395Z" stroke="none" fill="currentColor"/>
<path d="M113.24 119.311L106.627 135.016H101.935L95.347 119.311H100.039L104.391 129.983L108.888 119.311H113.24Z" stroke="none" fill="currentColor"/>
<path d="M241.721 133.969C240.019 133.045 238.682 131.805 237.734 130.201C236.762 128.596 236.3 126.798 236.3 124.78C236.3 122.786 236.786 120.963 237.734 119.359C238.682 117.754 240.019 116.49 241.721 115.591C243.423 114.667 245.343 114.229 247.458 114.229C249.573 114.229 251.494 114.691 253.171 115.591C254.873 116.515 256.186 117.754 257.158 119.359C258.131 120.963 258.617 122.762 258.617 124.78C258.617 126.773 258.131 128.596 257.158 130.201C256.186 131.805 254.849 133.069 253.171 133.969C251.494 134.868 249.573 135.33 247.458 135.33C245.343 135.33 243.423 134.893 241.721 133.969ZM250.74 130.493C251.713 129.933 252.466 129.156 253.025 128.183C253.584 127.187 253.852 126.068 253.852 124.804C253.852 123.54 253.584 122.422 253.025 121.425C252.466 120.428 251.713 119.651 250.74 119.116C249.768 118.557 248.674 118.289 247.483 118.289C246.291 118.289 245.197 118.557 244.225 119.116C243.252 119.675 242.499 120.453 241.94 121.425C241.381 122.398 241.113 123.54 241.113 124.804C241.113 126.068 241.381 127.187 241.94 128.183C242.499 129.18 243.252 129.958 244.225 130.493C245.197 131.052 246.291 131.319 247.483 131.319C248.674 131.319 249.768 131.052 250.74 130.493Z" stroke="none" fill="currentColor"/>
<path d="M275.125 120.065C276.316 120.745 277.264 121.669 277.945 122.884C278.625 124.1 278.966 125.51 278.966 127.139C278.966 128.767 278.625 130.177 277.945 131.393C277.264 132.608 276.316 133.556 275.125 134.213C273.933 134.893 272.596 135.209 271.138 135.209C269.144 135.209 267.564 134.577 266.421 133.313V140.63H261.875V119.287H266.227V121.086C267.345 119.724 268.998 119.044 271.162 119.044C272.621 119.068 273.933 119.408 275.125 120.065ZM273.228 130.323C273.982 129.545 274.347 128.476 274.347 127.163C274.347 125.85 273.982 124.781 273.228 124.003C272.475 123.225 271.527 122.812 270.36 122.812C269.193 122.812 268.245 123.2 267.491 124.003C266.737 124.781 266.373 125.85 266.373 127.163C266.373 128.476 266.737 129.545 267.491 130.323C268.245 131.101 269.193 131.514 270.36 131.514C271.527 131.514 272.499 131.101 273.228 130.323Z" stroke="none" fill="currentColor"/>
<path d="M283.463 134.748C282.223 134.432 281.226 134.018 280.497 133.532L282.004 130.275C282.709 130.712 283.56 131.077 284.533 131.369C285.529 131.66 286.502 131.782 287.45 131.782C289.371 131.782 290.343 131.296 290.343 130.348C290.343 129.91 290.076 129.57 289.565 129.375C289.03 129.181 288.228 129.01 287.134 128.889C285.845 128.694 284.8 128.476 283.949 128.208C283.123 127.965 282.393 127.503 281.786 126.871C281.178 126.239 280.862 125.315 280.862 124.124C280.862 123.128 281.154 122.252 281.713 121.475C282.272 120.697 283.123 120.113 284.217 119.676C285.311 119.238 286.623 119.044 288.106 119.044C289.225 119.044 290.319 119.165 291.413 119.408C292.507 119.651 293.43 119.992 294.135 120.405L292.628 123.638C291.242 122.86 289.735 122.471 288.106 122.471C287.134 122.471 286.405 122.617 285.918 122.884C285.432 123.152 285.189 123.517 285.189 123.93C285.189 124.416 285.456 124.756 285.967 124.951C286.502 125.145 287.328 125.34 288.471 125.51C289.76 125.729 290.805 125.947 291.631 126.191C292.458 126.434 293.163 126.871 293.771 127.528C294.378 128.16 294.67 129.059 294.67 130.202C294.67 131.174 294.379 132.049 293.795 132.803C293.212 133.556 292.361 134.14 291.242 134.577C290.124 135.015 288.787 135.209 287.256 135.209C285.991 135.234 284.703 135.064 283.463 134.748Z" stroke="none" fill="currentColor"/>
</svg>
