<svg width="350" height="250" viewBox="0 0 350 250" fill="none" xmlns="http://www.w3.org/2000/svg">
<path fill-rule="evenodd" clip-rule="evenodd" d="M139.78 73.0102C139.78 54.6118 154.692 39.7002 173.09 39.7002C191.488 39.7002 206.4 54.6118 206.4 73.0102C206.4 83.9354 201.096 93.5553 192.985 99.6158C210.243 107.258 222.31 124.493 222.31 144.59V184.33H219.31V144.59C219.31 124.788 206.83 107.933 189.313 101.354L186.467 100.286L189.046 98.6775C197.644 93.3148 203.4 83.8619 203.4 73.0102C203.4 56.2686 189.832 42.7002 173.09 42.7002C156.348 42.7002 142.78 56.2686 142.78 73.0102C142.78 83.8626 148.537 93.3247 157.133 98.6768L159.715 100.285L156.867 101.354C139.35 107.933 126.87 124.788 126.87 144.59V184.33H123.87V144.59C123.87 124.494 135.936 107.259 153.194 99.6166C145.082 93.5617 139.78 83.9337 139.78 73.0102Z" stroke="none" fill="currentColor"/>
<path fill-rule="evenodd" clip-rule="evenodd" d="M76.77 41.8098C76.77 23.4107 91.6822 8.50977 110.08 8.50977C128.478 8.50977 143.39 23.4213 143.39 41.8198C143.39 52.7444 138.087 62.3638 129.976 68.4244C134.6 70.4701 138.854 73.2086 142.601 76.5033L140.619 78.7562C136.443 75.084 131.6 72.1494 126.304 70.1644L123.455 69.0969L126.036 67.4871C134.634 62.1244 140.39 52.6715 140.39 41.8198C140.39 25.0782 126.822 11.5098 110.08 11.5098C93.3378 11.5098 79.77 25.0688 79.77 41.8098C79.77 52.6622 85.527 62.1243 94.1228 67.4764L96.7054 69.0844L93.8574 70.154C76.3404 76.7326 63.86 93.588 63.86 113.39V160.46H60.86V113.39C60.86 93.2934 72.9264 76.0584 90.1837 68.4162C82.0722 62.3613 76.77 52.7332 76.77 41.8098Z" stroke="none" fill="currentColor"/>
<path fill-rule="evenodd" clip-rule="evenodd" d="M236.74 11.5C219.998 11.5 206.43 25.0684 206.43 41.81C206.43 52.6617 212.186 62.1146 220.784 67.4773L223.362 69.0852L220.518 70.1541C214.901 72.2653 209.805 75.4327 205.464 79.4153L203.436 77.2047C207.372 73.5938 211.893 70.6108 216.846 68.4161C208.734 62.3556 203.43 52.7355 203.43 41.81C203.43 23.4116 218.342 8.5 236.74 8.5C255.138 8.5 270.05 23.4116 270.05 41.81C270.05 52.7337 264.748 62.3619 256.636 68.4168C274 76.1212 285.96 93.8058 285.96 121.52V161.26H282.96V121.52C282.96 93.4465 270.354 76.6856 252.963 70.1542L250.115 69.0847L252.697 67.4767C261.293 62.1245 267.05 52.6624 267.05 41.81C267.05 25.0684 253.482 11.5 236.74 11.5Z" stroke="none" fill="currentColor"/>
<path fill-rule="evenodd" clip-rule="evenodd" d="M85.63 182.83H147.84V185.83H85.63V182.83Z" stroke="none" fill="currentColor"/>
<path fill-rule="evenodd" clip-rule="evenodd" d="M201.93 182.83H260.6V185.83H201.93V182.83Z" stroke="none" fill="currentColor"/>
<path fill-rule="evenodd" clip-rule="evenodd" d="M87.13 184.951L110.551 161.52L108.429 159.399L84.13 183.709V241.5H262.1V183.709L237.801 159.399L235.679 161.52L259.1 184.951V238.5H87.13V184.951Z" stroke="none" fill="currentColor"/>
<path fill-rule="evenodd" clip-rule="evenodd" d="M235.24 158.96H342.584L325.827 188.3L342.584 217.64H260.6V214.64H337.416L322.373 188.3L337.416 161.96H238.24V184.33H235.24V158.96Z" stroke="none" fill="currentColor"/>
<path fill-rule="evenodd" clip-rule="evenodd" d="M7.4151 158.96H110.99V184.33H107.99V161.96H12.5849L27.6376 188.3L12.5849 214.64H85.63V217.64H7.4151L24.1823 188.3L7.4151 158.96Z" stroke="none" fill="currentColor"/>
<path fill-rule="evenodd" clip-rule="evenodd" d="M174.891 138.28L188.416 165.699L218.673 170.092L196.782 191.443L201.953 221.572L174.89 207.344L147.829 221.571L152.988 191.443L131.097 170.092L161.354 165.699L174.891 138.28ZM174.889 145.059L163.346 168.441L137.543 172.188L156.212 190.396L151.811 216.088L174.89 203.955L197.967 216.088L193.558 190.396L212.227 172.188L186.424 168.441L174.889 145.059Z" stroke="none" fill="currentColor"/>
<path fill-rule="evenodd" clip-rule="evenodd" d="M147.84 193.78H97.86V190.78H147.84V193.78Z" stroke="none" fill="currentColor"/>
<path fill-rule="evenodd" clip-rule="evenodd" d="M248.31 233.55H97.86V230.55H248.31V233.55Z" stroke="none" fill="currentColor"/>
<path fill-rule="evenodd" clip-rule="evenodd" d="M247.12 193.78H204.93V190.78H247.12V193.78Z" stroke="none" fill="currentColor"/>
<path fill-rule="evenodd" clip-rule="evenodd" d="M254.43 166.92H325.31V169.92H254.43V166.92Z" stroke="none" fill="currentColor"/>
<path fill-rule="evenodd" clip-rule="evenodd" d="M268.56 206.69H325.31V209.69H268.56V206.69Z" stroke="none" fill="currentColor"/>
<path fill-rule="evenodd" clip-rule="evenodd" d="M86.96 169.92H27.11V166.92H86.96V169.92Z" stroke="none" fill="currentColor"/>
<path fill-rule="evenodd" clip-rule="evenodd" d="M74.24 209.69H23.79V206.69H74.24V209.69Z" stroke="none" fill="currentColor"/>
</svg>
