<svg width="350" height="250" viewBox="0 0 350 250" fill="none" xmlns="http://www.w3.org/2000/svg">
<path d="M29.8292 110.001H101.91M29.8292 123.274H160.863M270.018 29.9997H310.009M270.018 39.99H330.016M291.241 190.005H299.993M291.241 199.996H309.012M119.997 70.0134V29.9997H240.019M240.019 29.9997L230.003 20.0079M240.019 29.9997L230.003 39.9904M300.139 119.993V169.998M300.139 169.998L290.002 160.007M300.139 169.998L310.009 160.007M270.018 199.996H209.995M209.995 199.996L220.011 190.005M209.995 199.996L220.011 210.011M10.1614 89.9954H200.173V209.988H10.1614V89.9954ZM110.176 229.993V209.987H100.184V229.993H65.1768C62.4054 229.993 60.1688 232.23 60.1688 235.001C60.1688 237.772 62.4054 240.009 65.1768 240.009H145.183C147.955 240.009 150.191 237.772 150.191 235.001C150.191 232.23 147.955 229.993 145.183 229.993H110.176ZM20.178 98.7462H190.182V201.26H20.178V98.7462ZM309.644 239.985L290.439 240.009C287.449 240.009 285.042 237.603 285.042 234.612L284.993 185.41C284.993 182.42 287.4 180.013 290.39 180.013L309.596 179.989C312.586 179.989 314.993 182.395 314.993 185.386L315.041 234.588C315.041 237.578 312.61 239.985 309.644 239.985ZM304.077 183.757H295.374C293.745 183.757 292.433 182.444 292.433 180.815V180.013L307.018 179.989V180.791C307.018 182.42 305.706 183.732 304.077 183.757ZM31.2147 137.155H179.169V189.518H31.2147V137.155ZM334.077 110.002H265.958C262.676 110.002 260.026 107.352 260.026 104.07V15.9477C260.026 12.6659 262.676 10.0161 265.958 10.0161H334.077C337.358 10.0161 340.008 12.6659 340.008 15.9477V104.07C340.008 107.352 337.358 110.002 334.077 110.002ZM306.776 13.8331H293.259C291.46 13.8331 290.026 12.3745 290.026 10.5999V9.99219H310.033V10.5999C310.009 12.3988 308.551 13.8331 306.776 13.8331ZM271.987 51.6583H328.023V98.3571H271.987V51.6583ZM293.235 212.612H307.067V230.966H293.235V212.612Z"  stroke-miterlimit="10"/>
</svg>
