<svg width="350" height="250" viewBox="0 0 350 250" fill="none" xmlns="http://www.w3.org/2000/svg">
<path d="M130.013 29.9981C135.531 29.9981 140.005 25.5249 140.005 20.0069C140.005 14.4889 135.531 10.0156 130.013 10.0156C124.495 10.0156 120.022 14.4889 120.022 20.0069C120.022 25.5249 124.495 29.9981 130.013 29.9981ZM130.013 29.9981L130.013 65.7572M280.01 50.0047C280.01 55.5227 284.483 59.996 290.001 59.996C295.52 59.996 299.993 55.5227 299.993 50.0047C299.993 44.4867 295.52 40.0135 290.001 40.0135C284.483 40.0135 280.01 44.4867 280.01 50.0047ZM280.01 50.0047L220.011 50.0052V86.5182M50.0069 39.9895H80.0062V125M175.012 160.006V240.009M175.012 160.006L167.524 169.997M175.012 160.006L182.475 169.997M209.995 160.006V240.009M202.532 169.997L210.019 160.006L217.483 169.997M140.005 160.006V240.009M140.005 160.006L132.517 169.997M140.005 160.006L147.493 169.997M262.19 124.173C262.19 103.243 245.221 86.2745 224.29 86.2745C211.259 86.2745 199.785 92.8381 192.953 102.854C188.359 80.4159 168.472 63.5207 144.672 63.5207C117.444 63.5207 95.3948 85.5939 95.3948 112.796C95.3948 117.123 95.9539 121.329 96.9993 125.34C94.0577 124.611 90.9702 124.173 87.8098 124.173C66.8784 124.173 49.9096 141.141 49.9096 162.072C49.9096 183.002 66.8784 199.971 87.8098 199.971H262.19C283.121 199.971 300.09 183.002 300.09 162.072C300.09 141.141 283.146 124.173 262.19 124.173ZM49.9826 39.989C49.9826 45.507 45.5092 49.9802 39.9909 49.9802C34.4727 49.9802 29.9993 45.507 29.9993 39.989C29.9993 34.471 34.4727 29.9977 39.9909 29.9977C45.5092 29.9977 49.9826 34.471 49.9826 39.989Z" stroke="black" stroke-width="3" stroke-miterlimit="10"/>
</svg>
