<svg width="350" height="250" viewBox="0 0 350 250" fill="none" xmlns="http://www.w3.org/2000/svg">
<path d="M180 30C185.523 30 190 25.5228 190 20C190 14.4772 185.523 10 180 10C174.477 10 170 14.4772 170 20C170 25.5228 174.477 30 180 30ZM180 30V90M235.42 50C240.943 50 245.42 45.5228 245.42 40C245.42 34.4772 240.943 30 235.42 30C229.897 30 225.42 34.4772 225.42 40C225.42 45.5228 229.897 50 235.42 50ZM235.42 50V86.58L221.87 100.13H210M237.04 220C231.517 220 227.04 224.477 227.04 230C227.04 235.523 231.517 240 237.04 240C242.563 240 247.04 235.523 247.04 230C247.04 224.477 242.563 220 237.04 220ZM237.04 220V161.06L229.42 153.45H210M320 124.33C320 129.853 324.477 134.33 330 134.33C335.523 134.33 340 129.853 340 124.33C340 118.807 335.523 114.33 330 114.33C324.477 114.33 320 118.807 320 124.33ZM320 124.33H210M163.48 90V59.52L143.68 39.73M193.95 65.46V90M300.36 110.89C300.36 113.552 302.518 115.71 305.18 115.71C307.842 115.71 310 113.552 310 110.89C310 108.228 307.842 106.07 305.18 106.07C302.518 106.07 300.36 108.228 300.36 110.89ZM300.36 110.89H210M237.04 139.15C237.04 141.812 239.198 143.97 241.86 143.97C244.522 143.97 246.68 141.812 246.68 139.15C246.68 136.488 244.522 134.33 241.86 134.33C239.198 134.33 237.04 136.488 237.04 139.15ZM237.04 139.15H210M198.7 160V173.89L209.08 184.27M185.16 202.95C179.422 202.95 174.77 207.602 174.77 213.34C174.77 219.078 179.422 223.73 185.16 223.73C190.898 223.73 195.55 219.078 195.55 213.34C195.55 207.602 190.898 202.95 185.16 202.95ZM185.16 202.95V160M153.89 189.34C151.123 189.34 148.88 191.583 148.88 194.35C148.88 197.117 151.123 199.36 153.89 199.36C156.657 199.36 158.9 197.117 158.9 194.35C158.9 191.583 156.657 189.34 153.89 189.34ZM153.89 189.34V160M170 174.56V160M34.18 62.44C34.18 69.1171 28.7671 74.53 22.09 74.53C15.4129 74.53 10 69.1171 10 62.44C10 55.7629 15.4129 50.35 22.09 50.35C28.7671 50.35 34.18 55.7629 34.18 62.44ZM34.18 62.44H136.55L149.05 74.94V90M125.07 114.32C125.07 117.087 122.827 119.33 120.06 119.33C117.293 119.33 115.05 117.087 115.05 114.32C115.05 111.553 117.293 109.31 120.06 109.31C122.827 109.31 125.07 111.553 125.07 114.32ZM125.07 114.32H140M89.9 142.66C89.9 145.217 87.8271 147.29 85.27 147.29C82.7129 147.29 80.64 145.217 80.64 142.66C80.64 140.103 82.7129 138.03 85.27 138.03C87.8271 138.03 89.9 140.103 89.9 142.66ZM89.9 142.66H140M112.85 91.51L122.95 101.61H140M63.77 128.11H140M140 154.9H126.43L113.97 167.36V207.13M155.01 105.01H194.99V144.99H155.01V105.01ZM140 90H210V160H140V90ZM145.22 36.91C145.22 39.4174 143.187 41.45 140.68 41.45C138.173 41.45 136.14 39.4174 136.14 36.91C136.14 34.4026 138.173 32.37 140.68 32.37C143.187 32.37 145.22 34.4026 145.22 36.91ZM198.49 60.93C198.49 63.4374 196.457 65.47 193.95 65.47C191.443 65.47 189.41 63.4374 189.41 60.93C189.41 58.4226 191.443 56.39 193.95 56.39C196.457 56.39 198.49 58.4226 198.49 60.93ZM217.06 187.29C217.06 189.952 214.902 192.11 212.24 192.11C209.578 192.11 207.42 189.952 207.42 187.29C207.42 184.628 209.578 182.47 212.24 182.47C214.902 182.47 217.06 184.628 217.06 187.29ZM174.85 179.42C174.85 182.099 172.679 184.27 170 184.27C167.321 184.27 165.15 182.099 165.15 179.42C165.15 176.741 167.321 174.57 170 174.57C172.679 174.57 174.85 176.741 174.85 179.42ZM114.35 88.24C114.35 90.6424 112.402 92.59 110 92.59C107.598 92.59 105.65 90.6424 105.65 88.24C105.65 85.8376 107.598 83.89 110 83.89C112.402 83.89 114.35 85.8376 114.35 88.24ZM63.78 128.11C63.78 134.677 58.4567 140 51.89 140C45.3233 140 40 134.677 40 128.11C40 121.543 45.3233 116.22 51.89 116.22C58.4567 116.22 63.78 121.543 63.78 128.11ZM124.97 218.57C124.97 224.883 119.853 230 113.54 230C107.227 230 102.11 224.883 102.11 218.57C102.11 212.257 107.227 207.14 113.54 207.14C119.853 207.14 124.97 212.257 124.97 218.57Z" stroke="black" stroke-width="3" stroke-miterlimit="10"/>
</svg>
