<svg width="350" height="250" viewBox="0 0 350 250" fill="none" xmlns="http://www.w3.org/2000/svg">
<path d="M289.99 140.1V109.9H268.78C267.74 103.42 266.05 97.15 263.77 91.18L282.13 80.58L267.03 54.43L248.66 65.04C244.57 60.02 239.98 55.43 234.96 51.34L245.57 32.97L219.42 17.87L208.82 36.23C202.84 33.95 196.58 32.25 190.1 31.22V10H159.9V31.21C153.42 32.25 147.15 33.95 141.18 36.22L130.58 17.86L104.43 32.96L115.04 51.33C110.02 55.42 105.43 60.01 101.34 65.03L82.95 54.42L67.85 80.57L86.21 91.17C83.93 97.15 82.23 103.41 81.2 109.89H59.99V140.09H81.2C82.24 146.57 83.94 152.84 86.21 158.81L67.85 169.41L82.95 195.56L101.32 184.95C105.41 189.97 110 194.56 115.02 198.65L104.41 217.02L130.56 232.12L141.16 213.76C147.14 216.04 153.4 217.74 159.88 218.77V240H190.08V218.79C196.57 217.75 202.83 216.05 208.8 213.78L219.4 232.14L245.55 217.04L234.94 198.67C239.96 194.58 244.55 189.99 248.64 184.97L267.01 195.58L282.11 169.43L263.75 158.83C266.03 152.85 267.73 146.59 268.76 140.11H289.99V140.1Z"  stroke-miterlimit="10"/>
<path d="M174.99 210C221.934 210 259.99 171.944 259.99 125C259.99 78.0558 221.934 40 174.99 40C128.046 40 89.99 78.0558 89.99 125C89.99 171.944 128.046 210 174.99 210Z"  stroke-miterlimit="10"/>
<path d="M174.99 160C194.32 160 209.99 144.33 209.99 125C209.99 105.67 194.32 90 174.99 90C155.66 90 139.99 105.67 139.99 125C139.99 144.33 155.66 160 174.99 160Z"  stroke-miterlimit="10"/>
<path d="M174.99 170C199.843 170 219.99 149.853 219.99 125C219.99 100.147 199.843 80 174.99 80C150.137 80 129.99 100.147 129.99 125C129.99 149.853 150.137 170 174.99 170Z"  stroke-miterlimit="10"/>
<path d="M155.23 129.28L165.46 142.2L194.18 108.2"  stroke-miterlimit="10"/>
</svg>
