<svg width="100" height="100" viewBox="0 0 100 100" fill="none" xmlns="http://www.w3.org/2000/svg">
<path d="M70.0001 41.708L55.0001 30.7288M67.3958 68.937L73.0833 51.2704M40.6667 74.9997H59.5M26.9167 51.2915L32.6251 68.9998M45.0001 30.7288L30.0001 41.708M56.2292 27.0622C56.2292 30.5024 53.4403 33.2913 50 33.2913C46.5598 33.2913 43.7709 30.5024 43.7709 27.0622C43.7709 23.6219 46.5598 20.833 50 20.833C53.4403 20.833 56.2292 23.6219 56.2292 27.0622ZM81.2292 45.3953C81.2292 48.8356 78.4403 51.6245 75 51.6245C71.5598 51.6245 68.7709 48.8356 68.7709 45.3953C68.7709 41.955 71.5598 39.1661 75 39.1661C78.4403 39.1661 81.2292 41.955 81.2292 45.3953ZM31.2292 45.3953C31.2292 48.8356 28.4403 51.6245 25 51.6245C21.5598 51.6245 18.7709 48.8356 18.7709 45.3953C18.7709 41.955 21.5598 39.1661 25 39.1661C28.4403 39.1661 31.2292 41.955 31.2292 45.3953ZM40.6876 74.9166C40.6876 78.3568 37.8987 81.1457 34.4584 81.1457C31.0181 81.1457 28.2292 78.3568 28.2292 74.9166C28.2292 71.4763 31.0181 68.6874 34.4584 68.6874C37.8987 68.6874 40.6876 71.4763 40.6876 74.9166ZM71.9584 74.9166C71.9584 78.3568 69.1695 81.1457 65.7293 81.1457C62.289 81.1457 59.5001 78.3568 59.5001 74.9166C59.5001 71.4763 62.289 68.6874 65.7293 68.6874C69.1695 68.6874 71.9584 71.4763 71.9584 74.9166Z" stroke-miterlimit="10"/>
</svg>
