<svg width="100" height="100" viewBox="0 0 100 100" fill="none" xmlns="http://www.w3.org/2000/svg">
<path fill-rule="evenodd" clip-rule="evenodd" d="M21.041 32.6199C21.041 30.7027 22.596 29.1599 24.501 29.1599H56.091C58.0083 29.1599 59.551 30.7149 59.551 32.6199V43.7499H74.841C76.7461 43.7499 78.301 45.2927 78.301 47.2099V66.2999C78.301 68.2172 76.7461 69.7599 74.841 69.7599H70.2063L72.1095 78.8712L60.9528 69.7599H43.251C41.3338 69.7599 39.791 68.205 39.791 66.2999V53.0799H34.0311L22.9409 60.3977L24.1543 53.0628C22.4012 52.8887 21.041 51.4086 21.041 49.6199V32.6199ZM39.791 52.0799V47.2099C39.791 45.2927 41.346 43.7499 43.251 43.7499H58.551V32.6199C58.551 31.265 57.4538 30.1599 56.091 30.1599H24.501C23.1461 30.1599 22.041 31.2572 22.041 32.6199V49.6199C22.041 50.9749 23.1383 52.0799 24.501 52.0799H25.3305L24.3012 58.3021L33.7309 52.0799H39.791ZM43.251 44.7499C41.8961 44.7499 40.791 45.8472 40.791 47.2099V66.2999C40.791 67.6549 41.8883 68.7599 43.251 68.7599H61.3092L70.5526 76.3086L68.9758 68.7599H74.841C76.196 68.7599 77.301 67.6627 77.301 66.2999V47.2099C77.301 45.8472 76.196 44.7499 74.841 44.7499H43.251Z" fill="currentColor"/>
</svg>
