<svg width="100" height="101" viewBox="0 0 100 101" fill="none" xmlns="http://www.w3.org/2000/svg">
<path d="M72.91 27.0898H27.08V72.9198H72.91V27.0898Z" stroke-miterlimit="10"/>
<path d="M68.75 31.2598H31.25V68.7598H68.75V31.2598Z" stroke-miterlimit="10"/>
<path d="M29.17 27.0897V22.9297" stroke-miterlimit="10"/>
<path d="M33.33 27.0897V22.9297" stroke-miterlimit="10"/>
<path d="M37.5 27.0897V22.9297" stroke-miterlimit="10"/>
<path d="M41.67 27.0897V22.9297" stroke-miterlimit="10"/>
<path d="M45.83 27.0897V22.9297" stroke-miterlimit="10"/>
<path d="M50 27.0897V22.9297" stroke-miterlimit="10"/>
<path d="M54.17 27.0897V22.9297" stroke-miterlimit="10"/>
<path d="M58.33 27.0897V22.9297" stroke-miterlimit="10"/>
<path d="M62.5 27.0897V22.9297" stroke-miterlimit="10"/>
<path d="M66.67 27.0897V22.9297" stroke-miterlimit="10"/>
<path d="M70.83 27.0897V22.9297" stroke-miterlimit="10"/>
<path d="M29.17 77.0897V72.9297" stroke-miterlimit="10"/>
<path d="M33.33 77.0897V72.9297" stroke-miterlimit="10"/>
<path d="M37.5 77.0897V72.9297" stroke-miterlimit="10"/>
<path d="M41.67 77.0897V72.9297" stroke-miterlimit="10"/>
<path d="M45.83 77.0897V72.9297" stroke-miterlimit="10"/>
<path d="M50 77.0897V72.9297" stroke-miterlimit="10"/>
<path d="M54.17 77.0897V72.9297" stroke-miterlimit="10"/>
<path d="M58.33 77.0897V72.9297" stroke-miterlimit="10"/>
<path d="M62.5 77.0897V72.9297" stroke-miterlimit="10"/>
<path d="M66.67 77.0897V72.9297" stroke-miterlimit="10"/>
<path d="M70.83 77.0897V72.9297" stroke-miterlimit="10"/>
<path d="M72.92 29.1797H77.08" stroke-miterlimit="10"/>
<path d="M72.92 33.3398H77.08" stroke-miterlimit="10"/>
<path d="M72.92 37.5098H77.08" stroke-miterlimit="10"/>
<path d="M72.92 41.6797H77.08" stroke-miterlimit="10"/>
<path d="M72.92 45.8398H77.08" stroke-miterlimit="10"/>
<path d="M72.92 50.0098H77.08" stroke-miterlimit="10"/>
<path d="M72.92 54.1797H77.08" stroke-miterlimit="10"/>
<path d="M72.92 58.3398H77.08" stroke-miterlimit="10"/>
<path d="M72.92 62.5098H77.08" stroke-miterlimit="10"/>
<path d="M72.92 66.6797H77.08" stroke-miterlimit="10"/>
<path d="M72.92 70.8398H77.08" stroke-miterlimit="10"/>
<path d="M22.92 29.1797H27.08" stroke-miterlimit="10"/>
<path d="M22.92 33.3398H27.08" stroke-miterlimit="10"/>
<path d="M22.92 37.5098H27.08" stroke-miterlimit="10"/>
<path d="M22.92 41.6797H27.08" stroke-miterlimit="10"/>
<path d="M22.92 45.8398H27.08" stroke-miterlimit="10"/>
<path d="M22.92 50.0098H27.08" stroke-miterlimit="10"/>
<path d="M22.92 54.1797H27.08" stroke-miterlimit="10"/>
<path d="M22.92 58.3398H27.08" stroke-miterlimit="10"/>
<path d="M22.92 62.5098H27.08" stroke-miterlimit="10"/>
<path d="M22.92 66.6797H27.08" stroke-miterlimit="10"/>
<path d="M22.92 70.8398H27.08" stroke-miterlimit="10"/>
<path d="M41.67 37.5098V50.0098H60.42" stroke-miterlimit="10"/>
<path d="M37.5 41.6797H39.58V45.8397H50V58.3397H58.33" stroke-miterlimit="10"/>
<path d="M60.42 39.5898V41.6798H54.17V62.5098" stroke-miterlimit="10"/>
<path d="M37.5 60.4297V56.2597H45.83V41.6797" stroke-miterlimit="10"/>
<path d="M60.42 39.5897C61.5687 39.5897 62.5 38.6584 62.5 37.5097C62.5 36.3609 61.5687 35.4297 60.42 35.4297C59.2712 35.4297 58.34 36.3609 58.34 37.5097C58.34 38.6584 59.2712 39.5897 60.42 39.5897Z" stroke-miterlimit="10"/>
<path d="M45.83 41.6698C46.9788 41.6698 47.91 40.7385 47.91 39.5898C47.91 38.441 46.9788 37.5098 45.83 37.5098C44.6812 37.5098 43.75 38.441 43.75 39.5898C43.75 40.7385 44.6812 41.6698 45.83 41.6698Z" stroke-miterlimit="10"/>
<path d="M35.42 43.7596C36.5687 43.7596 37.5 42.8284 37.5 41.6796C37.5 40.5309 36.5687 39.5996 35.42 39.5996C34.2712 39.5996 33.34 40.5309 33.34 41.6796C33.34 42.8284 34.2712 43.7596 35.42 43.7596Z" stroke-miterlimit="10"/>
<path d="M60.42 60.4198C61.5687 60.4198 62.5 59.4885 62.5 58.3398C62.5 57.191 61.5687 56.2598 60.42 56.2598C59.2712 56.2598 58.34 57.191 58.34 58.3398C58.34 59.4885 59.2712 60.4198 60.42 60.4198Z" stroke-miterlimit="10"/>
<path d="M62.5 52.0897C63.6487 52.0897 64.58 51.1584 64.58 50.0097C64.58 48.8609 63.6487 47.9297 62.5 47.9297C61.3512 47.9297 60.42 48.8609 60.42 50.0097C60.42 51.1584 61.3512 52.0897 62.5 52.0897Z" stroke-miterlimit="10"/>
<path d="M41.67 37.5096C42.8187 37.5096 43.75 36.5784 43.75 35.4296C43.75 34.2809 42.8187 33.3496 41.67 33.3496C40.5212 33.3496 39.59 34.2809 39.59 35.4296C39.59 36.5784 40.5212 37.5096 41.67 37.5096Z" stroke-miterlimit="10"/>
<path d="M54.17 66.6698C55.3187 66.6698 56.25 65.7385 56.25 64.5898C56.25 63.441 55.3187 62.5098 54.17 62.5098C53.0212 62.5098 52.09 63.441 52.09 64.5898C52.09 65.7385 53.0212 66.6698 54.17 66.6698Z" stroke-miterlimit="10"/>
<path d="M37.5 64.5897C38.6487 64.5897 39.58 63.6584 39.58 62.5097C39.58 61.3609 38.6487 60.4297 37.5 60.4297C36.3512 60.4297 35.42 61.3609 35.42 62.5097C35.42 63.6584 36.3512 64.5897 37.5 64.5897Z" stroke-miterlimit="10"/>
</svg>
