<svg width="100" height="100" viewBox="0 0 100 100" fill="none" xmlns="http://www.w3.org/2000/svg">
<path d="M22.9167 22.292H43.7501M25 26.4584H41.6667M25 26.4584V43.125M25 26.4584L41.6667 43.125M41.6667 26.4584V43.125M41.6667 26.4584L25 43.125M41.6667 43.125H25M56.25 55.625H64.5833M56.25 55.625V63.9583M56.25 55.625L64.5833 63.9583M64.5833 55.625V63.9583M64.5833 55.625L56.25 63.9583M64.5833 63.9583H56.25M68.75 68.125H77.0833M68.75 68.125V76.4583M68.75 68.125L77.0833 76.4583M77.0833 68.125V76.4583M77.0833 68.125L68.75 76.4583M77.0833 76.4583H68.75M68.75 55.625H77.0833M68.75 55.625V63.9583M68.75 55.625L77.0833 63.9583M77.0833 55.625V63.9583M77.0833 55.625L68.75 63.9583M77.0833 63.9583H68.75M56.25 68.125H64.5833M56.25 68.125V76.4583M56.25 68.125L64.5833 76.4583M64.5833 68.125V76.4583M64.5833 68.125L56.25 76.4583M64.5833 76.4583H56.25M18.75 18.125H47.9167V47.2917H18.75V18.125ZM52.0833 51.4584H81.2499V80.625H52.0833V51.4584Z" stroke="black" stroke-miterlimit="10"/>
</svg>
