<svg width="100" height="100" viewBox="0 0 100 100" fill="none" xmlns="http://www.w3.org/2000/svg">
<path d="M60.4166 81.2503V56.2503C60.4166 50.8962 57.0416 46.3337 52.3125 44.5628C54.6666 43.0837 56.25 40.5003 56.25 37.5003C56.25 32.8962 52.5208 29.167 47.9166 29.167C43.3125 29.167 39.5833 32.8962 39.5833 37.5003C39.5833 40.4795 41.1666 43.0837 43.5208 44.5628C38.7916 46.3337 35.4166 50.8962 35.4166 56.2503V81.2503" stroke-miterlimit="10"/>
<path d="M29.1666 33.333C32.6184 33.333 35.4166 30.5348 35.4166 27.083C35.4166 23.6312 32.6184 20.833 29.1666 20.833C25.7148 20.833 22.9166 23.6312 22.9166 27.083C22.9166 30.5348 25.7148 33.333 29.1666 33.333Z" stroke-miterlimit="10"/>
<path d="M22.9166 70.833C26.3684 70.833 29.1666 68.0348 29.1666 64.583C29.1666 61.1312 26.3684 58.333 22.9166 58.333C19.4648 58.333 16.6666 61.1312 16.6666 64.583C16.6666 68.0348 19.4648 70.833 22.9166 70.833Z" stroke-miterlimit="10"/>
<path d="M72.9166 54.167C76.3684 54.167 79.1666 51.3688 79.1666 47.917C79.1666 44.4652 76.3684 41.667 72.9166 41.667C69.4648 41.667 66.6666 44.4652 66.6666 47.917C66.6666 51.3688 69.4648 54.167 72.9166 54.167Z" stroke-miterlimit="10"/>
<path d="M45.8333 54.1667C46.9839 54.1667 47.9167 53.2339 47.9167 52.0833C47.9167 50.9327 46.9839 50 45.8333 50C44.6827 50 43.75 50.9327 43.75 52.0833C43.75 53.2339 44.6827 54.1667 45.8333 54.1667Z" stroke-miterlimit="10"/>
<path d="M52.0831 62.667C53.3258 62.667 54.3331 61.6596 54.3331 60.417C54.3331 59.1744 53.3258 58.167 52.0831 58.167C50.8405 58.167 49.8331 59.1744 49.8331 60.417C49.8331 61.6596 50.8405 62.667 52.0831 62.667Z" stroke-miterlimit="10"/>
<path d="M41.6667 66.6667C42.8173 66.6667 43.75 65.7339 43.75 64.5833C43.75 63.4327 42.8173 62.5 41.6667 62.5C40.5161 62.5 39.5834 63.4327 39.5834 64.5833C39.5834 65.7339 40.5161 66.6667 41.6667 66.6667Z" stroke-miterlimit="10"/>
<path d="M29 33.5V52H44" stroke-dasharray="2 2"/>
<path d="M29 64.5H39.5M54.5 60.5H73V54.5" stroke-dasharray="2 2"/>
</svg>
