<svg width="100" height="101" viewBox="0 0 100 101" fill="none" xmlns="http://www.w3.org/2000/svg">
<path d="M50.01 34.3898V18.7598" stroke-miterlimit="10"/>
<path d="M44.33 24.4398L50.01 18.7598L55.7 24.4398" stroke-miterlimit="10"/>
<path d="M50.01 65.9199V81.5399" stroke-miterlimit="10"/>
<path d="M55.7 75.8594L50.01 81.5394L44.33 75.8594" stroke-miterlimit="10"/>
<path d="M38.8599 39.0002L27.8199 27.9502" stroke-miterlimit="10"/>
<path d="M27.8199 35.9902V27.9502H35.8499" stroke-miterlimit="10"/>
<path d="M61.1599 61.2998L72.2099 72.3498" stroke-miterlimit="10"/>
<path d="M72.2099 64.3105V72.3505H64.1799" stroke-miterlimit="10"/>
<path d="M34.25 50.1494H18.62" stroke-miterlimit="10"/>
<path d="M24.3 55.8297L18.62 50.1497L24.3 44.4697" stroke-miterlimit="10"/>
<path d="M65.78 50.1494H81.41" stroke-miterlimit="10"/>
<path d="M75.72 44.4697L81.41 50.1497L75.72 55.8297" stroke-miterlimit="10"/>
<path d="M38.8599 61.2998L27.8199 72.3498" stroke-miterlimit="10"/>
<path d="M35.8499 72.3505H27.8199V64.3105" stroke-miterlimit="10"/>
<path d="M61.1599 39.0002L72.2099 27.9502" stroke-miterlimit="10"/>
<path d="M64.1799 27.9502H72.2099V35.9902" stroke-miterlimit="10"/>
</svg>
